0, 0, Header, 1, 10, 480
1, 0, Start_track
1, 0, Title_t, "Klaviersonate Nr. 8 KV 311 2. Satz"
1, 0, Copyright_t, "Copyright © 2006 von Bernd Krüger. "
1, 0, Text_t, "Wolfgang Amadeus Mozart"
1, 0, Text_t, "Herausgegeben am  1.8.2006\012"
1, 0, Text_t, "Update am 6.6.2013\012"
1, 0, Text_t, "Dauer:  4:39 Minuten\012"
1, 0, Time_signature, 2, 2, 24, 8
1, 0, Key_signature, 1, "major"
1, 0, Tempo, 1351656
1, 180, Tempo, 1219760
1, 240, Tempo, 1316078
1, 840, Tempo, 1415428
1, 960, Tempo, 1316078
1, 1440, Tempo, 1293382
1, 1560, Tempo, 1339585
1, 1680, Tempo, 1282325
1, 1800, Tempo, 1500375
1, 1920, Tempo, 1415428
1, 2760, Tempo, 1304631
1, 2880, Tempo, 1282325
1, 3000, Tempo, 1351656
1, 3120, Tempo, 1304631
1, 3240, Tempo, 1500375
1, 3360, Tempo, 1415428
1, 3840, Tempo, 1327727
1, 4020, Tempo, 1229760
1, 4080, Tempo, 1304631
1, 4680, Tempo, 1415428
1, 4800, Tempo, 1316078
1, 5280, Tempo, 1293382
1, 5400, Tempo, 1351656
1, 5520, Tempo, 1316078
1, 5640, Tempo, 1500375
1, 5760, Tempo, 1415428
1, 6240, Tempo, 1376462
1, 6600, Tempo, 1579363
1, 6720, Tempo, 1428912
1, 7080, Tempo, 1562907
1, 7142, Tempo, 1974334
1, 7200, Tempo, 1389210
1, 7320, Tempo, 1363946
1, 7440, Tempo, 1316078
1, 7560, Tempo, 1389210
1, 7680, Tempo, 1351656
1, 7740, Tempo, 1316078
1, 8040, Tempo, 1351656
1, 8160, Tempo, 1304631
1, 8520, Tempo, 1402197
1, 8640, Tempo, 1304631
1, 9000, Tempo, 1363946
1, 9120, Tempo, 1304631
1, 9540, Tempo, 1685867
1, 9600, Tempo, 1316078
1, 9960, Tempo, 1351656
1, 10080, Tempo, 1304631
1, 10440, Tempo, 1562907
1, 10560, Tempo, 1351656
1, 10740, Tempo, 1219760
1, 10800, Tempo, 1316078
1, 11400, Tempo, 1415428
1, 11520, Tempo, 1316078
1, 12000, Tempo, 1282325
1, 12120, Tempo, 1351656
1, 12240, Tempo, 1304631
1, 12360, Tempo, 1500375
1, 12480, Tempo, 1415428
1, 13320, Tempo, 1304631
1, 13440, Tempo, 1282325
1, 13560, Tempo, 1351656
1, 13680, Tempo, 1304631
1, 13800, Tempo, 1500375
1, 13920, Tempo, 1415428
1, 14400, Tempo, 1327727
1, 14580, Tempo, 1229760
1, 14640, Tempo, 1304631
1, 15240, Tempo, 1415428
1, 15360, Tempo, 1316078
1, 15840, Tempo, 1293382
1, 15960, Tempo, 1351656
1, 16080, Tempo, 1316078
1, 16200, Tempo, 1500375
1, 16320, Tempo, 1415428
1, 16800, Tempo, 1376462
1, 17160, Tempo, 1579363
1, 17280, Tempo, 1428912
1, 17640, Tempo, 1562907
1, 17702, Tempo, 1974334
1, 17760, Tempo, 1389210
1, 17880, Tempo, 1363946
1, 18000, Tempo, 1316078
1, 18120, Tempo, 1389210
1, 18240, Tempo, 1351656
1, 18300, Tempo, 1316078
1, 18600, Tempo, 1351656
1, 18720, Tempo, 1304631
1, 19080, Tempo, 1402197
1, 19200, Tempo, 1304631
1, 19560, Tempo, 1363946
1, 19680, Tempo, 1304631
1, 20100, Tempo, 1685867
1, 20160, Tempo, 1316078
1, 20520, Tempo, 1351656
1, 20640, Tempo, 1304631
1, 21000, Tempo, 1402197
1, 21120, Tempo, 1316078
1, 21900, Tempo, 1351656
1, 22080, Tempo, 1316078
1, 22320, Tempo, 1293382
1, 22440, Tempo, 1389210
1, 22500, Tempo, 1304631
1, 22920, Tempo, 1363946
1, 23040, Tempo, 1304631
1, 24000, Tempo, 1351656
1, 24480, Tempo, 1304631
1, 25680, Tempo, 1239926
1, 25860, Tempo, 1339585
1, 25920, Tempo, 1304631
1, 26580, Tempo, 1260769
1, 26760, Tempo, 1363946
1, 26880, Tempo, 1304631
1, 27720, Tempo, 1402197
1, 27840, Tempo, 1304631
1, 28320, Tempo, 1376462
1, 28440, Tempo, 1293382
1, 28740, Tempo, 1562907
1, 28800, Tempo, 1339585
1, 28920, Tempo, 1293382
1, 29280, Tempo, 1531003
1, 29340, Tempo, 1239926
1, 29400, Tempo, 1304631
1, 29640, Tempo, 1402197
1, 29760, Tempo, 1304631
1, 30600, Tempo, 1363946
1, 30660, Tempo, 1531003
1, 30720, Tempo, 1304631
1, 31080, Tempo, 1363946
1, 31200, Tempo, 1304631
1, 31560, Tempo, 1351656
1, 31680, Tempo, 1304631
1, 33600, Tempo, 1351656
1, 33780, Tempo, 1219760
1, 33840, Tempo, 1316078
1, 34440, Tempo, 1415428
1, 34560, Tempo, 1316078
1, 35040, Tempo, 1293382
1, 35059, Tempo, 1316078
1, 35400, Tempo, 1500375
1, 35520, Tempo, 1351656
1, 35700, Tempo, 1219760
1, 35760, Tempo, 1304631
1, 35782, Tempo, 1293382
1, 35805, Tempo, 1282325
1, 35836, Tempo, 1293382
1, 35859, Tempo, 1304631
1, 35904, Tempo, 1304631
1, 35942, Tempo, 1293382
1, 35973, Tempo, 1282325
1, 35988, Tempo, 1293382
1, 35996, Tempo, 1304631
1, 36003, Tempo, 1316078
1, 36064, Tempo, 1327727
1, 36072, Tempo, 1316078
1, 36080, Tempo, 1304631
1, 36087, Tempo, 1293382
1, 36095, Tempo, 1282325
1, 36102, Tempo, 1271456
1, 36171, Tempo, 1293382
1, 36255, Tempo, 1293382
1, 36360, Tempo, 1415428
1, 36361, Tempo, 1304631
1, 36384, Tempo, 1316078
1, 36407, Tempo, 1327727
1, 36422, Tempo, 1339585
1, 36476, Tempo, 1304631
1, 36480, Tempo, 1316078
1, 36537, Tempo, 1282325
1, 36590, Tempo, 1327727
1, 36674, Tempo, 1293382
1, 36735, Tempo, 1327727
1, 36803, Tempo, 1293382
1, 36925, Tempo, 1304631
1, 36960, Tempo, 1293382
1, 36971, Tempo, 1271456
1, 36979, Tempo, 1316078
1, 37024, Tempo, 1339585
1, 37093, Tempo, 1293382
1, 37184, Tempo, 1316078
1, 37320, Tempo, 1376462
1, 37440, Tempo, 1339585
1, 37680, Tempo, 1304631
1, 37920, Tempo, 1339585
1, 38400, Tempo, 1351656
1, 39360, Tempo, 1339585
1, 39600, Tempo, 1304631
1, 39840, Tempo, 1339585
1, 40080, Tempo, 1293382
1, 40260, Tempo, 1442654
1, 40320, Tempo, 1339585
1, 40800, Tempo, 1389210
1, 40980, Tempo, 1339585
1, 41280, Tempo, 1339585
1, 41520, Tempo, 1304631
1, 41760, Tempo, 1339585
1, 42240, Tempo, 1351656
1, 43200, Tempo, 1339585
1, 43440, Tempo, 1304631
1, 43680, Tempo, 1339585
1, 43920, Tempo, 1293382
1, 44100, Tempo, 1442654
1, 44160, Tempo, 1339585
1, 44640, Tempo, 1389210
1, 44820, Tempo, 1339585
1, 45120, Tempo, 1293382
1, 45300, Tempo, 1339585
1, 45399, Tempo, 1376462
1, 45447, Tempo, 1363946
1, 45471, Tempo, 1351656
1, 45495, Tempo, 1339585
1, 45543, Tempo, 1327727
1, 45567, Tempo, 1316078
1, 45591, Tempo, 1304631
1, 45639, Tempo, 1282325
1, 45687, Tempo, 1293382
1, 45735, Tempo, 1304631
1, 45783, Tempo, 1316078
1, 45879, Tempo, 1316078
1, 45903, Tempo, 1327727
1, 45927, Tempo, 1339585
1, 45951, Tempo, 1351656
1, 45975, Tempo, 1363946
1, 45999, Tempo, 1376462
1, 46023, Tempo, 1389210
1, 46080, Tempo, 1327727
1, 47040, Tempo, 1351656
1, 47220, Tempo, 1219760
1, 47280, Tempo, 1316078
1, 47880, Tempo, 1415428
1, 48000, Tempo, 1316078
1, 48120, Tempo, 1351656
1, 48240, Tempo, 1304631
1, 48360, Tempo, 1339585
1, 48480, Tempo, 1293382
1, 48499, Tempo, 1316078
1, 48840, Tempo, 1500375
1, 48960, Tempo, 1415428
1, 49800, Tempo, 1304631
1, 49920, Tempo, 1282325
1, 50040, Tempo, 1351656
1, 50160, Tempo, 1304631
1, 50280, Tempo, 1500375
1, 50400, Tempo, 1415428
1, 50880, Tempo, 1327727
1, 51060, Tempo, 1229760
1, 51120, Tempo, 1304631
1, 51720, Tempo, 1415428
1, 51840, Tempo, 1316078
1, 52320, Tempo, 1293382
1, 52440, Tempo, 1351656
1, 52560, Tempo, 1316078
1, 52680, Tempo, 1500375
1, 52800, Tempo, 1415428
1, 53280, Tempo, 1376462
1, 53640, Tempo, 1579363
1, 53760, Tempo, 1428912
1, 54120, Tempo, 1562907
1, 54182, Tempo, 1974334
1, 54240, Tempo, 1389210
1, 54360, Tempo, 1363946
1, 54480, Tempo, 1316078
1, 54600, Tempo, 1389210
1, 54720, Tempo, 1351656
1, 54780, Tempo, 1316078
1, 55080, Tempo, 1351656
1, 55200, Tempo, 1304631
1, 55560, Tempo, 1402197
1, 55680, Tempo, 1304631
1, 56040, Tempo, 1363946
1, 56160, Tempo, 1304631
1, 56580, Tempo, 1485516
1, 56640, Tempo, 1316078
1, 57000, Tempo, 1351656
1, 57120, Tempo, 1304631
1, 57480, Tempo, 1562907
1, 57600, Tempo, 1304631
1, 58560, Tempo, 1351656
1, 59040, Tempo, 1304631
1, 60240, Tempo, 1239926
1, 60420, Tempo, 1339585
1, 60480, Tempo, 1304631
1, 61140, Tempo, 1260769
1, 61320, Tempo, 1363946
1, 61440, Tempo, 1304631
1, 62280, Tempo, 1402197
1, 62400, Tempo, 1304631
1, 62880, Tempo, 1376462
1, 63000, Tempo, 1293382
1, 63300, Tempo, 1562907
1, 63360, Tempo, 1339585
1, 63480, Tempo, 1293382
1, 63840, Tempo, 1531003
1, 63900, Tempo, 1239926
1, 63960, Tempo, 1304631
1, 64200, Tempo, 1402197
1, 64320, Tempo, 1304631
1, 65160, Tempo, 1363946
1, 65220, Tempo, 1531003
1, 65280, Tempo, 1304631
1, 65640, Tempo, 1363946
1, 65760, Tempo, 1304631
1, 66120, Tempo, 1351656
1, 66240, Tempo, 1304631
1, 68160, Tempo, 1351656
1, 68340, Tempo, 1219760
1, 68400, Tempo, 1316078
1, 69000, Tempo, 1415428
1, 69120, Tempo, 1316078
1, 69600, Tempo, 1293382
1, 69619, Tempo, 1316078
1, 69960, Tempo, 1500375
1, 70080, Tempo, 1351656
1, 70260, Tempo, 1219760
1, 70320, Tempo, 1304631
1, 70342, Tempo, 1293382
1, 70365, Tempo, 1282325
1, 70396, Tempo, 1293382
1, 70419, Tempo, 1304631
1, 70464, Tempo, 1304631
1, 70502, Tempo, 1293382
1, 70533, Tempo, 1282325
1, 70548, Tempo, 1293382
1, 70556, Tempo, 1304631
1, 70563, Tempo, 1316078
1, 70624, Tempo, 1327727
1, 70632, Tempo, 1316078
1, 70640, Tempo, 1304631
1, 70647, Tempo, 1293382
1, 70655, Tempo, 1282325
1, 70662, Tempo, 1271456
1, 70731, Tempo, 1293382
1, 70815, Tempo, 1293382
1, 70920, Tempo, 1415428
1, 70921, Tempo, 1304631
1, 70944, Tempo, 1316078
1, 70967, Tempo, 1327727
1, 70982, Tempo, 1339585
1, 71036, Tempo, 1304631
1, 71040, Tempo, 1316078
1, 71097, Tempo, 1282325
1, 71150, Tempo, 1327727
1, 71234, Tempo, 1293382
1, 71295, Tempo, 1327727
1, 71363, Tempo, 1293382
1, 71485, Tempo, 1304631
1, 71520, Tempo, 1293382
1, 71531, Tempo, 1271456
1, 71539, Tempo, 1316078
1, 71584, Tempo, 1339585
1, 71653, Tempo, 1293382
1, 71744, Tempo, 1316078
1, 71880, Tempo, 1376462
1, 72000, Tempo, 1339585
1, 72240, Tempo, 1304631
1, 72480, Tempo, 1339585
1, 72960, Tempo, 1351656
1, 73920, Tempo, 1339585
1, 74160, Tempo, 1304631
1, 74400, Tempo, 1339585
1, 74640, Tempo, 1293382
1, 74820, Tempo, 1442654
1, 74880, Tempo, 1339585
1, 75360, Tempo, 1389210
1, 75540, Tempo, 1339585
1, 75840, Tempo, 1339585
1, 76080, Tempo, 1304631
1, 76320, Tempo, 1339585
1, 76800, Tempo, 1351656
1, 77760, Tempo, 1339585
1, 78000, Tempo, 1304631
1, 78240, Tempo, 1339585
1, 78480, Tempo, 1293382
1, 78660, Tempo, 1442654
1, 78720, Tempo, 1339585
1, 79200, Tempo, 1389210
1, 79380, Tempo, 1339585
1, 80160, Tempo, 1304631
1, 80199, Tempo, 1282325
1, 80247, Tempo, 1293382
1, 80295, Tempo, 1304631
1, 80343, Tempo, 1316078
1, 80439, Tempo, 1316078
1, 80463, Tempo, 1327727
1, 80487, Tempo, 1339585
1, 80511, Tempo, 1351656
1, 80535, Tempo, 1363946
1, 80559, Tempo, 1376462
1, 80583, Tempo, 1389210
1, 80640, Tempo, 1327727
1, 81199, Tempo, 1316078
1, 81295, Tempo, 1327727
1, 81367, Tempo, 1339585
1, 81439, Tempo, 1351656
1, 81511, Tempo, 1363946
1, 81583, Tempo, 1363946
1, 81600, Tempo, 1327727
1, 81780, Tempo, 1229760
1, 81840, Tempo, 1304631
1, 82080, Tempo, 1282325
1, 82200, Tempo, 1304631
1, 82320, Tempo, 1271456
1, 82440, Tempo, 1389210
1, 82560, Tempo, 1293382
1, 82680, Tempo, 1316078
1, 83040, Tempo, 1293382
1, 83160, Tempo, 1351656
1, 83280, Tempo, 1316078
1, 83400, Tempo, 1500375
1, 83520, Tempo, 1415428
1, 84000, Tempo, 1339585
1, 84360, Tempo, 1351656
1, 84480, Tempo, 1282325
1, 84600, Tempo, 1351656
1, 84720, Tempo, 1304631
1, 84840, Tempo, 1442654
1, 84900, Tempo, 1829826
1, 84960, Tempo, 1415428
1, 85440, Tempo, 1327727
1, 85620, Tempo, 1229760
1, 85680, Tempo, 1304631
1, 85920, Tempo, 1304631
1, 86040, Tempo, 1304631
1, 86280, Tempo, 1415428
1, 86400, Tempo, 1316078
1, 86880, Tempo, 1293382
1, 87000, Tempo, 1351656
1, 87120, Tempo, 1316078
1, 87240, Tempo, 1500375
1, 87360, Tempo, 1415428
1, 87840, Tempo, 1304631
1, 87960, Tempo, 1376462
1, 88200, Tempo, 1579363
1, 88320, Tempo, 1428912
1, 88680, Tempo, 1562907
1, 88742, Tempo, 1974334
1, 88800, Tempo, 1389210
1, 88920, Tempo, 1363946
1, 89040, Tempo, 1316078
1, 89160, Tempo, 1389210
1, 89280, Tempo, 1351656
1, 89340, Tempo, 1316078
1, 89640, Tempo, 1351656
1, 89760, Tempo, 1304631
1, 90120, Tempo, 1402197
1, 90240, Tempo, 1304631
1, 90600, Tempo, 1363946
1, 90720, Tempo, 1304631
1, 91140, Tempo, 1485516
1, 91200, Tempo, 1316078
1, 91560, Tempo, 1351656
1, 91680, Tempo, 1304631
1, 92040, Tempo, 1428912
1, 92160, Tempo, 1304631
1, 92520, Tempo, 1376462
1, 92640, Tempo, 1304631
1, 93000, Tempo, 1402197
1, 93120, Tempo, 1271456
1, 93240, Tempo, 1304631
1, 93960, Tempo, 1402197
1, 94080, Tempo, 1304631
1, 94560, Tempo, 1304631
1, 95040, Tempo, 1271456
1, 95160, Tempo, 1304631
1, 95400, Tempo, 1363946
1, 95520, Tempo, 1304631
1, 95880, Tempo, 1389210
1, 96000, Tempo, 1304631
1, 96360, Tempo, 1376462
1, 96480, Tempo, 1304631
1, 96840, Tempo, 1389210
1, 96960, Tempo, 1304631
1, 97320, Tempo, 1402197
1, 97440, Tempo, 1304631
1, 97800, Tempo, 1442654
1, 97920, Tempo, 1363946
1, 98280, Tempo, 1500375
1, 98400, Tempo, 1402197
1, 98760, Tempo, 1705030
1, 98880, Tempo, 1485516
1, 659460, Tempo, 486618
1, 659460, End_track
2, 0, Start_track
2, 0, Title_t, "Piano right"
2, 0, Program_c, 0, 0
2, 0, Control_c, 0, 7, 100
2, 0, Control_c, 0, 10, 64
2, 0, Text_t, "bdca426d104a26ac9dcb070447587523"
2, 0, Control_c, 0, 91, 127
2, 0, Note_on_c, 0, 71, 50
2, 180, Note_on_c, 0, 71, 0
2, 180, Note_on_c, 0, 74, 42
2, 240, Note_on_c, 0, 74, 0
2, 240, Note_on_c, 0, 72, 50
2, 420, Note_on_c, 0, 72, 0
2, 420, Note_on_c, 0, 71, 47
2, 480, Note_on_c, 0, 71, 0
2, 480, Note_on_c, 0, 69, 50
2, 720, Note_on_c, 0, 69, 0
2, 720, Note_on_c, 0, 71, 46
2, 960, Note_on_c, 0, 71, 0
2, 960, Note_on_c, 0, 72, 50
2, 1200, Note_on_c, 0, 72, 0
2, 1200, Note_on_c, 0, 74, 46
2, 1440, Note_on_c, 0, 74, 0
2, 1440, Note_on_c, 0, 72, 47
2, 1560, Note_on_c, 0, 72, 0
2, 1560, Note_on_c, 0, 71, 49
2, 1680, Note_on_c, 0, 71, 0
2, 1680, Note_on_c, 0, 69, 51
2, 1800, Note_on_c, 0, 69, 0
2, 1800, Note_on_c, 0, 67, 53
2, 1920, Note_on_c, 0, 67, 0
2, 1920, Note_on_c, 0, 67, 65
2, 1920, Note_on_c, 0, 72, 65
2, 2040, Note_on_c, 0, 72, 0
2, 2040, Note_on_c, 0, 67, 0
2, 2160, Note_on_c, 0, 71, 61
2, 2160, Note_on_c, 0, 67, 61
2, 2280, Note_on_c, 0, 67, 0
2, 2280, Note_on_c, 0, 71, 0
2, 2400, Note_on_c, 0, 76, 67
2, 2400, Note_on_c, 0, 67, 67
2, 2520, Note_on_c, 0, 67, 0
2, 2520, Note_on_c, 0, 76, 0
2, 2760, Note_on_c, 0, 74, 47
2, 2760, Note_on_c, 0, 67, 47
2, 2880, Note_on_c, 0, 67, 0
2, 2880, Note_on_c, 0, 74, 0
2, 2880, Note_on_c, 0, 72, 50
2, 3000, Note_on_c, 0, 72, 0
2, 3000, Note_on_c, 0, 69, 42
2, 3120, Note_on_c, 0, 69, 0
2, 3120, Note_on_c, 0, 71, 50
2, 3240, Note_on_c, 0, 71, 0
2, 3240, Note_on_c, 0, 67, 42
2, 3360, Note_on_c, 0, 67, 0
2, 3360, Note_on_c, 0, 67, 50
2, 3360, Note_on_c, 0, 71, 50
2, 3600, Note_on_c, 0, 71, 0
2, 3600, Note_on_c, 0, 67, 0
2, 3600, Note_on_c, 0, 66, 44
2, 3600, Note_on_c, 0, 69, 44
2, 3840, Note_on_c, 0, 69, 0
2, 3840, Note_on_c, 0, 66, 0
2, 3840, Control_c, 0, 91, 127
2, 3840, Note_on_c, 0, 71, 50
2, 3840, Text_t, "bdca426d104a26ac9dcb070447587523"
2, 4020, Note_on_c, 0, 71, 0
2, 4020, Note_on_c, 0, 74, 42
2, 4080, Note_on_c, 0, 74, 0
2, 4080, Note_on_c, 0, 72, 48
2, 4260, Note_on_c, 0, 72, 0
2, 4260, Note_on_c, 0, 71, 47
2, 4320, Note_on_c, 0, 71, 0
2, 4320, Note_on_c, 0, 69, 50
2, 4560, Note_on_c, 0, 69, 0
2, 4560, Note_on_c, 0, 71, 46
2, 4800, Note_on_c, 0, 71, 0
2, 4800, Note_on_c, 0, 72, 50
2, 5040, Note_on_c, 0, 72, 0
2, 5040, Note_on_c, 0, 76, 46
2, 5160, Note_on_c, 0, 76, 0
2, 5160, Note_on_c, 0, 74, 49
2, 5280, Note_on_c, 0, 74, 0
2, 5280, Note_on_c, 0, 72, 47
2, 5400, Note_on_c, 0, 72, 0
2, 5400, Note_on_c, 0, 71, 49
2, 5520, Note_on_c, 0, 71, 0
2, 5520, Note_on_c, 0, 69, 51
2, 5640, Note_on_c, 0, 69, 0
2, 5640, Note_on_c, 0, 67, 53
2, 5760, Note_on_c, 0, 67, 0
2, 5760, Note_on_c, 0, 67, 65
2, 5760, Note_on_c, 0, 72, 65
2, 5880, Note_on_c, 0, 72, 0
2, 5880, Note_on_c, 0, 67, 0
2, 6000, Note_on_c, 0, 71, 61
2, 6000, Note_on_c, 0, 67, 61
2, 6120, Note_on_c, 0, 67, 0
2, 6120, Note_on_c, 0, 71, 0
2, 6240, Note_on_c, 0, 76, 67
2, 6240, Note_on_c, 0, 67, 67
2, 6360, Note_on_c, 0, 76, 0
2, 6360, Note_on_c, 0, 78, 62
2, 6480, Note_on_c, 0, 78, 0
2, 6480, Note_on_c, 0, 79, 65
2, 6600, Note_on_c, 0, 79, 0
2, 6600, Note_on_c, 0, 67, 0
2, 6600, Note_on_c, 0, 72, 47
2, 6690, Note_on_c, 0, 72, 0
2, 6720, Note_on_c, 0, 71, 50
2, 6960, Note_on_c, 0, 71, 0
2, 6960, Note_on_c, 0, 69, 47
2, 6987, Note_on_c, 0, 69, 0
2, 6987, Note_on_c, 0, 71, 47
2, 7013, Note_on_c, 0, 71, 0
2, 7013, Note_on_c, 0, 69, 47
2, 7039, Note_on_c, 0, 71, 47
2, 7040, Note_on_c, 0, 69, 0
2, 7066, Note_on_c, 0, 71, 0
2, 7066, Note_on_c, 0, 69, 45
2, 7092, Note_on_c, 0, 69, 0
2, 7092, Note_on_c, 0, 71, 45
2, 7119, Note_on_c, 0, 71, 0
2, 7119, Note_on_c, 0, 69, 45
2, 7145, Note_on_c, 0, 69, 0
2, 7145, Note_on_c, 0, 67, 45
2, 7171, Note_on_c, 0, 69, 50
2, 7172, Note_on_c, 0, 67, 0
2, 7200, Note_on_c, 0, 69, 0
2, 7200, Note_on_c, 0, 67, 45
2, 7680, Note_on_c, 0, 67, 0
2, 7680, Note_on_c, 0, 71, 45
2, 7920, Note_on_c, 0, 71, 0
2, 7920, Note_on_c, 0, 69, 45
2, 8160, Note_on_c, 0, 69, 0
2, 8160, Note_on_c, 0, 67, 45
2, 8280, Note_on_c, 0, 67, 0
2, 8280, Note_on_c, 0, 66, 41
2, 8397, Note_on_c, 0, 66, 0
2, 8400, Note_on_c, 0, 66, 45
2, 8520, Note_on_c, 0, 66, 0
2, 8520, Note_on_c, 0, 62, 41
2, 8640, Note_on_c, 0, 62, 0
2, 8640, Note_on_c, 0, 71, 51
2, 9120, Note_on_c, 0, 71, 0
2, 9120, Note_on_c, 0, 67, 45
2, 9360, Note_on_c, 0, 67, 0
2, 9360, Note_on_c, 0, 67, 44
2, 9387, Note_on_c, 0, 67, 0
2, 9387, Note_on_c, 0, 69, 40
2, 9413, Note_on_c, 0, 69, 0
2, 9413, Note_on_c, 0, 67, 44
2, 9439, Note_on_c, 0, 69, 39
2, 9440, Note_on_c, 0, 67, 0
2, 9466, Note_on_c, 0, 69, 0
2, 9466, Note_on_c, 0, 67, 45
2, 9492, Note_on_c, 0, 67, 0
2, 9492, Note_on_c, 0, 69, 41
2, 9519, Note_on_c, 0, 69, 0
2, 9519, Note_on_c, 0, 67, 45
2, 9545, Note_on_c, 0, 67, 0
2, 9545, Note_on_c, 0, 66, 48
2, 9571, Note_on_c, 0, 67, 42
2, 9572, Note_on_c, 0, 66, 0
2, 9600, Note_on_c, 0, 67, 0
2, 9600, Note_on_c, 0, 71, 45
2, 9720, Note_on_c, 0, 71, 0
2, 9720, Note_on_c, 0, 69, 45
2, 9838, Note_on_c, 0, 69, 0
2, 9840, Note_on_c, 0, 69, 45
2, 10080, Note_on_c, 0, 69, 0
2, 10080, Note_on_c, 0, 67, 45
2, 10200, Note_on_c, 0, 67, 0
2, 10200, Note_on_c, 0, 66, 41
2, 10316, Note_on_c, 0, 66, 0
2, 10320, Note_on_c, 0, 66, 45
2, 10440, Note_on_c, 0, 66, 0
2, 10440, Note_on_c, 0, 62, 41
2, 10560, Note_on_c, 0, 62, 0
2, 10560, Note_on_c, 0, 71, 47
2, 10560, Text_t, "bdca426d104a26ac9dcb070447587523"
2, 10560, Control_c, 0, 91, 127
2, 10740, Note_on_c, 0, 71, 0
2, 10740, Note_on_c, 0, 74, 42
2, 10800, Note_on_c, 0, 74, 0
2, 10800, Note_on_c, 0, 72, 50
2, 10980, Note_on_c, 0, 72, 0
2, 10980, Note_on_c, 0, 71, 47
2, 11040, Note_on_c, 0, 71, 0
2, 11040, Note_on_c, 0, 69, 50
2, 11280, Note_on_c, 0, 69, 0
2, 11280, Note_on_c, 0, 71, 46
2, 11520, Note_on_c, 0, 71, 0
2, 11520, Note_on_c, 0, 72, 50
2, 11760, Note_on_c, 0, 72, 0
2, 11760, Note_on_c, 0, 74, 46
2, 12000, Note_on_c, 0, 74, 0
2, 12000, Note_on_c, 0, 72, 47
2, 12120, Note_on_c, 0, 72, 0
2, 12120, Note_on_c, 0, 71, 49
2, 12240, Note_on_c, 0, 71, 0
2, 12240, Note_on_c, 0, 69, 51
2, 12360, Note_on_c, 0, 69, 0
2, 12360, Note_on_c, 0, 67, 53
2, 12480, Note_on_c, 0, 67, 0
2, 12480, Note_on_c, 0, 67, 65
2, 12480, Note_on_c, 0, 72, 65
2, 12600, Note_on_c, 0, 72, 0
2, 12600, Note_on_c, 0, 67, 0
2, 12720, Note_on_c, 0, 71, 61
2, 12720, Note_on_c, 0, 67, 61
2, 12840, Note_on_c, 0, 67, 0
2, 12840, Note_on_c, 0, 71, 0
2, 12960, Note_on_c, 0, 76, 67
2, 12960, Note_on_c, 0, 67, 67
2, 13080, Note_on_c, 0, 67, 0
2, 13080, Note_on_c, 0, 76, 0
2, 13320, Note_on_c, 0, 67, 47
2, 13320, Note_on_c, 0, 74, 47
2, 13440, Note_on_c, 0, 74, 0
2, 13440, Note_on_c, 0, 67, 0
2, 13440, Note_on_c, 0, 72, 50
2, 13560, Note_on_c, 0, 72, 0
2, 13560, Note_on_c, 0, 69, 42
2, 13680, Note_on_c, 0, 69, 0
2, 13680, Note_on_c, 0, 71, 50
2, 13800, Note_on_c, 0, 71, 0
2, 13800, Note_on_c, 0, 67, 42
2, 13920, Note_on_c, 0, 67, 0
2, 13920, Note_on_c, 0, 71, 50
2, 13920, Note_on_c, 0, 67, 50
2, 14160, Note_on_c, 0, 67, 0
2, 14160, Note_on_c, 0, 71, 0
2, 14160, Note_on_c, 0, 66, 44
2, 14160, Note_on_c, 0, 69, 44
2, 14400, Note_on_c, 0, 69, 0
2, 14400, Note_on_c, 0, 66, 0
2, 14400, Control_c, 0, 91, 127
2, 14400, Note_on_c, 0, 71, 50
2, 14400, Text_t, "bdca426d104a26ac9dcb070447587523"
2, 14580, Note_on_c, 0, 71, 0
2, 14580, Note_on_c, 0, 74, 42
2, 14640, Note_on_c, 0, 74, 0
2, 14640, Note_on_c, 0, 72, 48
2, 14820, Note_on_c, 0, 72, 0
2, 14820, Note_on_c, 0, 71, 47
2, 14880, Note_on_c, 0, 71, 0
2, 14880, Note_on_c, 0, 69, 50
2, 15120, Note_on_c, 0, 69, 0
2, 15120, Note_on_c, 0, 71, 46
2, 15360, Note_on_c, 0, 71, 0
2, 15360, Note_on_c, 0, 72, 50
2, 15600, Note_on_c, 0, 72, 0
2, 15600, Note_on_c, 0, 76, 46
2, 15720, Note_on_c, 0, 76, 0
2, 15720, Note_on_c, 0, 74, 49
2, 15840, Note_on_c, 0, 74, 0
2, 15840, Note_on_c, 0, 72, 47
2, 15960, Note_on_c, 0, 72, 0
2, 15960, Note_on_c, 0, 71, 49
2, 16080, Note_on_c, 0, 71, 0
2, 16080, Note_on_c, 0, 69, 51
2, 16200, Note_on_c, 0, 69, 0
2, 16200, Note_on_c, 0, 67, 53
2, 16320, Note_on_c, 0, 67, 0
2, 16320, Note_on_c, 0, 67, 65
2, 16320, Note_on_c, 0, 72, 65
2, 16440, Note_on_c, 0, 72, 0
2, 16440, Note_on_c, 0, 67, 0
2, 16560, Note_on_c, 0, 67, 61
2, 16560, Note_on_c, 0, 71, 61
2, 16680, Note_on_c, 0, 71, 0
2, 16680, Note_on_c, 0, 67, 0
2, 16800, Note_on_c, 0, 76, 67
2, 16800, Note_on_c, 0, 67, 67
2, 16920, Note_on_c, 0, 76, 0
2, 16920, Note_on_c, 0, 78, 62
2, 17040, Note_on_c, 0, 78, 0
2, 17040, Note_on_c, 0, 79, 65
2, 17160, Note_on_c, 0, 79, 0
2, 17160, Note_on_c, 0, 67, 0
2, 17160, Note_on_c, 0, 72, 47
2, 17250, Note_on_c, 0, 72, 0
2, 17280, Note_on_c, 0, 71, 50
2, 17520, Note_on_c, 0, 71, 0
2, 17520, Note_on_c, 0, 69, 47
2, 17547, Note_on_c, 0, 69, 0
2, 17547, Note_on_c, 0, 71, 47
2, 17573, Note_on_c, 0, 71, 0
2, 17573, Note_on_c, 0, 69, 47
2, 17599, Note_on_c, 0, 71, 47
2, 17600, Note_on_c, 0, 69, 0
2, 17626, Note_on_c, 0, 71, 0
2, 17626, Note_on_c, 0, 69, 45
2, 17652, Note_on_c, 0, 69, 0
2, 17652, Note_on_c, 0, 71, 45
2, 17679, Note_on_c, 0, 71, 0
2, 17679, Note_on_c, 0, 69, 45
2, 17705, Note_on_c, 0, 69, 0
2, 17705, Note_on_c, 0, 67, 45
2, 17731, Note_on_c, 0, 69, 52
2, 17732, Note_on_c, 0, 67, 0
2, 17760, Note_on_c, 0, 69, 0
2, 17760, Note_on_c, 0, 67, 45
2, 18240, Note_on_c, 0, 67, 0
2, 18240, Note_on_c, 0, 71, 45
2, 18480, Note_on_c, 0, 71, 0
2, 18480, Note_on_c, 0, 69, 45
2, 18720, Note_on_c, 0, 69, 0
2, 18720, Note_on_c, 0, 67, 45
2, 18840, Note_on_c, 0, 67, 0
2, 18840, Note_on_c, 0, 66, 41
2, 18956, Note_on_c, 0, 66, 0
2, 18960, Note_on_c, 0, 66, 45
2, 19080, Note_on_c, 0, 66, 0
2, 19080, Note_on_c, 0, 62, 41
2, 19200, Note_on_c, 0, 62, 0
2, 19200, Note_on_c, 0, 71, 51
2, 19680, Note_on_c, 0, 71, 0
2, 19680, Note_on_c, 0, 67, 45
2, 19920, Note_on_c, 0, 67, 0
2, 19920, Note_on_c, 0, 67, 44
2, 19947, Note_on_c, 0, 67, 0
2, 19947, Note_on_c, 0, 69, 40
2, 19973, Note_on_c, 0, 69, 0
2, 19973, Note_on_c, 0, 67, 44
2, 19999, Note_on_c, 0, 69, 39
2, 20000, Note_on_c, 0, 67, 0
2, 20026, Note_on_c, 0, 69, 0
2, 20026, Note_on_c, 0, 67, 45
2, 20052, Note_on_c, 0, 67, 0
2, 20052, Note_on_c, 0, 69, 41
2, 20079, Note_on_c, 0, 69, 0
2, 20079, Note_on_c, 0, 67, 45
2, 20105, Note_on_c, 0, 67, 0
2, 20105, Note_on_c, 0, 66, 49
2, 20131, Note_on_c, 0, 67, 44
2, 20132, Note_on_c, 0, 66, 0
2, 20160, Note_on_c, 0, 67, 0
2, 20160, Note_on_c, 0, 71, 49
2, 20280, Note_on_c, 0, 71, 0
2, 20280, Note_on_c, 0, 69, 45
2, 20396, Note_on_c, 0, 69, 0
2, 20400, Note_on_c, 0, 69, 45
2, 20640, Note_on_c, 0, 69, 0
2, 20640, Note_on_c, 0, 67, 45
2, 20760, Note_on_c, 0, 67, 0
2, 20760, Note_on_c, 0, 66, 41
2, 20877, Note_on_c, 0, 66, 0
2, 20880, Note_on_c, 0, 66, 45
2, 21000, Note_on_c, 0, 66, 0
2, 21000, Note_on_c, 0, 62, 41
2, 21120, Note_on_c, 0, 62, 0
2, 21120, Note_on_c, 0, 67, 45
2, 21600, Note_on_c, 0, 67, 0
2, 21600, Note_on_c, 0, 63, 47
2, 21828, Note_on_c, 0, 63, 0
2, 21840, Note_on_c, 0, 63, 47
2, 22068, Note_on_c, 0, 63, 0
2, 22080, Note_on_c, 0, 64, 49
2, 22200, Note_on_c, 0, 64, 0
2, 22200, Note_on_c, 0, 66, 44
2, 22320, Note_on_c, 0, 66, 0
2, 22320, Note_on_c, 0, 67, 49
2, 22440, Note_on_c, 0, 67, 0
2, 22440, Note_on_c, 0, 64, 43
2, 22560, Note_on_c, 0, 64, 0
2, 22560, Note_on_c, 0, 62, 49
2, 22680, Note_on_c, 0, 62, 0
2, 22680, Note_on_c, 0, 61, 45
2, 22797, Note_on_c, 0, 61, 0
2, 22800, Note_on_c, 0, 61, 50
2, 22920, Note_on_c, 0, 61, 0
2, 22920, Note_on_c, 0, 57, 46
2, 23040, Note_on_c, 0, 57, 0
2, 23040, Note_on_c, 0, 69, 61
2, 23520, Note_on_c, 0, 69, 0
2, 23520, Note_on_c, 0, 74, 69
2, 23520, Note_on_c, 0, 68, 58
2, 23520, Note_on_c, 0, 62, 58
2, 23748, Note_on_c, 0, 62, 0
2, 23748, Note_on_c, 0, 68, 0
2, 23748, Note_on_c, 0, 74, 0
2, 23760, Note_on_c, 0, 68, 56
2, 23760, Note_on_c, 0, 74, 66
2, 23760, Note_on_c, 0, 62, 56
2, 23988, Note_on_c, 0, 62, 0
2, 23988, Note_on_c, 0, 74, 0
2, 23988, Note_on_c, 0, 68, 0
2, 24000, Note_on_c, 0, 68, 59
2, 24000, Note_on_c, 0, 74, 70
2, 24000, Note_on_c, 0, 62, 59
2, 24432, Note_on_c, 0, 62, 0
2, 24432, Note_on_c, 0, 74, 0
2, 24432, Note_on_c, 0, 68, 0
2, 24480, Note_on_c, 0, 73, 40
2, 24480, Note_on_c, 0, 81, 48
2, 24672, Note_on_c, 0, 81, 0
2, 24672, Note_on_c, 0, 73, 0
2, 24720, Note_on_c, 0, 81, 45
2, 24720, Note_on_c, 0, 73, 38
2, 24912, Note_on_c, 0, 73, 0
2, 24912, Note_on_c, 0, 81, 0
2, 24960, Note_on_c, 0, 81, 48
2, 24960, Note_on_c, 0, 73, 40
2, 25440, Note_on_c, 0, 73, 0
2, 25440, Note_on_c, 0, 81, 0
2, 25680, Note_on_c, 0, 78, 48
2, 25710, Note_on_c, 0, 78, 0
2, 25710, Note_on_c, 0, 79, 44
2, 25740, Note_on_c, 0, 79, 0
2, 25740, Note_on_c, 0, 78, 48
2, 25770, Note_on_c, 0, 78, 0
2, 25770, Note_on_c, 0, 76, 44
2, 25800, Note_on_c, 0, 76, 0
2, 25800, Note_on_c, 0, 78, 50
2, 25860, Note_on_c, 0, 78, 0
2, 25860, Note_on_c, 0, 79, 45
2, 25920, Note_on_c, 0, 79, 0
2, 25920, Note_on_c, 0, 81, 54
2, 26160, Note_on_c, 0, 81, 0
2, 26160, Note_on_c, 0, 81, 48
2, 26520, Note_on_c, 0, 81, 0
2, 26520, Note_on_c, 0, 81, 48
2, 26640, Note_on_c, 0, 81, 0
2, 26640, Note_on_c, 0, 81, 50
2, 26670, Note_on_c, 0, 81, 0
2, 26670, Note_on_c, 0, 83, 44
2, 26700, Note_on_c, 0, 83, 0
2, 26700, Note_on_c, 0, 81, 46
2, 26730, Note_on_c, 0, 81, 0
2, 26730, Note_on_c, 0, 80, 46
2, 26760, Note_on_c, 0, 80, 0
2, 26760, Note_on_c, 0, 81, 53
2, 26820, Note_on_c, 0, 81, 0
2, 26820, Note_on_c, 0, 83, 43
2, 26880, Note_on_c, 0, 83, 0
2, 26880, Note_on_c, 0, 81, 53
2, 27000, Note_on_c, 0, 81, 0
2, 27000, Note_on_c, 0, 79, 48
2, 27120, Note_on_c, 0, 79, 0
2, 27120, Note_on_c, 0, 79, 48
2, 27480, Note_on_c, 0, 79, 0
2, 27480, Note_on_c, 0, 79, 45
2, 27540, Note_on_c, 0, 79, 0
2, 27600, Note_on_c, 0, 78, 49
2, 27660, Note_on_c, 0, 78, 0
2, 27720, Note_on_c, 0, 76, 45
2, 27780, Note_on_c, 0, 76, 0
2, 27840, Note_on_c, 0, 76, 51
2, 27960, Note_on_c, 0, 76, 0
2, 27960, Note_on_c, 0, 81, 46
2, 28080, Note_on_c, 0, 81, 0
2, 28080, Note_on_c, 0, 81, 46
2, 28440, Note_on_c, 0, 81, 0
2, 28440, Note_on_c, 0, 83, 48
2, 28500, Note_on_c, 0, 83, 0
2, 28500, Note_on_c, 0, 81, 44
2, 28560, Note_on_c, 0, 81, 0
2, 28560, Note_on_c, 0, 81, 48
2, 28620, Note_on_c, 0, 81, 0
2, 28620, Note_on_c, 0, 79, 44
2, 28680, Note_on_c, 0, 79, 0
2, 28680, Note_on_c, 0, 78, 44
2, 28740, Note_on_c, 0, 78, 0
2, 28740, Note_on_c, 0, 79, 44
2, 28800, Note_on_c, 0, 79, 0
2, 28800, Note_on_c, 0, 79, 49
2, 28920, Note_on_c, 0, 79, 0
2, 28920, Note_on_c, 0, 78, 45
2, 29040, Note_on_c, 0, 78, 0
2, 29040, Note_on_c, 0, 78, 48
2, 29340, Note_on_c, 0, 78, 0
2, 29340, Note_on_c, 0, 78, 44
2, 29370, Note_on_c, 0, 78, 0
2, 29370, Note_on_c, 0, 79, 44
2, 29400, Note_on_c, 0, 79, 0
2, 29400, Note_on_c, 0, 81, 48
2, 29460, Note_on_c, 0, 81, 0
2, 29520, Note_on_c, 0, 79, 46
2, 29580, Note_on_c, 0, 79, 0
2, 29640, Note_on_c, 0, 78, 46
2, 29700, Note_on_c, 0, 78, 0
2, 29760, Note_on_c, 0, 78, 51
2, 29880, Note_on_c, 0, 78, 0
2, 29880, Note_on_c, 0, 76, 46
2, 30000, Note_on_c, 0, 76, 0
2, 30000, Note_on_c, 0, 76, 46
2, 30060, Note_on_c, 0, 76, 0
2, 30120, Note_on_c, 0, 76, 48
2, 30180, Note_on_c, 0, 76, 0
2, 30240, Note_on_c, 0, 76, 48
2, 30480, Note_on_c, 0, 76, 0
2, 30480, Note_on_c, 0, 76, 48
2, 30600, Note_on_c, 0, 80, 48
2, 30640, Note_on_c, 0, 80, 0
2, 30640, Note_on_c, 0, 81, 48
2, 30660, Note_on_c, 0, 76, 0
2, 30680, Note_on_c, 0, 81, 0
2, 30680, Note_on_c, 0, 83, 48
2, 30720, Note_on_c, 0, 83, 0
2, 30720, Note_on_c, 0, 81, 53
2, 31320, Note_on_c, 0, 81, 0
2, 31320, Note_on_c, 0, 83, 52
2, 31380, Note_on_c, 0, 83, 0
2, 31380, Note_on_c, 0, 81, 48
2, 31440, Note_on_c, 0, 81, 0
2, 31440, Note_on_c, 0, 79, 51
2, 31560, Note_on_c, 0, 79, 0
2, 31560, Note_on_c, 0, 78, 48
2, 31677, Note_on_c, 0, 78, 0
2, 31680, Note_on_c, 0, 78, 53
2, 31800, Note_on_c, 0, 78, 0
2, 31800, Note_on_c, 0, 76, 45
2, 31920, Note_on_c, 0, 76, 0
2, 31920, Note_on_c, 0, 75, 50
2, 32040, Note_on_c, 0, 75, 0
2, 32040, Note_on_c, 0, 76, 45
2, 32160, Note_on_c, 0, 76, 0
2, 32160, Note_on_c, 0, 78, 48
2, 32280, Note_on_c, 0, 78, 0
2, 32280, Note_on_c, 0, 79, 44
2, 32400, Note_on_c, 0, 79, 0
2, 32400, Note_on_c, 0, 71, 42
2, 32520, Note_on_c, 0, 71, 0
2, 32520, Note_on_c, 0, 76, 42
2, 32640, Note_on_c, 0, 76, 0
2, 32640, Note_on_c, 0, 74, 48
2, 32760, Note_on_c, 0, 74, 0
2, 32760, Note_on_c, 0, 73, 45
2, 32880, Note_on_c, 0, 73, 0
2, 32880, Note_on_c, 0, 71, 41
2, 33000, Note_on_c, 0, 71, 0
2, 33000, Note_on_c, 0, 69, 41
2, 33120, Note_on_c, 0, 69, 0
2, 33120, Note_on_c, 0, 71, 42
2, 33240, Note_on_c, 0, 71, 0
2, 33240, Note_on_c, 0, 73, 44
2, 33360, Note_on_c, 0, 73, 0
2, 33360, Note_on_c, 0, 74, 47
2, 33480, Note_on_c, 0, 74, 0
2, 33480, Note_on_c, 0, 76, 49
2, 33600, Note_on_c, 0, 76, 0
2, 33600, Note_on_c, 0, 78, 50
2, 33780, Note_on_c, 0, 78, 0
2, 33780, Note_on_c, 0, 81, 42
2, 33840, Note_on_c, 0, 81, 0
2, 33840, Note_on_c, 0, 79, 50
2, 34020, Note_on_c, 0, 79, 0
2, 34020, Note_on_c, 0, 78, 47
2, 34080, Note_on_c, 0, 78, 0
2, 34080, Note_on_c, 0, 76, 50
2, 34320, Note_on_c, 0, 76, 0
2, 34320, Note_on_c, 0, 78, 46
2, 34560, Note_on_c, 0, 78, 0
2, 34560, Note_on_c, 0, 79, 50
2, 34800, Note_on_c, 0, 79, 0
2, 34800, Note_on_c, 0, 81, 46
2, 35040, Note_on_c, 0, 81, 0
2, 35040, Note_on_c, 0, 79, 47
2, 35280, Note_on_c, 0, 79, 0
2, 35280, Note_on_c, 0, 78, 51
2, 35520, Note_on_c, 0, 78, 0
2, 35520, Note_on_c, 0, 81, 45
2, 35550, Note_on_c, 0, 81, 0
2, 35550, Note_on_c, 0, 83, 40
2, 35580, Note_on_c, 0, 83, 0
2, 35580, Note_on_c, 0, 81, 45
2, 35610, Note_on_c, 0, 81, 0
2, 35610, Note_on_c, 0, 83, 41
2, 35640, Note_on_c, 0, 83, 0
2, 35640, Note_on_c, 0, 81, 45
2, 35670, Note_on_c, 0, 81, 0
2, 35670, Note_on_c, 0, 83, 40
2, 35700, Note_on_c, 0, 83, 0
2, 35700, Note_on_c, 0, 81, 45
2, 35730, Note_on_c, 0, 81, 0
2, 35730, Note_on_c, 0, 83, 39
2, 35760, Note_on_c, 0, 83, 0
2, 35760, Note_on_c, 0, 81, 45
2, 35790, Note_on_c, 0, 81, 0
2, 35790, Note_on_c, 0, 83, 40
2, 35820, Note_on_c, 0, 83, 0
2, 35820, Note_on_c, 0, 81, 45
2, 35850, Note_on_c, 0, 81, 0
2, 35850, Note_on_c, 0, 83, 40
2, 35880, Note_on_c, 0, 83, 0
2, 35880, Note_on_c, 0, 81, 45
2, 35910, Note_on_c, 0, 81, 0
2, 35910, Note_on_c, 0, 83, 40
2, 35940, Note_on_c, 0, 83, 0
2, 35940, Note_on_c, 0, 81, 45
2, 35970, Note_on_c, 0, 81, 0
2, 35970, Note_on_c, 0, 83, 41
2, 36000, Note_on_c, 0, 83, 0
2, 36000, Note_on_c, 0, 81, 45
2, 36030, Note_on_c, 0, 81, 0
2, 36030, Note_on_c, 0, 83, 40
2, 36060, Note_on_c, 0, 83, 0
2, 36060, Note_on_c, 0, 81, 45
2, 36090, Note_on_c, 0, 81, 0
2, 36090, Note_on_c, 0, 83, 40
2, 36120, Note_on_c, 0, 83, 0
2, 36120, Note_on_c, 0, 81, 45
2, 36150, Note_on_c, 0, 81, 0
2, 36150, Note_on_c, 0, 83, 41
2, 36180, Note_on_c, 0, 83, 0
2, 36180, Note_on_c, 0, 81, 45
2, 36210, Note_on_c, 0, 81, 0
2, 36210, Note_on_c, 0, 83, 40
2, 36240, Note_on_c, 0, 83, 0
2, 36240, Note_on_c, 0, 81, 45
2, 36270, Note_on_c, 0, 81, 0
2, 36270, Note_on_c, 0, 83, 40
2, 36300, Note_on_c, 0, 83, 0
2, 36300, Note_on_c, 0, 81, 45
2, 36330, Note_on_c, 0, 81, 0
2, 36330, Note_on_c, 0, 83, 41
2, 36360, Note_on_c, 0, 83, 0
2, 36360, Note_on_c, 0, 81, 45
2, 36390, Note_on_c, 0, 81, 0
2, 36390, Note_on_c, 0, 83, 40
2, 36420, Note_on_c, 0, 83, 0
2, 36420, Note_on_c, 0, 81, 45
2, 36450, Note_on_c, 0, 81, 0
2, 36450, Note_on_c, 0, 83, 41
2, 36480, Note_on_c, 0, 83, 0
2, 36480, Note_on_c, 0, 81, 45
2, 36510, Note_on_c, 0, 81, 0
2, 36510, Note_on_c, 0, 83, 42
2, 36540, Note_on_c, 0, 83, 0
2, 36540, Note_on_c, 0, 81, 45
2, 36570, Note_on_c, 0, 81, 0
2, 36570, Note_on_c, 0, 83, 41
2, 36600, Note_on_c, 0, 83, 0
2, 36600, Note_on_c, 0, 81, 44
2, 36630, Note_on_c, 0, 81, 0
2, 36630, Note_on_c, 0, 83, 38
2, 36660, Note_on_c, 0, 83, 0
2, 36660, Note_on_c, 0, 81, 44
2, 36690, Note_on_c, 0, 81, 0
2, 36690, Note_on_c, 0, 83, 39
2, 36720, Note_on_c, 0, 83, 0
2, 36720, Note_on_c, 0, 81, 43
2, 36750, Note_on_c, 0, 81, 0
2, 36750, Note_on_c, 0, 83, 38
2, 36780, Note_on_c, 0, 83, 0
2, 36780, Note_on_c, 0, 81, 42
2, 36810, Note_on_c, 0, 81, 0
2, 36810, Note_on_c, 0, 83, 38
2, 36840, Note_on_c, 0, 83, 0
2, 36840, Note_on_c, 0, 81, 42
2, 36870, Note_on_c, 0, 81, 0
2, 36870, Note_on_c, 0, 83, 39
2, 36900, Note_on_c, 0, 83, 0
2, 36900, Note_on_c, 0, 81, 43
2, 36930, Note_on_c, 0, 81, 0
2, 36930, Note_on_c, 0, 83, 39
2, 36960, Note_on_c, 0, 83, 0
2, 36960, Note_on_c, 0, 81, 43
2, 36990, Note_on_c, 0, 81, 0
2, 36990, Note_on_c, 0, 83, 38
2, 37020, Note_on_c, 0, 83, 0
2, 37020, Note_on_c, 0, 81, 43
2, 37050, Note_on_c, 0, 81, 0
2, 37050, Note_on_c, 0, 83, 38
2, 37080, Note_on_c, 0, 83, 0
2, 37080, Note_on_c, 0, 81, 43
2, 37110, Note_on_c, 0, 81, 0
2, 37110, Note_on_c, 0, 83, 38
2, 37140, Note_on_c, 0, 83, 0
2, 37140, Note_on_c, 0, 81, 43
2, 37170, Note_on_c, 0, 81, 0
2, 37170, Note_on_c, 0, 83, 39
2, 37200, Note_on_c, 0, 83, 0
2, 37200, Note_on_c, 0, 81, 43
2, 37240, Note_on_c, 0, 81, 0
2, 37240, Note_on_c, 0, 83, 45
2, 37280, Note_on_c, 0, 83, 0
2, 37280, Note_on_c, 0, 81, 52
2, 37320, Note_on_c, 0, 81, 0
2, 37320, Note_on_c, 0, 80, 58
2, 37380, Note_on_c, 0, 80, 0
2, 37380, Note_on_c, 0, 81, 54
2, 37440, Note_on_c, 0, 81, 0
2, 37440, Note_on_c, 0, 86, 66
2, 37440, Note_on_c, 0, 74, 56
2, 37680, Note_on_c, 0, 74, 0
2, 37680, Note_on_c, 0, 86, 0
2, 37680, Note_on_c, 0, 85, 60
2, 37680, Note_on_c, 0, 73, 50
2, 37920, Note_on_c, 0, 73, 0
2, 37920, Note_on_c, 0, 85, 0
2, 37920, Note_on_c, 0, 71, 53
2, 37920, Note_on_c, 0, 83, 62
2, 38160, Note_on_c, 0, 83, 0
2, 38160, Note_on_c, 0, 71, 0
2, 38280, Note_on_c, 0, 78, 40
2, 38400, Note_on_c, 0, 78, 0
2, 38400, Note_on_c, 0, 71, 38
2, 38400, Note_on_c, 0, 83, 45
2, 38640, Note_on_c, 0, 83, 0
2, 38640, Note_on_c, 0, 71, 0
2, 38640, Note_on_c, 0, 69, 34
2, 38640, Note_on_c, 0, 81, 40
2, 38880, Note_on_c, 0, 81, 0
2, 38880, Note_on_c, 0, 69, 0
2, 38880, Note_on_c, 0, 67, 37
2, 38880, Note_on_c, 0, 79, 44
2, 39120, Note_on_c, 0, 79, 0
2, 39120, Note_on_c, 0, 67, 0
2, 39240, Note_on_c, 0, 74, 60
2, 39360, Note_on_c, 0, 74, 0
2, 39360, Note_on_c, 0, 79, 66
2, 39360, Note_on_c, 0, 67, 56
2, 39600, Note_on_c, 0, 67, 0
2, 39600, Note_on_c, 0, 79, 0
2, 39600, Note_on_c, 0, 78, 60
2, 39600, Note_on_c, 0, 66, 50
2, 39840, Note_on_c, 0, 66, 0
2, 39840, Note_on_c, 0, 78, 0
2, 39840, Note_on_c, 0, 76, 62
2, 39960, Note_on_c, 0, 76, 0
2, 39960, Note_on_c, 0, 83, 56
2, 40080, Note_on_c, 0, 83, 0
2, 40080, Note_on_c, 0, 81, 50
2, 40140, Note_on_c, 0, 81, 0
2, 40140, Note_on_c, 0, 79, 46
2, 40200, Note_on_c, 0, 79, 0
2, 40200, Note_on_c, 0, 78, 50
2, 40260, Note_on_c, 0, 78, 0
2, 40260, Note_on_c, 0, 76, 46
2, 40320, Note_on_c, 0, 76, 0
2, 40320, Note_on_c, 0, 74, 50
2, 40560, Note_on_c, 0, 74, 0
2, 40560, Note_on_c, 0, 76, 45
2, 40800, Note_on_c, 0, 76, 0
2, 40800, Note_on_c, 0, 77, 53
2, 41040, Note_on_c, 0, 77, 0
2, 41040, Note_on_c, 0, 78, 49
2, 41280, Note_on_c, 0, 78, 0
2, 41280, Note_on_c, 0, 86, 66
2, 41520, Note_on_c, 0, 86, 0
2, 41520, Note_on_c, 0, 85, 60
2, 41550, Note_on_c, 0, 85, 0
2, 41550, Note_on_c, 0, 86, 54
2, 41580, Note_on_c, 0, 86, 0
2, 41580, Note_on_c, 0, 85, 60
2, 41610, Note_on_c, 0, 85, 0
2, 41610, Note_on_c, 0, 86, 55
2, 41640, Note_on_c, 0, 86, 0
2, 41640, Note_on_c, 0, 85, 60
2, 41670, Note_on_c, 0, 85, 0
2, 41670, Note_on_c, 0, 86, 55
2, 41700, Note_on_c, 0, 86, 0
2, 41700, Note_on_c, 0, 85, 60
2, 41730, Note_on_c, 0, 85, 0
2, 41730, Note_on_c, 0, 86, 55
2, 41760, Note_on_c, 0, 86, 0
2, 41760, Note_on_c, 0, 83, 62
2, 42000, Note_on_c, 0, 83, 0
2, 42120, Note_on_c, 0, 78, 40
2, 42240, Note_on_c, 0, 78, 0
2, 42240, Note_on_c, 0, 83, 45
2, 42480, Note_on_c, 0, 83, 0
2, 42480, Note_on_c, 0, 81, 48
2, 42510, Note_on_c, 0, 81, 0
2, 42510, Note_on_c, 0, 83, 42
2, 42540, Note_on_c, 0, 83, 0
2, 42540, Note_on_c, 0, 81, 50
2, 42570, Note_on_c, 0, 81, 0
2, 42570, Note_on_c, 0, 83, 44
2, 42600, Note_on_c, 0, 83, 0
2, 42600, Note_on_c, 0, 81, 49
2, 42630, Note_on_c, 0, 81, 0
2, 42630, Note_on_c, 0, 83, 42
2, 42660, Note_on_c, 0, 83, 0
2, 42660, Note_on_c, 0, 81, 50
2, 42690, Note_on_c, 0, 81, 0
2, 42690, Note_on_c, 0, 83, 47
2, 42720, Note_on_c, 0, 83, 0
2, 42720, Note_on_c, 0, 79, 44
2, 42960, Note_on_c, 0, 79, 0
2, 43080, Note_on_c, 0, 74, 60
2, 43200, Note_on_c, 0, 74, 0
2, 43200, Note_on_c, 0, 79, 66
2, 43440, Note_on_c, 0, 79, 0
2, 43443, Note_on_c, 0, 78, 57
2, 43473, Note_on_c, 0, 78, 0
2, 43473, Note_on_c, 0, 79, 54
2, 43503, Note_on_c, 0, 79, 0
2, 43503, Note_on_c, 0, 78, 59
2, 43533, Note_on_c, 0, 78, 0
2, 43533, Note_on_c, 0, 79, 54
2, 43563, Note_on_c, 0, 79, 0
2, 43563, Note_on_c, 0, 78, 57
2, 43593, Note_on_c, 0, 78, 0
2, 43593, Note_on_c, 0, 79, 52
2, 43623, Note_on_c, 0, 79, 0
2, 43623, Note_on_c, 0, 78, 56
2, 43653, Note_on_c, 0, 78, 0
2, 43653, Note_on_c, 0, 79, 52
2, 43680, Note_on_c, 0, 76, 62
2, 43683, Note_on_c, 0, 79, 0
2, 43800, Note_on_c, 0, 76, 0
2, 43800, Note_on_c, 0, 83, 58
2, 43920, Note_on_c, 0, 83, 0
2, 43920, Note_on_c, 0, 81, 55
2, 43980, Note_on_c, 0, 81, 0
2, 43980, Note_on_c, 0, 79, 47
2, 44040, Note_on_c, 0, 79, 0
2, 44040, Note_on_c, 0, 78, 50
2, 44100, Note_on_c, 0, 78, 0
2, 44100, Note_on_c, 0, 76, 46
2, 44160, Note_on_c, 0, 76, 0
2, 44160, Note_on_c, 0, 74, 47
2, 44220, Note_on_c, 0, 74, 0
2, 44280, Note_on_c, 0, 78, 47
2, 44340, Note_on_c, 0, 78, 0
2, 44400, Note_on_c, 0, 81, 53
2, 44760, Note_on_c, 0, 81, 0
2, 44760, Note_on_c, 0, 80, 46
2, 44880, Note_on_c, 0, 80, 0
2, 44880, Note_on_c, 0, 79, 46
2, 45000, Note_on_c, 0, 79, 0
2, 45000, Note_on_c, 0, 78, 44
2, 45120, Note_on_c, 0, 78, 0
2, 45120, Note_on_c, 0, 83, 53
2, 45200, Note_on_c, 0, 83, 0
2, 45200, Note_on_c, 0, 79, 48
2, 45280, Note_on_c, 0, 79, 0
2, 45280, Note_on_c, 0, 76, 47
2, 45357, Note_on_c, 0, 76, 0
2, 45360, Note_on_c, 0, 76, 50
2, 45390, Note_on_c, 0, 76, 0
2, 45390, Note_on_c, 0, 78, 45
2, 45420, Note_on_c, 0, 78, 0
2, 45420, Note_on_c, 0, 76, 50
2, 45450, Note_on_c, 0, 76, 0
2, 45450, Note_on_c, 0, 78, 45
2, 45480, Note_on_c, 0, 78, 0
2, 45480, Note_on_c, 0, 76, 50
2, 45510, Note_on_c, 0, 76, 0
2, 45510, Note_on_c, 0, 78, 45
2, 45540, Note_on_c, 0, 78, 0
2, 45540, Note_on_c, 0, 76, 50
2, 45570, Note_on_c, 0, 76, 0
2, 45570, Note_on_c, 0, 78, 45
2, 45600, Note_on_c, 0, 78, 0
2, 45600, Note_on_c, 0, 76, 50
2, 45630, Note_on_c, 0, 76, 0
2, 45630, Note_on_c, 0, 78, 45
2, 45660, Note_on_c, 0, 78, 0
2, 45660, Note_on_c, 0, 76, 50
2, 45690, Note_on_c, 0, 76, 0
2, 45690, Note_on_c, 0, 78, 44
2, 45720, Note_on_c, 0, 78, 0
2, 45720, Note_on_c, 0, 76, 50
2, 45750, Note_on_c, 0, 76, 0
2, 45750, Note_on_c, 0, 78, 45
2, 45780, Note_on_c, 0, 78, 0
2, 45780, Note_on_c, 0, 76, 50
2, 45810, Note_on_c, 0, 76, 0
2, 45810, Note_on_c, 0, 78, 45
2, 45840, Note_on_c, 0, 78, 0
2, 45840, Note_on_c, 0, 76, 50
2, 45880, Note_on_c, 0, 76, 0
2, 45880, Note_on_c, 0, 78, 45
2, 45920, Note_on_c, 0, 78, 0
2, 45920, Note_on_c, 0, 76, 55
2, 45960, Note_on_c, 0, 76, 0
2, 45960, Note_on_c, 0, 74, 62
2, 46020, Note_on_c, 0, 74, 0
2, 46020, Note_on_c, 0, 76, 59
2, 46080, Note_on_c, 0, 76, 0
2, 46080, Note_on_c, 0, 74, 65
2, 46200, Note_on_c, 0, 74, 0
2, 46200, Note_on_c, 0, 73, 53
2, 46320, Note_on_c, 0, 73, 0
2, 46320, Note_on_c, 0, 74, 59
2, 46440, Note_on_c, 0, 74, 0
2, 46440, Note_on_c, 0, 76, 54
2, 46560, Note_on_c, 0, 76, 0
2, 46560, Note_on_c, 0, 74, 53
2, 46680, Note_on_c, 0, 74, 0
2, 46680, Note_on_c, 0, 72, 51
2, 46800, Note_on_c, 0, 72, 0
2, 46800, Note_on_c, 0, 71, 48
2, 46920, Note_on_c, 0, 71, 0
2, 46920, Note_on_c, 0, 70, 45
2, 47040, Note_on_c, 0, 70, 0
2, 47040, Text_t, "bdca426d104a26ac9dcb070447587523"
2, 47040, Control_c, 0, 91, 127
2, 47040, Note_on_c, 0, 71, 50
2, 47220, Note_on_c, 0, 71, 0
2, 47220, Note_on_c, 0, 74, 42
2, 47280, Note_on_c, 0, 74, 0
2, 47280, Note_on_c, 0, 72, 50
2, 47460, Note_on_c, 0, 72, 0
2, 47460, Note_on_c, 0, 71, 47
2, 47520, Note_on_c, 0, 71, 0
2, 47520, Note_on_c, 0, 69, 50
2, 47760, Note_on_c, 0, 69, 0
2, 47760, Note_on_c, 0, 71, 46
2, 48000, Note_on_c, 0, 71, 0
2, 48000, Note_on_c, 0, 72, 50
2, 48120, Note_on_c, 0, 72, 0
2, 48120, Note_on_c, 0, 74, 44
2, 48150, Note_on_c, 0, 74, 0
2, 48150, Note_on_c, 0, 72, 40
2, 48180, Note_on_c, 0, 72, 0
2, 48180, Note_on_c, 0, 71, 44
2, 48210, Note_on_c, 0, 71, 0
2, 48210, Note_on_c, 0, 72, 40
2, 48240, Note_on_c, 0, 72, 0
2, 48240, Note_on_c, 0, 76, 46
2, 48360, Note_on_c, 0, 76, 0
2, 48360, Note_on_c, 0, 74, 47
2, 48480, Note_on_c, 0, 74, 0
2, 48480, Note_on_c, 0, 72, 47
2, 48720, Note_on_c, 0, 72, 0
2, 48720, Note_on_c, 0, 71, 51
2, 48960, Note_on_c, 0, 71, 0
2, 48960, Note_on_c, 0, 67, 65
2, 48960, Note_on_c, 0, 72, 65
2, 49080, Note_on_c, 0, 72, 0
2, 49080, Note_on_c, 0, 67, 0
2, 49200, Note_on_c, 0, 71, 61
2, 49200, Note_on_c, 0, 67, 61
2, 49320, Note_on_c, 0, 67, 0
2, 49320, Note_on_c, 0, 71, 0
2, 49440, Note_on_c, 0, 76, 67
2, 49440, Note_on_c, 0, 67, 67
2, 49560, Note_on_c, 0, 67, 0
2, 49560, Note_on_c, 0, 76, 0
2, 49800, Note_on_c, 0, 74, 47
2, 49800, Note_on_c, 0, 67, 47
2, 49920, Note_on_c, 0, 67, 0
2, 49920, Note_on_c, 0, 74, 0
2, 49920, Note_on_c, 0, 72, 50
2, 50040, Note_on_c, 0, 72, 0
2, 50040, Note_on_c, 0, 69, 42
2, 50160, Note_on_c, 0, 69, 0
2, 50160, Note_on_c, 0, 71, 50
2, 50280, Note_on_c, 0, 71, 0
2, 50280, Note_on_c, 0, 67, 42
2, 50400, Note_on_c, 0, 67, 0
2, 50400, Note_on_c, 0, 67, 50
2, 50400, Note_on_c, 0, 71, 50
2, 50640, Note_on_c, 0, 71, 0
2, 50640, Note_on_c, 0, 67, 0
2, 50640, Note_on_c, 0, 66, 44
2, 50640, Note_on_c, 0, 69, 44
2, 50880, Note_on_c, 0, 69, 0
2, 50880, Note_on_c, 0, 66, 0
2, 50880, Control_c, 0, 91, 127
2, 50880, Note_on_c, 0, 71, 50
2, 50880, Text_t, "bdca426d104a26ac9dcb070447587523"
2, 51000, Note_on_c, 0, 71, 0
2, 51000, Note_on_c, 0, 72, 44
2, 51030, Note_on_c, 0, 72, 0
2, 51030, Note_on_c, 0, 71, 40
2, 51060, Note_on_c, 0, 71, 0
2, 51060, Note_on_c, 0, 69, 44
2, 51090, Note_on_c, 0, 69, 0
2, 51090, Note_on_c, 0, 71, 40
2, 51120, Note_on_c, 0, 71, 0
2, 51120, Note_on_c, 0, 72, 48
2, 51300, Note_on_c, 0, 72, 0
2, 51300, Note_on_c, 0, 71, 47
2, 51360, Note_on_c, 0, 71, 0
2, 51360, Note_on_c, 0, 69, 50
2, 51600, Note_on_c, 0, 69, 0
2, 51600, Note_on_c, 0, 71, 46
2, 51840, Note_on_c, 0, 71, 0
2, 51840, Note_on_c, 0, 72, 50
2, 51960, Note_on_c, 0, 72, 0
2, 51960, Note_on_c, 0, 73, 50
2, 52080, Note_on_c, 0, 73, 0
2, 52080, Note_on_c, 0, 76, 46
2, 52200, Note_on_c, 0, 76, 0
2, 52200, Note_on_c, 0, 74, 49
2, 52320, Note_on_c, 0, 74, 0
2, 52320, Note_on_c, 0, 72, 47
2, 52500, Note_on_c, 0, 72, 0
2, 52500, Note_on_c, 0, 74, 47
2, 52530, Note_on_c, 0, 74, 0
2, 52530, Note_on_c, 0, 72, 47
2, 52560, Note_on_c, 0, 72, 0
2, 52560, Note_on_c, 0, 71, 51
2, 52800, Note_on_c, 0, 71, 0
2, 52800, Note_on_c, 0, 67, 65
2, 52800, Note_on_c, 0, 72, 65
2, 52920, Note_on_c, 0, 72, 0
2, 52920, Note_on_c, 0, 67, 0
2, 53040, Note_on_c, 0, 71, 61
2, 53040, Note_on_c, 0, 67, 61
2, 53160, Note_on_c, 0, 67, 0
2, 53160, Note_on_c, 0, 71, 0
2, 53280, Note_on_c, 0, 67, 67
2, 53280, Note_on_c, 0, 76, 67
2, 53400, Note_on_c, 0, 76, 0
2, 53400, Note_on_c, 0, 78, 62
2, 53520, Note_on_c, 0, 78, 0
2, 53520, Note_on_c, 0, 79, 65
2, 53640, Note_on_c, 0, 79, 0
2, 53640, Note_on_c, 0, 67, 0
2, 53640, Note_on_c, 0, 72, 47
2, 53760, Note_on_c, 0, 72, 0
2, 53760, Note_on_c, 0, 71, 50
2, 54000, Note_on_c, 0, 71, 0
2, 54000, Note_on_c, 0, 69, 47
2, 54027, Note_on_c, 0, 69, 0
2, 54027, Note_on_c, 0, 71, 47
2, 54053, Note_on_c, 0, 71, 0
2, 54053, Note_on_c, 0, 69, 47
2, 54079, Note_on_c, 0, 71, 47
2, 54080, Note_on_c, 0, 69, 0
2, 54106, Note_on_c, 0, 71, 0
2, 54106, Note_on_c, 0, 69, 45
2, 54132, Note_on_c, 0, 69, 0
2, 54132, Note_on_c, 0, 71, 45
2, 54159, Note_on_c, 0, 71, 0
2, 54159, Note_on_c, 0, 69, 45
2, 54185, Note_on_c, 0, 69, 0
2, 54185, Note_on_c, 0, 67, 45
2, 54211, Note_on_c, 0, 69, 45
2, 54212, Note_on_c, 0, 67, 0
2, 54240, Note_on_c, 0, 69, 0
2, 54240, Note_on_c, 0, 67, 45
2, 54720, Note_on_c, 0, 67, 0
2, 54720, Note_on_c, 0, 71, 45
2, 54960, Note_on_c, 0, 71, 0
2, 54960, Note_on_c, 0, 69, 45
2, 55200, Note_on_c, 0, 69, 0
2, 55200, Note_on_c, 0, 67, 45
2, 55320, Note_on_c, 0, 67, 0
2, 55320, Note_on_c, 0, 66, 41
2, 55436, Note_on_c, 0, 66, 0
2, 55440, Note_on_c, 0, 66, 45
2, 55560, Note_on_c, 0, 66, 0
2, 55560, Note_on_c, 0, 62, 41
2, 55680, Note_on_c, 0, 62, 0
2, 55680, Note_on_c, 0, 71, 51
2, 56160, Note_on_c, 0, 71, 0
2, 56160, Note_on_c, 0, 67, 45
2, 56520, Note_on_c, 0, 67, 0
2, 56520, Note_on_c, 0, 69, 40
2, 56550, Note_on_c, 0, 69, 0
2, 56550, Note_on_c, 0, 67, 35
2, 56580, Note_on_c, 0, 67, 0
2, 56580, Note_on_c, 0, 66, 40
2, 56610, Note_on_c, 0, 66, 0
2, 56610, Note_on_c, 0, 67, 36
2, 56640, Note_on_c, 0, 67, 0
2, 56640, Note_on_c, 0, 71, 45
2, 56760, Note_on_c, 0, 71, 0
2, 56760, Note_on_c, 0, 69, 45
2, 56877, Note_on_c, 0, 69, 0
2, 56880, Note_on_c, 0, 69, 45
2, 57120, Note_on_c, 0, 69, 0
2, 57120, Note_on_c, 0, 67, 45
2, 57240, Note_on_c, 0, 67, 0
2, 57240, Note_on_c, 0, 66, 41
2, 57358, Note_on_c, 0, 66, 0
2, 57360, Note_on_c, 0, 66, 45
2, 57480, Note_on_c, 0, 66, 0
2, 57480, Note_on_c, 0, 62, 43
2, 57600, Note_on_c, 0, 62, 0
2, 57600, Note_on_c, 0, 67, 54
2, 58080, Note_on_c, 0, 67, 0
2, 58080, Note_on_c, 0, 79, 69
2, 58080, Note_on_c, 0, 73, 58
2, 58080, Note_on_c, 0, 67, 58
2, 58308, Note_on_c, 0, 67, 0
2, 58308, Note_on_c, 0, 73, 0
2, 58308, Note_on_c, 0, 79, 0
2, 58320, Note_on_c, 0, 73, 56
2, 58320, Note_on_c, 0, 79, 66
2, 58320, Note_on_c, 0, 67, 56
2, 58548, Note_on_c, 0, 67, 0
2, 58548, Note_on_c, 0, 79, 0
2, 58548, Note_on_c, 0, 73, 0
2, 58560, Note_on_c, 0, 73, 59
2, 58560, Note_on_c, 0, 79, 70
2, 58560, Note_on_c, 0, 67, 59
2, 58992, Note_on_c, 0, 67, 0
2, 58992, Note_on_c, 0, 79, 0
2, 58992, Note_on_c, 0, 73, 0
2, 59040, Note_on_c, 0, 78, 40
2, 59040, Note_on_c, 0, 86, 48
2, 59232, Note_on_c, 0, 86, 0
2, 59232, Note_on_c, 0, 78, 0
2, 59280, Note_on_c, 0, 86, 45
2, 59280, Note_on_c, 0, 78, 38
2, 59472, Note_on_c, 0, 78, 0
2, 59472, Note_on_c, 0, 86, 0
2, 59520, Note_on_c, 0, 86, 48
2, 59520, Note_on_c, 0, 78, 40
2, 60000, Note_on_c, 0, 78, 0
2, 60000, Note_on_c, 0, 86, 0
2, 60240, Note_on_c, 0, 71, 48
2, 60270, Note_on_c, 0, 71, 0
2, 60270, Note_on_c, 0, 72, 44
2, 60300, Note_on_c, 0, 72, 0
2, 60300, Note_on_c, 0, 71, 48
2, 60330, Note_on_c, 0, 71, 0
2, 60330, Note_on_c, 0, 69, 44
2, 60360, Note_on_c, 0, 69, 0
2, 60360, Note_on_c, 0, 71, 50
2, 60420, Note_on_c, 0, 71, 0
2, 60420, Note_on_c, 0, 72, 45
2, 60480, Note_on_c, 0, 72, 0
2, 60480, Note_on_c, 0, 74, 54
2, 60720, Note_on_c, 0, 74, 0
2, 60720, Note_on_c, 0, 74, 48
2, 61080, Note_on_c, 0, 74, 0
2, 61080, Note_on_c, 0, 74, 48
2, 61200, Note_on_c, 0, 74, 0
2, 61200, Note_on_c, 0, 74, 50
2, 61230, Note_on_c, 0, 74, 0
2, 61230, Note_on_c, 0, 76, 44
2, 61260, Note_on_c, 0, 76, 0
2, 61260, Note_on_c, 0, 74, 46
2, 61290, Note_on_c, 0, 74, 0
2, 61290, Note_on_c, 0, 73, 46
2, 61320, Note_on_c, 0, 73, 0
2, 61320, Note_on_c, 0, 74, 53
2, 61380, Note_on_c, 0, 74, 0
2, 61380, Note_on_c, 0, 76, 43
2, 61440, Note_on_c, 0, 76, 0
2, 61440, Note_on_c, 0, 74, 53
2, 61560, Note_on_c, 0, 74, 0
2, 61560, Note_on_c, 0, 72, 48
2, 61680, Note_on_c, 0, 72, 0
2, 61680, Note_on_c, 0, 72, 48
2, 62040, Note_on_c, 0, 72, 0
2, 62040, Note_on_c, 0, 72, 45
2, 62100, Note_on_c, 0, 72, 0
2, 62160, Note_on_c, 0, 71, 49
2, 62220, Note_on_c, 0, 71, 0
2, 62280, Note_on_c, 0, 69, 45
2, 62340, Note_on_c, 0, 69, 0
2, 62400, Note_on_c, 0, 69, 51
2, 62520, Note_on_c, 0, 69, 0
2, 62520, Note_on_c, 0, 74, 46
2, 62637, Note_on_c, 0, 74, 0
2, 62640, Note_on_c, 0, 74, 46
2, 63000, Note_on_c, 0, 74, 0
2, 63000, Note_on_c, 0, 76, 48
2, 63060, Note_on_c, 0, 76, 0
2, 63060, Note_on_c, 0, 74, 44
2, 63120, Note_on_c, 0, 74, 0
2, 63120, Note_on_c, 0, 74, 48
2, 63180, Note_on_c, 0, 74, 0
2, 63180, Note_on_c, 0, 72, 44
2, 63240, Note_on_c, 0, 72, 0
2, 63240, Note_on_c, 0, 71, 44
2, 63300, Note_on_c, 0, 71, 0
2, 63300, Note_on_c, 0, 72, 44
2, 63360, Note_on_c, 0, 72, 0
2, 63360, Note_on_c, 0, 72, 49
2, 63480, Note_on_c, 0, 72, 0
2, 63480, Note_on_c, 0, 71, 45
2, 63597, Note_on_c, 0, 71, 0
2, 63600, Note_on_c, 0, 71, 48
2, 63900, Note_on_c, 0, 71, 0
2, 63900, Note_on_c, 0, 71, 44
2, 63930, Note_on_c, 0, 71, 0
2, 63930, Note_on_c, 0, 72, 44
2, 63960, Note_on_c, 0, 72, 0
2, 63960, Note_on_c, 0, 74, 48
2, 64020, Note_on_c, 0, 74, 0
2, 64080, Note_on_c, 0, 72, 46
2, 64140, Note_on_c, 0, 72, 0
2, 64200, Note_on_c, 0, 71, 46
2, 64260, Note_on_c, 0, 71, 0
2, 64320, Note_on_c, 0, 71, 51
2, 64440, Note_on_c, 0, 71, 0
2, 64440, Note_on_c, 0, 69, 46
2, 64560, Note_on_c, 0, 69, 0
2, 64560, Note_on_c, 0, 69, 46
2, 64620, Note_on_c, 0, 69, 0
2, 64680, Note_on_c, 0, 69, 48
2, 64740, Note_on_c, 0, 69, 0
2, 64800, Note_on_c, 0, 69, 48
2, 65040, Note_on_c, 0, 69, 0
2, 65040, Note_on_c, 0, 69, 48
2, 65160, Note_on_c, 0, 73, 48
2, 65200, Note_on_c, 0, 73, 0
2, 65200, Note_on_c, 0, 74, 48
2, 65220, Note_on_c, 0, 69, 0
2, 65240, Note_on_c, 0, 74, 0
2, 65240, Note_on_c, 0, 76, 48
2, 65280, Note_on_c, 0, 76, 0
2, 65280, Note_on_c, 0, 74, 53
2, 65880, Note_on_c, 0, 74, 0
2, 65880, Note_on_c, 0, 76, 52
2, 65940, Note_on_c, 0, 76, 0
2, 65940, Note_on_c, 0, 74, 48
2, 66000, Note_on_c, 0, 74, 0
2, 66000, Note_on_c, 0, 72, 51
2, 66120, Note_on_c, 0, 72, 0
2, 66120, Note_on_c, 0, 71, 48
2, 66237, Note_on_c, 0, 71, 0
2, 66240, Note_on_c, 0, 71, 53
2, 66360, Note_on_c, 0, 71, 0
2, 66360, Note_on_c, 0, 69, 45
2, 66480, Note_on_c, 0, 69, 0
2, 66480, Note_on_c, 0, 68, 50
2, 66600, Note_on_c, 0, 68, 0
2, 66600, Note_on_c, 0, 69, 45
2, 66720, Note_on_c, 0, 69, 0
2, 66720, Note_on_c, 0, 71, 48
2, 66840, Note_on_c, 0, 71, 0
2, 66840, Note_on_c, 0, 72, 44
2, 66960, Note_on_c, 0, 72, 0
2, 66960, Note_on_c, 0, 64, 42
2, 67080, Note_on_c, 0, 64, 0
2, 67080, Note_on_c, 0, 69, 42
2, 67200, Note_on_c, 0, 69, 0
2, 67200, Note_on_c, 0, 67, 48
2, 67320, Note_on_c, 0, 67, 0
2, 67320, Note_on_c, 0, 66, 45
2, 67440, Note_on_c, 0, 66, 0
2, 67440, Note_on_c, 0, 64, 41
2, 67560, Note_on_c, 0, 64, 0
2, 67560, Note_on_c, 0, 62, 41
2, 67680, Note_on_c, 0, 62, 0
2, 67680, Note_on_c, 0, 64, 42
2, 67800, Note_on_c, 0, 64, 0
2, 67800, Note_on_c, 0, 66, 44
2, 67920, Note_on_c, 0, 66, 0
2, 67920, Note_on_c, 0, 67, 47
2, 68040, Note_on_c, 0, 67, 0
2, 68040, Note_on_c, 0, 69, 49
2, 68160, Note_on_c, 0, 69, 0
2, 68160, Note_on_c, 0, 71, 50
2, 68340, Note_on_c, 0, 71, 0
2, 68340, Note_on_c, 0, 74, 42
2, 68400, Note_on_c, 0, 74, 0
2, 68400, Note_on_c, 0, 72, 50
2, 68580, Note_on_c, 0, 72, 0
2, 68580, Note_on_c, 0, 71, 47
2, 68640, Note_on_c, 0, 71, 0
2, 68640, Note_on_c, 0, 69, 50
2, 68880, Note_on_c, 0, 69, 0
2, 68880, Note_on_c, 0, 71, 46
2, 69120, Note_on_c, 0, 71, 0
2, 69120, Note_on_c, 0, 72, 50
2, 69360, Note_on_c, 0, 72, 0
2, 69360, Note_on_c, 0, 74, 46
2, 69600, Note_on_c, 0, 74, 0
2, 69600, Note_on_c, 0, 72, 47
2, 69840, Note_on_c, 0, 72, 0
2, 69840, Note_on_c, 0, 71, 51
2, 70080, Note_on_c, 0, 71, 0
2, 70080, Note_on_c, 0, 86, 45
2, 70110, Note_on_c, 0, 86, 0
2, 70110, Note_on_c, 0, 88, 40
2, 70140, Note_on_c, 0, 88, 0
2, 70140, Note_on_c, 0, 86, 45
2, 70170, Note_on_c, 0, 86, 0
2, 70170, Note_on_c, 0, 88, 41
2, 70200, Note_on_c, 0, 88, 0
2, 70200, Note_on_c, 0, 86, 45
2, 70230, Note_on_c, 0, 86, 0
2, 70230, Note_on_c, 0, 88, 40
2, 70260, Note_on_c, 0, 88, 0
2, 70260, Note_on_c, 0, 86, 45
2, 70290, Note_on_c, 0, 86, 0
2, 70290, Note_on_c, 0, 88, 39
2, 70320, Note_on_c, 0, 88, 0
2, 70320, Note_on_c, 0, 86, 45
2, 70350, Note_on_c, 0, 86, 0
2, 70350, Note_on_c, 0, 88, 40
2, 70380, Note_on_c, 0, 88, 0
2, 70380, Note_on_c, 0, 86, 45
2, 70410, Note_on_c, 0, 86, 0
2, 70410, Note_on_c, 0, 88, 40
2, 70440, Note_on_c, 0, 88, 0
2, 70440, Note_on_c, 0, 86, 45
2, 70470, Note_on_c, 0, 86, 0
2, 70470, Note_on_c, 0, 88, 40
2, 70500, Note_on_c, 0, 88, 0
2, 70500, Note_on_c, 0, 86, 45
2, 70530, Note_on_c, 0, 86, 0
2, 70530, Note_on_c, 0, 88, 41
2, 70560, Note_on_c, 0, 88, 0
2, 70560, Note_on_c, 0, 86, 45
2, 70590, Note_on_c, 0, 86, 0
2, 70590, Note_on_c, 0, 88, 40
2, 70620, Note_on_c, 0, 88, 0
2, 70620, Note_on_c, 0, 86, 45
2, 70650, Note_on_c, 0, 86, 0
2, 70650, Note_on_c, 0, 88, 40
2, 70680, Note_on_c, 0, 88, 0
2, 70680, Note_on_c, 0, 86, 45
2, 70710, Note_on_c, 0, 86, 0
2, 70710, Note_on_c, 0, 88, 41
2, 70740, Note_on_c, 0, 88, 0
2, 70740, Note_on_c, 0, 86, 45
2, 70770, Note_on_c, 0, 86, 0
2, 70770, Note_on_c, 0, 88, 40
2, 70800, Note_on_c, 0, 88, 0
2, 70800, Note_on_c, 0, 86, 45
2, 70830, Note_on_c, 0, 86, 0
2, 70830, Note_on_c, 0, 88, 40
2, 70860, Note_on_c, 0, 88, 0
2, 70860, Note_on_c, 0, 86, 45
2, 70890, Note_on_c, 0, 86, 0
2, 70890, Note_on_c, 0, 88, 41
2, 70920, Note_on_c, 0, 88, 0
2, 70920, Note_on_c, 0, 86, 45
2, 70950, Note_on_c, 0, 86, 0
2, 70950, Note_on_c, 0, 88, 40
2, 70980, Note_on_c, 0, 88, 0
2, 70980, Note_on_c, 0, 86, 45
2, 71010, Note_on_c, 0, 86, 0
2, 71010, Note_on_c, 0, 88, 41
2, 71040, Note_on_c, 0, 88, 0
2, 71040, Note_on_c, 0, 86, 45
2, 71070, Note_on_c, 0, 86, 0
2, 71070, Note_on_c, 0, 88, 42
2, 71100, Note_on_c, 0, 88, 0
2, 71100, Note_on_c, 0, 86, 45
2, 71130, Note_on_c, 0, 86, 0
2, 71130, Note_on_c, 0, 88, 41
2, 71160, Note_on_c, 0, 88, 0
2, 71160, Note_on_c, 0, 86, 44
2, 71190, Note_on_c, 0, 86, 0
2, 71190, Note_on_c, 0, 88, 38
2, 71220, Note_on_c, 0, 88, 0
2, 71220, Note_on_c, 0, 86, 44
2, 71250, Note_on_c, 0, 86, 0
2, 71250, Note_on_c, 0, 88, 39
2, 71280, Note_on_c, 0, 88, 0
2, 71280, Note_on_c, 0, 86, 43
2, 71310, Note_on_c, 0, 86, 0
2, 71310, Note_on_c, 0, 88, 38
2, 71340, Note_on_c, 0, 88, 0
2, 71340, Note_on_c, 0, 86, 42
2, 71370, Note_on_c, 0, 86, 0
2, 71370, Note_on_c, 0, 88, 38
2, 71400, Note_on_c, 0, 88, 0
2, 71400, Note_on_c, 0, 86, 42
2, 71430, Note_on_c, 0, 86, 0
2, 71430, Note_on_c, 0, 88, 39
2, 71460, Note_on_c, 0, 88, 0
2, 71460, Note_on_c, 0, 86, 43
2, 71490, Note_on_c, 0, 86, 0
2, 71490, Note_on_c, 0, 88, 39
2, 71520, Note_on_c, 0, 88, 0
2, 71520, Note_on_c, 0, 86, 43
2, 71550, Note_on_c, 0, 86, 0
2, 71550, Note_on_c, 0, 88, 38
2, 71580, Note_on_c, 0, 88, 0
2, 71580, Note_on_c, 0, 86, 43
2, 71610, Note_on_c, 0, 86, 0
2, 71610, Note_on_c, 0, 88, 38
2, 71640, Note_on_c, 0, 88, 0
2, 71640, Note_on_c, 0, 86, 43
2, 71670, Note_on_c, 0, 86, 0
2, 71670, Note_on_c, 0, 88, 38
2, 71700, Note_on_c, 0, 88, 0
2, 71700, Note_on_c, 0, 86, 43
2, 71730, Note_on_c, 0, 86, 0
2, 71730, Note_on_c, 0, 88, 39
2, 71760, Note_on_c, 0, 88, 0
2, 71760, Note_on_c, 0, 86, 43
2, 71800, Note_on_c, 0, 86, 0
2, 71800, Note_on_c, 0, 88, 45
2, 71840, Note_on_c, 0, 88, 0
2, 71840, Note_on_c, 0, 86, 52
2, 71880, Note_on_c, 0, 86, 0
2, 71880, Note_on_c, 0, 85, 58
2, 71940, Note_on_c, 0, 85, 0
2, 71940, Note_on_c, 0, 86, 54
2, 72000, Note_on_c, 0, 86, 0
2, 72000, Note_on_c, 0, 79, 66
2, 72000, Note_on_c, 0, 67, 56
2, 72240, Note_on_c, 0, 67, 0
2, 72240, Note_on_c, 0, 79, 0
2, 72240, Note_on_c, 0, 78, 60
2, 72240, Note_on_c, 0, 66, 50
2, 72480, Note_on_c, 0, 66, 0
2, 72480, Note_on_c, 0, 78, 0
2, 72480, Note_on_c, 0, 64, 53
2, 72480, Note_on_c, 0, 76, 62
2, 72720, Note_on_c, 0, 76, 0
2, 72720, Note_on_c, 0, 64, 0
2, 72840, Note_on_c, 0, 71, 40
2, 72960, Note_on_c, 0, 71, 0
2, 72960, Note_on_c, 0, 64, 38
2, 72960, Note_on_c, 0, 76, 45
2, 73200, Note_on_c, 0, 76, 0
2, 73200, Note_on_c, 0, 64, 0
2, 73200, Note_on_c, 0, 62, 34
2, 73200, Note_on_c, 0, 74, 40
2, 73440, Note_on_c, 0, 74, 0
2, 73440, Note_on_c, 0, 62, 0
2, 73440, Note_on_c, 0, 60, 37
2, 73440, Note_on_c, 0, 72, 44
2, 73680, Note_on_c, 0, 72, 0
2, 73680, Note_on_c, 0, 60, 0
2, 73800, Note_on_c, 0, 67, 60
2, 73920, Note_on_c, 0, 67, 0
2, 73920, Note_on_c, 0, 72, 66
2, 73920, Note_on_c, 0, 60, 56
2, 74160, Note_on_c, 0, 60, 0
2, 74160, Note_on_c, 0, 72, 0
2, 74160, Note_on_c, 0, 59, 50
2, 74160, Note_on_c, 0, 71, 60
2, 74400, Note_on_c, 0, 71, 0
2, 74400, Note_on_c, 0, 59, 0
2, 74400, Note_on_c, 0, 69, 62
2, 74520, Note_on_c, 0, 69, 0
2, 74520, Note_on_c, 0, 76, 56
2, 74640, Note_on_c, 0, 76, 0
2, 74640, Note_on_c, 0, 74, 50
2, 74700, Note_on_c, 0, 74, 0
2, 74700, Note_on_c, 0, 72, 46
2, 74760, Note_on_c, 0, 72, 0
2, 74760, Note_on_c, 0, 71, 50
2, 74820, Note_on_c, 0, 71, 0
2, 74820, Note_on_c, 0, 69, 46
2, 74880, Note_on_c, 0, 69, 0
2, 74880, Note_on_c, 0, 67, 50
2, 75120, Note_on_c, 0, 67, 0
2, 75120, Note_on_c, 0, 69, 45
2, 75360, Note_on_c, 0, 69, 0
2, 75360, Note_on_c, 0, 70, 53
2, 75600, Note_on_c, 0, 70, 0
2, 75600, Note_on_c, 0, 71, 49
2, 75840, Note_on_c, 0, 71, 0
2, 75840, Note_on_c, 0, 79, 66
2, 76080, Note_on_c, 0, 79, 0
2, 76080, Note_on_c, 0, 78, 60
2, 76110, Note_on_c, 0, 78, 0
2, 76110, Note_on_c, 0, 79, 54
2, 76140, Note_on_c, 0, 79, 0
2, 76140, Note_on_c, 0, 78, 60
2, 76170, Note_on_c, 0, 78, 0
2, 76170, Note_on_c, 0, 79, 55
2, 76200, Note_on_c, 0, 79, 0
2, 76200, Note_on_c, 0, 78, 60
2, 76230, Note_on_c, 0, 78, 0
2, 76230, Note_on_c, 0, 79, 55
2, 76260, Note_on_c, 0, 79, 0
2, 76260, Note_on_c, 0, 78, 60
2, 76290, Note_on_c, 0, 78, 0
2, 76290, Note_on_c, 0, 79, 55
2, 76320, Note_on_c, 0, 79, 0
2, 76320, Note_on_c, 0, 76, 62
2, 76560, Note_on_c, 0, 76, 0
2, 76680, Note_on_c, 0, 83, 40
2, 76800, Note_on_c, 0, 83, 0
2, 76800, Note_on_c, 0, 88, 45
2, 77040, Note_on_c, 0, 88, 0
2, 77040, Note_on_c, 0, 86, 48
2, 77070, Note_on_c, 0, 86, 0
2, 77070, Note_on_c, 0, 88, 42
2, 77100, Note_on_c, 0, 88, 0
2, 77100, Note_on_c, 0, 86, 50
2, 77130, Note_on_c, 0, 86, 0
2, 77130, Note_on_c, 0, 88, 44
2, 77160, Note_on_c, 0, 88, 0
2, 77160, Note_on_c, 0, 86, 49
2, 77190, Note_on_c, 0, 86, 0
2, 77190, Note_on_c, 0, 88, 42
2, 77220, Note_on_c, 0, 88, 0
2, 77220, Note_on_c, 0, 86, 50
2, 77250, Note_on_c, 0, 86, 0
2, 77250, Note_on_c, 0, 88, 47
2, 77280, Note_on_c, 0, 88, 0
2, 77280, Note_on_c, 0, 84, 44
2, 77520, Note_on_c, 0, 84, 0
2, 77640, Note_on_c, 0, 79, 60
2, 77760, Note_on_c, 0, 79, 0
2, 77760, Note_on_c, 0, 84, 66
2, 78000, Note_on_c, 0, 84, 0
2, 78003, Note_on_c, 0, 83, 57
2, 78033, Note_on_c, 0, 83, 0
2, 78033, Note_on_c, 0, 84, 54
2, 78063, Note_on_c, 0, 84, 0
2, 78063, Note_on_c, 0, 83, 59
2, 78093, Note_on_c, 0, 83, 0
2, 78093, Note_on_c, 0, 84, 54
2, 78123, Note_on_c, 0, 84, 0
2, 78123, Note_on_c, 0, 83, 57
2, 78153, Note_on_c, 0, 83, 0
2, 78153, Note_on_c, 0, 84, 52
2, 78183, Note_on_c, 0, 84, 0
2, 78183, Note_on_c, 0, 83, 56
2, 78213, Note_on_c, 0, 83, 0
2, 78213, Note_on_c, 0, 84, 52
2, 78240, Note_on_c, 0, 81, 62
2, 78243, Note_on_c, 0, 84, 0
2, 78360, Note_on_c, 0, 81, 0
2, 78360, Note_on_c, 0, 88, 58
2, 78480, Note_on_c, 0, 88, 0
2, 78480, Note_on_c, 0, 86, 55
2, 78540, Note_on_c, 0, 86, 0
2, 78540, Note_on_c, 0, 84, 47
2, 78600, Note_on_c, 0, 84, 0
2, 78600, Note_on_c, 0, 83, 50
2, 78660, Note_on_c, 0, 83, 0
2, 78660, Note_on_c, 0, 81, 46
2, 78720, Note_on_c, 0, 81, 0
2, 78720, Note_on_c, 0, 79, 47
2, 78780, Note_on_c, 0, 79, 0
2, 78840, Note_on_c, 0, 81, 47
2, 78900, Note_on_c, 0, 81, 0
2, 78960, Note_on_c, 0, 82, 47
2, 79020, Note_on_c, 0, 82, 0
2, 79080, Note_on_c, 0, 83, 47
2, 79140, Note_on_c, 0, 83, 0
2, 79200, Note_on_c, 0, 84, 49
2, 79260, Note_on_c, 0, 84, 0
2, 79320, Note_on_c, 0, 85, 52
2, 79380, Note_on_c, 0, 85, 0
2, 79440, Note_on_c, 0, 86, 55
2, 79500, Note_on_c, 0, 86, 0
2, 79560, Note_on_c, 0, 87, 58
2, 79740, Note_on_c, 0, 87, 0
2, 79740, Note_on_c, 0, 88, 57
2, 79800, Note_on_c, 0, 88, 0
2, 79800, Note_on_c, 0, 87, 65
2, 79860, Note_on_c, 0, 87, 0
2, 79860, Note_on_c, 0, 88, 57
2, 79920, Note_on_c, 0, 88, 0
2, 79920, Note_on_c, 0, 86, 64
2, 79980, Note_on_c, 0, 86, 0
2, 79980, Note_on_c, 0, 84, 61
2, 80040, Note_on_c, 0, 84, 0
2, 80040, Note_on_c, 0, 83, 59
2, 80100, Note_on_c, 0, 83, 0
2, 80100, Note_on_c, 0, 81, 57
2, 80160, Note_on_c, 0, 81, 0
2, 80160, Note_on_c, 0, 81, 50
2, 80190, Note_on_c, 0, 81, 0
2, 80190, Note_on_c, 0, 83, 45
2, 80220, Note_on_c, 0, 83, 0
2, 80220, Note_on_c, 0, 81, 50
2, 80250, Note_on_c, 0, 81, 0
2, 80250, Note_on_c, 0, 83, 44
2, 80280, Note_on_c, 0, 83, 0
2, 80280, Note_on_c, 0, 81, 50
2, 80310, Note_on_c, 0, 81, 0
2, 80310, Note_on_c, 0, 83, 45
2, 80340, Note_on_c, 0, 83, 0
2, 80340, Note_on_c, 0, 81, 50
2, 80370, Note_on_c, 0, 81, 0
2, 80370, Note_on_c, 0, 83, 45
2, 80400, Note_on_c, 0, 83, 0
2, 80400, Note_on_c, 0, 81, 50
2, 80440, Note_on_c, 0, 81, 0
2, 80440, Note_on_c, 0, 83, 45
2, 80480, Note_on_c, 0, 83, 0
2, 80480, Note_on_c, 0, 81, 55
2, 80520, Note_on_c, 0, 81, 0
2, 80520, Note_on_c, 0, 79, 62
2, 80580, Note_on_c, 0, 79, 0
2, 80580, Note_on_c, 0, 81, 59
2, 80640, Note_on_c, 0, 81, 0
2, 80640, Note_on_c, 0, 79, 65
2, 80680, Note_on_c, 0, 79, 0
2, 80700, Note_on_c, 0, 79, 61
2, 80760, Note_on_c, 0, 79, 0
2, 80760, Note_on_c, 0, 78, 58
2, 80820, Note_on_c, 0, 78, 0
2, 80820, Note_on_c, 0, 79, 53
2, 80880, Note_on_c, 0, 79, 0
2, 80880, Note_on_c, 0, 81, 59
2, 80940, Note_on_c, 0, 81, 0
2, 80940, Note_on_c, 0, 79, 59
2, 81000, Note_on_c, 0, 79, 0
2, 81000, Note_on_c, 0, 78, 56
2, 81060, Note_on_c, 0, 78, 0
2, 81060, Note_on_c, 0, 76, 54
2, 81120, Note_on_c, 0, 76, 0
2, 81120, Note_on_c, 0, 74, 57
2, 81160, Note_on_c, 0, 74, 0
2, 81180, Note_on_c, 0, 76, 53
2, 81240, Note_on_c, 0, 76, 0
2, 81240, Note_on_c, 0, 75, 51
2, 81300, Note_on_c, 0, 75, 0
2, 81300, Note_on_c, 0, 76, 48
2, 81360, Note_on_c, 0, 76, 0
2, 81360, Note_on_c, 0, 78, 53
2, 81420, Note_on_c, 0, 78, 0
2, 81420, Note_on_c, 0, 76, 48
2, 81480, Note_on_c, 0, 76, 0
2, 81480, Note_on_c, 0, 74, 49
2, 81540, Note_on_c, 0, 74, 0
2, 81540, Note_on_c, 0, 72, 45
2, 81600, Note_on_c, 0, 72, 0
2, 81600, Note_on_c, 0, 71, 48
2, 81600, Text_t, "bdca426d104a26ac9dcb070447587523"
2, 81600, Control_c, 0, 91, 127
2, 81720, Note_on_c, 0, 71, 0
2, 81720, Note_on_c, 0, 72, 44
2, 81744, Note_on_c, 0, 72, 0
2, 81744, Note_on_c, 0, 71, 40
2, 81768, Note_on_c, 0, 71, 0
2, 81768, Note_on_c, 0, 69, 44
2, 81792, Note_on_c, 0, 69, 0
2, 81792, Note_on_c, 0, 71, 40
2, 81816, Note_on_c, 0, 71, 0
2, 81816, Note_on_c, 0, 74, 44
2, 81840, Note_on_c, 0, 74, 0
2, 81840, Note_on_c, 0, 72, 48
2, 82020, Note_on_c, 0, 72, 0
2, 82020, Note_on_c, 0, 71, 47
2, 82200, Note_on_c, 0, 71, 0
2, 82200, Note_on_c, 0, 69, 50
2, 82440, Note_on_c, 0, 69, 0
2, 82440, Note_on_c, 0, 71, 46
2, 82680, Note_on_c, 0, 71, 0
2, 82680, Note_on_c, 0, 72, 50
2, 82860, Note_on_c, 0, 72, 0
2, 82860, Note_on_c, 0, 76, 45
2, 82920, Note_on_c, 0, 76, 0
2, 82920, Note_on_c, 0, 74, 48
2, 83040, Note_on_c, 0, 74, 0
2, 83040, Note_on_c, 0, 72, 47
2, 83280, Note_on_c, 0, 72, 0
2, 83280, Note_on_c, 0, 71, 51
2, 83520, Note_on_c, 0, 71, 0
2, 83520, Note_on_c, 0, 67, 65
2, 83520, Note_on_c, 0, 72, 65
2, 83640, Note_on_c, 0, 72, 0
2, 83640, Note_on_c, 0, 67, 0
2, 83760, Note_on_c, 0, 71, 61
2, 83760, Note_on_c, 0, 67, 61
2, 83880, Note_on_c, 0, 67, 0
2, 83880, Note_on_c, 0, 71, 0
2, 84000, Note_on_c, 0, 76, 67
2, 84000, Note_on_c, 0, 67, 67
2, 84120, Note_on_c, 0, 67, 0
2, 84120, Note_on_c, 0, 76, 0
2, 84360, Note_on_c, 0, 74, 47
2, 84480, Note_on_c, 0, 74, 0
2, 84480, Note_on_c, 0, 74, 50
2, 84540, Note_on_c, 0, 74, 0
2, 84540, Note_on_c, 0, 72, 44
2, 84600, Note_on_c, 0, 72, 0
2, 84600, Note_on_c, 0, 71, 44
2, 84660, Note_on_c, 0, 71, 0
2, 84660, Note_on_c, 0, 69, 44
2, 84720, Note_on_c, 0, 69, 0
2, 84720, Note_on_c, 0, 72, 50
2, 84780, Note_on_c, 0, 72, 0
2, 84780, Note_on_c, 0, 71, 45
2, 84840, Note_on_c, 0, 71, 0
2, 84840, Note_on_c, 0, 69, 45
2, 84900, Note_on_c, 0, 69, 0
2, 84900, Note_on_c, 0, 67, 45
2, 84960, Note_on_c, 0, 67, 0
2, 84960, Note_on_c, 0, 67, 50
2, 84960, Note_on_c, 0, 71, 50
2, 85200, Note_on_c, 0, 71, 0
2, 85200, Note_on_c, 0, 67, 0
2, 85200, Note_on_c, 0, 66, 44
2, 85200, Note_on_c, 0, 69, 44
2, 85440, Note_on_c, 0, 69, 0
2, 85440, Note_on_c, 0, 66, 0
2, 85440, Note_on_c, 0, 70, 50
2, 85440, Text_t, "bdca426d104a26ac9dcb070447587523"
2, 85440, Control_c, 0, 91, 127
2, 85560, Note_on_c, 0, 70, 0
2, 85560, Note_on_c, 0, 71, 50
2, 85650, Note_on_c, 0, 71, 0
2, 85650, Note_on_c, 0, 74, 51
2, 85680, Note_on_c, 0, 74, 0
2, 85680, Note_on_c, 0, 72, 51
2, 85800, Note_on_c, 0, 72, 0
2, 85800, Note_on_c, 0, 71, 44
2, 85920, Note_on_c, 0, 71, 0
2, 85920, Note_on_c, 0, 68, 51
2, 86040, Note_on_c, 0, 68, 0
2, 86040, Note_on_c, 0, 69, 47
2, 86160, Note_on_c, 0, 69, 0
2, 86280, Note_on_c, 0, 72, 49
2, 86340, Note_on_c, 0, 72, 0
2, 86340, Note_on_c, 0, 71, 46
2, 86400, Note_on_c, 0, 71, 0
2, 86520, Note_on_c, 0, 74, 50
2, 86580, Note_on_c, 0, 74, 0
2, 86580, Note_on_c, 0, 72, 45
2, 86640, Note_on_c, 0, 72, 0
2, 86760, Note_on_c, 0, 76, 46
2, 86820, Note_on_c, 0, 76, 0
2, 86820, Note_on_c, 0, 74, 49
2, 86880, Note_on_c, 0, 74, 0
2, 86880, Note_on_c, 0, 72, 53
2, 87060, Note_on_c, 0, 72, 0
2, 87060, Note_on_c, 0, 74, 47
2, 87090, Note_on_c, 0, 74, 0
2, 87090, Note_on_c, 0, 72, 47
2, 87120, Note_on_c, 0, 72, 0
2, 87120, Note_on_c, 0, 71, 56
2, 87360, Note_on_c, 0, 71, 0
2, 87360, Note_on_c, 0, 72, 65
2, 87360, Note_on_c, 0, 67, 65
2, 87480, Note_on_c, 0, 67, 0
2, 87480, Note_on_c, 0, 72, 0
2, 87600, Note_on_c, 0, 67, 61
2, 87600, Note_on_c, 0, 71, 61
2, 87720, Note_on_c, 0, 71, 0
2, 87720, Note_on_c, 0, 67, 0
2, 87840, Note_on_c, 0, 76, 67
2, 87900, Note_on_c, 0, 76, 0
2, 87900, Note_on_c, 0, 78, 54
2, 87920, Note_on_c, 0, 78, 0
2, 87920, Note_on_c, 0, 76, 54
2, 87940, Note_on_c, 0, 76, 0
2, 87940, Note_on_c, 0, 74, 54
2, 87960, Note_on_c, 0, 74, 0
2, 87960, Note_on_c, 0, 76, 63
2, 88020, Note_on_c, 0, 76, 0
2, 88020, Note_on_c, 0, 78, 60
2, 88080, Note_on_c, 0, 78, 0
2, 88080, Note_on_c, 0, 79, 65
2, 88200, Note_on_c, 0, 79, 0
2, 88200, Note_on_c, 0, 72, 47
2, 88320, Note_on_c, 0, 72, 0
2, 88320, Note_on_c, 0, 71, 50
2, 88560, Note_on_c, 0, 71, 0
2, 88560, Note_on_c, 0, 69, 47
2, 88587, Note_on_c, 0, 69, 0
2, 88587, Note_on_c, 0, 71, 47
2, 88613, Note_on_c, 0, 71, 0
2, 88613, Note_on_c, 0, 69, 47
2, 88639, Note_on_c, 0, 71, 47
2, 88640, Note_on_c, 0, 69, 0
2, 88666, Note_on_c, 0, 71, 0
2, 88666, Note_on_c, 0, 69, 45
2, 88692, Note_on_c, 0, 69, 0
2, 88692, Note_on_c, 0, 71, 45
2, 88719, Note_on_c, 0, 71, 0
2, 88719, Note_on_c, 0, 69, 45
2, 88745, Note_on_c, 0, 69, 0
2, 88745, Note_on_c, 0, 67, 45
2, 88771, Note_on_c, 0, 69, 45
2, 88772, Note_on_c, 0, 67, 0
2, 88800, Note_on_c, 0, 69, 0
2, 88800, Note_on_c, 0, 67, 45
2, 89280, Note_on_c, 0, 67, 0
2, 89280, Note_on_c, 0, 71, 45
2, 89520, Note_on_c, 0, 71, 0
2, 89520, Note_on_c, 0, 69, 45
2, 89760, Note_on_c, 0, 69, 0
2, 89760, Note_on_c, 0, 67, 45
2, 89880, Note_on_c, 0, 67, 0
2, 89880, Note_on_c, 0, 66, 41
2, 89997, Note_on_c, 0, 66, 0
2, 90000, Note_on_c, 0, 66, 45
2, 90120, Note_on_c, 0, 66, 0
2, 90120, Note_on_c, 0, 62, 41
2, 90240, Note_on_c, 0, 62, 0
2, 90240, Note_on_c, 0, 71, 51
2, 90720, Note_on_c, 0, 71, 0
2, 90720, Note_on_c, 0, 67, 45
2, 91080, Note_on_c, 0, 67, 0
2, 91080, Note_on_c, 0, 69, 40
2, 91110, Note_on_c, 0, 69, 0
2, 91110, Note_on_c, 0, 67, 35
2, 91140, Note_on_c, 0, 67, 0
2, 91140, Note_on_c, 0, 66, 40
2, 91170, Note_on_c, 0, 66, 0
2, 91170, Note_on_c, 0, 67, 36
2, 91200, Note_on_c, 0, 67, 0
2, 91200, Note_on_c, 0, 71, 45
2, 91320, Note_on_c, 0, 71, 0
2, 91320, Note_on_c, 0, 69, 45
2, 91437, Note_on_c, 0, 69, 0
2, 91440, Note_on_c, 0, 69, 45
2, 91680, Note_on_c, 0, 69, 0
2, 91680, Note_on_c, 0, 67, 45
2, 91800, Note_on_c, 0, 67, 0
2, 91800, Note_on_c, 0, 66, 41
2, 91918, Note_on_c, 0, 66, 0
2, 91920, Note_on_c, 0, 66, 45
2, 92040, Note_on_c, 0, 66, 0
2, 92040, Note_on_c, 0, 62, 43
2, 92160, Note_on_c, 0, 62, 0
2, 92160, Note_on_c, 0, 67, 54
2, 92640, Note_on_c, 0, 67, 0
2, 92640, Note_on_c, 0, 67, 47
2, 92640, Note_on_c, 0, 79, 56
2, 93120, Note_on_c, 0, 79, 0
2, 93120, Note_on_c, 0, 67, 0
2, 93120, Note_on_c, 0, 71, 45
2, 93120, Note_on_c, 0, 83, 54
2, 93240, Note_on_c, 0, 83, 0
2, 93240, Note_on_c, 0, 71, 0
2, 93240, Note_on_c, 0, 69, 41
2, 93240, Note_on_c, 0, 81, 49
2, 93600, Note_on_c, 0, 81, 0
2, 93600, Note_on_c, 0, 69, 0
2, 93600, Note_on_c, 0, 67, 48
2, 93600, Note_on_c, 0, 79, 57
2, 93720, Note_on_c, 0, 79, 0
2, 93720, Note_on_c, 0, 67, 0
2, 93720, Note_on_c, 0, 66, 45
2, 93720, Note_on_c, 0, 78, 54
2, 93834, Note_on_c, 0, 78, 0
2, 93834, Note_on_c, 0, 66, 0
2, 93840, Note_on_c, 0, 66, 48
2, 93840, Note_on_c, 0, 78, 57
2, 93960, Note_on_c, 0, 78, 0
2, 93960, Note_on_c, 0, 66, 0
2, 93960, Note_on_c, 0, 74, 58
2, 93960, Note_on_c, 0, 62, 49
2, 94080, Note_on_c, 0, 62, 0
2, 94080, Note_on_c, 0, 74, 0
2, 94080, Note_on_c, 0, 86, 68
2, 94080, Note_on_c, 0, 74, 57
2, 94560, Note_on_c, 0, 74, 0
2, 94560, Note_on_c, 0, 86, 0
2, 94560, Note_on_c, 0, 67, 50
2, 94560, Note_on_c, 0, 79, 59
2, 94788, Note_on_c, 0, 79, 0
2, 94788, Note_on_c, 0, 67, 0
2, 94800, Note_on_c, 0, 67, 50
2, 94800, Note_on_c, 0, 79, 59
2, 95040, Note_on_c, 0, 79, 0
2, 95040, Note_on_c, 0, 67, 0
2, 95040, Note_on_c, 0, 71, 53
2, 95040, Note_on_c, 0, 83, 63
2, 95160, Note_on_c, 0, 83, 0
2, 95160, Note_on_c, 0, 71, 0
2, 95160, Note_on_c, 0, 69, 44
2, 95160, Note_on_c, 0, 81, 52
2, 95274, Note_on_c, 0, 81, 0
2, 95274, Note_on_c, 0, 69, 0
2, 95280, Note_on_c, 0, 69, 44
2, 95280, Note_on_c, 0, 81, 52
2, 95340, Note_on_c, 0, 81, 0
2, 95340, Note_on_c, 0, 69, 0
2, 95400, Note_on_c, 0, 69, 44
2, 95400, Note_on_c, 0, 81, 52
2, 95460, Note_on_c, 0, 81, 0
2, 95460, Note_on_c, 0, 69, 0
2, 95520, Note_on_c, 0, 67, 48
2, 95520, Note_on_c, 0, 79, 57
2, 95640, Note_on_c, 0, 79, 0
2, 95640, Note_on_c, 0, 67, 0
2, 95640, Note_on_c, 0, 66, 45
2, 95640, Note_on_c, 0, 78, 54
2, 95754, Note_on_c, 0, 78, 0
2, 95754, Note_on_c, 0, 66, 0
2, 95760, Note_on_c, 0, 66, 48
2, 95760, Note_on_c, 0, 78, 57
2, 95880, Note_on_c, 0, 78, 0
2, 95880, Note_on_c, 0, 66, 0
2, 95880, Note_on_c, 0, 74, 60
2, 95880, Note_on_c, 0, 62, 51
2, 96000, Note_on_c, 0, 62, 0
2, 96000, Note_on_c, 0, 74, 0
2, 96000, Note_on_c, 0, 79, 68
2, 96000, Note_on_c, 0, 67, 57
2, 96480, Note_on_c, 0, 67, 0
2, 96480, Note_on_c, 0, 79, 0
2, 96480, Note_on_c, 0, 83, 54
2, 96600, Note_on_c, 0, 83, 0
2, 96600, Note_on_c, 0, 81, 48
2, 96717, Note_on_c, 0, 81, 0
2, 96720, Note_on_c, 0, 81, 48
2, 96840, Note_on_c, 0, 81, 0
2, 96840, Note_on_c, 0, 78, 48
2, 96960, Note_on_c, 0, 78, 0
2, 96960, Note_on_c, 0, 79, 50
2, 97080, Note_on_c, 0, 79, 0
2, 97080, Note_on_c, 0, 83, 52
2, 97200, Note_on_c, 0, 83, 0
2, 97200, Note_on_c, 0, 86, 58
2, 97440, Note_on_c, 0, 86, 0
2, 97440, Note_on_c, 0, 83, 54
2, 97560, Note_on_c, 0, 83, 0
2, 97560, Note_on_c, 0, 81, 48
2, 97678, Note_on_c, 0, 81, 0
2, 97680, Note_on_c, 0, 81, 48
2, 97800, Note_on_c, 0, 81, 0
2, 97800, Note_on_c, 0, 78, 48
2, 97920, Note_on_c, 0, 78, 0
2, 97920, Note_on_c, 0, 67, 38
2, 97920, Note_on_c, 0, 79, 45
2, 98040, Note_on_c, 0, 79, 0
2, 98040, Note_on_c, 0, 67, 0
2, 98040, Note_on_c, 0, 71, 39
2, 98040, Note_on_c, 0, 83, 47
2, 98160, Note_on_c, 0, 83, 0
2, 98160, Note_on_c, 0, 71, 0
2, 98160, Note_on_c, 0, 74, 42
2, 98160, Note_on_c, 0, 86, 50
2, 98220, Note_on_c, 0, 86, 0
2, 98220, Note_on_c, 0, 74, 0
2, 98280, Note_on_c, 0, 74, 39
2, 98280, Note_on_c, 0, 86, 47
2, 98340, Note_on_c, 0, 86, 0
2, 98340, Note_on_c, 0, 74, 0
2, 98400, Note_on_c, 0, 67, 32
2, 98400, Note_on_c, 0, 79, 38
2, 98520, Note_on_c, 0, 79, 0
2, 98520, Note_on_c, 0, 67, 0
2, 98520, Note_on_c, 0, 71, 28
2, 98520, Note_on_c, 0, 83, 34
2, 98640, Note_on_c, 0, 83, 0
2, 98640, Note_on_c, 0, 71, 0
2, 98640, Note_on_c, 0, 74, 32
2, 98640, Note_on_c, 0, 86, 38
2, 98700, Note_on_c, 0, 86, 0
2, 98700, Note_on_c, 0, 74, 0
2, 98760, Note_on_c, 0, 74, 27
2, 98760, Note_on_c, 0, 86, 32
2, 98820, Note_on_c, 0, 86, 0
2, 98820, Note_on_c, 0, 74, 0
2, 98880, Note_on_c, 0, 74, 32
2, 98880, Note_on_c, 0, 86, 38
2, 99360, Note_on_c, 0, 86, 0
2, 99360, Note_on_c, 0, 74, 0
2, 99360, Note_on_c, 0, 67, 26
2, 99360, Note_on_c, 0, 79, 31
2, 99600, Note_on_c, 0, 79, 0
2, 99600, Note_on_c, 0, 67, 0
2, 99600, End_track
3, 0, Start_track
3, 0, Title_t, "Piano left"
3, 0, Program_c, 0, 0
3, 0, Control_c, 0, 7, 100
3, 0, Control_c, 0, 10, 64
3, 39360, Note_on_c, 0, 59, 59
3, 39360, Note_on_c, 0, 62, 59
3, 39600, Note_on_c, 0, 62, 0
3, 39600, Note_on_c, 0, 59, 0
3, 39600, Note_on_c, 0, 57, 42
3, 39600, Note_on_c, 0, 60, 42
3, 39840, Note_on_c, 0, 60, 0
3, 39840, Note_on_c, 0, 57, 0
3, 39840, Note_on_c, 0, 55, 44
3, 39840, Note_on_c, 0, 59, 44
3, 39840, Note_on_c, 0, 64, 53
3, 40320, Note_on_c, 0, 64, 0
3, 40320, Note_on_c, 0, 59, 0
3, 40320, Note_on_c, 0, 55, 0
3, 40320, Note_on_c, 0, 66, 40
3, 40320, Note_on_c, 0, 57, 40
3, 40560, Note_on_c, 0, 66, 0
3, 40560, Note_on_c, 0, 61, 38
3, 40800, Note_on_c, 0, 61, 0
3, 40800, Note_on_c, 0, 57, 0
3, 40800, Note_on_c, 0, 61, 40
3, 40800, Note_on_c, 0, 50, 40
3, 41040, Note_on_c, 0, 61, 0
3, 41040, Note_on_c, 0, 62, 38
3, 41280, Note_on_c, 0, 62, 0
3, 41280, Note_on_c, 0, 50, 0
3, 41280, Note_on_c, 0, 66, 53
3, 41280, Note_on_c, 0, 69, 53
3, 41520, Note_on_c, 0, 69, 0
3, 41520, Note_on_c, 0, 66, 0
3, 41520, Note_on_c, 0, 64, 37
3, 41520, Note_on_c, 0, 67, 37
3, 41520, Note_on_c, 0, 70, 45
3, 41760, Note_on_c, 0, 70, 0
3, 41760, Note_on_c, 0, 67, 0
3, 41760, Note_on_c, 0, 64, 0
3, 41760, Note_on_c, 0, 71, 47
3, 41760, Note_on_c, 0, 62, 39
3, 41760, Note_on_c, 0, 66, 47
3, 42000, Note_on_c, 0, 66, 0
3, 42000, Note_on_c, 0, 62, 0
3, 42000, Note_on_c, 0, 71, 0
3, 42240, Note_on_c, 0, 62, 29
3, 42240, Note_on_c, 0, 66, 35
3, 42480, Note_on_c, 0, 66, 0
3, 42480, Note_on_c, 0, 62, 0
3, 42480, Note_on_c, 0, 60, 29
3, 42480, Note_on_c, 0, 62, 29
3, 42480, Note_on_c, 0, 66, 35
3, 42720, Note_on_c, 0, 66, 0
3, 42720, Note_on_c, 0, 62, 0
3, 42720, Note_on_c, 0, 60, 0
3, 42720, Note_on_c, 0, 67, 35
3, 42720, Note_on_c, 0, 59, 29
3, 42720, Note_on_c, 0, 62, 35
3, 42960, Note_on_c, 0, 62, 0
3, 42960, Note_on_c, 0, 59, 0
3, 42960, Note_on_c, 0, 67, 0
3, 43200, Note_on_c, 0, 59, 59
3, 43200, Note_on_c, 0, 62, 59
3, 43440, Note_on_c, 0, 62, 0
3, 43440, Note_on_c, 0, 59, 0
3, 43440, Note_on_c, 0, 57, 42
3, 43440, Note_on_c, 0, 60, 42
3, 43680, Note_on_c, 0, 60, 0
3, 43680, Note_on_c, 0, 57, 0
3, 43680, Note_on_c, 0, 55, 44
3, 43680, Note_on_c, 0, 59, 44
3, 43680, Note_on_c, 0, 64, 53
3, 44160, Note_on_c, 0, 64, 0
3, 44160, Note_on_c, 0, 59, 0
3, 44160, Note_on_c, 0, 55, 0
3, 44160, Note_on_c, 0, 62, 34
3, 44160, Note_on_c, 0, 66, 40
3, 44160, Note_on_c, 0, 57, 34
3, 44400, Note_on_c, 0, 57, 0
3, 44400, Note_on_c, 0, 66, 0
3, 44400, Note_on_c, 0, 62, 0
3, 44640, Note_on_c, 0, 62, 28
3, 44640, Note_on_c, 0, 66, 33
3, 44640, Note_on_c, 0, 57, 28
3, 44880, Note_on_c, 0, 57, 0
3, 44880, Note_on_c, 0, 66, 0
3, 44880, Note_on_c, 0, 62, 0
3, 45120, Note_on_c, 0, 57, 28
3, 45120, Note_on_c, 0, 62, 28
3, 45120, Note_on_c, 0, 64, 34
3, 45360, Note_on_c, 0, 64, 0
3, 45360, Note_on_c, 0, 62, 0
3, 45360, Note_on_c, 0, 57, 0
3, 45600, Note_on_c, 0, 61, 28
3, 45600, Note_on_c, 0, 57, 28
3, 45600, Note_on_c, 0, 67, 34
3, 45840, Note_on_c, 0, 67, 0
3, 45840, Note_on_c, 0, 57, 0
3, 45840, Note_on_c, 0, 61, 0
3, 46080, Note_on_c, 0, 62, 28
3, 46080, Note_on_c, 0, 66, 34
3, 46560, Note_on_c, 0, 66, 0
3, 46560, Note_on_c, 0, 62, 0
3, 47040, Note_on_c, 0, 55, 39
3, 47040, Note_on_c, 0, 62, 39
3, 47280, Note_on_c, 0, 55, 0
3, 47280, Note_on_c, 0, 57, 35
3, 47460, Note_on_c, 0, 57, 0
3, 47460, Note_on_c, 0, 55, 30
3, 47520, Note_on_c, 0, 55, 0
3, 47520, Note_on_c, 0, 54, 32
3, 47760, Note_on_c, 0, 54, 0
3, 47760, Note_on_c, 0, 55, 32
3, 48000, Note_on_c, 0, 55, 0
3, 48000, Note_on_c, 0, 62, 0
3, 48000, Note_on_c, 0, 57, 38
3, 48000, Note_on_c, 0, 62, 38
3, 48240, Note_on_c, 0, 57, 0
3, 48240, Note_on_c, 0, 60, 40
3, 48360, Note_on_c, 0, 60, 0
3, 48360, Note_on_c, 0, 59, 36
3, 48480, Note_on_c, 0, 59, 0
3, 48480, Note_on_c, 0, 57, 47
3, 48720, Note_on_c, 0, 57, 0
3, 48720, Note_on_c, 0, 55, 51
3, 48960, Note_on_c, 0, 55, 0
3, 48960, Note_on_c, 0, 62, 0
3, 48960, Note_on_c, 0, 52, 49
3, 48960, Note_on_c, 0, 64, 49
3, 49080, Note_on_c, 0, 64, 0
3, 49080, Note_on_c, 0, 52, 0
3, 49200, Note_on_c, 0, 50, 44
3, 49200, Note_on_c, 0, 62, 44
3, 49320, Note_on_c, 0, 62, 0
3, 49320, Note_on_c, 0, 50, 0
3, 49440, Note_on_c, 0, 60, 51
3, 49440, Note_on_c, 0, 48, 51
3, 49560, Note_on_c, 0, 48, 0
3, 49560, Note_on_c, 0, 60, 0
3, 49800, Note_on_c, 0, 59, 37
3, 49920, Note_on_c, 0, 59, 0
3, 49920, Note_on_c, 0, 54, 40
3, 50160, Note_on_c, 0, 54, 0
3, 50160, Note_on_c, 0, 55, 35
3, 50400, Note_on_c, 0, 55, 0
3, 50400, Note_on_c, 0, 50, 39
3, 50880, Note_on_c, 0, 50, 0
3, 50880, Note_on_c, 0, 62, 39
3, 50880, Note_on_c, 0, 55, 39
3, 51120, Note_on_c, 0, 55, 0
3, 51120, Note_on_c, 0, 57, 35
3, 51300, Note_on_c, 0, 57, 0
3, 51300, Note_on_c, 0, 55, 30
3, 51360, Note_on_c, 0, 55, 0
3, 51360, Note_on_c, 0, 54, 32
3, 51600, Note_on_c, 0, 54, 0
3, 51600, Note_on_c, 0, 56, 32
3, 51840, Note_on_c, 0, 56, 0
3, 51840, Note_on_c, 0, 62, 0
3, 51840, Note_on_c, 0, 62, 38
3, 51840, Note_on_c, 0, 57, 38
3, 52080, Note_on_c, 0, 57, 0
3, 52080, Note_on_c, 0, 54, 33
3, 52320, Note_on_c, 0, 54, 0
3, 52320, Note_on_c, 0, 55, 39
3, 52800, Note_on_c, 0, 55, 0
3, 52800, Note_on_c, 0, 62, 0
3, 52800, Note_on_c, 0, 52, 49
3, 52800, Note_on_c, 0, 64, 49
3, 52920, Note_on_c, 0, 64, 0
3, 52920, Note_on_c, 0, 52, 0
3, 53040, Note_on_c, 0, 50, 44
3, 53040, Note_on_c, 0, 62, 44
3, 53160, Note_on_c, 0, 62, 0
3, 53160, Note_on_c, 0, 50, 0
3, 53280, Note_on_c, 0, 60, 51
3, 53280, Note_on_c, 0, 48, 51
3, 53520, Note_on_c, 0, 48, 0
3, 53520, Note_on_c, 0, 60, 0
3, 53640, Note_on_c, 0, 64, 37
3, 53640, Note_on_c, 0, 60, 37
3, 53760, Note_on_c, 0, 60, 0
3, 53760, Note_on_c, 0, 64, 0
3, 53760, Note_on_c, 0, 62, 40
3, 53760, Note_on_c, 0, 67, 40
3, 54000, Note_on_c, 0, 67, 0
3, 54000, Note_on_c, 0, 66, 35
3, 54240, Note_on_c, 0, 66, 0
3, 54240, Note_on_c, 0, 62, 0
3, 54240, Note_on_c, 0, 55, 39
3, 54360, Note_on_c, 0, 59, 28
3, 54480, Note_on_c, 0, 59, 0
3, 54480, Note_on_c, 0, 62, 32
3, 54600, Note_on_c, 0, 62, 0
3, 54600, Note_on_c, 0, 59, 27
3, 54720, Note_on_c, 0, 59, 0
3, 54720, Note_on_c, 0, 55, 0
3, 54720, Note_on_c, 0, 48, 39
3, 54840, Note_on_c, 0, 52, 27
3, 54960, Note_on_c, 0, 52, 0
3, 54960, Note_on_c, 0, 57, 32
3, 55080, Note_on_c, 0, 57, 0
3, 55080, Note_on_c, 0, 52, 28
3, 55200, Note_on_c, 0, 52, 0
3, 55200, Note_on_c, 0, 48, 0
3, 55200, Note_on_c, 0, 50, 39
3, 55320, Note_on_c, 0, 60, 29
3, 55440, Note_on_c, 0, 60, 0
3, 55440, Note_on_c, 0, 57, 32
3, 55560, Note_on_c, 0, 57, 0
3, 55560, Note_on_c, 0, 60, 29
3, 55680, Note_on_c, 0, 60, 0
3, 55680, Note_on_c, 0, 50, 0
3, 55680, Note_on_c, 0, 55, 39
3, 55800, Note_on_c, 0, 59, 29
3, 55920, Note_on_c, 0, 59, 0
3, 55920, Note_on_c, 0, 62, 32
3, 56040, Note_on_c, 0, 62, 0
3, 56040, Note_on_c, 0, 59, 29
3, 56160, Note_on_c, 0, 59, 0
3, 56160, Note_on_c, 0, 55, 0
3, 56160, Note_on_c, 0, 52, 39
3, 56280, Note_on_c, 0, 55, 29
3, 56400, Note_on_c, 0, 55, 0
3, 56400, Note_on_c, 0, 59, 32
3, 56520, Note_on_c, 0, 59, 0
3, 56520, Note_on_c, 0, 55, 30
3, 56640, Note_on_c, 0, 55, 0
3, 56640, Note_on_c, 0, 52, 0
3, 56640, Note_on_c, 0, 48, 39
3, 56760, Note_on_c, 0, 52, 29
3, 56880, Note_on_c, 0, 52, 0
3, 56880, Note_on_c, 0, 57, 32
3, 57000, Note_on_c, 0, 57, 0
3, 57000, Note_on_c, 0, 52, 29
3, 57120, Note_on_c, 0, 52, 0
3, 57120, Note_on_c, 0, 48, 0
3, 57120, Note_on_c, 0, 50, 39
3, 57240, Note_on_c, 0, 60, 30
3, 57360, Note_on_c, 0, 60, 0
3, 57360, Note_on_c, 0, 57, 32
3, 57480, Note_on_c, 0, 57, 0
3, 57480, Note_on_c, 0, 60, 29
3, 57600, Note_on_c, 0, 60, 0
3, 57600, Note_on_c, 0, 50, 0
3, 57600, End_track
4, 0, Start_track
4, 0, Title_t, "Pedal"
4, 0, Program_c, 0, 0
4, 0, Note_on_c, 0, 55, 39
4, 0, Note_on_c, 0, 62, 39
4, 480, Note_on_c, 0, 55, 0
4, 480, Note_on_c, 0, 54, 32
4, 720, Note_on_c, 0, 54, 0
4, 720, Note_on_c, 0, 55, 32
4, 960, Note_on_c, 0, 55, 0
4, 960, Note_on_c, 0, 62, 0
4, 960, Note_on_c, 0, 57, 38
4, 960, Note_on_c, 0, 62, 38
4, 1200, Note_on_c, 0, 57, 0
4, 1200, Note_on_c, 0, 54, 33
4, 1440, Note_on_c, 0, 54, 0
4, 1440, Note_on_c, 0, 55, 39
4, 1920, Note_on_c, 0, 55, 0
4, 1920, Note_on_c, 0, 62, 0
4, 1920, Note_on_c, 0, 52, 49
4, 1920, Note_on_c, 0, 64, 49
4, 2040, Note_on_c, 0, 64, 0
4, 2040, Note_on_c, 0, 52, 0
4, 2160, Note_on_c, 0, 50, 44
4, 2160, Note_on_c, 0, 62, 44
4, 2280, Note_on_c, 0, 62, 0
4, 2280, Note_on_c, 0, 50, 0
4, 2400, Note_on_c, 0, 60, 51
4, 2400, Note_on_c, 0, 48, 51
4, 2520, Note_on_c, 0, 48, 0
4, 2520, Note_on_c, 0, 60, 0
4, 2760, Note_on_c, 0, 59, 37
4, 2880, Note_on_c, 0, 59, 0
4, 2880, Note_on_c, 0, 54, 40
4, 2914, Control_c, 0, 64, 127
4, 3120, Note_on_c, 0, 54, 0
4, 3120, Note_on_c, 0, 55, 35
4, 3130, Control_c, 0, 64, 0
4, 3180, Control_c, 0, 64, 127
4, 3360, Note_on_c, 0, 55, 0
4, 3360, Note_on_c, 0, 50, 39
4, 3371, Control_c, 0, 64, 0
4, 3840, Note_on_c, 0, 50, 0
4, 3840, Note_on_c, 0, 55, 39
4, 3840, Note_on_c, 0, 62, 39
4, 4320, Note_on_c, 0, 55, 0
4, 4320, Note_on_c, 0, 54, 32
4, 4560, Note_on_c, 0, 54, 0
4, 4560, Note_on_c, 0, 55, 32
4, 4800, Note_on_c, 0, 55, 0
4, 4800, Note_on_c, 0, 62, 0
4, 4800, Note_on_c, 0, 62, 38
4, 4800, Note_on_c, 0, 57, 38
4, 5040, Note_on_c, 0, 57, 0
4, 5040, Note_on_c, 0, 54, 33
4, 5280, Note_on_c, 0, 54, 0
4, 5280, Note_on_c, 0, 55, 39
4, 5760, Note_on_c, 0, 55, 0
4, 5760, Note_on_c, 0, 62, 0
4, 5760, Note_on_c, 0, 52, 49
4, 5760, Note_on_c, 0, 64, 49
4, 5880, Note_on_c, 0, 64, 0
4, 5880, Note_on_c, 0, 52, 0
4, 6000, Note_on_c, 0, 62, 44
4, 6000, Note_on_c, 0, 50, 44
4, 6120, Note_on_c, 0, 50, 0
4, 6120, Note_on_c, 0, 62, 0
4, 6240, Note_on_c, 0, 48, 51
4, 6240, Note_on_c, 0, 60, 51
4, 6480, Note_on_c, 0, 60, 0
4, 6480, Note_on_c, 0, 48, 0
4, 6600, Note_on_c, 0, 60, 37
4, 6600, Note_on_c, 0, 64, 37
4, 6690, Note_on_c, 0, 64, 0
4, 6690, Note_on_c, 0, 60, 0
4, 6720, Note_on_c, 0, 67, 40
4, 6720, Note_on_c, 0, 62, 40
4, 6960, Note_on_c, 0, 67, 0
4, 6960, Note_on_c, 0, 66, 35
4, 6980, Control_c, 0, 64, 127
4, 7200, Note_on_c, 0, 66, 0
4, 7200, Note_on_c, 0, 62, 0
4, 7200, Note_on_c, 0, 55, 39
4, 7207, Control_c, 0, 64, 0
4, 7235, Control_c, 0, 64, 127
4, 7320, Note_on_c, 0, 59, 28
4, 7440, Note_on_c, 0, 59, 0
4, 7440, Note_on_c, 0, 62, 32
4, 7560, Note_on_c, 0, 62, 0
4, 7560, Note_on_c, 0, 59, 27
4, 7680, Note_on_c, 0, 59, 0
4, 7680, Note_on_c, 0, 55, 0
4, 7680, Note_on_c, 0, 48, 39
4, 7680, Control_c, 0, 64, 0
4, 7793, Control_c, 0, 64, 127
4, 7800, Note_on_c, 0, 52, 27
4, 7920, Note_on_c, 0, 52, 0
4, 7920, Note_on_c, 0, 57, 32
4, 8040, Note_on_c, 0, 57, 0
4, 8040, Note_on_c, 0, 52, 28
4, 8160, Note_on_c, 0, 52, 0
4, 8160, Note_on_c, 0, 48, 0
4, 8160, Note_on_c, 0, 50, 39
4, 8172, Control_c, 0, 64, 0
4, 8245, Control_c, 0, 64, 127
4, 8280, Note_on_c, 0, 60, 29
4, 8400, Note_on_c, 0, 60, 0
4, 8400, Note_on_c, 0, 57, 32
4, 8520, Note_on_c, 0, 57, 0
4, 8520, Note_on_c, 0, 60, 29
4, 8640, Note_on_c, 0, 60, 0
4, 8640, Note_on_c, 0, 50, 0
4, 8640, Note_on_c, 0, 55, 39
4, 8640, Control_c, 0, 64, 0
4, 8688, Control_c, 0, 64, 127
4, 8760, Note_on_c, 0, 59, 29
4, 8880, Note_on_c, 0, 59, 0
4, 8880, Note_on_c, 0, 62, 32
4, 9000, Note_on_c, 0, 62, 0
4, 9000, Note_on_c, 0, 59, 29
4, 9120, Note_on_c, 0, 59, 0
4, 9120, Note_on_c, 0, 55, 0
4, 9120, Note_on_c, 0, 52, 39
4, 9135, Control_c, 0, 64, 0
4, 9183, Control_c, 0, 64, 127
4, 9240, Note_on_c, 0, 55, 29
4, 9360, Note_on_c, 0, 55, 0
4, 9360, Note_on_c, 0, 59, 32
4, 9480, Note_on_c, 0, 59, 0
4, 9480, Note_on_c, 0, 55, 30
4, 9600, Note_on_c, 0, 55, 0
4, 9600, Note_on_c, 0, 52, 0
4, 9600, Note_on_c, 0, 48, 39
4, 9605, Control_c, 0, 64, 0
4, 9648, Control_c, 0, 64, 127
4, 9720, Note_on_c, 0, 52, 29
4, 9840, Note_on_c, 0, 52, 0
4, 9840, Note_on_c, 0, 57, 32
4, 9960, Note_on_c, 0, 57, 0
4, 9960, Note_on_c, 0, 52, 29
4, 10080, Note_on_c, 0, 52, 0
4, 10080, Note_on_c, 0, 48, 0
4, 10080, Note_on_c, 0, 50, 39
4, 10090, Control_c, 0, 64, 0
4, 10137, Control_c, 0, 64, 127
4, 10200, Note_on_c, 0, 60, 30
4, 10320, Note_on_c, 0, 60, 0
4, 10320, Note_on_c, 0, 57, 32
4, 10440, Note_on_c, 0, 57, 0
4, 10440, Note_on_c, 0, 60, 29
4, 10560, Note_on_c, 0, 60, 0
4, 10560, Note_on_c, 0, 50, 0
4, 10560, Note_on_c, 0, 55, 39
4, 10560, Note_on_c, 0, 62, 39
4, 10560, Control_c, 0, 64, 0
4, 11040, Note_on_c, 0, 55, 0
4, 11040, Note_on_c, 0, 54, 32
4, 11280, Note_on_c, 0, 54, 0
4, 11280, Note_on_c, 0, 55, 32
4, 11520, Note_on_c, 0, 55, 0
4, 11520, Note_on_c, 0, 62, 0
4, 11520, Note_on_c, 0, 62, 38
4, 11520, Note_on_c, 0, 57, 38
4, 11760, Note_on_c, 0, 57, 0
4, 11760, Note_on_c, 0, 54, 33
4, 12000, Note_on_c, 0, 54, 0
4, 12000, Note_on_c, 0, 55, 39
4, 12480, Note_on_c, 0, 55, 0
4, 12480, Note_on_c, 0, 62, 0
4, 12480, Note_on_c, 0, 64, 49
4, 12480, Note_on_c, 0, 52, 49
4, 12600, Note_on_c, 0, 52, 0
4, 12600, Note_on_c, 0, 64, 0
4, 12720, Note_on_c, 0, 50, 44
4, 12720, Note_on_c, 0, 62, 44
4, 12840, Note_on_c, 0, 62, 0
4, 12840, Note_on_c, 0, 50, 0
4, 12960, Note_on_c, 0, 60, 51
4, 12960, Note_on_c, 0, 48, 51
4, 13080, Note_on_c, 0, 48, 0
4, 13080, Note_on_c, 0, 60, 0
4, 13320, Note_on_c, 0, 59, 37
4, 13440, Note_on_c, 0, 59, 0
4, 13440, Note_on_c, 0, 54, 40
4, 13474, Control_c, 0, 64, 127
4, 13680, Note_on_c, 0, 54, 0
4, 13680, Note_on_c, 0, 55, 35
4, 13690, Control_c, 0, 64, 0
4, 13740, Control_c, 0, 64, 127
4, 13920, Note_on_c, 0, 55, 0
4, 13920, Note_on_c, 0, 50, 39
4, 13931, Control_c, 0, 64, 0
4, 14400, Note_on_c, 0, 50, 0
4, 14400, Note_on_c, 0, 62, 39
4, 14400, Note_on_c, 0, 55, 39
4, 14880, Note_on_c, 0, 55, 0
4, 14880, Note_on_c, 0, 54, 32
4, 15120, Note_on_c, 0, 54, 0
4, 15120, Note_on_c, 0, 55, 32
4, 15360, Note_on_c, 0, 55, 0
4, 15360, Note_on_c, 0, 62, 0
4, 15360, Note_on_c, 0, 57, 38
4, 15360, Note_on_c, 0, 62, 38
4, 15600, Note_on_c, 0, 57, 0
4, 15600, Note_on_c, 0, 54, 33
4, 15840, Note_on_c, 0, 54, 0
4, 15840, Note_on_c, 0, 55, 39
4, 16320, Note_on_c, 0, 55, 0
4, 16320, Note_on_c, 0, 62, 0
4, 16320, Note_on_c, 0, 64, 49
4, 16320, Note_on_c, 0, 52, 49
4, 16440, Note_on_c, 0, 52, 0
4, 16440, Note_on_c, 0, 64, 0
4, 16560, Note_on_c, 0, 62, 44
4, 16560, Note_on_c, 0, 50, 44
4, 16680, Note_on_c, 0, 50, 0
4, 16680, Note_on_c, 0, 62, 0
4, 16800, Note_on_c, 0, 48, 51
4, 16800, Note_on_c, 0, 60, 51
4, 17040, Note_on_c, 0, 60, 0
4, 17040, Note_on_c, 0, 48, 0
4, 17160, Note_on_c, 0, 64, 37
4, 17160, Note_on_c, 0, 60, 37
4, 17250, Note_on_c, 0, 60, 0
4, 17250, Note_on_c, 0, 64, 0
4, 17280, Note_on_c, 0, 62, 40
4, 17280, Note_on_c, 0, 67, 40
4, 17520, Note_on_c, 0, 67, 0
4, 17520, Note_on_c, 0, 66, 35
4, 17540, Control_c, 0, 64, 127
4, 17760, Note_on_c, 0, 66, 0
4, 17760, Note_on_c, 0, 62, 0
4, 17760, Note_on_c, 0, 55, 39
4, 17767, Control_c, 0, 64, 0
4, 17795, Control_c, 0, 64, 127
4, 17880, Note_on_c, 0, 59, 28
4, 18000, Note_on_c, 0, 59, 0
4, 18000, Note_on_c, 0, 62, 32
4, 18120, Note_on_c, 0, 62, 0
4, 18120, Note_on_c, 0, 59, 27
4, 18240, Note_on_c, 0, 59, 0
4, 18240, Note_on_c, 0, 55, 0
4, 18240, Note_on_c, 0, 48, 39
4, 18240, Control_c, 0, 64, 0
4, 18353, Control_c, 0, 64, 127
4, 18360, Note_on_c, 0, 52, 27
4, 18480, Note_on_c, 0, 52, 0
4, 18480, Note_on_c, 0, 57, 32
4, 18600, Note_on_c, 0, 57, 0
4, 18600, Note_on_c, 0, 52, 28
4, 18720, Note_on_c, 0, 52, 0
4, 18720, Note_on_c, 0, 48, 0
4, 18720, Note_on_c, 0, 50, 39
4, 18732, Control_c, 0, 64, 0
4, 18805, Control_c, 0, 64, 127
4, 18840, Note_on_c, 0, 60, 29
4, 18960, Note_on_c, 0, 60, 0
4, 18960, Note_on_c, 0, 57, 32
4, 19080, Note_on_c, 0, 57, 0
4, 19080, Note_on_c, 0, 60, 29
4, 19200, Note_on_c, 0, 60, 0
4, 19200, Note_on_c, 0, 50, 0
4, 19200, Note_on_c, 0, 55, 39
4, 19200, Control_c, 0, 64, 0
4, 19248, Control_c, 0, 64, 127
4, 19320, Note_on_c, 0, 59, 29
4, 19440, Note_on_c, 0, 59, 0
4, 19440, Note_on_c, 0, 62, 32
4, 19560, Note_on_c, 0, 62, 0
4, 19560, Note_on_c, 0, 59, 29
4, 19680, Note_on_c, 0, 59, 0
4, 19680, Note_on_c, 0, 55, 0
4, 19680, Note_on_c, 0, 52, 39
4, 19695, Control_c, 0, 64, 0
4, 19743, Control_c, 0, 64, 127
4, 19800, Note_on_c, 0, 55, 29
4, 19920, Note_on_c, 0, 55, 0
4, 19920, Note_on_c, 0, 59, 32
4, 20040, Note_on_c, 0, 59, 0
4, 20040, Note_on_c, 0, 55, 30
4, 20160, Note_on_c, 0, 55, 0
4, 20160, Note_on_c, 0, 52, 0
4, 20160, Note_on_c, 0, 48, 39
4, 20165, Control_c, 0, 64, 0
4, 20208, Control_c, 0, 64, 127
4, 20280, Note_on_c, 0, 52, 29
4, 20400, Note_on_c, 0, 52, 0
4, 20400, Note_on_c, 0, 57, 32
4, 20520, Note_on_c, 0, 57, 0
4, 20520, Note_on_c, 0, 52, 29
4, 20640, Note_on_c, 0, 52, 0
4, 20640, Note_on_c, 0, 48, 0
4, 20640, Note_on_c, 0, 50, 39
4, 20650, Control_c, 0, 64, 0
4, 20697, Control_c, 0, 64, 127
4, 20760, Note_on_c, 0, 60, 30
4, 20880, Note_on_c, 0, 60, 0
4, 20880, Note_on_c, 0, 57, 32
4, 21000, Note_on_c, 0, 57, 0
4, 21000, Note_on_c, 0, 60, 29
4, 21120, Note_on_c, 0, 60, 0
4, 21120, Note_on_c, 0, 50, 0
4, 21120, Note_on_c, 0, 59, 39
4, 21120, Note_on_c, 0, 55, 33
4, 21120, Control_c, 0, 64, 0
4, 21600, Note_on_c, 0, 55, 0
4, 21600, Note_on_c, 0, 59, 0
4, 21600, Note_on_c, 0, 57, 38
4, 21600, Note_on_c, 0, 54, 32
4, 21600, Note_on_c, 0, 47, 32
4, 21828, Note_on_c, 0, 47, 0
4, 21828, Note_on_c, 0, 54, 0
4, 21828, Note_on_c, 0, 57, 0
4, 21840, Note_on_c, 0, 47, 32
4, 21840, Note_on_c, 0, 57, 38
4, 21840, Note_on_c, 0, 54, 32
4, 22068, Note_on_c, 0, 54, 0
4, 22068, Note_on_c, 0, 57, 0
4, 22068, Note_on_c, 0, 47, 0
4, 22080, Note_on_c, 0, 55, 41
4, 22080, Note_on_c, 0, 52, 34
4, 22560, Note_on_c, 0, 52, 0
4, 22560, Note_on_c, 0, 55, 0
4, 22560, Note_on_c, 0, 55, 37
4, 22560, Note_on_c, 0, 45, 31
4, 22560, Note_on_c, 0, 52, 31
4, 22800, Note_on_c, 0, 52, 0
4, 22800, Note_on_c, 0, 45, 0
4, 22800, Note_on_c, 0, 55, 0
4, 22800, Note_on_c, 0, 55, 42
4, 22800, Note_on_c, 0, 52, 35
4, 22800, Note_on_c, 0, 45, 35
4, 23040, Note_on_c, 0, 45, 0
4, 23040, Note_on_c, 0, 52, 0
4, 23040, Note_on_c, 0, 55, 0
4, 23040, Note_on_c, 0, 50, 37
4, 23040, Note_on_c, 0, 54, 44
4, 23520, Note_on_c, 0, 54, 0
4, 23520, Note_on_c, 0, 50, 0
4, 23520, Note_on_c, 0, 47, 51
4, 23520, Note_on_c, 0, 59, 61
4, 23600, Control_c, 0, 64, 127
4, 23748, Note_on_c, 0, 59, 0
4, 23748, Note_on_c, 0, 47, 0
4, 23760, Note_on_c, 0, 47, 48
4, 23760, Note_on_c, 0, 59, 57
4, 23988, Note_on_c, 0, 59, 0
4, 23988, Note_on_c, 0, 47, 0
4, 24000, Note_on_c, 0, 47, 51
4, 24000, Note_on_c, 0, 59, 61
4, 24374, Control_c, 0, 64, 0
4, 24432, Note_on_c, 0, 59, 0
4, 24432, Note_on_c, 0, 47, 0
4, 24480, Note_on_c, 0, 64, 37
4, 24480, Note_on_c, 0, 57, 31
4, 24672, Note_on_c, 0, 57, 0
4, 24672, Note_on_c, 0, 64, 0
4, 24720, Note_on_c, 0, 64, 35
4, 24720, Note_on_c, 0, 57, 29
4, 24912, Note_on_c, 0, 57, 0
4, 24912, Note_on_c, 0, 64, 0
4, 24960, Note_on_c, 0, 57, 31
4, 24960, Note_on_c, 0, 64, 37
4, 25440, Note_on_c, 0, 64, 0
4, 25440, Note_on_c, 0, 57, 0
4, 25687, Control_c, 0, 64, 127
4, 25920, Note_on_c, 0, 62, 34
4, 25938, Control_c, 0, 64, 0
4, 25979, Control_c, 0, 64, 127
4, 26040, Note_on_c, 0, 62, 0
4, 26040, Note_on_c, 0, 66, 29
4, 26160, Note_on_c, 0, 66, 0
4, 26160, Note_on_c, 0, 69, 29
4, 26280, Note_on_c, 0, 69, 0
4, 26280, Note_on_c, 0, 66, 29
4, 26400, Note_on_c, 0, 66, 0
4, 26400, Note_on_c, 0, 62, 34
4, 26408, Control_c, 0, 64, 0
4, 26421, Control_c, 0, 64, 127
4, 26520, Note_on_c, 0, 62, 0
4, 26520, Note_on_c, 0, 66, 30
4, 26640, Note_on_c, 0, 66, 0
4, 26640, Note_on_c, 0, 69, 30
4, 26760, Note_on_c, 0, 69, 0
4, 26760, Note_on_c, 0, 66, 30
4, 26880, Note_on_c, 0, 66, 0
4, 26880, Note_on_c, 0, 62, 34
4, 26898, Control_c, 0, 64, 0
4, 26933, Control_c, 0, 64, 127
4, 27000, Note_on_c, 0, 62, 0
4, 27000, Note_on_c, 0, 64, 31
4, 27120, Note_on_c, 0, 64, 0
4, 27120, Note_on_c, 0, 71, 31
4, 27240, Note_on_c, 0, 71, 0
4, 27240, Note_on_c, 0, 64, 31
4, 27360, Note_on_c, 0, 64, 0
4, 27360, Note_on_c, 0, 62, 34
4, 27360, Control_c, 0, 64, 0
4, 27480, Note_on_c, 0, 62, 0
4, 27480, Note_on_c, 0, 64, 30
4, 27600, Note_on_c, 0, 64, 0
4, 27600, Note_on_c, 0, 71, 30
4, 27720, Note_on_c, 0, 71, 0
4, 27720, Note_on_c, 0, 64, 30
4, 27840, Note_on_c, 0, 64, 0
4, 27840, Note_on_c, 0, 61, 34
4, 27851, Control_c, 0, 64, 127
4, 27960, Note_on_c, 0, 61, 0
4, 27960, Note_on_c, 0, 64, 31
4, 28080, Note_on_c, 0, 64, 0
4, 28080, Note_on_c, 0, 69, 31
4, 28200, Note_on_c, 0, 69, 0
4, 28200, Note_on_c, 0, 64, 31
4, 28320, Note_on_c, 0, 64, 0
4, 28320, Note_on_c, 0, 59, 34
4, 28330, Control_c, 0, 64, 0
4, 28370, Control_c, 0, 64, 127
4, 28440, Note_on_c, 0, 59, 0
4, 28440, Note_on_c, 0, 62, 31
4, 28560, Note_on_c, 0, 62, 0
4, 28560, Note_on_c, 0, 67, 31
4, 28680, Note_on_c, 0, 67, 0
4, 28680, Note_on_c, 0, 62, 28
4, 28800, Note_on_c, 0, 62, 0
4, 28800, Note_on_c, 0, 58, 31
4, 28800, Control_c, 0, 64, 0
4, 28851, Control_c, 0, 64, 127
4, 28920, Note_on_c, 0, 58, 0
4, 28920, Note_on_c, 0, 61, 32
4, 29040, Note_on_c, 0, 61, 0
4, 29040, Note_on_c, 0, 64, 32
4, 29160, Note_on_c, 0, 64, 0
4, 29160, Note_on_c, 0, 58, 32
4, 29280, Note_on_c, 0, 58, 0
4, 29280, Note_on_c, 0, 59, 34
4, 29296, Control_c, 0, 64, 0
4, 29337, Control_c, 0, 64, 127
4, 29400, Note_on_c, 0, 59, 0
4, 29400, Note_on_c, 0, 66, 32
4, 29508, Control_c, 0, 64, 0
4, 29520, Note_on_c, 0, 66, 0
4, 29520, Note_on_c, 0, 57, 32
4, 29640, Note_on_c, 0, 57, 0
4, 29640, Note_on_c, 0, 62, 32
4, 29760, Note_on_c, 0, 62, 0
4, 29760, Note_on_c, 0, 56, 34
4, 29767, Control_c, 0, 64, 127
4, 29880, Note_on_c, 0, 56, 0
4, 29880, Note_on_c, 0, 59, 27
4, 30000, Note_on_c, 0, 59, 0
4, 30000, Note_on_c, 0, 62, 31
4, 30120, Note_on_c, 0, 62, 0
4, 30120, Note_on_c, 0, 59, 28
4, 30240, Note_on_c, 0, 59, 0
4, 30240, Note_on_c, 0, 56, 34
4, 30251, Control_c, 0, 64, 0
4, 30303, Control_c, 0, 64, 127
4, 30360, Note_on_c, 0, 56, 0
4, 30360, Note_on_c, 0, 59, 29
4, 30480, Note_on_c, 0, 59, 0
4, 30480, Note_on_c, 0, 62, 32
4, 30600, Note_on_c, 0, 62, 0
4, 30600, Note_on_c, 0, 59, 29
4, 30720, Note_on_c, 0, 59, 0
4, 30720, Note_on_c, 0, 55, 34
4, 30720, Control_c, 0, 64, 0
4, 30759, Control_c, 0, 64, 127
4, 30840, Note_on_c, 0, 55, 0
4, 30840, Note_on_c, 0, 61, 26
4, 30960, Note_on_c, 0, 61, 0
4, 30960, Note_on_c, 0, 64, 29
4, 31080, Note_on_c, 0, 64, 0
4, 31080, Note_on_c, 0, 55, 25
4, 31200, Note_on_c, 0, 55, 0
4, 31200, Note_on_c, 0, 54, 34
4, 31211, Control_c, 0, 64, 0
4, 31246, Control_c, 0, 64, 127
4, 31320, Note_on_c, 0, 54, 0
4, 31320, Note_on_c, 0, 62, 26
4, 31440, Note_on_c, 0, 62, 0
4, 31440, Note_on_c, 0, 59, 29
4, 31560, Note_on_c, 0, 59, 0
4, 31560, Note_on_c, 0, 57, 26
4, 31680, Note_on_c, 0, 57, 0
4, 31680, Note_on_c, 0, 59, 33
4, 31680, Note_on_c, 0, 55, 33
4, 31680, Control_c, 0, 64, 0
4, 32400, Note_on_c, 0, 55, 0
4, 32400, Note_on_c, 0, 59, 0
4, 32400, Note_on_c, 0, 64, 32
4, 32400, Note_on_c, 0, 56, 32
4, 32640, Note_on_c, 0, 56, 0
4, 32640, Note_on_c, 0, 64, 0
4, 32640, Note_on_c, 0, 64, 35
4, 32640, Note_on_c, 0, 57, 35
4, 33120, Note_on_c, 0, 57, 0
4, 33120, Note_on_c, 0, 64, 0
4, 33600, Note_on_c, 0, 74, 36
4, 33604, Control_c, 0, 64, 127
4, 33720, Note_on_c, 0, 74, 0
4, 33720, Note_on_c, 0, 69, 29
4, 33840, Note_on_c, 0, 69, 0
4, 33840, Note_on_c, 0, 74, 33
4, 33850, Control_c, 0, 64, 0
4, 33868, Control_c, 0, 64, 127
4, 33960, Note_on_c, 0, 74, 0
4, 33960, Note_on_c, 0, 69, 29
4, 34080, Note_on_c, 0, 69, 0
4, 34080, Note_on_c, 0, 73, 36
4, 34092, Control_c, 0, 64, 0
4, 34128, Control_c, 0, 64, 127
4, 34200, Note_on_c, 0, 73, 0
4, 34200, Note_on_c, 0, 69, 28
4, 34320, Note_on_c, 0, 69, 0
4, 34320, Note_on_c, 0, 74, 32
4, 34323, Control_c, 0, 64, 0
4, 34356, Control_c, 0, 64, 127
4, 34440, Note_on_c, 0, 74, 0
4, 34440, Note_on_c, 0, 69, 28
4, 34560, Note_on_c, 0, 69, 0
4, 34560, Note_on_c, 0, 76, 36
4, 34574, Control_c, 0, 64, 0
4, 34640, Control_c, 0, 64, 127
4, 34680, Note_on_c, 0, 76, 0
4, 34680, Note_on_c, 0, 69, 28
4, 34800, Note_on_c, 0, 69, 0
4, 34800, Note_on_c, 0, 73, 31
4, 34806, Control_c, 0, 64, 0
4, 34846, Control_c, 0, 64, 127
4, 34920, Note_on_c, 0, 73, 0
4, 34920, Note_on_c, 0, 69, 28
4, 35040, Note_on_c, 0, 69, 0
4, 35040, Note_on_c, 0, 74, 36
4, 35057, Control_c, 0, 64, 0
4, 35137, Control_c, 0, 64, 127
4, 35160, Note_on_c, 0, 74, 0
4, 35160, Note_on_c, 0, 69, 29
4, 35280, Note_on_c, 0, 69, 0
4, 35280, Note_on_c, 0, 74, 33
4, 35287, Control_c, 0, 64, 0
4, 35355, Control_c, 0, 64, 127
4, 35400, Note_on_c, 0, 74, 0
4, 35400, Note_on_c, 0, 69, 29
4, 35520, Note_on_c, 0, 69, 0
4, 35520, Note_on_c, 0, 62, 38
4, 35520, Note_on_c, 0, 66, 45
4, 35520, Control_c, 0, 64, 0
4, 35561, Control_c, 0, 64, 127
4, 35760, Note_on_c, 0, 66, 0
4, 35760, Note_on_c, 0, 62, 0
4, 35760, Note_on_c, 0, 64, 38
4, 35760, Note_on_c, 0, 67, 45
4, 35764, Control_c, 0, 64, 0
4, 35792, Control_c, 0, 64, 127
4, 35940, Note_on_c, 0, 67, 0
4, 35940, Note_on_c, 0, 64, 0
4, 35940, Note_on_c, 0, 62, 35
4, 35940, Note_on_c, 0, 66, 42
4, 36000, Note_on_c, 0, 66, 0
4, 36000, Note_on_c, 0, 62, 0
4, 36000, Note_on_c, 0, 61, 38
4, 36000, Note_on_c, 0, 64, 45
4, 36009, Control_c, 0, 64, 0
4, 36044, Control_c, 0, 64, 127
4, 36240, Note_on_c, 0, 64, 0
4, 36240, Note_on_c, 0, 61, 0
4, 36240, Note_on_c, 0, 62, 34
4, 36240, Note_on_c, 0, 66, 41
4, 36254, Control_c, 0, 64, 0
4, 36294, Control_c, 0, 64, 127
4, 36480, Note_on_c, 0, 66, 0
4, 36480, Note_on_c, 0, 62, 0
4, 36480, Note_on_c, 0, 64, 38
4, 36480, Note_on_c, 0, 67, 45
4, 36491, Control_c, 0, 64, 0
4, 36529, Control_c, 0, 64, 127
4, 36720, Note_on_c, 0, 67, 0
4, 36720, Note_on_c, 0, 64, 0
4, 36720, Note_on_c, 0, 66, 34
4, 36720, Note_on_c, 0, 69, 41
4, 36732, Control_c, 0, 64, 0
4, 36760, Control_c, 0, 64, 127
4, 36960, Note_on_c, 0, 69, 0
4, 36960, Note_on_c, 0, 66, 0
4, 36960, Note_on_c, 0, 64, 35
4, 36960, Note_on_c, 0, 67, 42
4, 36971, Control_c, 0, 64, 0
4, 37003, Control_c, 0, 64, 127
4, 37200, Note_on_c, 0, 67, 0
4, 37200, Note_on_c, 0, 64, 0
4, 37200, Note_on_c, 0, 62, 38
4, 37200, Note_on_c, 0, 66, 45
4, 37211, Control_c, 0, 64, 0
4, 37260, Control_c, 0, 64, 127
4, 37423, Control_c, 0, 64, 0
4, 37440, Note_on_c, 0, 66, 0
4, 37440, Note_on_c, 0, 62, 0
4, 37440, Note_on_c, 0, 66, 59
4, 37440, Note_on_c, 0, 69, 59
4, 37680, Note_on_c, 0, 69, 0
4, 37680, Note_on_c, 0, 66, 0
4, 37680, Note_on_c, 0, 64, 42
4, 37680, Note_on_c, 0, 67, 42
4, 37680, Note_on_c, 0, 70, 51
4, 37920, Note_on_c, 0, 70, 0
4, 37920, Note_on_c, 0, 67, 0
4, 37920, Note_on_c, 0, 64, 0
4, 37920, Note_on_c, 0, 62, 44
4, 37920, Note_on_c, 0, 66, 53
4, 38160, Note_on_c, 0, 66, 0
4, 38160, Note_on_c, 0, 62, 0
4, 38400, Note_on_c, 0, 62, 29
4, 38400, Note_on_c, 0, 66, 35
4, 38640, Note_on_c, 0, 66, 0
4, 38640, Note_on_c, 0, 62, 0
4, 38640, Note_on_c, 0, 60, 29
4, 38640, Note_on_c, 0, 62, 29
4, 38640, Note_on_c, 0, 66, 35
4, 38880, Note_on_c, 0, 66, 0
4, 38880, Note_on_c, 0, 62, 0
4, 38880, Note_on_c, 0, 60, 0
4, 38880, Note_on_c, 0, 59, 29
4, 38880, Note_on_c, 0, 62, 35
4, 39120, Note_on_c, 0, 62, 0
4, 39120, Note_on_c, 0, 59, 0
4, 39600, Note_on_c, 0, 63, 51
4, 39840, Note_on_c, 0, 63, 0
4, 41520, Control_c, 0, 64, 127
4, 41760, Control_c, 0, 64, 0
4, 42483, Control_c, 0, 64, 127
4, 42729, Control_c, 0, 64, 0
4, 43440, Note_on_c, 0, 63, 51
4, 43680, Note_on_c, 0, 63, 0
4, 45120, Control_c, 0, 64, 127
4, 45374, Control_c, 0, 64, 0
4, 45408, Control_c, 0, 64, 127
4, 46080, Control_c, 0, 64, 0
4, 49954, Control_c, 0, 64, 127
4, 50170, Control_c, 0, 64, 0
4, 50220, Control_c, 0, 64, 127
4, 50407, Note_on_c, 0, 55, 40
4, 50411, Control_c, 0, 64, 0
4, 50640, Note_on_c, 0, 54, 35
4, 50647, Note_on_c, 0, 55, 0
4, 50880, Note_on_c, 0, 54, 0
4, 54020, Control_c, 0, 64, 127
4, 54247, Control_c, 0, 64, 0
4, 54275, Control_c, 0, 64, 127
4, 54720, Control_c, 0, 64, 0
4, 54833, Control_c, 0, 64, 127
4, 55212, Control_c, 0, 64, 0
4, 55285, Control_c, 0, 64, 127
4, 55680, Control_c, 0, 64, 0
4, 55728, Control_c, 0, 64, 127
4, 56175, Control_c, 0, 64, 0
4, 56223, Control_c, 0, 64, 127
4, 56645, Control_c, 0, 64, 0
4, 56688, Control_c, 0, 64, 127
4, 57130, Control_c, 0, 64, 0
4, 57177, Control_c, 0, 64, 127
4, 57600, Note_on_c, 0, 59, 38
4, 57600, Note_on_c, 0, 55, 38
4, 57602, Control_c, 0, 64, 0
4, 58080, Note_on_c, 0, 55, 0
4, 58080, Note_on_c, 0, 59, 0
4, 58080, Note_on_c, 0, 51, 51
4, 58080, Note_on_c, 0, 63, 61
4, 58160, Control_c, 0, 64, 127
4, 58308, Note_on_c, 0, 63, 0
4, 58308, Note_on_c, 0, 51, 0
4, 58320, Note_on_c, 0, 51, 48
4, 58320, Note_on_c, 0, 63, 57
4, 58548, Note_on_c, 0, 63, 0
4, 58548, Note_on_c, 0, 51, 0
4, 58560, Note_on_c, 0, 51, 51
4, 58560, Note_on_c, 0, 63, 61
4, 58934, Control_c, 0, 64, 0
4, 58992, Note_on_c, 0, 63, 0
4, 58992, Note_on_c, 0, 51, 0
4, 59040, Note_on_c, 0, 69, 37
4, 59040, Note_on_c, 0, 62, 31
4, 59232, Note_on_c, 0, 62, 0
4, 59232, Note_on_c, 0, 69, 0
4, 59280, Note_on_c, 0, 69, 35
4, 59280, Note_on_c, 0, 62, 29
4, 59472, Note_on_c, 0, 62, 0
4, 59472, Note_on_c, 0, 69, 0
4, 59520, Note_on_c, 0, 62, 31
4, 59520, Note_on_c, 0, 69, 37
4, 60000, Note_on_c, 0, 69, 0
4, 60000, Note_on_c, 0, 62, 0
4, 60247, Control_c, 0, 64, 127
4, 60480, Note_on_c, 0, 55, 34
4, 60498, Control_c, 0, 64, 0
4, 60539, Control_c, 0, 64, 127
4, 60600, Note_on_c, 0, 55, 0
4, 60600, Note_on_c, 0, 59, 29
4, 60720, Note_on_c, 0, 59, 0
4, 60720, Note_on_c, 0, 62, 29
4, 60840, Note_on_c, 0, 62, 0
4, 60840, Note_on_c, 0, 59, 29
4, 60960, Note_on_c, 0, 59, 0
4, 60960, Note_on_c, 0, 55, 34
4, 60968, Control_c, 0, 64, 0
4, 60981, Control_c, 0, 64, 127
4, 61080, Note_on_c, 0, 55, 0
4, 61080, Note_on_c, 0, 59, 30
4, 61200, Note_on_c, 0, 59, 0
4, 61200, Note_on_c, 0, 62, 30
4, 61320, Note_on_c, 0, 62, 0
4, 61320, Note_on_c, 0, 59, 30
4, 61440, Note_on_c, 0, 59, 0
4, 61440, Note_on_c, 0, 55, 34
4, 61458, Control_c, 0, 64, 0
4, 61493, Control_c, 0, 64, 127
4, 61560, Note_on_c, 0, 55, 0
4, 61560, Note_on_c, 0, 57, 31
4, 61680, Note_on_c, 0, 57, 0
4, 61680, Note_on_c, 0, 64, 31
4, 61800, Note_on_c, 0, 64, 0
4, 61800, Note_on_c, 0, 57, 31
4, 61920, Note_on_c, 0, 57, 0
4, 61920, Note_on_c, 0, 55, 34
4, 61920, Control_c, 0, 64, 0
4, 62040, Note_on_c, 0, 55, 0
4, 62040, Note_on_c, 0, 57, 30
4, 62160, Note_on_c, 0, 57, 0
4, 62160, Note_on_c, 0, 64, 30
4, 62280, Note_on_c, 0, 64, 0
4, 62280, Note_on_c, 0, 57, 30
4, 62400, Note_on_c, 0, 57, 0
4, 62400, Note_on_c, 0, 54, 34
4, 62411, Control_c, 0, 64, 127
4, 62520, Note_on_c, 0, 54, 0
4, 62520, Note_on_c, 0, 57, 31
4, 62640, Note_on_c, 0, 57, 0
4, 62640, Note_on_c, 0, 62, 31
4, 62760, Note_on_c, 0, 62, 0
4, 62760, Note_on_c, 0, 57, 31
4, 62880, Note_on_c, 0, 57, 0
4, 62880, Note_on_c, 0, 52, 34
4, 62890, Control_c, 0, 64, 0
4, 62930, Control_c, 0, 64, 127
4, 63000, Note_on_c, 0, 52, 0
4, 63000, Note_on_c, 0, 57, 31
4, 63120, Note_on_c, 0, 57, 0
4, 63120, Note_on_c, 0, 60, 31
4, 63240, Note_on_c, 0, 60, 0
4, 63240, Note_on_c, 0, 57, 28
4, 63360, Note_on_c, 0, 57, 0
4, 63360, Note_on_c, 0, 51, 31
4, 63360, Control_c, 0, 64, 0
4, 63411, Control_c, 0, 64, 127
4, 63480, Note_on_c, 0, 51, 0
4, 63480, Note_on_c, 0, 54, 32
4, 63600, Note_on_c, 0, 54, 0
4, 63600, Note_on_c, 0, 57, 32
4, 63720, Note_on_c, 0, 57, 0
4, 63720, Note_on_c, 0, 51, 32
4, 63840, Note_on_c, 0, 51, 0
4, 63840, Note_on_c, 0, 52, 34
4, 63856, Control_c, 0, 64, 0
4, 63897, Control_c, 0, 64, 127
4, 63960, Note_on_c, 0, 52, 0
4, 63960, Note_on_c, 0, 59, 32
4, 64068, Control_c, 0, 64, 0
4, 64080, Note_on_c, 0, 59, 0
4, 64080, Note_on_c, 0, 50, 32
4, 64200, Note_on_c, 0, 50, 0
4, 64200, Note_on_c, 0, 55, 32
4, 64320, Note_on_c, 0, 55, 0
4, 64320, Note_on_c, 0, 49, 34
4, 64327, Control_c, 0, 64, 127
4, 64440, Note_on_c, 0, 49, 0
4, 64440, Note_on_c, 0, 52, 27
4, 64560, Note_on_c, 0, 52, 0
4, 64560, Note_on_c, 0, 55, 31
4, 64680, Note_on_c, 0, 55, 0
4, 64680, Note_on_c, 0, 52, 28
4, 64800, Note_on_c, 0, 52, 0
4, 64800, Note_on_c, 0, 49, 34
4, 64811, Control_c, 0, 64, 0
4, 64863, Control_c, 0, 64, 127
4, 64920, Note_on_c, 0, 49, 0
4, 64920, Note_on_c, 0, 52, 29
4, 65040, Note_on_c, 0, 52, 0
4, 65040, Note_on_c, 0, 55, 32
4, 65160, Note_on_c, 0, 55, 0
4, 65160, Note_on_c, 0, 52, 29
4, 65280, Note_on_c, 0, 52, 0
4, 65280, Note_on_c, 0, 48, 34
4, 65280, Control_c, 0, 64, 0
4, 65319, Control_c, 0, 64, 127
4, 65400, Note_on_c, 0, 48, 0
4, 65400, Note_on_c, 0, 54, 26
4, 65520, Note_on_c, 0, 54, 0
4, 65520, Note_on_c, 0, 57, 29
4, 65640, Note_on_c, 0, 57, 0
4, 65640, Note_on_c, 0, 48, 25
4, 65760, Note_on_c, 0, 48, 0
4, 65760, Note_on_c, 0, 47, 34
4, 65771, Control_c, 0, 64, 0
4, 65806, Control_c, 0, 64, 127
4, 65880, Note_on_c, 0, 47, 0
4, 65880, Note_on_c, 0, 55, 26
4, 66000, Note_on_c, 0, 55, 0
4, 66000, Note_on_c, 0, 52, 29
4, 66120, Note_on_c, 0, 52, 0
4, 66120, Note_on_c, 0, 50, 26
4, 66240, Note_on_c, 0, 50, 0
4, 66240, Note_on_c, 0, 52, 33
4, 66240, Note_on_c, 0, 48, 33
4, 66240, Control_c, 0, 64, 0
4, 66960, Note_on_c, 0, 48, 0
4, 66960, Note_on_c, 0, 52, 0
4, 66960, Note_on_c, 0, 57, 32
4, 66960, Note_on_c, 0, 49, 32
4, 67200, Note_on_c, 0, 49, 0
4, 67200, Note_on_c, 0, 57, 0
4, 67200, Note_on_c, 0, 57, 35
4, 67200, Note_on_c, 0, 50, 35
4, 67680, Note_on_c, 0, 50, 0
4, 67680, Note_on_c, 0, 57, 0
4, 68160, Note_on_c, 0, 67, 36
4, 68164, Control_c, 0, 64, 127
4, 68280, Note_on_c, 0, 67, 0
4, 68280, Note_on_c, 0, 62, 29
4, 68400, Note_on_c, 0, 62, 0
4, 68400, Note_on_c, 0, 67, 33
4, 68410, Control_c, 0, 64, 0
4, 68428, Control_c, 0, 64, 127
4, 68520, Note_on_c, 0, 67, 0
4, 68520, Note_on_c, 0, 62, 29
4, 68640, Note_on_c, 0, 62, 0
4, 68640, Note_on_c, 0, 66, 36
4, 68652, Control_c, 0, 64, 0
4, 68688, Control_c, 0, 64, 127
4, 68760, Note_on_c, 0, 66, 0
4, 68760, Note_on_c, 0, 62, 28
4, 68880, Note_on_c, 0, 62, 0
4, 68880, Note_on_c, 0, 67, 32
4, 68883, Control_c, 0, 64, 0
4, 68916, Control_c, 0, 64, 127
4, 69000, Note_on_c, 0, 67, 0
4, 69000, Note_on_c, 0, 62, 28
4, 69120, Note_on_c, 0, 62, 0
4, 69120, Note_on_c, 0, 69, 36
4, 69134, Control_c, 0, 64, 0
4, 69200, Control_c, 0, 64, 127
4, 69240, Note_on_c, 0, 69, 0
4, 69240, Note_on_c, 0, 62, 28
4, 69360, Note_on_c, 0, 62, 0
4, 69360, Note_on_c, 0, 66, 31
4, 69366, Control_c, 0, 64, 0
4, 69406, Control_c, 0, 64, 127
4, 69480, Note_on_c, 0, 66, 0
4, 69480, Note_on_c, 0, 62, 28
4, 69600, Note_on_c, 0, 62, 0
4, 69600, Note_on_c, 0, 67, 36
4, 69617, Control_c, 0, 64, 0
4, 69697, Control_c, 0, 64, 127
4, 69720, Note_on_c, 0, 67, 0
4, 69720, Note_on_c, 0, 62, 29
4, 69840, Note_on_c, 0, 62, 0
4, 69840, Note_on_c, 0, 67, 33
4, 69847, Control_c, 0, 64, 0
4, 69915, Control_c, 0, 64, 127
4, 69960, Note_on_c, 0, 67, 0
4, 69960, Note_on_c, 0, 62, 29
4, 70080, Note_on_c, 0, 62, 0
4, 70080, Note_on_c, 0, 55, 38
4, 70080, Note_on_c, 0, 59, 45
4, 70080, Control_c, 0, 64, 0
4, 70121, Control_c, 0, 64, 127
4, 70260, Note_on_c, 0, 59, 0
4, 70260, Note_on_c, 0, 55, 0
4, 70260, Note_on_c, 0, 62, 37
4, 70320, Note_on_c, 0, 62, 0
4, 70320, Note_on_c, 0, 57, 38
4, 70320, Note_on_c, 0, 60, 45
4, 70324, Control_c, 0, 64, 0
4, 70352, Control_c, 0, 64, 127
4, 70500, Note_on_c, 0, 60, 0
4, 70500, Note_on_c, 0, 57, 0
4, 70500, Note_on_c, 0, 55, 35
4, 70500, Note_on_c, 0, 59, 42
4, 70560, Note_on_c, 0, 59, 0
4, 70560, Note_on_c, 0, 55, 0
4, 70560, Note_on_c, 0, 54, 38
4, 70560, Note_on_c, 0, 57, 45
4, 70569, Control_c, 0, 64, 0
4, 70604, Control_c, 0, 64, 127
4, 70800, Note_on_c, 0, 57, 0
4, 70800, Note_on_c, 0, 54, 0
4, 70800, Note_on_c, 0, 55, 34
4, 70800, Note_on_c, 0, 59, 41
4, 70814, Control_c, 0, 64, 0
4, 70854, Control_c, 0, 64, 127
4, 71040, Note_on_c, 0, 59, 0
4, 71040, Note_on_c, 0, 55, 0
4, 71040, Note_on_c, 0, 57, 38
4, 71040, Note_on_c, 0, 60, 45
4, 71051, Control_c, 0, 64, 0
4, 71089, Control_c, 0, 64, 127
4, 71280, Note_on_c, 0, 60, 0
4, 71280, Note_on_c, 0, 57, 0
4, 71280, Note_on_c, 0, 59, 34
4, 71280, Note_on_c, 0, 62, 41
4, 71292, Control_c, 0, 64, 0
4, 71320, Control_c, 0, 64, 127
4, 71520, Note_on_c, 0, 62, 0
4, 71520, Note_on_c, 0, 59, 0
4, 71520, Note_on_c, 0, 57, 35
4, 71520, Note_on_c, 0, 60, 42
4, 71531, Control_c, 0, 64, 0
4, 71563, Control_c, 0, 64, 127
4, 71760, Note_on_c, 0, 60, 0
4, 71760, Note_on_c, 0, 57, 0
4, 71760, Note_on_c, 0, 55, 38
4, 71760, Note_on_c, 0, 59, 45
4, 71771, Control_c, 0, 64, 0
4, 71820, Control_c, 0, 64, 127
4, 71983, Control_c, 0, 64, 0
4, 72000, Note_on_c, 0, 59, 0
4, 72000, Note_on_c, 0, 55, 0
4, 72000, Note_on_c, 0, 59, 59
4, 72000, Note_on_c, 0, 62, 59
4, 72240, Note_on_c, 0, 62, 0
4, 72240, Note_on_c, 0, 59, 0
4, 72240, Note_on_c, 0, 57, 42
4, 72240, Note_on_c, 0, 60, 42
4, 72240, Note_on_c, 0, 63, 51
4, 72480, Note_on_c, 0, 63, 0
4, 72480, Note_on_c, 0, 60, 0
4, 72480, Note_on_c, 0, 57, 0
4, 72480, Note_on_c, 0, 55, 44
4, 72480, Note_on_c, 0, 59, 53
4, 72720, Note_on_c, 0, 59, 0
4, 72720, Note_on_c, 0, 55, 0
4, 72960, Note_on_c, 0, 55, 29
4, 72960, Note_on_c, 0, 59, 35
4, 73200, Note_on_c, 0, 59, 0
4, 73200, Note_on_c, 0, 55, 0
4, 73200, Note_on_c, 0, 53, 29
4, 73200, Note_on_c, 0, 55, 29
4, 73200, Note_on_c, 0, 59, 35
4, 73440, Note_on_c, 0, 59, 0
4, 73440, Note_on_c, 0, 55, 0
4, 73440, Note_on_c, 0, 53, 0
4, 73440, Note_on_c, 0, 52, 29
4, 73440, Note_on_c, 0, 55, 35
4, 73680, Note_on_c, 0, 55, 0
4, 73680, Note_on_c, 0, 52, 0
4, 73920, Note_on_c, 0, 52, 59
4, 73920, Note_on_c, 0, 55, 59
4, 74160, Note_on_c, 0, 55, 0
4, 74160, Note_on_c, 0, 52, 0
4, 74160, Note_on_c, 0, 50, 42
4, 74160, Note_on_c, 0, 53, 42
4, 74160, Note_on_c, 0, 56, 51
4, 74400, Note_on_c, 0, 56, 0
4, 74400, Note_on_c, 0, 53, 0
4, 74400, Note_on_c, 0, 50, 0
4, 74400, Note_on_c, 0, 48, 44
4, 74400, Note_on_c, 0, 52, 44
4, 74400, Note_on_c, 0, 57, 53
4, 74880, Note_on_c, 0, 57, 0
4, 74880, Note_on_c, 0, 52, 0
4, 74880, Note_on_c, 0, 48, 0
4, 74880, Note_on_c, 0, 59, 40
4, 74880, Note_on_c, 0, 50, 40
4, 75120, Note_on_c, 0, 59, 0
4, 75120, Note_on_c, 0, 54, 38
4, 75358, Note_on_c, 0, 54, 0
4, 75360, Note_on_c, 0, 50, 0
4, 75360, Note_on_c, 0, 54, 40
4, 75360, Note_on_c, 0, 43, 40
4, 75600, Note_on_c, 0, 54, 0
4, 75600, Note_on_c, 0, 55, 38
4, 75840, Note_on_c, 0, 55, 0
4, 75840, Note_on_c, 0, 43, 0
4, 75840, Note_on_c, 0, 59, 53
4, 75840, Note_on_c, 0, 62, 53
4, 76080, Note_on_c, 0, 62, 0
4, 76080, Note_on_c, 0, 59, 0
4, 76080, Note_on_c, 0, 57, 37
4, 76080, Note_on_c, 0, 60, 37
4, 76080, Note_on_c, 0, 63, 45
4, 76080, Control_c, 0, 64, 127
4, 76320, Note_on_c, 0, 63, 0
4, 76320, Note_on_c, 0, 60, 0
4, 76320, Note_on_c, 0, 57, 0
4, 76320, Note_on_c, 0, 64, 47
4, 76320, Note_on_c, 0, 55, 39
4, 76320, Note_on_c, 0, 59, 47
4, 76320, Control_c, 0, 64, 0
4, 76560, Note_on_c, 0, 59, 0
4, 76560, Note_on_c, 0, 55, 0
4, 76560, Note_on_c, 0, 64, 0
4, 76800, Note_on_c, 0, 67, 29
4, 76800, Note_on_c, 0, 71, 35
4, 77040, Note_on_c, 0, 71, 0
4, 77040, Note_on_c, 0, 67, 0
4, 77040, Note_on_c, 0, 65, 29
4, 77040, Note_on_c, 0, 67, 29
4, 77040, Note_on_c, 0, 71, 35
4, 77043, Control_c, 0, 64, 127
4, 77280, Note_on_c, 0, 71, 0
4, 77280, Note_on_c, 0, 67, 0
4, 77280, Note_on_c, 0, 65, 0
4, 77280, Note_on_c, 0, 72, 35
4, 77280, Note_on_c, 0, 64, 29
4, 77280, Note_on_c, 0, 67, 35
4, 77289, Control_c, 0, 64, 0
4, 77520, Note_on_c, 0, 67, 0
4, 77520, Note_on_c, 0, 64, 0
4, 77520, Note_on_c, 0, 72, 0
4, 77760, Note_on_c, 0, 64, 59
4, 77760, Note_on_c, 0, 67, 59
4, 78000, Note_on_c, 0, 67, 0
4, 78000, Note_on_c, 0, 64, 0
4, 78000, Note_on_c, 0, 62, 42
4, 78000, Note_on_c, 0, 65, 42
4, 78000, Note_on_c, 0, 68, 51
4, 78240, Note_on_c, 0, 68, 0
4, 78240, Note_on_c, 0, 65, 0
4, 78240, Note_on_c, 0, 62, 0
4, 78240, Note_on_c, 0, 60, 44
4, 78240, Note_on_c, 0, 64, 44
4, 78240, Note_on_c, 0, 69, 53
4, 78720, Note_on_c, 0, 69, 0
4, 78720, Note_on_c, 0, 64, 0
4, 78720, Note_on_c, 0, 60, 0
4, 78720, Note_on_c, 0, 67, 34
4, 78720, Note_on_c, 0, 71, 40
4, 78720, Note_on_c, 0, 62, 34
4, 78960, Note_on_c, 0, 62, 0
4, 78960, Note_on_c, 0, 71, 0
4, 78960, Note_on_c, 0, 67, 0
4, 79200, Note_on_c, 0, 67, 32
4, 79200, Note_on_c, 0, 71, 37
4, 79200, Note_on_c, 0, 62, 32
4, 79440, Note_on_c, 0, 62, 0
4, 79440, Note_on_c, 0, 71, 0
4, 79440, Note_on_c, 0, 67, 0
4, 79680, Note_on_c, 0, 62, 32
4, 79680, Note_on_c, 0, 67, 32
4, 79680, Note_on_c, 0, 72, 37
4, 79920, Note_on_c, 0, 72, 0
4, 79920, Note_on_c, 0, 67, 0
4, 79920, Note_on_c, 0, 62, 0
4, 80160, Note_on_c, 0, 66, 28
4, 80160, Note_on_c, 0, 62, 28
4, 80160, Note_on_c, 0, 72, 34
4, 80400, Note_on_c, 0, 72, 0
4, 80400, Note_on_c, 0, 62, 0
4, 80400, Note_on_c, 0, 66, 0
4, 80640, Note_on_c, 0, 67, 28
4, 80640, Note_on_c, 0, 71, 34
4, 80640, Control_c, 0, 64, 0
4, 81120, Note_on_c, 0, 71, 0
4, 81120, Note_on_c, 0, 67, 0
4, 81600, Note_on_c, 0, 62, 32
4, 81600, Note_on_c, 0, 55, 39
4, 81840, Note_on_c, 0, 55, 0
4, 81840, Note_on_c, 0, 57, 35
4, 82020, Note_on_c, 0, 57, 0
4, 82020, Note_on_c, 0, 55, 30
4, 82080, Note_on_c, 0, 55, 0
4, 82080, Note_on_c, 0, 62, 0
4, 82080, Note_on_c, 0, 62, 32
4, 82080, Note_on_c, 0, 54, 36
4, 82320, Note_on_c, 0, 54, 0
4, 82320, Note_on_c, 0, 55, 32
4, 82560, Note_on_c, 0, 55, 0
4, 82560, Note_on_c, 0, 62, 0
4, 82560, Note_on_c, 0, 62, 38
4, 82560, Note_on_c, 0, 57, 40
4, 82800, Note_on_c, 0, 57, 0
4, 82800, Note_on_c, 0, 54, 33
4, 83040, Note_on_c, 0, 54, 0
4, 83040, Note_on_c, 0, 62, 0
4, 83040, Note_on_c, 0, 62, 38
4, 83040, Note_on_c, 0, 55, 39
4, 83520, Note_on_c, 0, 55, 0
4, 83520, Note_on_c, 0, 62, 0
4, 83520, Note_on_c, 0, 52, 49
4, 83520, Note_on_c, 0, 64, 49
4, 83640, Note_on_c, 0, 64, 0
4, 83640, Note_on_c, 0, 52, 0
4, 83760, Note_on_c, 0, 50, 44
4, 83760, Note_on_c, 0, 62, 44
4, 83880, Note_on_c, 0, 62, 0
4, 83880, Note_on_c, 0, 50, 0
4, 84000, Note_on_c, 0, 60, 51
4, 84000, Note_on_c, 0, 48, 51
4, 84120, Note_on_c, 0, 48, 0
4, 84120, Note_on_c, 0, 60, 0
4, 84360, Note_on_c, 0, 59, 37
4, 84480, Note_on_c, 0, 59, 0
4, 84480, Note_on_c, 0, 62, 38
4, 84480, Note_on_c, 0, 54, 40
4, 84720, Note_on_c, 0, 54, 0
4, 84720, Note_on_c, 0, 55, 35
4, 84960, Note_on_c, 0, 55, 0
4, 84960, Note_on_c, 0, 62, 0
4, 84960, Note_on_c, 0, 62, 38
4, 84960, Note_on_c, 0, 50, 39
4, 85440, Note_on_c, 0, 50, 0
4, 85440, Note_on_c, 0, 62, 0
4, 85440, Note_on_c, 0, 62, 39
4, 85440, Note_on_c, 0, 55, 39
4, 85680, Note_on_c, 0, 55, 0
4, 85680, Note_on_c, 0, 57, 35
4, 85800, Note_on_c, 0, 57, 0
4, 85800, Note_on_c, 0, 55, 30
4, 85920, Note_on_c, 0, 55, 0
4, 85920, Note_on_c, 0, 62, 0
4, 85920, Note_on_c, 0, 62, 30
4, 85920, Note_on_c, 0, 54, 36
4, 86160, Note_on_c, 0, 54, 0
4, 86160, Note_on_c, 0, 62, 0
4, 86160, Note_on_c, 0, 62, 30
4, 86160, Note_on_c, 0, 55, 32
4, 86400, Note_on_c, 0, 55, 0
4, 86400, Note_on_c, 0, 62, 0
4, 86400, Note_on_c, 0, 62, 38
4, 86400, Note_on_c, 0, 57, 40
4, 86640, Note_on_c, 0, 57, 0
4, 86640, Note_on_c, 0, 62, 0
4, 86640, Note_on_c, 0, 62, 30
4, 86640, Note_on_c, 0, 54, 33
4, 86880, Note_on_c, 0, 54, 0
4, 86880, Note_on_c, 0, 62, 0
4, 86880, Note_on_c, 0, 62, 38
4, 86880, Note_on_c, 0, 55, 39
4, 87360, Note_on_c, 0, 55, 0
4, 87360, Note_on_c, 0, 62, 0
4, 87360, Note_on_c, 0, 52, 49
4, 87360, Note_on_c, 0, 64, 49
4, 87480, Note_on_c, 0, 64, 0
4, 87480, Note_on_c, 0, 52, 0
4, 87600, Note_on_c, 0, 50, 44
4, 87600, Note_on_c, 0, 62, 44
4, 87720, Note_on_c, 0, 62, 0
4, 87720, Note_on_c, 0, 50, 0
4, 87840, Note_on_c, 0, 60, 51
4, 87840, Note_on_c, 0, 48, 51
4, 88080, Note_on_c, 0, 48, 0
4, 88080, Note_on_c, 0, 60, 0
4, 88200, Note_on_c, 0, 64, 37
4, 88200, Note_on_c, 0, 60, 37
4, 88320, Note_on_c, 0, 60, 0
4, 88320, Note_on_c, 0, 64, 0
4, 88320, Note_on_c, 0, 62, 40
4, 88320, Note_on_c, 0, 67, 40
4, 88560, Note_on_c, 0, 67, 0
4, 88560, Note_on_c, 0, 66, 35
4, 88580, Control_c, 0, 64, 127
4, 88800, Note_on_c, 0, 66, 0
4, 88800, Note_on_c, 0, 62, 0
4, 88800, Note_on_c, 0, 55, 39
4, 88807, Control_c, 0, 64, 0
4, 88835, Control_c, 0, 64, 127
4, 88920, Note_on_c, 0, 59, 28
4, 89040, Note_on_c, 0, 59, 0
4, 89040, Note_on_c, 0, 62, 32
4, 89160, Note_on_c, 0, 62, 0
4, 89160, Note_on_c, 0, 59, 27
4, 89280, Note_on_c, 0, 59, 0
4, 89280, Note_on_c, 0, 55, 0
4, 89280, Note_on_c, 0, 48, 39
4, 89280, Control_c, 0, 64, 0
4, 89393, Control_c, 0, 64, 127
4, 89400, Note_on_c, 0, 52, 27
4, 89520, Note_on_c, 0, 52, 0
4, 89520, Note_on_c, 0, 57, 32
4, 89640, Note_on_c, 0, 57, 0
4, 89640, Note_on_c, 0, 52, 28
4, 89760, Note_on_c, 0, 52, 0
4, 89760, Note_on_c, 0, 48, 0
4, 89760, Note_on_c, 0, 50, 39
4, 89772, Control_c, 0, 64, 0
4, 89845, Control_c, 0, 64, 127
4, 89880, Note_on_c, 0, 60, 29
4, 90000, Note_on_c, 0, 60, 0
4, 90000, Note_on_c, 0, 57, 32
4, 90120, Note_on_c, 0, 57, 0
4, 90120, Note_on_c, 0, 60, 29
4, 90240, Note_on_c, 0, 60, 0
4, 90240, Note_on_c, 0, 50, 0
4, 90240, Note_on_c, 0, 55, 39
4, 90240, Control_c, 0, 64, 0
4, 90288, Control_c, 0, 64, 127
4, 90360, Note_on_c, 0, 59, 29
4, 90480, Note_on_c, 0, 59, 0
4, 90480, Note_on_c, 0, 62, 32
4, 90600, Note_on_c, 0, 62, 0
4, 90600, Note_on_c, 0, 59, 29
4, 90720, Note_on_c, 0, 59, 0
4, 90720, Note_on_c, 0, 55, 0
4, 90720, Note_on_c, 0, 52, 39
4, 90735, Control_c, 0, 64, 0
4, 90783, Control_c, 0, 64, 127
4, 90840, Note_on_c, 0, 55, 29
4, 90960, Note_on_c, 0, 55, 0
4, 90960, Note_on_c, 0, 59, 32
4, 91080, Note_on_c, 0, 59, 0
4, 91080, Note_on_c, 0, 55, 30
4, 91200, Note_on_c, 0, 55, 0
4, 91200, Note_on_c, 0, 52, 0
4, 91200, Note_on_c, 0, 48, 39
4, 91205, Control_c, 0, 64, 0
4, 91248, Control_c, 0, 64, 127
4, 91320, Note_on_c, 0, 52, 29
4, 91440, Note_on_c, 0, 52, 0
4, 91440, Note_on_c, 0, 57, 32
4, 91560, Note_on_c, 0, 57, 0
4, 91560, Note_on_c, 0, 52, 29
4, 91680, Note_on_c, 0, 52, 0
4, 91680, Note_on_c, 0, 48, 0
4, 91680, Note_on_c, 0, 50, 39
4, 91690, Control_c, 0, 64, 0
4, 91737, Control_c, 0, 64, 127
4, 91800, Note_on_c, 0, 60, 30
4, 91920, Note_on_c, 0, 60, 0
4, 91920, Note_on_c, 0, 57, 32
4, 92040, Note_on_c, 0, 57, 0
4, 92040, Note_on_c, 0, 60, 29
4, 92160, Note_on_c, 0, 60, 0
4, 92160, Note_on_c, 0, 50, 0
4, 92160, Note_on_c, 0, 43, 45
4, 92162, Control_c, 0, 64, 0
4, 92280, Note_on_c, 0, 55, 37
4, 92280, Control_c, 0, 64, 127
4, 92400, Note_on_c, 0, 55, 0
4, 92400, Note_on_c, 0, 59, 37
4, 92520, Note_on_c, 0, 59, 0
4, 92520, Note_on_c, 0, 62, 37
4, 92640, Note_on_c, 0, 62, 0
4, 92640, Note_on_c, 0, 43, 0
4, 92640, Note_on_c, 0, 40, 49
4, 92652, Control_c, 0, 64, 0
4, 92760, Note_on_c, 0, 52, 39
4, 92767, Control_c, 0, 64, 127
4, 92880, Note_on_c, 0, 52, 0
4, 92880, Note_on_c, 0, 55, 39
4, 93000, Note_on_c, 0, 55, 0
4, 93000, Note_on_c, 0, 59, 39
4, 93120, Note_on_c, 0, 59, 0
4, 93120, Note_on_c, 0, 40, 0
4, 93120, Note_on_c, 0, 36, 48
4, 93125, Control_c, 0, 64, 0
4, 93226, Control_c, 0, 64, 127
4, 93240, Note_on_c, 0, 48, 38
4, 93360, Note_on_c, 0, 48, 0
4, 93360, Note_on_c, 0, 52, 38
4, 93480, Note_on_c, 0, 52, 0
4, 93480, Note_on_c, 0, 57, 38
4, 93600, Note_on_c, 0, 57, 0
4, 93600, Note_on_c, 0, 36, 0
4, 93600, Note_on_c, 0, 38, 50
4, 93608, Control_c, 0, 64, 0
4, 93685, Control_c, 0, 64, 127
4, 93720, Note_on_c, 0, 50, 42
4, 93840, Note_on_c, 0, 50, 0
4, 93840, Note_on_c, 0, 57, 42
4, 93960, Note_on_c, 0, 57, 0
4, 93960, Note_on_c, 0, 60, 42
4, 94080, Note_on_c, 0, 60, 0
4, 94080, Note_on_c, 0, 38, 0
4, 94080, Note_on_c, 0, 35, 56
4, 94085, Control_c, 0, 64, 0
4, 94151, Control_c, 0, 64, 127
4, 94200, Note_on_c, 0, 47, 42
4, 94320, Note_on_c, 0, 47, 0
4, 94320, Note_on_c, 0, 50, 46
4, 94440, Note_on_c, 0, 50, 0
4, 94440, Note_on_c, 0, 55, 42
4, 94560, Note_on_c, 0, 55, 0
4, 94560, Note_on_c, 0, 35, 0
4, 94560, Note_on_c, 0, 40, 52
4, 94571, Control_c, 0, 64, 0
4, 94659, Control_c, 0, 64, 127
4, 94680, Note_on_c, 0, 52, 41
4, 94800, Note_on_c, 0, 52, 0
4, 94800, Note_on_c, 0, 55, 41
4, 94920, Note_on_c, 0, 55, 0
4, 94920, Note_on_c, 0, 59, 41
4, 95040, Note_on_c, 0, 59, 0
4, 95040, Note_on_c, 0, 40, 0
4, 95040, Note_on_c, 0, 36, 48
4, 95047, Control_c, 0, 64, 0
4, 95118, Control_c, 0, 64, 127
4, 95160, Note_on_c, 0, 48, 38
4, 95280, Note_on_c, 0, 48, 0
4, 95280, Note_on_c, 0, 52, 38
4, 95400, Note_on_c, 0, 52, 0
4, 95400, Note_on_c, 0, 57, 38
4, 95520, Note_on_c, 0, 57, 0
4, 95520, Note_on_c, 0, 36, 0
4, 95520, Note_on_c, 0, 38, 50
4, 95527, Control_c, 0, 64, 0
4, 95605, Control_c, 0, 64, 127
4, 95640, Note_on_c, 0, 50, 38
4, 95760, Note_on_c, 0, 50, 0
4, 95760, Note_on_c, 0, 57, 42
4, 95880, Note_on_c, 0, 57, 0
4, 95880, Note_on_c, 0, 60, 37
4, 96000, Note_on_c, 0, 60, 0
4, 96000, Note_on_c, 0, 38, 0
4, 96000, Note_on_c, 0, 55, 52
4, 96000, Control_c, 0, 64, 0
4, 96089, Control_c, 0, 64, 127
4, 96120, Note_on_c, 0, 55, 0
4, 96120, Note_on_c, 0, 62, 34
4, 96120, Note_on_c, 0, 59, 28
4, 96234, Note_on_c, 0, 59, 0
4, 96234, Note_on_c, 0, 62, 0
4, 96240, Note_on_c, 0, 62, 34
4, 96240, Note_on_c, 0, 59, 28
4, 96354, Note_on_c, 0, 59, 0
4, 96354, Note_on_c, 0, 62, 0
4, 96360, Note_on_c, 0, 62, 34
4, 96360, Note_on_c, 0, 59, 28
4, 96474, Note_on_c, 0, 59, 0
4, 96474, Note_on_c, 0, 62, 0
4, 96480, Note_on_c, 0, 50, 36
4, 96486, Control_c, 0, 64, 0
4, 96543, Control_c, 0, 64, 127
4, 96600, Note_on_c, 0, 50, 0
4, 96600, Note_on_c, 0, 62, 30
4, 96600, Note_on_c, 0, 60, 25
4, 96714, Note_on_c, 0, 60, 0
4, 96714, Note_on_c, 0, 62, 0
4, 96720, Note_on_c, 0, 62, 30
4, 96720, Note_on_c, 0, 60, 25
4, 96834, Note_on_c, 0, 60, 0
4, 96834, Note_on_c, 0, 62, 0
4, 96840, Note_on_c, 0, 62, 30
4, 96840, Note_on_c, 0, 60, 25
4, 96954, Note_on_c, 0, 60, 0
4, 96954, Note_on_c, 0, 62, 0
4, 96960, Note_on_c, 0, 55, 37
4, 96968, Control_c, 0, 64, 0
4, 97030, Control_c, 0, 64, 127
4, 97080, Note_on_c, 0, 55, 0
4, 97080, Note_on_c, 0, 62, 29
4, 97080, Note_on_c, 0, 59, 24
4, 97194, Note_on_c, 0, 59, 0
4, 97194, Note_on_c, 0, 62, 0
4, 97200, Note_on_c, 0, 62, 29
4, 97200, Note_on_c, 0, 59, 24
4, 97314, Note_on_c, 0, 59, 0
4, 97314, Note_on_c, 0, 62, 0
4, 97320, Note_on_c, 0, 62, 29
4, 97320, Note_on_c, 0, 59, 24
4, 97434, Note_on_c, 0, 59, 0
4, 97434, Note_on_c, 0, 62, 0
4, 97440, Note_on_c, 0, 50, 36
4, 97452, Control_c, 0, 64, 0
4, 97510, Control_c, 0, 64, 127
4, 97560, Note_on_c, 0, 50, 0
4, 97560, Note_on_c, 0, 62, 30
4, 97560, Note_on_c, 0, 60, 25
4, 97674, Note_on_c, 0, 60, 0
4, 97674, Note_on_c, 0, 62, 0
4, 97680, Note_on_c, 0, 62, 30
4, 97680, Note_on_c, 0, 60, 25
4, 97794, Note_on_c, 0, 60, 0
4, 97794, Note_on_c, 0, 62, 0
4, 97800, Note_on_c, 0, 62, 30
4, 97800, Note_on_c, 0, 60, 25
4, 97914, Note_on_c, 0, 60, 0
4, 97914, Note_on_c, 0, 62, 0
4, 97920, Note_on_c, 0, 62, 33
4, 97920, Note_on_c, 0, 59, 28
4, 97920, Note_on_c, 0, 55, 28
4, 97926, Control_c, 0, 64, 0
4, 97991, Control_c, 0, 64, 127
4, 98160, Note_on_c, 0, 55, 0
4, 98160, Note_on_c, 0, 59, 0
4, 98160, Note_on_c, 0, 62, 0
4, 98160, Note_on_c, 0, 50, 28
4, 98160, Note_on_c, 0, 54, 28
4, 98160, Note_on_c, 0, 60, 34
4, 98177, Control_c, 0, 64, 0
4, 98400, Note_on_c, 0, 60, 0
4, 98400, Note_on_c, 0, 54, 0
4, 98400, Note_on_c, 0, 50, 0
4, 98400, Note_on_c, 0, 59, 29
4, 98400, Note_on_c, 0, 55, 24
4, 98499, Control_c, 0, 64, 127
4, 98640, Note_on_c, 0, 55, 0
4, 98640, Note_on_c, 0, 59, 0
4, 98640, Note_on_c, 0, 50, 24
4, 98640, Note_on_c, 0, 54, 24
4, 98640, Note_on_c, 0, 60, 29
4, 98645, Control_c, 0, 64, 0
4, 98880, Note_on_c, 0, 60, 0
4, 98880, Note_on_c, 0, 54, 0
4, 98880, Note_on_c, 0, 50, 0
4, 98880, Note_on_c, 0, 55, 23
4, 98880, Note_on_c, 0, 59, 28
4, 99036, Control_c, 0, 64, 127
4, 99600, Note_on_c, 0, 59, 0
4, 99600, Note_on_c, 0, 55, 0
4, 99996, Control_c, 0, 64, 0
4, 99996, End_track
5, 0, Start_track
5, 0, Title_t, "Mozart: Sonate KV 311"
5, 0, End_track
6, 0, Start_track
6, 0, Title_t, "Copyright © 2006 by Bernd Krüger"
6, 0, End_track
7, 0, Start_track
7, 0, Title_t, "http://www.piano-midi.de"
7, 0, End_track
8, 0, Start_track
8, 0, Title_t, "Edition: 2013-06-06"
8, 0, End_track
9, 0, Start_track
9, 0, Title_t, "Spur 8"
9, 0, End_track
10, 0, Start_track
10, 0, Title_t, "Spur 9"
10, 0, End_track
0, 0, End_of_file
