0, 0, Header, 1, 10, 480
1, 0, Start_track
1, 0, Title_t, "Klaviersonate Nr. 11 KV 331 3. Satz"
1, 0, Copyright_t, "Copyright © 2005 von Bernd Krüger. "
1, 0, Text_t, "Amadeus Mozart"
1, 0, Text_t, "Fertiggestellt am  11.12.2005\012"
1, 0, Text_t, "Update am 15.7.3013\012"
1, 0, Text_t, "Dauer: 3:10 Minuten\012"
1, 0, Time_signature, 2, 2, 24, 8
1, 0, Key_signature, 0, "major"
1, 0, Tempo, 397351
1, 0, Marker_t, "Allegro"
1, 840, Tempo, 451128
1, 960, Tempo, 397351
1, 1320, Tempo, 451128
1, 1440, Tempo, 400000
1, 1800, Tempo, 454545
1, 1920, Tempo, 397351
1, 2280, Tempo, 441176
1, 2400, Tempo, 397351
1, 2760, Tempo, 416667
1, 2880, Tempo, 397351
1, 3360, Tempo, 405405
1, 3720, Tempo, 458015
1, 3840, Tempo, 408163
1, 4080, Tempo, 425532
1, 4200, Tempo, 465116
1, 4320, Tempo, 397351
1, 4560, Tempo, 428571
1, 4680, Tempo, 582524
1, 4740, Tempo, 357143
1, 4800, Tempo, 405405
1, 5280, Tempo, 397351
1, 5520, Tempo, 428571
1, 5640, Tempo, 571429
1, 5700, Tempo, 359281
1, 5760, Tempo, 405405
1, 6240, Tempo, 397351
1, 6480, Tempo, 431655
1, 6600, Tempo, 550459
1, 6660, Tempo, 355030
1, 6720, Tempo, 402685
1, 7200, Tempo, 437956
1, 7440, Tempo, 465116
1, 7680, Tempo, 487805
1, 8160, Tempo, 397351
1, 8520, Tempo, 451128
1, 8640, Tempo, 397351
1, 9000, Tempo, 451128
1, 9120, Tempo, 400000
1, 9480, Tempo, 454545
1, 9600, Tempo, 397351
1, 9960, Tempo, 441176
1, 10080, Tempo, 397351
1, 10440, Tempo, 416667
1, 10560, Tempo, 397351
1, 11040, Tempo, 405405
1, 11400, Tempo, 458015
1, 11520, Tempo, 408163
1, 11760, Tempo, 425532
1, 11880, Tempo, 465116
1, 12000, Tempo, 397351
1, 12240, Tempo, 428571
1, 12360, Tempo, 582524
1, 12420, Tempo, 357143
1, 12480, Tempo, 405405
1, 12960, Tempo, 397351
1, 13200, Tempo, 428571
1, 13320, Tempo, 571429
1, 13380, Tempo, 359281
1, 13440, Tempo, 405405
1, 13920, Tempo, 397351
1, 14160, Tempo, 431655
1, 14280, Tempo, 550459
1, 14340, Tempo, 355030
1, 14400, Tempo, 400000
1, 14880, Tempo, 434783
1, 15120, Tempo, 491803
1, 15360, Tempo, 461538
1, 15840, Tempo, 434783
1, 16080, Tempo, 425532
1, 16320, Tempo, 416667
1, 16800, Tempo, 410959
1, 17100, Tempo, 451128
1, 17280, Tempo, 431655
1, 17746, Tempo, 491803
1, 17760, Tempo, 434783
1, 18000, Tempo, 425532
1, 18240, Tempo, 416667
1, 18720, Tempo, 410959
1, 19020, Tempo, 451128
1, 19200, Tempo, 431655
1, 19666, Tempo, 491803
1, 19680, Tempo, 454545
1, 19920, Tempo, 425532
1, 20160, Tempo, 416667
1, 20640, Tempo, 410959
1, 20940, Tempo, 451128
1, 21120, Tempo, 431655
1, 21600, Tempo, 434783
1, 21840, Tempo, 425532
1, 22080, Tempo, 416667
1, 22560, Tempo, 410959
1, 22860, Tempo, 451128
1, 23040, Tempo, 431655
1, 23520, Tempo, 397351
1, 23880, Tempo, 451128
1, 24000, Tempo, 397351
1, 24360, Tempo, 451128
1, 24480, Tempo, 400000
1, 24840, Tempo, 454545
1, 24960, Tempo, 397351
1, 25320, Tempo, 441176
1, 25440, Tempo, 397351
1, 25800, Tempo, 416667
1, 25920, Tempo, 400000
1, 26400, Tempo, 413793
1, 26760, Tempo, 512821
1, 26880, Tempo, 408163
1, 27120, Tempo, 425532
1, 27240, Tempo, 465116
1, 27360, Tempo, 410959
1, 27600, Tempo, 428571
1, 27840, Tempo, 405405
1, 28320, Tempo, 397351
1, 28560, Tempo, 428571
1, 28800, Tempo, 405405
1, 29280, Tempo, 397351
1, 29520, Tempo, 431655
1, 29760, Tempo, 410959
1, 30240, Tempo, 434783
1, 30480, Tempo, 451128
1, 30550, Tempo, 447761
1, 30570, Tempo, 468750
1, 30590, Tempo, 491803
1, 30610, Tempo, 521739
1, 30630, Tempo, 550459
1, 30650, Tempo, 582524
1, 30670, Tempo, 625000
1, 30690, Tempo, 666667
1, 30710, Tempo, 472441
1, 31200, Tempo, 434783
1, 31440, Tempo, 425532
1, 31680, Tempo, 416667
1, 32160, Tempo, 410959
1, 32460, Tempo, 451128
1, 32640, Tempo, 431655
1, 33106, Tempo, 491803
1, 33120, Tempo, 434783
1, 33360, Tempo, 425532
1, 33600, Tempo, 416667
1, 34080, Tempo, 410959
1, 34380, Tempo, 451128
1, 34560, Tempo, 431655
1, 35026, Tempo, 491803
1, 35040, Tempo, 454545
1, 35280, Tempo, 425532
1, 35520, Tempo, 416667
1, 36000, Tempo, 410959
1, 36300, Tempo, 451128
1, 36480, Tempo, 431655
1, 36960, Tempo, 434783
1, 37200, Tempo, 425532
1, 37440, Tempo, 416667
1, 37920, Tempo, 410959
1, 38220, Tempo, 451128
1, 38400, Tempo, 431655
1, 38880, Tempo, 397351
1, 39240, Tempo, 451128
1, 39360, Tempo, 397351
1, 39720, Tempo, 451128
1, 39840, Tempo, 400000
1, 40200, Tempo, 454545
1, 40320, Tempo, 397351
1, 40680, Tempo, 441176
1, 40800, Tempo, 397351
1, 41160, Tempo, 416667
1, 41280, Tempo, 400000
1, 41760, Tempo, 413793
1, 42120, Tempo, 512821
1, 42240, Tempo, 408163
1, 42480, Tempo, 425532
1, 42600, Tempo, 465116
1, 42720, Tempo, 410959
1, 42960, Tempo, 428571
1, 43200, Tempo, 405405
1, 43680, Tempo, 397351
1, 43920, Tempo, 428571
1, 44160, Tempo, 405405
1, 44640, Tempo, 397351
1, 44880, Tempo, 431655
1, 45120, Tempo, 410959
1, 45600, Tempo, 434783
1, 45840, Tempo, 451128
1, 45910, Tempo, 447761
1, 45930, Tempo, 468750
1, 45950, Tempo, 491803
1, 45970, Tempo, 521739
1, 45990, Tempo, 550459
1, 46010, Tempo, 582524
1, 46030, Tempo, 625000
1, 46050, Tempo, 666667
1, 46070, Tempo, 472441
1, 46080, Key_signature, 3, "major"
1, 46560, Tempo, 422535
1, 46800, Tempo, 431655
1, 47040, Tempo, 408163
1, 47280, Tempo, 422535
1, 47520, Tempo, 413793
1, 47760, Tempo, 422535
1, 48000, Tempo, 408163
1, 48240, Tempo, 410959
1, 48480, Tempo, 410959
1, 48720, Tempo, 447761
1, 48960, Tempo, 410959
1, 49200, Tempo, 419580
1, 49440, Tempo, 410959
1, 49680, Tempo, 447761
1, 49920, Tempo, 425532
1, 50160, Tempo, 454545
1, 50400, Tempo, 416667
1, 50640, Tempo, 419580
1, 50880, Tempo, 408163
1, 51120, Tempo, 419580
1, 51360, Tempo, 408163
1, 51600, Tempo, 422535
1, 51840, Tempo, 410959
1, 52080, Tempo, 413793
1, 52320, Tempo, 416667
1, 52560, Tempo, 434783
1, 52800, Tempo, 413793
1, 53040, Tempo, 434783
1, 53280, Tempo, 451128
1, 53520, Tempo, 465116
1, 53760, Tempo, 451128
1, 54240, Tempo, 422535
1, 54480, Tempo, 431655
1, 54720, Tempo, 408163
1, 54960, Tempo, 422535
1, 55200, Tempo, 413793
1, 55440, Tempo, 425532
1, 55680, Tempo, 408163
1, 55920, Tempo, 419580
1, 56160, Tempo, 410959
1, 56400, Tempo, 428571
1, 56640, Tempo, 410959
1, 56880, Tempo, 431655
1, 57120, Tempo, 416667
1, 57360, Tempo, 437956
1, 57600, Tempo, 425532
1, 57840, Tempo, 441176
1, 58080, Tempo, 425532
1, 58320, Tempo, 419580
1, 58560, Tempo, 408163
1, 58800, Tempo, 419580
1, 59040, Tempo, 408163
1, 59280, Tempo, 431655
1, 59520, Tempo, 410959
1, 59760, Tempo, 413793
1, 60000, Tempo, 416667
1, 60240, Tempo, 434783
1, 60480, Tempo, 413793
1, 60720, Tempo, 454545
1, 60960, Tempo, 451128
1, 61200, Tempo, 465116
1, 61440, Tempo, 451128
1, 61882, Tempo, 465116
1, 61902, Tempo, 458015
1, 61922, Tempo, 447761
1, 61942, Tempo, 441176
1, 61962, Tempo, 431655
1, 61982, Tempo, 425532
1, 62002, Tempo, 416667
1, 62022, Tempo, 410959
1, 62042, Tempo, 402685
1, 62160, Tempo, 419580
1, 62280, Tempo, 434783
1, 62400, Tempo, 428571
1, 62640, Tempo, 413793
1, 62880, Tempo, 422535
1, 63120, Tempo, 425532
1, 63360, Tempo, 416667
1, 63600, Tempo, 419580
1, 64080, Tempo, 422535
1, 64320, Tempo, 422535
1, 64560, Tempo, 419580
1, 65040, Tempo, 422535
1, 65280, Tempo, 416667
1, 65520, Tempo, 408163
1, 65760, Tempo, 416667
1, 66000, Tempo, 425532
1, 66120, Tempo, 454545
1, 66240, Tempo, 419580
1, 66480, Tempo, 413793
1, 66720, Tempo, 416667
1, 66960, Tempo, 425532
1, 67200, Tempo, 425532
1, 67440, Tempo, 416667
1, 67680, Tempo, 419580
1, 67920, Tempo, 428571
1, 68160, Tempo, 419580
1, 68400, Tempo, 419580
1, 68618, Tempo, 419580
1, 68658, Tempo, 422535
1, 68698, Tempo, 425532
1, 68738, Tempo, 428571
1, 68750, Tempo, 425532
1, 68810, Tempo, 428571
1, 68870, Tempo, 431655
1, 68930, Tempo, 434783
1, 69000, Tempo, 468750
1, 69120, Tempo, 434783
1, 69582, Tempo, 476190
1, 69602, Tempo, 468750
1, 69622, Tempo, 458015
1, 69642, Tempo, 447761
1, 69662, Tempo, 437956
1, 69682, Tempo, 428571
1, 69702, Tempo, 419580
1, 69722, Tempo, 410959
1, 69742, Tempo, 402685
1, 69840, Tempo, 419580
1, 69960, Tempo, 434783
1, 70080, Tempo, 431655
1, 70320, Tempo, 422535
1, 70800, Tempo, 425532
1, 71040, Tempo, 431655
1, 71280, Tempo, 419580
1, 71760, Tempo, 422535
1, 72000, Tempo, 422535
1, 72240, Tempo, 419580
1, 72720, Tempo, 422535
1, 72960, Tempo, 425532
1, 73200, Tempo, 413793
1, 73680, Tempo, 425532
1, 73920, Tempo, 419580
1, 74160, Tempo, 413793
1, 74640, Tempo, 425532
1, 74880, Tempo, 422535
1, 75120, Tempo, 410959
1, 75360, Tempo, 416667
1, 75600, Tempo, 428571
1, 75840, Tempo, 428571
1, 76080, Tempo, 419580
1, 76298, Tempo, 419580
1, 76338, Tempo, 422535
1, 76378, Tempo, 425532
1, 76418, Tempo, 428571
1, 76430, Tempo, 425532
1, 76490, Tempo, 428571
1, 76550, Tempo, 431655
1, 76610, Tempo, 434783
1, 76680, Tempo, 468750
1, 76800, Tempo, 434783
1, 77280, Tempo, 416667
1, 77520, Tempo, 419580
1, 77640, Tempo, 434783
1, 77760, Tempo, 428571
1, 78000, Tempo, 422535
1, 78480, Tempo, 425532
1, 78720, Tempo, 410959
1, 78960, Tempo, 419580
1, 79440, Tempo, 422535
1, 79680, Tempo, 408163
1, 79920, Tempo, 419580
1, 80400, Tempo, 458015
1, 80520, Tempo, 491803
1, 80640, Tempo, 454545
1, 80880, Tempo, 416667
1, 81110, Tempo, 441176
1, 81130, Tempo, 437956
1, 81150, Tempo, 434783
1, 81170, Tempo, 431655
1, 81190, Tempo, 428571
1, 81210, Tempo, 422535
1, 81230, Tempo, 419580
1, 81250, Tempo, 416667
1, 81270, Tempo, 413793
1, 81290, Tempo, 408163
1, 81360, Tempo, 419580
1, 81480, Tempo, 434783
1, 81600, Tempo, 428571
1, 81840, Tempo, 422535
1, 82320, Tempo, 425532
1, 82560, Tempo, 410959
1, 82800, Tempo, 419580
1, 83280, Tempo, 422535
1, 83520, Tempo, 408163
1, 83760, Tempo, 419580
1, 84000, Tempo, 410959
1, 84240, Tempo, 437956
1, 84480, Tempo, 441176
1, 84720, Tempo, 416667
1, 84950, Tempo, 472441
1, 84970, Tempo, 465116
1, 84990, Tempo, 454545
1, 85010, Tempo, 447761
1, 85030, Tempo, 437956
1, 85050, Tempo, 431655
1, 85070, Tempo, 422535
1, 85090, Tempo, 416667
1, 85110, Tempo, 408163
1, 85200, Tempo, 419580
1, 85320, Tempo, 434783
1, 85440, Tempo, 425532
1, 85680, Tempo, 422535
1, 86160, Tempo, 425532
1, 86400, Tempo, 422535
1, 86640, Tempo, 419580
1, 87120, Tempo, 422535
1, 87360, Tempo, 431655
1, 87600, Tempo, 419580
1, 88080, Tempo, 422535
1, 88320, Tempo, 410959
1, 88560, Tempo, 416667
1, 89040, Tempo, 425532
1, 89280, Tempo, 428571
1, 89520, Tempo, 416667
1, 90000, Tempo, 425532
1, 90240, Tempo, 425532
1, 90480, Tempo, 416667
1, 90960, Tempo, 428571
1, 91200, Tempo, 416667
1, 91440, Tempo, 419580
1, 91658, Tempo, 419580
1, 91698, Tempo, 422535
1, 91738, Tempo, 425532
1, 91778, Tempo, 428571
1, 91790, Tempo, 425532
1, 91850, Tempo, 428571
1, 91910, Tempo, 431655
1, 91970, Tempo, 434783
1, 92040, Tempo, 512821
1, 92160, Tempo, 434783
1, 92640, Tempo, 416667
1, 92880, Tempo, 419580
1, 93000, Tempo, 434783
1, 93120, Tempo, 428571
1, 93360, Tempo, 422535
1, 93600, Tempo, 428571
1, 93840, Tempo, 434783
1, 94080, Tempo, 416667
1, 94320, Tempo, 419580
1, 94800, Tempo, 422535
1, 95040, Tempo, 408163
1, 95280, Tempo, 419580
1, 95760, Tempo, 458015
1, 95880, Tempo, 508475
1, 96000, Tempo, 468750
1, 96240, Tempo, 416667
1, 96480, Tempo, 416667
1, 96720, Tempo, 419580
1, 96840, Tempo, 434783
1, 96960, Tempo, 428571
1, 97200, Tempo, 422535
1, 97440, Tempo, 428571
1, 97680, Tempo, 425532
1, 97920, Tempo, 416667
1, 98160, Tempo, 419580
1, 98640, Tempo, 422535
1, 98880, Tempo, 408163
1, 99120, Tempo, 419580
1, 99360, Tempo, 410959
1, 99600, Tempo, 437956
1, 99840, Tempo, 441176
1, 100080, Tempo, 431655
1, 100310, Tempo, 495868
1, 100330, Tempo, 483871
1, 100350, Tempo, 468750
1, 100370, Tempo, 454545
1, 100390, Tempo, 441176
1, 100410, Tempo, 428571
1, 100430, Tempo, 416667
1, 100450, Tempo, 405405
1, 100560, Tempo, 419580
1, 100680, Tempo, 434783
1, 100800, Tempo, 425532
1, 101040, Tempo, 422535
1, 101520, Tempo, 425532
1, 101760, Tempo, 422535
1, 102000, Tempo, 419580
1, 102480, Tempo, 422535
1, 102720, Tempo, 431655
1, 102960, Tempo, 419580
1, 103440, Tempo, 422535
1, 103680, Tempo, 416667
1, 103920, Tempo, 416667
1, 104400, Tempo, 425532
1, 104640, Tempo, 428571
1, 104880, Tempo, 419580
1, 105360, Tempo, 425532
1, 105600, Tempo, 425532
1, 105840, Tempo, 416667
1, 106320, Tempo, 428571
1, 106560, Tempo, 416667
1, 106800, Tempo, 419580
1, 107018, Tempo, 419580
1, 107058, Tempo, 422535
1, 107098, Tempo, 425532
1, 107138, Tempo, 428571
1, 107150, Tempo, 425532
1, 107210, Tempo, 428571
1, 107270, Tempo, 431655
1, 107330, Tempo, 434783
1, 107400, Tempo, 512821
1, 107520, Tempo, 495868
1, 108000, Tempo, 428571
1, 108240, Tempo, 431655
1, 108480, Tempo, 408163
1, 108720, Tempo, 422535
1, 108960, Tempo, 413793
1, 109200, Tempo, 422535
1, 109440, Tempo, 408163
1, 109680, Tempo, 410959
1, 109920, Tempo, 410959
1, 110160, Tempo, 447761
1, 110400, Tempo, 410959
1, 110640, Tempo, 419580
1, 110880, Tempo, 425532
1, 111120, Tempo, 447761
1, 111360, Tempo, 425532
1, 111600, Tempo, 454545
1, 111840, Tempo, 425532
1, 112080, Tempo, 419580
1, 112320, Tempo, 408163
1, 112560, Tempo, 419580
1, 112800, Tempo, 408163
1, 113040, Tempo, 422535
1, 113280, Tempo, 410959
1, 113520, Tempo, 413793
1, 113760, Tempo, 416667
1, 114000, Tempo, 434783
1, 114240, Tempo, 413793
1, 114480, Tempo, 434783
1, 114720, Tempo, 451128
1, 114960, Tempo, 465116
1, 115200, Tempo, 451128
1, 115680, Tempo, 419580
1, 115920, Tempo, 431655
1, 116160, Tempo, 408163
1, 116400, Tempo, 422535
1, 116640, Tempo, 413793
1, 116880, Tempo, 425532
1, 117120, Tempo, 408163
1, 117360, Tempo, 419580
1, 117600, Tempo, 410959
1, 117840, Tempo, 428571
1, 118080, Tempo, 410959
1, 118320, Tempo, 431655
1, 118800, Tempo, 447761
1, 119040, Tempo, 425532
1, 119280, Tempo, 454545
1, 119520, Tempo, 416667
1, 119760, Tempo, 419580
1, 120000, Tempo, 408163
1, 120240, Tempo, 419580
1, 120480, Tempo, 408163
1, 120720, Tempo, 431655
1, 120960, Tempo, 410959
1, 121200, Tempo, 413793
1, 121440, Tempo, 416667
1, 121680, Tempo, 434783
1, 121920, Tempo, 413793
1, 122160, Tempo, 454545
1, 122400, Tempo, 451128
1, 122640, Tempo, 465116
1, 122880, Key_signature, 0, "major"
1, 122880, Tempo, 594059
1, 123360, Tempo, 397351
1, 123720, Tempo, 451128
1, 123840, Tempo, 397351
1, 124200, Tempo, 451128
1, 124320, Tempo, 400000
1, 124680, Tempo, 454545
1, 124800, Tempo, 397351
1, 125160, Tempo, 441176
1, 125280, Tempo, 397351
1, 125640, Tempo, 416667
1, 125760, Tempo, 397351
1, 126240, Tempo, 405405
1, 126600, Tempo, 458015
1, 126720, Tempo, 408163
1, 126960, Tempo, 425532
1, 127080, Tempo, 465116
1, 127200, Tempo, 397351
1, 127440, Tempo, 428571
1, 127560, Tempo, 582524
1, 127620, Tempo, 357143
1, 127680, Tempo, 405405
1, 128160, Tempo, 397351
1, 128400, Tempo, 428571
1, 128520, Tempo, 571429
1, 128580, Tempo, 359281
1, 128640, Tempo, 405405
1, 129120, Tempo, 397351
1, 129360, Tempo, 431655
1, 129480, Tempo, 550459
1, 129540, Tempo, 355030
1, 129600, Tempo, 402685
1, 130080, Tempo, 437956
1, 130320, Tempo, 465116
1, 130560, Tempo, 487805
1, 131040, Tempo, 397351
1, 131400, Tempo, 451128
1, 131520, Tempo, 397351
1, 131880, Tempo, 451128
1, 132000, Tempo, 400000
1, 132360, Tempo, 454545
1, 132480, Tempo, 397351
1, 132840, Tempo, 441176
1, 132960, Tempo, 397351
1, 133320, Tempo, 416667
1, 133440, Tempo, 397351
1, 133920, Tempo, 405405
1, 134280, Tempo, 458015
1, 134400, Tempo, 408163
1, 134640, Tempo, 425532
1, 134760, Tempo, 465116
1, 134880, Tempo, 397351
1, 135120, Tempo, 428571
1, 135240, Tempo, 582524
1, 135300, Tempo, 357143
1, 135360, Tempo, 405405
1, 135840, Tempo, 397351
1, 136080, Tempo, 428571
1, 136200, Tempo, 571429
1, 136260, Tempo, 359281
1, 136320, Tempo, 405405
1, 136800, Tempo, 397351
1, 137040, Tempo, 431655
1, 137160, Tempo, 550459
1, 137220, Tempo, 355030
1, 137280, Tempo, 400000
1, 137760, Tempo, 434783
1, 138000, Tempo, 491803
1, 138240, Tempo, 461538
1, 138720, Tempo, 434783
1, 138960, Tempo, 425532
1, 139200, Tempo, 416667
1, 139680, Tempo, 410959
1, 139980, Tempo, 451128
1, 140160, Tempo, 431655
1, 140626, Tempo, 491803
1, 140640, Tempo, 434783
1, 140880, Tempo, 425532
1, 141120, Tempo, 416667
1, 141600, Tempo, 410959
1, 141900, Tempo, 451128
1, 142080, Tempo, 431655
1, 142546, Tempo, 491803
1, 142560, Tempo, 454545
1, 142800, Tempo, 425532
1, 143040, Tempo, 416667
1, 143520, Tempo, 410959
1, 143820, Tempo, 451128
1, 144000, Tempo, 431655
1, 144480, Tempo, 434783
1, 144720, Tempo, 425532
1, 144960, Tempo, 416667
1, 145440, Tempo, 410959
1, 145740, Tempo, 451128
1, 145920, Tempo, 431655
1, 146400, Tempo, 397351
1, 146760, Tempo, 451128
1, 146880, Tempo, 397351
1, 147240, Tempo, 451128
1, 147360, Tempo, 400000
1, 147720, Tempo, 454545
1, 147840, Tempo, 397351
1, 148200, Tempo, 441176
1, 148320, Tempo, 397351
1, 148680, Tempo, 416667
1, 148800, Tempo, 400000
1, 149280, Tempo, 413793
1, 149640, Tempo, 512821
1, 149760, Tempo, 408163
1, 150000, Tempo, 425532
1, 150120, Tempo, 465116
1, 150240, Tempo, 410959
1, 150480, Tempo, 428571
1, 150720, Tempo, 405405
1, 151200, Tempo, 410959
1, 151440, Tempo, 428571
1, 151680, Tempo, 405405
1, 152160, Tempo, 413793
1, 152400, Tempo, 431655
1, 152640, Tempo, 410959
1, 153120, Tempo, 434783
1, 153360, Tempo, 451128
1, 153430, Tempo, 447761
1, 153450, Tempo, 468750
1, 153470, Tempo, 491803
1, 153490, Tempo, 521739
1, 153510, Tempo, 550459
1, 153530, Tempo, 582524
1, 153550, Tempo, 625000
1, 153570, Tempo, 666667
1, 153590, Tempo, 472441
1, 154080, Tempo, 434783
1, 154320, Tempo, 425532
1, 154560, Tempo, 416667
1, 155040, Tempo, 410959
1, 155340, Tempo, 451128
1, 155520, Tempo, 431655
1, 155986, Tempo, 491803
1, 156000, Tempo, 434783
1, 156240, Tempo, 425532
1, 156480, Tempo, 416667
1, 156960, Tempo, 410959
1, 157260, Tempo, 451128
1, 157440, Tempo, 431655
1, 157906, Tempo, 491803
1, 157920, Tempo, 454545
1, 158160, Tempo, 425532
1, 158400, Tempo, 416667
1, 158880, Tempo, 410959
1, 159180, Tempo, 451128
1, 159360, Tempo, 431655
1, 159840, Tempo, 434783
1, 160080, Tempo, 425532
1, 160320, Tempo, 416667
1, 160800, Tempo, 410959
1, 161100, Tempo, 451128
1, 161280, Tempo, 431655
1, 161760, Tempo, 397351
1, 162120, Tempo, 451128
1, 162240, Tempo, 397351
1, 162600, Tempo, 451128
1, 162720, Tempo, 400000
1, 163080, Tempo, 454545
1, 163200, Tempo, 397351
1, 163560, Tempo, 441176
1, 163680, Tempo, 397351
1, 164040, Tempo, 416667
1, 164160, Tempo, 400000
1, 164640, Tempo, 413793
1, 165000, Tempo, 512821
1, 165120, Tempo, 408163
1, 165360, Tempo, 425532
1, 165480, Tempo, 465116
1, 165600, Tempo, 410959
1, 165840, Tempo, 428571
1, 166080, Tempo, 405405
1, 166560, Tempo, 413793
1, 166800, Tempo, 428571
1, 167040, Tempo, 405405
1, 167520, Tempo, 416667
1, 167760, Tempo, 431655
1, 168000, Tempo, 410959
1, 168480, Tempo, 434783
1, 168720, Tempo, 451128
1, 168790, Tempo, 447761
1, 168810, Tempo, 468750
1, 168830, Tempo, 491803
1, 168850, Tempo, 521739
1, 168870, Tempo, 550459
1, 168890, Tempo, 582524
1, 168910, Tempo, 625000
1, 168930, Tempo, 666667
1, 168950, Tempo, 472441
1, 168960, Key_signature, 3, "major"
1, 169440, Tempo, 413793
1, 169680, Tempo, 431655
1, 169920, Tempo, 408163
1, 170160, Tempo, 422535
1, 170400, Tempo, 413793
1, 170640, Tempo, 422535
1, 170880, Tempo, 408163
1, 171120, Tempo, 410959
1, 171360, Tempo, 410959
1, 171600, Tempo, 447761
1, 171840, Tempo, 410959
1, 172080, Tempo, 419580
1, 172320, Tempo, 431655
1, 172560, Tempo, 447761
1, 172800, Tempo, 425532
1, 173040, Tempo, 454545
1, 173280, Tempo, 397351
1, 173520, Tempo, 419580
1, 173760, Tempo, 408163
1, 174000, Tempo, 419580
1, 174240, Tempo, 408163
1, 174480, Tempo, 422535
1, 174720, Tempo, 410959
1, 174960, Tempo, 413793
1, 175200, Tempo, 416667
1, 175440, Tempo, 434783
1, 175680, Tempo, 413793
1, 175920, Tempo, 434783
1, 176160, Tempo, 451128
1, 176400, Tempo, 465116
1, 176640, Tempo, 451128
1, 177120, Tempo, 405405
1, 177360, Tempo, 431655
1, 177600, Tempo, 408163
1, 177840, Tempo, 422535
1, 178080, Tempo, 413793
1, 178320, Tempo, 422535
1, 178560, Tempo, 408163
1, 178800, Tempo, 410959
1, 179040, Tempo, 410959
1, 179280, Tempo, 447761
1, 179520, Tempo, 410959
1, 179760, Tempo, 419580
1, 180000, Tempo, 431655
1, 180240, Tempo, 447761
1, 180480, Tempo, 425532
1, 180720, Tempo, 441176
1, 180960, Tempo, 397351
1, 181200, Tempo, 419580
1, 181440, Tempo, 408163
1, 181680, Tempo, 419580
1, 181920, Tempo, 408163
1, 182160, Tempo, 422535
1, 182400, Tempo, 410959
1, 182640, Tempo, 413793
1, 182880, Tempo, 416667
1, 183120, Tempo, 434783
1, 183360, Tempo, 413793
1, 183600, Tempo, 434783
1, 183840, Tempo, 451128
1, 184080, Tempo, 465116
1, 184200, Tempo, 422535
1, 184320, Tempo, 410959
1, 184560, Tempo, 413793
1, 184800, Tempo, 416667
1, 185040, Tempo, 434783
1, 185160, Tempo, 422535
1, 185280, Tempo, 410959
1, 185280, Marker_t, "Coda"
1, 185520, Tempo, 413793
1, 185760, Tempo, 416667
1, 186000, Tempo, 434783
1, 186120, Tempo, 422535
1, 186240, Tempo, 410959
1, 186480, Tempo, 413793
1, 186720, Tempo, 416667
1, 186960, Tempo, 434783
1, 187080, Tempo, 422535
1, 187200, Tempo, 410959
1, 187440, Tempo, 413793
1, 187680, Tempo, 416667
1, 187920, Tempo, 434783
1, 188040, Tempo, 465116
1, 188160, Tempo, 410959
1, 188400, Tempo, 413793
1, 188640, Tempo, 416667
1, 188880, Tempo, 434783
1, 189000, Tempo, 422535
1, 189120, Tempo, 422535
1, 189360, Tempo, 413793
1, 189600, Tempo, 416667
1, 189840, Tempo, 434783
1, 189960, Tempo, 422535
1, 190080, Tempo, 410959
1, 190320, Tempo, 413793
1, 190560, Tempo, 416667
1, 190800, Tempo, 441176
1, 190920, Tempo, 625000
1, 191040, Tempo, 410959
1, 191280, Tempo, 413793
1, 191520, Tempo, 416667
1, 191760, Tempo, 434783
1, 191880, Tempo, 422535
1, 192000, Tempo, 410959
1, 192240, Tempo, 413793
1, 192480, Tempo, 416667
1, 192720, Tempo, 434783
1, 192840, Tempo, 422535
1, 192960, Tempo, 410959
1, 193200, Tempo, 413793
1, 193440, Tempo, 416667
1, 193680, Tempo, 434783
1, 193800, Tempo, 465116
1, 193920, Tempo, 410959
1, 194160, Tempo, 413793
1, 194400, Tempo, 416667
1, 194640, Tempo, 434783
1, 194760, Tempo, 422535
1, 194880, Tempo, 422535
1, 195120, Tempo, 413793
1, 195360, Tempo, 416667
1, 195600, Tempo, 434783
1, 195720, Tempo, 422535
1, 195840, Tempo, 410959
1, 196080, Tempo, 413793
1, 196320, Tempo, 416667
1, 196560, Tempo, 434783
1, 197280, Tempo, 416667
1, 197520, Tempo, 434783
1, 197640, Tempo, 422535
1, 197760, Tempo, 410959
1, 198000, Tempo, 413793
1, 198240, Tempo, 416667
1, 198480, Tempo, 434783
1, 198600, Tempo, 422535
1, 198720, Tempo, 410959
1, 198960, Tempo, 413793
1, 199200, Tempo, 416667
1, 199440, Tempo, 434783
1, 199560, Tempo, 422535
1, 199680, Tempo, 410959
1, 199920, Tempo, 413793
1, 200160, Tempo, 416667
1, 200400, Tempo, 434783
1, 200520, Tempo, 465116
1, 200640, Tempo, 410959
1, 200880, Tempo, 413793
1, 201120, Tempo, 416667
1, 201360, Tempo, 434783
1, 201480, Tempo, 422535
1, 201600, Tempo, 422535
1, 201840, Tempo, 413793
1, 202080, Tempo, 416667
1, 202320, Tempo, 434783
1, 202440, Tempo, 422535
1, 202560, Tempo, 410959
1, 202800, Tempo, 413793
1, 203040, Tempo, 416667
1, 203280, Tempo, 434783
1, 203400, Tempo, 571429
1, 203520, Tempo, 410959
1, 203760, Tempo, 413793
1, 204000, Tempo, 416667
1, 204240, Tempo, 434783
1, 204360, Tempo, 422535
1, 204480, Tempo, 410959
1, 204720, Tempo, 413793
1, 204960, Tempo, 416667
1, 205200, Tempo, 434783
1, 205320, Tempo, 422535
1, 205440, Tempo, 410959
1, 205680, Tempo, 413793
1, 205920, Tempo, 416667
1, 206160, Tempo, 434783
1, 206280, Tempo, 465116
1, 206400, Tempo, 410959
1, 206640, Tempo, 413793
1, 206880, Tempo, 416667
1, 207120, Tempo, 434783
1, 207240, Tempo, 422535
1, 207360, Tempo, 422535
1, 207600, Tempo, 413793
1, 207840, Tempo, 416667
1, 208080, Tempo, 434783
1, 208200, Tempo, 422535
1, 208320, Tempo, 410959
1, 208560, Tempo, 413793
1, 208800, Tempo, 416667
1, 209040, Tempo, 434783
1, 209160, Tempo, 422535
1, 209280, Tempo, 422535
1, 210000, Tempo, 461538
1, 210240, Tempo, 422535
1, 210960, Tempo, 468750
1, 211200, Tempo, 422535
1, 211920, Tempo, 458015
1, 212160, Tempo, 425532
1, 212400, Tempo, 416667
1, 212880, Tempo, 447761
1, 213120, Tempo, 458015
1, 213600, Tempo, 500000
1, 213600, End_track
2, 0, Start_track
2, 0, Title_t, "Piano right"
2, 0, Program_c, 0, 0
2, 0, Control_c, 0, 7, 100
2, 0, Control_c, 0, 10, 64
2, 0, Text_t, "bdca426d104a26ac9dcb070447587523"
2, 0, Control_c, 0, 91, 127
2, 480, Note_on_c, 0, 71, 66
2, 600, Note_on_c, 0, 71, 0
2, 600, Note_on_c, 0, 69, 64
2, 720, Note_on_c, 0, 69, 0
2, 720, Note_on_c, 0, 68, 64
2, 840, Note_on_c, 0, 68, 0
2, 840, Note_on_c, 0, 69, 64
2, 960, Note_on_c, 0, 69, 0
2, 960, Note_on_c, 0, 72, 71
2, 1080, Note_on_c, 0, 72, 0
2, 1440, Note_on_c, 0, 74, 66
2, 1560, Note_on_c, 0, 74, 0
2, 1560, Note_on_c, 0, 72, 63
2, 1680, Note_on_c, 0, 72, 0
2, 1680, Note_on_c, 0, 71, 63
2, 1800, Note_on_c, 0, 71, 0
2, 1800, Note_on_c, 0, 72, 63
2, 1920, Note_on_c, 0, 72, 0
2, 1920, Note_on_c, 0, 76, 72
2, 2040, Note_on_c, 0, 76, 0
2, 2400, Note_on_c, 0, 77, 66
2, 2520, Note_on_c, 0, 77, 0
2, 2520, Note_on_c, 0, 76, 63
2, 2640, Note_on_c, 0, 76, 0
2, 2640, Note_on_c, 0, 75, 63
2, 2760, Note_on_c, 0, 75, 0
2, 2760, Note_on_c, 0, 76, 63
2, 2880, Note_on_c, 0, 76, 0
2, 2880, Note_on_c, 0, 83, 70
2, 3000, Note_on_c, 0, 83, 0
2, 3000, Note_on_c, 0, 81, 64
2, 3120, Note_on_c, 0, 81, 0
2, 3120, Note_on_c, 0, 80, 64
2, 3240, Note_on_c, 0, 80, 0
2, 3240, Note_on_c, 0, 81, 64
2, 3360, Note_on_c, 0, 81, 0
2, 3360, Note_on_c, 0, 83, 69
2, 3480, Note_on_c, 0, 83, 0
2, 3480, Note_on_c, 0, 81, 64
2, 3600, Note_on_c, 0, 81, 0
2, 3600, Note_on_c, 0, 80, 64
2, 3720, Note_on_c, 0, 80, 0
2, 3720, Note_on_c, 0, 81, 64
2, 3840, Note_on_c, 0, 81, 0
2, 3840, Note_on_c, 0, 84, 72
2, 4320, Note_on_c, 0, 84, 0
2, 4320, Note_on_c, 0, 81, 68
2, 4440, Note_on_c, 0, 81, 0
2, 4560, Note_on_c, 0, 84, 65
2, 4680, Note_on_c, 0, 84, 0
2, 4740, Note_on_c, 0, 79, 63
2, 4770, Note_on_c, 0, 79, 0
2, 4770, Note_on_c, 0, 81, 63
2, 4800, Note_on_c, 0, 81, 0
2, 4800, Note_on_c, 0, 83, 80
2, 4920, Note_on_c, 0, 83, 0
2, 5040, Note_on_c, 0, 78, 54
2, 5040, Note_on_c, 0, 81, 64
2, 5160, Note_on_c, 0, 81, 0
2, 5160, Note_on_c, 0, 78, 0
2, 5280, Note_on_c, 0, 76, 58
2, 5280, Note_on_c, 0, 79, 69
2, 5400, Note_on_c, 0, 79, 0
2, 5400, Note_on_c, 0, 76, 0
2, 5520, Note_on_c, 0, 78, 54
2, 5520, Note_on_c, 0, 81, 64
2, 5640, Note_on_c, 0, 81, 0
2, 5640, Note_on_c, 0, 78, 0
2, 5700, Note_on_c, 0, 79, 65
2, 5730, Note_on_c, 0, 79, 0
2, 5730, Note_on_c, 0, 81, 65
2, 5760, Note_on_c, 0, 81, 0
2, 5760, Note_on_c, 0, 83, 82
2, 5880, Note_on_c, 0, 83, 0
2, 6000, Note_on_c, 0, 78, 56
2, 6000, Note_on_c, 0, 81, 66
2, 6120, Note_on_c, 0, 81, 0
2, 6120, Note_on_c, 0, 78, 0
2, 6240, Note_on_c, 0, 76, 58
2, 6240, Note_on_c, 0, 79, 69
2, 6360, Note_on_c, 0, 79, 0
2, 6360, Note_on_c, 0, 76, 0
2, 6480, Note_on_c, 0, 78, 55
2, 6480, Note_on_c, 0, 81, 65
2, 6600, Note_on_c, 0, 81, 0
2, 6600, Note_on_c, 0, 78, 0
2, 6660, Note_on_c, 0, 79, 64
2, 6690, Note_on_c, 0, 79, 0
2, 6690, Note_on_c, 0, 81, 64
2, 6720, Note_on_c, 0, 83, 79
2, 6750, Note_on_c, 0, 81, 0
2, 6840, Note_on_c, 0, 83, 0
2, 6960, Note_on_c, 0, 78, 57
2, 6960, Note_on_c, 0, 81, 68
2, 7080, Note_on_c, 0, 81, 0
2, 7080, Note_on_c, 0, 78, 0
2, 7200, Note_on_c, 0, 76, 58
2, 7200, Note_on_c, 0, 79, 69
2, 7320, Note_on_c, 0, 79, 0
2, 7320, Note_on_c, 0, 76, 0
2, 7440, Note_on_c, 0, 75, 56
2, 7440, Note_on_c, 0, 78, 66
2, 7560, Note_on_c, 0, 78, 0
2, 7560, Note_on_c, 0, 75, 0
2, 7680, Note_on_c, 0, 76, 69
2, 8130, Note_on_c, 0, 76, 0
2, 8160, Note_on_c, 0, 71, 66
2, 8280, Note_on_c, 0, 71, 0
2, 8280, Note_on_c, 0, 69, 64
2, 8400, Note_on_c, 0, 69, 0
2, 8400, Note_on_c, 0, 68, 64
2, 8520, Note_on_c, 0, 68, 0
2, 8520, Note_on_c, 0, 69, 64
2, 8640, Note_on_c, 0, 69, 0
2, 8640, Note_on_c, 0, 72, 71
2, 8760, Note_on_c, 0, 72, 0
2, 9120, Note_on_c, 0, 74, 66
2, 9240, Note_on_c, 0, 74, 0
2, 9240, Note_on_c, 0, 72, 63
2, 9360, Note_on_c, 0, 72, 0
2, 9360, Note_on_c, 0, 71, 63
2, 9480, Note_on_c, 0, 71, 0
2, 9480, Note_on_c, 0, 72, 63
2, 9600, Note_on_c, 0, 72, 0
2, 9600, Note_on_c, 0, 76, 72
2, 9720, Note_on_c, 0, 76, 0
2, 10080, Note_on_c, 0, 77, 66
2, 10200, Note_on_c, 0, 77, 0
2, 10200, Note_on_c, 0, 76, 63
2, 10320, Note_on_c, 0, 76, 0
2, 10320, Note_on_c, 0, 75, 63
2, 10440, Note_on_c, 0, 75, 0
2, 10440, Note_on_c, 0, 76, 63
2, 10560, Note_on_c, 0, 76, 0
2, 10560, Note_on_c, 0, 83, 70
2, 10680, Note_on_c, 0, 83, 0
2, 10680, Note_on_c, 0, 81, 64
2, 10800, Note_on_c, 0, 81, 0
2, 10800, Note_on_c, 0, 80, 64
2, 10920, Note_on_c, 0, 80, 0
2, 10920, Note_on_c, 0, 81, 64
2, 11040, Note_on_c, 0, 81, 0
2, 11040, Note_on_c, 0, 83, 69
2, 11160, Note_on_c, 0, 83, 0
2, 11160, Note_on_c, 0, 81, 64
2, 11280, Note_on_c, 0, 81, 0
2, 11280, Note_on_c, 0, 80, 64
2, 11400, Note_on_c, 0, 80, 0
2, 11400, Note_on_c, 0, 81, 64
2, 11520, Note_on_c, 0, 81, 0
2, 11520, Note_on_c, 0, 84, 72
2, 12000, Note_on_c, 0, 84, 0
2, 12000, Note_on_c, 0, 81, 68
2, 12120, Note_on_c, 0, 81, 0
2, 12240, Note_on_c, 0, 84, 65
2, 12360, Note_on_c, 0, 84, 0
2, 12420, Note_on_c, 0, 79, 63
2, 12450, Note_on_c, 0, 79, 0
2, 12450, Note_on_c, 0, 81, 63
2, 12480, Note_on_c, 0, 81, 0
2, 12480, Note_on_c, 0, 83, 80
2, 12600, Note_on_c, 0, 83, 0
2, 12720, Note_on_c, 0, 78, 54
2, 12720, Note_on_c, 0, 81, 64
2, 12840, Note_on_c, 0, 81, 0
2, 12840, Note_on_c, 0, 78, 0
2, 12960, Note_on_c, 0, 76, 58
2, 12960, Note_on_c, 0, 79, 69
2, 13080, Note_on_c, 0, 79, 0
2, 13080, Note_on_c, 0, 76, 0
2, 13200, Note_on_c, 0, 78, 54
2, 13200, Note_on_c, 0, 81, 64
2, 13320, Note_on_c, 0, 81, 0
2, 13320, Note_on_c, 0, 78, 0
2, 13380, Note_on_c, 0, 79, 65
2, 13410, Note_on_c, 0, 79, 0
2, 13410, Note_on_c, 0, 81, 65
2, 13440, Note_on_c, 0, 81, 0
2, 13440, Note_on_c, 0, 83, 82
2, 13560, Note_on_c, 0, 83, 0
2, 13680, Note_on_c, 0, 78, 56
2, 13680, Note_on_c, 0, 81, 66
2, 13800, Note_on_c, 0, 81, 0
2, 13800, Note_on_c, 0, 78, 0
2, 13920, Note_on_c, 0, 76, 58
2, 13920, Note_on_c, 0, 79, 69
2, 14040, Note_on_c, 0, 79, 0
2, 14040, Note_on_c, 0, 76, 0
2, 14160, Note_on_c, 0, 78, 55
2, 14160, Note_on_c, 0, 81, 65
2, 14280, Note_on_c, 0, 81, 0
2, 14280, Note_on_c, 0, 78, 0
2, 14340, Note_on_c, 0, 79, 64
2, 14370, Note_on_c, 0, 79, 0
2, 14370, Note_on_c, 0, 81, 64
2, 14400, Note_on_c, 0, 83, 79
2, 14430, Note_on_c, 0, 81, 0
2, 14520, Note_on_c, 0, 83, 0
2, 14640, Note_on_c, 0, 78, 57
2, 14640, Note_on_c, 0, 81, 68
2, 14760, Note_on_c, 0, 81, 0
2, 14760, Note_on_c, 0, 78, 0
2, 14880, Note_on_c, 0, 76, 58
2, 14880, Note_on_c, 0, 79, 69
2, 15000, Note_on_c, 0, 79, 0
2, 15000, Note_on_c, 0, 76, 0
2, 15120, Note_on_c, 0, 75, 56
2, 15120, Note_on_c, 0, 78, 66
2, 15240, Note_on_c, 0, 78, 0
2, 15240, Note_on_c, 0, 75, 0
2, 15360, Note_on_c, 0, 76, 69
2, 15810, Note_on_c, 0, 76, 0
2, 15840, Note_on_c, 0, 72, 56
2, 15840, Note_on_c, 0, 76, 56
2, 15960, Note_on_c, 0, 76, 0
2, 15960, Note_on_c, 0, 72, 0
2, 16080, Note_on_c, 0, 74, 56
2, 16080, Note_on_c, 0, 77, 56
2, 16200, Note_on_c, 0, 77, 0
2, 16200, Note_on_c, 0, 74, 0
2, 16320, Note_on_c, 0, 76, 66
2, 16320, Note_on_c, 0, 79, 66
2, 16440, Note_on_c, 0, 79, 0
2, 16440, Note_on_c, 0, 76, 0
2, 16560, Note_on_c, 0, 76, 57
2, 16560, Note_on_c, 0, 79, 57
2, 16680, Note_on_c, 0, 79, 0
2, 16680, Note_on_c, 0, 76, 0
2, 16800, Note_on_c, 0, 81, 64
2, 16920, Note_on_c, 0, 81, 0
2, 16920, Note_on_c, 0, 79, 57
2, 17040, Note_on_c, 0, 79, 0
2, 17040, Note_on_c, 0, 77, 57
2, 17160, Note_on_c, 0, 77, 0
2, 17160, Note_on_c, 0, 76, 57
2, 17280, Note_on_c, 0, 76, 0
2, 17280, Note_on_c, 0, 74, 65
2, 17280, Note_on_c, 0, 71, 65
2, 17520, Note_on_c, 0, 71, 0
2, 17520, Note_on_c, 0, 67, 59
2, 17760, Note_on_c, 0, 67, 0
2, 17760, Note_on_c, 0, 74, 0
2, 17760, Note_on_c, 0, 72, 56
2, 17760, Note_on_c, 0, 76, 56
2, 17880, Note_on_c, 0, 76, 0
2, 17880, Note_on_c, 0, 72, 0
2, 18000, Note_on_c, 0, 74, 56
2, 18000, Note_on_c, 0, 77, 56
2, 18120, Note_on_c, 0, 77, 0
2, 18120, Note_on_c, 0, 74, 0
2, 18240, Note_on_c, 0, 76, 66
2, 18240, Note_on_c, 0, 79, 66
2, 18360, Note_on_c, 0, 79, 0
2, 18360, Note_on_c, 0, 76, 0
2, 18480, Note_on_c, 0, 76, 57
2, 18480, Note_on_c, 0, 79, 57
2, 18600, Note_on_c, 0, 79, 0
2, 18600, Note_on_c, 0, 76, 0
2, 18720, Note_on_c, 0, 81, 64
2, 18840, Note_on_c, 0, 81, 0
2, 18840, Note_on_c, 0, 79, 57
2, 18960, Note_on_c, 0, 79, 0
2, 18960, Note_on_c, 0, 77, 57
2, 19080, Note_on_c, 0, 77, 0
2, 19080, Note_on_c, 0, 76, 57
2, 19200, Note_on_c, 0, 76, 0
2, 19200, Note_on_c, 0, 74, 65
2, 19200, Note_on_c, 0, 71, 65
2, 19680, Note_on_c, 0, 71, 0
2, 19680, Note_on_c, 0, 74, 0
2, 19680, Note_on_c, 0, 69, 56
2, 19680, Note_on_c, 0, 72, 56
2, 19800, Note_on_c, 0, 72, 0
2, 19800, Note_on_c, 0, 69, 0
2, 19920, Note_on_c, 0, 71, 56
2, 19920, Note_on_c, 0, 74, 56
2, 20040, Note_on_c, 0, 74, 0
2, 20040, Note_on_c, 0, 71, 0
2, 20160, Note_on_c, 0, 72, 66
2, 20160, Note_on_c, 0, 76, 66
2, 20280, Note_on_c, 0, 76, 0
2, 20280, Note_on_c, 0, 72, 0
2, 20400, Note_on_c, 0, 72, 57
2, 20400, Note_on_c, 0, 76, 57
2, 20520, Note_on_c, 0, 76, 0
2, 20520, Note_on_c, 0, 72, 0
2, 20640, Note_on_c, 0, 77, 64
2, 20760, Note_on_c, 0, 77, 0
2, 20760, Note_on_c, 0, 76, 57
2, 20880, Note_on_c, 0, 76, 0
2, 20880, Note_on_c, 0, 74, 57
2, 21000, Note_on_c, 0, 74, 0
2, 21000, Note_on_c, 0, 72, 57
2, 21120, Note_on_c, 0, 72, 0
2, 21120, Note_on_c, 0, 71, 65
2, 21120, Note_on_c, 0, 68, 65
2, 21360, Note_on_c, 0, 68, 0
2, 21360, Note_on_c, 0, 64, 59
2, 21600, Note_on_c, 0, 64, 0
2, 21600, Note_on_c, 0, 71, 0
2, 21600, Note_on_c, 0, 69, 56
2, 21600, Note_on_c, 0, 72, 56
2, 21720, Note_on_c, 0, 72, 0
2, 21720, Note_on_c, 0, 69, 0
2, 21840, Note_on_c, 0, 71, 56
2, 21840, Note_on_c, 0, 74, 56
2, 21960, Note_on_c, 0, 74, 0
2, 21960, Note_on_c, 0, 71, 0
2, 22080, Note_on_c, 0, 72, 66
2, 22080, Note_on_c, 0, 76, 66
2, 22200, Note_on_c, 0, 76, 0
2, 22200, Note_on_c, 0, 72, 0
2, 22320, Note_on_c, 0, 72, 57
2, 22320, Note_on_c, 0, 76, 57
2, 22440, Note_on_c, 0, 76, 0
2, 22440, Note_on_c, 0, 72, 0
2, 22560, Note_on_c, 0, 77, 64
2, 22680, Note_on_c, 0, 77, 0
2, 22680, Note_on_c, 0, 76, 57
2, 22800, Note_on_c, 0, 76, 0
2, 22800, Note_on_c, 0, 74, 57
2, 22920, Note_on_c, 0, 74, 0
2, 22920, Note_on_c, 0, 72, 57
2, 23040, Note_on_c, 0, 72, 0
2, 23040, Note_on_c, 0, 71, 65
2, 23040, Note_on_c, 0, 68, 65
2, 23520, Note_on_c, 0, 68, 0
2, 23520, Note_on_c, 0, 71, 0
2, 23520, Note_on_c, 0, 71, 56
2, 23640, Note_on_c, 0, 71, 0
2, 23640, Note_on_c, 0, 69, 56
2, 23760, Note_on_c, 0, 69, 0
2, 23760, Note_on_c, 0, 68, 56
2, 23880, Note_on_c, 0, 68, 0
2, 23880, Note_on_c, 0, 69, 56
2, 24000, Note_on_c, 0, 69, 0
2, 24000, Note_on_c, 0, 72, 59
2, 24120, Note_on_c, 0, 72, 0
2, 24480, Note_on_c, 0, 74, 62
2, 24600, Note_on_c, 0, 74, 0
2, 24600, Note_on_c, 0, 72, 57
2, 24720, Note_on_c, 0, 72, 0
2, 24720, Note_on_c, 0, 71, 57
2, 24840, Note_on_c, 0, 71, 0
2, 24840, Note_on_c, 0, 72, 57
2, 24960, Note_on_c, 0, 72, 0
2, 24960, Note_on_c, 0, 76, 66
2, 25080, Note_on_c, 0, 76, 0
2, 25440, Note_on_c, 0, 77, 63
2, 25560, Note_on_c, 0, 77, 0
2, 25560, Note_on_c, 0, 76, 58
2, 25680, Note_on_c, 0, 76, 0
2, 25680, Note_on_c, 0, 75, 58
2, 25800, Note_on_c, 0, 75, 0
2, 25800, Note_on_c, 0, 76, 58
2, 25920, Note_on_c, 0, 76, 0
2, 25920, Note_on_c, 0, 83, 70
2, 26040, Note_on_c, 0, 83, 0
2, 26040, Note_on_c, 0, 81, 63
2, 26160, Note_on_c, 0, 81, 0
2, 26160, Note_on_c, 0, 80, 63
2, 26280, Note_on_c, 0, 80, 0
2, 26280, Note_on_c, 0, 81, 63
2, 26400, Note_on_c, 0, 81, 0
2, 26400, Note_on_c, 0, 83, 71
2, 26520, Note_on_c, 0, 83, 0
2, 26520, Note_on_c, 0, 81, 64
2, 26640, Note_on_c, 0, 81, 0
2, 26640, Note_on_c, 0, 80, 64
2, 26760, Note_on_c, 0, 80, 0
2, 26760, Note_on_c, 0, 81, 64
2, 26880, Note_on_c, 0, 81, 0
2, 26880, Note_on_c, 0, 84, 76
2, 27360, Note_on_c, 0, 84, 0
2, 27360, Note_on_c, 0, 81, 62
2, 27480, Note_on_c, 0, 81, 0
2, 27600, Note_on_c, 0, 83, 62
2, 27720, Note_on_c, 0, 83, 0
2, 27840, Note_on_c, 0, 84, 70
2, 27960, Note_on_c, 0, 84, 0
2, 28080, Note_on_c, 0, 83, 62
2, 28200, Note_on_c, 0, 83, 0
2, 28320, Note_on_c, 0, 81, 62
2, 28440, Note_on_c, 0, 81, 0
2, 28560, Note_on_c, 0, 80, 62
2, 28680, Note_on_c, 0, 80, 0
2, 28800, Note_on_c, 0, 81, 71
2, 28920, Note_on_c, 0, 81, 0
2, 29040, Note_on_c, 0, 76, 64
2, 29160, Note_on_c, 0, 76, 0
2, 29284, Note_on_c, 0, 77, 64
2, 29404, Note_on_c, 0, 77, 0
2, 29520, Note_on_c, 0, 74, 64
2, 29640, Note_on_c, 0, 74, 0
2, 29760, Note_on_c, 0, 72, 74
2, 30240, Note_on_c, 0, 72, 0
2, 30240, Note_on_c, 0, 71, 64
2, 30300, Note_on_c, 0, 71, 0
2, 30300, Note_on_c, 0, 72, 57
2, 30360, Note_on_c, 0, 72, 0
2, 30360, Note_on_c, 0, 71, 57
2, 30420, Note_on_c, 0, 71, 0
2, 30420, Note_on_c, 0, 72, 57
2, 30480, Note_on_c, 0, 72, 0
2, 30480, Note_on_c, 0, 71, 57
2, 30484, Note_on_c, 0, 71, 0
2, 30520, Note_on_c, 0, 72, 57
2, 30560, Note_on_c, 0, 72, 0
2, 30560, Note_on_c, 0, 71, 57
2, 30600, Note_on_c, 0, 71, 0
2, 30600, Note_on_c, 0, 69, 64
2, 30660, Note_on_c, 0, 69, 0
2, 30660, Note_on_c, 0, 71, 57
2, 30720, Note_on_c, 0, 71, 0
2, 30720, Note_on_c, 0, 69, 65
2, 31170, Note_on_c, 0, 69, 0
2, 31200, Note_on_c, 0, 72, 56
2, 31200, Note_on_c, 0, 76, 56
2, 31320, Note_on_c, 0, 76, 0
2, 31320, Note_on_c, 0, 72, 0
2, 31440, Note_on_c, 0, 74, 56
2, 31440, Note_on_c, 0, 77, 56
2, 31560, Note_on_c, 0, 77, 0
2, 31560, Note_on_c, 0, 74, 0
2, 31680, Note_on_c, 0, 76, 66
2, 31680, Note_on_c, 0, 79, 66
2, 31800, Note_on_c, 0, 79, 0
2, 31800, Note_on_c, 0, 76, 0
2, 31920, Note_on_c, 0, 76, 57
2, 31920, Note_on_c, 0, 79, 57
2, 32040, Note_on_c, 0, 79, 0
2, 32040, Note_on_c, 0, 76, 0
2, 32160, Note_on_c, 0, 81, 64
2, 32280, Note_on_c, 0, 81, 0
2, 32280, Note_on_c, 0, 79, 57
2, 32400, Note_on_c, 0, 79, 0
2, 32400, Note_on_c, 0, 77, 57
2, 32520, Note_on_c, 0, 77, 0
2, 32520, Note_on_c, 0, 76, 57
2, 32640, Note_on_c, 0, 76, 0
2, 32640, Note_on_c, 0, 74, 65
2, 32640, Note_on_c, 0, 71, 65
2, 32880, Note_on_c, 0, 71, 0
2, 32880, Note_on_c, 0, 67, 59
2, 33120, Note_on_c, 0, 67, 0
2, 33120, Note_on_c, 0, 74, 0
2, 33120, Note_on_c, 0, 72, 56
2, 33120, Note_on_c, 0, 76, 56
2, 33240, Note_on_c, 0, 76, 0
2, 33240, Note_on_c, 0, 72, 0
2, 33360, Note_on_c, 0, 74, 56
2, 33360, Note_on_c, 0, 77, 56
2, 33480, Note_on_c, 0, 77, 0
2, 33480, Note_on_c, 0, 74, 0
2, 33600, Note_on_c, 0, 76, 66
2, 33600, Note_on_c, 0, 79, 66
2, 33720, Note_on_c, 0, 79, 0
2, 33720, Note_on_c, 0, 76, 0
2, 33840, Note_on_c, 0, 76, 57
2, 33840, Note_on_c, 0, 79, 57
2, 33960, Note_on_c, 0, 79, 0
2, 33960, Note_on_c, 0, 76, 0
2, 34080, Note_on_c, 0, 81, 64
2, 34200, Note_on_c, 0, 81, 0
2, 34200, Note_on_c, 0, 79, 57
2, 34320, Note_on_c, 0, 79, 0
2, 34320, Note_on_c, 0, 77, 57
2, 34440, Note_on_c, 0, 77, 0
2, 34440, Note_on_c, 0, 76, 57
2, 34560, Note_on_c, 0, 76, 0
2, 34560, Note_on_c, 0, 74, 65
2, 34560, Note_on_c, 0, 71, 65
2, 35040, Note_on_c, 0, 71, 0
2, 35040, Note_on_c, 0, 74, 0
2, 35040, Note_on_c, 0, 69, 56
2, 35040, Note_on_c, 0, 72, 56
2, 35160, Note_on_c, 0, 72, 0
2, 35160, Note_on_c, 0, 69, 0
2, 35280, Note_on_c, 0, 71, 56
2, 35280, Note_on_c, 0, 74, 56
2, 35400, Note_on_c, 0, 74, 0
2, 35400, Note_on_c, 0, 71, 0
2, 35520, Note_on_c, 0, 72, 66
2, 35520, Note_on_c, 0, 76, 66
2, 35640, Note_on_c, 0, 76, 0
2, 35640, Note_on_c, 0, 72, 0
2, 35760, Note_on_c, 0, 72, 57
2, 35760, Note_on_c, 0, 76, 57
2, 35880, Note_on_c, 0, 76, 0
2, 35880, Note_on_c, 0, 72, 0
2, 36000, Note_on_c, 0, 77, 64
2, 36120, Note_on_c, 0, 77, 0
2, 36120, Note_on_c, 0, 76, 57
2, 36240, Note_on_c, 0, 76, 0
2, 36240, Note_on_c, 0, 74, 57
2, 36360, Note_on_c, 0, 74, 0
2, 36360, Note_on_c, 0, 72, 57
2, 36480, Note_on_c, 0, 72, 0
2, 36480, Note_on_c, 0, 71, 65
2, 36480, Note_on_c, 0, 68, 65
2, 36720, Note_on_c, 0, 68, 0
2, 36720, Note_on_c, 0, 64, 59
2, 36960, Note_on_c, 0, 64, 0
2, 36960, Note_on_c, 0, 71, 0
2, 36960, Note_on_c, 0, 69, 56
2, 36960, Note_on_c, 0, 72, 56
2, 37080, Note_on_c, 0, 72, 0
2, 37080, Note_on_c, 0, 69, 0
2, 37200, Note_on_c, 0, 71, 56
2, 37200, Note_on_c, 0, 74, 56
2, 37320, Note_on_c, 0, 74, 0
2, 37320, Note_on_c, 0, 71, 0
2, 37440, Note_on_c, 0, 72, 66
2, 37440, Note_on_c, 0, 76, 66
2, 37560, Note_on_c, 0, 76, 0
2, 37560, Note_on_c, 0, 72, 0
2, 37680, Note_on_c, 0, 72, 57
2, 37680, Note_on_c, 0, 76, 57
2, 37800, Note_on_c, 0, 76, 0
2, 37800, Note_on_c, 0, 72, 0
2, 37920, Note_on_c, 0, 77, 64
2, 38040, Note_on_c, 0, 77, 0
2, 38040, Note_on_c, 0, 76, 57
2, 38160, Note_on_c, 0, 76, 0
2, 38160, Note_on_c, 0, 74, 57
2, 38280, Note_on_c, 0, 74, 0
2, 38280, Note_on_c, 0, 72, 57
2, 38400, Note_on_c, 0, 72, 0
2, 38400, Note_on_c, 0, 71, 65
2, 38400, Note_on_c, 0, 68, 65
2, 38880, Note_on_c, 0, 68, 0
2, 38880, Note_on_c, 0, 71, 0
2, 38880, Note_on_c, 0, 71, 56
2, 39000, Note_on_c, 0, 71, 0
2, 39000, Note_on_c, 0, 69, 56
2, 39120, Note_on_c, 0, 69, 0
2, 39120, Note_on_c, 0, 68, 56
2, 39240, Note_on_c, 0, 68, 0
2, 39240, Note_on_c, 0, 69, 56
2, 39360, Note_on_c, 0, 69, 0
2, 39360, Note_on_c, 0, 72, 59
2, 39480, Note_on_c, 0, 72, 0
2, 39840, Note_on_c, 0, 74, 62
2, 39960, Note_on_c, 0, 74, 0
2, 39960, Note_on_c, 0, 72, 57
2, 40080, Note_on_c, 0, 72, 0
2, 40080, Note_on_c, 0, 71, 57
2, 40200, Note_on_c, 0, 71, 0
2, 40200, Note_on_c, 0, 72, 57
2, 40320, Note_on_c, 0, 72, 0
2, 40320, Note_on_c, 0, 76, 66
2, 40440, Note_on_c, 0, 76, 0
2, 40800, Note_on_c, 0, 77, 63
2, 40920, Note_on_c, 0, 77, 0
2, 40920, Note_on_c, 0, 76, 58
2, 41040, Note_on_c, 0, 76, 0
2, 41040, Note_on_c, 0, 75, 58
2, 41160, Note_on_c, 0, 75, 0
2, 41160, Note_on_c, 0, 76, 58
2, 41280, Note_on_c, 0, 76, 0
2, 41280, Note_on_c, 0, 83, 70
2, 41400, Note_on_c, 0, 83, 0
2, 41400, Note_on_c, 0, 81, 63
2, 41520, Note_on_c, 0, 81, 0
2, 41520, Note_on_c, 0, 80, 63
2, 41640, Note_on_c, 0, 80, 0
2, 41640, Note_on_c, 0, 81, 63
2, 41760, Note_on_c, 0, 81, 0
2, 41760, Note_on_c, 0, 83, 71
2, 41880, Note_on_c, 0, 83, 0
2, 41880, Note_on_c, 0, 81, 64
2, 42000, Note_on_c, 0, 81, 0
2, 42000, Note_on_c, 0, 80, 64
2, 42120, Note_on_c, 0, 80, 0
2, 42120, Note_on_c, 0, 81, 64
2, 42240, Note_on_c, 0, 81, 0
2, 42240, Note_on_c, 0, 84, 76
2, 42720, Note_on_c, 0, 84, 0
2, 42720, Note_on_c, 0, 81, 62
2, 42840, Note_on_c, 0, 81, 0
2, 42960, Note_on_c, 0, 83, 62
2, 43080, Note_on_c, 0, 83, 0
2, 43200, Note_on_c, 0, 84, 70
2, 43320, Note_on_c, 0, 84, 0
2, 43440, Note_on_c, 0, 83, 62
2, 43560, Note_on_c, 0, 83, 0
2, 43680, Note_on_c, 0, 81, 62
2, 43800, Note_on_c, 0, 81, 0
2, 43920, Note_on_c, 0, 80, 62
2, 44040, Note_on_c, 0, 80, 0
2, 44160, Note_on_c, 0, 81, 71
2, 44280, Note_on_c, 0, 81, 0
2, 44400, Note_on_c, 0, 76, 64
2, 44520, Note_on_c, 0, 76, 0
2, 44644, Note_on_c, 0, 77, 64
2, 44764, Note_on_c, 0, 77, 0
2, 44880, Note_on_c, 0, 74, 64
2, 45000, Note_on_c, 0, 74, 0
2, 45120, Note_on_c, 0, 72, 74
2, 45600, Note_on_c, 0, 72, 0
2, 45600, Note_on_c, 0, 71, 64
2, 45660, Note_on_c, 0, 71, 0
2, 45660, Note_on_c, 0, 72, 57
2, 45720, Note_on_c, 0, 72, 0
2, 45720, Note_on_c, 0, 71, 57
2, 45780, Note_on_c, 0, 71, 0
2, 45780, Note_on_c, 0, 72, 57
2, 45840, Note_on_c, 0, 72, 0
2, 45840, Note_on_c, 0, 71, 57
2, 45844, Note_on_c, 0, 71, 0
2, 45880, Note_on_c, 0, 72, 57
2, 45920, Note_on_c, 0, 72, 0
2, 45920, Note_on_c, 0, 71, 57
2, 45960, Note_on_c, 0, 71, 0
2, 45960, Note_on_c, 0, 69, 64
2, 46020, Note_on_c, 0, 69, 0
2, 46020, Note_on_c, 0, 71, 57
2, 46080, Note_on_c, 0, 71, 0
2, 46080, Note_on_c, 0, 69, 65
2, 46530, Note_on_c, 0, 69, 0
2, 46560, Note_on_c, 0, 69, 73
2, 46560, Note_on_c, 0, 81, 84
2, 46680, Note_on_c, 0, 81, 0
2, 46680, Note_on_c, 0, 69, 0
2, 46800, Note_on_c, 0, 71, 73
2, 46800, Note_on_c, 0, 83, 84
2, 46920, Note_on_c, 0, 83, 0
2, 46920, Note_on_c, 0, 71, 0
2, 47040, Note_on_c, 0, 73, 78
2, 47040, Note_on_c, 0, 85, 90
2, 47520, Note_on_c, 0, 85, 0
2, 47520, Note_on_c, 0, 73, 0
2, 47520, Note_on_c, 0, 69, 73
2, 47520, Note_on_c, 0, 81, 84
2, 47640, Note_on_c, 0, 81, 0
2, 47640, Note_on_c, 0, 69, 0
2, 47760, Note_on_c, 0, 71, 73
2, 47760, Note_on_c, 0, 83, 84
2, 47880, Note_on_c, 0, 83, 0
2, 47880, Note_on_c, 0, 71, 0
2, 48000, Note_on_c, 0, 73, 79
2, 48000, Note_on_c, 0, 85, 91
2, 48120, Note_on_c, 0, 85, 0
2, 48120, Note_on_c, 0, 73, 0
2, 48240, Note_on_c, 0, 71, 72
2, 48240, Note_on_c, 0, 83, 82
2, 48360, Note_on_c, 0, 83, 0
2, 48360, Note_on_c, 0, 71, 0
2, 48480, Note_on_c, 0, 69, 77
2, 48480, Note_on_c, 0, 81, 89
2, 48600, Note_on_c, 0, 81, 0
2, 48600, Note_on_c, 0, 69, 0
2, 48720, Note_on_c, 0, 68, 73
2, 48720, Note_on_c, 0, 80, 84
2, 48840, Note_on_c, 0, 80, 0
2, 48840, Note_on_c, 0, 68, 0
2, 48960, Note_on_c, 0, 66, 80
2, 48960, Note_on_c, 0, 78, 92
2, 49080, Note_on_c, 0, 78, 0
2, 49080, Note_on_c, 0, 66, 0
2, 49200, Note_on_c, 0, 68, 69
2, 49200, Note_on_c, 0, 80, 78
2, 49320, Note_on_c, 0, 80, 0
2, 49320, Note_on_c, 0, 68, 0
2, 49440, Note_on_c, 0, 69, 75
2, 49440, Note_on_c, 0, 81, 86
2, 49560, Note_on_c, 0, 81, 0
2, 49560, Note_on_c, 0, 69, 0
2, 49680, Note_on_c, 0, 71, 70
2, 49680, Note_on_c, 0, 83, 80
2, 49800, Note_on_c, 0, 83, 0
2, 49800, Note_on_c, 0, 71, 0
2, 49920, Note_on_c, 0, 68, 78
2, 49920, Note_on_c, 0, 80, 90
2, 50160, Note_on_c, 0, 80, 0
2, 50160, Note_on_c, 0, 68, 0
2, 50160, Note_on_c, 0, 64, 73
2, 50160, Note_on_c, 0, 76, 84
2, 50280, Note_on_c, 0, 76, 0
2, 50280, Note_on_c, 0, 64, 0
2, 50400, Note_on_c, 0, 69, 73
2, 50400, Note_on_c, 0, 81, 84
2, 50520, Note_on_c, 0, 81, 0
2, 50520, Note_on_c, 0, 69, 0
2, 50640, Note_on_c, 0, 71, 73
2, 50640, Note_on_c, 0, 83, 84
2, 50760, Note_on_c, 0, 83, 0
2, 50760, Note_on_c, 0, 71, 0
2, 50880, Note_on_c, 0, 73, 78
2, 50880, Note_on_c, 0, 85, 90
2, 51360, Note_on_c, 0, 85, 0
2, 51360, Note_on_c, 0, 73, 0
2, 51360, Note_on_c, 0, 69, 73
2, 51360, Note_on_c, 0, 81, 84
2, 51480, Note_on_c, 0, 81, 0
2, 51480, Note_on_c, 0, 69, 0
2, 51600, Note_on_c, 0, 71, 73
2, 51600, Note_on_c, 0, 83, 84
2, 51720, Note_on_c, 0, 83, 0
2, 51720, Note_on_c, 0, 71, 0
2, 51840, Note_on_c, 0, 73, 79
2, 51840, Note_on_c, 0, 85, 91
2, 51960, Note_on_c, 0, 85, 0
2, 51960, Note_on_c, 0, 73, 0
2, 52080, Note_on_c, 0, 71, 72
2, 52080, Note_on_c, 0, 83, 82
2, 52200, Note_on_c, 0, 83, 0
2, 52200, Note_on_c, 0, 71, 0
2, 52320, Note_on_c, 0, 69, 77
2, 52320, Note_on_c, 0, 81, 89
2, 52440, Note_on_c, 0, 81, 0
2, 52440, Note_on_c, 0, 69, 0
2, 52560, Note_on_c, 0, 68, 73
2, 52560, Note_on_c, 0, 80, 84
2, 52680, Note_on_c, 0, 80, 0
2, 52680, Note_on_c, 0, 68, 0
2, 52800, Note_on_c, 0, 66, 80
2, 52800, Note_on_c, 0, 78, 92
2, 52920, Note_on_c, 0, 78, 0
2, 52920, Note_on_c, 0, 66, 0
2, 53040, Note_on_c, 0, 71, 69
2, 53040, Note_on_c, 0, 83, 78
2, 53160, Note_on_c, 0, 83, 0
2, 53160, Note_on_c, 0, 71, 0
2, 53280, Note_on_c, 0, 68, 75
2, 53280, Note_on_c, 0, 80, 86
2, 53400, Note_on_c, 0, 80, 0
2, 53400, Note_on_c, 0, 68, 0
2, 53520, Note_on_c, 0, 64, 70
2, 53520, Note_on_c, 0, 76, 80
2, 53640, Note_on_c, 0, 76, 0
2, 53640, Note_on_c, 0, 64, 0
2, 53760, Note_on_c, 0, 69, 78
2, 53760, Note_on_c, 0, 81, 90
2, 54210, Note_on_c, 0, 81, 0
2, 54210, Note_on_c, 0, 69, 0
2, 54240, Note_on_c, 0, 69, 73
2, 54240, Note_on_c, 0, 81, 84
2, 54360, Note_on_c, 0, 81, 0
2, 54360, Note_on_c, 0, 69, 0
2, 54480, Note_on_c, 0, 71, 73
2, 54480, Note_on_c, 0, 83, 84
2, 54600, Note_on_c, 0, 83, 0
2, 54600, Note_on_c, 0, 71, 0
2, 54720, Note_on_c, 0, 73, 78
2, 54720, Note_on_c, 0, 85, 90
2, 55200, Note_on_c, 0, 85, 0
2, 55200, Note_on_c, 0, 73, 0
2, 55200, Note_on_c, 0, 69, 73
2, 55200, Note_on_c, 0, 81, 84
2, 55320, Note_on_c, 0, 81, 0
2, 55320, Note_on_c, 0, 69, 0
2, 55440, Note_on_c, 0, 71, 73
2, 55440, Note_on_c, 0, 83, 84
2, 55560, Note_on_c, 0, 83, 0
2, 55560, Note_on_c, 0, 71, 0
2, 55680, Note_on_c, 0, 73, 79
2, 55680, Note_on_c, 0, 85, 91
2, 55800, Note_on_c, 0, 85, 0
2, 55800, Note_on_c, 0, 73, 0
2, 55920, Note_on_c, 0, 71, 72
2, 55920, Note_on_c, 0, 83, 82
2, 56040, Note_on_c, 0, 83, 0
2, 56040, Note_on_c, 0, 71, 0
2, 56160, Note_on_c, 0, 69, 77
2, 56160, Note_on_c, 0, 81, 89
2, 56280, Note_on_c, 0, 81, 0
2, 56280, Note_on_c, 0, 69, 0
2, 56400, Note_on_c, 0, 68, 73
2, 56400, Note_on_c, 0, 80, 84
2, 56520, Note_on_c, 0, 80, 0
2, 56520, Note_on_c, 0, 68, 0
2, 56640, Note_on_c, 0, 66, 80
2, 56640, Note_on_c, 0, 78, 92
2, 56760, Note_on_c, 0, 78, 0
2, 56760, Note_on_c, 0, 66, 0
2, 56880, Note_on_c, 0, 68, 69
2, 56880, Note_on_c, 0, 80, 78
2, 57000, Note_on_c, 0, 80, 0
2, 57000, Note_on_c, 0, 68, 0
2, 57120, Note_on_c, 0, 69, 75
2, 57120, Note_on_c, 0, 81, 86
2, 57240, Note_on_c, 0, 81, 0
2, 57240, Note_on_c, 0, 69, 0
2, 57360, Note_on_c, 0, 71, 70
2, 57360, Note_on_c, 0, 83, 80
2, 57480, Note_on_c, 0, 83, 0
2, 57480, Note_on_c, 0, 71, 0
2, 57600, Note_on_c, 0, 68, 78
2, 57600, Note_on_c, 0, 80, 90
2, 57840, Note_on_c, 0, 80, 0
2, 57840, Note_on_c, 0, 68, 0
2, 57840, Note_on_c, 0, 64, 73
2, 57840, Note_on_c, 0, 76, 84
2, 57960, Note_on_c, 0, 76, 0
2, 57960, Note_on_c, 0, 64, 0
2, 58080, Note_on_c, 0, 69, 73
2, 58080, Note_on_c, 0, 81, 84
2, 58200, Note_on_c, 0, 81, 0
2, 58200, Note_on_c, 0, 69, 0
2, 58320, Note_on_c, 0, 71, 73
2, 58320, Note_on_c, 0, 83, 84
2, 58440, Note_on_c, 0, 83, 0
2, 58440, Note_on_c, 0, 71, 0
2, 58560, Note_on_c, 0, 73, 78
2, 58560, Note_on_c, 0, 85, 90
2, 59040, Note_on_c, 0, 85, 0
2, 59040, Note_on_c, 0, 73, 0
2, 59040, Note_on_c, 0, 69, 73
2, 59040, Note_on_c, 0, 81, 84
2, 59160, Note_on_c, 0, 81, 0
2, 59160, Note_on_c, 0, 69, 0
2, 59280, Note_on_c, 0, 71, 73
2, 59280, Note_on_c, 0, 83, 84
2, 59400, Note_on_c, 0, 83, 0
2, 59400, Note_on_c, 0, 71, 0
2, 59520, Note_on_c, 0, 73, 79
2, 59520, Note_on_c, 0, 85, 91
2, 59640, Note_on_c, 0, 85, 0
2, 59640, Note_on_c, 0, 73, 0
2, 59760, Note_on_c, 0, 71, 72
2, 59760, Note_on_c, 0, 83, 82
2, 59880, Note_on_c, 0, 83, 0
2, 59880, Note_on_c, 0, 71, 0
2, 60000, Note_on_c, 0, 69, 77
2, 60000, Note_on_c, 0, 81, 89
2, 60120, Note_on_c, 0, 81, 0
2, 60120, Note_on_c, 0, 69, 0
2, 60240, Note_on_c, 0, 68, 73
2, 60240, Note_on_c, 0, 80, 84
2, 60360, Note_on_c, 0, 80, 0
2, 60360, Note_on_c, 0, 68, 0
2, 60480, Note_on_c, 0, 66, 80
2, 60480, Note_on_c, 0, 78, 92
2, 60600, Note_on_c, 0, 78, 0
2, 60600, Note_on_c, 0, 66, 0
2, 60720, Note_on_c, 0, 71, 69
2, 60720, Note_on_c, 0, 83, 78
2, 60840, Note_on_c, 0, 83, 0
2, 60840, Note_on_c, 0, 71, 0
2, 60960, Note_on_c, 0, 68, 75
2, 60960, Note_on_c, 0, 80, 86
2, 61080, Note_on_c, 0, 80, 0
2, 61080, Note_on_c, 0, 68, 0
2, 61200, Note_on_c, 0, 64, 70
2, 61200, Note_on_c, 0, 76, 80
2, 61320, Note_on_c, 0, 76, 0
2, 61320, Note_on_c, 0, 64, 0
2, 61440, Note_on_c, 0, 69, 78
2, 61440, Note_on_c, 0, 81, 90
2, 61890, Note_on_c, 0, 81, 0
2, 61890, Note_on_c, 0, 69, 0
2, 61920, Note_on_c, 0, 85, 60
2, 62040, Note_on_c, 0, 86, 52
2, 62052, Note_on_c, 0, 85, 0
2, 62160, Note_on_c, 0, 85, 52
2, 62172, Note_on_c, 0, 86, 0
2, 62280, Note_on_c, 0, 83, 52
2, 62292, Note_on_c, 0, 85, 0
2, 62400, Note_on_c, 0, 81, 58
2, 62412, Note_on_c, 0, 83, 0
2, 62520, Note_on_c, 0, 83, 50
2, 62532, Note_on_c, 0, 81, 0
2, 62640, Note_on_c, 0, 81, 50
2, 62652, Note_on_c, 0, 83, 0
2, 62760, Note_on_c, 0, 80, 50
2, 62772, Note_on_c, 0, 81, 0
2, 62880, Note_on_c, 0, 78, 56
2, 62892, Note_on_c, 0, 80, 0
2, 63000, Note_on_c, 0, 81, 50
2, 63012, Note_on_c, 0, 78, 0
2, 63120, Note_on_c, 0, 80, 46
2, 63132, Note_on_c, 0, 81, 0
2, 63240, Note_on_c, 0, 78, 46
2, 63252, Note_on_c, 0, 80, 0
2, 63360, Note_on_c, 0, 77, 58
2, 63372, Note_on_c, 0, 78, 0
2, 63480, Note_on_c, 0, 78, 47
2, 63492, Note_on_c, 0, 77, 0
2, 63600, Note_on_c, 0, 80, 49
2, 63612, Note_on_c, 0, 78, 0
2, 63720, Note_on_c, 0, 77, 46
2, 63732, Note_on_c, 0, 80, 0
2, 63840, Note_on_c, 0, 73, 56
2, 63852, Note_on_c, 0, 77, 0
2, 63960, Note_on_c, 0, 75, 47
2, 63972, Note_on_c, 0, 73, 0
2, 64080, Note_on_c, 0, 77, 50
2, 64092, Note_on_c, 0, 75, 0
2, 64200, Note_on_c, 0, 73, 47
2, 64212, Note_on_c, 0, 77, 0
2, 64320, Note_on_c, 0, 78, 56
2, 64332, Note_on_c, 0, 73, 0
2, 64440, Note_on_c, 0, 77, 47
2, 64452, Note_on_c, 0, 78, 0
2, 64560, Note_on_c, 0, 78, 51
2, 64572, Note_on_c, 0, 77, 0
2, 64680, Note_on_c, 0, 80, 48
2, 64692, Note_on_c, 0, 78, 0
2, 64800, Note_on_c, 0, 81, 58
2, 64812, Note_on_c, 0, 80, 0
2, 64920, Note_on_c, 0, 80, 54
2, 64932, Note_on_c, 0, 81, 0
2, 65040, Note_on_c, 0, 81, 56
2, 65052, Note_on_c, 0, 80, 0
2, 65160, Note_on_c, 0, 83, 59
2, 65172, Note_on_c, 0, 81, 0
2, 65280, Note_on_c, 0, 85, 68
2, 65292, Note_on_c, 0, 83, 0
2, 65400, Note_on_c, 0, 84, 62
2, 65412, Note_on_c, 0, 85, 0
2, 65520, Note_on_c, 0, 85, 66
2, 65532, Note_on_c, 0, 84, 0
2, 65640, Note_on_c, 0, 84, 59
2, 65652, Note_on_c, 0, 85, 0
2, 65760, Note_on_c, 0, 84, 0
2, 65760, Note_on_c, 0, 85, 61
2, 65880, Note_on_c, 0, 86, 55
2, 65892, Note_on_c, 0, 85, 0
2, 66000, Note_on_c, 0, 85, 55
2, 66012, Note_on_c, 0, 86, 0
2, 66120, Note_on_c, 0, 83, 55
2, 66132, Note_on_c, 0, 85, 0
2, 66240, Note_on_c, 0, 81, 58
2, 66252, Note_on_c, 0, 83, 0
2, 66360, Note_on_c, 0, 83, 47
2, 66372, Note_on_c, 0, 81, 0
2, 66480, Note_on_c, 0, 81, 53
2, 66492, Note_on_c, 0, 83, 0
2, 66600, Note_on_c, 0, 80, 47
2, 66612, Note_on_c, 0, 81, 0
2, 66720, Note_on_c, 0, 78, 54
2, 66732, Note_on_c, 0, 80, 0
2, 66840, Note_on_c, 0, 81, 47
2, 66852, Note_on_c, 0, 78, 0
2, 66960, Note_on_c, 0, 80, 50
2, 66972, Note_on_c, 0, 81, 0
2, 67080, Note_on_c, 0, 78, 46
2, 67092, Note_on_c, 0, 80, 0
2, 67200, Note_on_c, 0, 76, 56
2, 67212, Note_on_c, 0, 78, 0
2, 67320, Note_on_c, 0, 78, 47
2, 67332, Note_on_c, 0, 76, 0
2, 67440, Note_on_c, 0, 80, 50
2, 67452, Note_on_c, 0, 78, 0
2, 67560, Note_on_c, 0, 76, 47
2, 67572, Note_on_c, 0, 80, 0
2, 67680, Note_on_c, 0, 73, 54
2, 67692, Note_on_c, 0, 76, 0
2, 67800, Note_on_c, 0, 75, 47
2, 67812, Note_on_c, 0, 73, 0
2, 67920, Note_on_c, 0, 76, 53
2, 67932, Note_on_c, 0, 75, 0
2, 68040, Note_on_c, 0, 73, 47
2, 68052, Note_on_c, 0, 76, 0
2, 68160, Note_on_c, 0, 75, 53
2, 68172, Note_on_c, 0, 73, 0
2, 68280, Note_on_c, 0, 76, 47
2, 68292, Note_on_c, 0, 75, 0
2, 68400, Note_on_c, 0, 78, 51
2, 68412, Note_on_c, 0, 76, 0
2, 68520, Note_on_c, 0, 75, 47
2, 68532, Note_on_c, 0, 78, 0
2, 68640, Note_on_c, 0, 72, 50
2, 68652, Note_on_c, 0, 75, 0
2, 68760, Note_on_c, 0, 73, 47
2, 68772, Note_on_c, 0, 72, 0
2, 68880, Note_on_c, 0, 75, 50
2, 68892, Note_on_c, 0, 73, 0
2, 69000, Note_on_c, 0, 72, 46
2, 69012, Note_on_c, 0, 75, 0
2, 69120, Note_on_c, 0, 73, 52
2, 69132, Note_on_c, 0, 72, 0
2, 69570, Note_on_c, 0, 73, 0
2, 69600, Note_on_c, 0, 85, 60
2, 69720, Note_on_c, 0, 86, 52
2, 69732, Note_on_c, 0, 85, 0
2, 69840, Note_on_c, 0, 85, 52
2, 69852, Note_on_c, 0, 86, 0
2, 69960, Note_on_c, 0, 83, 52
2, 69972, Note_on_c, 0, 85, 0
2, 70080, Note_on_c, 0, 81, 58
2, 70092, Note_on_c, 0, 83, 0
2, 70200, Note_on_c, 0, 83, 50
2, 70212, Note_on_c, 0, 81, 0
2, 70320, Note_on_c, 0, 81, 50
2, 70332, Note_on_c, 0, 83, 0
2, 70440, Note_on_c, 0, 80, 50
2, 70452, Note_on_c, 0, 81, 0
2, 70560, Note_on_c, 0, 78, 56
2, 70572, Note_on_c, 0, 80, 0
2, 70680, Note_on_c, 0, 81, 50
2, 70692, Note_on_c, 0, 78, 0
2, 70800, Note_on_c, 0, 80, 46
2, 70812, Note_on_c, 0, 81, 0
2, 70920, Note_on_c, 0, 78, 46
2, 70932, Note_on_c, 0, 80, 0
2, 71040, Note_on_c, 0, 77, 58
2, 71052, Note_on_c, 0, 78, 0
2, 71160, Note_on_c, 0, 78, 47
2, 71172, Note_on_c, 0, 77, 0
2, 71280, Note_on_c, 0, 80, 49
2, 71292, Note_on_c, 0, 78, 0
2, 71400, Note_on_c, 0, 77, 46
2, 71412, Note_on_c, 0, 80, 0
2, 71520, Note_on_c, 0, 73, 56
2, 71532, Note_on_c, 0, 77, 0
2, 71640, Note_on_c, 0, 75, 47
2, 71652, Note_on_c, 0, 73, 0
2, 71760, Note_on_c, 0, 77, 50
2, 71772, Note_on_c, 0, 75, 0
2, 71880, Note_on_c, 0, 73, 47
2, 71892, Note_on_c, 0, 77, 0
2, 72000, Note_on_c, 0, 78, 56
2, 72012, Note_on_c, 0, 73, 0
2, 72120, Note_on_c, 0, 77, 47
2, 72132, Note_on_c, 0, 78, 0
2, 72240, Note_on_c, 0, 78, 51
2, 72252, Note_on_c, 0, 77, 0
2, 72360, Note_on_c, 0, 80, 48
2, 72372, Note_on_c, 0, 78, 0
2, 72480, Note_on_c, 0, 81, 58
2, 72492, Note_on_c, 0, 80, 0
2, 72600, Note_on_c, 0, 80, 54
2, 72612, Note_on_c, 0, 81, 0
2, 72720, Note_on_c, 0, 81, 56
2, 72732, Note_on_c, 0, 80, 0
2, 72840, Note_on_c, 0, 83, 59
2, 72852, Note_on_c, 0, 81, 0
2, 72960, Note_on_c, 0, 85, 68
2, 72972, Note_on_c, 0, 83, 0
2, 73080, Note_on_c, 0, 84, 62
2, 73092, Note_on_c, 0, 85, 0
2, 73200, Note_on_c, 0, 85, 66
2, 73212, Note_on_c, 0, 84, 0
2, 73320, Note_on_c, 0, 84, 59
2, 73332, Note_on_c, 0, 85, 0
2, 73440, Note_on_c, 0, 84, 0
2, 73440, Note_on_c, 0, 85, 64
2, 73560, Note_on_c, 0, 86, 57
2, 73572, Note_on_c, 0, 85, 0
2, 73680, Note_on_c, 0, 85, 57
2, 73692, Note_on_c, 0, 86, 0
2, 73800, Note_on_c, 0, 83, 57
2, 73812, Note_on_c, 0, 85, 0
2, 73920, Note_on_c, 0, 81, 60
2, 73932, Note_on_c, 0, 83, 0
2, 74040, Note_on_c, 0, 83, 51
2, 74052, Note_on_c, 0, 81, 0
2, 74160, Note_on_c, 0, 81, 55
2, 74172, Note_on_c, 0, 83, 0
2, 74280, Note_on_c, 0, 80, 47
2, 74292, Note_on_c, 0, 81, 0
2, 74400, Note_on_c, 0, 78, 54
2, 74412, Note_on_c, 0, 80, 0
2, 74520, Note_on_c, 0, 81, 47
2, 74532, Note_on_c, 0, 78, 0
2, 74640, Note_on_c, 0, 80, 50
2, 74652, Note_on_c, 0, 81, 0
2, 74760, Note_on_c, 0, 78, 46
2, 74772, Note_on_c, 0, 80, 0
2, 74880, Note_on_c, 0, 76, 53
2, 74892, Note_on_c, 0, 78, 0
2, 75000, Note_on_c, 0, 78, 47
2, 75012, Note_on_c, 0, 76, 0
2, 75120, Note_on_c, 0, 80, 50
2, 75132, Note_on_c, 0, 78, 0
2, 75240, Note_on_c, 0, 76, 47
2, 75252, Note_on_c, 0, 80, 0
2, 75360, Note_on_c, 0, 73, 54
2, 75372, Note_on_c, 0, 76, 0
2, 75480, Note_on_c, 0, 75, 47
2, 75492, Note_on_c, 0, 73, 0
2, 75600, Note_on_c, 0, 76, 53
2, 75612, Note_on_c, 0, 75, 0
2, 75720, Note_on_c, 0, 73, 47
2, 75732, Note_on_c, 0, 76, 0
2, 75840, Note_on_c, 0, 75, 53
2, 75852, Note_on_c, 0, 73, 0
2, 75960, Note_on_c, 0, 76, 47
2, 75972, Note_on_c, 0, 75, 0
2, 76080, Note_on_c, 0, 78, 51
2, 76092, Note_on_c, 0, 76, 0
2, 76200, Note_on_c, 0, 75, 47
2, 76212, Note_on_c, 0, 78, 0
2, 76320, Note_on_c, 0, 72, 50
2, 76332, Note_on_c, 0, 75, 0
2, 76440, Note_on_c, 0, 73, 47
2, 76452, Note_on_c, 0, 72, 0
2, 76560, Note_on_c, 0, 75, 50
2, 76572, Note_on_c, 0, 73, 0
2, 76680, Note_on_c, 0, 72, 46
2, 76692, Note_on_c, 0, 75, 0
2, 76800, Note_on_c, 0, 73, 52
2, 76812, Note_on_c, 0, 72, 0
2, 77250, Note_on_c, 0, 73, 0
2, 77280, Note_on_c, 0, 76, 69
2, 77400, Note_on_c, 0, 74, 59
2, 77412, Note_on_c, 0, 76, 0
2, 77520, Note_on_c, 0, 73, 59
2, 77532, Note_on_c, 0, 74, 0
2, 77640, Note_on_c, 0, 71, 59
2, 77652, Note_on_c, 0, 73, 0
2, 77760, Note_on_c, 0, 69, 66
2, 77772, Note_on_c, 0, 71, 0
2, 77880, Note_on_c, 0, 71, 57
2, 77892, Note_on_c, 0, 69, 0
2, 78000, Note_on_c, 0, 73, 57
2, 78012, Note_on_c, 0, 71, 0
2, 78120, Note_on_c, 0, 74, 57
2, 78132, Note_on_c, 0, 73, 0
2, 78240, Note_on_c, 0, 76, 64
2, 78252, Note_on_c, 0, 74, 0
2, 78360, Note_on_c, 0, 78, 57
2, 78372, Note_on_c, 0, 76, 0
2, 78480, Note_on_c, 0, 80, 56
2, 78492, Note_on_c, 0, 78, 0
2, 78600, Note_on_c, 0, 81, 56
2, 78612, Note_on_c, 0, 80, 0
2, 78715, Note_on_c, 0, 81, 0
2, 78720, Note_on_c, 0, 81, 66
2, 78840, Note_on_c, 0, 80, 60
2, 78852, Note_on_c, 0, 81, 0
2, 78960, Note_on_c, 0, 78, 60
2, 78972, Note_on_c, 0, 80, 0
2, 79080, Note_on_c, 0, 76, 57
2, 79092, Note_on_c, 0, 78, 0
2, 79195, Note_on_c, 0, 76, 0
2, 79200, Note_on_c, 0, 76, 64
2, 79320, Note_on_c, 0, 74, 59
2, 79332, Note_on_c, 0, 76, 0
2, 79440, Note_on_c, 0, 73, 59
2, 79452, Note_on_c, 0, 74, 0
2, 79560, Note_on_c, 0, 71, 59
2, 79572, Note_on_c, 0, 73, 0
2, 79680, Note_on_c, 0, 69, 64
2, 79692, Note_on_c, 0, 71, 0
2, 79800, Note_on_c, 0, 71, 54
2, 79812, Note_on_c, 0, 69, 0
2, 79920, Note_on_c, 0, 73, 57
2, 79932, Note_on_c, 0, 71, 0
2, 80040, Note_on_c, 0, 74, 54
2, 80052, Note_on_c, 0, 73, 0
2, 80160, Note_on_c, 0, 76, 64
2, 80172, Note_on_c, 0, 74, 0
2, 80280, Note_on_c, 0, 78, 58
2, 80292, Note_on_c, 0, 76, 0
2, 80400, Note_on_c, 0, 80, 60
2, 80412, Note_on_c, 0, 78, 0
2, 80520, Note_on_c, 0, 81, 63
2, 80532, Note_on_c, 0, 80, 0
2, 80640, Note_on_c, 0, 81, 0
2, 80640, Note_on_c, 0, 82, 75
2, 80880, Note_on_c, 0, 82, 0
2, 80880, Note_on_c, 0, 83, 69
2, 81012, Note_on_c, 0, 83, 0
2, 81120, Note_on_c, 0, 76, 69
2, 81240, Note_on_c, 0, 74, 59
2, 81252, Note_on_c, 0, 76, 0
2, 81360, Note_on_c, 0, 73, 59
2, 81372, Note_on_c, 0, 74, 0
2, 81480, Note_on_c, 0, 71, 59
2, 81492, Note_on_c, 0, 73, 0
2, 81600, Note_on_c, 0, 69, 66
2, 81612, Note_on_c, 0, 71, 0
2, 81720, Note_on_c, 0, 71, 57
2, 81732, Note_on_c, 0, 69, 0
2, 81840, Note_on_c, 0, 73, 57
2, 81852, Note_on_c, 0, 71, 0
2, 81960, Note_on_c, 0, 74, 57
2, 81972, Note_on_c, 0, 73, 0
2, 82080, Note_on_c, 0, 76, 64
2, 82092, Note_on_c, 0, 74, 0
2, 82200, Note_on_c, 0, 78, 57
2, 82212, Note_on_c, 0, 76, 0
2, 82320, Note_on_c, 0, 80, 56
2, 82332, Note_on_c, 0, 78, 0
2, 82440, Note_on_c, 0, 81, 56
2, 82452, Note_on_c, 0, 80, 0
2, 82555, Note_on_c, 0, 81, 0
2, 82560, Note_on_c, 0, 81, 66
2, 82680, Note_on_c, 0, 80, 57
2, 82692, Note_on_c, 0, 81, 0
2, 82800, Note_on_c, 0, 78, 60
2, 82812, Note_on_c, 0, 80, 0
2, 82920, Note_on_c, 0, 76, 57
2, 82932, Note_on_c, 0, 78, 0
2, 83035, Note_on_c, 0, 76, 0
2, 83040, Note_on_c, 0, 76, 64
2, 83160, Note_on_c, 0, 74, 59
2, 83172, Note_on_c, 0, 76, 0
2, 83280, Note_on_c, 0, 73, 59
2, 83292, Note_on_c, 0, 74, 0
2, 83400, Note_on_c, 0, 71, 59
2, 83412, Note_on_c, 0, 73, 0
2, 83520, Note_on_c, 0, 73, 64
2, 83532, Note_on_c, 0, 71, 0
2, 83640, Note_on_c, 0, 76, 54
2, 83652, Note_on_c, 0, 73, 0
2, 83760, Note_on_c, 0, 69, 57
2, 83772, Note_on_c, 0, 76, 0
2, 83880, Note_on_c, 0, 73, 54
2, 83892, Note_on_c, 0, 69, 0
2, 84000, Note_on_c, 0, 71, 64
2, 84012, Note_on_c, 0, 73, 0
2, 84120, Note_on_c, 0, 74, 58
2, 84132, Note_on_c, 0, 71, 0
2, 84240, Note_on_c, 0, 68, 60
2, 84252, Note_on_c, 0, 74, 0
2, 84360, Note_on_c, 0, 71, 55
2, 84372, Note_on_c, 0, 68, 0
2, 84480, Note_on_c, 0, 71, 0
2, 84480, Note_on_c, 0, 69, 66
2, 84840, Note_on_c, 0, 69, 0
2, 84960, Note_on_c, 0, 85, 60
2, 85080, Note_on_c, 0, 86, 52
2, 85092, Note_on_c, 0, 85, 0
2, 85200, Note_on_c, 0, 85, 52
2, 85212, Note_on_c, 0, 86, 0
2, 85320, Note_on_c, 0, 83, 52
2, 85332, Note_on_c, 0, 85, 0
2, 85440, Note_on_c, 0, 81, 58
2, 85452, Note_on_c, 0, 83, 0
2, 85560, Note_on_c, 0, 83, 50
2, 85572, Note_on_c, 0, 81, 0
2, 85680, Note_on_c, 0, 81, 50
2, 85692, Note_on_c, 0, 83, 0
2, 85800, Note_on_c, 0, 80, 50
2, 85812, Note_on_c, 0, 81, 0
2, 85920, Note_on_c, 0, 78, 56
2, 85932, Note_on_c, 0, 80, 0
2, 86040, Note_on_c, 0, 81, 50
2, 86052, Note_on_c, 0, 78, 0
2, 86160, Note_on_c, 0, 80, 46
2, 86172, Note_on_c, 0, 81, 0
2, 86280, Note_on_c, 0, 78, 46
2, 86292, Note_on_c, 0, 80, 0
2, 86400, Note_on_c, 0, 77, 58
2, 86412, Note_on_c, 0, 78, 0
2, 86520, Note_on_c, 0, 78, 47
2, 86532, Note_on_c, 0, 77, 0
2, 86640, Note_on_c, 0, 80, 49
2, 86652, Note_on_c, 0, 78, 0
2, 86760, Note_on_c, 0, 77, 46
2, 86772, Note_on_c, 0, 80, 0
2, 86880, Note_on_c, 0, 73, 56
2, 86892, Note_on_c, 0, 77, 0
2, 87000, Note_on_c, 0, 75, 47
2, 87012, Note_on_c, 0, 73, 0
2, 87120, Note_on_c, 0, 77, 50
2, 87132, Note_on_c, 0, 75, 0
2, 87240, Note_on_c, 0, 73, 47
2, 87252, Note_on_c, 0, 77, 0
2, 87360, Note_on_c, 0, 78, 56
2, 87372, Note_on_c, 0, 73, 0
2, 87480, Note_on_c, 0, 77, 47
2, 87492, Note_on_c, 0, 78, 0
2, 87600, Note_on_c, 0, 78, 50
2, 87612, Note_on_c, 0, 77, 0
2, 87720, Note_on_c, 0, 80, 47
2, 87732, Note_on_c, 0, 78, 0
2, 87840, Note_on_c, 0, 81, 56
2, 87852, Note_on_c, 0, 80, 0
2, 87960, Note_on_c, 0, 80, 51
2, 87972, Note_on_c, 0, 81, 0
2, 88080, Note_on_c, 0, 81, 53
2, 88092, Note_on_c, 0, 80, 0
2, 88200, Note_on_c, 0, 83, 55
2, 88212, Note_on_c, 0, 81, 0
2, 88320, Note_on_c, 0, 85, 62
2, 88332, Note_on_c, 0, 83, 0
2, 88440, Note_on_c, 0, 84, 57
2, 88452, Note_on_c, 0, 85, 0
2, 88560, Note_on_c, 0, 85, 60
2, 88572, Note_on_c, 0, 84, 0
2, 88680, Note_on_c, 0, 84, 54
2, 88692, Note_on_c, 0, 85, 0
2, 88800, Note_on_c, 0, 84, 0
2, 88800, Note_on_c, 0, 85, 62
2, 88920, Note_on_c, 0, 86, 56
2, 88932, Note_on_c, 0, 85, 0
2, 89040, Note_on_c, 0, 85, 65
2, 89052, Note_on_c, 0, 86, 0
2, 89160, Note_on_c, 0, 82, 60
2, 89172, Note_on_c, 0, 85, 0
2, 89280, Note_on_c, 0, 86, 69
2, 89292, Note_on_c, 0, 82, 0
2, 89400, Note_on_c, 0, 85, 63
2, 89412, Note_on_c, 0, 86, 0
2, 89520, Note_on_c, 0, 86, 69
2, 89532, Note_on_c, 0, 85, 0
2, 89640, Note_on_c, 0, 85, 64
2, 89652, Note_on_c, 0, 86, 0
2, 89760, Note_on_c, 0, 86, 68
2, 89772, Note_on_c, 0, 85, 0
2, 89880, Note_on_c, 0, 85, 66
2, 89892, Note_on_c, 0, 86, 0
2, 90000, Note_on_c, 0, 86, 72
2, 90012, Note_on_c, 0, 85, 0
2, 90120, Note_on_c, 0, 85, 68
2, 90132, Note_on_c, 0, 86, 0
2, 90240, Note_on_c, 0, 86, 70
2, 90252, Note_on_c, 0, 85, 0
2, 90360, Note_on_c, 0, 85, 69
2, 90372, Note_on_c, 0, 86, 0
2, 90480, Note_on_c, 0, 83, 67
2, 90492, Note_on_c, 0, 85, 0
2, 90600, Note_on_c, 0, 81, 66
2, 90612, Note_on_c, 0, 83, 0
2, 90720, Note_on_c, 0, 80, 64
2, 90732, Note_on_c, 0, 81, 0
2, 90840, Note_on_c, 0, 81, 61
2, 90852, Note_on_c, 0, 80, 0
2, 90960, Note_on_c, 0, 83, 64
2, 90972, Note_on_c, 0, 81, 0
2, 91080, Note_on_c, 0, 80, 61
2, 91092, Note_on_c, 0, 83, 0
2, 91200, Note_on_c, 0, 81, 57
2, 91212, Note_on_c, 0, 80, 0
2, 91320, Note_on_c, 0, 83, 49
2, 91332, Note_on_c, 0, 81, 0
2, 91440, Note_on_c, 0, 85, 55
2, 91452, Note_on_c, 0, 83, 0
2, 91560, Note_on_c, 0, 78, 50
2, 91572, Note_on_c, 0, 85, 0
2, 91680, Note_on_c, 0, 77, 53
2, 91692, Note_on_c, 0, 78, 0
2, 91800, Note_on_c, 0, 78, 47
2, 91812, Note_on_c, 0, 77, 0
2, 91920, Note_on_c, 0, 80, 54
2, 91932, Note_on_c, 0, 78, 0
2, 92040, Note_on_c, 0, 77, 47
2, 92052, Note_on_c, 0, 80, 0
2, 92160, Note_on_c, 0, 78, 54
2, 92172, Note_on_c, 0, 77, 0
2, 92610, Note_on_c, 0, 78, 0
2, 92640, Note_on_c, 0, 76, 69
2, 92760, Note_on_c, 0, 74, 59
2, 92772, Note_on_c, 0, 76, 0
2, 92880, Note_on_c, 0, 73, 59
2, 92892, Note_on_c, 0, 74, 0
2, 93000, Note_on_c, 0, 71, 59
2, 93012, Note_on_c, 0, 73, 0
2, 93120, Note_on_c, 0, 69, 66
2, 93132, Note_on_c, 0, 71, 0
2, 93240, Note_on_c, 0, 71, 57
2, 93252, Note_on_c, 0, 69, 0
2, 93360, Note_on_c, 0, 73, 57
2, 93372, Note_on_c, 0, 71, 0
2, 93480, Note_on_c, 0, 74, 57
2, 93492, Note_on_c, 0, 73, 0
2, 93600, Note_on_c, 0, 76, 64
2, 93612, Note_on_c, 0, 74, 0
2, 93720, Note_on_c, 0, 78, 57
2, 93732, Note_on_c, 0, 76, 0
2, 93840, Note_on_c, 0, 80, 56
2, 93852, Note_on_c, 0, 78, 0
2, 93960, Note_on_c, 0, 81, 56
2, 93972, Note_on_c, 0, 80, 0
2, 94075, Note_on_c, 0, 81, 0
2, 94080, Note_on_c, 0, 81, 66
2, 94200, Note_on_c, 0, 80, 60
2, 94212, Note_on_c, 0, 81, 0
2, 94320, Note_on_c, 0, 78, 60
2, 94332, Note_on_c, 0, 80, 0
2, 94440, Note_on_c, 0, 76, 57
2, 94452, Note_on_c, 0, 78, 0
2, 94555, Note_on_c, 0, 76, 0
2, 94560, Note_on_c, 0, 76, 64
2, 94680, Note_on_c, 0, 74, 59
2, 94692, Note_on_c, 0, 76, 0
2, 94800, Note_on_c, 0, 73, 59
2, 94812, Note_on_c, 0, 74, 0
2, 94920, Note_on_c, 0, 71, 59
2, 94932, Note_on_c, 0, 73, 0
2, 95040, Note_on_c, 0, 69, 64
2, 95052, Note_on_c, 0, 71, 0
2, 95160, Note_on_c, 0, 71, 54
2, 95172, Note_on_c, 0, 69, 0
2, 95280, Note_on_c, 0, 73, 57
2, 95292, Note_on_c, 0, 71, 0
2, 95400, Note_on_c, 0, 74, 54
2, 95412, Note_on_c, 0, 73, 0
2, 95520, Note_on_c, 0, 76, 64
2, 95532, Note_on_c, 0, 74, 0
2, 95640, Note_on_c, 0, 78, 58
2, 95652, Note_on_c, 0, 76, 0
2, 95760, Note_on_c, 0, 80, 60
2, 95772, Note_on_c, 0, 78, 0
2, 95880, Note_on_c, 0, 81, 63
2, 95892, Note_on_c, 0, 80, 0
2, 96000, Note_on_c, 0, 81, 0
2, 96000, Note_on_c, 0, 82, 75
2, 96240, Note_on_c, 0, 82, 0
2, 96240, Note_on_c, 0, 83, 69
2, 96372, Note_on_c, 0, 83, 0
2, 96480, Note_on_c, 0, 76, 69
2, 96600, Note_on_c, 0, 74, 59
2, 96612, Note_on_c, 0, 76, 0
2, 96720, Note_on_c, 0, 73, 59
2, 96732, Note_on_c, 0, 74, 0
2, 96840, Note_on_c, 0, 71, 59
2, 96852, Note_on_c, 0, 73, 0
2, 96960, Note_on_c, 0, 69, 66
2, 96972, Note_on_c, 0, 71, 0
2, 97080, Note_on_c, 0, 71, 57
2, 97092, Note_on_c, 0, 69, 0
2, 97200, Note_on_c, 0, 73, 57
2, 97212, Note_on_c, 0, 71, 0
2, 97320, Note_on_c, 0, 74, 57
2, 97332, Note_on_c, 0, 73, 0
2, 97440, Note_on_c, 0, 76, 64
2, 97452, Note_on_c, 0, 74, 0
2, 97560, Note_on_c, 0, 78, 57
2, 97572, Note_on_c, 0, 76, 0
2, 97680, Note_on_c, 0, 80, 56
2, 97692, Note_on_c, 0, 78, 0
2, 97800, Note_on_c, 0, 81, 56
2, 97812, Note_on_c, 0, 80, 0
2, 97915, Note_on_c, 0, 81, 0
2, 97920, Note_on_c, 0, 81, 66
2, 98040, Note_on_c, 0, 80, 57
2, 98052, Note_on_c, 0, 81, 0
2, 98160, Note_on_c, 0, 78, 60
2, 98172, Note_on_c, 0, 80, 0
2, 98280, Note_on_c, 0, 76, 57
2, 98292, Note_on_c, 0, 78, 0
2, 98395, Note_on_c, 0, 76, 0
2, 98400, Note_on_c, 0, 76, 64
2, 98520, Note_on_c, 0, 74, 59
2, 98532, Note_on_c, 0, 76, 0
2, 98640, Note_on_c, 0, 73, 59
2, 98652, Note_on_c, 0, 74, 0
2, 98760, Note_on_c, 0, 71, 59
2, 98772, Note_on_c, 0, 73, 0
2, 98880, Note_on_c, 0, 73, 64
2, 98892, Note_on_c, 0, 71, 0
2, 99000, Note_on_c, 0, 76, 54
2, 99012, Note_on_c, 0, 73, 0
2, 99120, Note_on_c, 0, 69, 57
2, 99132, Note_on_c, 0, 76, 0
2, 99240, Note_on_c, 0, 73, 54
2, 99252, Note_on_c, 0, 69, 0
2, 99360, Note_on_c, 0, 71, 64
2, 99372, Note_on_c, 0, 73, 0
2, 99480, Note_on_c, 0, 74, 58
2, 99492, Note_on_c, 0, 71, 0
2, 99600, Note_on_c, 0, 68, 60
2, 99612, Note_on_c, 0, 74, 0
2, 99720, Note_on_c, 0, 71, 55
2, 99732, Note_on_c, 0, 68, 0
2, 99840, Note_on_c, 0, 71, 0
2, 99840, Note_on_c, 0, 69, 66
2, 100200, Note_on_c, 0, 69, 0
2, 100320, Note_on_c, 0, 85, 60
2, 100440, Note_on_c, 0, 86, 52
2, 100452, Note_on_c, 0, 85, 0
2, 100560, Note_on_c, 0, 85, 52
2, 100572, Note_on_c, 0, 86, 0
2, 100680, Note_on_c, 0, 83, 52
2, 100692, Note_on_c, 0, 85, 0
2, 100800, Note_on_c, 0, 81, 58
2, 100812, Note_on_c, 0, 83, 0
2, 100920, Note_on_c, 0, 83, 50
2, 100932, Note_on_c, 0, 81, 0
2, 101040, Note_on_c, 0, 81, 50
2, 101052, Note_on_c, 0, 83, 0
2, 101160, Note_on_c, 0, 80, 50
2, 101172, Note_on_c, 0, 81, 0
2, 101280, Note_on_c, 0, 78, 56
2, 101292, Note_on_c, 0, 80, 0
2, 101400, Note_on_c, 0, 81, 50
2, 101412, Note_on_c, 0, 78, 0
2, 101520, Note_on_c, 0, 80, 46
2, 101532, Note_on_c, 0, 81, 0
2, 101640, Note_on_c, 0, 78, 46
2, 101652, Note_on_c, 0, 80, 0
2, 101760, Note_on_c, 0, 77, 58
2, 101772, Note_on_c, 0, 78, 0
2, 101880, Note_on_c, 0, 78, 47
2, 101892, Note_on_c, 0, 77, 0
2, 102000, Note_on_c, 0, 80, 49
2, 102012, Note_on_c, 0, 78, 0
2, 102120, Note_on_c, 0, 77, 46
2, 102132, Note_on_c, 0, 80, 0
2, 102240, Note_on_c, 0, 73, 56
2, 102252, Note_on_c, 0, 77, 0
2, 102360, Note_on_c, 0, 75, 47
2, 102372, Note_on_c, 0, 73, 0
2, 102480, Note_on_c, 0, 77, 50
2, 102492, Note_on_c, 0, 75, 0
2, 102600, Note_on_c, 0, 73, 47
2, 102612, Note_on_c, 0, 77, 0
2, 102720, Note_on_c, 0, 78, 56
2, 102732, Note_on_c, 0, 73, 0
2, 102840, Note_on_c, 0, 77, 47
2, 102852, Note_on_c, 0, 78, 0
2, 102960, Note_on_c, 0, 78, 50
2, 102972, Note_on_c, 0, 77, 0
2, 103080, Note_on_c, 0, 80, 47
2, 103092, Note_on_c, 0, 78, 0
2, 103200, Note_on_c, 0, 81, 56
2, 103212, Note_on_c, 0, 80, 0
2, 103320, Note_on_c, 0, 80, 51
2, 103332, Note_on_c, 0, 81, 0
2, 103440, Note_on_c, 0, 81, 53
2, 103452, Note_on_c, 0, 80, 0
2, 103560, Note_on_c, 0, 83, 55
2, 103572, Note_on_c, 0, 81, 0
2, 103680, Note_on_c, 0, 85, 62
2, 103692, Note_on_c, 0, 83, 0
2, 103800, Note_on_c, 0, 84, 57
2, 103812, Note_on_c, 0, 85, 0
2, 103920, Note_on_c, 0, 85, 60
2, 103932, Note_on_c, 0, 84, 0
2, 104040, Note_on_c, 0, 84, 54
2, 104052, Note_on_c, 0, 85, 0
2, 104160, Note_on_c, 0, 84, 0
2, 104160, Note_on_c, 0, 85, 62
2, 104280, Note_on_c, 0, 86, 56
2, 104292, Note_on_c, 0, 85, 0
2, 104400, Note_on_c, 0, 85, 65
2, 104412, Note_on_c, 0, 86, 0
2, 104520, Note_on_c, 0, 82, 60
2, 104532, Note_on_c, 0, 85, 0
2, 104640, Note_on_c, 0, 86, 69
2, 104652, Note_on_c, 0, 82, 0
2, 104760, Note_on_c, 0, 85, 63
2, 104772, Note_on_c, 0, 86, 0
2, 104880, Note_on_c, 0, 86, 69
2, 104892, Note_on_c, 0, 85, 0
2, 105000, Note_on_c, 0, 85, 64
2, 105012, Note_on_c, 0, 86, 0
2, 105120, Note_on_c, 0, 86, 68
2, 105132, Note_on_c, 0, 85, 0
2, 105240, Note_on_c, 0, 85, 66
2, 105252, Note_on_c, 0, 86, 0
2, 105360, Note_on_c, 0, 86, 72
2, 105372, Note_on_c, 0, 85, 0
2, 105480, Note_on_c, 0, 85, 68
2, 105492, Note_on_c, 0, 86, 0
2, 105600, Note_on_c, 0, 86, 70
2, 105612, Note_on_c, 0, 85, 0
2, 105720, Note_on_c, 0, 85, 69
2, 105732, Note_on_c, 0, 86, 0
2, 105840, Note_on_c, 0, 83, 67
2, 105852, Note_on_c, 0, 85, 0
2, 105960, Note_on_c, 0, 81, 66
2, 105972, Note_on_c, 0, 83, 0
2, 106080, Note_on_c, 0, 80, 64
2, 106092, Note_on_c, 0, 81, 0
2, 106200, Note_on_c, 0, 81, 61
2, 106212, Note_on_c, 0, 80, 0
2, 106320, Note_on_c, 0, 83, 64
2, 106332, Note_on_c, 0, 81, 0
2, 106440, Note_on_c, 0, 80, 61
2, 106452, Note_on_c, 0, 83, 0
2, 106560, Note_on_c, 0, 81, 57
2, 106572, Note_on_c, 0, 80, 0
2, 106680, Note_on_c, 0, 83, 49
2, 106692, Note_on_c, 0, 81, 0
2, 106800, Note_on_c, 0, 85, 55
2, 106812, Note_on_c, 0, 83, 0
2, 106920, Note_on_c, 0, 78, 50
2, 106932, Note_on_c, 0, 85, 0
2, 107040, Note_on_c, 0, 77, 53
2, 107052, Note_on_c, 0, 78, 0
2, 107160, Note_on_c, 0, 78, 47
2, 107172, Note_on_c, 0, 77, 0
2, 107280, Note_on_c, 0, 80, 54
2, 107292, Note_on_c, 0, 78, 0
2, 107400, Note_on_c, 0, 77, 47
2, 107412, Note_on_c, 0, 80, 0
2, 107520, Note_on_c, 0, 78, 54
2, 107532, Note_on_c, 0, 77, 0
2, 107970, Note_on_c, 0, 78, 0
2, 108000, Note_on_c, 0, 69, 73
2, 108000, Note_on_c, 0, 81, 84
2, 108120, Note_on_c, 0, 81, 0
2, 108120, Note_on_c, 0, 69, 0
2, 108240, Note_on_c, 0, 71, 73
2, 108240, Note_on_c, 0, 83, 84
2, 108360, Note_on_c, 0, 83, 0
2, 108360, Note_on_c, 0, 71, 0
2, 108480, Note_on_c, 0, 73, 78
2, 108480, Note_on_c, 0, 85, 90
2, 108960, Note_on_c, 0, 85, 0
2, 108960, Note_on_c, 0, 73, 0
2, 108960, Note_on_c, 0, 69, 73
2, 108960, Note_on_c, 0, 81, 84
2, 109080, Note_on_c, 0, 81, 0
2, 109080, Note_on_c, 0, 69, 0
2, 109200, Note_on_c, 0, 71, 73
2, 109200, Note_on_c, 0, 83, 84
2, 109320, Note_on_c, 0, 83, 0
2, 109320, Note_on_c, 0, 71, 0
2, 109440, Note_on_c, 0, 73, 79
2, 109440, Note_on_c, 0, 85, 91
2, 109560, Note_on_c, 0, 85, 0
2, 109560, Note_on_c, 0, 73, 0
2, 109680, Note_on_c, 0, 71, 72
2, 109680, Note_on_c, 0, 83, 82
2, 109800, Note_on_c, 0, 83, 0
2, 109800, Note_on_c, 0, 71, 0
2, 109920, Note_on_c, 0, 69, 77
2, 109920, Note_on_c, 0, 81, 89
2, 110040, Note_on_c, 0, 81, 0
2, 110040, Note_on_c, 0, 69, 0
2, 110160, Note_on_c, 0, 68, 73
2, 110160, Note_on_c, 0, 80, 84
2, 110280, Note_on_c, 0, 80, 0
2, 110280, Note_on_c, 0, 68, 0
2, 110400, Note_on_c, 0, 66, 80
2, 110400, Note_on_c, 0, 78, 92
2, 110520, Note_on_c, 0, 78, 0
2, 110520, Note_on_c, 0, 66, 0
2, 110640, Note_on_c, 0, 68, 69
2, 110640, Note_on_c, 0, 80, 78
2, 110760, Note_on_c, 0, 80, 0
2, 110760, Note_on_c, 0, 68, 0
2, 110880, Note_on_c, 0, 69, 75
2, 110880, Note_on_c, 0, 81, 86
2, 111000, Note_on_c, 0, 81, 0
2, 111000, Note_on_c, 0, 69, 0
2, 111120, Note_on_c, 0, 71, 70
2, 111120, Note_on_c, 0, 83, 80
2, 111240, Note_on_c, 0, 83, 0
2, 111240, Note_on_c, 0, 71, 0
2, 111360, Note_on_c, 0, 68, 78
2, 111360, Note_on_c, 0, 80, 90
2, 111600, Note_on_c, 0, 80, 0
2, 111600, Note_on_c, 0, 68, 0
2, 111600, Note_on_c, 0, 64, 73
2, 111600, Note_on_c, 0, 76, 84
2, 111720, Note_on_c, 0, 76, 0
2, 111720, Note_on_c, 0, 64, 0
2, 111840, Note_on_c, 0, 69, 73
2, 111840, Note_on_c, 0, 81, 84
2, 111960, Note_on_c, 0, 81, 0
2, 111960, Note_on_c, 0, 69, 0
2, 112080, Note_on_c, 0, 71, 73
2, 112080, Note_on_c, 0, 83, 84
2, 112200, Note_on_c, 0, 83, 0
2, 112200, Note_on_c, 0, 71, 0
2, 112320, Note_on_c, 0, 73, 78
2, 112320, Note_on_c, 0, 85, 90
2, 112800, Note_on_c, 0, 85, 0
2, 112800, Note_on_c, 0, 73, 0
2, 112800, Note_on_c, 0, 69, 73
2, 112800, Note_on_c, 0, 81, 84
2, 112920, Note_on_c, 0, 81, 0
2, 112920, Note_on_c, 0, 69, 0
2, 113040, Note_on_c, 0, 71, 73
2, 113040, Note_on_c, 0, 83, 84
2, 113160, Note_on_c, 0, 83, 0
2, 113160, Note_on_c, 0, 71, 0
2, 113280, Note_on_c, 0, 73, 79
2, 113280, Note_on_c, 0, 85, 91
2, 113400, Note_on_c, 0, 85, 0
2, 113400, Note_on_c, 0, 73, 0
2, 113520, Note_on_c, 0, 71, 72
2, 113520, Note_on_c, 0, 83, 82
2, 113640, Note_on_c, 0, 83, 0
2, 113640, Note_on_c, 0, 71, 0
2, 113760, Note_on_c, 0, 69, 77
2, 113760, Note_on_c, 0, 81, 89
2, 113880, Note_on_c, 0, 81, 0
2, 113880, Note_on_c, 0, 69, 0
2, 114000, Note_on_c, 0, 68, 73
2, 114000, Note_on_c, 0, 80, 84
2, 114120, Note_on_c, 0, 80, 0
2, 114120, Note_on_c, 0, 68, 0
2, 114240, Note_on_c, 0, 66, 80
2, 114240, Note_on_c, 0, 78, 92
2, 114360, Note_on_c, 0, 78, 0
2, 114360, Note_on_c, 0, 66, 0
2, 114480, Note_on_c, 0, 71, 69
2, 114480, Note_on_c, 0, 83, 78
2, 114600, Note_on_c, 0, 83, 0
2, 114600, Note_on_c, 0, 71, 0
2, 114720, Note_on_c, 0, 68, 75
2, 114720, Note_on_c, 0, 80, 86
2, 114840, Note_on_c, 0, 80, 0
2, 114840, Note_on_c, 0, 68, 0
2, 114960, Note_on_c, 0, 64, 70
2, 114960, Note_on_c, 0, 76, 80
2, 115080, Note_on_c, 0, 76, 0
2, 115080, Note_on_c, 0, 64, 0
2, 115200, Note_on_c, 0, 69, 78
2, 115200, Note_on_c, 0, 81, 90
2, 115650, Note_on_c, 0, 81, 0
2, 115650, Note_on_c, 0, 69, 0
2, 115680, Note_on_c, 0, 69, 73
2, 115680, Note_on_c, 0, 81, 84
2, 115800, Note_on_c, 0, 81, 0
2, 115800, Note_on_c, 0, 69, 0
2, 115920, Note_on_c, 0, 71, 73
2, 115920, Note_on_c, 0, 83, 84
2, 116040, Note_on_c, 0, 83, 0
2, 116040, Note_on_c, 0, 71, 0
2, 116160, Note_on_c, 0, 73, 78
2, 116160, Note_on_c, 0, 85, 90
2, 116640, Note_on_c, 0, 85, 0
2, 116640, Note_on_c, 0, 73, 0
2, 116640, Note_on_c, 0, 69, 73
2, 116640, Note_on_c, 0, 81, 84
2, 116760, Note_on_c, 0, 81, 0
2, 116760, Note_on_c, 0, 69, 0
2, 116880, Note_on_c, 0, 71, 73
2, 116880, Note_on_c, 0, 83, 84
2, 117000, Note_on_c, 0, 83, 0
2, 117000, Note_on_c, 0, 71, 0
2, 117120, Note_on_c, 0, 73, 79
2, 117120, Note_on_c, 0, 85, 91
2, 117240, Note_on_c, 0, 85, 0
2, 117240, Note_on_c, 0, 73, 0
2, 117360, Note_on_c, 0, 71, 72
2, 117360, Note_on_c, 0, 83, 82
2, 117480, Note_on_c, 0, 83, 0
2, 117480, Note_on_c, 0, 71, 0
2, 117600, Note_on_c, 0, 69, 77
2, 117600, Note_on_c, 0, 81, 89
2, 117720, Note_on_c, 0, 81, 0
2, 117720, Note_on_c, 0, 69, 0
2, 117840, Note_on_c, 0, 68, 73
2, 117840, Note_on_c, 0, 80, 84
2, 117960, Note_on_c, 0, 80, 0
2, 117960, Note_on_c, 0, 68, 0
2, 118080, Note_on_c, 0, 66, 80
2, 118080, Note_on_c, 0, 78, 92
2, 118200, Note_on_c, 0, 78, 0
2, 118200, Note_on_c, 0, 66, 0
2, 118320, Note_on_c, 0, 68, 69
2, 118320, Note_on_c, 0, 80, 78
2, 118440, Note_on_c, 0, 80, 0
2, 118440, Note_on_c, 0, 68, 0
2, 118560, Note_on_c, 0, 69, 75
2, 118560, Note_on_c, 0, 81, 86
2, 118680, Note_on_c, 0, 81, 0
2, 118680, Note_on_c, 0, 69, 0
2, 118800, Note_on_c, 0, 71, 70
2, 118800, Note_on_c, 0, 83, 80
2, 118920, Note_on_c, 0, 83, 0
2, 118920, Note_on_c, 0, 71, 0
2, 119040, Note_on_c, 0, 68, 78
2, 119040, Note_on_c, 0, 80, 90
2, 119280, Note_on_c, 0, 80, 0
2, 119280, Note_on_c, 0, 68, 0
2, 119280, Note_on_c, 0, 64, 73
2, 119280, Note_on_c, 0, 76, 84
2, 119400, Note_on_c, 0, 76, 0
2, 119400, Note_on_c, 0, 64, 0
2, 119520, Note_on_c, 0, 69, 73
2, 119520, Note_on_c, 0, 81, 84
2, 119640, Note_on_c, 0, 81, 0
2, 119640, Note_on_c, 0, 69, 0
2, 119760, Note_on_c, 0, 71, 73
2, 119760, Note_on_c, 0, 83, 84
2, 119880, Note_on_c, 0, 83, 0
2, 119880, Note_on_c, 0, 71, 0
2, 120000, Note_on_c, 0, 73, 78
2, 120000, Note_on_c, 0, 85, 90
2, 120480, Note_on_c, 0, 85, 0
2, 120480, Note_on_c, 0, 73, 0
2, 120480, Note_on_c, 0, 69, 73
2, 120480, Note_on_c, 0, 81, 84
2, 120600, Note_on_c, 0, 81, 0
2, 120600, Note_on_c, 0, 69, 0
2, 120720, Note_on_c, 0, 71, 73
2, 120720, Note_on_c, 0, 83, 84
2, 120840, Note_on_c, 0, 83, 0
2, 120840, Note_on_c, 0, 71, 0
2, 120960, Note_on_c, 0, 73, 79
2, 120960, Note_on_c, 0, 85, 91
2, 121080, Note_on_c, 0, 85, 0
2, 121080, Note_on_c, 0, 73, 0
2, 121200, Note_on_c, 0, 71, 72
2, 121200, Note_on_c, 0, 83, 82
2, 121320, Note_on_c, 0, 83, 0
2, 121320, Note_on_c, 0, 71, 0
2, 121440, Note_on_c, 0, 69, 77
2, 121440, Note_on_c, 0, 81, 89
2, 121560, Note_on_c, 0, 81, 0
2, 121560, Note_on_c, 0, 69, 0
2, 121680, Note_on_c, 0, 68, 73
2, 121680, Note_on_c, 0, 80, 84
2, 121800, Note_on_c, 0, 80, 0
2, 121800, Note_on_c, 0, 68, 0
2, 121920, Note_on_c, 0, 66, 80
2, 121920, Note_on_c, 0, 78, 92
2, 122040, Note_on_c, 0, 78, 0
2, 122040, Note_on_c, 0, 66, 0
2, 122160, Note_on_c, 0, 71, 69
2, 122160, Note_on_c, 0, 83, 78
2, 122280, Note_on_c, 0, 83, 0
2, 122280, Note_on_c, 0, 71, 0
2, 122400, Note_on_c, 0, 68, 75
2, 122400, Note_on_c, 0, 80, 86
2, 122520, Note_on_c, 0, 80, 0
2, 122520, Note_on_c, 0, 68, 0
2, 122640, Note_on_c, 0, 64, 70
2, 122640, Note_on_c, 0, 76, 80
2, 122760, Note_on_c, 0, 76, 0
2, 122760, Note_on_c, 0, 64, 0
2, 122880, Note_on_c, 0, 69, 78
2, 122880, Note_on_c, 0, 81, 90
2, 123330, Note_on_c, 0, 81, 0
2, 123330, Note_on_c, 0, 69, 0
2, 123360, Note_on_c, 0, 71, 66
2, 123480, Note_on_c, 0, 71, 0
2, 123480, Note_on_c, 0, 69, 64
2, 123600, Note_on_c, 0, 69, 0
2, 123600, Note_on_c, 0, 68, 64
2, 123720, Note_on_c, 0, 68, 0
2, 123720, Note_on_c, 0, 69, 64
2, 123840, Note_on_c, 0, 69, 0
2, 123840, Note_on_c, 0, 72, 71
2, 123960, Note_on_c, 0, 72, 0
2, 124320, Note_on_c, 0, 74, 66
2, 124440, Note_on_c, 0, 74, 0
2, 124440, Note_on_c, 0, 72, 63
2, 124560, Note_on_c, 0, 72, 0
2, 124560, Note_on_c, 0, 71, 63
2, 124680, Note_on_c, 0, 71, 0
2, 124680, Note_on_c, 0, 72, 63
2, 124800, Note_on_c, 0, 72, 0
2, 124800, Note_on_c, 0, 76, 72
2, 124920, Note_on_c, 0, 76, 0
2, 125280, Note_on_c, 0, 77, 66
2, 125400, Note_on_c, 0, 77, 0
2, 125400, Note_on_c, 0, 76, 63
2, 125520, Note_on_c, 0, 76, 0
2, 125520, Note_on_c, 0, 75, 63
2, 125640, Note_on_c, 0, 75, 0
2, 125640, Note_on_c, 0, 76, 63
2, 125760, Note_on_c, 0, 76, 0
2, 125760, Note_on_c, 0, 83, 70
2, 125880, Note_on_c, 0, 83, 0
2, 125880, Note_on_c, 0, 81, 64
2, 126000, Note_on_c, 0, 81, 0
2, 126000, Note_on_c, 0, 80, 64
2, 126120, Note_on_c, 0, 80, 0
2, 126120, Note_on_c, 0, 81, 64
2, 126240, Note_on_c, 0, 81, 0
2, 126240, Note_on_c, 0, 83, 69
2, 126360, Note_on_c, 0, 83, 0
2, 126360, Note_on_c, 0, 81, 64
2, 126480, Note_on_c, 0, 81, 0
2, 126480, Note_on_c, 0, 80, 64
2, 126600, Note_on_c, 0, 80, 0
2, 126600, Note_on_c, 0, 81, 64
2, 126720, Note_on_c, 0, 81, 0
2, 126720, Note_on_c, 0, 84, 72
2, 127200, Note_on_c, 0, 84, 0
2, 127200, Note_on_c, 0, 81, 68
2, 127320, Note_on_c, 0, 81, 0
2, 127440, Note_on_c, 0, 84, 65
2, 127560, Note_on_c, 0, 84, 0
2, 127620, Note_on_c, 0, 79, 63
2, 127650, Note_on_c, 0, 79, 0
2, 127650, Note_on_c, 0, 81, 63
2, 127680, Note_on_c, 0, 81, 0
2, 127680, Note_on_c, 0, 83, 80
2, 127800, Note_on_c, 0, 83, 0
2, 127920, Note_on_c, 0, 78, 54
2, 127920, Note_on_c, 0, 81, 64
2, 128040, Note_on_c, 0, 81, 0
2, 128040, Note_on_c, 0, 78, 0
2, 128160, Note_on_c, 0, 76, 58
2, 128160, Note_on_c, 0, 79, 69
2, 128280, Note_on_c, 0, 79, 0
2, 128280, Note_on_c, 0, 76, 0
2, 128400, Note_on_c, 0, 78, 54
2, 128400, Note_on_c, 0, 81, 64
2, 128520, Note_on_c, 0, 81, 0
2, 128520, Note_on_c, 0, 78, 0
2, 128580, Note_on_c, 0, 79, 65
2, 128610, Note_on_c, 0, 79, 0
2, 128610, Note_on_c, 0, 81, 65
2, 128640, Note_on_c, 0, 81, 0
2, 128640, Note_on_c, 0, 83, 82
2, 128760, Note_on_c, 0, 83, 0
2, 128880, Note_on_c, 0, 78, 56
2, 128880, Note_on_c, 0, 81, 66
2, 129000, Note_on_c, 0, 81, 0
2, 129000, Note_on_c, 0, 78, 0
2, 129120, Note_on_c, 0, 76, 58
2, 129120, Note_on_c, 0, 79, 69
2, 129240, Note_on_c, 0, 79, 0
2, 129240, Note_on_c, 0, 76, 0
2, 129360, Note_on_c, 0, 78, 55
2, 129360, Note_on_c, 0, 81, 65
2, 129480, Note_on_c, 0, 81, 0
2, 129480, Note_on_c, 0, 78, 0
2, 129540, Note_on_c, 0, 79, 64
2, 129570, Note_on_c, 0, 79, 0
2, 129570, Note_on_c, 0, 81, 64
2, 129600, Note_on_c, 0, 83, 79
2, 129630, Note_on_c, 0, 81, 0
2, 129720, Note_on_c, 0, 83, 0
2, 129840, Note_on_c, 0, 78, 57
2, 129840, Note_on_c, 0, 81, 68
2, 129960, Note_on_c, 0, 81, 0
2, 129960, Note_on_c, 0, 78, 0
2, 130080, Note_on_c, 0, 76, 58
2, 130080, Note_on_c, 0, 79, 69
2, 130200, Note_on_c, 0, 79, 0
2, 130200, Note_on_c, 0, 76, 0
2, 130320, Note_on_c, 0, 75, 56
2, 130320, Note_on_c, 0, 78, 66
2, 130440, Note_on_c, 0, 78, 0
2, 130440, Note_on_c, 0, 75, 0
2, 130560, Note_on_c, 0, 76, 69
2, 131010, Note_on_c, 0, 76, 0
2, 131040, Note_on_c, 0, 71, 66
2, 131160, Note_on_c, 0, 71, 0
2, 131160, Note_on_c, 0, 69, 64
2, 131280, Note_on_c, 0, 69, 0
2, 131280, Note_on_c, 0, 68, 64
2, 131400, Note_on_c, 0, 68, 0
2, 131400, Note_on_c, 0, 69, 64
2, 131520, Note_on_c, 0, 69, 0
2, 131520, Note_on_c, 0, 72, 71
2, 131640, Note_on_c, 0, 72, 0
2, 132000, Note_on_c, 0, 74, 66
2, 132120, Note_on_c, 0, 74, 0
2, 132120, Note_on_c, 0, 72, 63
2, 132240, Note_on_c, 0, 72, 0
2, 132240, Note_on_c, 0, 71, 63
2, 132360, Note_on_c, 0, 71, 0
2, 132360, Note_on_c, 0, 72, 63
2, 132480, Note_on_c, 0, 72, 0
2, 132480, Note_on_c, 0, 76, 72
2, 132600, Note_on_c, 0, 76, 0
2, 132960, Note_on_c, 0, 77, 66
2, 133080, Note_on_c, 0, 77, 0
2, 133080, Note_on_c, 0, 76, 63
2, 133200, Note_on_c, 0, 76, 0
2, 133200, Note_on_c, 0, 75, 63
2, 133320, Note_on_c, 0, 75, 0
2, 133320, Note_on_c, 0, 76, 63
2, 133440, Note_on_c, 0, 76, 0
2, 133440, Note_on_c, 0, 83, 70
2, 133560, Note_on_c, 0, 83, 0
2, 133560, Note_on_c, 0, 81, 64
2, 133680, Note_on_c, 0, 81, 0
2, 133680, Note_on_c, 0, 80, 64
2, 133800, Note_on_c, 0, 80, 0
2, 133800, Note_on_c, 0, 81, 64
2, 133920, Note_on_c, 0, 81, 0
2, 133920, Note_on_c, 0, 83, 69
2, 134040, Note_on_c, 0, 83, 0
2, 134040, Note_on_c, 0, 81, 64
2, 134160, Note_on_c, 0, 81, 0
2, 134160, Note_on_c, 0, 80, 64
2, 134280, Note_on_c, 0, 80, 0
2, 134280, Note_on_c, 0, 81, 64
2, 134400, Note_on_c, 0, 81, 0
2, 134400, Note_on_c, 0, 84, 72
2, 134880, Note_on_c, 0, 84, 0
2, 134880, Note_on_c, 0, 81, 68
2, 135000, Note_on_c, 0, 81, 0
2, 135120, Note_on_c, 0, 84, 65
2, 135240, Note_on_c, 0, 84, 0
2, 135300, Note_on_c, 0, 79, 63
2, 135330, Note_on_c, 0, 79, 0
2, 135330, Note_on_c, 0, 81, 63
2, 135360, Note_on_c, 0, 81, 0
2, 135360, Note_on_c, 0, 83, 80
2, 135480, Note_on_c, 0, 83, 0
2, 135600, Note_on_c, 0, 78, 54
2, 135600, Note_on_c, 0, 81, 64
2, 135720, Note_on_c, 0, 81, 0
2, 135720, Note_on_c, 0, 78, 0
2, 135840, Note_on_c, 0, 76, 58
2, 135840, Note_on_c, 0, 79, 69
2, 135960, Note_on_c, 0, 79, 0
2, 135960, Note_on_c, 0, 76, 0
2, 136080, Note_on_c, 0, 78, 54
2, 136080, Note_on_c, 0, 81, 64
2, 136200, Note_on_c, 0, 81, 0
2, 136200, Note_on_c, 0, 78, 0
2, 136260, Note_on_c, 0, 79, 65
2, 136290, Note_on_c, 0, 79, 0
2, 136290, Note_on_c, 0, 81, 65
2, 136320, Note_on_c, 0, 81, 0
2, 136320, Note_on_c, 0, 83, 82
2, 136440, Note_on_c, 0, 83, 0
2, 136560, Note_on_c, 0, 78, 56
2, 136560, Note_on_c, 0, 81, 66
2, 136680, Note_on_c, 0, 81, 0
2, 136680, Note_on_c, 0, 78, 0
2, 136800, Note_on_c, 0, 76, 58
2, 136800, Note_on_c, 0, 79, 69
2, 136920, Note_on_c, 0, 79, 0
2, 136920, Note_on_c, 0, 76, 0
2, 137040, Note_on_c, 0, 78, 55
2, 137040, Note_on_c, 0, 81, 65
2, 137160, Note_on_c, 0, 81, 0
2, 137160, Note_on_c, 0, 78, 0
2, 137220, Note_on_c, 0, 79, 64
2, 137250, Note_on_c, 0, 79, 0
2, 137250, Note_on_c, 0, 81, 64
2, 137280, Note_on_c, 0, 83, 79
2, 137310, Note_on_c, 0, 81, 0
2, 137400, Note_on_c, 0, 83, 0
2, 137520, Note_on_c, 0, 78, 57
2, 137520, Note_on_c, 0, 81, 68
2, 137640, Note_on_c, 0, 81, 0
2, 137640, Note_on_c, 0, 78, 0
2, 137760, Note_on_c, 0, 76, 58
2, 137760, Note_on_c, 0, 79, 69
2, 137880, Note_on_c, 0, 79, 0
2, 137880, Note_on_c, 0, 76, 0
2, 138000, Note_on_c, 0, 75, 56
2, 138000, Note_on_c, 0, 78, 66
2, 138120, Note_on_c, 0, 78, 0
2, 138120, Note_on_c, 0, 75, 0
2, 138240, Note_on_c, 0, 76, 69
2, 138690, Note_on_c, 0, 76, 0
2, 138720, Note_on_c, 0, 72, 56
2, 138720, Note_on_c, 0, 76, 56
2, 138840, Note_on_c, 0, 76, 0
2, 138840, Note_on_c, 0, 72, 0
2, 138960, Note_on_c, 0, 74, 56
2, 138960, Note_on_c, 0, 77, 56
2, 139080, Note_on_c, 0, 77, 0
2, 139080, Note_on_c, 0, 74, 0
2, 139200, Note_on_c, 0, 76, 66
2, 139200, Note_on_c, 0, 79, 66
2, 139320, Note_on_c, 0, 79, 0
2, 139320, Note_on_c, 0, 76, 0
2, 139440, Note_on_c, 0, 76, 57
2, 139440, Note_on_c, 0, 79, 57
2, 139560, Note_on_c, 0, 79, 0
2, 139560, Note_on_c, 0, 76, 0
2, 139680, Note_on_c, 0, 81, 64
2, 139800, Note_on_c, 0, 81, 0
2, 139800, Note_on_c, 0, 79, 57
2, 139920, Note_on_c, 0, 79, 0
2, 139920, Note_on_c, 0, 77, 57
2, 140040, Note_on_c, 0, 77, 0
2, 140040, Note_on_c, 0, 76, 57
2, 140160, Note_on_c, 0, 76, 0
2, 140160, Note_on_c, 0, 74, 65
2, 140160, Note_on_c, 0, 71, 65
2, 140400, Note_on_c, 0, 71, 0
2, 140400, Note_on_c, 0, 67, 59
2, 140640, Note_on_c, 0, 67, 0
2, 140640, Note_on_c, 0, 74, 0
2, 140640, Note_on_c, 0, 72, 56
2, 140640, Note_on_c, 0, 76, 56
2, 140760, Note_on_c, 0, 76, 0
2, 140760, Note_on_c, 0, 72, 0
2, 140880, Note_on_c, 0, 74, 56
2, 140880, Note_on_c, 0, 77, 56
2, 141000, Note_on_c, 0, 77, 0
2, 141000, Note_on_c, 0, 74, 0
2, 141120, Note_on_c, 0, 76, 66
2, 141120, Note_on_c, 0, 79, 66
2, 141240, Note_on_c, 0, 79, 0
2, 141240, Note_on_c, 0, 76, 0
2, 141360, Note_on_c, 0, 76, 57
2, 141360, Note_on_c, 0, 79, 57
2, 141480, Note_on_c, 0, 79, 0
2, 141480, Note_on_c, 0, 76, 0
2, 141600, Note_on_c, 0, 81, 64
2, 141720, Note_on_c, 0, 81, 0
2, 141720, Note_on_c, 0, 79, 57
2, 141840, Note_on_c, 0, 79, 0
2, 141840, Note_on_c, 0, 77, 57
2, 141960, Note_on_c, 0, 77, 0
2, 141960, Note_on_c, 0, 76, 57
2, 142080, Note_on_c, 0, 76, 0
2, 142080, Note_on_c, 0, 74, 65
2, 142080, Note_on_c, 0, 71, 65
2, 142560, Note_on_c, 0, 71, 0
2, 142560, Note_on_c, 0, 74, 0
2, 142560, Note_on_c, 0, 69, 56
2, 142560, Note_on_c, 0, 72, 56
2, 142680, Note_on_c, 0, 72, 0
2, 142680, Note_on_c, 0, 69, 0
2, 142800, Note_on_c, 0, 71, 56
2, 142800, Note_on_c, 0, 74, 56
2, 142920, Note_on_c, 0, 74, 0
2, 142920, Note_on_c, 0, 71, 0
2, 143040, Note_on_c, 0, 72, 66
2, 143040, Note_on_c, 0, 76, 66
2, 143160, Note_on_c, 0, 76, 0
2, 143160, Note_on_c, 0, 72, 0
2, 143280, Note_on_c, 0, 72, 57
2, 143280, Note_on_c, 0, 76, 57
2, 143400, Note_on_c, 0, 76, 0
2, 143400, Note_on_c, 0, 72, 0
2, 143520, Note_on_c, 0, 77, 64
2, 143640, Note_on_c, 0, 77, 0
2, 143640, Note_on_c, 0, 76, 57
2, 143760, Note_on_c, 0, 76, 0
2, 143760, Note_on_c, 0, 74, 57
2, 143880, Note_on_c, 0, 74, 0
2, 143880, Note_on_c, 0, 72, 57
2, 144000, Note_on_c, 0, 72, 0
2, 144000, Note_on_c, 0, 71, 65
2, 144000, Note_on_c, 0, 68, 65
2, 144240, Note_on_c, 0, 68, 0
2, 144240, Note_on_c, 0, 64, 59
2, 144480, Note_on_c, 0, 64, 0
2, 144480, Note_on_c, 0, 71, 0
2, 144480, Note_on_c, 0, 69, 56
2, 144480, Note_on_c, 0, 72, 56
2, 144600, Note_on_c, 0, 72, 0
2, 144600, Note_on_c, 0, 69, 0
2, 144720, Note_on_c, 0, 71, 56
2, 144720, Note_on_c, 0, 74, 56
2, 144840, Note_on_c, 0, 74, 0
2, 144840, Note_on_c, 0, 71, 0
2, 144960, Note_on_c, 0, 72, 66
2, 144960, Note_on_c, 0, 76, 66
2, 145080, Note_on_c, 0, 76, 0
2, 145080, Note_on_c, 0, 72, 0
2, 145200, Note_on_c, 0, 72, 57
2, 145200, Note_on_c, 0, 76, 57
2, 145320, Note_on_c, 0, 76, 0
2, 145320, Note_on_c, 0, 72, 0
2, 145440, Note_on_c, 0, 77, 64
2, 145560, Note_on_c, 0, 77, 0
2, 145560, Note_on_c, 0, 76, 57
2, 145680, Note_on_c, 0, 76, 0
2, 145680, Note_on_c, 0, 74, 57
2, 145800, Note_on_c, 0, 74, 0
2, 145800, Note_on_c, 0, 72, 57
2, 145920, Note_on_c, 0, 72, 0
2, 145920, Note_on_c, 0, 71, 65
2, 145920, Note_on_c, 0, 68, 65
2, 146400, Note_on_c, 0, 68, 0
2, 146400, Note_on_c, 0, 71, 0
2, 146400, Note_on_c, 0, 71, 56
2, 146520, Note_on_c, 0, 71, 0
2, 146520, Note_on_c, 0, 69, 56
2, 146640, Note_on_c, 0, 69, 0
2, 146640, Note_on_c, 0, 68, 56
2, 146760, Note_on_c, 0, 68, 0
2, 146760, Note_on_c, 0, 69, 56
2, 146880, Note_on_c, 0, 69, 0
2, 146880, Note_on_c, 0, 72, 59
2, 147000, Note_on_c, 0, 72, 0
2, 147360, Note_on_c, 0, 74, 62
2, 147480, Note_on_c, 0, 74, 0
2, 147480, Note_on_c, 0, 72, 57
2, 147600, Note_on_c, 0, 72, 0
2, 147600, Note_on_c, 0, 71, 57
2, 147720, Note_on_c, 0, 71, 0
2, 147720, Note_on_c, 0, 72, 57
2, 147840, Note_on_c, 0, 72, 0
2, 147840, Note_on_c, 0, 76, 66
2, 147960, Note_on_c, 0, 76, 0
2, 148320, Note_on_c, 0, 77, 63
2, 148440, Note_on_c, 0, 77, 0
2, 148440, Note_on_c, 0, 76, 58
2, 148560, Note_on_c, 0, 76, 0
2, 148560, Note_on_c, 0, 75, 58
2, 148680, Note_on_c, 0, 75, 0
2, 148680, Note_on_c, 0, 76, 58
2, 148800, Note_on_c, 0, 76, 0
2, 148800, Note_on_c, 0, 83, 70
2, 148920, Note_on_c, 0, 83, 0
2, 148920, Note_on_c, 0, 81, 63
2, 149040, Note_on_c, 0, 81, 0
2, 149040, Note_on_c, 0, 80, 63
2, 149160, Note_on_c, 0, 80, 0
2, 149160, Note_on_c, 0, 81, 63
2, 149280, Note_on_c, 0, 81, 0
2, 149280, Note_on_c, 0, 83, 71
2, 149400, Note_on_c, 0, 83, 0
2, 149400, Note_on_c, 0, 81, 64
2, 149520, Note_on_c, 0, 81, 0
2, 149520, Note_on_c, 0, 80, 64
2, 149640, Note_on_c, 0, 80, 0
2, 149640, Note_on_c, 0, 81, 64
2, 149760, Note_on_c, 0, 81, 0
2, 149760, Note_on_c, 0, 84, 76
2, 150240, Note_on_c, 0, 84, 0
2, 150240, Note_on_c, 0, 81, 62
2, 150360, Note_on_c, 0, 81, 0
2, 150480, Note_on_c, 0, 83, 62
2, 150600, Note_on_c, 0, 83, 0
2, 150720, Note_on_c, 0, 84, 70
2, 150840, Note_on_c, 0, 84, 0
2, 150960, Note_on_c, 0, 83, 62
2, 151080, Note_on_c, 0, 83, 0
2, 151200, Note_on_c, 0, 81, 62
2, 151320, Note_on_c, 0, 81, 0
2, 151440, Note_on_c, 0, 80, 62
2, 151560, Note_on_c, 0, 80, 0
2, 151680, Note_on_c, 0, 81, 71
2, 151800, Note_on_c, 0, 81, 0
2, 151920, Note_on_c, 0, 76, 64
2, 152040, Note_on_c, 0, 76, 0
2, 152164, Note_on_c, 0, 77, 64
2, 152284, Note_on_c, 0, 77, 0
2, 152400, Note_on_c, 0, 74, 64
2, 152520, Note_on_c, 0, 74, 0
2, 152640, Note_on_c, 0, 72, 74
2, 153120, Note_on_c, 0, 72, 0
2, 153120, Note_on_c, 0, 71, 64
2, 153180, Note_on_c, 0, 71, 0
2, 153180, Note_on_c, 0, 72, 57
2, 153240, Note_on_c, 0, 72, 0
2, 153240, Note_on_c, 0, 71, 57
2, 153300, Note_on_c, 0, 71, 0
2, 153300, Note_on_c, 0, 72, 57
2, 153360, Note_on_c, 0, 72, 0
2, 153360, Note_on_c, 0, 71, 57
2, 153364, Note_on_c, 0, 71, 0
2, 153400, Note_on_c, 0, 72, 57
2, 153440, Note_on_c, 0, 72, 0
2, 153440, Note_on_c, 0, 71, 57
2, 153480, Note_on_c, 0, 71, 0
2, 153480, Note_on_c, 0, 69, 64
2, 153540, Note_on_c, 0, 69, 0
2, 153540, Note_on_c, 0, 71, 57
2, 153600, Note_on_c, 0, 71, 0
2, 153600, Note_on_c, 0, 69, 65
2, 154050, Note_on_c, 0, 69, 0
2, 154080, Note_on_c, 0, 72, 56
2, 154080, Note_on_c, 0, 76, 56
2, 154200, Note_on_c, 0, 76, 0
2, 154200, Note_on_c, 0, 72, 0
2, 154320, Note_on_c, 0, 74, 56
2, 154320, Note_on_c, 0, 77, 56
2, 154440, Note_on_c, 0, 77, 0
2, 154440, Note_on_c, 0, 74, 0
2, 154560, Note_on_c, 0, 76, 66
2, 154560, Note_on_c, 0, 79, 66
2, 154680, Note_on_c, 0, 79, 0
2, 154680, Note_on_c, 0, 76, 0
2, 154800, Note_on_c, 0, 76, 57
2, 154800, Note_on_c, 0, 79, 57
2, 154920, Note_on_c, 0, 79, 0
2, 154920, Note_on_c, 0, 76, 0
2, 155040, Note_on_c, 0, 81, 64
2, 155160, Note_on_c, 0, 81, 0
2, 155160, Note_on_c, 0, 79, 57
2, 155280, Note_on_c, 0, 79, 0
2, 155280, Note_on_c, 0, 77, 57
2, 155400, Note_on_c, 0, 77, 0
2, 155400, Note_on_c, 0, 76, 57
2, 155520, Note_on_c, 0, 76, 0
2, 155520, Note_on_c, 0, 74, 65
2, 155520, Note_on_c, 0, 71, 65
2, 155760, Note_on_c, 0, 71, 0
2, 155760, Note_on_c, 0, 67, 59
2, 156000, Note_on_c, 0, 67, 0
2, 156000, Note_on_c, 0, 74, 0
2, 156000, Note_on_c, 0, 72, 56
2, 156000, Note_on_c, 0, 76, 56
2, 156120, Note_on_c, 0, 76, 0
2, 156120, Note_on_c, 0, 72, 0
2, 156240, Note_on_c, 0, 74, 56
2, 156240, Note_on_c, 0, 77, 56
2, 156360, Note_on_c, 0, 77, 0
2, 156360, Note_on_c, 0, 74, 0
2, 156480, Note_on_c, 0, 76, 66
2, 156480, Note_on_c, 0, 79, 66
2, 156600, Note_on_c, 0, 79, 0
2, 156600, Note_on_c, 0, 76, 0
2, 156720, Note_on_c, 0, 76, 57
2, 156720, Note_on_c, 0, 79, 57
2, 156840, Note_on_c, 0, 79, 0
2, 156840, Note_on_c, 0, 76, 0
2, 156960, Note_on_c, 0, 81, 64
2, 157080, Note_on_c, 0, 81, 0
2, 157080, Note_on_c, 0, 79, 57
2, 157200, Note_on_c, 0, 79, 0
2, 157200, Note_on_c, 0, 77, 57
2, 157320, Note_on_c, 0, 77, 0
2, 157320, Note_on_c, 0, 76, 57
2, 157440, Note_on_c, 0, 76, 0
2, 157440, Note_on_c, 0, 74, 65
2, 157440, Note_on_c, 0, 71, 65
2, 157920, Note_on_c, 0, 71, 0
2, 157920, Note_on_c, 0, 74, 0
2, 157920, Note_on_c, 0, 69, 56
2, 157920, Note_on_c, 0, 72, 56
2, 158040, Note_on_c, 0, 72, 0
2, 158040, Note_on_c, 0, 69, 0
2, 158160, Note_on_c, 0, 71, 56
2, 158160, Note_on_c, 0, 74, 56
2, 158280, Note_on_c, 0, 74, 0
2, 158280, Note_on_c, 0, 71, 0
2, 158400, Note_on_c, 0, 72, 66
2, 158400, Note_on_c, 0, 76, 66
2, 158520, Note_on_c, 0, 76, 0
2, 158520, Note_on_c, 0, 72, 0
2, 158640, Note_on_c, 0, 72, 57
2, 158640, Note_on_c, 0, 76, 57
2, 158760, Note_on_c, 0, 76, 0
2, 158760, Note_on_c, 0, 72, 0
2, 158880, Note_on_c, 0, 77, 64
2, 159000, Note_on_c, 0, 77, 0
2, 159000, Note_on_c, 0, 76, 57
2, 159120, Note_on_c, 0, 76, 0
2, 159120, Note_on_c, 0, 74, 57
2, 159240, Note_on_c, 0, 74, 0
2, 159240, Note_on_c, 0, 72, 57
2, 159360, Note_on_c, 0, 72, 0
2, 159360, Note_on_c, 0, 71, 65
2, 159360, Note_on_c, 0, 68, 65
2, 159600, Note_on_c, 0, 68, 0
2, 159600, Note_on_c, 0, 64, 59
2, 159840, Note_on_c, 0, 64, 0
2, 159840, Note_on_c, 0, 71, 0
2, 159840, Note_on_c, 0, 69, 56
2, 159840, Note_on_c, 0, 72, 56
2, 159960, Note_on_c, 0, 72, 0
2, 159960, Note_on_c, 0, 69, 0
2, 160080, Note_on_c, 0, 71, 56
2, 160080, Note_on_c, 0, 74, 56
2, 160200, Note_on_c, 0, 74, 0
2, 160200, Note_on_c, 0, 71, 0
2, 160320, Note_on_c, 0, 72, 66
2, 160320, Note_on_c, 0, 76, 66
2, 160440, Note_on_c, 0, 76, 0
2, 160440, Note_on_c, 0, 72, 0
2, 160560, Note_on_c, 0, 72, 57
2, 160560, Note_on_c, 0, 76, 57
2, 160680, Note_on_c, 0, 76, 0
2, 160680, Note_on_c, 0, 72, 0
2, 160800, Note_on_c, 0, 77, 64
2, 160920, Note_on_c, 0, 77, 0
2, 160920, Note_on_c, 0, 76, 57
2, 161040, Note_on_c, 0, 76, 0
2, 161040, Note_on_c, 0, 74, 57
2, 161160, Note_on_c, 0, 74, 0
2, 161160, Note_on_c, 0, 72, 57
2, 161280, Note_on_c, 0, 72, 0
2, 161280, Note_on_c, 0, 71, 65
2, 161280, Note_on_c, 0, 68, 65
2, 161760, Note_on_c, 0, 68, 0
2, 161760, Note_on_c, 0, 71, 0
2, 161760, Note_on_c, 0, 71, 56
2, 161880, Note_on_c, 0, 71, 0
2, 161880, Note_on_c, 0, 69, 56
2, 162000, Note_on_c, 0, 69, 0
2, 162000, Note_on_c, 0, 68, 56
2, 162120, Note_on_c, 0, 68, 0
2, 162120, Note_on_c, 0, 69, 56
2, 162240, Note_on_c, 0, 69, 0
2, 162240, Note_on_c, 0, 72, 59
2, 162360, Note_on_c, 0, 72, 0
2, 162720, Note_on_c, 0, 74, 62
2, 162840, Note_on_c, 0, 74, 0
2, 162840, Note_on_c, 0, 72, 57
2, 162960, Note_on_c, 0, 72, 0
2, 162960, Note_on_c, 0, 71, 57
2, 163080, Note_on_c, 0, 71, 0
2, 163080, Note_on_c, 0, 72, 57
2, 163200, Note_on_c, 0, 72, 0
2, 163200, Note_on_c, 0, 76, 66
2, 163320, Note_on_c, 0, 76, 0
2, 163680, Note_on_c, 0, 77, 63
2, 163800, Note_on_c, 0, 77, 0
2, 163800, Note_on_c, 0, 76, 58
2, 163920, Note_on_c, 0, 76, 0
2, 163920, Note_on_c, 0, 75, 58
2, 164040, Note_on_c, 0, 75, 0
2, 164040, Note_on_c, 0, 76, 58
2, 164160, Note_on_c, 0, 76, 0
2, 164160, Note_on_c, 0, 83, 70
2, 164280, Note_on_c, 0, 83, 0
2, 164280, Note_on_c, 0, 81, 63
2, 164400, Note_on_c, 0, 81, 0
2, 164400, Note_on_c, 0, 80, 63
2, 164520, Note_on_c, 0, 80, 0
2, 164520, Note_on_c, 0, 81, 63
2, 164640, Note_on_c, 0, 81, 0
2, 164640, Note_on_c, 0, 83, 71
2, 164760, Note_on_c, 0, 83, 0
2, 164760, Note_on_c, 0, 81, 64
2, 164880, Note_on_c, 0, 81, 0
2, 164880, Note_on_c, 0, 80, 64
2, 165000, Note_on_c, 0, 80, 0
2, 165000, Note_on_c, 0, 81, 64
2, 165120, Note_on_c, 0, 81, 0
2, 165120, Note_on_c, 0, 84, 76
2, 165600, Note_on_c, 0, 84, 0
2, 165600, Note_on_c, 0, 81, 62
2, 165720, Note_on_c, 0, 81, 0
2, 165840, Note_on_c, 0, 83, 62
2, 165960, Note_on_c, 0, 83, 0
2, 166080, Note_on_c, 0, 84, 70
2, 166200, Note_on_c, 0, 84, 0
2, 166320, Note_on_c, 0, 83, 62
2, 166440, Note_on_c, 0, 83, 0
2, 166560, Note_on_c, 0, 81, 62
2, 166680, Note_on_c, 0, 81, 0
2, 166800, Note_on_c, 0, 80, 62
2, 166920, Note_on_c, 0, 80, 0
2, 167040, Note_on_c, 0, 81, 71
2, 167160, Note_on_c, 0, 81, 0
2, 167280, Note_on_c, 0, 76, 64
2, 167400, Note_on_c, 0, 76, 0
2, 167524, Note_on_c, 0, 77, 64
2, 167644, Note_on_c, 0, 77, 0
2, 167760, Note_on_c, 0, 74, 64
2, 167880, Note_on_c, 0, 74, 0
2, 168000, Note_on_c, 0, 72, 74
2, 168480, Note_on_c, 0, 72, 0
2, 168480, Note_on_c, 0, 71, 64
2, 168540, Note_on_c, 0, 71, 0
2, 168540, Note_on_c, 0, 72, 57
2, 168600, Note_on_c, 0, 72, 0
2, 168600, Note_on_c, 0, 71, 57
2, 168660, Note_on_c, 0, 71, 0
2, 168660, Note_on_c, 0, 72, 57
2, 168720, Note_on_c, 0, 72, 0
2, 168720, Note_on_c, 0, 71, 57
2, 168724, Note_on_c, 0, 71, 0
2, 168760, Note_on_c, 0, 72, 57
2, 168800, Note_on_c, 0, 72, 0
2, 168800, Note_on_c, 0, 71, 57
2, 168840, Note_on_c, 0, 71, 0
2, 168840, Note_on_c, 0, 69, 64
2, 168900, Note_on_c, 0, 69, 0
2, 168900, Note_on_c, 0, 71, 57
2, 168960, Note_on_c, 0, 71, 0
2, 168960, Note_on_c, 0, 69, 65
2, 169410, Note_on_c, 0, 69, 0
2, 169440, Note_on_c, 0, 69, 82
2, 169560, Note_on_c, 0, 69, 0
2, 169560, Note_on_c, 0, 81, 79
2, 169680, Note_on_c, 0, 81, 0
2, 169680, Note_on_c, 0, 71, 83
2, 169800, Note_on_c, 0, 71, 0
2, 169800, Note_on_c, 0, 83, 80
2, 169920, Note_on_c, 0, 83, 0
2, 169920, Note_on_c, 0, 73, 89
2, 170040, Note_on_c, 0, 73, 0
2, 170040, Note_on_c, 0, 85, 84
2, 170160, Note_on_c, 0, 85, 0
2, 170400, Note_on_c, 0, 69, 85
2, 170520, Note_on_c, 0, 69, 0
2, 170520, Note_on_c, 0, 81, 73
2, 170640, Note_on_c, 0, 81, 0
2, 170640, Note_on_c, 0, 71, 84
2, 170760, Note_on_c, 0, 71, 0
2, 170760, Note_on_c, 0, 83, 72
2, 170880, Note_on_c, 0, 83, 0
2, 170880, Note_on_c, 0, 73, 90
2, 171000, Note_on_c, 0, 73, 0
2, 171000, Note_on_c, 0, 85, 75
2, 171120, Note_on_c, 0, 85, 0
2, 171120, Note_on_c, 0, 71, 84
2, 171240, Note_on_c, 0, 71, 0
2, 171240, Note_on_c, 0, 83, 73
2, 171360, Note_on_c, 0, 83, 0
2, 171360, Note_on_c, 0, 69, 87
2, 171480, Note_on_c, 0, 69, 0
2, 171480, Note_on_c, 0, 81, 74
2, 171600, Note_on_c, 0, 81, 0
2, 171600, Note_on_c, 0, 68, 83
2, 171720, Note_on_c, 0, 68, 0
2, 171720, Note_on_c, 0, 80, 76
2, 171840, Note_on_c, 0, 80, 0
2, 171840, Note_on_c, 0, 66, 88
2, 171960, Note_on_c, 0, 66, 0
2, 171960, Note_on_c, 0, 78, 75
2, 172080, Note_on_c, 0, 78, 0
2, 172080, Note_on_c, 0, 68, 83
2, 172200, Note_on_c, 0, 68, 0
2, 172200, Note_on_c, 0, 80, 69
2, 172320, Note_on_c, 0, 80, 0
2, 172320, Note_on_c, 0, 69, 79
2, 172440, Note_on_c, 0, 69, 0
2, 172440, Note_on_c, 0, 81, 71
2, 172560, Note_on_c, 0, 81, 0
2, 172560, Note_on_c, 0, 71, 81
2, 172680, Note_on_c, 0, 71, 0
2, 172680, Note_on_c, 0, 83, 73
2, 172800, Note_on_c, 0, 83, 0
2, 172800, Note_on_c, 0, 68, 86
2, 172920, Note_on_c, 0, 68, 0
2, 172920, Note_on_c, 0, 80, 73
2, 173040, Note_on_c, 0, 80, 0
2, 173040, Note_on_c, 0, 64, 81
2, 173160, Note_on_c, 0, 64, 0
2, 173160, Note_on_c, 0, 76, 72
2, 173280, Note_on_c, 0, 76, 0
2, 173280, Note_on_c, 0, 69, 83
2, 173400, Note_on_c, 0, 69, 0
2, 173400, Note_on_c, 0, 81, 73
2, 173520, Note_on_c, 0, 81, 0
2, 173520, Note_on_c, 0, 71, 82
2, 173640, Note_on_c, 0, 71, 0
2, 173640, Note_on_c, 0, 83, 73
2, 173760, Note_on_c, 0, 83, 0
2, 173760, Note_on_c, 0, 73, 89
2, 173880, Note_on_c, 0, 73, 0
2, 173880, Note_on_c, 0, 85, 77
2, 174000, Note_on_c, 0, 85, 0
2, 174240, Note_on_c, 0, 69, 85
2, 174360, Note_on_c, 0, 69, 0
2, 174360, Note_on_c, 0, 81, 76
2, 174480, Note_on_c, 0, 81, 0
2, 174480, Note_on_c, 0, 71, 84
2, 174600, Note_on_c, 0, 71, 0
2, 174600, Note_on_c, 0, 83, 77
2, 174720, Note_on_c, 0, 83, 0
2, 174720, Note_on_c, 0, 73, 92
2, 174840, Note_on_c, 0, 73, 0
2, 174840, Note_on_c, 0, 85, 77
2, 174960, Note_on_c, 0, 85, 0
2, 174960, Note_on_c, 0, 71, 84
2, 175080, Note_on_c, 0, 71, 0
2, 175080, Note_on_c, 0, 83, 75
2, 175200, Note_on_c, 0, 83, 0
2, 175200, Note_on_c, 0, 69, 88
2, 175320, Note_on_c, 0, 69, 0
2, 175320, Note_on_c, 0, 81, 77
2, 175440, Note_on_c, 0, 81, 0
2, 175440, Note_on_c, 0, 68, 84
2, 175560, Note_on_c, 0, 68, 0
2, 175560, Note_on_c, 0, 80, 75
2, 175680, Note_on_c, 0, 80, 0
2, 175680, Note_on_c, 0, 66, 91
2, 175800, Note_on_c, 0, 66, 0
2, 175800, Note_on_c, 0, 78, 79
2, 175920, Note_on_c, 0, 78, 0
2, 175920, Note_on_c, 0, 71, 82
2, 176040, Note_on_c, 0, 71, 0
2, 176040, Note_on_c, 0, 83, 72
2, 176160, Note_on_c, 0, 83, 0
2, 176160, Note_on_c, 0, 68, 86
2, 176280, Note_on_c, 0, 68, 0
2, 176280, Note_on_c, 0, 80, 75
2, 176400, Note_on_c, 0, 80, 0
2, 176400, Note_on_c, 0, 64, 80
2, 176520, Note_on_c, 0, 64, 0
2, 176520, Note_on_c, 0, 76, 74
2, 176640, Note_on_c, 0, 76, 0
2, 176640, Note_on_c, 0, 69, 78
2, 176640, Note_on_c, 0, 81, 90
2, 177090, Note_on_c, 0, 81, 0
2, 177090, Note_on_c, 0, 69, 0
2, 177120, Note_on_c, 0, 69, 82
2, 177240, Note_on_c, 0, 69, 0
2, 177240, Note_on_c, 0, 81, 79
2, 177360, Note_on_c, 0, 81, 0
2, 177360, Note_on_c, 0, 71, 83
2, 177480, Note_on_c, 0, 71, 0
2, 177480, Note_on_c, 0, 83, 80
2, 177600, Note_on_c, 0, 83, 0
2, 177600, Note_on_c, 0, 73, 89
2, 177720, Note_on_c, 0, 73, 0
2, 177720, Note_on_c, 0, 85, 84
2, 177840, Note_on_c, 0, 85, 0
2, 178080, Note_on_c, 0, 69, 85
2, 178200, Note_on_c, 0, 69, 0
2, 178200, Note_on_c, 0, 81, 73
2, 178320, Note_on_c, 0, 81, 0
2, 178320, Note_on_c, 0, 71, 84
2, 178440, Note_on_c, 0, 71, 0
2, 178440, Note_on_c, 0, 83, 72
2, 178560, Note_on_c, 0, 83, 0
2, 178560, Note_on_c, 0, 73, 90
2, 178680, Note_on_c, 0, 73, 0
2, 178680, Note_on_c, 0, 85, 75
2, 178800, Note_on_c, 0, 85, 0
2, 178800, Note_on_c, 0, 71, 84
2, 178920, Note_on_c, 0, 71, 0
2, 178920, Note_on_c, 0, 83, 73
2, 179040, Note_on_c, 0, 83, 0
2, 179040, Note_on_c, 0, 69, 87
2, 179160, Note_on_c, 0, 69, 0
2, 179160, Note_on_c, 0, 81, 74
2, 179280, Note_on_c, 0, 81, 0
2, 179280, Note_on_c, 0, 68, 83
2, 179400, Note_on_c, 0, 68, 0
2, 179400, Note_on_c, 0, 80, 76
2, 179520, Note_on_c, 0, 80, 0
2, 179520, Note_on_c, 0, 66, 88
2, 179640, Note_on_c, 0, 66, 0
2, 179640, Note_on_c, 0, 78, 75
2, 179760, Note_on_c, 0, 78, 0
2, 179760, Note_on_c, 0, 68, 83
2, 179880, Note_on_c, 0, 68, 0
2, 179880, Note_on_c, 0, 80, 69
2, 180000, Note_on_c, 0, 80, 0
2, 180000, Note_on_c, 0, 69, 79
2, 180120, Note_on_c, 0, 69, 0
2, 180120, Note_on_c, 0, 81, 71
2, 180240, Note_on_c, 0, 81, 0
2, 180240, Note_on_c, 0, 71, 81
2, 180360, Note_on_c, 0, 71, 0
2, 180360, Note_on_c, 0, 83, 73
2, 180480, Note_on_c, 0, 83, 0
2, 180480, Note_on_c, 0, 68, 86
2, 180600, Note_on_c, 0, 68, 0
2, 180600, Note_on_c, 0, 80, 73
2, 180720, Note_on_c, 0, 80, 0
2, 180720, Note_on_c, 0, 64, 81
2, 180840, Note_on_c, 0, 64, 0
2, 180840, Note_on_c, 0, 76, 72
2, 180960, Note_on_c, 0, 76, 0
2, 180960, Note_on_c, 0, 69, 83
2, 181080, Note_on_c, 0, 69, 0
2, 181080, Note_on_c, 0, 81, 73
2, 181200, Note_on_c, 0, 81, 0
2, 181200, Note_on_c, 0, 71, 82
2, 181320, Note_on_c, 0, 71, 0
2, 181320, Note_on_c, 0, 83, 73
2, 181440, Note_on_c, 0, 83, 0
2, 181440, Note_on_c, 0, 73, 89
2, 181560, Note_on_c, 0, 73, 0
2, 181560, Note_on_c, 0, 85, 77
2, 181680, Note_on_c, 0, 85, 0
2, 181920, Note_on_c, 0, 69, 85
2, 182040, Note_on_c, 0, 69, 0
2, 182040, Note_on_c, 0, 81, 76
2, 182160, Note_on_c, 0, 81, 0
2, 182160, Note_on_c, 0, 71, 84
2, 182280, Note_on_c, 0, 71, 0
2, 182280, Note_on_c, 0, 83, 77
2, 182400, Note_on_c, 0, 83, 0
2, 182400, Note_on_c, 0, 73, 92
2, 182520, Note_on_c, 0, 73, 0
2, 182520, Note_on_c, 0, 85, 77
2, 182640, Note_on_c, 0, 85, 0
2, 182640, Note_on_c, 0, 71, 84
2, 182760, Note_on_c, 0, 71, 0
2, 182760, Note_on_c, 0, 83, 75
2, 182880, Note_on_c, 0, 83, 0
2, 182880, Note_on_c, 0, 69, 88
2, 183000, Note_on_c, 0, 69, 0
2, 183000, Note_on_c, 0, 81, 77
2, 183120, Note_on_c, 0, 81, 0
2, 183120, Note_on_c, 0, 68, 84
2, 183240, Note_on_c, 0, 68, 0
2, 183240, Note_on_c, 0, 80, 75
2, 183360, Note_on_c, 0, 80, 0
2, 183360, Note_on_c, 0, 66, 91
2, 183480, Note_on_c, 0, 66, 0
2, 183480, Note_on_c, 0, 78, 79
2, 183600, Note_on_c, 0, 78, 0
2, 183600, Note_on_c, 0, 71, 82
2, 183720, Note_on_c, 0, 71, 0
2, 183720, Note_on_c, 0, 83, 72
2, 183840, Note_on_c, 0, 83, 0
2, 183840, Note_on_c, 0, 68, 86
2, 183960, Note_on_c, 0, 68, 0
2, 183960, Note_on_c, 0, 80, 75
2, 184080, Note_on_c, 0, 80, 0
2, 184080, Note_on_c, 0, 64, 80
2, 184200, Note_on_c, 0, 64, 0
2, 184200, Note_on_c, 0, 76, 74
2, 184320, Note_on_c, 0, 76, 0
2, 184320, Note_on_c, 0, 69, 78
2, 184320, Note_on_c, 0, 81, 90
2, 184800, Note_on_c, 0, 81, 0
2, 184800, Note_on_c, 0, 69, 0
2, 184800, Note_on_c, 0, 85, 90
2, 184800, Note_on_c, 0, 73, 78
2, 185160, Note_on_c, 0, 85, 0
2, 185160, Note_on_c, 0, 85, 90
2, 185250, Note_on_c, 0, 85, 0
2, 185250, Note_on_c, 0, 73, 74
2, 185260, Note_on_c, 0, 76, 77
2, 185270, Note_on_c, 0, 81, 80
2, 185280, Note_on_c, 0, 73, 0
2, 185280, Note_on_c, 0, 85, 90
2, 185760, Note_on_c, 0, 73, 0
2, 185760, Note_on_c, 0, 81, 0
2, 185760, Note_on_c, 0, 76, 0
2, 186210, Note_on_c, 0, 73, 74
2, 186220, Note_on_c, 0, 76, 77
2, 186230, Note_on_c, 0, 81, 80
2, 186240, Note_on_c, 0, 85, 0
2, 186240, Note_on_c, 0, 85, 90
2, 186720, Note_on_c, 0, 73, 0
2, 186720, Note_on_c, 0, 81, 0
2, 186720, Note_on_c, 0, 76, 0
2, 187200, Note_on_c, 0, 85, 0
2, 187200, Note_on_c, 0, 86, 90
2, 187320, Note_on_c, 0, 86, 0
2, 187320, Note_on_c, 0, 85, 87
2, 187440, Note_on_c, 0, 85, 0
2, 187440, Note_on_c, 0, 83, 86
2, 187500, Note_on_c, 0, 83, 0
2, 187560, Note_on_c, 0, 85, 86
2, 187620, Note_on_c, 0, 85, 0
2, 187680, Note_on_c, 0, 86, 90
2, 187800, Note_on_c, 0, 86, 0
2, 187800, Note_on_c, 0, 85, 84
2, 187920, Note_on_c, 0, 85, 0
2, 187920, Note_on_c, 0, 83, 84
2, 187980, Note_on_c, 0, 83, 0
2, 188040, Note_on_c, 0, 85, 85
2, 188100, Note_on_c, 0, 85, 0
2, 188160, Note_on_c, 0, 78, 80
2, 188160, Note_on_c, 0, 81, 80
2, 188160, Note_on_c, 0, 86, 90
2, 189090, Note_on_c, 0, 86, 76
2, 189120, Note_on_c, 0, 86, 0
2, 189120, Note_on_c, 0, 78, 0
2, 189120, Note_on_c, 0, 81, 0
2, 189120, Note_on_c, 0, 86, 0
2, 189120, Note_on_c, 0, 76, 76
2, 189120, Note_on_c, 0, 81, 76
2, 189120, Note_on_c, 0, 85, 90
2, 189180, Note_on_c, 0, 85, 0
2, 189180, Note_on_c, 0, 81, 0
2, 189180, Note_on_c, 0, 76, 0
2, 189330, Note_on_c, 0, 86, 76
2, 189360, Note_on_c, 0, 86, 0
2, 189360, Note_on_c, 0, 76, 72
2, 189360, Note_on_c, 0, 81, 72
2, 189360, Note_on_c, 0, 85, 85
2, 189420, Note_on_c, 0, 85, 0
2, 189420, Note_on_c, 0, 81, 0
2, 189420, Note_on_c, 0, 76, 0
2, 189570, Note_on_c, 0, 86, 76
2, 189600, Note_on_c, 0, 86, 0
2, 189600, Note_on_c, 0, 76, 72
2, 189600, Note_on_c, 0, 81, 72
2, 189600, Note_on_c, 0, 85, 85
2, 189660, Note_on_c, 0, 85, 0
2, 189660, Note_on_c, 0, 81, 0
2, 189660, Note_on_c, 0, 76, 0
2, 189810, Note_on_c, 0, 86, 76
2, 189840, Note_on_c, 0, 86, 0
2, 189840, Note_on_c, 0, 76, 72
2, 189840, Note_on_c, 0, 81, 72
2, 189840, Note_on_c, 0, 85, 85
2, 189900, Note_on_c, 0, 85, 0
2, 189900, Note_on_c, 0, 81, 0
2, 189900, Note_on_c, 0, 76, 0
2, 190080, Note_on_c, 0, 76, 80
2, 190080, Note_on_c, 0, 80, 80
2, 190080, Note_on_c, 0, 83, 90
2, 190920, Note_on_c, 0, 83, 0
2, 190920, Note_on_c, 0, 88, 103
2, 191010, Note_on_c, 0, 88, 0
2, 191010, Note_on_c, 0, 73, 74
2, 191020, Note_on_c, 0, 76, 77
2, 191030, Note_on_c, 0, 81, 80
2, 191040, Note_on_c, 0, 80, 0
2, 191040, Note_on_c, 0, 76, 0
2, 191040, Note_on_c, 0, 85, 90
2, 191520, Note_on_c, 0, 76, 0
2, 191520, Note_on_c, 0, 81, 0
2, 191520, Note_on_c, 0, 73, 0
2, 191970, Note_on_c, 0, 73, 74
2, 191980, Note_on_c, 0, 76, 77
2, 191990, Note_on_c, 0, 81, 80
2, 192000, Note_on_c, 0, 85, 0
2, 192000, Note_on_c, 0, 85, 90
2, 192480, Note_on_c, 0, 73, 0
2, 192480, Note_on_c, 0, 81, 0
2, 192480, Note_on_c, 0, 76, 0
2, 192960, Note_on_c, 0, 85, 0
2, 192960, Note_on_c, 0, 86, 90
2, 193080, Note_on_c, 0, 86, 0
2, 193080, Note_on_c, 0, 85, 87
2, 193200, Note_on_c, 0, 85, 0
2, 193200, Note_on_c, 0, 83, 86
2, 193260, Note_on_c, 0, 83, 0
2, 193320, Note_on_c, 0, 85, 86
2, 193380, Note_on_c, 0, 85, 0
2, 193440, Note_on_c, 0, 86, 90
2, 193560, Note_on_c, 0, 86, 0
2, 193560, Note_on_c, 0, 85, 84
2, 193680, Note_on_c, 0, 85, 0
2, 193680, Note_on_c, 0, 83, 84
2, 193740, Note_on_c, 0, 83, 0
2, 193800, Note_on_c, 0, 85, 85
2, 193860, Note_on_c, 0, 85, 0
2, 193920, Note_on_c, 0, 78, 80
2, 193920, Note_on_c, 0, 81, 80
2, 193920, Note_on_c, 0, 86, 90
2, 194850, Note_on_c, 0, 86, 76
2, 194880, Note_on_c, 0, 86, 0
2, 194880, Note_on_c, 0, 78, 0
2, 194880, Note_on_c, 0, 81, 0
2, 194880, Note_on_c, 0, 86, 0
2, 194880, Note_on_c, 0, 76, 76
2, 194880, Note_on_c, 0, 81, 76
2, 194880, Note_on_c, 0, 85, 90
2, 195810, Note_on_c, 0, 85, 76
2, 195840, Note_on_c, 0, 85, 0
2, 195840, Note_on_c, 0, 76, 0
2, 195840, Note_on_c, 0, 81, 0
2, 195840, Note_on_c, 0, 85, 0
2, 195840, Note_on_c, 0, 76, 76
2, 195840, Note_on_c, 0, 80, 76
2, 195840, Note_on_c, 0, 83, 90
2, 195900, Note_on_c, 0, 83, 0
2, 195900, Note_on_c, 0, 80, 0
2, 195900, Note_on_c, 0, 76, 0
2, 196050, Note_on_c, 0, 85, 76
2, 196080, Note_on_c, 0, 85, 0
2, 196080, Note_on_c, 0, 76, 72
2, 196080, Note_on_c, 0, 80, 72
2, 196080, Note_on_c, 0, 83, 85
2, 196140, Note_on_c, 0, 83, 0
2, 196140, Note_on_c, 0, 80, 0
2, 196140, Note_on_c, 0, 76, 0
2, 196290, Note_on_c, 0, 85, 76
2, 196320, Note_on_c, 0, 85, 0
2, 196320, Note_on_c, 0, 76, 72
2, 196320, Note_on_c, 0, 80, 72
2, 196320, Note_on_c, 0, 83, 85
2, 196380, Note_on_c, 0, 83, 0
2, 196380, Note_on_c, 0, 80, 0
2, 196380, Note_on_c, 0, 76, 0
2, 196530, Note_on_c, 0, 85, 76
2, 196560, Note_on_c, 0, 85, 0
2, 196560, Note_on_c, 0, 76, 72
2, 196560, Note_on_c, 0, 80, 72
2, 196560, Note_on_c, 0, 83, 85
2, 196620, Note_on_c, 0, 83, 0
2, 196620, Note_on_c, 0, 80, 0
2, 196620, Note_on_c, 0, 76, 0
2, 196800, Note_on_c, 0, 81, 90
2, 197220, Note_on_c, 0, 81, 0
2, 197220, Note_on_c, 0, 76, 55
2, 197250, Note_on_c, 0, 76, 0
2, 197250, Note_on_c, 0, 81, 60
2, 197280, Note_on_c, 0, 81, 0
2, 197280, Note_on_c, 0, 85, 67
2, 197640, Note_on_c, 0, 85, 0
2, 197640, Note_on_c, 0, 85, 63
2, 197700, Note_on_c, 0, 85, 0
2, 197700, Note_on_c, 0, 76, 55
2, 197730, Note_on_c, 0, 76, 0
2, 197730, Note_on_c, 0, 81, 60
2, 197760, Note_on_c, 0, 81, 0
2, 197760, Note_on_c, 0, 85, 70
2, 198660, Note_on_c, 0, 85, 0
2, 198660, Note_on_c, 0, 76, 55
2, 198690, Note_on_c, 0, 76, 0
2, 198690, Note_on_c, 0, 81, 60
2, 198720, Note_on_c, 0, 81, 0
2, 198720, Note_on_c, 0, 85, 69
2, 199680, Note_on_c, 0, 85, 0
2, 199680, Note_on_c, 0, 86, 69
2, 199800, Note_on_c, 0, 86, 0
2, 199800, Note_on_c, 0, 85, 60
2, 199920, Note_on_c, 0, 85, 0
2, 199920, Note_on_c, 0, 83, 60
2, 199980, Note_on_c, 0, 83, 0
2, 200040, Note_on_c, 0, 85, 60
2, 200100, Note_on_c, 0, 85, 0
2, 200160, Note_on_c, 0, 86, 68
2, 200280, Note_on_c, 0, 86, 0
2, 200280, Note_on_c, 0, 85, 61
2, 200400, Note_on_c, 0, 85, 0
2, 200400, Note_on_c, 0, 83, 61
2, 200460, Note_on_c, 0, 83, 0
2, 200520, Note_on_c, 0, 85, 61
2, 200580, Note_on_c, 0, 85, 0
2, 200640, Note_on_c, 0, 86, 67
2, 201570, Note_on_c, 0, 86, 59
2, 201600, Note_on_c, 0, 86, 0
2, 201600, Note_on_c, 0, 86, 0
2, 201600, Note_on_c, 0, 85, 71
2, 201660, Note_on_c, 0, 85, 0
2, 201810, Note_on_c, 0, 86, 56
2, 201840, Note_on_c, 0, 86, 0
2, 201840, Note_on_c, 0, 85, 64
2, 201900, Note_on_c, 0, 85, 0
2, 202050, Note_on_c, 0, 86, 57
2, 202080, Note_on_c, 0, 86, 0
2, 202080, Note_on_c, 0, 85, 65
2, 202140, Note_on_c, 0, 85, 0
2, 202290, Note_on_c, 0, 86, 59
2, 202320, Note_on_c, 0, 86, 0
2, 202320, Note_on_c, 0, 85, 66
2, 202380, Note_on_c, 0, 85, 0
2, 202560, Note_on_c, 0, 83, 67
2, 203400, Note_on_c, 0, 83, 0
2, 203400, Note_on_c, 0, 88, 94
2, 203490, Note_on_c, 0, 88, 0
2, 203490, Note_on_c, 0, 73, 74
2, 203500, Note_on_c, 0, 76, 77
2, 203510, Note_on_c, 0, 81, 80
2, 203520, Note_on_c, 0, 85, 90
2, 204000, Note_on_c, 0, 81, 0
2, 204000, Note_on_c, 0, 73, 0
2, 204000, Note_on_c, 0, 76, 0
2, 204450, Note_on_c, 0, 73, 74
2, 204460, Note_on_c, 0, 76, 77
2, 204470, Note_on_c, 0, 81, 80
2, 204480, Note_on_c, 0, 85, 0
2, 204480, Note_on_c, 0, 85, 90
2, 204960, Note_on_c, 0, 73, 0
2, 204960, Note_on_c, 0, 81, 0
2, 204960, Note_on_c, 0, 76, 0
2, 205440, Note_on_c, 0, 85, 0
2, 205440, Note_on_c, 0, 86, 90
2, 205560, Note_on_c, 0, 86, 0
2, 205560, Note_on_c, 0, 85, 87
2, 205680, Note_on_c, 0, 85, 0
2, 205680, Note_on_c, 0, 83, 86
2, 205740, Note_on_c, 0, 83, 0
2, 205800, Note_on_c, 0, 85, 86
2, 205860, Note_on_c, 0, 85, 0
2, 205920, Note_on_c, 0, 86, 90
2, 206040, Note_on_c, 0, 86, 0
2, 206040, Note_on_c, 0, 85, 84
2, 206160, Note_on_c, 0, 85, 0
2, 206160, Note_on_c, 0, 83, 84
2, 206220, Note_on_c, 0, 83, 0
2, 206280, Note_on_c, 0, 85, 85
2, 206340, Note_on_c, 0, 85, 0
2, 206400, Note_on_c, 0, 78, 80
2, 206400, Note_on_c, 0, 81, 80
2, 206400, Note_on_c, 0, 86, 90
2, 207330, Note_on_c, 0, 86, 76
2, 207360, Note_on_c, 0, 86, 0
2, 207360, Note_on_c, 0, 78, 0
2, 207360, Note_on_c, 0, 81, 0
2, 207360, Note_on_c, 0, 86, 0
2, 207360, Note_on_c, 0, 76, 76
2, 207360, Note_on_c, 0, 81, 76
2, 207360, Note_on_c, 0, 85, 90
2, 208290, Note_on_c, 0, 85, 76
2, 208320, Note_on_c, 0, 85, 0
2, 208320, Note_on_c, 0, 76, 0
2, 208320, Note_on_c, 0, 81, 0
2, 208320, Note_on_c, 0, 85, 0
2, 208320, Note_on_c, 0, 76, 76
2, 208320, Note_on_c, 0, 80, 76
2, 208320, Note_on_c, 0, 83, 90
2, 208380, Note_on_c, 0, 83, 0
2, 208380, Note_on_c, 0, 80, 0
2, 208380, Note_on_c, 0, 76, 0
2, 208530, Note_on_c, 0, 85, 76
2, 208560, Note_on_c, 0, 85, 0
2, 208560, Note_on_c, 0, 76, 72
2, 208560, Note_on_c, 0, 80, 72
2, 208560, Note_on_c, 0, 83, 85
2, 208620, Note_on_c, 0, 83, 0
2, 208620, Note_on_c, 0, 80, 0
2, 208620, Note_on_c, 0, 76, 0
2, 208770, Note_on_c, 0, 85, 76
2, 208800, Note_on_c, 0, 85, 0
2, 208800, Note_on_c, 0, 76, 72
2, 208800, Note_on_c, 0, 80, 72
2, 208800, Note_on_c, 0, 83, 85
2, 208860, Note_on_c, 0, 83, 0
2, 208860, Note_on_c, 0, 80, 0
2, 208860, Note_on_c, 0, 76, 0
2, 209010, Note_on_c, 0, 85, 76
2, 209040, Note_on_c, 0, 85, 0
2, 209040, Note_on_c, 0, 76, 72
2, 209040, Note_on_c, 0, 80, 72
2, 209040, Note_on_c, 0, 83, 85
2, 209100, Note_on_c, 0, 83, 0
2, 209100, Note_on_c, 0, 80, 0
2, 209100, Note_on_c, 0, 76, 0
2, 209280, Note_on_c, 0, 69, 90
2, 209280, Note_on_c, 0, 73, 90
2, 209280, Note_on_c, 0, 76, 90
2, 209280, Note_on_c, 0, 81, 90
2, 210000, Note_on_c, 0, 81, 0
2, 210000, Note_on_c, 0, 69, 0
2, 210000, Note_on_c, 0, 73, 0
2, 210000, Note_on_c, 0, 76, 0
2, 210000, Note_on_c, 0, 73, 73
2, 210000, Note_on_c, 0, 85, 87
2, 210060, Note_on_c, 0, 85, 0
2, 210060, Note_on_c, 0, 73, 0
2, 210240, Note_on_c, 0, 69, 90
2, 210240, Note_on_c, 0, 81, 90
2, 210960, Note_on_c, 0, 81, 0
2, 210960, Note_on_c, 0, 69, 0
2, 210960, Note_on_c, 0, 73, 73
2, 210960, Note_on_c, 0, 85, 87
2, 211020, Note_on_c, 0, 85, 0
2, 211020, Note_on_c, 0, 73, 0
2, 211200, Note_on_c, 0, 69, 90
2, 211200, Note_on_c, 0, 81, 90
2, 211920, Note_on_c, 0, 81, 0
2, 211920, Note_on_c, 0, 69, 0
2, 211920, Note_on_c, 0, 73, 73
2, 211920, Note_on_c, 0, 85, 87
2, 211980, Note_on_c, 0, 85, 0
2, 211980, Note_on_c, 0, 73, 0
2, 212160, Note_on_c, 0, 69, 82
2, 212160, Note_on_c, 0, 81, 97
2, 212280, Note_on_c, 0, 81, 0
2, 212280, Note_on_c, 0, 69, 0
2, 212400, Note_on_c, 0, 73, 78
2, 212400, Note_on_c, 0, 85, 92
2, 212520, Note_on_c, 0, 85, 0
2, 212520, Note_on_c, 0, 73, 0
2, 212640, Note_on_c, 0, 69, 83
2, 212640, Note_on_c, 0, 81, 99
2, 212760, Note_on_c, 0, 81, 0
2, 212760, Note_on_c, 0, 69, 0
2, 212880, Note_on_c, 0, 73, 79
2, 212880, Note_on_c, 0, 85, 93
2, 213000, Note_on_c, 0, 85, 0
2, 213000, Note_on_c, 0, 73, 0
2, 213120, Note_on_c, 0, 69, 90
2, 213120, Note_on_c, 0, 81, 108
2, 213600, Note_on_c, 0, 81, 0
2, 213600, Note_on_c, 0, 69, 0
2, 213600, Note_on_c, 0, 69, 82
2, 213600, Note_on_c, 0, 73, 82
2, 213600, Note_on_c, 0, 76, 82
2, 213600, Note_on_c, 0, 81, 97
2, 214080, Note_on_c, 0, 81, 0
2, 214080, Note_on_c, 0, 69, 0
2, 214080, Note_on_c, 0, 73, 0
2, 214080, Note_on_c, 0, 76, 0
2, 214080, Note_on_c, 0, 69, 86
2, 214080, Note_on_c, 0, 73, 86
2, 214080, Note_on_c, 0, 76, 86
2, 214080, Note_on_c, 0, 81, 103
2, 214560, Note_on_c, 0, 81, 0
2, 214560, Note_on_c, 0, 69, 0
2, 214560, Note_on_c, 0, 73, 0
2, 214560, Note_on_c, 0, 76, 0
2, 214560, End_track
3, 0, Start_track
3, 0, Title_t, "Piano left"
3, 0, Program_c, 0, 0
3, 0, Control_c, 0, 7, 100
3, 0, Control_c, 0, 10, 64
3, 960, Note_on_c, 0, 57, 57
3, 1080, Note_on_c, 0, 57, 0
3, 1200, Note_on_c, 0, 64, 52
3, 1200, Note_on_c, 0, 60, 43
3, 1320, Note_on_c, 0, 60, 0
3, 1320, Note_on_c, 0, 64, 0
3, 1440, Note_on_c, 0, 60, 43
3, 1440, Note_on_c, 0, 64, 52
3, 1560, Note_on_c, 0, 64, 0
3, 1560, Note_on_c, 0, 60, 0
3, 1680, Note_on_c, 0, 60, 42
3, 1680, Note_on_c, 0, 64, 51
3, 1800, Note_on_c, 0, 64, 0
3, 1800, Note_on_c, 0, 60, 0
3, 1920, Note_on_c, 0, 57, 57
3, 2040, Note_on_c, 0, 57, 0
3, 2160, Note_on_c, 0, 64, 52
3, 2160, Note_on_c, 0, 60, 43
3, 2280, Note_on_c, 0, 60, 0
3, 2280, Note_on_c, 0, 64, 0
3, 2400, Note_on_c, 0, 64, 52
3, 2400, Note_on_c, 0, 60, 43
3, 2520, Note_on_c, 0, 60, 0
3, 2520, Note_on_c, 0, 64, 0
3, 2640, Note_on_c, 0, 64, 52
3, 2640, Note_on_c, 0, 60, 43
3, 2760, Note_on_c, 0, 60, 0
3, 2760, Note_on_c, 0, 64, 0
3, 2880, Note_on_c, 0, 57, 57
3, 3000, Note_on_c, 0, 57, 0
3, 3120, Note_on_c, 0, 64, 50
3, 3120, Note_on_c, 0, 60, 42
3, 3240, Note_on_c, 0, 60, 0
3, 3240, Note_on_c, 0, 64, 0
3, 3360, Note_on_c, 0, 57, 57
3, 3480, Note_on_c, 0, 57, 0
3, 3600, Note_on_c, 0, 64, 52
3, 3600, Note_on_c, 0, 60, 43
3, 3720, Note_on_c, 0, 60, 0
3, 3720, Note_on_c, 0, 64, 0
3, 3840, Note_on_c, 0, 57, 57
3, 3960, Note_on_c, 0, 57, 0
3, 4080, Note_on_c, 0, 64, 50
3, 4080, Note_on_c, 0, 60, 42
3, 4200, Note_on_c, 0, 60, 0
3, 4200, Note_on_c, 0, 64, 0
3, 4320, Note_on_c, 0, 64, 50
3, 4320, Note_on_c, 0, 60, 42
3, 4440, Note_on_c, 0, 60, 0
3, 4440, Note_on_c, 0, 64, 0
3, 4560, Note_on_c, 0, 64, 50
3, 4560, Note_on_c, 0, 60, 42
3, 4680, Note_on_c, 0, 60, 0
3, 4680, Note_on_c, 0, 64, 0
3, 4800, Note_on_c, 0, 52, 65
3, 4920, Note_on_c, 0, 52, 0
3, 5040, Note_on_c, 0, 64, 53
3, 5040, Note_on_c, 0, 59, 44
3, 5160, Note_on_c, 0, 59, 0
3, 5160, Note_on_c, 0, 64, 0
3, 5280, Note_on_c, 0, 64, 53
3, 5280, Note_on_c, 0, 59, 44
3, 5400, Note_on_c, 0, 59, 0
3, 5400, Note_on_c, 0, 64, 0
3, 5520, Note_on_c, 0, 64, 53
3, 5520, Note_on_c, 0, 59, 44
3, 5640, Note_on_c, 0, 59, 0
3, 5640, Note_on_c, 0, 64, 0
3, 5760, Note_on_c, 0, 52, 66
3, 5880, Note_on_c, 0, 52, 0
3, 6000, Note_on_c, 0, 64, 52
3, 6000, Note_on_c, 0, 59, 43
3, 6120, Note_on_c, 0, 59, 0
3, 6120, Note_on_c, 0, 64, 0
3, 6240, Note_on_c, 0, 64, 52
3, 6240, Note_on_c, 0, 59, 43
3, 6360, Note_on_c, 0, 59, 0
3, 6360, Note_on_c, 0, 64, 0
3, 6480, Note_on_c, 0, 64, 52
3, 6480, Note_on_c, 0, 59, 43
3, 6600, Note_on_c, 0, 59, 0
3, 6600, Note_on_c, 0, 64, 0
3, 6720, Note_on_c, 0, 52, 67
3, 6840, Note_on_c, 0, 52, 0
3, 6960, Note_on_c, 0, 64, 52
3, 6960, Note_on_c, 0, 59, 43
3, 7080, Note_on_c, 0, 59, 0
3, 7080, Note_on_c, 0, 64, 0
3, 7200, Note_on_c, 0, 47, 52
3, 7320, Note_on_c, 0, 47, 0
3, 7440, Note_on_c, 0, 59, 52
3, 7560, Note_on_c, 0, 59, 0
3, 7680, Note_on_c, 0, 52, 57
3, 8130, Note_on_c, 0, 52, 0
3, 8640, Note_on_c, 0, 57, 57
3, 8760, Note_on_c, 0, 57, 0
3, 8880, Note_on_c, 0, 64, 52
3, 8880, Note_on_c, 0, 60, 43
3, 9000, Note_on_c, 0, 60, 0
3, 9000, Note_on_c, 0, 64, 0
3, 9120, Note_on_c, 0, 60, 43
3, 9120, Note_on_c, 0, 64, 52
3, 9240, Note_on_c, 0, 64, 0
3, 9240, Note_on_c, 0, 60, 0
3, 9360, Note_on_c, 0, 60, 42
3, 9360, Note_on_c, 0, 64, 51
3, 9480, Note_on_c, 0, 64, 0
3, 9480, Note_on_c, 0, 60, 0
3, 9600, Note_on_c, 0, 57, 57
3, 9720, Note_on_c, 0, 57, 0
3, 9840, Note_on_c, 0, 64, 52
3, 9840, Note_on_c, 0, 60, 43
3, 9960, Note_on_c, 0, 60, 0
3, 9960, Note_on_c, 0, 64, 0
3, 10080, Note_on_c, 0, 64, 52
3, 10080, Note_on_c, 0, 60, 43
3, 10200, Note_on_c, 0, 60, 0
3, 10200, Note_on_c, 0, 64, 0
3, 10320, Note_on_c, 0, 64, 52
3, 10320, Note_on_c, 0, 60, 43
3, 10440, Note_on_c, 0, 60, 0
3, 10440, Note_on_c, 0, 64, 0
3, 10560, Note_on_c, 0, 57, 57
3, 10680, Note_on_c, 0, 57, 0
3, 10800, Note_on_c, 0, 64, 50
3, 10800, Note_on_c, 0, 60, 42
3, 10920, Note_on_c, 0, 60, 0
3, 10920, Note_on_c, 0, 64, 0
3, 11040, Note_on_c, 0, 57, 57
3, 11160, Note_on_c, 0, 57, 0
3, 11280, Note_on_c, 0, 64, 52
3, 11280, Note_on_c, 0, 60, 43
3, 11400, Note_on_c, 0, 60, 0
3, 11400, Note_on_c, 0, 64, 0
3, 11520, Note_on_c, 0, 57, 57
3, 11640, Note_on_c, 0, 57, 0
3, 11760, Note_on_c, 0, 64, 50
3, 11760, Note_on_c, 0, 60, 42
3, 11880, Note_on_c, 0, 60, 0
3, 11880, Note_on_c, 0, 64, 0
3, 12000, Note_on_c, 0, 64, 50
3, 12000, Note_on_c, 0, 60, 42
3, 12120, Note_on_c, 0, 60, 0
3, 12120, Note_on_c, 0, 64, 0
3, 12240, Note_on_c, 0, 64, 50
3, 12240, Note_on_c, 0, 60, 42
3, 12360, Note_on_c, 0, 60, 0
3, 12360, Note_on_c, 0, 64, 0
3, 12480, Note_on_c, 0, 52, 65
3, 12600, Note_on_c, 0, 52, 0
3, 12720, Note_on_c, 0, 64, 53
3, 12720, Note_on_c, 0, 59, 44
3, 12840, Note_on_c, 0, 59, 0
3, 12840, Note_on_c, 0, 64, 0
3, 12960, Note_on_c, 0, 64, 53
3, 12960, Note_on_c, 0, 59, 44
3, 13080, Note_on_c, 0, 59, 0
3, 13080, Note_on_c, 0, 64, 0
3, 13200, Note_on_c, 0, 64, 53
3, 13200, Note_on_c, 0, 59, 44
3, 13320, Note_on_c, 0, 59, 0
3, 13320, Note_on_c, 0, 64, 0
3, 13440, Note_on_c, 0, 52, 66
3, 13560, Note_on_c, 0, 52, 0
3, 13680, Note_on_c, 0, 64, 52
3, 13680, Note_on_c, 0, 59, 43
3, 13800, Note_on_c, 0, 59, 0
3, 13800, Note_on_c, 0, 64, 0
3, 13920, Note_on_c, 0, 64, 52
3, 13920, Note_on_c, 0, 59, 43
3, 14040, Note_on_c, 0, 59, 0
3, 14040, Note_on_c, 0, 64, 0
3, 14160, Note_on_c, 0, 64, 52
3, 14160, Note_on_c, 0, 59, 43
3, 14280, Note_on_c, 0, 59, 0
3, 14280, Note_on_c, 0, 64, 0
3, 14400, Note_on_c, 0, 52, 67
3, 14520, Note_on_c, 0, 52, 0
3, 14640, Note_on_c, 0, 64, 52
3, 14640, Note_on_c, 0, 59, 43
3, 14760, Note_on_c, 0, 59, 0
3, 14760, Note_on_c, 0, 64, 0
3, 14880, Note_on_c, 0, 47, 52
3, 15000, Note_on_c, 0, 47, 0
3, 15120, Note_on_c, 0, 59, 52
3, 15240, Note_on_c, 0, 59, 0
3, 15360, Note_on_c, 0, 52, 57
3, 15810, Note_on_c, 0, 52, 0
3, 16320, Note_on_c, 0, 48, 59
3, 16440, Note_on_c, 0, 48, 0
3, 16560, Note_on_c, 0, 60, 53
3, 16680, Note_on_c, 0, 60, 0
3, 16800, Note_on_c, 0, 52, 59
3, 16920, Note_on_c, 0, 52, 0
3, 17040, Note_on_c, 0, 64, 57
3, 17160, Note_on_c, 0, 64, 0
3, 17280, Note_on_c, 0, 55, 60
3, 17760, Note_on_c, 0, 55, 0
3, 18240, Note_on_c, 0, 48, 59
3, 18360, Note_on_c, 0, 48, 0
3, 18480, Note_on_c, 0, 60, 53
3, 18600, Note_on_c, 0, 60, 0
3, 18720, Note_on_c, 0, 52, 59
3, 18840, Note_on_c, 0, 52, 0
3, 18960, Note_on_c, 0, 64, 57
3, 19080, Note_on_c, 0, 64, 0
3, 19200, Note_on_c, 0, 55, 60
3, 19680, Note_on_c, 0, 55, 0
3, 20160, Note_on_c, 0, 45, 59
3, 20280, Note_on_c, 0, 45, 0
3, 20400, Note_on_c, 0, 57, 53
3, 20520, Note_on_c, 0, 57, 0
3, 20640, Note_on_c, 0, 48, 59
3, 20760, Note_on_c, 0, 48, 0
3, 20880, Note_on_c, 0, 60, 57
3, 21000, Note_on_c, 0, 60, 0
3, 21120, Note_on_c, 0, 52, 60
3, 21600, Note_on_c, 0, 52, 0
3, 22080, Note_on_c, 0, 45, 59
3, 22200, Note_on_c, 0, 45, 0
3, 22320, Note_on_c, 0, 57, 53
3, 22440, Note_on_c, 0, 57, 0
3, 22560, Note_on_c, 0, 48, 59
3, 22680, Note_on_c, 0, 48, 0
3, 22800, Note_on_c, 0, 60, 57
3, 22920, Note_on_c, 0, 60, 0
3, 23040, Note_on_c, 0, 52, 60
3, 23520, Note_on_c, 0, 52, 0
3, 24000, Note_on_c, 0, 57, 53
3, 24120, Note_on_c, 0, 57, 0
3, 24240, Note_on_c, 0, 64, 47
3, 24240, Note_on_c, 0, 60, 47
3, 24360, Note_on_c, 0, 60, 0
3, 24360, Note_on_c, 0, 64, 0
3, 24480, Note_on_c, 0, 60, 47
3, 24480, Note_on_c, 0, 64, 47
3, 24600, Note_on_c, 0, 64, 0
3, 24600, Note_on_c, 0, 60, 0
3, 24720, Note_on_c, 0, 60, 47
3, 24720, Note_on_c, 0, 64, 47
3, 24840, Note_on_c, 0, 64, 0
3, 24840, Note_on_c, 0, 60, 0
3, 24960, Note_on_c, 0, 57, 54
3, 25080, Note_on_c, 0, 57, 0
3, 25200, Note_on_c, 0, 64, 48
3, 25200, Note_on_c, 0, 60, 48
3, 25320, Note_on_c, 0, 60, 0
3, 25320, Note_on_c, 0, 64, 0
3, 25440, Note_on_c, 0, 64, 48
3, 25440, Note_on_c, 0, 60, 48
3, 25560, Note_on_c, 0, 60, 0
3, 25560, Note_on_c, 0, 64, 0
3, 25680, Note_on_c, 0, 64, 48
3, 25680, Note_on_c, 0, 60, 48
3, 25800, Note_on_c, 0, 60, 0
3, 25800, Note_on_c, 0, 64, 0
3, 25920, Note_on_c, 0, 57, 56
3, 26040, Note_on_c, 0, 57, 0
3, 26160, Note_on_c, 0, 64, 49
3, 26160, Note_on_c, 0, 60, 49
3, 26280, Note_on_c, 0, 60, 0
3, 26280, Note_on_c, 0, 64, 0
3, 26400, Note_on_c, 0, 57, 57
3, 26520, Note_on_c, 0, 57, 0
3, 26640, Note_on_c, 0, 64, 52
3, 26640, Note_on_c, 0, 60, 43
3, 26760, Note_on_c, 0, 60, 0
3, 26760, Note_on_c, 0, 64, 0
3, 26880, Note_on_c, 0, 53, 57
3, 27000, Note_on_c, 0, 53, 0
3, 27120, Note_on_c, 0, 63, 51
3, 27120, Note_on_c, 0, 57, 51
3, 27240, Note_on_c, 0, 57, 0
3, 27240, Note_on_c, 0, 63, 0
3, 27360, Note_on_c, 0, 63, 43
3, 27360, Note_on_c, 0, 57, 43
3, 27480, Note_on_c, 0, 57, 0
3, 27480, Note_on_c, 0, 63, 0
3, 27600, Note_on_c, 0, 63, 39
3, 27600, Note_on_c, 0, 57, 39
3, 27720, Note_on_c, 0, 57, 0
3, 27720, Note_on_c, 0, 63, 0
3, 27840, Note_on_c, 0, 52, 46
3, 27960, Note_on_c, 0, 52, 0
3, 28080, Note_on_c, 0, 64, 42
3, 28080, Note_on_c, 0, 57, 42
3, 28200, Note_on_c, 0, 57, 0
3, 28200, Note_on_c, 0, 64, 0
3, 28320, Note_on_c, 0, 50, 42
3, 28440, Note_on_c, 0, 50, 0
3, 28560, Note_on_c, 0, 59, 42
3, 28560, Note_on_c, 0, 53, 42
3, 28680, Note_on_c, 0, 53, 0
3, 28680, Note_on_c, 0, 59, 0
3, 28800, Note_on_c, 0, 48, 47
3, 28920, Note_on_c, 0, 48, 0
3, 29040, Note_on_c, 0, 57, 39
3, 29040, Note_on_c, 0, 52, 39
3, 29160, Note_on_c, 0, 52, 0
3, 29160, Note_on_c, 0, 57, 0
3, 29280, Note_on_c, 0, 50, 41
3, 29400, Note_on_c, 0, 50, 0
3, 29520, Note_on_c, 0, 59, 41
3, 29520, Note_on_c, 0, 53, 41
3, 29640, Note_on_c, 0, 53, 0
3, 29640, Note_on_c, 0, 59, 0
3, 29760, Note_on_c, 0, 52, 48
3, 29760, Note_on_c, 0, 57, 48
3, 29880, Note_on_c, 0, 57, 0
3, 29880, Note_on_c, 0, 52, 0
3, 30000, Note_on_c, 0, 57, 41
3, 30000, Note_on_c, 0, 52, 41
3, 30120, Note_on_c, 0, 52, 0
3, 30120, Note_on_c, 0, 57, 0
3, 30235, Note_on_c, 0, 52, 41
3, 30240, Note_on_c, 0, 56, 41
3, 30355, Note_on_c, 0, 52, 0
3, 30360, Note_on_c, 0, 56, 0
3, 30480, Note_on_c, 0, 52, 41
3, 30480, Note_on_c, 0, 56, 41
3, 30600, Note_on_c, 0, 56, 0
3, 30600, Note_on_c, 0, 52, 0
3, 30720, Note_on_c, 0, 45, 46
3, 30720, Note_on_c, 0, 57, 46
3, 31170, Note_on_c, 0, 57, 0
3, 31200, Note_on_c, 0, 45, 0
3, 31680, Note_on_c, 0, 48, 59
3, 31800, Note_on_c, 0, 48, 0
3, 31920, Note_on_c, 0, 60, 53
3, 32040, Note_on_c, 0, 60, 0
3, 32160, Note_on_c, 0, 52, 59
3, 32280, Note_on_c, 0, 52, 0
3, 32400, Note_on_c, 0, 64, 57
3, 32520, Note_on_c, 0, 64, 0
3, 32640, Note_on_c, 0, 55, 60
3, 33120, Note_on_c, 0, 55, 0
3, 33600, Note_on_c, 0, 48, 59
3, 33720, Note_on_c, 0, 48, 0
3, 33840, Note_on_c, 0, 60, 53
3, 33960, Note_on_c, 0, 60, 0
3, 34080, Note_on_c, 0, 52, 59
3, 34200, Note_on_c, 0, 52, 0
3, 34320, Note_on_c, 0, 64, 57
3, 34440, Note_on_c, 0, 64, 0
3, 34560, Note_on_c, 0, 55, 60
3, 35040, Note_on_c, 0, 55, 0
3, 35520, Note_on_c, 0, 45, 59
3, 35640, Note_on_c, 0, 45, 0
3, 35760, Note_on_c, 0, 57, 53
3, 35880, Note_on_c, 0, 57, 0
3, 36000, Note_on_c, 0, 48, 59
3, 36120, Note_on_c, 0, 48, 0
3, 36240, Note_on_c, 0, 60, 57
3, 36360, Note_on_c, 0, 60, 0
3, 36480, Note_on_c, 0, 52, 60
3, 36960, Note_on_c, 0, 52, 0
3, 37440, Note_on_c, 0, 45, 59
3, 37560, Note_on_c, 0, 45, 0
3, 37680, Note_on_c, 0, 57, 53
3, 37800, Note_on_c, 0, 57, 0
3, 37920, Note_on_c, 0, 48, 59
3, 38040, Note_on_c, 0, 48, 0
3, 38160, Note_on_c, 0, 60, 57
3, 38280, Note_on_c, 0, 60, 0
3, 38400, Note_on_c, 0, 52, 60
3, 38880, Note_on_c, 0, 52, 0
3, 39360, Note_on_c, 0, 57, 53
3, 39480, Note_on_c, 0, 57, 0
3, 39600, Note_on_c, 0, 64, 47
3, 39600, Note_on_c, 0, 60, 47
3, 39720, Note_on_c, 0, 60, 0
3, 39720, Note_on_c, 0, 64, 0
3, 39840, Note_on_c, 0, 60, 47
3, 39840, Note_on_c, 0, 64, 47
3, 39960, Note_on_c, 0, 64, 0
3, 39960, Note_on_c, 0, 60, 0
3, 40080, Note_on_c, 0, 60, 47
3, 40080, Note_on_c, 0, 64, 47
3, 40200, Note_on_c, 0, 64, 0
3, 40200, Note_on_c, 0, 60, 0
3, 40320, Note_on_c, 0, 57, 54
3, 40440, Note_on_c, 0, 57, 0
3, 40560, Note_on_c, 0, 64, 48
3, 40560, Note_on_c, 0, 60, 48
3, 40680, Note_on_c, 0, 60, 0
3, 40680, Note_on_c, 0, 64, 0
3, 40800, Note_on_c, 0, 64, 48
3, 40800, Note_on_c, 0, 60, 48
3, 40920, Note_on_c, 0, 60, 0
3, 40920, Note_on_c, 0, 64, 0
3, 41040, Note_on_c, 0, 64, 48
3, 41040, Note_on_c, 0, 60, 48
3, 41160, Note_on_c, 0, 60, 0
3, 41160, Note_on_c, 0, 64, 0
3, 41280, Note_on_c, 0, 57, 56
3, 41400, Note_on_c, 0, 57, 0
3, 41520, Note_on_c, 0, 64, 49
3, 41520, Note_on_c, 0, 60, 49
3, 41640, Note_on_c, 0, 60, 0
3, 41640, Note_on_c, 0, 64, 0
3, 41760, Note_on_c, 0, 57, 57
3, 41880, Note_on_c, 0, 57, 0
3, 42000, Note_on_c, 0, 64, 52
3, 42000, Note_on_c, 0, 60, 43
3, 42120, Note_on_c, 0, 60, 0
3, 42120, Note_on_c, 0, 64, 0
3, 42240, Note_on_c, 0, 53, 57
3, 42360, Note_on_c, 0, 53, 0
3, 42480, Note_on_c, 0, 63, 51
3, 42480, Note_on_c, 0, 57, 51
3, 42600, Note_on_c, 0, 57, 0
3, 42600, Note_on_c, 0, 63, 0
3, 42720, Note_on_c, 0, 63, 43
3, 42720, Note_on_c, 0, 57, 43
3, 42840, Note_on_c, 0, 57, 0
3, 42840, Note_on_c, 0, 63, 0
3, 42960, Note_on_c, 0, 63, 39
3, 42960, Note_on_c, 0, 57, 39
3, 43080, Note_on_c, 0, 57, 0
3, 43080, Note_on_c, 0, 63, 0
3, 43200, Note_on_c, 0, 52, 46
3, 43320, Note_on_c, 0, 52, 0
3, 43440, Note_on_c, 0, 64, 42
3, 43440, Note_on_c, 0, 57, 42
3, 43560, Note_on_c, 0, 57, 0
3, 43560, Note_on_c, 0, 64, 0
3, 43680, Note_on_c, 0, 50, 42
3, 43800, Note_on_c, 0, 50, 0
3, 43920, Note_on_c, 0, 59, 42
3, 43920, Note_on_c, 0, 53, 42
3, 44040, Note_on_c, 0, 53, 0
3, 44040, Note_on_c, 0, 59, 0
3, 44160, Note_on_c, 0, 48, 47
3, 44280, Note_on_c, 0, 48, 0
3, 44400, Note_on_c, 0, 57, 39
3, 44400, Note_on_c, 0, 52, 39
3, 44520, Note_on_c, 0, 52, 0
3, 44520, Note_on_c, 0, 57, 0
3, 44640, Note_on_c, 0, 50, 41
3, 44760, Note_on_c, 0, 50, 0
3, 44880, Note_on_c, 0, 59, 41
3, 44880, Note_on_c, 0, 53, 41
3, 45000, Note_on_c, 0, 53, 0
3, 45000, Note_on_c, 0, 59, 0
3, 45120, Note_on_c, 0, 52, 48
3, 45120, Note_on_c, 0, 57, 48
3, 45240, Note_on_c, 0, 57, 0
3, 45240, Note_on_c, 0, 52, 0
3, 45360, Note_on_c, 0, 57, 41
3, 45360, Note_on_c, 0, 52, 41
3, 45480, Note_on_c, 0, 52, 0
3, 45480, Note_on_c, 0, 57, 0
3, 45595, Note_on_c, 0, 52, 41
3, 45600, Note_on_c, 0, 56, 41
3, 45715, Note_on_c, 0, 52, 0
3, 45720, Note_on_c, 0, 56, 0
3, 45840, Note_on_c, 0, 52, 41
3, 45840, Note_on_c, 0, 56, 41
3, 45960, Note_on_c, 0, 56, 0
3, 45960, Note_on_c, 0, 52, 0
3, 46080, Note_on_c, 0, 45, 46
3, 46080, Note_on_c, 0, 57, 46
3, 46530, Note_on_c, 0, 57, 0
3, 46560, Note_on_c, 0, 45, 0
3, 46920, Note_on_c, 0, 45, 64
3, 46960, Note_on_c, 0, 45, 0
3, 46960, Note_on_c, 0, 49, 64
3, 47000, Note_on_c, 0, 49, 0
3, 47000, Note_on_c, 0, 52, 64
3, 47040, Note_on_c, 0, 52, 0
3, 47040, Note_on_c, 0, 57, 73
3, 47160, Note_on_c, 0, 57, 0
3, 47280, Note_on_c, 0, 57, 69
3, 47400, Note_on_c, 0, 57, 0
3, 47520, Note_on_c, 0, 57, 69
3, 47640, Note_on_c, 0, 57, 0
3, 47760, Note_on_c, 0, 57, 69
3, 47880, Note_on_c, 0, 57, 0
3, 47880, Note_on_c, 0, 45, 60
3, 47920, Note_on_c, 0, 45, 0
3, 47920, Note_on_c, 0, 49, 60
3, 47960, Note_on_c, 0, 49, 0
3, 47960, Note_on_c, 0, 52, 60
3, 48000, Note_on_c, 0, 52, 0
3, 48000, Note_on_c, 0, 57, 72
3, 48120, Note_on_c, 0, 57, 0
3, 48240, Note_on_c, 0, 57, 64
3, 48360, Note_on_c, 0, 57, 0
3, 48480, Note_on_c, 0, 57, 65
3, 48600, Note_on_c, 0, 57, 0
3, 48720, Note_on_c, 0, 57, 67
3, 48840, Note_on_c, 0, 57, 0
3, 48840, Note_on_c, 0, 38, 63
3, 48880, Note_on_c, 0, 38, 0
3, 48880, Note_on_c, 0, 42, 63
3, 48920, Note_on_c, 0, 42, 0
3, 48920, Note_on_c, 0, 45, 63
3, 48960, Note_on_c, 0, 45, 0
3, 48960, Note_on_c, 0, 50, 73
3, 49080, Note_on_c, 0, 50, 0
3, 49200, Note_on_c, 0, 50, 69
3, 49320, Note_on_c, 0, 50, 0
3, 49320, Note_on_c, 0, 39, 63
3, 49360, Note_on_c, 0, 39, 0
3, 49360, Note_on_c, 0, 42, 63
3, 49400, Note_on_c, 0, 42, 0
3, 49400, Note_on_c, 0, 45, 63
3, 49440, Note_on_c, 0, 45, 0
3, 49440, Note_on_c, 0, 51, 73
3, 49560, Note_on_c, 0, 51, 0
3, 49680, Note_on_c, 0, 51, 71
3, 49800, Note_on_c, 0, 51, 0
3, 49800, Note_on_c, 0, 40, 63
3, 49840, Note_on_c, 0, 40, 0
3, 49840, Note_on_c, 0, 44, 63
3, 49880, Note_on_c, 0, 44, 0
3, 49880, Note_on_c, 0, 47, 63
3, 49920, Note_on_c, 0, 47, 0
3, 49920, Note_on_c, 0, 52, 73
3, 50160, Note_on_c, 0, 52, 0
3, 50160, Note_on_c, 0, 52, 73
3, 50280, Note_on_c, 0, 52, 0
3, 50760, Note_on_c, 0, 45, 64
3, 50800, Note_on_c, 0, 45, 0
3, 50800, Note_on_c, 0, 49, 64
3, 50840, Note_on_c, 0, 49, 0
3, 50840, Note_on_c, 0, 52, 64
3, 50880, Note_on_c, 0, 52, 0
3, 50880, Note_on_c, 0, 57, 73
3, 51000, Note_on_c, 0, 57, 0
3, 51120, Note_on_c, 0, 57, 69
3, 51240, Note_on_c, 0, 57, 0
3, 51360, Note_on_c, 0, 57, 69
3, 51480, Note_on_c, 0, 57, 0
3, 51600, Note_on_c, 0, 57, 69
3, 51720, Note_on_c, 0, 57, 0
3, 51720, Note_on_c, 0, 45, 60
3, 51760, Note_on_c, 0, 45, 0
3, 51760, Note_on_c, 0, 49, 60
3, 51800, Note_on_c, 0, 49, 0
3, 51800, Note_on_c, 0, 52, 60
3, 51840, Note_on_c, 0, 52, 0
3, 51840, Note_on_c, 0, 57, 72
3, 51960, Note_on_c, 0, 57, 0
3, 52080, Note_on_c, 0, 57, 64
3, 52200, Note_on_c, 0, 57, 0
3, 52320, Note_on_c, 0, 57, 65
3, 52440, Note_on_c, 0, 57, 0
3, 52560, Note_on_c, 0, 57, 67
3, 52680, Note_on_c, 0, 57, 0
3, 52680, Note_on_c, 0, 38, 63
3, 52720, Note_on_c, 0, 38, 0
3, 52720, Note_on_c, 0, 42, 63
3, 52760, Note_on_c, 0, 42, 0
3, 52760, Note_on_c, 0, 45, 63
3, 52800, Note_on_c, 0, 45, 0
3, 52800, Note_on_c, 0, 50, 73
3, 52920, Note_on_c, 0, 50, 0
3, 53040, Note_on_c, 0, 50, 69
3, 53160, Note_on_c, 0, 50, 0
3, 53160, Note_on_c, 0, 40, 63
3, 53200, Note_on_c, 0, 40, 0
3, 53200, Note_on_c, 0, 44, 63
3, 53240, Note_on_c, 0, 44, 0
3, 53240, Note_on_c, 0, 47, 63
3, 53280, Note_on_c, 0, 47, 0
3, 53280, Note_on_c, 0, 52, 73
3, 53400, Note_on_c, 0, 52, 0
3, 53520, Note_on_c, 0, 52, 71
3, 53640, Note_on_c, 0, 52, 0
3, 53760, Note_on_c, 0, 45, 73
3, 54210, Note_on_c, 0, 45, 0
3, 54600, Note_on_c, 0, 45, 64
3, 54640, Note_on_c, 0, 45, 0
3, 54640, Note_on_c, 0, 49, 64
3, 54680, Note_on_c, 0, 49, 0
3, 54680, Note_on_c, 0, 52, 64
3, 54720, Note_on_c, 0, 52, 0
3, 54720, Note_on_c, 0, 57, 73
3, 54840, Note_on_c, 0, 57, 0
3, 54960, Note_on_c, 0, 57, 69
3, 55080, Note_on_c, 0, 57, 0
3, 55200, Note_on_c, 0, 57, 69
3, 55320, Note_on_c, 0, 57, 0
3, 55440, Note_on_c, 0, 57, 69
3, 55560, Note_on_c, 0, 57, 0
3, 55560, Note_on_c, 0, 45, 60
3, 55600, Note_on_c, 0, 45, 0
3, 55600, Note_on_c, 0, 49, 60
3, 55640, Note_on_c, 0, 49, 0
3, 55640, Note_on_c, 0, 52, 60
3, 55680, Note_on_c, 0, 52, 0
3, 55680, Note_on_c, 0, 57, 72
3, 55800, Note_on_c, 0, 57, 0
3, 55920, Note_on_c, 0, 57, 64
3, 56040, Note_on_c, 0, 57, 0
3, 56160, Note_on_c, 0, 57, 65
3, 56280, Note_on_c, 0, 57, 0
3, 56400, Note_on_c, 0, 57, 67
3, 56520, Note_on_c, 0, 57, 0
3, 56520, Note_on_c, 0, 38, 63
3, 56560, Note_on_c, 0, 38, 0
3, 56560, Note_on_c, 0, 42, 63
3, 56600, Note_on_c, 0, 42, 0
3, 56600, Note_on_c, 0, 45, 63
3, 56640, Note_on_c, 0, 45, 0
3, 56640, Note_on_c, 0, 50, 73
3, 56760, Note_on_c, 0, 50, 0
3, 56880, Note_on_c, 0, 50, 69
3, 57000, Note_on_c, 0, 50, 0
3, 57000, Note_on_c, 0, 39, 63
3, 57040, Note_on_c, 0, 39, 0
3, 57040, Note_on_c, 0, 42, 63
3, 57080, Note_on_c, 0, 42, 0
3, 57080, Note_on_c, 0, 45, 63
3, 57120, Note_on_c, 0, 45, 0
3, 57120, Note_on_c, 0, 51, 73
3, 57240, Note_on_c, 0, 51, 0
3, 57360, Note_on_c, 0, 51, 71
3, 57480, Note_on_c, 0, 51, 0
3, 57480, Note_on_c, 0, 40, 63
3, 57520, Note_on_c, 0, 40, 0
3, 57520, Note_on_c, 0, 44, 63
3, 57560, Note_on_c, 0, 44, 0
3, 57560, Note_on_c, 0, 47, 63
3, 57600, Note_on_c, 0, 47, 0
3, 57600, Note_on_c, 0, 52, 73
3, 57840, Note_on_c, 0, 52, 0
3, 57840, Note_on_c, 0, 52, 73
3, 57960, Note_on_c, 0, 52, 0
3, 58440, Note_on_c, 0, 45, 64
3, 58480, Note_on_c, 0, 45, 0
3, 58480, Note_on_c, 0, 49, 64
3, 58520, Note_on_c, 0, 49, 0
3, 58520, Note_on_c, 0, 52, 64
3, 58560, Note_on_c, 0, 52, 0
3, 58560, Note_on_c, 0, 57, 73
3, 58680, Note_on_c, 0, 57, 0
3, 58800, Note_on_c, 0, 57, 69
3, 58920, Note_on_c, 0, 57, 0
3, 59040, Note_on_c, 0, 57, 69
3, 59160, Note_on_c, 0, 57, 0
3, 59280, Note_on_c, 0, 57, 69
3, 59400, Note_on_c, 0, 57, 0
3, 59400, Note_on_c, 0, 45, 60
3, 59440, Note_on_c, 0, 45, 0
3, 59440, Note_on_c, 0, 49, 60
3, 59480, Note_on_c, 0, 49, 0
3, 59480, Note_on_c, 0, 52, 60
3, 59520, Note_on_c, 0, 52, 0
3, 59520, Note_on_c, 0, 57, 72
3, 59640, Note_on_c, 0, 57, 0
3, 59760, Note_on_c, 0, 57, 64
3, 59880, Note_on_c, 0, 57, 0
3, 60000, Note_on_c, 0, 57, 65
3, 60120, Note_on_c, 0, 57, 0
3, 60240, Note_on_c, 0, 57, 67
3, 60360, Note_on_c, 0, 57, 0
3, 60360, Note_on_c, 0, 38, 63
3, 60400, Note_on_c, 0, 38, 0
3, 60400, Note_on_c, 0, 42, 63
3, 60440, Note_on_c, 0, 42, 0
3, 60440, Note_on_c, 0, 45, 63
3, 60480, Note_on_c, 0, 45, 0
3, 60480, Note_on_c, 0, 50, 73
3, 60600, Note_on_c, 0, 50, 0
3, 60720, Note_on_c, 0, 50, 69
3, 60840, Note_on_c, 0, 50, 0
3, 60840, Note_on_c, 0, 40, 63
3, 60880, Note_on_c, 0, 40, 0
3, 60880, Note_on_c, 0, 44, 63
3, 60920, Note_on_c, 0, 44, 0
3, 60920, Note_on_c, 0, 47, 63
3, 60960, Note_on_c, 0, 47, 0
3, 60960, Note_on_c, 0, 52, 73
3, 61080, Note_on_c, 0, 52, 0
3, 61200, Note_on_c, 0, 52, 71
3, 61320, Note_on_c, 0, 52, 0
3, 61440, Note_on_c, 0, 45, 73
3, 61890, Note_on_c, 0, 45, 0
3, 62400, Note_on_c, 0, 54, 50
3, 62520, Note_on_c, 0, 54, 0
3, 62640, Note_on_c, 0, 61, 37
3, 62640, Note_on_c, 0, 57, 31
3, 62760, Note_on_c, 0, 57, 0
3, 62760, Note_on_c, 0, 61, 0
3, 62880, Note_on_c, 0, 61, 37
3, 62880, Note_on_c, 0, 57, 31
3, 63000, Note_on_c, 0, 57, 0
3, 63000, Note_on_c, 0, 61, 0
3, 63120, Note_on_c, 0, 61, 37
3, 63120, Note_on_c, 0, 57, 31
3, 63240, Note_on_c, 0, 57, 0
3, 63240, Note_on_c, 0, 61, 0
3, 63360, Note_on_c, 0, 56, 50
3, 63480, Note_on_c, 0, 56, 0
3, 63600, Note_on_c, 0, 61, 36
3, 63600, Note_on_c, 0, 59, 30
3, 63720, Note_on_c, 0, 59, 0
3, 63720, Note_on_c, 0, 61, 0
3, 63840, Note_on_c, 0, 61, 36
3, 63840, Note_on_c, 0, 59, 30
3, 63960, Note_on_c, 0, 59, 0
3, 63960, Note_on_c, 0, 61, 0
3, 64080, Note_on_c, 0, 61, 36
3, 64080, Note_on_c, 0, 59, 30
3, 64200, Note_on_c, 0, 59, 0
3, 64200, Note_on_c, 0, 61, 0
3, 64320, Note_on_c, 0, 54, 50
3, 64440, Note_on_c, 0, 54, 0
3, 64560, Note_on_c, 0, 61, 36
3, 64560, Note_on_c, 0, 57, 30
3, 64680, Note_on_c, 0, 57, 0
3, 64680, Note_on_c, 0, 61, 0
3, 64800, Note_on_c, 0, 61, 37
3, 64800, Note_on_c, 0, 57, 31
3, 64920, Note_on_c, 0, 57, 0
3, 64920, Note_on_c, 0, 61, 0
3, 65040, Note_on_c, 0, 61, 38
3, 65040, Note_on_c, 0, 57, 32
3, 65160, Note_on_c, 0, 57, 0
3, 65160, Note_on_c, 0, 61, 0
3, 65280, Note_on_c, 0, 53, 55
3, 65400, Note_on_c, 0, 53, 0
3, 65520, Note_on_c, 0, 61, 38
3, 65520, Note_on_c, 0, 56, 31
3, 65640, Note_on_c, 0, 56, 0
3, 65640, Note_on_c, 0, 61, 0
3, 65760, Note_on_c, 0, 61, 38
3, 65760, Note_on_c, 0, 56, 31
3, 65880, Note_on_c, 0, 56, 0
3, 65880, Note_on_c, 0, 61, 0
3, 66000, Note_on_c, 0, 61, 38
3, 66000, Note_on_c, 0, 56, 31
3, 66120, Note_on_c, 0, 56, 0
3, 66120, Note_on_c, 0, 61, 0
3, 66240, Note_on_c, 0, 54, 50
3, 66360, Note_on_c, 0, 54, 0
3, 66480, Note_on_c, 0, 61, 36
3, 66480, Note_on_c, 0, 57, 30
3, 66600, Note_on_c, 0, 57, 0
3, 66600, Note_on_c, 0, 61, 0
3, 66720, Note_on_c, 0, 61, 36
3, 66720, Note_on_c, 0, 57, 30
3, 66840, Note_on_c, 0, 57, 0
3, 66840, Note_on_c, 0, 61, 0
3, 66960, Note_on_c, 0, 61, 36
3, 66960, Note_on_c, 0, 57, 30
3, 67080, Note_on_c, 0, 57, 0
3, 67080, Note_on_c, 0, 61, 0
3, 67200, Note_on_c, 0, 56, 50
3, 67320, Note_on_c, 0, 56, 0
3, 67440, Note_on_c, 0, 64, 36
3, 67440, Note_on_c, 0, 61, 30
3, 67560, Note_on_c, 0, 61, 0
3, 67560, Note_on_c, 0, 64, 0
3, 67680, Note_on_c, 0, 64, 36
3, 67680, Note_on_c, 0, 61, 30
3, 67800, Note_on_c, 0, 61, 0
3, 67800, Note_on_c, 0, 64, 0
3, 67920, Note_on_c, 0, 64, 36
3, 67920, Note_on_c, 0, 61, 30
3, 68040, Note_on_c, 0, 61, 0
3, 68040, Note_on_c, 0, 64, 0
3, 68160, Note_on_c, 0, 56, 50
3, 68280, Note_on_c, 0, 56, 0
3, 68400, Note_on_c, 0, 66, 37
3, 68400, Note_on_c, 0, 63, 31
3, 68520, Note_on_c, 0, 63, 0
3, 68520, Note_on_c, 0, 66, 0
3, 68640, Note_on_c, 0, 63, 31
3, 68640, Note_on_c, 0, 66, 37
3, 68760, Note_on_c, 0, 66, 0
3, 68760, Note_on_c, 0, 63, 0
3, 68880, Note_on_c, 0, 63, 31
3, 68880, Note_on_c, 0, 66, 37
3, 69000, Note_on_c, 0, 66, 0
3, 69000, Note_on_c, 0, 63, 0
3, 69120, Note_on_c, 0, 64, 50
3, 69120, Note_on_c, 0, 61, 42
3, 69570, Note_on_c, 0, 61, 0
3, 69570, Note_on_c, 0, 64, 0
3, 70080, Note_on_c, 0, 54, 50
3, 70200, Note_on_c, 0, 54, 0
3, 70320, Note_on_c, 0, 61, 37
3, 70320, Note_on_c, 0, 57, 31
3, 70440, Note_on_c, 0, 57, 0
3, 70440, Note_on_c, 0, 61, 0
3, 70560, Note_on_c, 0, 61, 37
3, 70560, Note_on_c, 0, 57, 31
3, 70680, Note_on_c, 0, 57, 0
3, 70680, Note_on_c, 0, 61, 0
3, 70800, Note_on_c, 0, 61, 37
3, 70800, Note_on_c, 0, 57, 31
3, 70920, Note_on_c, 0, 57, 0
3, 70920, Note_on_c, 0, 61, 0
3, 71040, Note_on_c, 0, 56, 50
3, 71160, Note_on_c, 0, 56, 0
3, 71280, Note_on_c, 0, 61, 36
3, 71280, Note_on_c, 0, 59, 30
3, 71400, Note_on_c, 0, 59, 0
3, 71400, Note_on_c, 0, 61, 0
3, 71520, Note_on_c, 0, 61, 36
3, 71520, Note_on_c, 0, 59, 30
3, 71640, Note_on_c, 0, 59, 0
3, 71640, Note_on_c, 0, 61, 0
3, 71760, Note_on_c, 0, 61, 36
3, 71760, Note_on_c, 0, 59, 30
3, 71880, Note_on_c, 0, 59, 0
3, 71880, Note_on_c, 0, 61, 0
3, 72000, Note_on_c, 0, 54, 50
3, 72120, Note_on_c, 0, 54, 0
3, 72240, Note_on_c, 0, 61, 36
3, 72240, Note_on_c, 0, 57, 30
3, 72360, Note_on_c, 0, 57, 0
3, 72360, Note_on_c, 0, 61, 0
3, 72480, Note_on_c, 0, 61, 37
3, 72480, Note_on_c, 0, 57, 31
3, 72600, Note_on_c, 0, 57, 0
3, 72600, Note_on_c, 0, 61, 0
3, 72720, Note_on_c, 0, 61, 38
3, 72720, Note_on_c, 0, 57, 32
3, 72840, Note_on_c, 0, 57, 0
3, 72840, Note_on_c, 0, 61, 0
3, 72960, Note_on_c, 0, 53, 55
3, 73080, Note_on_c, 0, 53, 0
3, 73200, Note_on_c, 0, 61, 38
3, 73200, Note_on_c, 0, 56, 31
3, 73320, Note_on_c, 0, 56, 0
3, 73320, Note_on_c, 0, 61, 0
3, 73440, Note_on_c, 0, 61, 38
3, 73440, Note_on_c, 0, 56, 31
3, 73560, Note_on_c, 0, 56, 0
3, 73560, Note_on_c, 0, 61, 0
3, 73680, Note_on_c, 0, 61, 38
3, 73680, Note_on_c, 0, 56, 31
3, 73800, Note_on_c, 0, 56, 0
3, 73800, Note_on_c, 0, 61, 0
3, 73920, Note_on_c, 0, 54, 50
3, 74040, Note_on_c, 0, 54, 0
3, 74160, Note_on_c, 0, 61, 36
3, 74160, Note_on_c, 0, 57, 30
3, 74280, Note_on_c, 0, 57, 0
3, 74280, Note_on_c, 0, 61, 0
3, 74400, Note_on_c, 0, 61, 36
3, 74400, Note_on_c, 0, 57, 30
3, 74520, Note_on_c, 0, 57, 0
3, 74520, Note_on_c, 0, 61, 0
3, 74640, Note_on_c, 0, 61, 36
3, 74640, Note_on_c, 0, 57, 30
3, 74760, Note_on_c, 0, 57, 0
3, 74760, Note_on_c, 0, 61, 0
3, 74880, Note_on_c, 0, 56, 50
3, 75000, Note_on_c, 0, 56, 0
3, 75120, Note_on_c, 0, 64, 36
3, 75120, Note_on_c, 0, 61, 30
3, 75240, Note_on_c, 0, 61, 0
3, 75240, Note_on_c, 0, 64, 0
3, 75360, Note_on_c, 0, 64, 36
3, 75360, Note_on_c, 0, 61, 30
3, 75480, Note_on_c, 0, 61, 0
3, 75480, Note_on_c, 0, 64, 0
3, 75600, Note_on_c, 0, 64, 36
3, 75600, Note_on_c, 0, 61, 30
3, 75720, Note_on_c, 0, 61, 0
3, 75720, Note_on_c, 0, 64, 0
3, 75840, Note_on_c, 0, 56, 50
3, 75960, Note_on_c, 0, 56, 0
3, 76080, Note_on_c, 0, 66, 37
3, 76080, Note_on_c, 0, 63, 31
3, 76200, Note_on_c, 0, 63, 0
3, 76200, Note_on_c, 0, 66, 0
3, 76320, Note_on_c, 0, 63, 31
3, 76320, Note_on_c, 0, 66, 37
3, 76440, Note_on_c, 0, 66, 0
3, 76440, Note_on_c, 0, 63, 0
3, 76560, Note_on_c, 0, 63, 31
3, 76560, Note_on_c, 0, 66, 37
3, 76680, Note_on_c, 0, 66, 0
3, 76680, Note_on_c, 0, 63, 0
3, 76800, Note_on_c, 0, 64, 50
3, 76800, Note_on_c, 0, 61, 42
3, 77250, Note_on_c, 0, 61, 0
3, 77250, Note_on_c, 0, 64, 0
3, 77760, Note_on_c, 0, 57, 57
3, 77880, Note_on_c, 0, 57, 0
3, 78000, Note_on_c, 0, 64, 43
3, 78000, Note_on_c, 0, 61, 36
3, 78120, Note_on_c, 0, 61, 0
3, 78120, Note_on_c, 0, 64, 0
3, 78240, Note_on_c, 0, 64, 43
3, 78240, Note_on_c, 0, 61, 36
3, 78360, Note_on_c, 0, 61, 0
3, 78360, Note_on_c, 0, 64, 0
3, 78480, Note_on_c, 0, 64, 43
3, 78480, Note_on_c, 0, 61, 36
3, 78600, Note_on_c, 0, 61, 0
3, 78600, Note_on_c, 0, 64, 0
3, 78720, Note_on_c, 0, 59, 57
3, 78840, Note_on_c, 0, 59, 0
3, 78960, Note_on_c, 0, 64, 42
3, 78960, Note_on_c, 0, 62, 35
3, 79080, Note_on_c, 0, 62, 0
3, 79080, Note_on_c, 0, 64, 0
3, 79200, Note_on_c, 0, 56, 57
3, 79320, Note_on_c, 0, 56, 0
3, 79440, Note_on_c, 0, 64, 42
3, 79440, Note_on_c, 0, 62, 35
3, 79560, Note_on_c, 0, 62, 0
3, 79560, Note_on_c, 0, 64, 0
3, 79680, Note_on_c, 0, 57, 57
3, 79800, Note_on_c, 0, 57, 0
3, 79920, Note_on_c, 0, 64, 41
3, 79920, Note_on_c, 0, 61, 35
3, 80040, Note_on_c, 0, 61, 0
3, 80040, Note_on_c, 0, 64, 0
3, 80160, Note_on_c, 0, 64, 41
3, 80160, Note_on_c, 0, 61, 35
3, 80280, Note_on_c, 0, 61, 0
3, 80280, Note_on_c, 0, 64, 0
3, 80400, Note_on_c, 0, 64, 41
3, 80400, Note_on_c, 0, 61, 35
3, 80520, Note_on_c, 0, 61, 0
3, 80520, Note_on_c, 0, 64, 0
3, 80640, Note_on_c, 0, 52, 57
3, 80880, Note_on_c, 0, 52, 0
3, 80880, Note_on_c, 0, 62, 39
3, 80880, Note_on_c, 0, 56, 33
3, 81000, Note_on_c, 0, 56, 0
3, 81000, Note_on_c, 0, 62, 0
3, 81120, Note_on_c, 0, 56, 33
3, 81120, Note_on_c, 0, 62, 39
3, 81240, Note_on_c, 0, 62, 0
3, 81240, Note_on_c, 0, 56, 0
3, 81360, Note_on_c, 0, 56, 33
3, 81360, Note_on_c, 0, 62, 39
3, 81480, Note_on_c, 0, 62, 0
3, 81480, Note_on_c, 0, 56, 0
3, 81600, Note_on_c, 0, 57, 57
3, 81720, Note_on_c, 0, 57, 0
3, 81840, Note_on_c, 0, 64, 43
3, 81840, Note_on_c, 0, 61, 36
3, 81960, Note_on_c, 0, 61, 0
3, 81960, Note_on_c, 0, 64, 0
3, 82080, Note_on_c, 0, 64, 43
3, 82080, Note_on_c, 0, 61, 36
3, 82200, Note_on_c, 0, 61, 0
3, 82200, Note_on_c, 0, 64, 0
3, 82320, Note_on_c, 0, 64, 43
3, 82320, Note_on_c, 0, 61, 36
3, 82440, Note_on_c, 0, 61, 0
3, 82440, Note_on_c, 0, 64, 0
3, 82560, Note_on_c, 0, 59, 57
3, 82680, Note_on_c, 0, 59, 0
3, 82800, Note_on_c, 0, 64, 42
3, 82800, Note_on_c, 0, 62, 35
3, 82920, Note_on_c, 0, 62, 0
3, 82920, Note_on_c, 0, 64, 0
3, 83040, Note_on_c, 0, 56, 57
3, 83160, Note_on_c, 0, 56, 0
3, 83280, Note_on_c, 0, 64, 42
3, 83280, Note_on_c, 0, 62, 35
3, 83400, Note_on_c, 0, 62, 0
3, 83400, Note_on_c, 0, 64, 0
3, 83520, Note_on_c, 0, 57, 57
3, 83640, Note_on_c, 0, 57, 0
3, 83760, Note_on_c, 0, 54, 46
3, 83880, Note_on_c, 0, 54, 0
3, 84000, Note_on_c, 0, 50, 46
3, 84120, Note_on_c, 0, 50, 0
3, 84240, Note_on_c, 0, 52, 46
3, 84360, Note_on_c, 0, 52, 0
3, 84480, Note_on_c, 0, 45, 57
3, 84720, Note_on_c, 0, 45, 0
3, 84720, Note_on_c, 0, 57, 44
3, 84840, Note_on_c, 0, 57, 0
3, 85440, Note_on_c, 0, 52, 50
3, 85560, Note_on_c, 0, 52, 0
3, 85680, Note_on_c, 0, 61, 42
3, 85680, Note_on_c, 0, 57, 35
3, 85800, Note_on_c, 0, 57, 0
3, 85800, Note_on_c, 0, 61, 0
3, 85920, Note_on_c, 0, 61, 42
3, 85920, Note_on_c, 0, 57, 35
3, 86040, Note_on_c, 0, 57, 0
3, 86040, Note_on_c, 0, 61, 0
3, 86160, Note_on_c, 0, 61, 42
3, 86160, Note_on_c, 0, 57, 35
3, 86280, Note_on_c, 0, 57, 0
3, 86280, Note_on_c, 0, 61, 0
3, 86400, Note_on_c, 0, 56, 50
3, 86520, Note_on_c, 0, 56, 0
3, 86640, Note_on_c, 0, 61, 41
3, 86640, Note_on_c, 0, 59, 34
3, 86760, Note_on_c, 0, 59, 0
3, 86760, Note_on_c, 0, 61, 0
3, 86880, Note_on_c, 0, 61, 41
3, 86880, Note_on_c, 0, 59, 34
3, 87000, Note_on_c, 0, 59, 0
3, 87000, Note_on_c, 0, 61, 0
3, 87120, Note_on_c, 0, 61, 41
3, 87120, Note_on_c, 0, 59, 34
3, 87240, Note_on_c, 0, 59, 0
3, 87240, Note_on_c, 0, 61, 0
3, 87360, Note_on_c, 0, 54, 50
3, 87480, Note_on_c, 0, 54, 0
3, 87600, Note_on_c, 0, 61, 40
3, 87600, Note_on_c, 0, 57, 34
3, 87720, Note_on_c, 0, 57, 0
3, 87720, Note_on_c, 0, 61, 0
3, 87840, Note_on_c, 0, 61, 40
3, 87840, Note_on_c, 0, 57, 34
3, 87960, Note_on_c, 0, 57, 0
3, 87960, Note_on_c, 0, 61, 0
3, 88080, Note_on_c, 0, 61, 40
3, 88080, Note_on_c, 0, 57, 34
3, 88200, Note_on_c, 0, 57, 0
3, 88200, Note_on_c, 0, 61, 0
3, 88320, Note_on_c, 0, 49, 50
3, 88440, Note_on_c, 0, 49, 0
3, 88560, Note_on_c, 0, 61, 49
3, 88560, Note_on_c, 0, 56, 41
3, 88680, Note_on_c, 0, 56, 0
3, 88680, Note_on_c, 0, 61, 0
3, 88800, Note_on_c, 0, 61, 48
3, 88800, Note_on_c, 0, 55, 40
3, 88920, Note_on_c, 0, 55, 0
3, 88920, Note_on_c, 0, 61, 0
3, 89040, Note_on_c, 0, 61, 48
3, 89040, Note_on_c, 0, 54, 40
3, 89160, Note_on_c, 0, 54, 0
3, 89160, Note_on_c, 0, 61, 0
3, 89280, Note_on_c, 0, 47, 59
3, 89400, Note_on_c, 0, 47, 0
3, 89520, Note_on_c, 0, 59, 53
3, 89520, Note_on_c, 0, 54, 45
3, 89640, Note_on_c, 0, 54, 0
3, 89640, Note_on_c, 0, 59, 0
3, 89760, Note_on_c, 0, 59, 56
3, 89760, Note_on_c, 0, 54, 47
3, 89880, Note_on_c, 0, 54, 0
3, 89880, Note_on_c, 0, 59, 0
3, 90000, Note_on_c, 0, 59, 54
3, 90000, Note_on_c, 0, 54, 45
3, 90120, Note_on_c, 0, 54, 0
3, 90120, Note_on_c, 0, 59, 0
3, 90240, Note_on_c, 0, 47, 65
3, 90360, Note_on_c, 0, 47, 0
3, 90480, Note_on_c, 0, 59, 54
3, 90480, Note_on_c, 0, 56, 45
3, 90600, Note_on_c, 0, 56, 0
3, 90600, Note_on_c, 0, 59, 0
3, 90720, Note_on_c, 0, 59, 60
3, 90720, Note_on_c, 0, 56, 51
3, 90840, Note_on_c, 0, 56, 0
3, 90840, Note_on_c, 0, 59, 0
3, 90960, Note_on_c, 0, 59, 54
3, 90960, Note_on_c, 0, 56, 45
3, 91080, Note_on_c, 0, 56, 0
3, 91080, Note_on_c, 0, 59, 0
3, 91200, Note_on_c, 0, 49, 58
3, 91320, Note_on_c, 0, 49, 0
3, 91440, Note_on_c, 0, 57, 47
3, 91440, Note_on_c, 0, 54, 39
3, 91560, Note_on_c, 0, 54, 0
3, 91560, Note_on_c, 0, 57, 0
3, 91680, Note_on_c, 0, 49, 55
3, 91800, Note_on_c, 0, 49, 0
3, 91920, Note_on_c, 0, 56, 41
3, 91920, Note_on_c, 0, 59, 49
3, 92040, Note_on_c, 0, 59, 0
3, 92040, Note_on_c, 0, 56, 0
3, 92160, Note_on_c, 0, 57, 46
3, 92160, Note_on_c, 0, 54, 39
3, 92610, Note_on_c, 0, 54, 0
3, 92610, Note_on_c, 0, 57, 0
3, 93120, Note_on_c, 0, 57, 57
3, 93240, Note_on_c, 0, 57, 0
3, 93360, Note_on_c, 0, 64, 43
3, 93360, Note_on_c, 0, 61, 36
3, 93480, Note_on_c, 0, 61, 0
3, 93480, Note_on_c, 0, 64, 0
3, 93600, Note_on_c, 0, 64, 43
3, 93600, Note_on_c, 0, 61, 36
3, 93720, Note_on_c, 0, 61, 0
3, 93720, Note_on_c, 0, 64, 0
3, 93840, Note_on_c, 0, 64, 43
3, 93840, Note_on_c, 0, 61, 36
3, 93960, Note_on_c, 0, 61, 0
3, 93960, Note_on_c, 0, 64, 0
3, 94080, Note_on_c, 0, 59, 57
3, 94200, Note_on_c, 0, 59, 0
3, 94320, Note_on_c, 0, 64, 42
3, 94320, Note_on_c, 0, 62, 35
3, 94440, Note_on_c, 0, 62, 0
3, 94440, Note_on_c, 0, 64, 0
3, 94560, Note_on_c, 0, 56, 57
3, 94680, Note_on_c, 0, 56, 0
3, 94800, Note_on_c, 0, 64, 42
3, 94800, Note_on_c, 0, 62, 35
3, 94920, Note_on_c, 0, 62, 0
3, 94920, Note_on_c, 0, 64, 0
3, 95040, Note_on_c, 0, 57, 57
3, 95160, Note_on_c, 0, 57, 0
3, 95280, Note_on_c, 0, 64, 41
3, 95280, Note_on_c, 0, 61, 35
3, 95400, Note_on_c, 0, 61, 0
3, 95400, Note_on_c, 0, 64, 0
3, 95520, Note_on_c, 0, 64, 41
3, 95520, Note_on_c, 0, 61, 35
3, 95640, Note_on_c, 0, 61, 0
3, 95640, Note_on_c, 0, 64, 0
3, 95760, Note_on_c, 0, 64, 41
3, 95760, Note_on_c, 0, 61, 35
3, 95880, Note_on_c, 0, 61, 0
3, 95880, Note_on_c, 0, 64, 0
3, 96000, Note_on_c, 0, 52, 57
3, 96240, Note_on_c, 0, 52, 0
3, 96240, Note_on_c, 0, 62, 39
3, 96240, Note_on_c, 0, 56, 33
3, 96360, Note_on_c, 0, 56, 0
3, 96360, Note_on_c, 0, 62, 0
3, 96480, Note_on_c, 0, 56, 33
3, 96480, Note_on_c, 0, 62, 39
3, 96600, Note_on_c, 0, 62, 0
3, 96600, Note_on_c, 0, 56, 0
3, 96720, Note_on_c, 0, 56, 33
3, 96720, Note_on_c, 0, 62, 39
3, 96840, Note_on_c, 0, 62, 0
3, 96840, Note_on_c, 0, 56, 0
3, 96960, Note_on_c, 0, 57, 57
3, 97080, Note_on_c, 0, 57, 0
3, 97200, Note_on_c, 0, 64, 43
3, 97200, Note_on_c, 0, 61, 36
3, 97320, Note_on_c, 0, 61, 0
3, 97320, Note_on_c, 0, 64, 0
3, 97440, Note_on_c, 0, 64, 43
3, 97440, Note_on_c, 0, 61, 36
3, 97560, Note_on_c, 0, 61, 0
3, 97560, Note_on_c, 0, 64, 0
3, 97680, Note_on_c, 0, 64, 43
3, 97680, Note_on_c, 0, 61, 36
3, 97800, Note_on_c, 0, 61, 0
3, 97800, Note_on_c, 0, 64, 0
3, 97920, Note_on_c, 0, 59, 57
3, 98040, Note_on_c, 0, 59, 0
3, 98160, Note_on_c, 0, 64, 42
3, 98160, Note_on_c, 0, 62, 35
3, 98280, Note_on_c, 0, 62, 0
3, 98280, Note_on_c, 0, 64, 0
3, 98400, Note_on_c, 0, 56, 57
3, 98520, Note_on_c, 0, 56, 0
3, 98640, Note_on_c, 0, 64, 42
3, 98640, Note_on_c, 0, 62, 35
3, 98760, Note_on_c, 0, 62, 0
3, 98760, Note_on_c, 0, 64, 0
3, 98880, Note_on_c, 0, 57, 57
3, 99000, Note_on_c, 0, 57, 0
3, 99120, Note_on_c, 0, 54, 46
3, 99240, Note_on_c, 0, 54, 0
3, 99360, Note_on_c, 0, 50, 46
3, 99480, Note_on_c, 0, 50, 0
3, 99600, Note_on_c, 0, 52, 46
3, 99720, Note_on_c, 0, 52, 0
3, 99840, Note_on_c, 0, 45, 57
3, 100080, Note_on_c, 0, 45, 0
3, 100080, Note_on_c, 0, 57, 44
3, 100200, Note_on_c, 0, 57, 0
3, 100800, Note_on_c, 0, 52, 50
3, 100920, Note_on_c, 0, 52, 0
3, 101040, Note_on_c, 0, 61, 42
3, 101040, Note_on_c, 0, 57, 35
3, 101160, Note_on_c, 0, 57, 0
3, 101160, Note_on_c, 0, 61, 0
3, 101280, Note_on_c, 0, 61, 42
3, 101280, Note_on_c, 0, 57, 35
3, 101400, Note_on_c, 0, 57, 0
3, 101400, Note_on_c, 0, 61, 0
3, 101520, Note_on_c, 0, 61, 42
3, 101520, Note_on_c, 0, 57, 35
3, 101640, Note_on_c, 0, 57, 0
3, 101640, Note_on_c, 0, 61, 0
3, 101760, Note_on_c, 0, 56, 50
3, 101880, Note_on_c, 0, 56, 0
3, 102000, Note_on_c, 0, 61, 41
3, 102000, Note_on_c, 0, 59, 34
3, 102120, Note_on_c, 0, 59, 0
3, 102120, Note_on_c, 0, 61, 0
3, 102240, Note_on_c, 0, 61, 41
3, 102240, Note_on_c, 0, 59, 34
3, 102360, Note_on_c, 0, 59, 0
3, 102360, Note_on_c, 0, 61, 0
3, 102480, Note_on_c, 0, 61, 41
3, 102480, Note_on_c, 0, 59, 34
3, 102600, Note_on_c, 0, 59, 0
3, 102600, Note_on_c, 0, 61, 0
3, 102720, Note_on_c, 0, 54, 50
3, 102840, Note_on_c, 0, 54, 0
3, 102960, Note_on_c, 0, 61, 40
3, 102960, Note_on_c, 0, 57, 34
3, 103080, Note_on_c, 0, 57, 0
3, 103080, Note_on_c, 0, 61, 0
3, 103200, Note_on_c, 0, 61, 40
3, 103200, Note_on_c, 0, 57, 34
3, 103320, Note_on_c, 0, 57, 0
3, 103320, Note_on_c, 0, 61, 0
3, 103440, Note_on_c, 0, 61, 40
3, 103440, Note_on_c, 0, 57, 34
3, 103560, Note_on_c, 0, 57, 0
3, 103560, Note_on_c, 0, 61, 0
3, 103680, Note_on_c, 0, 49, 50
3, 103800, Note_on_c, 0, 49, 0
3, 103920, Note_on_c, 0, 61, 49
3, 103920, Note_on_c, 0, 56, 41
3, 104040, Note_on_c, 0, 56, 0
3, 104040, Note_on_c, 0, 61, 0
3, 104160, Note_on_c, 0, 61, 48
3, 104160, Note_on_c, 0, 55, 40
3, 104280, Note_on_c, 0, 55, 0
3, 104280, Note_on_c, 0, 61, 0
3, 104400, Note_on_c, 0, 61, 48
3, 104400, Note_on_c, 0, 54, 40
3, 104520, Note_on_c, 0, 54, 0
3, 104520, Note_on_c, 0, 61, 0
3, 104640, Note_on_c, 0, 47, 59
3, 104760, Note_on_c, 0, 47, 0
3, 104880, Note_on_c, 0, 59, 53
3, 104880, Note_on_c, 0, 54, 45
3, 105000, Note_on_c, 0, 54, 0
3, 105000, Note_on_c, 0, 59, 0
3, 105120, Note_on_c, 0, 59, 56
3, 105120, Note_on_c, 0, 54, 47
3, 105240, Note_on_c, 0, 54, 0
3, 105240, Note_on_c, 0, 59, 0
3, 105360, Note_on_c, 0, 59, 54
3, 105360, Note_on_c, 0, 54, 45
3, 105480, Note_on_c, 0, 54, 0
3, 105480, Note_on_c, 0, 59, 0
3, 105600, Note_on_c, 0, 47, 65
3, 105720, Note_on_c, 0, 47, 0
3, 105840, Note_on_c, 0, 59, 54
3, 105840, Note_on_c, 0, 56, 45
3, 105960, Note_on_c, 0, 56, 0
3, 105960, Note_on_c, 0, 59, 0
3, 106080, Note_on_c, 0, 59, 60
3, 106080, Note_on_c, 0, 56, 51
3, 106200, Note_on_c, 0, 56, 0
3, 106200, Note_on_c, 0, 59, 0
3, 106320, Note_on_c, 0, 59, 54
3, 106320, Note_on_c, 0, 56, 45
3, 106440, Note_on_c, 0, 56, 0
3, 106440, Note_on_c, 0, 59, 0
3, 106560, Note_on_c, 0, 49, 58
3, 106680, Note_on_c, 0, 49, 0
3, 106800, Note_on_c, 0, 57, 47
3, 106800, Note_on_c, 0, 54, 39
3, 106920, Note_on_c, 0, 54, 0
3, 106920, Note_on_c, 0, 57, 0
3, 107040, Note_on_c, 0, 49, 55
3, 107160, Note_on_c, 0, 49, 0
3, 107280, Note_on_c, 0, 56, 41
3, 107280, Note_on_c, 0, 59, 49
3, 107400, Note_on_c, 0, 59, 0
3, 107400, Note_on_c, 0, 56, 0
3, 107520, Note_on_c, 0, 57, 46
3, 107520, Note_on_c, 0, 54, 39
3, 107970, Note_on_c, 0, 54, 0
3, 107970, Note_on_c, 0, 57, 0
3, 108360, Note_on_c, 0, 45, 64
3, 108400, Note_on_c, 0, 45, 0
3, 108400, Note_on_c, 0, 49, 64
3, 108440, Note_on_c, 0, 49, 0
3, 108440, Note_on_c, 0, 52, 64
3, 108480, Note_on_c, 0, 52, 0
3, 108480, Note_on_c, 0, 57, 73
3, 108600, Note_on_c, 0, 57, 0
3, 108720, Note_on_c, 0, 57, 69
3, 108840, Note_on_c, 0, 57, 0
3, 108960, Note_on_c, 0, 57, 69
3, 109080, Note_on_c, 0, 57, 0
3, 109200, Note_on_c, 0, 57, 69
3, 109320, Note_on_c, 0, 57, 0
3, 109320, Note_on_c, 0, 45, 60
3, 109360, Note_on_c, 0, 45, 0
3, 109360, Note_on_c, 0, 49, 60
3, 109400, Note_on_c, 0, 49, 0
3, 109400, Note_on_c, 0, 52, 60
3, 109440, Note_on_c, 0, 52, 0
3, 109440, Note_on_c, 0, 57, 72
3, 109560, Note_on_c, 0, 57, 0
3, 109680, Note_on_c, 0, 57, 64
3, 109800, Note_on_c, 0, 57, 0
3, 109920, Note_on_c, 0, 57, 65
3, 110040, Note_on_c, 0, 57, 0
3, 110160, Note_on_c, 0, 57, 67
3, 110280, Note_on_c, 0, 57, 0
3, 110280, Note_on_c, 0, 38, 63
3, 110320, Note_on_c, 0, 38, 0
3, 110320, Note_on_c, 0, 42, 63
3, 110360, Note_on_c, 0, 42, 0
3, 110360, Note_on_c, 0, 45, 63
3, 110400, Note_on_c, 0, 45, 0
3, 110400, Note_on_c, 0, 50, 73
3, 110520, Note_on_c, 0, 50, 0
3, 110640, Note_on_c, 0, 50, 69
3, 110760, Note_on_c, 0, 50, 0
3, 110760, Note_on_c, 0, 39, 63
3, 110800, Note_on_c, 0, 39, 0
3, 110800, Note_on_c, 0, 42, 63
3, 110840, Note_on_c, 0, 42, 0
3, 110840, Note_on_c, 0, 45, 63
3, 110880, Note_on_c, 0, 45, 0
3, 110880, Note_on_c, 0, 51, 73
3, 111000, Note_on_c, 0, 51, 0
3, 111120, Note_on_c, 0, 51, 71
3, 111240, Note_on_c, 0, 51, 0
3, 111240, Note_on_c, 0, 40, 63
3, 111280, Note_on_c, 0, 40, 0
3, 111280, Note_on_c, 0, 44, 63
3, 111320, Note_on_c, 0, 44, 0
3, 111320, Note_on_c, 0, 47, 63
3, 111360, Note_on_c, 0, 47, 0
3, 111360, Note_on_c, 0, 52, 73
3, 111600, Note_on_c, 0, 52, 0
3, 111600, Note_on_c, 0, 52, 73
3, 111720, Note_on_c, 0, 52, 0
3, 112200, Note_on_c, 0, 45, 64
3, 112240, Note_on_c, 0, 45, 0
3, 112240, Note_on_c, 0, 49, 64
3, 112280, Note_on_c, 0, 49, 0
3, 112280, Note_on_c, 0, 52, 64
3, 112320, Note_on_c, 0, 52, 0
3, 112320, Note_on_c, 0, 57, 73
3, 112440, Note_on_c, 0, 57, 0
3, 112560, Note_on_c, 0, 57, 69
3, 112680, Note_on_c, 0, 57, 0
3, 112800, Note_on_c, 0, 57, 69
3, 112920, Note_on_c, 0, 57, 0
3, 113040, Note_on_c, 0, 57, 69
3, 113160, Note_on_c, 0, 57, 0
3, 113160, Note_on_c, 0, 45, 60
3, 113200, Note_on_c, 0, 45, 0
3, 113200, Note_on_c, 0, 49, 60
3, 113240, Note_on_c, 0, 49, 0
3, 113240, Note_on_c, 0, 52, 60
3, 113280, Note_on_c, 0, 52, 0
3, 113280, Note_on_c, 0, 57, 72
3, 113400, Note_on_c, 0, 57, 0
3, 113520, Note_on_c, 0, 57, 64
3, 113640, Note_on_c, 0, 57, 0
3, 113760, Note_on_c, 0, 57, 65
3, 113880, Note_on_c, 0, 57, 0
3, 114000, Note_on_c, 0, 57, 67
3, 114120, Note_on_c, 0, 57, 0
3, 114120, Note_on_c, 0, 38, 63
3, 114160, Note_on_c, 0, 38, 0
3, 114160, Note_on_c, 0, 42, 63
3, 114200, Note_on_c, 0, 42, 0
3, 114200, Note_on_c, 0, 45, 63
3, 114240, Note_on_c, 0, 45, 0
3, 114240, Note_on_c, 0, 50, 73
3, 114360, Note_on_c, 0, 50, 0
3, 114480, Note_on_c, 0, 50, 69
3, 114600, Note_on_c, 0, 50, 0
3, 114600, Note_on_c, 0, 40, 63
3, 114640, Note_on_c, 0, 40, 0
3, 114640, Note_on_c, 0, 44, 63
3, 114680, Note_on_c, 0, 44, 0
3, 114680, Note_on_c, 0, 47, 63
3, 114720, Note_on_c, 0, 47, 0
3, 114720, Note_on_c, 0, 52, 73
3, 114840, Note_on_c, 0, 52, 0
3, 114960, Note_on_c, 0, 52, 71
3, 115080, Note_on_c, 0, 52, 0
3, 115200, Note_on_c, 0, 45, 73
3, 115650, Note_on_c, 0, 45, 0
3, 116040, Note_on_c, 0, 45, 64
3, 116080, Note_on_c, 0, 45, 0
3, 116080, Note_on_c, 0, 49, 64
3, 116120, Note_on_c, 0, 49, 0
3, 116120, Note_on_c, 0, 52, 64
3, 116160, Note_on_c, 0, 52, 0
3, 116160, Note_on_c, 0, 57, 73
3, 116280, Note_on_c, 0, 57, 0
3, 116400, Note_on_c, 0, 57, 69
3, 116520, Note_on_c, 0, 57, 0
3, 116640, Note_on_c, 0, 57, 69
3, 116760, Note_on_c, 0, 57, 0
3, 116880, Note_on_c, 0, 57, 69
3, 117000, Note_on_c, 0, 57, 0
3, 117000, Note_on_c, 0, 45, 60
3, 117040, Note_on_c, 0, 45, 0
3, 117040, Note_on_c, 0, 49, 60
3, 117080, Note_on_c, 0, 49, 0
3, 117080, Note_on_c, 0, 52, 60
3, 117120, Note_on_c, 0, 52, 0
3, 117120, Note_on_c, 0, 57, 72
3, 117240, Note_on_c, 0, 57, 0
3, 117360, Note_on_c, 0, 57, 64
3, 117480, Note_on_c, 0, 57, 0
3, 117600, Note_on_c, 0, 57, 65
3, 117720, Note_on_c, 0, 57, 0
3, 117840, Note_on_c, 0, 57, 67
3, 117960, Note_on_c, 0, 57, 0
3, 117960, Note_on_c, 0, 38, 63
3, 118000, Note_on_c, 0, 38, 0
3, 118000, Note_on_c, 0, 42, 63
3, 118040, Note_on_c, 0, 42, 0
3, 118040, Note_on_c, 0, 45, 63
3, 118080, Note_on_c, 0, 45, 0
3, 118080, Note_on_c, 0, 50, 73
3, 118200, Note_on_c, 0, 50, 0
3, 118320, Note_on_c, 0, 50, 69
3, 118440, Note_on_c, 0, 50, 0
3, 118440, Note_on_c, 0, 39, 63
3, 118480, Note_on_c, 0, 39, 0
3, 118480, Note_on_c, 0, 42, 63
3, 118520, Note_on_c, 0, 42, 0
3, 118520, Note_on_c, 0, 45, 63
3, 118560, Note_on_c, 0, 45, 0
3, 118560, Note_on_c, 0, 51, 73
3, 118680, Note_on_c, 0, 51, 0
3, 118800, Note_on_c, 0, 51, 71
3, 118920, Note_on_c, 0, 51, 0
3, 118920, Note_on_c, 0, 40, 63
3, 118960, Note_on_c, 0, 40, 0
3, 118960, Note_on_c, 0, 44, 63
3, 119000, Note_on_c, 0, 44, 0
3, 119000, Note_on_c, 0, 47, 63
3, 119040, Note_on_c, 0, 47, 0
3, 119040, Note_on_c, 0, 52, 73
3, 119280, Note_on_c, 0, 52, 0
3, 119280, Note_on_c, 0, 52, 73
3, 119400, Note_on_c, 0, 52, 0
3, 119880, Note_on_c, 0, 45, 64
3, 119920, Note_on_c, 0, 45, 0
3, 119920, Note_on_c, 0, 49, 64
3, 119960, Note_on_c, 0, 49, 0
3, 119960, Note_on_c, 0, 52, 64
3, 120000, Note_on_c, 0, 52, 0
3, 120000, Note_on_c, 0, 57, 73
3, 120120, Note_on_c, 0, 57, 0
3, 120240, Note_on_c, 0, 57, 69
3, 120360, Note_on_c, 0, 57, 0
3, 120480, Note_on_c, 0, 57, 69
3, 120600, Note_on_c, 0, 57, 0
3, 120720, Note_on_c, 0, 57, 69
3, 120840, Note_on_c, 0, 57, 0
3, 120840, Note_on_c, 0, 45, 60
3, 120880, Note_on_c, 0, 45, 0
3, 120880, Note_on_c, 0, 49, 60
3, 120920, Note_on_c, 0, 49, 0
3, 120920, Note_on_c, 0, 52, 60
3, 120960, Note_on_c, 0, 52, 0
3, 120960, Note_on_c, 0, 57, 72
3, 121080, Note_on_c, 0, 57, 0
3, 121200, Note_on_c, 0, 57, 64
3, 121320, Note_on_c, 0, 57, 0
3, 121440, Note_on_c, 0, 57, 65
3, 121560, Note_on_c, 0, 57, 0
3, 121680, Note_on_c, 0, 57, 67
3, 121800, Note_on_c, 0, 57, 0
3, 121800, Note_on_c, 0, 38, 63
3, 121840, Note_on_c, 0, 38, 0
3, 121840, Note_on_c, 0, 42, 63
3, 121880, Note_on_c, 0, 42, 0
3, 121880, Note_on_c, 0, 45, 63
3, 121920, Note_on_c, 0, 45, 0
3, 121920, Note_on_c, 0, 50, 73
3, 122040, Note_on_c, 0, 50, 0
3, 122160, Note_on_c, 0, 50, 69
3, 122280, Note_on_c, 0, 50, 0
3, 122280, Note_on_c, 0, 40, 63
3, 122320, Note_on_c, 0, 40, 0
3, 122320, Note_on_c, 0, 44, 63
3, 122360, Note_on_c, 0, 44, 0
3, 122360, Note_on_c, 0, 47, 63
3, 122400, Note_on_c, 0, 47, 0
3, 122400, Note_on_c, 0, 52, 73
3, 122520, Note_on_c, 0, 52, 0
3, 122640, Note_on_c, 0, 52, 71
3, 122760, Note_on_c, 0, 52, 0
3, 122880, Note_on_c, 0, 45, 73
3, 123330, Note_on_c, 0, 45, 0
3, 123840, Note_on_c, 0, 57, 57
3, 123960, Note_on_c, 0, 57, 0
3, 124080, Note_on_c, 0, 64, 52
3, 124080, Note_on_c, 0, 60, 43
3, 124200, Note_on_c, 0, 60, 0
3, 124200, Note_on_c, 0, 64, 0
3, 124320, Note_on_c, 0, 60, 43
3, 124320, Note_on_c, 0, 64, 52
3, 124440, Note_on_c, 0, 64, 0
3, 124440, Note_on_c, 0, 60, 0
3, 124560, Note_on_c, 0, 60, 42
3, 124560, Note_on_c, 0, 64, 51
3, 124680, Note_on_c, 0, 64, 0
3, 124680, Note_on_c, 0, 60, 0
3, 124800, Note_on_c, 0, 57, 57
3, 124920, Note_on_c, 0, 57, 0
3, 125040, Note_on_c, 0, 64, 52
3, 125040, Note_on_c, 0, 60, 43
3, 125160, Note_on_c, 0, 60, 0
3, 125160, Note_on_c, 0, 64, 0
3, 125280, Note_on_c, 0, 64, 52
3, 125280, Note_on_c, 0, 60, 43
3, 125400, Note_on_c, 0, 60, 0
3, 125400, Note_on_c, 0, 64, 0
3, 125520, Note_on_c, 0, 64, 52
3, 125520, Note_on_c, 0, 60, 43
3, 125640, Note_on_c, 0, 60, 0
3, 125640, Note_on_c, 0, 64, 0
3, 125760, Note_on_c, 0, 57, 57
3, 125880, Note_on_c, 0, 57, 0
3, 126000, Note_on_c, 0, 64, 50
3, 126000, Note_on_c, 0, 60, 42
3, 126120, Note_on_c, 0, 60, 0
3, 126120, Note_on_c, 0, 64, 0
3, 126240, Note_on_c, 0, 57, 57
3, 126360, Note_on_c, 0, 57, 0
3, 126480, Note_on_c, 0, 64, 52
3, 126480, Note_on_c, 0, 60, 43
3, 126600, Note_on_c, 0, 60, 0
3, 126600, Note_on_c, 0, 64, 0
3, 126720, Note_on_c, 0, 57, 57
3, 126840, Note_on_c, 0, 57, 0
3, 126960, Note_on_c, 0, 64, 50
3, 126960, Note_on_c, 0, 60, 42
3, 127080, Note_on_c, 0, 60, 0
3, 127080, Note_on_c, 0, 64, 0
3, 127200, Note_on_c, 0, 64, 50
3, 127200, Note_on_c, 0, 60, 42
3, 127320, Note_on_c, 0, 60, 0
3, 127320, Note_on_c, 0, 64, 0
3, 127440, Note_on_c, 0, 64, 50
3, 127440, Note_on_c, 0, 60, 42
3, 127560, Note_on_c, 0, 60, 0
3, 127560, Note_on_c, 0, 64, 0
3, 127680, Note_on_c, 0, 52, 65
3, 127800, Note_on_c, 0, 52, 0
3, 127920, Note_on_c, 0, 64, 53
3, 127920, Note_on_c, 0, 59, 44
3, 128040, Note_on_c, 0, 59, 0
3, 128040, Note_on_c, 0, 64, 0
3, 128160, Note_on_c, 0, 64, 53
3, 128160, Note_on_c, 0, 59, 44
3, 128280, Note_on_c, 0, 59, 0
3, 128280, Note_on_c, 0, 64, 0
3, 128400, Note_on_c, 0, 64, 53
3, 128400, Note_on_c, 0, 59, 44
3, 128520, Note_on_c, 0, 59, 0
3, 128520, Note_on_c, 0, 64, 0
3, 128640, Note_on_c, 0, 52, 66
3, 128760, Note_on_c, 0, 52, 0
3, 128880, Note_on_c, 0, 64, 52
3, 128880, Note_on_c, 0, 59, 43
3, 129000, Note_on_c, 0, 59, 0
3, 129000, Note_on_c, 0, 64, 0
3, 129120, Note_on_c, 0, 64, 52
3, 129120, Note_on_c, 0, 59, 43
3, 129240, Note_on_c, 0, 59, 0
3, 129240, Note_on_c, 0, 64, 0
3, 129360, Note_on_c, 0, 64, 52
3, 129360, Note_on_c, 0, 59, 43
3, 129480, Note_on_c, 0, 59, 0
3, 129480, Note_on_c, 0, 64, 0
3, 129600, Note_on_c, 0, 52, 67
3, 129720, Note_on_c, 0, 52, 0
3, 129840, Note_on_c, 0, 64, 52
3, 129840, Note_on_c, 0, 59, 43
3, 129960, Note_on_c, 0, 59, 0
3, 129960, Note_on_c, 0, 64, 0
3, 130080, Note_on_c, 0, 47, 52
3, 130200, Note_on_c, 0, 47, 0
3, 130320, Note_on_c, 0, 59, 52
3, 130440, Note_on_c, 0, 59, 0
3, 130560, Note_on_c, 0, 52, 57
3, 131010, Note_on_c, 0, 52, 0
3, 131520, Note_on_c, 0, 57, 57
3, 131640, Note_on_c, 0, 57, 0
3, 131760, Note_on_c, 0, 64, 52
3, 131760, Note_on_c, 0, 60, 43
3, 131880, Note_on_c, 0, 60, 0
3, 131880, Note_on_c, 0, 64, 0
3, 132000, Note_on_c, 0, 60, 43
3, 132000, Note_on_c, 0, 64, 52
3, 132120, Note_on_c, 0, 64, 0
3, 132120, Note_on_c, 0, 60, 0
3, 132240, Note_on_c, 0, 60, 42
3, 132240, Note_on_c, 0, 64, 51
3, 132360, Note_on_c, 0, 64, 0
3, 132360, Note_on_c, 0, 60, 0
3, 132480, Note_on_c, 0, 57, 57
3, 132600, Note_on_c, 0, 57, 0
3, 132720, Note_on_c, 0, 64, 52
3, 132720, Note_on_c, 0, 60, 43
3, 132840, Note_on_c, 0, 60, 0
3, 132840, Note_on_c, 0, 64, 0
3, 132960, Note_on_c, 0, 64, 52
3, 132960, Note_on_c, 0, 60, 43
3, 133080, Note_on_c, 0, 60, 0
3, 133080, Note_on_c, 0, 64, 0
3, 133200, Note_on_c, 0, 64, 52
3, 133200, Note_on_c, 0, 60, 43
3, 133320, Note_on_c, 0, 60, 0
3, 133320, Note_on_c, 0, 64, 0
3, 133440, Note_on_c, 0, 57, 57
3, 133560, Note_on_c, 0, 57, 0
3, 133680, Note_on_c, 0, 64, 50
3, 133680, Note_on_c, 0, 60, 42
3, 133800, Note_on_c, 0, 60, 0
3, 133800, Note_on_c, 0, 64, 0
3, 133920, Note_on_c, 0, 57, 57
3, 134040, Note_on_c, 0, 57, 0
3, 134160, Note_on_c, 0, 64, 52
3, 134160, Note_on_c, 0, 60, 43
3, 134280, Note_on_c, 0, 60, 0
3, 134280, Note_on_c, 0, 64, 0
3, 134400, Note_on_c, 0, 57, 57
3, 134520, Note_on_c, 0, 57, 0
3, 134640, Note_on_c, 0, 64, 50
3, 134640, Note_on_c, 0, 60, 42
3, 134760, Note_on_c, 0, 60, 0
3, 134760, Note_on_c, 0, 64, 0
3, 134880, Note_on_c, 0, 64, 50
3, 134880, Note_on_c, 0, 60, 42
3, 135000, Note_on_c, 0, 60, 0
3, 135000, Note_on_c, 0, 64, 0
3, 135120, Note_on_c, 0, 64, 50
3, 135120, Note_on_c, 0, 60, 42
3, 135240, Note_on_c, 0, 60, 0
3, 135240, Note_on_c, 0, 64, 0
3, 135360, Note_on_c, 0, 52, 65
3, 135480, Note_on_c, 0, 52, 0
3, 135600, Note_on_c, 0, 64, 53
3, 135600, Note_on_c, 0, 59, 44
3, 135720, Note_on_c, 0, 59, 0
3, 135720, Note_on_c, 0, 64, 0
3, 135840, Note_on_c, 0, 64, 53
3, 135840, Note_on_c, 0, 59, 44
3, 135960, Note_on_c, 0, 59, 0
3, 135960, Note_on_c, 0, 64, 0
3, 136080, Note_on_c, 0, 64, 53
3, 136080, Note_on_c, 0, 59, 44
3, 136200, Note_on_c, 0, 59, 0
3, 136200, Note_on_c, 0, 64, 0
3, 136320, Note_on_c, 0, 52, 66
3, 136440, Note_on_c, 0, 52, 0
3, 136560, Note_on_c, 0, 64, 52
3, 136560, Note_on_c, 0, 59, 43
3, 136680, Note_on_c, 0, 59, 0
3, 136680, Note_on_c, 0, 64, 0
3, 136800, Note_on_c, 0, 64, 52
3, 136800, Note_on_c, 0, 59, 43
3, 136920, Note_on_c, 0, 59, 0
3, 136920, Note_on_c, 0, 64, 0
3, 137040, Note_on_c, 0, 64, 52
3, 137040, Note_on_c, 0, 59, 43
3, 137160, Note_on_c, 0, 59, 0
3, 137160, Note_on_c, 0, 64, 0
3, 137280, Note_on_c, 0, 52, 67
3, 137400, Note_on_c, 0, 52, 0
3, 137520, Note_on_c, 0, 64, 52
3, 137520, Note_on_c, 0, 59, 43
3, 137640, Note_on_c, 0, 59, 0
3, 137640, Note_on_c, 0, 64, 0
3, 137760, Note_on_c, 0, 47, 52
3, 137880, Note_on_c, 0, 47, 0
3, 138000, Note_on_c, 0, 59, 52
3, 138120, Note_on_c, 0, 59, 0
3, 138240, Note_on_c, 0, 52, 57
3, 138690, Note_on_c, 0, 52, 0
3, 139200, Note_on_c, 0, 48, 59
3, 139320, Note_on_c, 0, 48, 0
3, 139440, Note_on_c, 0, 60, 53
3, 139560, Note_on_c, 0, 60, 0
3, 139680, Note_on_c, 0, 52, 59
3, 139800, Note_on_c, 0, 52, 0
3, 139920, Note_on_c, 0, 64, 57
3, 140040, Note_on_c, 0, 64, 0
3, 140160, Note_on_c, 0, 55, 60
3, 140640, Note_on_c, 0, 55, 0
3, 141120, Note_on_c, 0, 48, 59
3, 141240, Note_on_c, 0, 48, 0
3, 141360, Note_on_c, 0, 60, 53
3, 141480, Note_on_c, 0, 60, 0
3, 141600, Note_on_c, 0, 52, 59
3, 141720, Note_on_c, 0, 52, 0
3, 141840, Note_on_c, 0, 64, 57
3, 141960, Note_on_c, 0, 64, 0
3, 142080, Note_on_c, 0, 55, 60
3, 142560, Note_on_c, 0, 55, 0
3, 143040, Note_on_c, 0, 45, 59
3, 143160, Note_on_c, 0, 45, 0
3, 143280, Note_on_c, 0, 57, 53
3, 143400, Note_on_c, 0, 57, 0
3, 143520, Note_on_c, 0, 48, 59
3, 143640, Note_on_c, 0, 48, 0
3, 143760, Note_on_c, 0, 60, 57
3, 143880, Note_on_c, 0, 60, 0
3, 144000, Note_on_c, 0, 52, 60
3, 144480, Note_on_c, 0, 52, 0
3, 144960, Note_on_c, 0, 45, 59
3, 145080, Note_on_c, 0, 45, 0
3, 145200, Note_on_c, 0, 57, 53
3, 145320, Note_on_c, 0, 57, 0
3, 145440, Note_on_c, 0, 48, 59
3, 145560, Note_on_c, 0, 48, 0
3, 145680, Note_on_c, 0, 60, 57
3, 145800, Note_on_c, 0, 60, 0
3, 145920, Note_on_c, 0, 52, 60
3, 146400, Note_on_c, 0, 52, 0
3, 146880, Note_on_c, 0, 57, 53
3, 147000, Note_on_c, 0, 57, 0
3, 147120, Note_on_c, 0, 64, 47
3, 147120, Note_on_c, 0, 60, 47
3, 147240, Note_on_c, 0, 60, 0
3, 147240, Note_on_c, 0, 64, 0
3, 147360, Note_on_c, 0, 60, 47
3, 147360, Note_on_c, 0, 64, 47
3, 147480, Note_on_c, 0, 64, 0
3, 147480, Note_on_c, 0, 60, 0
3, 147600, Note_on_c, 0, 60, 47
3, 147600, Note_on_c, 0, 64, 47
3, 147720, Note_on_c, 0, 64, 0
3, 147720, Note_on_c, 0, 60, 0
3, 147840, Note_on_c, 0, 57, 54
3, 147960, Note_on_c, 0, 57, 0
3, 148080, Note_on_c, 0, 64, 48
3, 148080, Note_on_c, 0, 60, 48
3, 148200, Note_on_c, 0, 60, 0
3, 148200, Note_on_c, 0, 64, 0
3, 148320, Note_on_c, 0, 64, 48
3, 148320, Note_on_c, 0, 60, 48
3, 148440, Note_on_c, 0, 60, 0
3, 148440, Note_on_c, 0, 64, 0
3, 148560, Note_on_c, 0, 64, 48
3, 148560, Note_on_c, 0, 60, 48
3, 148680, Note_on_c, 0, 60, 0
3, 148680, Note_on_c, 0, 64, 0
3, 148800, Note_on_c, 0, 57, 56
3, 148920, Note_on_c, 0, 57, 0
3, 149040, Note_on_c, 0, 64, 49
3, 149040, Note_on_c, 0, 60, 49
3, 149160, Note_on_c, 0, 60, 0
3, 149160, Note_on_c, 0, 64, 0
3, 149280, Note_on_c, 0, 57, 57
3, 149400, Note_on_c, 0, 57, 0
3, 149520, Note_on_c, 0, 64, 52
3, 149520, Note_on_c, 0, 60, 43
3, 149640, Note_on_c, 0, 60, 0
3, 149640, Note_on_c, 0, 64, 0
3, 149760, Note_on_c, 0, 53, 57
3, 149880, Note_on_c, 0, 53, 0
3, 150000, Note_on_c, 0, 63, 51
3, 150000, Note_on_c, 0, 57, 51
3, 150120, Note_on_c, 0, 57, 0
3, 150120, Note_on_c, 0, 63, 0
3, 150240, Note_on_c, 0, 63, 43
3, 150240, Note_on_c, 0, 57, 43
3, 150360, Note_on_c, 0, 57, 0
3, 150360, Note_on_c, 0, 63, 0
3, 150480, Note_on_c, 0, 63, 39
3, 150480, Note_on_c, 0, 57, 39
3, 150600, Note_on_c, 0, 57, 0
3, 150600, Note_on_c, 0, 63, 0
3, 150720, Note_on_c, 0, 52, 46
3, 150840, Note_on_c, 0, 52, 0
3, 150960, Note_on_c, 0, 64, 42
3, 150960, Note_on_c, 0, 57, 42
3, 151080, Note_on_c, 0, 57, 0
3, 151080, Note_on_c, 0, 64, 0
3, 151200, Note_on_c, 0, 50, 42
3, 151320, Note_on_c, 0, 50, 0
3, 151440, Note_on_c, 0, 59, 42
3, 151440, Note_on_c, 0, 53, 42
3, 151560, Note_on_c, 0, 53, 0
3, 151560, Note_on_c, 0, 59, 0
3, 151680, Note_on_c, 0, 48, 47
3, 151800, Note_on_c, 0, 48, 0
3, 151920, Note_on_c, 0, 57, 39
3, 151920, Note_on_c, 0, 52, 39
3, 152040, Note_on_c, 0, 52, 0
3, 152040, Note_on_c, 0, 57, 0
3, 152160, Note_on_c, 0, 50, 41
3, 152280, Note_on_c, 0, 50, 0
3, 152400, Note_on_c, 0, 59, 41
3, 152400, Note_on_c, 0, 53, 41
3, 152520, Note_on_c, 0, 53, 0
3, 152520, Note_on_c, 0, 59, 0
3, 152640, Note_on_c, 0, 52, 48
3, 152640, Note_on_c, 0, 57, 48
3, 152760, Note_on_c, 0, 57, 0
3, 152760, Note_on_c, 0, 52, 0
3, 152880, Note_on_c, 0, 57, 41
3, 152880, Note_on_c, 0, 52, 41
3, 153000, Note_on_c, 0, 52, 0
3, 153000, Note_on_c, 0, 57, 0
3, 153115, Note_on_c, 0, 52, 41
3, 153120, Note_on_c, 0, 56, 41
3, 153235, Note_on_c, 0, 52, 0
3, 153240, Note_on_c, 0, 56, 0
3, 153360, Note_on_c, 0, 52, 41
3, 153360, Note_on_c, 0, 56, 41
3, 153480, Note_on_c, 0, 56, 0
3, 153480, Note_on_c, 0, 52, 0
3, 153600, Note_on_c, 0, 45, 46
3, 153600, Note_on_c, 0, 57, 46
3, 154050, Note_on_c, 0, 57, 0
3, 154080, Note_on_c, 0, 45, 0
3, 154560, Note_on_c, 0, 48, 59
3, 154680, Note_on_c, 0, 48, 0
3, 154800, Note_on_c, 0, 60, 53
3, 154920, Note_on_c, 0, 60, 0
3, 155040, Note_on_c, 0, 52, 59
3, 155160, Note_on_c, 0, 52, 0
3, 155280, Note_on_c, 0, 64, 57
3, 155400, Note_on_c, 0, 64, 0
3, 155520, Note_on_c, 0, 55, 60
3, 156000, Note_on_c, 0, 55, 0
3, 156480, Note_on_c, 0, 48, 59
3, 156600, Note_on_c, 0, 48, 0
3, 156720, Note_on_c, 0, 60, 53
3, 156840, Note_on_c, 0, 60, 0
3, 156960, Note_on_c, 0, 52, 59
3, 157080, Note_on_c, 0, 52, 0
3, 157200, Note_on_c, 0, 64, 57
3, 157320, Note_on_c, 0, 64, 0
3, 157440, Note_on_c, 0, 55, 60
3, 157920, Note_on_c, 0, 55, 0
3, 158400, Note_on_c, 0, 45, 59
3, 158520, Note_on_c, 0, 45, 0
3, 158640, Note_on_c, 0, 57, 53
3, 158760, Note_on_c, 0, 57, 0
3, 158880, Note_on_c, 0, 48, 59
3, 159000, Note_on_c, 0, 48, 0
3, 159120, Note_on_c, 0, 60, 57
3, 159240, Note_on_c, 0, 60, 0
3, 159360, Note_on_c, 0, 52, 60
3, 159840, Note_on_c, 0, 52, 0
3, 160320, Note_on_c, 0, 45, 59
3, 160440, Note_on_c, 0, 45, 0
3, 160560, Note_on_c, 0, 57, 53
3, 160680, Note_on_c, 0, 57, 0
3, 160800, Note_on_c, 0, 48, 59
3, 160920, Note_on_c, 0, 48, 0
3, 161040, Note_on_c, 0, 60, 57
3, 161160, Note_on_c, 0, 60, 0
3, 161280, Note_on_c, 0, 52, 60
3, 161760, Note_on_c, 0, 52, 0
3, 162240, Note_on_c, 0, 57, 53
3, 162360, Note_on_c, 0, 57, 0
3, 162480, Note_on_c, 0, 64, 47
3, 162480, Note_on_c, 0, 60, 47
3, 162600, Note_on_c, 0, 60, 0
3, 162600, Note_on_c, 0, 64, 0
3, 162720, Note_on_c, 0, 60, 47
3, 162720, Note_on_c, 0, 64, 47
3, 162840, Note_on_c, 0, 64, 0
3, 162840, Note_on_c, 0, 60, 0
3, 162960, Note_on_c, 0, 60, 47
3, 162960, Note_on_c, 0, 64, 47
3, 163080, Note_on_c, 0, 64, 0
3, 163080, Note_on_c, 0, 60, 0
3, 163200, Note_on_c, 0, 57, 54
3, 163320, Note_on_c, 0, 57, 0
3, 163440, Note_on_c, 0, 64, 48
3, 163440, Note_on_c, 0, 60, 48
3, 163560, Note_on_c, 0, 60, 0
3, 163560, Note_on_c, 0, 64, 0
3, 163680, Note_on_c, 0, 64, 48
3, 163680, Note_on_c, 0, 60, 48
3, 163800, Note_on_c, 0, 60, 0
3, 163800, Note_on_c, 0, 64, 0
3, 163920, Note_on_c, 0, 64, 48
3, 163920, Note_on_c, 0, 60, 48
3, 164040, Note_on_c, 0, 60, 0
3, 164040, Note_on_c, 0, 64, 0
3, 164160, Note_on_c, 0, 57, 56
3, 164280, Note_on_c, 0, 57, 0
3, 164400, Note_on_c, 0, 64, 49
3, 164400, Note_on_c, 0, 60, 49
3, 164520, Note_on_c, 0, 60, 0
3, 164520, Note_on_c, 0, 64, 0
3, 164640, Note_on_c, 0, 57, 57
3, 164760, Note_on_c, 0, 57, 0
3, 164880, Note_on_c, 0, 64, 52
3, 164880, Note_on_c, 0, 60, 43
3, 165000, Note_on_c, 0, 60, 0
3, 165000, Note_on_c, 0, 64, 0
3, 165120, Note_on_c, 0, 57, 57
3, 165240, Note_on_c, 0, 57, 0
3, 165360, Note_on_c, 0, 63, 51
3, 165360, Note_on_c, 0, 57, 51
3, 165480, Note_on_c, 0, 57, 0
3, 165480, Note_on_c, 0, 63, 0
3, 165600, Note_on_c, 0, 63, 43
3, 165600, Note_on_c, 0, 57, 43
3, 165720, Note_on_c, 0, 57, 0
3, 165720, Note_on_c, 0, 63, 0
3, 165840, Note_on_c, 0, 63, 39
3, 165840, Note_on_c, 0, 57, 39
3, 165960, Note_on_c, 0, 57, 0
3, 165960, Note_on_c, 0, 63, 0
3, 166080, Note_on_c, 0, 52, 46
3, 166200, Note_on_c, 0, 52, 0
3, 166320, Note_on_c, 0, 64, 42
3, 166320, Note_on_c, 0, 57, 42
3, 166440, Note_on_c, 0, 57, 0
3, 166440, Note_on_c, 0, 64, 0
3, 166560, Note_on_c, 0, 50, 42
3, 166680, Note_on_c, 0, 50, 0
3, 166800, Note_on_c, 0, 59, 42
3, 166800, Note_on_c, 0, 53, 42
3, 166920, Note_on_c, 0, 53, 0
3, 166920, Note_on_c, 0, 59, 0
3, 167040, Note_on_c, 0, 48, 47
3, 167160, Note_on_c, 0, 48, 0
3, 167280, Note_on_c, 0, 57, 39
3, 167280, Note_on_c, 0, 52, 39
3, 167400, Note_on_c, 0, 52, 0
3, 167400, Note_on_c, 0, 57, 0
3, 167520, Note_on_c, 0, 50, 41
3, 167640, Note_on_c, 0, 50, 0
3, 167760, Note_on_c, 0, 59, 41
3, 167760, Note_on_c, 0, 53, 41
3, 167880, Note_on_c, 0, 53, 0
3, 167880, Note_on_c, 0, 59, 0
3, 168000, Note_on_c, 0, 52, 48
3, 168000, Note_on_c, 0, 57, 48
3, 168120, Note_on_c, 0, 57, 0
3, 168120, Note_on_c, 0, 52, 0
3, 168240, Note_on_c, 0, 57, 41
3, 168240, Note_on_c, 0, 52, 41
3, 168360, Note_on_c, 0, 52, 0
3, 168360, Note_on_c, 0, 57, 0
3, 168475, Note_on_c, 0, 52, 41
3, 168480, Note_on_c, 0, 56, 41
3, 168595, Note_on_c, 0, 52, 0
3, 168600, Note_on_c, 0, 56, 0
3, 168720, Note_on_c, 0, 52, 41
3, 168720, Note_on_c, 0, 56, 41
3, 168840, Note_on_c, 0, 56, 0
3, 168840, Note_on_c, 0, 52, 0
3, 168960, Note_on_c, 0, 45, 46
3, 168960, Note_on_c, 0, 57, 46
3, 169410, Note_on_c, 0, 57, 0
3, 169440, Note_on_c, 0, 45, 0
3, 169800, Note_on_c, 0, 45, 64
3, 169840, Note_on_c, 0, 45, 0
3, 169840, Note_on_c, 0, 49, 70
3, 169880, Note_on_c, 0, 49, 0
3, 169880, Note_on_c, 0, 52, 76
3, 169920, Note_on_c, 0, 52, 0
3, 169920, Note_on_c, 0, 57, 87
3, 170040, Note_on_c, 0, 57, 0
3, 170160, Note_on_c, 0, 57, 69
3, 170280, Note_on_c, 0, 57, 0
3, 170400, Note_on_c, 0, 57, 69
3, 170520, Note_on_c, 0, 57, 0
3, 170640, Note_on_c, 0, 57, 69
3, 170760, Note_on_c, 0, 57, 0
3, 170760, Note_on_c, 0, 45, 65
3, 170800, Note_on_c, 0, 45, 0
3, 170800, Note_on_c, 0, 49, 69
3, 170840, Note_on_c, 0, 49, 0
3, 170840, Note_on_c, 0, 52, 73
3, 170880, Note_on_c, 0, 52, 0
3, 170880, Note_on_c, 0, 57, 85
3, 171000, Note_on_c, 0, 57, 0
3, 171120, Note_on_c, 0, 57, 64
3, 171240, Note_on_c, 0, 57, 0
3, 171360, Note_on_c, 0, 57, 65
3, 171480, Note_on_c, 0, 57, 0
3, 171600, Note_on_c, 0, 57, 67
3, 171720, Note_on_c, 0, 57, 0
3, 171720, Note_on_c, 0, 38, 66
3, 171760, Note_on_c, 0, 38, 0
3, 171760, Note_on_c, 0, 42, 71
3, 171800, Note_on_c, 0, 42, 0
3, 171800, Note_on_c, 0, 45, 77
3, 171840, Note_on_c, 0, 45, 0
3, 171840, Note_on_c, 0, 50, 85
3, 171960, Note_on_c, 0, 50, 0
3, 172080, Note_on_c, 0, 50, 69
3, 172200, Note_on_c, 0, 50, 0
3, 172200, Note_on_c, 0, 39, 68
3, 172240, Note_on_c, 0, 39, 0
3, 172240, Note_on_c, 0, 42, 72
3, 172280, Note_on_c, 0, 42, 0
3, 172280, Note_on_c, 0, 45, 75
3, 172320, Note_on_c, 0, 45, 0
3, 172320, Note_on_c, 0, 51, 85
3, 172440, Note_on_c, 0, 51, 0
3, 172560, Note_on_c, 0, 51, 71
3, 172680, Note_on_c, 0, 51, 0
3, 172680, Note_on_c, 0, 40, 64
3, 172720, Note_on_c, 0, 40, 0
3, 172720, Note_on_c, 0, 44, 69
3, 172760, Note_on_c, 0, 44, 0
3, 172760, Note_on_c, 0, 47, 74
3, 172800, Note_on_c, 0, 47, 0
3, 172800, Note_on_c, 0, 52, 85
3, 173040, Note_on_c, 0, 52, 0
3, 173040, Note_on_c, 0, 52, 73
3, 173160, Note_on_c, 0, 52, 0
3, 173640, Note_on_c, 0, 45, 67
3, 173680, Note_on_c, 0, 45, 0
3, 173680, Note_on_c, 0, 49, 71
3, 173720, Note_on_c, 0, 49, 0
3, 173720, Note_on_c, 0, 52, 76
3, 173760, Note_on_c, 0, 52, 0
3, 173760, Note_on_c, 0, 57, 84
3, 173880, Note_on_c, 0, 57, 0
3, 174000, Note_on_c, 0, 57, 69
3, 174120, Note_on_c, 0, 57, 0
3, 174240, Note_on_c, 0, 57, 69
3, 174360, Note_on_c, 0, 57, 0
3, 174480, Note_on_c, 0, 57, 69
3, 174600, Note_on_c, 0, 57, 0
3, 174600, Note_on_c, 0, 45, 61
3, 174640, Note_on_c, 0, 45, 0
3, 174640, Note_on_c, 0, 49, 66
3, 174680, Note_on_c, 0, 49, 0
3, 174680, Note_on_c, 0, 52, 72
3, 174720, Note_on_c, 0, 52, 0
3, 174720, Note_on_c, 0, 57, 87
3, 174840, Note_on_c, 0, 57, 0
3, 174960, Note_on_c, 0, 57, 64
3, 175080, Note_on_c, 0, 57, 0
3, 175200, Note_on_c, 0, 57, 65
3, 175320, Note_on_c, 0, 57, 0
3, 175440, Note_on_c, 0, 57, 67
3, 175560, Note_on_c, 0, 57, 0
3, 175560, Note_on_c, 0, 38, 68
3, 175600, Note_on_c, 0, 38, 0
3, 175600, Note_on_c, 0, 42, 72
3, 175640, Note_on_c, 0, 42, 0
3, 175640, Note_on_c, 0, 45, 76
3, 175680, Note_on_c, 0, 45, 0
3, 175680, Note_on_c, 0, 50, 83
3, 175800, Note_on_c, 0, 50, 0
3, 175920, Note_on_c, 0, 50, 69
3, 176040, Note_on_c, 0, 50, 0
3, 176040, Note_on_c, 0, 40, 67
3, 176080, Note_on_c, 0, 40, 0
3, 176080, Note_on_c, 0, 44, 72
3, 176120, Note_on_c, 0, 44, 0
3, 176120, Note_on_c, 0, 47, 78
3, 176160, Note_on_c, 0, 47, 0
3, 176160, Note_on_c, 0, 52, 82
3, 176280, Note_on_c, 0, 52, 0
3, 176400, Note_on_c, 0, 52, 71
3, 176520, Note_on_c, 0, 52, 0
3, 176640, Note_on_c, 0, 45, 84
3, 177090, Note_on_c, 0, 45, 0
3, 177480, Note_on_c, 0, 45, 64
3, 177520, Note_on_c, 0, 45, 0
3, 177520, Note_on_c, 0, 49, 70
3, 177560, Note_on_c, 0, 49, 0
3, 177560, Note_on_c, 0, 52, 76
3, 177600, Note_on_c, 0, 52, 0
3, 177600, Note_on_c, 0, 57, 87
3, 177720, Note_on_c, 0, 57, 0
3, 177840, Note_on_c, 0, 57, 69
3, 177960, Note_on_c, 0, 57, 0
3, 178080, Note_on_c, 0, 57, 69
3, 178200, Note_on_c, 0, 57, 0
3, 178320, Note_on_c, 0, 57, 69
3, 178440, Note_on_c, 0, 57, 0
3, 178440, Note_on_c, 0, 45, 65
3, 178480, Note_on_c, 0, 45, 0
3, 178480, Note_on_c, 0, 49, 69
3, 178520, Note_on_c, 0, 49, 0
3, 178520, Note_on_c, 0, 52, 73
3, 178560, Note_on_c, 0, 52, 0
3, 178560, Note_on_c, 0, 57, 85
3, 178680, Note_on_c, 0, 57, 0
3, 178800, Note_on_c, 0, 57, 64
3, 178920, Note_on_c, 0, 57, 0
3, 179040, Note_on_c, 0, 57, 65
3, 179160, Note_on_c, 0, 57, 0
3, 179280, Note_on_c, 0, 57, 67
3, 179400, Note_on_c, 0, 57, 0
3, 179400, Note_on_c, 0, 38, 66
3, 179440, Note_on_c, 0, 38, 0
3, 179440, Note_on_c, 0, 42, 71
3, 179480, Note_on_c, 0, 42, 0
3, 179480, Note_on_c, 0, 45, 77
3, 179520, Note_on_c, 0, 45, 0
3, 179520, Note_on_c, 0, 50, 85
3, 179640, Note_on_c, 0, 50, 0
3, 179760, Note_on_c, 0, 50, 69
3, 179880, Note_on_c, 0, 50, 0
3, 179880, Note_on_c, 0, 39, 68
3, 179920, Note_on_c, 0, 39, 0
3, 179920, Note_on_c, 0, 42, 72
3, 179960, Note_on_c, 0, 42, 0
3, 179960, Note_on_c, 0, 45, 75
3, 180000, Note_on_c, 0, 45, 0
3, 180000, Note_on_c, 0, 51, 85
3, 180120, Note_on_c, 0, 51, 0
3, 180240, Note_on_c, 0, 51, 71
3, 180360, Note_on_c, 0, 51, 0
3, 180360, Note_on_c, 0, 40, 64
3, 180400, Note_on_c, 0, 40, 0
3, 180400, Note_on_c, 0, 44, 69
3, 180440, Note_on_c, 0, 44, 0
3, 180440, Note_on_c, 0, 47, 74
3, 180480, Note_on_c, 0, 47, 0
3, 180480, Note_on_c, 0, 52, 85
3, 180720, Note_on_c, 0, 52, 0
3, 180720, Note_on_c, 0, 52, 73
3, 180840, Note_on_c, 0, 52, 0
3, 181320, Note_on_c, 0, 45, 67
3, 181360, Note_on_c, 0, 45, 0
3, 181360, Note_on_c, 0, 49, 71
3, 181400, Note_on_c, 0, 49, 0
3, 181400, Note_on_c, 0, 52, 76
3, 181440, Note_on_c, 0, 52, 0
3, 181440, Note_on_c, 0, 57, 84
3, 181560, Note_on_c, 0, 57, 0
3, 181680, Note_on_c, 0, 57, 69
3, 181800, Note_on_c, 0, 57, 0
3, 181920, Note_on_c, 0, 57, 69
3, 182040, Note_on_c, 0, 57, 0
3, 182160, Note_on_c, 0, 57, 69
3, 182280, Note_on_c, 0, 57, 0
3, 182280, Note_on_c, 0, 45, 61
3, 182320, Note_on_c, 0, 45, 0
3, 182320, Note_on_c, 0, 49, 66
3, 182360, Note_on_c, 0, 49, 0
3, 182360, Note_on_c, 0, 52, 72
3, 182400, Note_on_c, 0, 52, 0
3, 182400, Note_on_c, 0, 57, 87
3, 182520, Note_on_c, 0, 57, 0
3, 182640, Note_on_c, 0, 57, 64
3, 182760, Note_on_c, 0, 57, 0
3, 182880, Note_on_c, 0, 57, 65
3, 183000, Note_on_c, 0, 57, 0
3, 183120, Note_on_c, 0, 57, 67
3, 183240, Note_on_c, 0, 57, 0
3, 183240, Note_on_c, 0, 38, 68
3, 183280, Note_on_c, 0, 38, 0
3, 183280, Note_on_c, 0, 42, 72
3, 183320, Note_on_c, 0, 42, 0
3, 183320, Note_on_c, 0, 45, 76
3, 183360, Note_on_c, 0, 45, 0
3, 183360, Note_on_c, 0, 50, 83
3, 183480, Note_on_c, 0, 50, 0
3, 183600, Note_on_c, 0, 50, 69
3, 183720, Note_on_c, 0, 50, 0
3, 183720, Note_on_c, 0, 40, 67
3, 183760, Note_on_c, 0, 40, 0
3, 183760, Note_on_c, 0, 44, 72
3, 183800, Note_on_c, 0, 44, 0
3, 183800, Note_on_c, 0, 47, 78
3, 183840, Note_on_c, 0, 47, 0
3, 183840, Note_on_c, 0, 52, 82
3, 183960, Note_on_c, 0, 52, 0
3, 184080, Note_on_c, 0, 52, 71
3, 184200, Note_on_c, 0, 52, 0
3, 184200, Note_on_c, 0, 45, 61
3, 184240, Note_on_c, 0, 45, 0
3, 184240, Note_on_c, 0, 49, 66
3, 184280, Note_on_c, 0, 49, 0
3, 184280, Note_on_c, 0, 52, 72
3, 184320, Note_on_c, 0, 52, 0
3, 184320, Note_on_c, 0, 57, 87
3, 184440, Note_on_c, 0, 57, 0
3, 184560, Note_on_c, 0, 57, 64
3, 184680, Note_on_c, 0, 57, 0
3, 184800, Note_on_c, 0, 57, 65
3, 184920, Note_on_c, 0, 57, 0
3, 185040, Note_on_c, 0, 57, 64
3, 185160, Note_on_c, 0, 57, 0
3, 185160, Note_on_c, 0, 45, 61
3, 185200, Note_on_c, 0, 45, 0
3, 185200, Note_on_c, 0, 49, 66
3, 185240, Note_on_c, 0, 49, 0
3, 185240, Note_on_c, 0, 52, 72
3, 185280, Note_on_c, 0, 52, 0
3, 185280, Note_on_c, 0, 57, 87
3, 185400, Note_on_c, 0, 57, 0
3, 185520, Note_on_c, 0, 57, 68
3, 185640, Note_on_c, 0, 57, 0
3, 185760, Note_on_c, 0, 57, 68
3, 185880, Note_on_c, 0, 57, 0
3, 186000, Note_on_c, 0, 57, 68
3, 186120, Note_on_c, 0, 57, 0
3, 186120, Note_on_c, 0, 45, 61
3, 186160, Note_on_c, 0, 45, 0
3, 186160, Note_on_c, 0, 49, 66
3, 186200, Note_on_c, 0, 49, 0
3, 186200, Note_on_c, 0, 52, 72
3, 186240, Note_on_c, 0, 52, 0
3, 186240, Note_on_c, 0, 57, 87
3, 186360, Note_on_c, 0, 57, 0
3, 186480, Note_on_c, 0, 57, 68
3, 186600, Note_on_c, 0, 57, 0
3, 186720, Note_on_c, 0, 57, 68
3, 186840, Note_on_c, 0, 57, 0
3, 186960, Note_on_c, 0, 57, 68
3, 187080, Note_on_c, 0, 57, 0
3, 187080, Note_on_c, 0, 45, 61
3, 187120, Note_on_c, 0, 45, 0
3, 187120, Note_on_c, 0, 49, 66
3, 187160, Note_on_c, 0, 49, 0
3, 187160, Note_on_c, 0, 52, 72
3, 187200, Note_on_c, 0, 52, 0
3, 187200, Note_on_c, 0, 57, 87
3, 187320, Note_on_c, 0, 57, 0
3, 187440, Note_on_c, 0, 57, 67
3, 187560, Note_on_c, 0, 57, 0
3, 187680, Note_on_c, 0, 57, 67
3, 187800, Note_on_c, 0, 57, 0
3, 187920, Note_on_c, 0, 57, 67
3, 188040, Note_on_c, 0, 57, 0
3, 188040, Note_on_c, 0, 38, 61
3, 188080, Note_on_c, 0, 38, 0
3, 188080, Note_on_c, 0, 42, 66
3, 188120, Note_on_c, 0, 42, 0
3, 188120, Note_on_c, 0, 45, 72
3, 188160, Note_on_c, 0, 45, 0
3, 188160, Note_on_c, 0, 50, 87
3, 188280, Note_on_c, 0, 50, 0
3, 188400, Note_on_c, 0, 50, 67
3, 188520, Note_on_c, 0, 50, 0
3, 188640, Note_on_c, 0, 50, 67
3, 188760, Note_on_c, 0, 50, 0
3, 188873, Note_on_c, 0, 50, 67
3, 188993, Note_on_c, 0, 50, 0
3, 189000, Note_on_c, 0, 45, 61
3, 189040, Note_on_c, 0, 45, 0
3, 189040, Note_on_c, 0, 49, 66
3, 189080, Note_on_c, 0, 49, 0
3, 189080, Note_on_c, 0, 52, 72
3, 189120, Note_on_c, 0, 52, 0
3, 189120, Note_on_c, 0, 57, 87
3, 189180, Note_on_c, 0, 57, 0
3, 189360, Note_on_c, 0, 57, 67
3, 189420, Note_on_c, 0, 57, 0
3, 189600, Note_on_c, 0, 57, 67
3, 189660, Note_on_c, 0, 57, 0
3, 189840, Note_on_c, 0, 57, 67
3, 189900, Note_on_c, 0, 57, 0
3, 189960, Note_on_c, 0, 40, 61
3, 190000, Note_on_c, 0, 40, 0
3, 190000, Note_on_c, 0, 44, 66
3, 190040, Note_on_c, 0, 44, 0
3, 190040, Note_on_c, 0, 47, 72
3, 190080, Note_on_c, 0, 47, 0
3, 190080, Note_on_c, 0, 52, 87
3, 190200, Note_on_c, 0, 52, 0
3, 190320, Note_on_c, 0, 52, 66
3, 190440, Note_on_c, 0, 52, 0
3, 190560, Note_on_c, 0, 52, 66
3, 190680, Note_on_c, 0, 52, 0
3, 190800, Note_on_c, 0, 52, 66
3, 190920, Note_on_c, 0, 52, 0
3, 190920, Note_on_c, 0, 45, 61
3, 190960, Note_on_c, 0, 45, 0
3, 190960, Note_on_c, 0, 49, 66
3, 191000, Note_on_c, 0, 49, 0
3, 191000, Note_on_c, 0, 52, 72
3, 191040, Note_on_c, 0, 52, 0
3, 191040, Note_on_c, 0, 57, 87
3, 191160, Note_on_c, 0, 57, 0
3, 191280, Note_on_c, 0, 57, 68
3, 191400, Note_on_c, 0, 57, 0
3, 191520, Note_on_c, 0, 57, 68
3, 191640, Note_on_c, 0, 57, 0
3, 191760, Note_on_c, 0, 57, 68
3, 191880, Note_on_c, 0, 57, 0
3, 191880, Note_on_c, 0, 45, 61
3, 191920, Note_on_c, 0, 45, 0
3, 191920, Note_on_c, 0, 49, 66
3, 191960, Note_on_c, 0, 49, 0
3, 191960, Note_on_c, 0, 52, 72
3, 192000, Note_on_c, 0, 52, 0
3, 192000, Note_on_c, 0, 57, 87
3, 192120, Note_on_c, 0, 57, 0
3, 192240, Note_on_c, 0, 57, 66
3, 192360, Note_on_c, 0, 57, 0
3, 192480, Note_on_c, 0, 57, 66
3, 192600, Note_on_c, 0, 57, 0
3, 192720, Note_on_c, 0, 57, 66
3, 192840, Note_on_c, 0, 57, 0
3, 192840, Note_on_c, 0, 45, 61
3, 192880, Note_on_c, 0, 45, 0
3, 192880, Note_on_c, 0, 49, 66
3, 192920, Note_on_c, 0, 49, 0
3, 192920, Note_on_c, 0, 52, 72
3, 192960, Note_on_c, 0, 52, 0
3, 192960, Note_on_c, 0, 57, 87
3, 193080, Note_on_c, 0, 57, 0
3, 193200, Note_on_c, 0, 57, 66
3, 193320, Note_on_c, 0, 57, 0
3, 193440, Note_on_c, 0, 57, 66
3, 193560, Note_on_c, 0, 57, 0
3, 193680, Note_on_c, 0, 57, 66
3, 193800, Note_on_c, 0, 57, 0
3, 193800, Note_on_c, 0, 38, 61
3, 193840, Note_on_c, 0, 38, 0
3, 193840, Note_on_c, 0, 42, 66
3, 193880, Note_on_c, 0, 42, 0
3, 193880, Note_on_c, 0, 45, 72
3, 193920, Note_on_c, 0, 45, 0
3, 193920, Note_on_c, 0, 50, 87
3, 194040, Note_on_c, 0, 50, 0
3, 194160, Note_on_c, 0, 50, 66
3, 194280, Note_on_c, 0, 50, 0
3, 194400, Note_on_c, 0, 50, 66
3, 194520, Note_on_c, 0, 50, 0
3, 194633, Note_on_c, 0, 50, 66
3, 194753, Note_on_c, 0, 50, 0
3, 194760, Note_on_c, 0, 45, 61
3, 194800, Note_on_c, 0, 45, 0
3, 194800, Note_on_c, 0, 49, 66
3, 194840, Note_on_c, 0, 49, 0
3, 194840, Note_on_c, 0, 52, 72
3, 194880, Note_on_c, 0, 52, 0
3, 194880, Note_on_c, 0, 57, 87
3, 195000, Note_on_c, 0, 57, 0
3, 195120, Note_on_c, 0, 57, 66
3, 195240, Note_on_c, 0, 57, 0
3, 195360, Note_on_c, 0, 57, 66
3, 195480, Note_on_c, 0, 57, 0
3, 195600, Note_on_c, 0, 57, 66
3, 195720, Note_on_c, 0, 57, 0
3, 195720, Note_on_c, 0, 40, 61
3, 195760, Note_on_c, 0, 40, 0
3, 195760, Note_on_c, 0, 44, 66
3, 195800, Note_on_c, 0, 44, 0
3, 195800, Note_on_c, 0, 47, 72
3, 195840, Note_on_c, 0, 47, 0
3, 195840, Note_on_c, 0, 52, 87
3, 195900, Note_on_c, 0, 52, 0
3, 196080, Note_on_c, 0, 52, 66
3, 196140, Note_on_c, 0, 52, 0
3, 196320, Note_on_c, 0, 52, 65
3, 196380, Note_on_c, 0, 52, 0
3, 196560, Note_on_c, 0, 52, 65
3, 196620, Note_on_c, 0, 52, 0
3, 196800, Note_on_c, 0, 57, 64
3, 196920, Note_on_c, 0, 57, 0
3, 196920, Note_on_c, 0, 64, 54
3, 197040, Note_on_c, 0, 64, 0
3, 197040, Note_on_c, 0, 61, 54
3, 197160, Note_on_c, 0, 61, 0
3, 197160, Note_on_c, 0, 64, 54
3, 197280, Note_on_c, 0, 64, 0
3, 197280, Note_on_c, 0, 57, 40
3, 197400, Note_on_c, 0, 57, 0
3, 197400, Note_on_c, 0, 64, 31
3, 197520, Note_on_c, 0, 64, 0
3, 197520, Note_on_c, 0, 61, 31
3, 197640, Note_on_c, 0, 61, 0
3, 197640, Note_on_c, 0, 64, 31
3, 197760, Note_on_c, 0, 64, 0
3, 197760, Note_on_c, 0, 57, 40
3, 197880, Note_on_c, 0, 57, 0
3, 197880, Note_on_c, 0, 64, 31
3, 198000, Note_on_c, 0, 64, 0
3, 198000, Note_on_c, 0, 61, 31
3, 198120, Note_on_c, 0, 61, 0
3, 198120, Note_on_c, 0, 64, 31
3, 198240, Note_on_c, 0, 64, 0
3, 198240, Note_on_c, 0, 57, 40
3, 198360, Note_on_c, 0, 57, 0
3, 198360, Note_on_c, 0, 64, 31
3, 198480, Note_on_c, 0, 64, 0
3, 198480, Note_on_c, 0, 61, 31
3, 198600, Note_on_c, 0, 61, 0
3, 198600, Note_on_c, 0, 64, 31
3, 198720, Note_on_c, 0, 64, 0
3, 198720, Note_on_c, 0, 57, 40
3, 198840, Note_on_c, 0, 57, 0
3, 198840, Note_on_c, 0, 64, 31
3, 198960, Note_on_c, 0, 64, 0
3, 198960, Note_on_c, 0, 61, 31
3, 199080, Note_on_c, 0, 61, 0
3, 199080, Note_on_c, 0, 64, 31
3, 199200, Note_on_c, 0, 64, 0
3, 199200, Note_on_c, 0, 57, 40
3, 199320, Note_on_c, 0, 57, 0
3, 199320, Note_on_c, 0, 64, 31
3, 199440, Note_on_c, 0, 64, 0
3, 199440, Note_on_c, 0, 61, 31
3, 199560, Note_on_c, 0, 61, 0
3, 199560, Note_on_c, 0, 64, 31
3, 199680, Note_on_c, 0, 64, 0
3, 199680, Note_on_c, 0, 57, 40
3, 199800, Note_on_c, 0, 57, 0
3, 199800, Note_on_c, 0, 64, 31
3, 199920, Note_on_c, 0, 64, 0
3, 199920, Note_on_c, 0, 61, 31
3, 200040, Note_on_c, 0, 61, 0
3, 200040, Note_on_c, 0, 64, 31
3, 200160, Note_on_c, 0, 64, 0
3, 200160, Note_on_c, 0, 57, 40
3, 200280, Note_on_c, 0, 57, 0
3, 200280, Note_on_c, 0, 64, 31
3, 200400, Note_on_c, 0, 64, 0
3, 200400, Note_on_c, 0, 61, 31
3, 200520, Note_on_c, 0, 61, 0
3, 200520, Note_on_c, 0, 64, 31
3, 200640, Note_on_c, 0, 64, 0
3, 200640, Note_on_c, 0, 57, 40
3, 200760, Note_on_c, 0, 57, 0
3, 200760, Note_on_c, 0, 66, 31
3, 200880, Note_on_c, 0, 66, 0
3, 200880, Note_on_c, 0, 62, 31
3, 201000, Note_on_c, 0, 62, 0
3, 201000, Note_on_c, 0, 66, 31
3, 201120, Note_on_c, 0, 66, 0
3, 201120, Note_on_c, 0, 57, 40
3, 201240, Note_on_c, 0, 57, 0
3, 201240, Note_on_c, 0, 66, 31
3, 201360, Note_on_c, 0, 66, 0
3, 201360, Note_on_c, 0, 62, 31
3, 201480, Note_on_c, 0, 62, 0
3, 201480, Note_on_c, 0, 66, 31
3, 201600, Note_on_c, 0, 66, 0
3, 201600, Note_on_c, 0, 57, 40
3, 201720, Note_on_c, 0, 57, 0
3, 201720, Note_on_c, 0, 64, 31
3, 201840, Note_on_c, 0, 64, 0
3, 201840, Note_on_c, 0, 61, 31
3, 201960, Note_on_c, 0, 61, 0
3, 201960, Note_on_c, 0, 64, 31
3, 202080, Note_on_c, 0, 64, 0
3, 202080, Note_on_c, 0, 57, 40
3, 202200, Note_on_c, 0, 57, 0
3, 202200, Note_on_c, 0, 64, 31
3, 202320, Note_on_c, 0, 64, 0
3, 202320, Note_on_c, 0, 61, 31
3, 202440, Note_on_c, 0, 61, 0
3, 202440, Note_on_c, 0, 64, 31
3, 202560, Note_on_c, 0, 64, 0
3, 202560, Note_on_c, 0, 52, 40
3, 202680, Note_on_c, 0, 52, 0
3, 202680, Note_on_c, 0, 64, 31
3, 202800, Note_on_c, 0, 64, 0
3, 202800, Note_on_c, 0, 59, 31
3, 202920, Note_on_c, 0, 59, 0
3, 202920, Note_on_c, 0, 64, 31
3, 203040, Note_on_c, 0, 64, 0
3, 203040, Note_on_c, 0, 52, 40
3, 203160, Note_on_c, 0, 52, 0
3, 203160, Note_on_c, 0, 64, 31
3, 203280, Note_on_c, 0, 64, 0
3, 203280, Note_on_c, 0, 59, 31
3, 203400, Note_on_c, 0, 59, 0
3, 203400, Note_on_c, 0, 64, 31
3, 203460, Note_on_c, 0, 64, 0
3, 203460, Note_on_c, 0, 45, 61
3, 203480, Note_on_c, 0, 45, 0
3, 203480, Note_on_c, 0, 49, 61
3, 203500, Note_on_c, 0, 49, 0
3, 203500, Note_on_c, 0, 52, 61
3, 203520, Note_on_c, 0, 52, 0
3, 203520, Note_on_c, 0, 57, 87
3, 203640, Note_on_c, 0, 57, 0
3, 203760, Note_on_c, 0, 57, 67
3, 203880, Note_on_c, 0, 57, 0
3, 204000, Note_on_c, 0, 57, 67
3, 204120, Note_on_c, 0, 57, 0
3, 204240, Note_on_c, 0, 57, 64
3, 204360, Note_on_c, 0, 57, 0
3, 204360, Note_on_c, 0, 45, 61
3, 204400, Note_on_c, 0, 45, 0
3, 204400, Note_on_c, 0, 49, 66
3, 204440, Note_on_c, 0, 49, 0
3, 204440, Note_on_c, 0, 52, 72
3, 204480, Note_on_c, 0, 52, 0
3, 204480, Note_on_c, 0, 57, 87
3, 204600, Note_on_c, 0, 57, 0
3, 204720, Note_on_c, 0, 57, 66
3, 204840, Note_on_c, 0, 57, 0
3, 204960, Note_on_c, 0, 57, 66
3, 205080, Note_on_c, 0, 57, 0
3, 205200, Note_on_c, 0, 57, 66
3, 205320, Note_on_c, 0, 57, 0
3, 205320, Note_on_c, 0, 45, 61
3, 205360, Note_on_c, 0, 45, 0
3, 205360, Note_on_c, 0, 49, 66
3, 205400, Note_on_c, 0, 49, 0
3, 205400, Note_on_c, 0, 52, 72
3, 205440, Note_on_c, 0, 52, 0
3, 205440, Note_on_c, 0, 57, 87
3, 205560, Note_on_c, 0, 57, 0
3, 205680, Note_on_c, 0, 57, 67
3, 205800, Note_on_c, 0, 57, 0
3, 205920, Note_on_c, 0, 57, 67
3, 206040, Note_on_c, 0, 57, 0
3, 206160, Note_on_c, 0, 57, 67
3, 206280, Note_on_c, 0, 57, 0
3, 206280, Note_on_c, 0, 38, 61
3, 206320, Note_on_c, 0, 38, 0
3, 206320, Note_on_c, 0, 42, 66
3, 206360, Note_on_c, 0, 42, 0
3, 206360, Note_on_c, 0, 45, 72
3, 206400, Note_on_c, 0, 45, 0
3, 206400, Note_on_c, 0, 50, 87
3, 206520, Note_on_c, 0, 50, 0
3, 206640, Note_on_c, 0, 50, 68
3, 206760, Note_on_c, 0, 50, 0
3, 206880, Note_on_c, 0, 50, 68
3, 207000, Note_on_c, 0, 50, 0
3, 207113, Note_on_c, 0, 50, 68
3, 207233, Note_on_c, 0, 50, 0
3, 207240, Note_on_c, 0, 45, 61
3, 207280, Note_on_c, 0, 45, 0
3, 207280, Note_on_c, 0, 49, 66
3, 207320, Note_on_c, 0, 49, 0
3, 207320, Note_on_c, 0, 52, 72
3, 207360, Note_on_c, 0, 52, 0
3, 207360, Note_on_c, 0, 57, 87
3, 207480, Note_on_c, 0, 57, 0
3, 207600, Note_on_c, 0, 57, 67
3, 207720, Note_on_c, 0, 57, 0
3, 207840, Note_on_c, 0, 57, 67
3, 207960, Note_on_c, 0, 57, 0
3, 208080, Note_on_c, 0, 57, 67
3, 208200, Note_on_c, 0, 57, 0
3, 208200, Note_on_c, 0, 40, 61
3, 208240, Note_on_c, 0, 40, 0
3, 208240, Note_on_c, 0, 44, 66
3, 208280, Note_on_c, 0, 44, 0
3, 208280, Note_on_c, 0, 47, 72
3, 208320, Note_on_c, 0, 47, 0
3, 208320, Note_on_c, 0, 52, 87
3, 208380, Note_on_c, 0, 52, 0
3, 208560, Note_on_c, 0, 52, 67
3, 208620, Note_on_c, 0, 52, 0
3, 208800, Note_on_c, 0, 52, 67
3, 208860, Note_on_c, 0, 52, 0
3, 209040, Note_on_c, 0, 52, 67
3, 209100, Note_on_c, 0, 52, 0
3, 209160, Note_on_c, 0, 45, 61
3, 209200, Note_on_c, 0, 45, 0
3, 209200, Note_on_c, 0, 49, 66
3, 209240, Note_on_c, 0, 49, 0
3, 209240, Note_on_c, 0, 52, 72
3, 209280, Note_on_c, 0, 52, 0
3, 209280, Note_on_c, 0, 57, 87
3, 209400, Note_on_c, 0, 57, 0
3, 209520, Note_on_c, 0, 57, 67
3, 209640, Note_on_c, 0, 57, 0
3, 209760, Note_on_c, 0, 57, 67
3, 209880, Note_on_c, 0, 57, 0
3, 210000, Note_on_c, 0, 57, 67
3, 210120, Note_on_c, 0, 57, 0
3, 210120, Note_on_c, 0, 45, 61
3, 210160, Note_on_c, 0, 45, 0
3, 210160, Note_on_c, 0, 49, 66
3, 210200, Note_on_c, 0, 49, 0
3, 210200, Note_on_c, 0, 52, 72
3, 210240, Note_on_c, 0, 52, 0
3, 210240, Note_on_c, 0, 57, 87
3, 210360, Note_on_c, 0, 57, 0
3, 210480, Note_on_c, 0, 57, 66
3, 210600, Note_on_c, 0, 57, 0
3, 210720, Note_on_c, 0, 57, 66
3, 210840, Note_on_c, 0, 57, 0
3, 210960, Note_on_c, 0, 57, 66
3, 211080, Note_on_c, 0, 57, 0
3, 211080, Note_on_c, 0, 45, 61
3, 211120, Note_on_c, 0, 45, 0
3, 211120, Note_on_c, 0, 49, 66
3, 211160, Note_on_c, 0, 49, 0
3, 211160, Note_on_c, 0, 52, 72
3, 211200, Note_on_c, 0, 52, 0
3, 211200, Note_on_c, 0, 57, 87
3, 211320, Note_on_c, 0, 57, 0
3, 211440, Note_on_c, 0, 57, 67
3, 211560, Note_on_c, 0, 57, 0
3, 211680, Note_on_c, 0, 57, 67
3, 211800, Note_on_c, 0, 57, 0
3, 211920, Note_on_c, 0, 57, 67
3, 212040, Note_on_c, 0, 57, 0
3, 212040, Note_on_c, 0, 45, 61
3, 212080, Note_on_c, 0, 45, 0
3, 212080, Note_on_c, 0, 49, 66
3, 212120, Note_on_c, 0, 49, 0
3, 212120, Note_on_c, 0, 52, 72
3, 212160, Note_on_c, 0, 52, 0
3, 212160, Note_on_c, 0, 57, 95
3, 212280, Note_on_c, 0, 57, 0
3, 212400, Note_on_c, 0, 57, 70
3, 212520, Note_on_c, 0, 57, 0
3, 212520, Note_on_c, 0, 45, 67
3, 212560, Note_on_c, 0, 45, 0
3, 212560, Note_on_c, 0, 49, 72
3, 212600, Note_on_c, 0, 49, 0
3, 212600, Note_on_c, 0, 52, 79
3, 212640, Note_on_c, 0, 52, 0
3, 212640, Note_on_c, 0, 57, 95
3, 212760, Note_on_c, 0, 57, 0
3, 212880, Note_on_c, 0, 57, 70
3, 213000, Note_on_c, 0, 57, 0
3, 213120, Note_on_c, 0, 45, 88
3, 213600, Note_on_c, 0, 45, 0
3, 213600, Note_on_c, 0, 57, 88
3, 214080, Note_on_c, 0, 57, 0
3, 214080, Note_on_c, 0, 45, 74
3, 214080, Note_on_c, 0, 49, 74
3, 214080, Note_on_c, 0, 52, 74
3, 214080, Note_on_c, 0, 57, 88
3, 214560, Note_on_c, 0, 57, 0
3, 214560, Note_on_c, 0, 45, 0
3, 214560, Note_on_c, 0, 49, 0
3, 214560, Note_on_c, 0, 52, 0
3, 214560, End_track
4, 0, Start_track
4, 0, Title_t, "Pedal"
4, 0, Program_c, 0, 0
4, 1045, Control_c, 0, 64, 127
4, 1210, Control_c, 0, 64, 0
4, 1539, Control_c, 0, 64, 127
4, 1920, Control_c, 0, 64, 0
4, 1995, Control_c, 0, 64, 127
4, 2170, Control_c, 0, 64, 0
4, 2469, Control_c, 0, 64, 127
4, 2880, Control_c, 0, 64, 0
4, 2972, Control_c, 0, 64, 127
4, 3360, Control_c, 0, 64, 0
4, 3417, Control_c, 0, 64, 127
4, 3840, Control_c, 0, 64, 0
4, 3890, Control_c, 0, 64, 127
4, 4090, Control_c, 0, 64, 0
4, 8725, Control_c, 0, 64, 127
4, 8890, Control_c, 0, 64, 0
4, 9219, Control_c, 0, 64, 127
4, 9600, Control_c, 0, 64, 0
4, 9675, Control_c, 0, 64, 127
4, 9850, Control_c, 0, 64, 0
4, 10149, Control_c, 0, 64, 127
4, 10560, Control_c, 0, 64, 0
4, 10652, Control_c, 0, 64, 127
4, 11040, Control_c, 0, 64, 0
4, 11097, Control_c, 0, 64, 127
4, 11520, Control_c, 0, 64, 0
4, 11570, Control_c, 0, 64, 127
4, 11770, Control_c, 0, 64, 0
4, 16956, Control_c, 0, 64, 127
4, 17285, Control_c, 0, 64, 0
4, 17407, Control_c, 0, 64, 127
4, 17760, Control_c, 0, 64, 0
4, 18876, Control_c, 0, 64, 127
4, 19205, Control_c, 0, 64, 0
4, 19327, Control_c, 0, 64, 127
4, 19680, Control_c, 0, 64, 0
4, 20796, Control_c, 0, 64, 127
4, 21125, Control_c, 0, 64, 0
4, 21247, Control_c, 0, 64, 127
4, 21600, Control_c, 0, 64, 0
4, 22716, Control_c, 0, 64, 127
4, 23045, Control_c, 0, 64, 0
4, 23167, Control_c, 0, 64, 127
4, 23520, Control_c, 0, 64, 0
4, 24085, Control_c, 0, 64, 127
4, 24250, Control_c, 0, 64, 0
4, 24579, Control_c, 0, 64, 127
4, 24960, Control_c, 0, 64, 0
4, 25035, Control_c, 0, 64, 127
4, 25210, Control_c, 0, 64, 0
4, 25509, Control_c, 0, 64, 127
4, 25920, Control_c, 0, 64, 0
4, 26012, Control_c, 0, 64, 127
4, 26400, Control_c, 0, 64, 0
4, 26457, Control_c, 0, 64, 127
4, 26880, Control_c, 0, 64, 0
4, 26930, Control_c, 0, 64, 127
4, 27130, Control_c, 0, 64, 0
4, 29840, Control_c, 0, 64, 127
4, 30251, Control_c, 0, 64, 0
4, 30332, Control_c, 0, 64, 127
4, 30720, Control_c, 0, 64, 0
4, 32316, Control_c, 0, 64, 127
4, 32645, Control_c, 0, 64, 0
4, 32767, Control_c, 0, 64, 127
4, 33120, Control_c, 0, 64, 0
4, 34236, Control_c, 0, 64, 127
4, 34565, Control_c, 0, 64, 0
4, 34687, Control_c, 0, 64, 127
4, 35040, Control_c, 0, 64, 0
4, 36156, Control_c, 0, 64, 127
4, 36485, Control_c, 0, 64, 0
4, 36607, Control_c, 0, 64, 127
4, 36960, Control_c, 0, 64, 0
4, 38076, Control_c, 0, 64, 127
4, 38405, Control_c, 0, 64, 0
4, 38527, Control_c, 0, 64, 127
4, 38880, Control_c, 0, 64, 0
4, 39445, Control_c, 0, 64, 127
4, 39610, Control_c, 0, 64, 0
4, 39939, Control_c, 0, 64, 127
4, 40320, Control_c, 0, 64, 0
4, 40395, Control_c, 0, 64, 127
4, 40570, Control_c, 0, 64, 0
4, 40869, Control_c, 0, 64, 127
4, 41280, Control_c, 0, 64, 0
4, 41372, Control_c, 0, 64, 127
4, 41760, Control_c, 0, 64, 0
4, 41817, Control_c, 0, 64, 127
4, 42240, Control_c, 0, 64, 0
4, 42290, Control_c, 0, 64, 127
4, 42490, Control_c, 0, 64, 0
4, 45200, Control_c, 0, 64, 127
4, 45611, Control_c, 0, 64, 0
4, 45692, Control_c, 0, 64, 127
4, 46080, Control_c, 0, 64, 0
4, 46963, Control_c, 0, 64, 127
4, 47290, Control_c, 0, 64, 0
4, 47894, Control_c, 0, 64, 127
4, 48250, Control_c, 0, 64, 0
4, 48865, Control_c, 0, 64, 127
4, 49214, Control_c, 0, 64, 0
4, 49477, Control_c, 0, 64, 127
4, 49692, Control_c, 0, 64, 0
4, 49820, Control_c, 0, 64, 127
4, 50266, Control_c, 0, 64, 0
4, 50781, Control_c, 0, 64, 127
4, 51130, Control_c, 0, 64, 0
4, 51710, Control_c, 0, 64, 127
4, 52090, Control_c, 0, 64, 0
4, 52708, Control_c, 0, 64, 127
4, 53054, Control_c, 0, 64, 0
4, 53196, Control_c, 0, 64, 127
4, 53532, Control_c, 0, 64, 0
4, 53760, Control_c, 0, 64, 127
4, 54106, Control_c, 0, 64, 0
4, 54607, Control_c, 0, 64, 127
4, 54970, Control_c, 0, 64, 0
4, 55581, Control_c, 0, 64, 127
4, 55930, Control_c, 0, 64, 0
4, 56640, Control_c, 0, 64, 127
4, 56894, Control_c, 0, 64, 0
4, 57157, Control_c, 0, 64, 127
4, 57372, Control_c, 0, 64, 0
4, 57600, Control_c, 0, 64, 127
4, 57946, Control_c, 0, 64, 0
4, 58479, Control_c, 0, 64, 127
4, 58810, Control_c, 0, 64, 0
4, 59414, Control_c, 0, 64, 127
4, 59770, Control_c, 0, 64, 0
4, 60374, Control_c, 0, 64, 127
4, 60734, Control_c, 0, 64, 0
4, 60897, Control_c, 0, 64, 127
4, 61212, Control_c, 0, 64, 0
4, 61440, Control_c, 0, 64, 127
4, 61786, Control_c, 0, 64, 0
4, 99890, Control_c, 0, 64, 127
4, 100108, Control_c, 0, 64, 0
4, 108399, Control_c, 0, 64, 127
4, 108730, Control_c, 0, 64, 0
4, 109338, Control_c, 0, 64, 127
4, 109690, Control_c, 0, 64, 0
4, 110400, Control_c, 0, 64, 127
4, 110654, Control_c, 0, 64, 0
4, 110917, Control_c, 0, 64, 127
4, 111132, Control_c, 0, 64, 0
4, 111360, Control_c, 0, 64, 127
4, 111706, Control_c, 0, 64, 0
4, 112243, Control_c, 0, 64, 127
4, 112570, Control_c, 0, 64, 0
4, 113174, Control_c, 0, 64, 127
4, 113530, Control_c, 0, 64, 0
4, 114152, Control_c, 0, 64, 127
4, 114494, Control_c, 0, 64, 0
4, 114628, Control_c, 0, 64, 127
4, 114972, Control_c, 0, 64, 0
4, 115200, Control_c, 0, 64, 127
4, 115546, Control_c, 0, 64, 0
4, 116076, Control_c, 0, 64, 127
4, 116410, Control_c, 0, 64, 0
4, 117014, Control_c, 0, 64, 127
4, 117370, Control_c, 0, 64, 0
4, 117992, Control_c, 0, 64, 127
4, 118334, Control_c, 0, 64, 0
4, 118597, Control_c, 0, 64, 127
4, 118812, Control_c, 0, 64, 0
4, 119040, Control_c, 0, 64, 127
4, 119386, Control_c, 0, 64, 0
4, 119905, Control_c, 0, 64, 127
4, 120250, Control_c, 0, 64, 0
4, 120861, Control_c, 0, 64, 127
4, 121210, Control_c, 0, 64, 0
4, 121843, Control_c, 0, 64, 127
4, 122174, Control_c, 0, 64, 0
4, 122301, Control_c, 0, 64, 127
4, 122652, Control_c, 0, 64, 0
4, 122880, Control_c, 0, 64, 127
4, 123226, Control_c, 0, 64, 0
4, 123925, Control_c, 0, 64, 127
4, 124090, Control_c, 0, 64, 0
4, 124419, Control_c, 0, 64, 127
4, 124800, Control_c, 0, 64, 0
4, 124875, Control_c, 0, 64, 127
4, 125050, Control_c, 0, 64, 0
4, 125349, Control_c, 0, 64, 127
4, 125760, Control_c, 0, 64, 0
4, 125852, Control_c, 0, 64, 127
4, 126240, Control_c, 0, 64, 0
4, 126297, Control_c, 0, 64, 127
4, 126720, Control_c, 0, 64, 0
4, 126770, Control_c, 0, 64, 127
4, 126970, Control_c, 0, 64, 0
4, 131605, Control_c, 0, 64, 127
4, 131770, Control_c, 0, 64, 0
4, 132099, Control_c, 0, 64, 127
4, 132480, Control_c, 0, 64, 0
4, 132555, Control_c, 0, 64, 127
4, 132730, Control_c, 0, 64, 0
4, 133029, Control_c, 0, 64, 127
4, 133440, Control_c, 0, 64, 0
4, 133532, Control_c, 0, 64, 127
4, 133920, Control_c, 0, 64, 0
4, 133977, Control_c, 0, 64, 127
4, 134400, Control_c, 0, 64, 0
4, 134450, Control_c, 0, 64, 127
4, 134650, Control_c, 0, 64, 0
4, 139836, Control_c, 0, 64, 127
4, 140165, Control_c, 0, 64, 0
4, 140287, Control_c, 0, 64, 127
4, 140640, Control_c, 0, 64, 0
4, 141756, Control_c, 0, 64, 127
4, 142085, Control_c, 0, 64, 0
4, 142207, Control_c, 0, 64, 127
4, 142560, Control_c, 0, 64, 0
4, 143676, Control_c, 0, 64, 127
4, 144005, Control_c, 0, 64, 0
4, 144127, Control_c, 0, 64, 127
4, 144480, Control_c, 0, 64, 0
4, 145596, Control_c, 0, 64, 127
4, 145925, Control_c, 0, 64, 0
4, 146047, Control_c, 0, 64, 127
4, 146400, Control_c, 0, 64, 0
4, 146965, Control_c, 0, 64, 127
4, 147130, Control_c, 0, 64, 0
4, 147459, Control_c, 0, 64, 127
4, 147840, Control_c, 0, 64, 0
4, 147915, Control_c, 0, 64, 127
4, 148090, Control_c, 0, 64, 0
4, 148389, Control_c, 0, 64, 127
4, 148800, Control_c, 0, 64, 0
4, 148892, Control_c, 0, 64, 127
4, 149280, Control_c, 0, 64, 0
4, 149337, Control_c, 0, 64, 127
4, 149760, Control_c, 0, 64, 0
4, 149810, Control_c, 0, 64, 127
4, 150010, Control_c, 0, 64, 0
4, 152720, Control_c, 0, 64, 127
4, 153131, Control_c, 0, 64, 0
4, 153212, Control_c, 0, 64, 127
4, 153600, Control_c, 0, 64, 0
4, 155196, Control_c, 0, 64, 127
4, 155525, Control_c, 0, 64, 0
4, 155647, Control_c, 0, 64, 127
4, 156000, Control_c, 0, 64, 0
4, 157116, Control_c, 0, 64, 127
4, 157445, Control_c, 0, 64, 0
4, 157567, Control_c, 0, 64, 127
4, 157920, Control_c, 0, 64, 0
4, 159036, Control_c, 0, 64, 127
4, 159365, Control_c, 0, 64, 0
4, 159487, Control_c, 0, 64, 127
4, 159840, Control_c, 0, 64, 0
4, 160956, Control_c, 0, 64, 127
4, 161285, Control_c, 0, 64, 0
4, 161407, Control_c, 0, 64, 127
4, 161760, Control_c, 0, 64, 0
4, 162325, Control_c, 0, 64, 127
4, 162490, Control_c, 0, 64, 0
4, 162819, Control_c, 0, 64, 127
4, 163200, Control_c, 0, 64, 0
4, 163275, Control_c, 0, 64, 127
4, 163450, Control_c, 0, 64, 0
4, 163749, Control_c, 0, 64, 127
4, 164160, Control_c, 0, 64, 0
4, 164252, Control_c, 0, 64, 127
4, 164640, Control_c, 0, 64, 0
4, 164697, Control_c, 0, 64, 127
4, 165120, Control_c, 0, 64, 0
4, 165170, Control_c, 0, 64, 127
4, 165370, Control_c, 0, 64, 0
4, 168080, Control_c, 0, 64, 127
4, 168491, Control_c, 0, 64, 0
4, 168572, Control_c, 0, 64, 127
4, 168960, Control_c, 0, 64, 0
4, 169483, Control_c, 0, 64, 127
4, 169928, Control_c, 0, 64, 0
4, 169966, Control_c, 0, 64, 127
4, 170880, Control_c, 0, 64, 0
4, 170937, Control_c, 0, 64, 127
4, 171840, Control_c, 0, 64, 0
4, 171880, Control_c, 0, 64, 127
4, 172324, Control_c, 0, 64, 0
4, 172357, Control_c, 0, 64, 127
4, 172805, Control_c, 0, 64, 0
4, 172860, Control_c, 0, 64, 127
4, 173301, Control_c, 0, 64, 0
4, 173347, Control_c, 0, 64, 127
4, 173766, Control_c, 0, 64, 0
4, 173845, Control_c, 0, 64, 127
4, 174727, Control_c, 0, 64, 0
4, 174770, Control_c, 0, 64, 127
4, 175689, Control_c, 0, 64, 0
4, 175754, Control_c, 0, 64, 127
4, 176168, Control_c, 0, 64, 0
4, 176197, Control_c, 0, 64, 127
4, 176650, Control_c, 0, 64, 0
4, 176748, Control_c, 0, 64, 127
4, 176986, Control_c, 0, 64, 0
4, 177163, Control_c, 0, 64, 127
4, 177608, Control_c, 0, 64, 0
4, 177646, Control_c, 0, 64, 127
4, 178560, Control_c, 0, 64, 0
4, 178617, Control_c, 0, 64, 127
4, 179520, Control_c, 0, 64, 0
4, 179560, Control_c, 0, 64, 127
4, 180004, Control_c, 0, 64, 0
4, 180037, Control_c, 0, 64, 127
4, 180485, Control_c, 0, 64, 0
4, 180540, Control_c, 0, 64, 127
4, 180981, Control_c, 0, 64, 0
4, 181027, Control_c, 0, 64, 127
4, 181446, Control_c, 0, 64, 0
4, 181525, Control_c, 0, 64, 127
4, 182407, Control_c, 0, 64, 0
4, 182450, Control_c, 0, 64, 127
4, 183369, Control_c, 0, 64, 0
4, 183434, Control_c, 0, 64, 127
4, 183848, Control_c, 0, 64, 0
4, 183877, Control_c, 0, 64, 127
4, 184330, Control_c, 0, 64, 0
4, 184428, Control_c, 0, 64, 127
4, 185184, Control_c, 0, 64, 0
4, 185227, Control_c, 0, 64, 127
4, 186145, Control_c, 0, 64, 0
4, 186177, Control_c, 0, 64, 127
4, 187084, Control_c, 0, 64, 0
4, 187130, Control_c, 0, 64, 127
4, 188100, Control_c, 0, 64, 0
4, 188128, Control_c, 0, 64, 127
4, 189025, Control_c, 0, 64, 0
4, 189067, Control_c, 0, 64, 127
4, 189198, Control_c, 0, 64, 0
4, 189995, Control_c, 0, 64, 127
4, 190944, Control_c, 0, 64, 0
4, 190991, Control_c, 0, 64, 127
4, 191905, Control_c, 0, 64, 0
4, 191951, Control_c, 0, 64, 127
4, 192844, Control_c, 0, 64, 0
4, 192883, Control_c, 0, 64, 127
4, 193807, Control_c, 0, 64, 0
4, 193885, Control_c, 0, 64, 127
4, 194785, Control_c, 0, 64, 0
4, 194908, Control_c, 0, 64, 127
4, 195720, Control_c, 0, 64, 0
4, 195798, Control_c, 0, 64, 127
4, 196800, Control_c, 0, 64, 0
4, 196874, Control_c, 0, 64, 127
4, 197760, Control_c, 0, 64, 0
4, 197810, Control_c, 0, 64, 127
4, 198720, Control_c, 0, 64, 0
4, 198766, Control_c, 0, 64, 127
4, 199680, Control_c, 0, 64, 0
4, 199733, Control_c, 0, 64, 127
4, 200650, Control_c, 0, 64, 0
4, 200774, Control_c, 0, 64, 127
4, 201643, Control_c, 0, 64, 0
4, 201703, Control_c, 0, 64, 127
4, 202560, Control_c, 0, 64, 0
4, 202610, Control_c, 0, 64, 127
4, 203522, Control_c, 0, 64, 0
4, 203577, Control_c, 0, 64, 127
4, 204385, Control_c, 0, 64, 0
4, 204434, Control_c, 0, 64, 127
4, 205324, Control_c, 0, 64, 0
4, 205373, Control_c, 0, 64, 127
4, 206340, Control_c, 0, 64, 0
4, 206428, Control_c, 0, 64, 127
4, 207265, Control_c, 0, 64, 0
4, 207406, Control_c, 0, 64, 127
4, 208200, Control_c, 0, 64, 0
4, 208260, Control_c, 0, 64, 127
4, 209178, Control_c, 0, 64, 0
4, 209214, Control_c, 0, 64, 127
4, 213128, Control_c, 0, 64, 0
4, 213414, Control_c, 0, 64, 127
4, 215040, Control_c, 0, 64, 0
4, 215040, End_track
5, 0, Start_track
5, 0, Title_t, "Mozart: Sonate KV 331"
5, 0, End_track
6, 0, Start_track
6, 0, Title_t, "Copyright © 2005 by Bernd Krüger"
6, 0, End_track
7, 0, Start_track
7, 0, Title_t, "http://www.piano-midi.de"
7, 0, End_track
8, 0, Start_track
8, 0, Title_t, "Edition: 2013-07-15"
8, 0, End_track
9, 0, Start_track
9, 0, Title_t, "Spur 8"
9, 0, End_track
10, 0, Start_track
10, 0, Title_t, "Spur 9"
10, 0, End_track
0, 0, End_of_file
