0, 0, Header, 1, 10, 480
1, 0, Start_track
1, 0, Title_t, "Klaviersonate Nr. 12 KV 332 2. Satz"
1, 0, Copyright_t, "Copyright © 2006 von Bernd Krüger. "
1, 0, Text_t, "Wolfgang Amadeus Mozart"
1, 0, Text_t, "Adagio"
1, 0, Text_t, "Herausgegeben am  1.5.2006\012"
1, 0, Text_t, "Update am 26.7.2013\012"
1, 0, Text_t, "Dauer: 4:24 Minuten\012"
1, 0, Text_t, "Noten doppelt so lange notiert; der hierzu notwendige Takt von 8/4 wurde wegen Darstellungsproblemen in der Notenansicht auf 4/4 verkürzt.\012"
1, 0, Time_signature, 4, 2, 24, 8
1, 0, Key_signature, -2, "major"
1, 0, Tempo, 803643
1, 1200, Tempo, 765795
1, 1440, Tempo, 793861
1, 1760, Tempo, 899146
1, 1920, Tempo, 803643
1, 2640, Tempo, 868181
1, 2880, Tempo, 803643
1, 3680, Tempo, 872981
1, 3840, Tempo, 813780
1, 4160, Tempo, 765795
1, 4320, Tempo, 813780
1, 5040, Tempo, 756811
1, 5280, Tempo, 813780
1, 5600, Tempo, 856776
1, 5760, Tempo, 813780
1, 6000, Tempo, 792288
1, 6480, Tempo, 848296
1, 6720, Tempo, 813780
1, 7440, Tempo, 856776
1, 7680, Tempo, 813780
1, 7920, Tempo, 802890
1, 8400, Tempo, 813780
1, 8640, Tempo, 834725
1, 8880, Tempo, 813780
1, 9360, Tempo, 860462
1, 9600, Tempo, 824969
1, 9840, Tempo, 824969
1, 10320, Tempo, 774893
1, 10560, Tempo, 834725
1, 10800, Tempo, 793861
1, 11040, Tempo, 824063
1, 11280, Tempo, 892061
1, 11520, Tempo, 802890
1, 11760, Tempo, 813780
1, 12000, Tempo, 824063
1, 12240, Tempo, 868181
1, 12480, Tempo, 824063
1, 13200, Tempo, 868181
1, 13440, Tempo, 824063
1, 14400, Tempo, 868181
1, 14640, Tempo, 824063
1, 15600, Tempo, 784211
1, 15840, Tempo, 813780
1, 16560, Tempo, 774893
1, 16800, Tempo, 813780
1, 17040, Tempo, 892061
1, 17280, Tempo, 824063
1, 17520, Tempo, 802890
1, 18000, Tempo, 856776
1, 18240, Tempo, 824063
1, 18480, Tempo, 792288
1, 18960, Tempo, 880023
1, 19200, Tempo, 824063
1, 19440, Tempo, 774893
1, 19680, Tempo, 824063
1, 20400, Tempo, 774893
1, 20640, Tempo, 813780
1, 20880, Tempo, 856776
1, 21120, Tempo, 813780
1, 21760, Tempo, 868181
1, 22080, Tempo, 813780
1, 22920, Tempo, 899146
1, 23040, Tempo, 813780
1, 23115, Tempo, 813780
1, 24240, Tempo, 802890
1, 24840, Tempo, 912825
1, 24960, Tempo, 813780
1, 25680, Tempo, 792288
1, 26640, Tempo, 836470
1, 26880, Tempo, 824063
1, 27120, Tempo, 784211
1, 27360, Tempo, 813780
1, 28080, Tempo, 774893
1, 28320, Tempo, 813780
1, 28560, Tempo, 892061
1, 28800, Tempo, 824063
1, 29040, Tempo, 802890
1, 29520, Tempo, 856776
1, 29760, Tempo, 824063
1, 30000, Tempo, 792288
1, 30480, Tempo, 880023
1, 30720, Tempo, 824063
1, 30960, Tempo, 802890
1, 31440, Tempo, 856776
1, 31680, Tempo, 824063
1, 31920, Tempo, 792288
1, 32400, Tempo, 880023
1, 32640, Tempo, 824063
1, 32880, Tempo, 802890
1, 33360, Tempo, 856776
1, 33600, Tempo, 824063
1, 33840, Tempo, 792288
1, 34320, Tempo, 880023
1, 34560, Tempo, 824063
1, 34800, Tempo, 802890
1, 35280, Tempo, 856776
1, 35520, Tempo, 824063
1, 35760, Tempo, 792288
1, 36240, Tempo, 880023
1, 36480, Tempo, 824063
1, 36720, Tempo, 802890
1, 37200, Tempo, 856776
1, 37440, Tempo, 824063
1, 37680, Tempo, 792288
1, 38160, Tempo, 824969
1, 38400, Tempo, 836470
1, 38640, Tempo, 802890
1, 39120, Tempo, 836470
1, 39360, Tempo, 836470
1, 39600, Tempo, 813780
1, 42240, Tempo, 779221
1, 42480, Tempo, 810811
1, 42720, Tempo, 789474
1, 42960, Tempo, 821918
1, 43200, Tempo, 810811
1, 43920, Tempo, 845070
1, 44160, Tempo, 824063
1, 44400, Tempo, 802890
1, 44880, Tempo, 856776
1, 45120, Tempo, 824063
1, 45360, Tempo, 792288
1, 45840, Tempo, 880023
1, 46080, Tempo, 824063
1, 46320, Tempo, 802890
1, 46800, Tempo, 856776
1, 47040, Tempo, 824063
1, 47280, Tempo, 792288
1, 47760, Tempo, 880023
1, 48000, Tempo, 824063
1, 48240, Tempo, 802890
1, 48720, Tempo, 856776
1, 48960, Tempo, 824063
1, 49200, Tempo, 792288
1, 49680, Tempo, 880023
1, 49920, Tempo, 824063
1, 50160, Tempo, 802890
1, 50640, Tempo, 856776
1, 50880, Tempo, 824063
1, 51120, Tempo, 792288
1, 51600, Tempo, 880023
1, 51840, Tempo, 824063
1, 52080, Tempo, 802890
1, 52560, Tempo, 856776
1, 52800, Tempo, 824063
1, 53040, Tempo, 792288
1, 53520, Tempo, 824969
1, 53760, Tempo, 836470
1, 54000, Tempo, 802890
1, 54480, Tempo, 836470
1, 54720, Tempo, 836470
1, 54960, Tempo, 813780
1, 55500, Tempo, 941472
1, 55680, Tempo, 813780
1, 57600, Tempo, 802890
1, 58080, Tempo, 813780
1, 58440, Tempo, 912825
1, 58560, Tempo, 813780
1, 59520, Tempo, 824969
1, 60240, Tempo, 792288
1, 60480, Tempo, 836470
1, 61200, Tempo, 781963
1, 61440, Tempo, 824969
1, 61500, Tempo, 781963
1, 61680, Tempo, 836470
1, 62160, Tempo, 792288
1, 62400, Tempo, 824969
1, 63360, Tempo, 848296
1, 63600, Tempo, 813780
1, 64080, Tempo, 800000
1, 64320, Tempo, 813780
1, 65160, Tempo, 857143
1, 65280, Tempo, 810811
1, 67155, Tempo, 860462
1, 67159, Tempo, 849137
1, 67249, Tempo, 837287
1, 67339, Tempo, 825764
1, 67399, Tempo, 814553
1, 67489, Tempo, 803643
1, 67579, Tempo, 793021
1, 67639, Tempo, 782677
1, 67698, Tempo, 759494
1, 67848, Tempo, 750000
1, 67998, Tempo, 740741
1, 68400, Tempo, 689655
1, 68430, Tempo, 705882
1, 68610, Tempo, 697674
1, 68655, Tempo, 697674
1, 68715, Tempo, 705882
1, 68745, Tempo, 714286
1, 68775, Tempo, 740741
1, 68805, Tempo, 759494
1, 68835, Tempo, 802890
1, 68895, Tempo, 813780
1, 68940, Tempo, 885870
1, 69105, Tempo, 802890
1, 69120, Tempo, 813780
1, 69780, Tempo, 824969
1, 69809, Tempo, 813780
1, 69839, Tempo, 802890
1, 69869, Tempo, 792288
1, 69899, Tempo, 781963
1, 69929, Tempo, 771903
1, 69959, Tempo, 762098
1, 69989, Tempo, 752540
1, 70080, Tempo, 813780
1, 71040, Tempo, 813780
1, 71700, Tempo, 824969
1, 71729, Tempo, 813780
1, 71759, Tempo, 802890
1, 71789, Tempo, 792288
1, 71819, Tempo, 781963
1, 71849, Tempo, 771903
1, 71879, Tempo, 762098
1, 71909, Tempo, 752540
1, 72000, Tempo, 813780
1, 72929, Tempo, 802890
1, 73139, Tempo, 813780
1, 73349, Tempo, 824969
1, 73440, Tempo, 860462
1, 73845, Tempo, 899146
1, 73905, Tempo, 848296
1, 74025, Tempo, 860462
1, 74115, Tempo, 872981
1, 74205, Tempo, 885870
1, 74295, Tempo, 899146
1, 74505, Tempo, 941472
1, 74535, Tempo, 971975
1, 74565, Tempo, 987980
1, 74595, Tempo, 1004520
1, 74625, Tempo, 1039321
1, 74655, Tempo, 1057641
1, 74685, Tempo, 1076619
1, 74715, Tempo, 1116695
1, 74745, Tempo, 1116695
1, 74805, Tempo, 1137872
1, 74880, Tempo, 987980
1, 75840, Tempo, 872981
1, 76320, Tempo, 848296
1, 76620, Tempo, 971975
1, 76800, Tempo, 803643
1, 78000, Tempo, 765795
1, 78240, Tempo, 793861
1, 78560, Tempo, 899146
1, 78720, Tempo, 803643
1, 79440, Tempo, 868181
1, 79680, Tempo, 803643
1, 80480, Tempo, 872981
1, 80640, Tempo, 813780
1, 80960, Tempo, 765795
1, 81120, Tempo, 813780
1, 81840, Tempo, 756811
1, 82080, Tempo, 813780
1, 82400, Tempo, 856776
1, 82560, Tempo, 813780
1, 82800, Tempo, 792288
1, 83280, Tempo, 848296
1, 83520, Tempo, 813780
1, 84240, Tempo, 856776
1, 84480, Tempo, 813780
1, 84720, Tempo, 802890
1, 85200, Tempo, 813780
1, 85440, Tempo, 834725
1, 85680, Tempo, 813780
1, 86160, Tempo, 860462
1, 86400, Tempo, 824969
1, 86640, Tempo, 824969
1, 87120, Tempo, 774893
1, 87360, Tempo, 834725
1, 87600, Tempo, 793861
1, 87840, Tempo, 824063
1, 88080, Tempo, 833333
1, 88320, Tempo, 802890
1, 88560, Tempo, 813780
1, 88800, Tempo, 824063
1, 89040, Tempo, 810811
1, 89280, Tempo, 824063
1, 90000, Tempo, 868181
1, 90240, Tempo, 824063
1, 91200, Tempo, 868181
1, 91440, Tempo, 837287
1, 91680, Tempo, 849137
1, 92040, Tempo, 942507
1, 92160, Tempo, 825764
1, 92400, Tempo, 784211
1, 92640, Tempo, 813780
1, 93360, Tempo, 774893
1, 93600, Tempo, 813780
1, 93840, Tempo, 892061
1, 94080, Tempo, 824063
1, 94320, Tempo, 802890
1, 94800, Tempo, 856776
1, 95040, Tempo, 824063
1, 95280, Tempo, 792288
1, 95760, Tempo, 880023
1, 96000, Tempo, 824063
1, 96240, Tempo, 774893
1, 96480, Tempo, 824063
1, 96495, Tempo, 833333
1, 96585, Tempo, 821918
1, 96675, Tempo, 810811
1, 96765, Tempo, 800000
1, 96855, Tempo, 789474
1, 96945, Tempo, 779221
1, 97035, Tempo, 769231
1, 97125, Tempo, 759494
1, 97200, Tempo, 774893
1, 97440, Tempo, 813780
1, 97680, Tempo, 856776
1, 97920, Tempo, 813780
1, 98560, Tempo, 868181
1, 98880, Tempo, 813780
1, 99720, Tempo, 899146
1, 99840, Tempo, 813780
1, 99915, Tempo, 813780
1, 101040, Tempo, 802890
1, 101640, Tempo, 912825
1, 101760, Tempo, 813780
1, 102480, Tempo, 792288
1, 103440, Tempo, 836470
1, 103680, Tempo, 824063
1, 103920, Tempo, 784211
1, 104160, Tempo, 813780
1, 104880, Tempo, 886787
1, 105120, Tempo, 849137
1, 105360, Tempo, 989120
1, 105600, Tempo, 824063
1, 105840, Tempo, 802890
1, 106320, Tempo, 856776
1, 106560, Tempo, 824063
1, 106800, Tempo, 792288
1, 107280, Tempo, 880023
1, 107520, Tempo, 824063
1, 107760, Tempo, 802890
1, 108240, Tempo, 856776
1, 108480, Tempo, 824063
1, 108720, Tempo, 792288
1, 109200, Tempo, 913798
1, 109440, Tempo, 824063
1, 109680, Tempo, 802890
1, 110160, Tempo, 856776
1, 110400, Tempo, 824063
1, 110640, Tempo, 792288
1, 111120, Tempo, 880023
1, 111360, Tempo, 824063
1, 111600, Tempo, 802890
1, 112080, Tempo, 856776
1, 112320, Tempo, 824063
1, 112560, Tempo, 792288
1, 113040, Tempo, 880023
1, 113280, Tempo, 824063
1, 113520, Tempo, 802890
1, 114000, Tempo, 856776
1, 114240, Tempo, 824063
1, 114480, Tempo, 792288
1, 114960, Tempo, 824969
1, 115200, Tempo, 836470
1, 115440, Tempo, 802890
1, 115920, Tempo, 836470
1, 116160, Tempo, 836470
1, 116400, Tempo, 813780
1, 116880, Tempo, 895522
1, 117120, Tempo, 810811
1, 119760, Tempo, 810811
1, 119880, Tempo, 895522
1, 120000, Tempo, 857143
1, 120480, Tempo, 810811
1, 120960, Tempo, 824063
1, 121200, Tempo, 802890
1, 121680, Tempo, 856776
1, 121920, Tempo, 824063
1, 122160, Tempo, 792288
1, 122640, Tempo, 880023
1, 122880, Tempo, 824063
1, 123120, Tempo, 802890
1, 123600, Tempo, 856776
1, 123840, Tempo, 824063
1, 124080, Tempo, 792288
1, 124560, Tempo, 880023
1, 124800, Tempo, 824063
1, 125040, Tempo, 802890
1, 125520, Tempo, 856776
1, 125760, Tempo, 824063
1, 126000, Tempo, 792288
1, 126480, Tempo, 880023
1, 126720, Tempo, 824063
1, 126960, Tempo, 802890
1, 127440, Tempo, 769231
1, 127680, Tempo, 779221
1, 127920, Tempo, 792288
1, 128400, Tempo, 880023
1, 128520, Tempo, 900090
1, 128640, Tempo, 824063
1, 128880, Tempo, 802890
1, 129360, Tempo, 856776
1, 129600, Tempo, 824063
1, 129840, Tempo, 792288
1, 130320, Tempo, 824969
1, 130560, Tempo, 836470
1, 130800, Tempo, 802890
1, 131280, Tempo, 836470
1, 131520, Tempo, 836470
1, 131760, Tempo, 813780
1, 132240, Tempo, 873871
1, 132360, Tempo, 989120
1, 132480, Tempo, 813780
1, 134280, Tempo, 886787
1, 134400, Tempo, 803643
1, 134880, Tempo, 813780
1, 135240, Tempo, 912825
1, 135360, Tempo, 813780
1, 135840, Tempo, 837287
1, 136320, Tempo, 814553
1, 137040, Tempo, 792288
1, 137280, Tempo, 836470
1, 138000, Tempo, 781963
1, 138240, Tempo, 824969
1, 138300, Tempo, 781963
1, 138480, Tempo, 836470
1, 138960, Tempo, 792288
1, 139200, Tempo, 824969
1, 140160, Tempo, 848296
1, 140400, Tempo, 813780
1, 140940, Tempo, 872981
1, 141120, Tempo, 813780
1, 142080, Tempo, 813780
1, 143880, Tempo, 882353
1, 143940, Tempo, 1621622
1, 143959, Tempo, 873871
1, 144019, Tempo, 861326
1, 144049, Tempo, 849137
1, 144079, Tempo, 837287
1, 144139, Tempo, 825764
1, 144169, Tempo, 814553
1, 144199, Tempo, 803643
1, 144229, Tempo, 793021
1, 144289, Tempo, 782677
1, 144319, Tempo, 772599
1, 144349, Tempo, 762777
1, 144409, Tempo, 762777
1, 144458, Tempo, 750000
1, 144728, Tempo, 740741
1, 144955, Tempo, 759494
1, 145195, Tempo, 750000
1, 145200, Tempo, 705882
1, 145221, Tempo, 697674
1, 145225, Tempo, 714286
1, 145369, Tempo, 725865
1, 145420, Tempo, 681818
1, 145450, Tempo, 697674
1, 145480, Tempo, 722892
1, 145510, Tempo, 750000
1, 145519, Tempo, 753201
1, 145609, Tempo, 762777
1, 145669, Tempo, 772599
1, 145695, Tempo, 813780
1, 145740, Tempo, 885870
1, 145905, Tempo, 802890
1, 145920, Tempo, 813780
1, 146580, Tempo, 824969
1, 146609, Tempo, 813780
1, 146639, Tempo, 802890
1, 146669, Tempo, 792288
1, 146699, Tempo, 781963
1, 146729, Tempo, 771903
1, 146759, Tempo, 762098
1, 146789, Tempo, 752540
1, 146880, Tempo, 813780
1, 147840, Tempo, 813780
1, 148500, Tempo, 824969
1, 148529, Tempo, 813780
1, 148559, Tempo, 802890
1, 148589, Tempo, 792288
1, 148619, Tempo, 781963
1, 148649, Tempo, 771903
1, 148679, Tempo, 762098
1, 148709, Tempo, 752540
1, 148800, Tempo, 813780
1, 149729, Tempo, 802890
1, 149939, Tempo, 813780
1, 150149, Tempo, 824969
1, 150329, Tempo, 836470
1, 150539, Tempo, 848296
1, 150719, Tempo, 836470
1, 150809, Tempo, 848296
1, 150899, Tempo, 860462
1, 150989, Tempo, 872981
1, 151049, Tempo, 885870
1, 151139, Tempo, 899146
1, 151229, Tempo, 912825
1, 151289, Tempo, 926927
1, 151379, Tempo, 941472
1, 151380, Tempo, 1000000
1, 151560, Tempo, 1363636
1, 151680, Tempo, 1034483
1, 152640, Tempo, 1841621
1, 152640, End_track
2, 0, Start_track
2, 0, Title_t, "Piano right"
2, 0, Program_c, 0, 0
2, 0, Control_c, 0, 7, 100
2, 0, Control_c, 0, 10, 64
2, 0, Note_on_c, 0, 70, 50
2, 0, Control_c, 0, 91, 127
2, 0, Text_t, "bdca426d104a26ac9dcb070447587523"
2, 960, Note_on_c, 0, 70, 0
2, 960, Note_on_c, 0, 74, 50
2, 1200, Note_on_c, 0, 74, 0
2, 1200, Note_on_c, 0, 75, 46
2, 1280, Note_on_c, 0, 75, 0
2, 1280, Note_on_c, 0, 74, 41
2, 1360, Note_on_c, 0, 74, 0
2, 1360, Note_on_c, 0, 72, 42
2, 1440, Note_on_c, 0, 72, 0
2, 1440, Note_on_c, 0, 74, 50
2, 1680, Note_on_c, 0, 74, 0
2, 1680, Note_on_c, 0, 75, 50
2, 1920, Note_on_c, 0, 75, 0
2, 1920, Note_on_c, 0, 76, 55
2, 2640, Note_on_c, 0, 76, 0
2, 2640, Note_on_c, 0, 77, 49
2, 2880, Note_on_c, 0, 77, 0
2, 2880, Note_on_c, 0, 72, 42
2, 3120, Note_on_c, 0, 72, 0
2, 3840, Note_on_c, 0, 75, 50
2, 4080, Note_on_c, 0, 75, 0
2, 4080, Note_on_c, 0, 77, 46
2, 4160, Note_on_c, 0, 77, 0
2, 4160, Note_on_c, 0, 75, 42
2, 4240, Note_on_c, 0, 75, 0
2, 4240, Note_on_c, 0, 74, 44
2, 4320, Note_on_c, 0, 74, 0
2, 4320, Note_on_c, 0, 75, 50
2, 4560, Note_on_c, 0, 75, 0
2, 4560, Note_on_c, 0, 77, 50
2, 4800, Note_on_c, 0, 77, 0
2, 4800, Note_on_c, 0, 79, 52
2, 5040, Note_on_c, 0, 79, 0
2, 5040, Note_on_c, 0, 81, 49
2, 5120, Note_on_c, 0, 81, 0
2, 5120, Note_on_c, 0, 79, 49
2, 5200, Note_on_c, 0, 79, 0
2, 5200, Note_on_c, 0, 77, 49
2, 5280, Note_on_c, 0, 77, 0
2, 5280, Note_on_c, 0, 79, 57
2, 5520, Note_on_c, 0, 79, 0
2, 5520, Note_on_c, 0, 81, 59
2, 5754, Note_on_c, 0, 81, 0
2, 5760, Note_on_c, 0, 81, 68
2, 6480, Note_on_c, 0, 81, 0
2, 6480, Note_on_c, 0, 82, 54
2, 6720, Note_on_c, 0, 82, 0
2, 6720, Note_on_c, 0, 77, 54
2, 6960, Note_on_c, 0, 77, 0
2, 7680, Note_on_c, 0, 79, 59
2, 8400, Note_on_c, 0, 79, 0
2, 8400, Note_on_c, 0, 80, 50
2, 8520, Note_on_c, 0, 80, 0
2, 8520, Note_on_c, 0, 79, 50
2, 8640, Note_on_c, 0, 79, 0
2, 8640, Note_on_c, 0, 77, 55
2, 8880, Note_on_c, 0, 77, 0
2, 8880, Note_on_c, 0, 75, 52
2, 9120, Note_on_c, 0, 75, 0
2, 9120, Note_on_c, 0, 74, 48
2, 9360, Note_on_c, 0, 74, 0
2, 9360, Note_on_c, 0, 72, 48
2, 9600, Note_on_c, 0, 72, 0
2, 9600, Note_on_c, 0, 76, 58
2, 9840, Note_on_c, 0, 76, 0
2, 9840, Note_on_c, 0, 77, 51
2, 10320, Note_on_c, 0, 77, 0
2, 10320, Note_on_c, 0, 79, 55
2, 10440, Note_on_c, 0, 79, 0
2, 10440, Note_on_c, 0, 77, 52
2, 10560, Note_on_c, 0, 77, 0
2, 10560, Note_on_c, 0, 75, 54
2, 10800, Note_on_c, 0, 75, 0
2, 10800, Note_on_c, 0, 74, 55
2, 10992, Note_on_c, 0, 74, 0
2, 11040, Note_on_c, 0, 72, 56
2, 11232, Note_on_c, 0, 72, 0
2, 11280, Note_on_c, 0, 70, 59
2, 11472, Note_on_c, 0, 70, 0
2, 11520, Note_on_c, 0, 77, 66
2, 11760, Note_on_c, 0, 77, 0
2, 11760, Note_on_c, 0, 75, 54
2, 12240, Note_on_c, 0, 75, 0
2, 12240, Note_on_c, 0, 72, 51
2, 12480, Note_on_c, 0, 72, 0
2, 12480, Note_on_c, 0, 75, 65
2, 12720, Note_on_c, 0, 75, 0
2, 12720, Note_on_c, 0, 74, 54
2, 13200, Note_on_c, 0, 74, 0
2, 13200, Note_on_c, 0, 70, 54
2, 13440, Note_on_c, 0, 70, 0
2, 13440, Note_on_c, 0, 74, 59
2, 14160, Note_on_c, 0, 74, 0
2, 14160, Note_on_c, 0, 75, 43
2, 14280, Note_on_c, 0, 75, 0
2, 14280, Note_on_c, 0, 74, 43
2, 14400, Note_on_c, 0, 74, 0
2, 14400, Note_on_c, 0, 72, 50
2, 14640, Note_on_c, 0, 72, 0
2, 14640, Note_on_c, 0, 77, 53
2, 14880, Note_on_c, 0, 77, 0
2, 14880, Note_on_c, 0, 75, 49
2, 15120, Note_on_c, 0, 75, 0
2, 15120, Note_on_c, 0, 72, 47
2, 15360, Note_on_c, 0, 72, 0
2, 15360, Note_on_c, 0, 70, 50
2, 15600, Note_on_c, 0, 70, 0
2, 15600, Note_on_c, 0, 72, 43
2, 15680, Note_on_c, 0, 72, 0
2, 15680, Note_on_c, 0, 70, 38
2, 15760, Note_on_c, 0, 70, 0
2, 15760, Note_on_c, 0, 69, 38
2, 15840, Note_on_c, 0, 69, 0
2, 15840, Note_on_c, 0, 70, 45
2, 16080, Note_on_c, 0, 70, 0
2, 16080, Note_on_c, 0, 72, 50
2, 16320, Note_on_c, 0, 72, 0
2, 16320, Note_on_c, 0, 73, 50
2, 16560, Note_on_c, 0, 73, 0
2, 16560, Note_on_c, 0, 75, 44
2, 16640, Note_on_c, 0, 75, 0
2, 16640, Note_on_c, 0, 73, 40
2, 16720, Note_on_c, 0, 73, 0
2, 16720, Note_on_c, 0, 72, 41
2, 16800, Note_on_c, 0, 72, 0
2, 16800, Note_on_c, 0, 73, 50
2, 17040, Note_on_c, 0, 73, 0
2, 17040, Note_on_c, 0, 75, 50
2, 17280, Note_on_c, 0, 75, 0
2, 17280, Note_on_c, 0, 76, 55
2, 18000, Note_on_c, 0, 76, 0
2, 18000, Note_on_c, 0, 77, 49
2, 18240, Note_on_c, 0, 77, 0
2, 18240, Note_on_c, 0, 72, 49
2, 18480, Note_on_c, 0, 72, 0
2, 19200, Note_on_c, 0, 75, 55
2, 19440, Note_on_c, 0, 75, 0
2, 19440, Note_on_c, 0, 77, 49
2, 19520, Note_on_c, 0, 77, 0
2, 19520, Note_on_c, 0, 75, 44
2, 19600, Note_on_c, 0, 75, 0
2, 19600, Note_on_c, 0, 74, 44
2, 19680, Note_on_c, 0, 74, 0
2, 19680, Note_on_c, 0, 75, 59
2, 19920, Note_on_c, 0, 75, 0
2, 19920, Note_on_c, 0, 77, 53
2, 20160, Note_on_c, 0, 77, 0
2, 20160, Note_on_c, 0, 78, 56
2, 20400, Note_on_c, 0, 78, 0
2, 20400, Note_on_c, 0, 80, 55
2, 20480, Note_on_c, 0, 80, 0
2, 20480, Note_on_c, 0, 78, 56
2, 20560, Note_on_c, 0, 78, 0
2, 20560, Note_on_c, 0, 77, 56
2, 20640, Note_on_c, 0, 77, 0
2, 20640, Note_on_c, 0, 78, 63
2, 20880, Note_on_c, 0, 78, 0
2, 20880, Note_on_c, 0, 80, 61
2, 21120, Note_on_c, 0, 80, 0
2, 21120, Note_on_c, 0, 81, 68
2, 21840, Note_on_c, 0, 81, 0
2, 21840, Note_on_c, 0, 82, 64
2, 22080, Note_on_c, 0, 82, 0
2, 22080, Note_on_c, 0, 77, 59
2, 22320, Note_on_c, 0, 77, 0
2, 22920, Note_on_c, 0, 76, 69
2, 23040, Note_on_c, 0, 76, 0
2, 23040, Note_on_c, 0, 85, 94
2, 24240, Note_on_c, 0, 85, 0
2, 24240, Note_on_c, 0, 84, 60
2, 24360, Note_on_c, 0, 84, 0
2, 24360, Note_on_c, 0, 82, 55
2, 24480, Note_on_c, 0, 82, 0
2, 24480, Note_on_c, 0, 80, 57
2, 24600, Note_on_c, 0, 80, 0
2, 24600, Note_on_c, 0, 79, 51
2, 24720, Note_on_c, 0, 79, 0
2, 24720, Note_on_c, 0, 77, 54
2, 24840, Note_on_c, 0, 77, 0
2, 24840, Note_on_c, 0, 76, 50
2, 24960, Note_on_c, 0, 76, 0
2, 24960, Note_on_c, 0, 79, 57
2, 25440, Note_on_c, 0, 79, 0
2, 25440, Note_on_c, 0, 77, 62
2, 26160, Note_on_c, 0, 77, 0
2, 26160, Note_on_c, 0, 75, 55
2, 26640, Note_on_c, 0, 75, 0
2, 26640, Note_on_c, 0, 73, 56
2, 26880, Note_on_c, 0, 73, 0
2, 26880, Note_on_c, 0, 72, 50
2, 27120, Note_on_c, 0, 72, 0
2, 27120, Note_on_c, 0, 73, 43
2, 27200, Note_on_c, 0, 73, 0
2, 27200, Note_on_c, 0, 72, 44
2, 27280, Note_on_c, 0, 72, 0
2, 27280, Note_on_c, 0, 70, 44
2, 27360, Note_on_c, 0, 70, 0
2, 27360, Note_on_c, 0, 72, 45
2, 27600, Note_on_c, 0, 72, 0
2, 27600, Note_on_c, 0, 73, 50
2, 27840, Note_on_c, 0, 73, 0
2, 27840, Note_on_c, 0, 65, 50
2, 28320, Note_on_c, 0, 65, 0
2, 28320, Note_on_c, 0, 68, 50
2, 28320, Note_on_c, 0, 64, 38
2, 28560, Note_on_c, 0, 68, 0
2, 28560, Note_on_c, 0, 67, 46
2, 28800, Note_on_c, 0, 67, 0
2, 28800, Note_on_c, 0, 64, 0
2, 28800, Note_on_c, 0, 65, 53
2, 29760, Note_on_c, 0, 65, 0
2, 30720, Note_on_c, 0, 70, 45
2, 31200, Note_on_c, 0, 70, 0
2, 31680, Note_on_c, 0, 67, 45
2, 31920, Note_on_c, 0, 67, 0
2, 32160, Note_on_c, 0, 64, 42
2, 32400, Note_on_c, 0, 64, 0
2, 32640, Note_on_c, 0, 72, 53
2, 33000, Note_on_c, 0, 72, 0
2, 33000, Note_on_c, 0, 69, 49
2, 33120, Note_on_c, 0, 69, 0
2, 33120, Note_on_c, 0, 72, 53
2, 33360, Note_on_c, 0, 72, 0
2, 34560, Note_on_c, 0, 70, 45
2, 35040, Note_on_c, 0, 70, 0
2, 35520, Note_on_c, 0, 67, 45
2, 35760, Note_on_c, 0, 67, 0
2, 36000, Note_on_c, 0, 64, 42
2, 36240, Note_on_c, 0, 64, 0
2, 36480, Note_on_c, 0, 72, 53
2, 36840, Note_on_c, 0, 72, 0
2, 36840, Note_on_c, 0, 69, 50
2, 36960, Note_on_c, 0, 69, 0
2, 36960, Note_on_c, 0, 72, 53
2, 37200, Note_on_c, 0, 72, 0
2, 37440, Note_on_c, 0, 77, 59
2, 37440, Note_on_c, 0, 81, 70
2, 37680, Note_on_c, 0, 81, 0
2, 37680, Note_on_c, 0, 77, 0
2, 37680, Note_on_c, 0, 79, 64
2, 37680, Note_on_c, 0, 76, 54
2, 37920, Note_on_c, 0, 76, 0
2, 37920, Note_on_c, 0, 79, 0
2, 37920, Note_on_c, 0, 74, 48
2, 37920, Note_on_c, 0, 77, 57
2, 38136, Note_on_c, 0, 77, 0
2, 38136, Note_on_c, 0, 74, 0
2, 38160, Note_on_c, 0, 73, 48
2, 38160, Note_on_c, 0, 76, 57
2, 38376, Note_on_c, 0, 76, 0
2, 38376, Note_on_c, 0, 73, 0
2, 38400, Note_on_c, 0, 77, 70
2, 38400, Note_on_c, 0, 74, 59
2, 38640, Note_on_c, 0, 74, 0
2, 38640, Note_on_c, 0, 77, 0
2, 38640, Note_on_c, 0, 72, 54
2, 38640, Note_on_c, 0, 76, 64
2, 38880, Note_on_c, 0, 76, 0
2, 38880, Note_on_c, 0, 72, 0
2, 38880, Note_on_c, 0, 70, 50
2, 38880, Note_on_c, 0, 74, 59
2, 39096, Note_on_c, 0, 74, 0
2, 39096, Note_on_c, 0, 70, 0
2, 39120, Note_on_c, 0, 73, 59
2, 39120, Note_on_c, 0, 69, 50
2, 39336, Note_on_c, 0, 69, 0
2, 39336, Note_on_c, 0, 73, 0
2, 39360, Note_on_c, 0, 70, 59
2, 39360, Note_on_c, 0, 74, 70
2, 39600, Note_on_c, 0, 74, 0
2, 39600, Note_on_c, 0, 70, 0
2, 39600, Note_on_c, 0, 69, 53
2, 39600, Note_on_c, 0, 72, 63
2, 39840, Note_on_c, 0, 72, 0
2, 39840, Note_on_c, 0, 69, 0
2, 39840, Note_on_c, 0, 67, 50
2, 39840, Note_on_c, 0, 70, 59
2, 40056, Note_on_c, 0, 70, 0
2, 40056, Note_on_c, 0, 67, 0
2, 40080, Note_on_c, 0, 69, 58
2, 40080, Note_on_c, 0, 66, 49
2, 40296, Note_on_c, 0, 66, 0
2, 40296, Note_on_c, 0, 69, 0
2, 40320, Note_on_c, 0, 62, 49
2, 40320, Note_on_c, 0, 66, 58
2, 40320, Note_on_c, 0, 69, 58
2, 41280, Note_on_c, 0, 69, 0
2, 41280, Note_on_c, 0, 66, 0
2, 41280, Note_on_c, 0, 70, 49
2, 41280, Note_on_c, 0, 67, 41
2, 41520, Note_on_c, 0, 67, 0
2, 41520, Note_on_c, 0, 62, 0
2, 41640, Note_on_c, 0, 70, 0
2, 41640, Note_on_c, 0, 72, 45
2, 41670, Note_on_c, 0, 72, 0
2, 41670, Note_on_c, 0, 70, 45
2, 41700, Note_on_c, 0, 70, 0
2, 41700, Note_on_c, 0, 69, 45
2, 41730, Note_on_c, 0, 69, 0
2, 41730, Note_on_c, 0, 70, 45
2, 41760, Note_on_c, 0, 70, 0
2, 41760, Note_on_c, 0, 72, 50
2, 42000, Note_on_c, 0, 72, 0
2, 42000, Note_on_c, 0, 74, 48
2, 42240, Note_on_c, 0, 74, 0
2, 42240, Note_on_c, 0, 72, 49
2, 42400, Note_on_c, 0, 72, 0
2, 42400, Note_on_c, 0, 70, 45
2, 42560, Note_on_c, 0, 70, 0
2, 42560, Note_on_c, 0, 69, 45
2, 42720, Note_on_c, 0, 69, 0
2, 42720, Note_on_c, 0, 67, 48
2, 42880, Note_on_c, 0, 67, 0
2, 42880, Note_on_c, 0, 70, 45
2, 43040, Note_on_c, 0, 70, 0
2, 43040, Note_on_c, 0, 74, 45
2, 43200, Note_on_c, 0, 74, 0
2, 43200, Note_on_c, 0, 65, 50
2, 43680, Note_on_c, 0, 65, 0
2, 43680, Note_on_c, 0, 64, 38
2, 43680, Note_on_c, 0, 67, 45
2, 44160, Note_on_c, 0, 67, 0
2, 44160, Note_on_c, 0, 64, 0
2, 44160, Note_on_c, 0, 67, 48
2, 44160, Note_on_c, 0, 64, 40
2, 44520, Note_on_c, 0, 67, 0
2, 44520, Note_on_c, 0, 68, 35
2, 44640, Note_on_c, 0, 68, 0
2, 44640, Note_on_c, 0, 64, 0
2, 44640, Note_on_c, 0, 69, 44
2, 44640, Note_on_c, 0, 65, 38
2, 45120, Note_on_c, 0, 65, 0
2, 45120, Note_on_c, 0, 69, 0
2, 46080, Note_on_c, 0, 70, 45
2, 46560, Note_on_c, 0, 70, 0
2, 47040, Note_on_c, 0, 67, 45
2, 47280, Note_on_c, 0, 67, 0
2, 47520, Note_on_c, 0, 64, 42
2, 47760, Note_on_c, 0, 64, 0
2, 48000, Note_on_c, 0, 72, 53
2, 48360, Note_on_c, 0, 72, 0
2, 48360, Note_on_c, 0, 69, 49
2, 48480, Note_on_c, 0, 69, 0
2, 48480, Note_on_c, 0, 72, 53
2, 48720, Note_on_c, 0, 72, 0
2, 49920, Note_on_c, 0, 70, 45
2, 50400, Note_on_c, 0, 70, 0
2, 50880, Note_on_c, 0, 67, 45
2, 51120, Note_on_c, 0, 67, 0
2, 51360, Note_on_c, 0, 64, 42
2, 51600, Note_on_c, 0, 64, 0
2, 51840, Note_on_c, 0, 72, 53
2, 52200, Note_on_c, 0, 72, 0
2, 52200, Note_on_c, 0, 77, 50
2, 52320, Note_on_c, 0, 77, 0
2, 52320, Note_on_c, 0, 72, 53
2, 52560, Note_on_c, 0, 72, 0
2, 52800, Note_on_c, 0, 81, 70
2, 52800, Note_on_c, 0, 77, 59
2, 53040, Note_on_c, 0, 77, 0
2, 53040, Note_on_c, 0, 81, 0
2, 53040, Note_on_c, 0, 76, 54
2, 53040, Note_on_c, 0, 79, 64
2, 53280, Note_on_c, 0, 79, 0
2, 53280, Note_on_c, 0, 76, 0
2, 53280, Note_on_c, 0, 74, 48
2, 53280, Note_on_c, 0, 77, 57
2, 53496, Note_on_c, 0, 77, 0
2, 53496, Note_on_c, 0, 74, 0
2, 53520, Note_on_c, 0, 73, 48
2, 53520, Note_on_c, 0, 76, 57
2, 53736, Note_on_c, 0, 76, 0
2, 53736, Note_on_c, 0, 73, 0
2, 53760, Note_on_c, 0, 74, 59
2, 53760, Note_on_c, 0, 77, 70
2, 54000, Note_on_c, 0, 77, 0
2, 54000, Note_on_c, 0, 74, 0
2, 54000, Note_on_c, 0, 72, 54
2, 54000, Note_on_c, 0, 76, 64
2, 54240, Note_on_c, 0, 76, 0
2, 54240, Note_on_c, 0, 72, 0
2, 54240, Note_on_c, 0, 70, 50
2, 54240, Note_on_c, 0, 74, 59
2, 54456, Note_on_c, 0, 74, 0
2, 54456, Note_on_c, 0, 70, 0
2, 54480, Note_on_c, 0, 73, 59
2, 54480, Note_on_c, 0, 69, 50
2, 54696, Note_on_c, 0, 69, 0
2, 54696, Note_on_c, 0, 73, 0
2, 54720, Note_on_c, 0, 70, 59
2, 54720, Note_on_c, 0, 74, 70
2, 54960, Note_on_c, 0, 74, 0
2, 54960, Note_on_c, 0, 70, 0
2, 54960, Note_on_c, 0, 72, 63
2, 54960, Note_on_c, 0, 69, 53
2, 55200, Note_on_c, 0, 69, 0
2, 55200, Note_on_c, 0, 72, 0
2, 55200, Note_on_c, 0, 70, 59
2, 55200, Note_on_c, 0, 67, 50
2, 55416, Note_on_c, 0, 67, 0
2, 55416, Note_on_c, 0, 70, 0
2, 55440, Note_on_c, 0, 66, 49
2, 55440, Note_on_c, 0, 69, 58
2, 55656, Note_on_c, 0, 69, 0
2, 55656, Note_on_c, 0, 66, 0
2, 55680, Note_on_c, 0, 69, 58
2, 55680, Note_on_c, 0, 62, 49
2, 55680, Note_on_c, 0, 66, 58
2, 56640, Note_on_c, 0, 66, 0
2, 56640, Note_on_c, 0, 69, 0
2, 56640, Note_on_c, 0, 67, 41
2, 56640, Note_on_c, 0, 70, 49
2, 56880, Note_on_c, 0, 67, 0
2, 56880, Note_on_c, 0, 62, 0
2, 57000, Note_on_c, 0, 70, 0
2, 57000, Note_on_c, 0, 72, 45
2, 57030, Note_on_c, 0, 72, 0
2, 57030, Note_on_c, 0, 70, 45
2, 57060, Note_on_c, 0, 70, 0
2, 57060, Note_on_c, 0, 69, 45
2, 57090, Note_on_c, 0, 69, 0
2, 57090, Note_on_c, 0, 70, 45
2, 57120, Note_on_c, 0, 70, 0
2, 57120, Note_on_c, 0, 72, 50
2, 57360, Note_on_c, 0, 72, 0
2, 57360, Note_on_c, 0, 74, 48
2, 57600, Note_on_c, 0, 74, 0
2, 57600, Note_on_c, 0, 72, 49
2, 57760, Note_on_c, 0, 72, 0
2, 57760, Note_on_c, 0, 77, 45
2, 57920, Note_on_c, 0, 77, 0
2, 57920, Note_on_c, 0, 69, 42
2, 58080, Note_on_c, 0, 69, 0
2, 58080, Note_on_c, 0, 67, 48
2, 58240, Note_on_c, 0, 67, 0
2, 58240, Note_on_c, 0, 70, 45
2, 58400, Note_on_c, 0, 70, 0
2, 58400, Note_on_c, 0, 74, 43
2, 58560, Note_on_c, 0, 74, 0
2, 58560, Note_on_c, 0, 65, 50
2, 59040, Note_on_c, 0, 65, 0
2, 59040, Note_on_c, 0, 64, 45
2, 59490, Note_on_c, 0, 64, 0
2, 59490, Note_on_c, 0, 69, 56
2, 59520, Note_on_c, 0, 69, 0
2, 59520, Note_on_c, 0, 81, 73
2, 60180, Note_on_c, 0, 81, 0
2, 60180, Note_on_c, 0, 77, 49
2, 60240, Note_on_c, 0, 77, 0
2, 60240, Note_on_c, 0, 77, 53
2, 60288, Note_on_c, 0, 77, 0
2, 60288, Note_on_c, 0, 79, 50
2, 60336, Note_on_c, 0, 79, 0
2, 60336, Note_on_c, 0, 77, 54
2, 60384, Note_on_c, 0, 77, 0
2, 60384, Note_on_c, 0, 76, 52
2, 60432, Note_on_c, 0, 76, 0
2, 60432, Note_on_c, 0, 77, 54
2, 60480, Note_on_c, 0, 77, 0
2, 60480, Note_on_c, 0, 70, 60
2, 60510, Note_on_c, 0, 82, 74
2, 60540, Note_on_c, 0, 70, 0
2, 61140, Note_on_c, 0, 82, 0
2, 61140, Note_on_c, 0, 79, 56
2, 61200, Note_on_c, 0, 79, 0
2, 61200, Note_on_c, 0, 79, 56
2, 61248, Note_on_c, 0, 79, 0
2, 61248, Note_on_c, 0, 81, 52
2, 61296, Note_on_c, 0, 81, 0
2, 61296, Note_on_c, 0, 79, 56
2, 61344, Note_on_c, 0, 79, 0
2, 61344, Note_on_c, 0, 78, 54
2, 61392, Note_on_c, 0, 78, 0
2, 61392, Note_on_c, 0, 79, 56
2, 61440, Note_on_c, 0, 79, 0
2, 61440, Note_on_c, 0, 84, 74
2, 61800, Note_on_c, 0, 84, 0
2, 61800, Note_on_c, 0, 81, 61
2, 61920, Note_on_c, 0, 81, 0
2, 61920, Note_on_c, 0, 77, 69
2, 62640, Note_on_c, 0, 77, 0
2, 62640, Note_on_c, 0, 75, 62
2, 62880, Note_on_c, 0, 75, 0
2, 62880, Note_on_c, 0, 74, 67
2, 63120, Note_on_c, 0, 74, 0
2, 63120, Note_on_c, 0, 73, 62
2, 63360, Note_on_c, 0, 73, 0
2, 63360, Note_on_c, 0, 74, 69
2, 63600, Note_on_c, 0, 74, 0
2, 63600, Note_on_c, 0, 76, 62
2, 63660, Note_on_c, 0, 76, 0
2, 63720, Note_on_c, 0, 78, 63
2, 63780, Note_on_c, 0, 78, 0
2, 63840, Note_on_c, 0, 79, 64
2, 63900, Note_on_c, 0, 79, 0
2, 63960, Note_on_c, 0, 81, 65
2, 64020, Note_on_c, 0, 81, 0
2, 64080, Note_on_c, 0, 82, 66
2, 64140, Note_on_c, 0, 82, 0
2, 64200, Note_on_c, 0, 85, 67
2, 64320, Note_on_c, 0, 86, 68
2, 64330, Note_on_c, 0, 85, 0
2, 64380, Note_on_c, 0, 86, 0
2, 64440, Note_on_c, 0, 84, 66
2, 64560, Note_on_c, 0, 82, 65
2, 64570, Note_on_c, 0, 84, 0
2, 64620, Note_on_c, 0, 82, 0
2, 64680, Note_on_c, 0, 81, 64
2, 64800, Note_on_c, 0, 79, 63
2, 64810, Note_on_c, 0, 81, 0
2, 64860, Note_on_c, 0, 79, 0
2, 64920, Note_on_c, 0, 77, 62
2, 65040, Note_on_c, 0, 76, 61
2, 65050, Note_on_c, 0, 77, 0
2, 65100, Note_on_c, 0, 76, 0
2, 65160, Note_on_c, 0, 74, 60
2, 65280, Note_on_c, 0, 74, 0
2, 65280, Note_on_c, 0, 72, 60
2, 65760, Note_on_c, 0, 72, 0
2, 65760, Note_on_c, 0, 84, 64
2, 66400, Note_on_c, 0, 84, 0
2, 66400, Note_on_c, 0, 81, 55
2, 66560, Note_on_c, 0, 81, 0
2, 66560, Note_on_c, 0, 77, 51
2, 66720, Note_on_c, 0, 77, 0
2, 66720, Note_on_c, 0, 72, 58
2, 66840, Note_on_c, 0, 72, 0
2, 66840, Note_on_c, 0, 69, 51
2, 66960, Note_on_c, 0, 69, 0
2, 66960, Note_on_c, 0, 77, 56
2, 67080, Note_on_c, 0, 77, 0
2, 67140, Note_on_c, 0, 65, 44
2, 67200, Note_on_c, 0, 65, 0
2, 67200, Note_on_c, 0, 67, 44
2, 67251, Note_on_c, 0, 67, 0
2, 67251, Note_on_c, 0, 69, 41
2, 67301, Note_on_c, 0, 69, 0
2, 67301, Note_on_c, 0, 67, 44
2, 67351, Note_on_c, 0, 69, 39
2, 67352, Note_on_c, 0, 67, 0
2, 67402, Note_on_c, 0, 69, 0
2, 67402, Note_on_c, 0, 67, 44
2, 67452, Note_on_c, 0, 67, 0
2, 67452, Note_on_c, 0, 69, 39
2, 67503, Note_on_c, 0, 69, 0
2, 67503, Note_on_c, 0, 67, 44
2, 67553, Note_on_c, 0, 67, 0
2, 67553, Note_on_c, 0, 69, 39
2, 67603, Note_on_c, 0, 67, 44
2, 67604, Note_on_c, 0, 69, 0
2, 67654, Note_on_c, 0, 67, 0
2, 67654, Note_on_c, 0, 69, 39
2, 67704, Note_on_c, 0, 69, 0
2, 67704, Note_on_c, 0, 67, 44
2, 67755, Note_on_c, 0, 67, 0
2, 67755, Note_on_c, 0, 69, 38
2, 67805, Note_on_c, 0, 69, 0
2, 67805, Note_on_c, 0, 67, 44
2, 67855, Note_on_c, 0, 69, 38
2, 67856, Note_on_c, 0, 67, 0
2, 67906, Note_on_c, 0, 69, 0
2, 67906, Note_on_c, 0, 67, 44
2, 67956, Note_on_c, 0, 67, 0
2, 67956, Note_on_c, 0, 69, 38
2, 68007, Note_on_c, 0, 69, 0
2, 68007, Note_on_c, 0, 67, 43
2, 68057, Note_on_c, 0, 67, 0
2, 68057, Note_on_c, 0, 69, 38
2, 68107, Note_on_c, 0, 67, 43
2, 68108, Note_on_c, 0, 69, 0
2, 68158, Note_on_c, 0, 67, 0
2, 68158, Note_on_c, 0, 69, 36
2, 68208, Note_on_c, 0, 69, 0
2, 68208, Note_on_c, 0, 67, 42
2, 68259, Note_on_c, 0, 67, 0
2, 68259, Note_on_c, 0, 69, 36
2, 68309, Note_on_c, 0, 69, 0
2, 68309, Note_on_c, 0, 67, 42
2, 68359, Note_on_c, 0, 69, 36
2, 68360, Note_on_c, 0, 67, 0
2, 68400, Note_on_c, 0, 67, 42
2, 68410, Note_on_c, 0, 69, 0
2, 68460, Note_on_c, 0, 67, 0
2, 68460, Note_on_c, 0, 69, 36
2, 68520, Note_on_c, 0, 69, 0
2, 68520, Note_on_c, 0, 67, 42
2, 68580, Note_on_c, 0, 67, 0
2, 68580, Note_on_c, 0, 69, 37
2, 68640, Note_on_c, 0, 69, 0
2, 68640, Note_on_c, 0, 67, 42
2, 68700, Note_on_c, 0, 67, 0
2, 68700, Note_on_c, 0, 69, 36
2, 68760, Note_on_c, 0, 69, 0
2, 68760, Note_on_c, 0, 67, 42
2, 68820, Note_on_c, 0, 67, 0
2, 68820, Note_on_c, 0, 69, 37
2, 68880, Note_on_c, 0, 69, 0
2, 68880, Note_on_c, 0, 67, 38
2, 68960, Note_on_c, 0, 67, 0
2, 68960, Note_on_c, 0, 65, 48
2, 69040, Note_on_c, 0, 65, 0
2, 69040, Note_on_c, 0, 67, 42
2, 69120, Note_on_c, 0, 67, 0
2, 69120, Note_on_c, 0, 65, 53
2, 69600, Note_on_c, 0, 65, 0
2, 69780, Note_on_c, 0, 77, 49
2, 69840, Note_on_c, 0, 77, 0
2, 69840, Note_on_c, 0, 77, 50
2, 69888, Note_on_c, 0, 77, 0
2, 69888, Note_on_c, 0, 79, 48
2, 69936, Note_on_c, 0, 79, 0
2, 69936, Note_on_c, 0, 77, 51
2, 69984, Note_on_c, 0, 77, 0
2, 69984, Note_on_c, 0, 76, 50
2, 70032, Note_on_c, 0, 76, 0
2, 70032, Note_on_c, 0, 77, 54
2, 70080, Note_on_c, 0, 77, 0
2, 70080, Note_on_c, 0, 84, 63
2, 70320, Note_on_c, 0, 84, 0
2, 70320, Note_on_c, 0, 82, 58
2, 70560, Note_on_c, 0, 82, 0
2, 70560, Note_on_c, 0, 81, 53
2, 70800, Note_on_c, 0, 81, 0
2, 70800, Note_on_c, 0, 79, 53
2, 71040, Note_on_c, 0, 79, 0
2, 71040, Note_on_c, 0, 79, 62
2, 71280, Note_on_c, 0, 79, 0
2, 71280, Note_on_c, 0, 77, 51
2, 71520, Note_on_c, 0, 77, 0
2, 71700, Note_on_c, 0, 77, 49
2, 71760, Note_on_c, 0, 77, 0
2, 71760, Note_on_c, 0, 77, 50
2, 71808, Note_on_c, 0, 77, 0
2, 71808, Note_on_c, 0, 79, 48
2, 71856, Note_on_c, 0, 79, 0
2, 71856, Note_on_c, 0, 77, 51
2, 71904, Note_on_c, 0, 77, 0
2, 71904, Note_on_c, 0, 76, 51
2, 71952, Note_on_c, 0, 76, 0
2, 71952, Note_on_c, 0, 77, 54
2, 72000, Note_on_c, 0, 77, 0
2, 72000, Note_on_c, 0, 84, 63
2, 72240, Note_on_c, 0, 84, 0
2, 72240, Note_on_c, 0, 82, 58
2, 72480, Note_on_c, 0, 82, 0
2, 72480, Note_on_c, 0, 81, 53
2, 72720, Note_on_c, 0, 81, 0
2, 72720, Note_on_c, 0, 79, 53
2, 72960, Note_on_c, 0, 79, 0
2, 72960, Note_on_c, 0, 79, 56
2, 73200, Note_on_c, 0, 79, 0
2, 73200, Note_on_c, 0, 77, 50
2, 73440, Note_on_c, 0, 77, 0
2, 73440, Note_on_c, 0, 77, 53
2, 73680, Note_on_c, 0, 77, 0
2, 73920, Note_on_c, 0, 77, 53
2, 74160, Note_on_c, 0, 77, 0
2, 74400, Note_on_c, 0, 77, 62
2, 74640, Note_on_c, 0, 77, 0
2, 74880, Note_on_c, 0, 77, 65
2, 75840, Note_on_c, 0, 77, 0
2, 75840, Note_on_c, 0, 76, 55
2, 75960, Note_on_c, 0, 77, 53
2, 75970, Note_on_c, 0, 76, 0
2, 76080, Note_on_c, 0, 79, 56
2, 76090, Note_on_c, 0, 77, 0
2, 76200, Note_on_c, 0, 77, 51
2, 76210, Note_on_c, 0, 79, 0
2, 76315, Note_on_c, 0, 77, 0
2, 76320, Note_on_c, 0, 77, 55
2, 76440, Note_on_c, 0, 75, 49
2, 76450, Note_on_c, 0, 77, 0
2, 76560, Note_on_c, 0, 74, 50
2, 76570, Note_on_c, 0, 75, 0
2, 76680, Note_on_c, 0, 72, 47
2, 76690, Note_on_c, 0, 74, 0
2, 76800, Note_on_c, 0, 72, 0
2, 76800, Note_on_c, 0, 70, 50
2, 77040, Note_on_c, 0, 70, 0
2, 77040, Note_on_c, 0, 72, 46
2, 77120, Note_on_c, 0, 72, 0
2, 77120, Note_on_c, 0, 70, 46
2, 77200, Note_on_c, 0, 70, 0
2, 77200, Note_on_c, 0, 69, 46
2, 77280, Note_on_c, 0, 69, 0
2, 77280, Note_on_c, 0, 70, 50
2, 77520, Note_on_c, 0, 70, 0
2, 77520, Note_on_c, 0, 72, 50
2, 77760, Note_on_c, 0, 72, 0
2, 77760, Note_on_c, 0, 74, 50
2, 78000, Note_on_c, 0, 74, 0
2, 78000, Note_on_c, 0, 75, 46
2, 78080, Note_on_c, 0, 75, 0
2, 78080, Note_on_c, 0, 74, 46
2, 78160, Note_on_c, 0, 74, 0
2, 78160, Note_on_c, 0, 72, 46
2, 78240, Note_on_c, 0, 72, 0
2, 78240, Note_on_c, 0, 74, 50
2, 78480, Note_on_c, 0, 74, 0
2, 78480, Note_on_c, 0, 75, 50
2, 78720, Note_on_c, 0, 75, 0
2, 78720, Note_on_c, 0, 76, 55
2, 79440, Note_on_c, 0, 76, 0
2, 79440, Note_on_c, 0, 77, 49
2, 79680, Note_on_c, 0, 77, 0
2, 79680, Note_on_c, 0, 72, 49
2, 79920, Note_on_c, 0, 72, 0
2, 80640, Note_on_c, 0, 75, 50
2, 80880, Note_on_c, 0, 75, 0
2, 80880, Note_on_c, 0, 77, 46
2, 80960, Note_on_c, 0, 77, 0
2, 80960, Note_on_c, 0, 75, 44
2, 81040, Note_on_c, 0, 75, 0
2, 81040, Note_on_c, 0, 74, 43
2, 81120, Note_on_c, 0, 74, 0
2, 81120, Note_on_c, 0, 75, 50
2, 81360, Note_on_c, 0, 75, 0
2, 81360, Note_on_c, 0, 77, 50
2, 81600, Note_on_c, 0, 77, 0
2, 81600, Note_on_c, 0, 79, 52
2, 81840, Note_on_c, 0, 79, 0
2, 81840, Note_on_c, 0, 81, 49
2, 81920, Note_on_c, 0, 81, 0
2, 81920, Note_on_c, 0, 79, 46
2, 82000, Note_on_c, 0, 79, 0
2, 82000, Note_on_c, 0, 77, 44
2, 82080, Note_on_c, 0, 77, 0
2, 82080, Note_on_c, 0, 79, 57
2, 82320, Note_on_c, 0, 79, 0
2, 82320, Note_on_c, 0, 81, 59
2, 82550, Note_on_c, 0, 81, 0
2, 82560, Note_on_c, 0, 81, 68
2, 83280, Note_on_c, 0, 81, 0
2, 83280, Note_on_c, 0, 82, 54
2, 83520, Note_on_c, 0, 82, 0
2, 83520, Note_on_c, 0, 77, 52
2, 83760, Note_on_c, 0, 77, 0
2, 84480, Note_on_c, 0, 78, 56
2, 84720, Note_on_c, 0, 78, 0
2, 84720, Note_on_c, 0, 79, 59
2, 85200, Note_on_c, 0, 79, 0
2, 85200, Note_on_c, 0, 80, 50
2, 85320, Note_on_c, 0, 80, 0
2, 85320, Note_on_c, 0, 79, 50
2, 85440, Note_on_c, 0, 79, 0
2, 85440, Note_on_c, 0, 77, 55
2, 85680, Note_on_c, 0, 77, 0
2, 85680, Note_on_c, 0, 75, 52
2, 85872, Note_on_c, 0, 75, 0
2, 85920, Note_on_c, 0, 74, 53
2, 86112, Note_on_c, 0, 74, 0
2, 86160, Note_on_c, 0, 72, 53
2, 86352, Note_on_c, 0, 72, 0
2, 86400, Note_on_c, 0, 79, 59
2, 86640, Note_on_c, 0, 79, 0
2, 86640, Note_on_c, 0, 77, 54
2, 87120, Note_on_c, 0, 77, 0
2, 87120, Note_on_c, 0, 79, 55
2, 87240, Note_on_c, 0, 79, 0
2, 87240, Note_on_c, 0, 77, 52
2, 87350, Note_on_c, 0, 77, 0
2, 87360, Note_on_c, 0, 77, 54
2, 87480, Note_on_c, 0, 77, 0
2, 87480, Note_on_c, 0, 75, 51
2, 87590, Note_on_c, 0, 75, 0
2, 87600, Note_on_c, 0, 75, 55
2, 87720, Note_on_c, 0, 75, 0
2, 87720, Note_on_c, 0, 74, 50
2, 87830, Note_on_c, 0, 74, 0
2, 87840, Note_on_c, 0, 74, 56
2, 87960, Note_on_c, 0, 74, 0
2, 87960, Note_on_c, 0, 72, 53
2, 88070, Note_on_c, 0, 72, 0
2, 88080, Note_on_c, 0, 72, 59
2, 88200, Note_on_c, 0, 72, 0
2, 88200, Note_on_c, 0, 70, 59
2, 88310, Note_on_c, 0, 70, 0
2, 88320, Note_on_c, 0, 77, 58
2, 88380, Note_on_c, 0, 77, 0
2, 88440, Note_on_c, 0, 76, 56
2, 88500, Note_on_c, 0, 76, 0
2, 88560, Note_on_c, 0, 75, 59
2, 89040, Note_on_c, 0, 75, 0
2, 89040, Note_on_c, 0, 72, 51
2, 89280, Note_on_c, 0, 72, 0
2, 89280, Note_on_c, 0, 75, 58
2, 89340, Note_on_c, 0, 75, 0
2, 89400, Note_on_c, 0, 73, 55
2, 89460, Note_on_c, 0, 73, 0
2, 89520, Note_on_c, 0, 74, 58
2, 90000, Note_on_c, 0, 74, 0
2, 90000, Note_on_c, 0, 70, 54
2, 90240, Note_on_c, 0, 70, 0
2, 90240, Note_on_c, 0, 74, 59
2, 90960, Note_on_c, 0, 74, 0
2, 90960, Note_on_c, 0, 75, 43
2, 91080, Note_on_c, 0, 75, 0
2, 91080, Note_on_c, 0, 74, 43
2, 91200, Note_on_c, 0, 74, 0
2, 91200, Note_on_c, 0, 72, 50
2, 91320, Note_on_c, 0, 72, 0
2, 91360, Note_on_c, 0, 77, 45
2, 91480, Note_on_c, 0, 77, 0
2, 91520, Note_on_c, 0, 75, 42
2, 91640, Note_on_c, 0, 75, 0
2, 91680, Note_on_c, 0, 75, 50
2, 91800, Note_on_c, 0, 75, 0
2, 91800, Note_on_c, 0, 74, 43
2, 91920, Note_on_c, 0, 74, 0
2, 91920, Note_on_c, 0, 75, 40
2, 92040, Note_on_c, 0, 75, 0
2, 92040, Note_on_c, 0, 72, 41
2, 92160, Note_on_c, 0, 72, 0
2, 92160, Note_on_c, 0, 70, 50
2, 92400, Note_on_c, 0, 70, 0
2, 92400, Note_on_c, 0, 72, 43
2, 92480, Note_on_c, 0, 72, 0
2, 92480, Note_on_c, 0, 70, 44
2, 92560, Note_on_c, 0, 70, 0
2, 92560, Note_on_c, 0, 69, 41
2, 92640, Note_on_c, 0, 69, 0
2, 92640, Note_on_c, 0, 70, 45
2, 92880, Note_on_c, 0, 70, 0
2, 92880, Note_on_c, 0, 72, 50
2, 93120, Note_on_c, 0, 72, 0
2, 93120, Note_on_c, 0, 73, 53
2, 93360, Note_on_c, 0, 73, 0
2, 93360, Note_on_c, 0, 75, 44
2, 93440, Note_on_c, 0, 75, 0
2, 93440, Note_on_c, 0, 73, 44
2, 93520, Note_on_c, 0, 73, 0
2, 93520, Note_on_c, 0, 72, 41
2, 93600, Note_on_c, 0, 72, 0
2, 93600, Note_on_c, 0, 73, 51
2, 93840, Note_on_c, 0, 73, 0
2, 93840, Note_on_c, 0, 75, 52
2, 94080, Note_on_c, 0, 75, 0
2, 94080, Note_on_c, 0, 76, 61
2, 94800, Note_on_c, 0, 76, 0
2, 94800, Note_on_c, 0, 77, 56
2, 95040, Note_on_c, 0, 77, 0
2, 95040, Note_on_c, 0, 72, 56
2, 95280, Note_on_c, 0, 72, 0
2, 96000, Note_on_c, 0, 63, 73
2, 96548, Note_on_c, 0, 63, 0
2, 96549, Note_on_c, 0, 65, 45
2, 96617, Note_on_c, 0, 65, 0
2, 96617, Note_on_c, 0, 63, 46
2, 96685, Note_on_c, 0, 62, 47
2, 96686, Note_on_c, 0, 63, 0
2, 96754, Note_on_c, 0, 62, 0
2, 96754, Note_on_c, 0, 63, 47
2, 96822, Note_on_c, 0, 63, 0
2, 96822, Note_on_c, 0, 64, 48
2, 96890, Note_on_c, 0, 65, 49
2, 96891, Note_on_c, 0, 64, 0
2, 96960, Note_on_c, 0, 65, 0
2, 96960, Note_on_c, 0, 66, 49
2, 97020, Note_on_c, 0, 66, 0
2, 97020, Note_on_c, 0, 67, 51
2, 97080, Note_on_c, 0, 67, 0
2, 97080, Note_on_c, 0, 68, 52
2, 97140, Note_on_c, 0, 68, 0
2, 97140, Note_on_c, 0, 69, 53
2, 97200, Note_on_c, 0, 69, 0
2, 97200, Note_on_c, 0, 70, 55
2, 97260, Note_on_c, 0, 70, 0
2, 97260, Note_on_c, 0, 71, 56
2, 97320, Note_on_c, 0, 71, 0
2, 97320, Note_on_c, 0, 72, 57
2, 97380, Note_on_c, 0, 72, 0
2, 97380, Note_on_c, 0, 73, 58
2, 97440, Note_on_c, 0, 73, 0
2, 97440, Note_on_c, 0, 74, 60
2, 97500, Note_on_c, 0, 74, 0
2, 97500, Note_on_c, 0, 75, 61
2, 97560, Note_on_c, 0, 75, 0
2, 97560, Note_on_c, 0, 76, 62
2, 97620, Note_on_c, 0, 76, 0
2, 97620, Note_on_c, 0, 77, 64
2, 97680, Note_on_c, 0, 77, 0
2, 97680, Note_on_c, 0, 78, 65
2, 97740, Note_on_c, 0, 78, 0
2, 97740, Note_on_c, 0, 79, 66
2, 97800, Note_on_c, 0, 79, 0
2, 97800, Note_on_c, 0, 80, 67
2, 97860, Note_on_c, 0, 80, 0
2, 97860, Note_on_c, 0, 81, 69
2, 97920, Note_on_c, 0, 81, 0
2, 97920, Note_on_c, 0, 81, 73
2, 98160, Note_on_c, 0, 81, 0
2, 98160, Note_on_c, 0, 82, 63
2, 98240, Note_on_c, 0, 82, 0
2, 98240, Note_on_c, 0, 81, 61
2, 98320, Note_on_c, 0, 81, 0
2, 98320, Note_on_c, 0, 79, 61
2, 98400, Note_on_c, 0, 79, 0
2, 98400, Note_on_c, 0, 81, 60
2, 98640, Note_on_c, 0, 81, 0
2, 98640, Note_on_c, 0, 82, 64
2, 98880, Note_on_c, 0, 82, 0
2, 98880, Note_on_c, 0, 77, 59
2, 99120, Note_on_c, 0, 77, 0
2, 99720, Note_on_c, 0, 76, 69
2, 99840, Note_on_c, 0, 76, 0
2, 99840, Note_on_c, 0, 85, 93
2, 101040, Note_on_c, 0, 85, 0
2, 101040, Note_on_c, 0, 84, 60
2, 101160, Note_on_c, 0, 84, 0
2, 101160, Note_on_c, 0, 82, 58
2, 101280, Note_on_c, 0, 82, 0
2, 101280, Note_on_c, 0, 80, 57
2, 101400, Note_on_c, 0, 80, 0
2, 101400, Note_on_c, 0, 79, 56
2, 101520, Note_on_c, 0, 79, 0
2, 101520, Note_on_c, 0, 77, 54
2, 101640, Note_on_c, 0, 77, 0
2, 101640, Note_on_c, 0, 76, 50
2, 101760, Note_on_c, 0, 76, 0
2, 101760, Note_on_c, 0, 79, 57
2, 102240, Note_on_c, 0, 79, 0
2, 102240, Note_on_c, 0, 77, 62
2, 102960, Note_on_c, 0, 77, 0
2, 102960, Note_on_c, 0, 76, 53
2, 103200, Note_on_c, 0, 76, 0
2, 103200, Note_on_c, 0, 75, 55
2, 103360, Note_on_c, 0, 75, 0
2, 103360, Note_on_c, 0, 74, 52
2, 103520, Note_on_c, 0, 74, 0
2, 103520, Note_on_c, 0, 73, 52
2, 103680, Note_on_c, 0, 73, 0
2, 103680, Note_on_c, 0, 72, 50
2, 103920, Note_on_c, 0, 72, 0
2, 103920, Note_on_c, 0, 73, 43
2, 104000, Note_on_c, 0, 73, 0
2, 104000, Note_on_c, 0, 72, 44
2, 104080, Note_on_c, 0, 72, 0
2, 104080, Note_on_c, 0, 70, 44
2, 104160, Note_on_c, 0, 70, 0
2, 104160, Note_on_c, 0, 72, 45
2, 104400, Note_on_c, 0, 72, 0
2, 104400, Note_on_c, 0, 73, 50
2, 104640, Note_on_c, 0, 73, 0
2, 104640, Note_on_c, 0, 65, 50
2, 105120, Note_on_c, 0, 65, 0
2, 105120, Note_on_c, 0, 68, 50
2, 105120, Note_on_c, 0, 64, 44
2, 105360, Note_on_c, 0, 68, 0
2, 105360, Note_on_c, 0, 67, 50
2, 105600, Note_on_c, 0, 67, 0
2, 105600, Note_on_c, 0, 64, 0
2, 105600, Note_on_c, 0, 65, 53
2, 105838, Note_on_c, 0, 65, 0
2, 107520, Note_on_c, 0, 75, 45
2, 108000, Note_on_c, 0, 75, 0
2, 108480, Note_on_c, 0, 72, 45
2, 108720, Note_on_c, 0, 72, 0
2, 108960, Note_on_c, 0, 69, 42
2, 109200, Note_on_c, 0, 69, 0
2, 109440, Note_on_c, 0, 77, 53
2, 109800, Note_on_c, 0, 77, 0
2, 109800, Note_on_c, 0, 74, 49
2, 109920, Note_on_c, 0, 74, 0
2, 109920, Note_on_c, 0, 77, 53
2, 110160, Note_on_c, 0, 77, 0
2, 111360, Note_on_c, 0, 77, 49
2, 111600, Note_on_c, 0, 77, 0
2, 111600, Note_on_c, 0, 75, 45
2, 111840, Note_on_c, 0, 75, 0
2, 112320, Note_on_c, 0, 74, 45
2, 112560, Note_on_c, 0, 74, 0
2, 112560, Note_on_c, 0, 72, 41
2, 112680, Note_on_c, 0, 72, 0
2, 112800, Note_on_c, 0, 70, 42
2, 113040, Note_on_c, 0, 70, 0
2, 113040, Note_on_c, 0, 69, 39
2, 113160, Note_on_c, 0, 69, 0
2, 113280, Note_on_c, 0, 77, 53
2, 113640, Note_on_c, 0, 77, 0
2, 113640, Note_on_c, 0, 74, 50
2, 113760, Note_on_c, 0, 74, 0
2, 113760, Note_on_c, 0, 77, 53
2, 114000, Note_on_c, 0, 77, 0
2, 114240, Note_on_c, 0, 86, 70
2, 114240, Note_on_c, 0, 82, 59
2, 114480, Note_on_c, 0, 82, 0
2, 114480, Note_on_c, 0, 86, 0
2, 114480, Note_on_c, 0, 81, 54
2, 114480, Note_on_c, 0, 84, 64
2, 114720, Note_on_c, 0, 84, 0
2, 114720, Note_on_c, 0, 81, 0
2, 114720, Note_on_c, 0, 82, 57
2, 114720, Note_on_c, 0, 79, 48
2, 114936, Note_on_c, 0, 79, 0
2, 114936, Note_on_c, 0, 82, 0
2, 114960, Note_on_c, 0, 78, 48
2, 114960, Note_on_c, 0, 81, 57
2, 115176, Note_on_c, 0, 81, 0
2, 115176, Note_on_c, 0, 78, 0
2, 115200, Note_on_c, 0, 82, 70
2, 115200, Note_on_c, 0, 79, 59
2, 115440, Note_on_c, 0, 79, 0
2, 115440, Note_on_c, 0, 82, 0
2, 115440, Note_on_c, 0, 81, 64
2, 115440, Note_on_c, 0, 77, 54
2, 115680, Note_on_c, 0, 77, 0
2, 115680, Note_on_c, 0, 81, 0
2, 115680, Note_on_c, 0, 79, 59
2, 115680, Note_on_c, 0, 75, 50
2, 115896, Note_on_c, 0, 75, 0
2, 115896, Note_on_c, 0, 79, 0
2, 115920, Note_on_c, 0, 74, 50
2, 115920, Note_on_c, 0, 78, 59
2, 116136, Note_on_c, 0, 78, 0
2, 116136, Note_on_c, 0, 74, 0
2, 116160, Note_on_c, 0, 75, 59
2, 116160, Note_on_c, 0, 79, 70
2, 116400, Note_on_c, 0, 79, 0
2, 116400, Note_on_c, 0, 75, 0
2, 116400, Note_on_c, 0, 74, 53
2, 116400, Note_on_c, 0, 77, 63
2, 116640, Note_on_c, 0, 77, 0
2, 116640, Note_on_c, 0, 74, 0
2, 116640, Note_on_c, 0, 75, 59
2, 116640, Note_on_c, 0, 72, 50
2, 116856, Note_on_c, 0, 72, 0
2, 116856, Note_on_c, 0, 75, 0
2, 116880, Note_on_c, 0, 71, 49
2, 116880, Note_on_c, 0, 74, 58
2, 117096, Note_on_c, 0, 74, 0
2, 117096, Note_on_c, 0, 71, 0
2, 117120, Note_on_c, 0, 67, 49
2, 117120, Note_on_c, 0, 74, 67
2, 117120, Note_on_c, 0, 71, 49
2, 118080, Note_on_c, 0, 71, 0
2, 118080, Note_on_c, 0, 74, 0
2, 118080, Note_on_c, 0, 72, 41
2, 118080, Note_on_c, 0, 75, 49
2, 118320, Note_on_c, 0, 72, 0
2, 118320, Note_on_c, 0, 67, 0
2, 118440, Note_on_c, 0, 75, 0
2, 118440, Note_on_c, 0, 79, 45
2, 118480, Note_on_c, 0, 79, 0
2, 118480, Note_on_c, 0, 77, 45
2, 118520, Note_on_c, 0, 77, 0
2, 118520, Note_on_c, 0, 75, 45
2, 118560, Note_on_c, 0, 75, 0
2, 118560, Note_on_c, 0, 77, 50
2, 118800, Note_on_c, 0, 77, 0
2, 118800, Note_on_c, 0, 79, 48
2, 119040, Note_on_c, 0, 79, 0
2, 119040, Note_on_c, 0, 79, 49
2, 119160, Note_on_c, 0, 79, 0
2, 119160, Note_on_c, 0, 77, 45
2, 119280, Note_on_c, 0, 77, 0
2, 119280, Note_on_c, 0, 75, 45
2, 119400, Note_on_c, 0, 75, 0
2, 119400, Note_on_c, 0, 74, 45
2, 119520, Note_on_c, 0, 74, 0
2, 119520, Note_on_c, 0, 71, 49
2, 119640, Note_on_c, 0, 71, 0
2, 119640, Note_on_c, 0, 72, 42
2, 119760, Note_on_c, 0, 72, 0
2, 119760, Note_on_c, 0, 75, 42
2, 119880, Note_on_c, 0, 75, 0
2, 119880, Note_on_c, 0, 79, 42
2, 120000, Note_on_c, 0, 79, 0
2, 120000, Note_on_c, 0, 70, 50
2, 120480, Note_on_c, 0, 70, 0
2, 120480, Note_on_c, 0, 72, 45
2, 120480, Note_on_c, 0, 69, 38
2, 120960, Note_on_c, 0, 69, 0
2, 120960, Note_on_c, 0, 72, 0
2, 120960, Note_on_c, 0, 69, 38
2, 120960, Note_on_c, 0, 72, 48
2, 121320, Note_on_c, 0, 72, 0
2, 121320, Note_on_c, 0, 73, 35
2, 121440, Note_on_c, 0, 73, 0
2, 121440, Note_on_c, 0, 69, 0
2, 121440, Note_on_c, 0, 74, 44
2, 121440, Note_on_c, 0, 70, 38
2, 121920, Note_on_c, 0, 70, 0
2, 121920, Note_on_c, 0, 74, 0
2, 122880, Note_on_c, 0, 77, 45
2, 123120, Note_on_c, 0, 77, 0
2, 123120, Note_on_c, 0, 75, 45
2, 123360, Note_on_c, 0, 75, 0
2, 123840, Note_on_c, 0, 74, 45
2, 124080, Note_on_c, 0, 74, 0
2, 124080, Note_on_c, 0, 72, 43
2, 124320, Note_on_c, 0, 72, 0
2, 124320, Note_on_c, 0, 70, 42
2, 124560, Note_on_c, 0, 70, 0
2, 124560, Note_on_c, 0, 69, 40
2, 124800, Note_on_c, 0, 69, 0
2, 124800, Note_on_c, 0, 77, 53
2, 125160, Note_on_c, 0, 77, 0
2, 125160, Note_on_c, 0, 74, 49
2, 125280, Note_on_c, 0, 74, 0
2, 125280, Note_on_c, 0, 77, 53
2, 125520, Note_on_c, 0, 77, 0
2, 126720, Note_on_c, 0, 77, 50
2, 126780, Note_on_c, 0, 77, 0
2, 126840, Note_on_c, 0, 76, 48
2, 126900, Note_on_c, 0, 76, 0
2, 126960, Note_on_c, 0, 75, 45
2, 127200, Note_on_c, 0, 75, 0
2, 127680, Note_on_c, 0, 74, 49
2, 127740, Note_on_c, 0, 74, 0
2, 127800, Note_on_c, 0, 74, 43
2, 127920, Note_on_c, 0, 74, 0
2, 127920, Note_on_c, 0, 75, 45
2, 128040, Note_on_c, 0, 75, 0
2, 128040, Note_on_c, 0, 72, 40
2, 128160, Note_on_c, 0, 72, 0
2, 128160, Note_on_c, 0, 70, 47
2, 128220, Note_on_c, 0, 70, 0
2, 128280, Note_on_c, 0, 70, 41
2, 128400, Note_on_c, 0, 70, 0
2, 128400, Note_on_c, 0, 72, 46
2, 128520, Note_on_c, 0, 72, 0
2, 128520, Note_on_c, 0, 69, 40
2, 128640, Note_on_c, 0, 69, 0
2, 128640, Note_on_c, 0, 77, 53
2, 128760, Note_on_c, 0, 77, 0
2, 128760, Note_on_c, 0, 79, 47
2, 128800, Note_on_c, 0, 79, 0
2, 128800, Note_on_c, 0, 77, 47
2, 128840, Note_on_c, 0, 77, 0
2, 128840, Note_on_c, 0, 76, 46
2, 128880, Note_on_c, 0, 76, 0
2, 128880, Note_on_c, 0, 77, 53
2, 129000, Note_on_c, 0, 77, 0
2, 129000, Note_on_c, 0, 82, 50
2, 129120, Note_on_c, 0, 82, 0
2, 129120, Note_on_c, 0, 77, 53
2, 129360, Note_on_c, 0, 77, 0
2, 129720, Note_on_c, 0, 82, 50
2, 129720, Note_on_c, 0, 86, 59
2, 129960, Note_on_c, 0, 86, 0
2, 129960, Note_on_c, 0, 82, 0
2, 129960, Note_on_c, 0, 84, 54
2, 129960, Note_on_c, 0, 81, 45
2, 130200, Note_on_c, 0, 81, 0
2, 130200, Note_on_c, 0, 84, 0
2, 130200, Note_on_c, 0, 79, 40
2, 130200, Note_on_c, 0, 82, 48
2, 130440, Note_on_c, 0, 82, 0
2, 130440, Note_on_c, 0, 79, 0
2, 130440, Note_on_c, 0, 81, 48
2, 130440, Note_on_c, 0, 78, 40
2, 130680, Note_on_c, 0, 78, 0
2, 130680, Note_on_c, 0, 81, 0
2, 130680, Note_on_c, 0, 82, 59
2, 130680, Note_on_c, 0, 79, 50
2, 130920, Note_on_c, 0, 79, 0
2, 130920, Note_on_c, 0, 82, 0
2, 130920, Note_on_c, 0, 77, 45
2, 130920, Note_on_c, 0, 81, 54
2, 131160, Note_on_c, 0, 81, 0
2, 131160, Note_on_c, 0, 77, 0
2, 131160, Note_on_c, 0, 79, 50
2, 131160, Note_on_c, 0, 75, 42
2, 131400, Note_on_c, 0, 75, 0
2, 131400, Note_on_c, 0, 79, 0
2, 131400, Note_on_c, 0, 78, 50
2, 131400, Note_on_c, 0, 74, 42
2, 131640, Note_on_c, 0, 74, 0
2, 131640, Note_on_c, 0, 78, 0
2, 131640, Note_on_c, 0, 75, 50
2, 131640, Note_on_c, 0, 79, 59
2, 131880, Note_on_c, 0, 79, 0
2, 131880, Note_on_c, 0, 75, 0
2, 131880, Note_on_c, 0, 74, 45
2, 131880, Note_on_c, 0, 77, 53
2, 132120, Note_on_c, 0, 77, 0
2, 132120, Note_on_c, 0, 74, 0
2, 132120, Note_on_c, 0, 75, 50
2, 132120, Note_on_c, 0, 72, 42
2, 132360, Note_on_c, 0, 72, 0
2, 132360, Note_on_c, 0, 75, 0
2, 132360, Note_on_c, 0, 71, 41
2, 132360, Note_on_c, 0, 74, 49
2, 132470, Note_on_c, 0, 74, 0
2, 132470, Note_on_c, 0, 71, 0
2, 132480, Note_on_c, 0, 74, 58
2, 132480, Note_on_c, 0, 71, 49
2, 132480, Note_on_c, 0, 67, 49
2, 133440, Note_on_c, 0, 71, 0
2, 133440, Note_on_c, 0, 74, 0
2, 133440, Note_on_c, 0, 75, 49
2, 133440, Note_on_c, 0, 72, 41
2, 133680, Note_on_c, 0, 72, 0
2, 133680, Note_on_c, 0, 67, 0
2, 133800, Note_on_c, 0, 75, 0
2, 133800, Note_on_c, 0, 79, 45
2, 133840, Note_on_c, 0, 79, 0
2, 133840, Note_on_c, 0, 77, 41
2, 133880, Note_on_c, 0, 77, 0
2, 133880, Note_on_c, 0, 75, 41
2, 133920, Note_on_c, 0, 75, 0
2, 133920, Note_on_c, 0, 77, 50
2, 134160, Note_on_c, 0, 77, 0
2, 134160, Note_on_c, 0, 79, 48
2, 134400, Note_on_c, 0, 79, 0
2, 134400, Note_on_c, 0, 77, 49
2, 134560, Note_on_c, 0, 77, 0
2, 134560, Note_on_c, 0, 82, 45
2, 134720, Note_on_c, 0, 82, 0
2, 134720, Note_on_c, 0, 74, 45
2, 134880, Note_on_c, 0, 74, 0
2, 134880, Note_on_c, 0, 72, 48
2, 135040, Note_on_c, 0, 72, 0
2, 135040, Note_on_c, 0, 75, 45
2, 135200, Note_on_c, 0, 75, 0
2, 135200, Note_on_c, 0, 79, 45
2, 135360, Note_on_c, 0, 79, 0
2, 135360, Note_on_c, 0, 70, 50
2, 135840, Note_on_c, 0, 70, 0
2, 135840, Note_on_c, 0, 69, 45
2, 136290, Note_on_c, 0, 69, 0
2, 136290, Note_on_c, 0, 62, 56
2, 136320, Note_on_c, 0, 62, 0
2, 136320, Note_on_c, 0, 74, 73
2, 136980, Note_on_c, 0, 74, 0
2, 136980, Note_on_c, 0, 70, 49
2, 137040, Note_on_c, 0, 70, 0
2, 137040, Note_on_c, 0, 70, 53
2, 137088, Note_on_c, 0, 70, 0
2, 137088, Note_on_c, 0, 72, 50
2, 137136, Note_on_c, 0, 72, 0
2, 137136, Note_on_c, 0, 70, 54
2, 137184, Note_on_c, 0, 70, 0
2, 137184, Note_on_c, 0, 69, 51
2, 137232, Note_on_c, 0, 69, 0
2, 137232, Note_on_c, 0, 70, 54
2, 137280, Note_on_c, 0, 70, 0
2, 137280, Note_on_c, 0, 63, 60
2, 137310, Note_on_c, 0, 75, 74
2, 137340, Note_on_c, 0, 63, 0
2, 137940, Note_on_c, 0, 75, 0
2, 137940, Note_on_c, 0, 72, 53
2, 138000, Note_on_c, 0, 72, 0
2, 138000, Note_on_c, 0, 72, 56
2, 138048, Note_on_c, 0, 72, 0
2, 138048, Note_on_c, 0, 74, 54
2, 138096, Note_on_c, 0, 74, 0
2, 138096, Note_on_c, 0, 72, 56
2, 138144, Note_on_c, 0, 72, 0
2, 138144, Note_on_c, 0, 71, 53
2, 138192, Note_on_c, 0, 71, 0
2, 138192, Note_on_c, 0, 72, 56
2, 138240, Note_on_c, 0, 72, 0
2, 138240, Note_on_c, 0, 77, 74
2, 138600, Note_on_c, 0, 77, 0
2, 138600, Note_on_c, 0, 74, 61
2, 138720, Note_on_c, 0, 74, 0
2, 138720, Note_on_c, 0, 82, 69
2, 139440, Note_on_c, 0, 82, 0
2, 139440, Note_on_c, 0, 80, 62
2, 139680, Note_on_c, 0, 80, 0
2, 139680, Note_on_c, 0, 79, 67
2, 139920, Note_on_c, 0, 79, 0
2, 139920, Note_on_c, 0, 78, 62
2, 140280, Note_on_c, 0, 78, 0
2, 140280, Note_on_c, 0, 79, 69
2, 140400, Note_on_c, 0, 79, 0
2, 140400, Note_on_c, 0, 82, 62
2, 140520, Note_on_c, 0, 82, 0
2, 140520, Note_on_c, 0, 79, 63
2, 140640, Note_on_c, 0, 79, 0
2, 140640, Note_on_c, 0, 74, 64
2, 140760, Note_on_c, 0, 74, 0
2, 140760, Note_on_c, 0, 75, 60
2, 140880, Note_on_c, 0, 75, 0
2, 140880, Note_on_c, 0, 79, 60
2, 141000, Note_on_c, 0, 79, 0
2, 141000, Note_on_c, 0, 75, 60
2, 141120, Note_on_c, 0, 71, 68
2, 141130, Note_on_c, 0, 75, 0
2, 141240, Note_on_c, 0, 71, 0
2, 141240, Note_on_c, 0, 72, 60
2, 141360, Note_on_c, 0, 75, 60
2, 141370, Note_on_c, 0, 72, 0
2, 141480, Note_on_c, 0, 75, 0
2, 141480, Note_on_c, 0, 74, 60
2, 141600, Note_on_c, 0, 77, 63
2, 141610, Note_on_c, 0, 74, 0
2, 141720, Note_on_c, 0, 77, 0
2, 141720, Note_on_c, 0, 75, 62
2, 141840, Note_on_c, 0, 74, 60
2, 141850, Note_on_c, 0, 75, 0
2, 141960, Note_on_c, 0, 74, 0
2, 141960, Note_on_c, 0, 72, 58
2, 142020, Note_on_c, 0, 72, 0
2, 142020, Note_on_c, 0, 65, 46
2, 142080, Note_on_c, 0, 65, 0
2, 142080, Note_on_c, 0, 77, 60
2, 142320, Note_on_c, 0, 77, 0
2, 142320, Note_on_c, 0, 77, 60
2, 142800, Note_on_c, 0, 77, 0
2, 142800, Note_on_c, 0, 77, 64
2, 143160, Note_on_c, 0, 77, 0
2, 143160, Note_on_c, 0, 75, 60
2, 143280, Note_on_c, 0, 75, 0
2, 143280, Note_on_c, 0, 74, 60
2, 143400, Note_on_c, 0, 74, 0
2, 143400, Note_on_c, 0, 75, 60
2, 143520, Note_on_c, 0, 75, 0
2, 143520, Note_on_c, 0, 77, 60
2, 143640, Note_on_c, 0, 77, 0
2, 143640, Note_on_c, 0, 79, 61
2, 143760, Note_on_c, 0, 79, 0
2, 143760, Note_on_c, 0, 81, 62
2, 143880, Note_on_c, 0, 81, 0
2, 143880, Note_on_c, 0, 82, 63
2, 143940, Note_on_c, 0, 82, 0
2, 143940, Note_on_c, 0, 70, 44
2, 143960, Note_on_c, 0, 70, 0
2, 143960, Note_on_c, 0, 72, 44
2, 143980, Note_on_c, 0, 72, 0
2, 143980, Note_on_c, 0, 74, 44
2, 144000, Note_on_c, 0, 74, 0
2, 144000, Note_on_c, 0, 72, 44
2, 144051, Note_on_c, 0, 72, 0
2, 144051, Note_on_c, 0, 74, 41
2, 144101, Note_on_c, 0, 74, 0
2, 144101, Note_on_c, 0, 72, 44
2, 144151, Note_on_c, 0, 74, 39
2, 144152, Note_on_c, 0, 72, 0
2, 144202, Note_on_c, 0, 74, 0
2, 144202, Note_on_c, 0, 72, 44
2, 144252, Note_on_c, 0, 72, 0
2, 144252, Note_on_c, 0, 74, 39
2, 144303, Note_on_c, 0, 74, 0
2, 144303, Note_on_c, 0, 72, 44
2, 144353, Note_on_c, 0, 72, 0
2, 144353, Note_on_c, 0, 74, 39
2, 144403, Note_on_c, 0, 72, 44
2, 144404, Note_on_c, 0, 74, 0
2, 144454, Note_on_c, 0, 72, 0
2, 144454, Note_on_c, 0, 74, 39
2, 144504, Note_on_c, 0, 74, 0
2, 144504, Note_on_c, 0, 72, 44
2, 144555, Note_on_c, 0, 72, 0
2, 144555, Note_on_c, 0, 74, 38
2, 144605, Note_on_c, 0, 74, 0
2, 144605, Note_on_c, 0, 72, 44
2, 144655, Note_on_c, 0, 74, 38
2, 144656, Note_on_c, 0, 72, 0
2, 144706, Note_on_c, 0, 74, 0
2, 144706, Note_on_c, 0, 72, 44
2, 144756, Note_on_c, 0, 72, 0
2, 144756, Note_on_c, 0, 74, 38
2, 144807, Note_on_c, 0, 74, 0
2, 144807, Note_on_c, 0, 72, 43
2, 144857, Note_on_c, 0, 72, 0
2, 144857, Note_on_c, 0, 74, 38
2, 144907, Note_on_c, 0, 72, 43
2, 144908, Note_on_c, 0, 74, 0
2, 144958, Note_on_c, 0, 72, 0
2, 144958, Note_on_c, 0, 74, 36
2, 145008, Note_on_c, 0, 74, 0
2, 145008, Note_on_c, 0, 72, 42
2, 145059, Note_on_c, 0, 72, 0
2, 145059, Note_on_c, 0, 74, 36
2, 145109, Note_on_c, 0, 74, 0
2, 145109, Note_on_c, 0, 72, 42
2, 145159, Note_on_c, 0, 74, 36
2, 145160, Note_on_c, 0, 72, 0
2, 145200, Note_on_c, 0, 72, 42
2, 145210, Note_on_c, 0, 74, 0
2, 145260, Note_on_c, 0, 72, 0
2, 145260, Note_on_c, 0, 74, 40
2, 145320, Note_on_c, 0, 74, 0
2, 145320, Note_on_c, 0, 72, 42
2, 145380, Note_on_c, 0, 72, 0
2, 145380, Note_on_c, 0, 74, 39
2, 145440, Note_on_c, 0, 74, 0
2, 145440, Note_on_c, 0, 72, 42
2, 145500, Note_on_c, 0, 72, 0
2, 145500, Note_on_c, 0, 74, 36
2, 145560, Note_on_c, 0, 74, 0
2, 145560, Note_on_c, 0, 72, 42
2, 145620, Note_on_c, 0, 72, 0
2, 145620, Note_on_c, 0, 74, 37
2, 145680, Note_on_c, 0, 74, 0
2, 145680, Note_on_c, 0, 72, 38
2, 145760, Note_on_c, 0, 72, 0
2, 145760, Note_on_c, 0, 70, 48
2, 145840, Note_on_c, 0, 70, 0
2, 145840, Note_on_c, 0, 72, 42
2, 145920, Note_on_c, 0, 72, 0
2, 145920, Note_on_c, 0, 70, 53
2, 146400, Note_on_c, 0, 70, 0
2, 146580, Note_on_c, 0, 70, 49
2, 146640, Note_on_c, 0, 70, 0
2, 146640, Note_on_c, 0, 70, 50
2, 146688, Note_on_c, 0, 70, 0
2, 146688, Note_on_c, 0, 72, 51
2, 146736, Note_on_c, 0, 72, 0
2, 146736, Note_on_c, 0, 70, 51
2, 146784, Note_on_c, 0, 70, 0
2, 146784, Note_on_c, 0, 69, 54
2, 146832, Note_on_c, 0, 69, 0
2, 146832, Note_on_c, 0, 70, 54
2, 146880, Note_on_c, 0, 70, 0
2, 146880, Note_on_c, 0, 77, 63
2, 147120, Note_on_c, 0, 77, 0
2, 147120, Note_on_c, 0, 75, 58
2, 147360, Note_on_c, 0, 75, 0
2, 147360, Note_on_c, 0, 74, 53
2, 147600, Note_on_c, 0, 74, 0
2, 147600, Note_on_c, 0, 72, 53
2, 147830, Note_on_c, 0, 72, 0
2, 147840, Note_on_c, 0, 72, 62
2, 148080, Note_on_c, 0, 72, 0
2, 148080, Note_on_c, 0, 70, 51
2, 148320, Note_on_c, 0, 70, 0
2, 148500, Note_on_c, 0, 70, 49
2, 148560, Note_on_c, 0, 70, 0
2, 148560, Note_on_c, 0, 70, 50
2, 148608, Note_on_c, 0, 70, 0
2, 148608, Note_on_c, 0, 72, 51
2, 148656, Note_on_c, 0, 72, 0
2, 148656, Note_on_c, 0, 70, 51
2, 148704, Note_on_c, 0, 70, 0
2, 148704, Note_on_c, 0, 69, 54
2, 148752, Note_on_c, 0, 69, 0
2, 148752, Note_on_c, 0, 70, 54
2, 148800, Note_on_c, 0, 70, 0
2, 148800, Note_on_c, 0, 77, 63
2, 149040, Note_on_c, 0, 77, 0
2, 149040, Note_on_c, 0, 75, 58
2, 149280, Note_on_c, 0, 75, 0
2, 149280, Note_on_c, 0, 74, 53
2, 149520, Note_on_c, 0, 74, 0
2, 149520, Note_on_c, 0, 72, 53
2, 149760, Note_on_c, 0, 72, 0
2, 149760, Note_on_c, 0, 70, 59
2, 150000, Note_on_c, 0, 70, 0
2, 150240, Note_on_c, 0, 75, 48
2, 150600, Note_on_c, 0, 75, 0
2, 150600, Note_on_c, 0, 69, 50
2, 150720, Note_on_c, 0, 69, 0
2, 150720, Note_on_c, 0, 70, 56
2, 150960, Note_on_c, 0, 70, 0
2, 151200, Note_on_c, 0, 79, 64
2, 151560, Note_on_c, 0, 79, 0
2, 151560, Note_on_c, 0, 69, 45
2, 151680, Note_on_c, 0, 69, 0
2, 151680, Note_on_c, 0, 65, 36
2, 151680, Note_on_c, 0, 60, 36
2, 151680, Note_on_c, 0, 69, 45
2, 151680, Note_on_c, 0, 63, 36
2, 152640, Note_on_c, 0, 63, 0
2, 152640, Note_on_c, 0, 69, 0
2, 152640, Note_on_c, 0, 60, 0
2, 152640, Note_on_c, 0, 62, 24
2, 152640, Note_on_c, 0, 70, 31
2, 153120, Note_on_c, 0, 70, 0
2, 153120, Note_on_c, 0, 62, 0
2, 153120, Note_on_c, 0, 65, 0
2, 153120, End_track
3, 0, Start_track
3, 0, Title_t, "Piano left"
3, 0, Program_c, 0, 0
3, 0, Control_c, 0, 7, 100
3, 0, Control_c, 0, 10, 64
3, 0, Note_on_c, 0, 58, 36
3, 240, Note_on_c, 0, 58, 0
3, 240, Note_on_c, 0, 65, 27
3, 480, Note_on_c, 0, 65, 0
3, 480, Note_on_c, 0, 62, 27
3, 720, Note_on_c, 0, 62, 0
3, 720, Note_on_c, 0, 65, 27
3, 960, Note_on_c, 0, 65, 0
3, 960, Note_on_c, 0, 58, 36
3, 1200, Note_on_c, 0, 58, 0
3, 1200, Note_on_c, 0, 65, 28
3, 1440, Note_on_c, 0, 65, 0
3, 1440, Note_on_c, 0, 62, 28
3, 1680, Note_on_c, 0, 62, 0
3, 1680, Note_on_c, 0, 65, 28
3, 1920, Note_on_c, 0, 65, 0
3, 1920, Note_on_c, 0, 57, 36
3, 2160, Note_on_c, 0, 57, 0
3, 2160, Note_on_c, 0, 65, 25
3, 2400, Note_on_c, 0, 65, 0
3, 2400, Note_on_c, 0, 60, 27
3, 2640, Note_on_c, 0, 60, 0
3, 2640, Note_on_c, 0, 65, 24
3, 2880, Note_on_c, 0, 65, 0
3, 2880, Note_on_c, 0, 57, 30
3, 3120, Note_on_c, 0, 57, 0
3, 3120, Note_on_c, 0, 65, 22
3, 3360, Note_on_c, 0, 65, 0
3, 3360, Note_on_c, 0, 60, 27
3, 3600, Note_on_c, 0, 60, 0
3, 3600, Note_on_c, 0, 65, 23
3, 3840, Note_on_c, 0, 65, 0
3, 3840, Note_on_c, 0, 55, 36
3, 4080, Note_on_c, 0, 55, 0
3, 4080, Note_on_c, 0, 63, 32
3, 4320, Note_on_c, 0, 63, 0
3, 4320, Note_on_c, 0, 58, 32
3, 4560, Note_on_c, 0, 58, 0
3, 4560, Note_on_c, 0, 63, 32
3, 4800, Note_on_c, 0, 63, 0
3, 4800, Note_on_c, 0, 51, 36
3, 5040, Note_on_c, 0, 51, 0
3, 5040, Note_on_c, 0, 58, 33
3, 5280, Note_on_c, 0, 58, 0
3, 5280, Note_on_c, 0, 55, 35
3, 5520, Note_on_c, 0, 55, 0
3, 5520, Note_on_c, 0, 58, 36
3, 5760, Note_on_c, 0, 58, 0
3, 5760, Note_on_c, 0, 50, 41
3, 6000, Note_on_c, 0, 50, 0
3, 6000, Note_on_c, 0, 58, 30
3, 6240, Note_on_c, 0, 58, 0
3, 6240, Note_on_c, 0, 53, 35
3, 6480, Note_on_c, 0, 53, 0
3, 6480, Note_on_c, 0, 58, 28
3, 6720, Note_on_c, 0, 58, 0
3, 6720, Note_on_c, 0, 50, 36
3, 6960, Note_on_c, 0, 50, 0
3, 6960, Note_on_c, 0, 58, 26
3, 7200, Note_on_c, 0, 58, 0
3, 7200, Note_on_c, 0, 53, 31
3, 7440, Note_on_c, 0, 53, 0
3, 7440, Note_on_c, 0, 58, 27
3, 7680, Note_on_c, 0, 58, 0
3, 7680, Note_on_c, 0, 51, 36
3, 7920, Note_on_c, 0, 51, 0
3, 7920, Note_on_c, 0, 55, 27
3, 8160, Note_on_c, 0, 55, 0
3, 8160, Note_on_c, 0, 51, 31
3, 8400, Note_on_c, 0, 51, 0
3, 8400, Note_on_c, 0, 59, 27
3, 8640, Note_on_c, 0, 59, 0
3, 8640, Note_on_c, 0, 51, 34
3, 8880, Note_on_c, 0, 51, 0
3, 8880, Note_on_c, 0, 60, 27
3, 9120, Note_on_c, 0, 60, 0
3, 9120, Note_on_c, 0, 51, 27
3, 9360, Note_on_c, 0, 51, 0
3, 9360, Note_on_c, 0, 63, 27
3, 9600, Note_on_c, 0, 63, 0
3, 9600, Note_on_c, 0, 50, 36
3, 9840, Note_on_c, 0, 50, 0
3, 9840, Note_on_c, 0, 53, 29
3, 10080, Note_on_c, 0, 53, 0
3, 10080, Note_on_c, 0, 50, 33
3, 10320, Note_on_c, 0, 50, 0
3, 10320, Note_on_c, 0, 57, 33
3, 10560, Note_on_c, 0, 57, 0
3, 10560, Note_on_c, 0, 50, 36
3, 10800, Note_on_c, 0, 50, 0
3, 10800, Note_on_c, 0, 58, 30
3, 11040, Note_on_c, 0, 58, 0
3, 11040, Note_on_c, 0, 50, 31
3, 11280, Note_on_c, 0, 50, 0
3, 11280, Note_on_c, 0, 62, 33
3, 11520, Note_on_c, 0, 62, 0
3, 11520, Note_on_c, 0, 53, 36
3, 11760, Note_on_c, 0, 53, 0
3, 11760, Note_on_c, 0, 65, 30
3, 12000, Note_on_c, 0, 65, 0
3, 12000, Note_on_c, 0, 60, 30
3, 12240, Note_on_c, 0, 60, 0
3, 12240, Note_on_c, 0, 65, 25
3, 12480, Note_on_c, 0, 65, 0
3, 12480, Note_on_c, 0, 58, 36
3, 12720, Note_on_c, 0, 58, 0
3, 12720, Note_on_c, 0, 65, 28
3, 12960, Note_on_c, 0, 65, 0
3, 12960, Note_on_c, 0, 62, 31
3, 13200, Note_on_c, 0, 62, 0
3, 13200, Note_on_c, 0, 65, 30
3, 13440, Note_on_c, 0, 65, 0
3, 13440, Note_on_c, 0, 53, 36
3, 13680, Note_on_c, 0, 53, 0
3, 13680, Note_on_c, 0, 62, 25
3, 13920, Note_on_c, 0, 62, 0
3, 13920, Note_on_c, 0, 58, 25
3, 14160, Note_on_c, 0, 58, 0
3, 14160, Note_on_c, 0, 62, 25
3, 14400, Note_on_c, 0, 62, 0
3, 14400, Note_on_c, 0, 53, 36
3, 14400, Note_on_c, 0, 60, 36
3, 14400, Note_on_c, 0, 57, 36
3, 14880, Note_on_c, 0, 57, 0
3, 14880, Note_on_c, 0, 60, 0
3, 14880, Note_on_c, 0, 53, 0
3, 15360, Note_on_c, 0, 58, 36
3, 15600, Note_on_c, 0, 58, 0
3, 15600, Note_on_c, 0, 65, 31
3, 15840, Note_on_c, 0, 65, 0
3, 15840, Note_on_c, 0, 61, 31
3, 16080, Note_on_c, 0, 61, 0
3, 16080, Note_on_c, 0, 65, 31
3, 16320, Note_on_c, 0, 65, 0
3, 16320, Note_on_c, 0, 58, 36
3, 16560, Note_on_c, 0, 58, 0
3, 16560, Note_on_c, 0, 65, 31
3, 16800, Note_on_c, 0, 65, 0
3, 16800, Note_on_c, 0, 61, 31
3, 17040, Note_on_c, 0, 61, 0
3, 17040, Note_on_c, 0, 65, 31
3, 17280, Note_on_c, 0, 65, 0
3, 17280, Note_on_c, 0, 56, 36
3, 17520, Note_on_c, 0, 56, 0
3, 17520, Note_on_c, 0, 65, 27
3, 17760, Note_on_c, 0, 65, 0
3, 17760, Note_on_c, 0, 60, 29
3, 18000, Note_on_c, 0, 60, 0
3, 18000, Note_on_c, 0, 65, 27
3, 18240, Note_on_c, 0, 65, 0
3, 18240, Note_on_c, 0, 56, 36
3, 18480, Note_on_c, 0, 56, 0
3, 18480, Note_on_c, 0, 65, 27
3, 18720, Note_on_c, 0, 65, 0
3, 18720, Note_on_c, 0, 60, 30
3, 18960, Note_on_c, 0, 60, 0
3, 18960, Note_on_c, 0, 65, 26
3, 19200, Note_on_c, 0, 65, 0
3, 19200, Note_on_c, 0, 54, 36
3, 19440, Note_on_c, 0, 54, 0
3, 19440, Note_on_c, 0, 63, 32
3, 19680, Note_on_c, 0, 63, 0
3, 19680, Note_on_c, 0, 58, 32
3, 19920, Note_on_c, 0, 58, 0
3, 19920, Note_on_c, 0, 63, 32
3, 20160, Note_on_c, 0, 63, 0
3, 20160, Note_on_c, 0, 51, 39
3, 20400, Note_on_c, 0, 51, 0
3, 20400, Note_on_c, 0, 58, 33
3, 20640, Note_on_c, 0, 58, 0
3, 20640, Note_on_c, 0, 54, 36
3, 20880, Note_on_c, 0, 54, 0
3, 20880, Note_on_c, 0, 58, 36
3, 21120, Note_on_c, 0, 58, 0
3, 21120, Note_on_c, 0, 50, 44
3, 21360, Note_on_c, 0, 50, 0
3, 21360, Note_on_c, 0, 58, 35
3, 21600, Note_on_c, 0, 58, 0
3, 21600, Note_on_c, 0, 53, 42
3, 21840, Note_on_c, 0, 53, 0
3, 21840, Note_on_c, 0, 58, 40
3, 22080, Note_on_c, 0, 58, 0
3, 22080, Note_on_c, 0, 49, 46
3, 22320, Note_on_c, 0, 49, 0
3, 22320, Note_on_c, 0, 58, 45
3, 22560, Note_on_c, 0, 58, 0
3, 22560, Note_on_c, 0, 53, 50
3, 22800, Note_on_c, 0, 53, 0
3, 22800, Note_on_c, 0, 58, 45
3, 23040, Note_on_c, 0, 58, 0
3, 23040, Note_on_c, 0, 48, 54
3, 23280, Note_on_c, 0, 48, 0
3, 23280, Note_on_c, 0, 58, 36
3, 23520, Note_on_c, 0, 58, 0
3, 23520, Note_on_c, 0, 55, 36
3, 23760, Note_on_c, 0, 55, 0
3, 23760, Note_on_c, 0, 58, 36
3, 24000, Note_on_c, 0, 58, 0
3, 24000, Note_on_c, 0, 48, 37
3, 24240, Note_on_c, 0, 48, 0
3, 24240, Note_on_c, 0, 58, 24
3, 24480, Note_on_c, 0, 58, 0
3, 24480, Note_on_c, 0, 55, 27
3, 24720, Note_on_c, 0, 55, 0
3, 24720, Note_on_c, 0, 58, 23
3, 24960, Note_on_c, 0, 58, 0
3, 24960, Note_on_c, 0, 49, 34
3, 25200, Note_on_c, 0, 49, 0
3, 25200, Note_on_c, 0, 56, 22
3, 25440, Note_on_c, 0, 56, 0
3, 25440, Note_on_c, 0, 53, 27
3, 25680, Note_on_c, 0, 53, 0
3, 25680, Note_on_c, 0, 56, 23
3, 25920, Note_on_c, 0, 56, 0
3, 25920, Note_on_c, 0, 46, 29
3, 26160, Note_on_c, 0, 46, 0
3, 26160, Note_on_c, 0, 55, 22
3, 26400, Note_on_c, 0, 55, 0
3, 26400, Note_on_c, 0, 49, 23
3, 26640, Note_on_c, 0, 49, 0
3, 26640, Note_on_c, 0, 55, 22
3, 26880, Note_on_c, 0, 55, 0
3, 26880, Note_on_c, 0, 48, 30
3, 27120, Note_on_c, 0, 48, 0
3, 27120, Note_on_c, 0, 56, 26
3, 27360, Note_on_c, 0, 56, 0
3, 27360, Note_on_c, 0, 53, 26
3, 27600, Note_on_c, 0, 53, 0
3, 27600, Note_on_c, 0, 56, 26
3, 27840, Note_on_c, 0, 56, 0
3, 27840, Note_on_c, 0, 48, 30
3, 28080, Note_on_c, 0, 48, 0
3, 28080, Note_on_c, 0, 58, 26
3, 28320, Note_on_c, 0, 58, 0
3, 28320, Note_on_c, 0, 55, 26
3, 28560, Note_on_c, 0, 55, 0
3, 28560, Note_on_c, 0, 58, 26
3, 28800, Note_on_c, 0, 58, 0
3, 28800, Note_on_c, 0, 53, 27
3, 28800, Note_on_c, 0, 57, 38
3, 29040, Note_on_c, 0, 57, 0
3, 29040, Note_on_c, 0, 60, 30
3, 29160, Note_on_c, 0, 60, 0
3, 29280, Note_on_c, 0, 53, 0
3, 29280, Note_on_c, 0, 60, 30
3, 29400, Note_on_c, 0, 60, 0
3, 29520, Note_on_c, 0, 60, 30
3, 29640, Note_on_c, 0, 60, 0
3, 29760, Note_on_c, 0, 53, 32
3, 29760, Note_on_c, 0, 57, 38
3, 30000, Note_on_c, 0, 57, 0
3, 30000, Note_on_c, 0, 60, 28
3, 30240, Note_on_c, 0, 60, 0
3, 30240, Note_on_c, 0, 53, 0
3, 30240, Note_on_c, 0, 58, 28
3, 30240, Note_on_c, 0, 55, 23
3, 30480, Note_on_c, 0, 58, 0
3, 30480, Note_on_c, 0, 60, 28
3, 30720, Note_on_c, 0, 60, 0
3, 30720, Note_on_c, 0, 55, 0
3, 30720, Note_on_c, 0, 52, 29
3, 30720, Note_on_c, 0, 55, 35
3, 30960, Note_on_c, 0, 55, 0
3, 30960, Note_on_c, 0, 60, 30
3, 31080, Note_on_c, 0, 60, 0
3, 31200, Note_on_c, 0, 52, 0
3, 31200, Note_on_c, 0, 60, 30
3, 31320, Note_on_c, 0, 60, 0
3, 31440, Note_on_c, 0, 60, 30
3, 31560, Note_on_c, 0, 60, 0
3, 31680, Note_on_c, 0, 48, 28
3, 31680, Note_on_c, 0, 52, 34
3, 31920, Note_on_c, 0, 52, 0
3, 31920, Note_on_c, 0, 60, 31
3, 32160, Note_on_c, 0, 60, 0
3, 32160, Note_on_c, 0, 48, 0
3, 32160, Note_on_c, 0, 58, 31
3, 32160, Note_on_c, 0, 55, 26
3, 32400, Note_on_c, 0, 58, 0
3, 32400, Note_on_c, 0, 60, 31
3, 32640, Note_on_c, 0, 60, 0
3, 32640, Note_on_c, 0, 55, 0
3, 32640, Note_on_c, 0, 53, 32
3, 32640, Note_on_c, 0, 57, 38
3, 32880, Note_on_c, 0, 57, 0
3, 32880, Note_on_c, 0, 60, 30
3, 33000, Note_on_c, 0, 60, 0
3, 33120, Note_on_c, 0, 53, 0
3, 33120, Note_on_c, 0, 60, 30
3, 33240, Note_on_c, 0, 60, 0
3, 33360, Note_on_c, 0, 60, 30
3, 33480, Note_on_c, 0, 60, 0
3, 33600, Note_on_c, 0, 57, 38
3, 33600, Note_on_c, 0, 53, 32
3, 33840, Note_on_c, 0, 57, 0
3, 33840, Note_on_c, 0, 60, 28
3, 34080, Note_on_c, 0, 60, 0
3, 34080, Note_on_c, 0, 53, 0
3, 34080, Note_on_c, 0, 55, 23
3, 34080, Note_on_c, 0, 58, 28
3, 34320, Note_on_c, 0, 58, 0
3, 34320, Note_on_c, 0, 60, 28
3, 34560, Note_on_c, 0, 60, 0
3, 34560, Note_on_c, 0, 55, 0
3, 34560, Note_on_c, 0, 55, 35
3, 34560, Note_on_c, 0, 52, 29
3, 34800, Note_on_c, 0, 55, 0
3, 34800, Note_on_c, 0, 60, 30
3, 34920, Note_on_c, 0, 60, 0
3, 35040, Note_on_c, 0, 52, 0
3, 35040, Note_on_c, 0, 60, 30
3, 35160, Note_on_c, 0, 60, 0
3, 35280, Note_on_c, 0, 60, 30
3, 35400, Note_on_c, 0, 60, 0
3, 35520, Note_on_c, 0, 48, 28
3, 35520, Note_on_c, 0, 52, 34
3, 35760, Note_on_c, 0, 52, 0
3, 35760, Note_on_c, 0, 60, 31
3, 36000, Note_on_c, 0, 60, 0
3, 36000, Note_on_c, 0, 48, 0
3, 36000, Note_on_c, 0, 55, 26
3, 36000, Note_on_c, 0, 58, 31
3, 36240, Note_on_c, 0, 58, 0
3, 36240, Note_on_c, 0, 60, 31
3, 36480, Note_on_c, 0, 60, 0
3, 36480, Note_on_c, 0, 55, 0
3, 36480, Note_on_c, 0, 57, 38
3, 36480, Note_on_c, 0, 53, 32
3, 36960, Note_on_c, 0, 53, 0
3, 36960, Note_on_c, 0, 57, 0
3, 40320, Note_on_c, 0, 54, 27
3, 40320, Note_on_c, 0, 50, 27
3, 40320, Note_on_c, 0, 60, 32
3, 40320, Note_on_c, 0, 57, 27
3, 41280, Note_on_c, 0, 57, 0
3, 41280, Note_on_c, 0, 54, 0
3, 41280, Note_on_c, 0, 50, 0
3, 41280, Note_on_c, 0, 60, 0
3, 41280, Note_on_c, 0, 55, 35
3, 41280, Note_on_c, 0, 58, 42
3, 41760, Note_on_c, 0, 58, 0
3, 41760, Note_on_c, 0, 64, 44
3, 42240, Note_on_c, 0, 64, 0
3, 42240, Note_on_c, 0, 55, 0
3, 42240, Note_on_c, 0, 57, 40
3, 42240, Note_on_c, 0, 65, 48
3, 42720, Note_on_c, 0, 65, 0
3, 42720, Note_on_c, 0, 57, 0
3, 42720, Note_on_c, 0, 58, 38
3, 42720, Note_on_c, 0, 62, 45
3, 43200, Note_on_c, 0, 62, 0
3, 43200, Note_on_c, 0, 58, 0
3, 43200, Note_on_c, 0, 57, 44
3, 43200, Note_on_c, 0, 48, 37
3, 43680, Note_on_c, 0, 57, 0
3, 43680, Note_on_c, 0, 58, 40
3, 44160, Note_on_c, 0, 58, 0
3, 44160, Note_on_c, 0, 48, 0
3, 44160, Note_on_c, 0, 57, 38
3, 44160, Note_on_c, 0, 53, 32
3, 44400, Note_on_c, 0, 57, 0
3, 44400, Note_on_c, 0, 60, 30
3, 44520, Note_on_c, 0, 60, 0
3, 44640, Note_on_c, 0, 53, 0
3, 44640, Note_on_c, 0, 60, 30
3, 44760, Note_on_c, 0, 60, 0
3, 44880, Note_on_c, 0, 60, 30
3, 45000, Note_on_c, 0, 60, 0
3, 45120, Note_on_c, 0, 53, 28
3, 45120, Note_on_c, 0, 57, 33
3, 45360, Note_on_c, 0, 57, 0
3, 45360, Note_on_c, 0, 60, 27
3, 45600, Note_on_c, 0, 60, 0
3, 45600, Note_on_c, 0, 53, 0
3, 45600, Note_on_c, 0, 58, 27
3, 45600, Note_on_c, 0, 55, 22
3, 45840, Note_on_c, 0, 58, 0
3, 45840, Note_on_c, 0, 60, 27
3, 46080, Note_on_c, 0, 60, 0
3, 46080, Note_on_c, 0, 55, 0
3, 46080, Note_on_c, 0, 52, 29
3, 46080, Note_on_c, 0, 55, 35
3, 46320, Note_on_c, 0, 55, 0
3, 46320, Note_on_c, 0, 60, 30
3, 46440, Note_on_c, 0, 60, 0
3, 46560, Note_on_c, 0, 52, 0
3, 46560, Note_on_c, 0, 60, 30
3, 46680, Note_on_c, 0, 60, 0
3, 46800, Note_on_c, 0, 60, 30
3, 46920, Note_on_c, 0, 60, 0
3, 47040, Note_on_c, 0, 48, 28
3, 47040, Note_on_c, 0, 52, 34
3, 47280, Note_on_c, 0, 52, 0
3, 47280, Note_on_c, 0, 60, 31
3, 47520, Note_on_c, 0, 60, 0
3, 47520, Note_on_c, 0, 48, 0
3, 47520, Note_on_c, 0, 58, 31
3, 47520, Note_on_c, 0, 55, 26
3, 47760, Note_on_c, 0, 58, 0
3, 47760, Note_on_c, 0, 60, 31
3, 48000, Note_on_c, 0, 60, 0
3, 48000, Note_on_c, 0, 55, 0
3, 48000, Note_on_c, 0, 53, 32
3, 48000, Note_on_c, 0, 57, 38
3, 48240, Note_on_c, 0, 57, 0
3, 48240, Note_on_c, 0, 60, 30
3, 48360, Note_on_c, 0, 60, 0
3, 48480, Note_on_c, 0, 53, 0
3, 48480, Note_on_c, 0, 60, 30
3, 48600, Note_on_c, 0, 60, 0
3, 48720, Note_on_c, 0, 60, 30
3, 48840, Note_on_c, 0, 60, 0
3, 48960, Note_on_c, 0, 53, 32
3, 48960, Note_on_c, 0, 57, 38
3, 49200, Note_on_c, 0, 57, 0
3, 49200, Note_on_c, 0, 60, 28
3, 49440, Note_on_c, 0, 60, 0
3, 49440, Note_on_c, 0, 53, 0
3, 49440, Note_on_c, 0, 58, 28
3, 49440, Note_on_c, 0, 55, 23
3, 49680, Note_on_c, 0, 58, 0
3, 49680, Note_on_c, 0, 60, 28
3, 49920, Note_on_c, 0, 60, 0
3, 49920, Note_on_c, 0, 55, 0
3, 49920, Note_on_c, 0, 52, 29
3, 49920, Note_on_c, 0, 55, 35
3, 50160, Note_on_c, 0, 55, 0
3, 50160, Note_on_c, 0, 60, 30
3, 50280, Note_on_c, 0, 60, 0
3, 50400, Note_on_c, 0, 52, 0
3, 50400, Note_on_c, 0, 60, 30
3, 50520, Note_on_c, 0, 60, 0
3, 50640, Note_on_c, 0, 60, 30
3, 50760, Note_on_c, 0, 60, 0
3, 50880, Note_on_c, 0, 48, 28
3, 50880, Note_on_c, 0, 52, 34
3, 51120, Note_on_c, 0, 52, 0
3, 51120, Note_on_c, 0, 60, 31
3, 51360, Note_on_c, 0, 60, 0
3, 51360, Note_on_c, 0, 48, 0
3, 51360, Note_on_c, 0, 55, 26
3, 51360, Note_on_c, 0, 58, 31
3, 51600, Note_on_c, 0, 58, 0
3, 51600, Note_on_c, 0, 60, 31
3, 51840, Note_on_c, 0, 60, 0
3, 51840, Note_on_c, 0, 55, 0
3, 51840, Note_on_c, 0, 53, 32
3, 51840, Note_on_c, 0, 57, 38
3, 52320, Note_on_c, 0, 57, 0
3, 52320, Note_on_c, 0, 53, 0
3, 55680, Note_on_c, 0, 60, 34
3, 55680, Note_on_c, 0, 54, 29
3, 55680, Note_on_c, 0, 57, 29
3, 55680, Note_on_c, 0, 50, 29
3, 56640, Note_on_c, 0, 50, 0
3, 56640, Note_on_c, 0, 60, 0
3, 56640, Note_on_c, 0, 54, 0
3, 56640, Note_on_c, 0, 57, 0
3, 56640, Note_on_c, 0, 55, 35
3, 56640, Note_on_c, 0, 58, 42
3, 57120, Note_on_c, 0, 58, 0
3, 57120, Note_on_c, 0, 64, 44
3, 57600, Note_on_c, 0, 64, 0
3, 57600, Note_on_c, 0, 55, 0
3, 57600, Note_on_c, 0, 65, 48
3, 57600, Note_on_c, 0, 57, 40
3, 58080, Note_on_c, 0, 57, 0
3, 58080, Note_on_c, 0, 65, 0
3, 58080, Note_on_c, 0, 62, 45
3, 58080, Note_on_c, 0, 58, 38
3, 58560, Note_on_c, 0, 58, 0
3, 58560, Note_on_c, 0, 62, 0
3, 58560, Note_on_c, 0, 57, 42
3, 58560, Note_on_c, 0, 48, 33
3, 59040, Note_on_c, 0, 57, 0
3, 59040, Note_on_c, 0, 55, 40
3, 59520, Note_on_c, 0, 55, 0
3, 59520, Note_on_c, 0, 48, 0
3, 59760, Note_on_c, 0, 53, 50
3, 60000, Note_on_c, 0, 53, 0
3, 60000, Note_on_c, 0, 57, 54
3, 60240, Note_on_c, 0, 57, 0
3, 60240, Note_on_c, 0, 62, 50
3, 60480, Note_on_c, 0, 62, 0
3, 60720, Note_on_c, 0, 55, 50
3, 60960, Note_on_c, 0, 55, 0
3, 60960, Note_on_c, 0, 58, 54
3, 61200, Note_on_c, 0, 58, 0
3, 61200, Note_on_c, 0, 64, 50
3, 61440, Note_on_c, 0, 64, 0
3, 61680, Note_on_c, 0, 57, 50
3, 61920, Note_on_c, 0, 57, 0
3, 61920, Note_on_c, 0, 60, 54
3, 62160, Note_on_c, 0, 60, 0
3, 62160, Note_on_c, 0, 65, 45
3, 62400, Note_on_c, 0, 57, 49
3, 62880, Note_on_c, 0, 65, 0
3, 62880, Note_on_c, 0, 63, 47
3, 63360, Note_on_c, 0, 63, 0
3, 63360, Note_on_c, 0, 57, 0
3, 63360, Note_on_c, 0, 65, 48
3, 63360, Note_on_c, 0, 62, 40
3, 63360, Note_on_c, 0, 58, 40
3, 63840, Note_on_c, 0, 58, 0
3, 63840, Note_on_c, 0, 62, 0
3, 63840, Note_on_c, 0, 65, 0
3, 64320, Note_on_c, 0, 62, 40
3, 64320, Note_on_c, 0, 67, 48
3, 64320, Note_on_c, 0, 58, 40
3, 64800, Note_on_c, 0, 58, 0
3, 64800, Note_on_c, 0, 67, 0
3, 64800, Note_on_c, 0, 62, 0
3, 65280, Note_on_c, 0, 48, 50
3, 65520, Note_on_c, 0, 48, 0
3, 65520, Note_on_c, 0, 57, 43
3, 65760, Note_on_c, 0, 57, 0
3, 65760, Note_on_c, 0, 53, 50
3, 66000, Note_on_c, 0, 53, 0
3, 66000, Note_on_c, 0, 57, 38
3, 66240, Note_on_c, 0, 57, 0
3, 66240, Note_on_c, 0, 48, 43
3, 66480, Note_on_c, 0, 48, 0
3, 66480, Note_on_c, 0, 57, 31
3, 66720, Note_on_c, 0, 57, 0
3, 66720, Note_on_c, 0, 53, 35
3, 66960, Note_on_c, 0, 53, 0
3, 66960, Note_on_c, 0, 57, 33
3, 67200, Note_on_c, 0, 57, 0
3, 67200, Note_on_c, 0, 48, 38
3, 67440, Note_on_c, 0, 48, 0
3, 67440, Note_on_c, 0, 58, 31
3, 67680, Note_on_c, 0, 58, 0
3, 67680, Note_on_c, 0, 52, 33
3, 67920, Note_on_c, 0, 52, 0
3, 67920, Note_on_c, 0, 58, 31
3, 68160, Note_on_c, 0, 58, 0
3, 68160, Note_on_c, 0, 48, 37
3, 68400, Note_on_c, 0, 48, 0
3, 68400, Note_on_c, 0, 58, 32
3, 68640, Note_on_c, 0, 58, 0
3, 68640, Note_on_c, 0, 52, 32
3, 68880, Note_on_c, 0, 52, 0
3, 68880, Note_on_c, 0, 58, 32
3, 69120, Note_on_c, 0, 58, 0
3, 69120, Note_on_c, 0, 53, 37
3, 69360, Note_on_c, 0, 60, 35
3, 69600, Note_on_c, 0, 60, 0
3, 69600, Note_on_c, 0, 65, 39
3, 69840, Note_on_c, 0, 65, 0
3, 69840, Note_on_c, 0, 63, 35
3, 70080, Note_on_c, 0, 63, 0
3, 70080, Note_on_c, 0, 62, 37
3, 70560, Note_on_c, 0, 62, 0
3, 70560, Note_on_c, 0, 60, 34
3, 71040, Note_on_c, 0, 60, 0
3, 71040, Note_on_c, 0, 53, 0
3, 71040, Note_on_c, 0, 57, 35
3, 71040, Note_on_c, 0, 53, 37
3, 71280, Note_on_c, 0, 57, 0
3, 71280, Note_on_c, 0, 60, 35
3, 71520, Note_on_c, 0, 60, 0
3, 71520, Note_on_c, 0, 65, 39
3, 71760, Note_on_c, 0, 65, 0
3, 71760, Note_on_c, 0, 63, 35
3, 72000, Note_on_c, 0, 63, 0
3, 72000, Note_on_c, 0, 62, 37
3, 72480, Note_on_c, 0, 62, 0
3, 72480, Note_on_c, 0, 58, 34
3, 72960, Note_on_c, 0, 58, 0
3, 72960, Note_on_c, 0, 53, 0
3, 72960, Note_on_c, 0, 53, 41
3, 72960, Note_on_c, 0, 57, 41
3, 73200, Note_on_c, 0, 57, 0
3, 73200, Note_on_c, 0, 55, 37
3, 73200, Note_on_c, 0, 58, 37
3, 73440, Note_on_c, 0, 58, 0
3, 73440, Note_on_c, 0, 55, 0
3, 73440, Note_on_c, 0, 60, 40
3, 73440, Note_on_c, 0, 57, 40
3, 73680, Note_on_c, 0, 57, 0
3, 73680, Note_on_c, 0, 60, 0
3, 73680, Note_on_c, 0, 62, 37
3, 73680, Note_on_c, 0, 58, 37
3, 73920, Note_on_c, 0, 58, 0
3, 73920, Note_on_c, 0, 62, 0
3, 73920, Note_on_c, 0, 63, 38
3, 73920, Note_on_c, 0, 60, 38
3, 74160, Note_on_c, 0, 60, 0
3, 74160, Note_on_c, 0, 63, 0
3, 74160, Note_on_c, 0, 62, 41
3, 74160, Note_on_c, 0, 59, 41
3, 74400, Note_on_c, 0, 59, 0
3, 74400, Note_on_c, 0, 62, 0
3, 74400, Note_on_c, 0, 60, 44
3, 74400, Note_on_c, 0, 63, 44
3, 74640, Note_on_c, 0, 63, 0
3, 74640, Note_on_c, 0, 60, 0
3, 74640, Note_on_c, 0, 59, 47
3, 74640, Note_on_c, 0, 62, 47
3, 74880, Note_on_c, 0, 62, 0
3, 74880, Note_on_c, 0, 59, 0
3, 74880, Note_on_c, 0, 60, 53
3, 74880, Note_on_c, 0, 63, 53
3, 75840, Note_on_c, 0, 63, 0
3, 75840, Note_on_c, 0, 60, 0
3, 75840, Note_on_c, 0, 53, 0
3, 76800, Note_on_c, 0, 58, 36
3, 77040, Note_on_c, 0, 58, 0
3, 77040, Note_on_c, 0, 65, 27
3, 77280, Note_on_c, 0, 65, 0
3, 77280, Note_on_c, 0, 62, 27
3, 77520, Note_on_c, 0, 62, 0
3, 77520, Note_on_c, 0, 65, 27
3, 77760, Note_on_c, 0, 65, 0
3, 77760, Note_on_c, 0, 58, 36
3, 78000, Note_on_c, 0, 58, 0
3, 78000, Note_on_c, 0, 65, 28
3, 78240, Note_on_c, 0, 65, 0
3, 78240, Note_on_c, 0, 62, 28
3, 78480, Note_on_c, 0, 62, 0
3, 78480, Note_on_c, 0, 65, 28
3, 78720, Note_on_c, 0, 65, 0
3, 78720, Note_on_c, 0, 57, 36
3, 78960, Note_on_c, 0, 57, 0
3, 78960, Note_on_c, 0, 65, 25
3, 79200, Note_on_c, 0, 65, 0
3, 79200, Note_on_c, 0, 60, 27
3, 79440, Note_on_c, 0, 60, 0
3, 79440, Note_on_c, 0, 65, 24
3, 79680, Note_on_c, 0, 65, 0
3, 79680, Note_on_c, 0, 57, 36
3, 79920, Note_on_c, 0, 57, 0
3, 79920, Note_on_c, 0, 65, 23
3, 80160, Note_on_c, 0, 65, 0
3, 80160, Note_on_c, 0, 60, 29
3, 80400, Note_on_c, 0, 60, 0
3, 80400, Note_on_c, 0, 65, 23
3, 80640, Note_on_c, 0, 65, 0
3, 80640, Note_on_c, 0, 55, 36
3, 80880, Note_on_c, 0, 55, 0
3, 80880, Note_on_c, 0, 63, 32
3, 81120, Note_on_c, 0, 63, 0
3, 81120, Note_on_c, 0, 58, 32
3, 81360, Note_on_c, 0, 58, 0
3, 81360, Note_on_c, 0, 63, 32
3, 81600, Note_on_c, 0, 63, 0
3, 81600, Note_on_c, 0, 51, 36
3, 81840, Note_on_c, 0, 51, 0
3, 81840, Note_on_c, 0, 58, 33
3, 82080, Note_on_c, 0, 58, 0
3, 82080, Note_on_c, 0, 55, 35
3, 82320, Note_on_c, 0, 55, 0
3, 82320, Note_on_c, 0, 58, 36
3, 82560, Note_on_c, 0, 58, 0
3, 82560, Note_on_c, 0, 50, 41
3, 82800, Note_on_c, 0, 50, 0
3, 82800, Note_on_c, 0, 58, 30
3, 83040, Note_on_c, 0, 58, 0
3, 83040, Note_on_c, 0, 53, 35
3, 83280, Note_on_c, 0, 53, 0
3, 83280, Note_on_c, 0, 58, 28
3, 83520, Note_on_c, 0, 58, 0
3, 83520, Note_on_c, 0, 50, 36
3, 83760, Note_on_c, 0, 50, 0
3, 83760, Note_on_c, 0, 58, 25
3, 84000, Note_on_c, 0, 58, 0
3, 84000, Note_on_c, 0, 53, 29
3, 84240, Note_on_c, 0, 53, 0
3, 84240, Note_on_c, 0, 58, 26
3, 84480, Note_on_c, 0, 58, 0
3, 84480, Note_on_c, 0, 51, 36
3, 84720, Note_on_c, 0, 51, 0
3, 84720, Note_on_c, 0, 55, 27
3, 84960, Note_on_c, 0, 55, 0
3, 84960, Note_on_c, 0, 51, 31
3, 85200, Note_on_c, 0, 51, 0
3, 85200, Note_on_c, 0, 59, 27
3, 85440, Note_on_c, 0, 59, 0
3, 85440, Note_on_c, 0, 51, 34
3, 85680, Note_on_c, 0, 51, 0
3, 85680, Note_on_c, 0, 60, 27
3, 85920, Note_on_c, 0, 60, 0
3, 85920, Note_on_c, 0, 51, 27
3, 86160, Note_on_c, 0, 51, 0
3, 86160, Note_on_c, 0, 63, 27
3, 86400, Note_on_c, 0, 63, 0
3, 86400, Note_on_c, 0, 50, 36
3, 86640, Note_on_c, 0, 50, 0
3, 86640, Note_on_c, 0, 53, 31
3, 86880, Note_on_c, 0, 53, 0
3, 86880, Note_on_c, 0, 50, 33
3, 87120, Note_on_c, 0, 50, 0
3, 87120, Note_on_c, 0, 57, 33
3, 87360, Note_on_c, 0, 57, 0
3, 87360, Note_on_c, 0, 50, 36
3, 87600, Note_on_c, 0, 50, 0
3, 87600, Note_on_c, 0, 58, 30
3, 87840, Note_on_c, 0, 58, 0
3, 87840, Note_on_c, 0, 50, 31
3, 88080, Note_on_c, 0, 50, 0
3, 88080, Note_on_c, 0, 62, 33
3, 88320, Note_on_c, 0, 62, 0
3, 88320, Note_on_c, 0, 53, 36
3, 88560, Note_on_c, 0, 53, 0
3, 88560, Note_on_c, 0, 65, 30
3, 88800, Note_on_c, 0, 65, 0
3, 88800, Note_on_c, 0, 60, 30
3, 89040, Note_on_c, 0, 60, 0
3, 89040, Note_on_c, 0, 65, 30
3, 89280, Note_on_c, 0, 65, 0
3, 89280, Note_on_c, 0, 58, 36
3, 89520, Note_on_c, 0, 58, 0
3, 89520, Note_on_c, 0, 65, 30
3, 89760, Note_on_c, 0, 65, 0
3, 89760, Note_on_c, 0, 62, 31
3, 90000, Note_on_c, 0, 62, 0
3, 90000, Note_on_c, 0, 65, 30
3, 90240, Note_on_c, 0, 65, 0
3, 90240, Note_on_c, 0, 53, 36
3, 90480, Note_on_c, 0, 53, 0
3, 90480, Note_on_c, 0, 62, 25
3, 90720, Note_on_c, 0, 62, 0
3, 90720, Note_on_c, 0, 58, 25
3, 90960, Note_on_c, 0, 58, 0
3, 90960, Note_on_c, 0, 62, 25
3, 91200, Note_on_c, 0, 62, 0
3, 91200, Note_on_c, 0, 60, 36
3, 91200, Note_on_c, 0, 57, 36
3, 91200, Note_on_c, 0, 53, 36
3, 91680, Note_on_c, 0, 53, 0
3, 91680, Note_on_c, 0, 57, 0
3, 91680, Note_on_c, 0, 60, 0
3, 92160, Note_on_c, 0, 58, 36
3, 92400, Note_on_c, 0, 58, 0
3, 92400, Note_on_c, 0, 65, 31
3, 92640, Note_on_c, 0, 65, 0
3, 92640, Note_on_c, 0, 61, 35
3, 92880, Note_on_c, 0, 61, 0
3, 92880, Note_on_c, 0, 65, 31
3, 93120, Note_on_c, 0, 65, 0
3, 93120, Note_on_c, 0, 58, 40
3, 93360, Note_on_c, 0, 58, 0
3, 93360, Note_on_c, 0, 65, 36
3, 93600, Note_on_c, 0, 65, 0
3, 93600, Note_on_c, 0, 61, 38
3, 93840, Note_on_c, 0, 61, 0
3, 93840, Note_on_c, 0, 65, 31
3, 94080, Note_on_c, 0, 65, 0
3, 94080, Note_on_c, 0, 56, 46
3, 94320, Note_on_c, 0, 56, 0
3, 94320, Note_on_c, 0, 65, 36
3, 94560, Note_on_c, 0, 65, 0
3, 94560, Note_on_c, 0, 60, 41
3, 94800, Note_on_c, 0, 60, 0
3, 94800, Note_on_c, 0, 65, 31
3, 95040, Note_on_c, 0, 65, 0
3, 95040, Note_on_c, 0, 56, 41
3, 95280, Note_on_c, 0, 56, 0
3, 95280, Note_on_c, 0, 65, 31
3, 95520, Note_on_c, 0, 65, 0
3, 95520, Note_on_c, 0, 60, 40
3, 95760, Note_on_c, 0, 60, 0
3, 95760, Note_on_c, 0, 65, 32
3, 96000, Note_on_c, 0, 65, 0
3, 96000, Note_on_c, 0, 54, 36
3, 96240, Note_on_c, 0, 54, 0
3, 96240, Note_on_c, 0, 58, 32
3, 96480, Note_on_c, 0, 58, 0
3, 96480, Note_on_c, 0, 54, 39
3, 96720, Note_on_c, 0, 54, 0
3, 96720, Note_on_c, 0, 58, 38
3, 96960, Note_on_c, 0, 58, 0
3, 96960, Note_on_c, 0, 51, 53
3, 97200, Note_on_c, 0, 51, 0
3, 97200, Note_on_c, 0, 58, 45
3, 97440, Note_on_c, 0, 58, 0
3, 97440, Note_on_c, 0, 54, 57
3, 97680, Note_on_c, 0, 54, 0
3, 97680, Note_on_c, 0, 58, 52
3, 97920, Note_on_c, 0, 58, 0
3, 97920, Note_on_c, 0, 50, 63
3, 98160, Note_on_c, 0, 50, 0
3, 98160, Note_on_c, 0, 58, 54
3, 98400, Note_on_c, 0, 58, 0
3, 98400, Note_on_c, 0, 53, 60
3, 98640, Note_on_c, 0, 53, 0
3, 98640, Note_on_c, 0, 58, 51
3, 98880, Note_on_c, 0, 58, 0
3, 98880, Note_on_c, 0, 49, 63
3, 99120, Note_on_c, 0, 49, 0
3, 99120, Note_on_c, 0, 58, 55
3, 99360, Note_on_c, 0, 58, 0
3, 99360, Note_on_c, 0, 53, 62
3, 99600, Note_on_c, 0, 53, 0
3, 99600, Note_on_c, 0, 58, 57
3, 99840, Note_on_c, 0, 58, 0
3, 99840, Note_on_c, 0, 48, 69
3, 100080, Note_on_c, 0, 48, 0
3, 100080, Note_on_c, 0, 58, 53
3, 100320, Note_on_c, 0, 58, 0
3, 100320, Note_on_c, 0, 55, 62
3, 100560, Note_on_c, 0, 55, 0
3, 100560, Note_on_c, 0, 58, 48
3, 100800, Note_on_c, 0, 58, 0
3, 100800, Note_on_c, 0, 48, 44
3, 101040, Note_on_c, 0, 48, 0
3, 101040, Note_on_c, 0, 58, 29
3, 101280, Note_on_c, 0, 58, 0
3, 101280, Note_on_c, 0, 55, 32
3, 101520, Note_on_c, 0, 55, 0
3, 101520, Note_on_c, 0, 58, 28
3, 101760, Note_on_c, 0, 58, 0
3, 101760, Note_on_c, 0, 49, 41
3, 102000, Note_on_c, 0, 49, 0
3, 102000, Note_on_c, 0, 56, 27
3, 102240, Note_on_c, 0, 56, 0
3, 102240, Note_on_c, 0, 53, 32
3, 102480, Note_on_c, 0, 53, 0
3, 102480, Note_on_c, 0, 56, 28
3, 102720, Note_on_c, 0, 56, 0
3, 102720, Note_on_c, 0, 46, 36
3, 102960, Note_on_c, 0, 46, 0
3, 102960, Note_on_c, 0, 55, 27
3, 103200, Note_on_c, 0, 55, 0
3, 103200, Note_on_c, 0, 49, 28
3, 103440, Note_on_c, 0, 49, 0
3, 103440, Note_on_c, 0, 55, 27
3, 103680, Note_on_c, 0, 55, 0
3, 103680, Note_on_c, 0, 48, 36
3, 103920, Note_on_c, 0, 48, 0
3, 103920, Note_on_c, 0, 56, 31
3, 104160, Note_on_c, 0, 56, 0
3, 104160, Note_on_c, 0, 53, 31
3, 104400, Note_on_c, 0, 53, 0
3, 104400, Note_on_c, 0, 56, 31
3, 104640, Note_on_c, 0, 56, 0
3, 104640, Note_on_c, 0, 48, 36
3, 104880, Note_on_c, 0, 48, 0
3, 104880, Note_on_c, 0, 58, 31
3, 105120, Note_on_c, 0, 58, 0
3, 105120, Note_on_c, 0, 55, 31
3, 105360, Note_on_c, 0, 55, 0
3, 105360, Note_on_c, 0, 58, 31
3, 105600, Note_on_c, 0, 58, 0
3, 105600, Note_on_c, 0, 57, 38
3, 105600, Note_on_c, 0, 53, 32
3, 105840, Note_on_c, 0, 57, 0
3, 105840, Note_on_c, 0, 65, 30
3, 105960, Note_on_c, 0, 65, 0
3, 106080, Note_on_c, 0, 53, 0
3, 106080, Note_on_c, 0, 65, 30
3, 106200, Note_on_c, 0, 65, 0
3, 106320, Note_on_c, 0, 65, 30
3, 106440, Note_on_c, 0, 65, 0
3, 106560, Note_on_c, 0, 62, 38
3, 106560, Note_on_c, 0, 58, 32
3, 106800, Note_on_c, 0, 62, 0
3, 106800, Note_on_c, 0, 65, 28
3, 107040, Note_on_c, 0, 65, 0
3, 107040, Note_on_c, 0, 58, 0
3, 107040, Note_on_c, 0, 63, 28
3, 107040, Note_on_c, 0, 60, 23
3, 107280, Note_on_c, 0, 63, 0
3, 107280, Note_on_c, 0, 65, 28
3, 107520, Note_on_c, 0, 65, 0
3, 107520, Note_on_c, 0, 60, 0
3, 107520, Note_on_c, 0, 57, 29
3, 107520, Note_on_c, 0, 60, 35
3, 107760, Note_on_c, 0, 60, 0
3, 107760, Note_on_c, 0, 65, 30
3, 107880, Note_on_c, 0, 65, 0
3, 108000, Note_on_c, 0, 57, 0
3, 108000, Note_on_c, 0, 65, 28
3, 108120, Note_on_c, 0, 65, 0
3, 108240, Note_on_c, 0, 65, 28
3, 108360, Note_on_c, 0, 65, 0
3, 108480, Note_on_c, 0, 57, 34
3, 108480, Note_on_c, 0, 53, 28
3, 108720, Note_on_c, 0, 57, 0
3, 108720, Note_on_c, 0, 65, 31
3, 108960, Note_on_c, 0, 65, 0
3, 108960, Note_on_c, 0, 53, 0
3, 108960, Note_on_c, 0, 60, 27
3, 108960, Note_on_c, 0, 63, 27
3, 109200, Note_on_c, 0, 63, 0
3, 109200, Note_on_c, 0, 65, 27
3, 109440, Note_on_c, 0, 65, 0
3, 109440, Note_on_c, 0, 60, 0
3, 109440, Note_on_c, 0, 58, 32
3, 109440, Note_on_c, 0, 62, 38
3, 109680, Note_on_c, 0, 62, 0
3, 109680, Note_on_c, 0, 65, 30
3, 109800, Note_on_c, 0, 65, 0
3, 109920, Note_on_c, 0, 58, 0
3, 109920, Note_on_c, 0, 65, 29
3, 110040, Note_on_c, 0, 65, 0
3, 110160, Note_on_c, 0, 65, 30
3, 110280, Note_on_c, 0, 65, 0
3, 110400, Note_on_c, 0, 62, 38
3, 110400, Note_on_c, 0, 58, 32
3, 110640, Note_on_c, 0, 62, 0
3, 110640, Note_on_c, 0, 65, 28
3, 110880, Note_on_c, 0, 65, 0
3, 110880, Note_on_c, 0, 58, 0
3, 110880, Note_on_c, 0, 63, 28
3, 110880, Note_on_c, 0, 60, 23
3, 111120, Note_on_c, 0, 63, 0
3, 111120, Note_on_c, 0, 65, 28
3, 111360, Note_on_c, 0, 65, 0
3, 111360, Note_on_c, 0, 60, 0
3, 111360, Note_on_c, 0, 60, 35
3, 111360, Note_on_c, 0, 57, 29
3, 111600, Note_on_c, 0, 60, 0
3, 111600, Note_on_c, 0, 65, 30
3, 111720, Note_on_c, 0, 65, 0
3, 111840, Note_on_c, 0, 57, 0
3, 111840, Note_on_c, 0, 65, 27
3, 111960, Note_on_c, 0, 65, 0
3, 112080, Note_on_c, 0, 65, 27
3, 112200, Note_on_c, 0, 65, 0
3, 112320, Note_on_c, 0, 53, 28
3, 112320, Note_on_c, 0, 57, 34
3, 112560, Note_on_c, 0, 57, 0
3, 112560, Note_on_c, 0, 65, 31
3, 112800, Note_on_c, 0, 65, 0
3, 112800, Note_on_c, 0, 53, 0
3, 112800, Note_on_c, 0, 60, 29
3, 112800, Note_on_c, 0, 63, 29
3, 113040, Note_on_c, 0, 63, 0
3, 113040, Note_on_c, 0, 65, 29
3, 113280, Note_on_c, 0, 65, 0
3, 113280, Note_on_c, 0, 60, 0
3, 113280, Note_on_c, 0, 62, 38
3, 113280, Note_on_c, 0, 58, 32
3, 113760, Note_on_c, 0, 58, 0
3, 113760, Note_on_c, 0, 62, 0
3, 114240, Note_on_c, 0, 70, 47
3, 114240, Note_on_c, 0, 74, 56
3, 114480, Note_on_c, 0, 74, 0
3, 114480, Note_on_c, 0, 70, 0
3, 114480, Note_on_c, 0, 69, 43
3, 114480, Note_on_c, 0, 72, 51
3, 114720, Note_on_c, 0, 72, 0
3, 114720, Note_on_c, 0, 69, 0
3, 114720, Note_on_c, 0, 70, 45
3, 114720, Note_on_c, 0, 67, 38
3, 114936, Note_on_c, 0, 67, 0
3, 114936, Note_on_c, 0, 70, 0
3, 114960, Note_on_c, 0, 66, 38
3, 114960, Note_on_c, 0, 69, 45
3, 115176, Note_on_c, 0, 69, 0
3, 115176, Note_on_c, 0, 66, 0
3, 115200, Note_on_c, 0, 67, 47
3, 115200, Note_on_c, 0, 70, 56
3, 115440, Note_on_c, 0, 70, 0
3, 115440, Note_on_c, 0, 67, 0
3, 115440, Note_on_c, 0, 65, 43
3, 115440, Note_on_c, 0, 69, 51
3, 115680, Note_on_c, 0, 69, 0
3, 115680, Note_on_c, 0, 65, 0
3, 115680, Note_on_c, 0, 63, 40
3, 115680, Note_on_c, 0, 67, 47
3, 115896, Note_on_c, 0, 67, 0
3, 115896, Note_on_c, 0, 63, 0
3, 115920, Note_on_c, 0, 66, 47
3, 115920, Note_on_c, 0, 62, 40
3, 116136, Note_on_c, 0, 62, 0
3, 116136, Note_on_c, 0, 66, 0
3, 116160, Note_on_c, 0, 63, 47
3, 116160, Note_on_c, 0, 67, 56
3, 116400, Note_on_c, 0, 67, 0
3, 116400, Note_on_c, 0, 63, 0
3, 116400, Note_on_c, 0, 62, 42
3, 116400, Note_on_c, 0, 65, 50
3, 116640, Note_on_c, 0, 65, 0
3, 116640, Note_on_c, 0, 62, 0
3, 116640, Note_on_c, 0, 60, 40
3, 116640, Note_on_c, 0, 63, 47
3, 116856, Note_on_c, 0, 63, 0
3, 116856, Note_on_c, 0, 60, 0
3, 116880, Note_on_c, 0, 62, 46
3, 116880, Note_on_c, 0, 59, 39
3, 117096, Note_on_c, 0, 59, 0
3, 117096, Note_on_c, 0, 62, 0
3, 117120, Note_on_c, 0, 62, 33
3, 117120, Note_on_c, 0, 65, 39
3, 117120, Note_on_c, 0, 55, 30
3, 117120, Note_on_c, 0, 59, 33
3, 118080, Note_on_c, 0, 59, 0
3, 118080, Note_on_c, 0, 62, 0
3, 118080, Note_on_c, 0, 65, 0
3, 118080, Note_on_c, 0, 55, 0
3, 118080, Note_on_c, 0, 60, 35
3, 118080, Note_on_c, 0, 63, 42
3, 118560, Note_on_c, 0, 63, 0
3, 118560, Note_on_c, 0, 69, 44
3, 119040, Note_on_c, 0, 69, 0
3, 119040, Note_on_c, 0, 60, 0
3, 119040, Note_on_c, 0, 70, 44
3, 119040, Note_on_c, 0, 62, 33
3, 119520, Note_on_c, 0, 62, 0
3, 119520, Note_on_c, 0, 70, 0
3, 119520, Note_on_c, 0, 63, 35
3, 119520, Note_on_c, 0, 67, 43
3, 120000, Note_on_c, 0, 67, 0
3, 120000, Note_on_c, 0, 63, 0
3, 120000, Note_on_c, 0, 62, 44
3, 120000, Note_on_c, 0, 53, 37
3, 120480, Note_on_c, 0, 62, 0
3, 120480, Note_on_c, 0, 63, 36
3, 120960, Note_on_c, 0, 63, 0
3, 120960, Note_on_c, 0, 53, 0
3, 120960, Note_on_c, 0, 62, 38
3, 120960, Note_on_c, 0, 58, 30
3, 121200, Note_on_c, 0, 62, 0
3, 121200, Note_on_c, 0, 65, 30
3, 121320, Note_on_c, 0, 65, 0
3, 121440, Note_on_c, 0, 58, 0
3, 121440, Note_on_c, 0, 65, 30
3, 121560, Note_on_c, 0, 65, 0
3, 121680, Note_on_c, 0, 65, 30
3, 121800, Note_on_c, 0, 65, 0
3, 121920, Note_on_c, 0, 58, 28
3, 121920, Note_on_c, 0, 62, 33
3, 122160, Note_on_c, 0, 62, 0
3, 122160, Note_on_c, 0, 65, 27
3, 122400, Note_on_c, 0, 65, 0
3, 122400, Note_on_c, 0, 58, 0
3, 122400, Note_on_c, 0, 63, 27
3, 122400, Note_on_c, 0, 60, 22
3, 122640, Note_on_c, 0, 63, 0
3, 122640, Note_on_c, 0, 65, 27
3, 122880, Note_on_c, 0, 65, 0
3, 122880, Note_on_c, 0, 60, 0
3, 122880, Note_on_c, 0, 60, 33
3, 122880, Note_on_c, 0, 57, 33
3, 123120, Note_on_c, 0, 60, 0
3, 123120, Note_on_c, 0, 65, 26
3, 123240, Note_on_c, 0, 65, 0
3, 123360, Note_on_c, 0, 57, 0
3, 123360, Note_on_c, 0, 65, 30
3, 123480, Note_on_c, 0, 65, 0
3, 123600, Note_on_c, 0, 65, 26
3, 123720, Note_on_c, 0, 65, 0
3, 123840, Note_on_c, 0, 53, 28
3, 123840, Note_on_c, 0, 57, 34
3, 124080, Note_on_c, 0, 57, 0
3, 124080, Note_on_c, 0, 65, 31
3, 124320, Note_on_c, 0, 65, 0
3, 124320, Note_on_c, 0, 53, 0
3, 124320, Note_on_c, 0, 63, 31
3, 124320, Note_on_c, 0, 60, 26
3, 124560, Note_on_c, 0, 63, 0
3, 124560, Note_on_c, 0, 65, 31
3, 124800, Note_on_c, 0, 65, 0
3, 124800, Note_on_c, 0, 60, 0
3, 124800, Note_on_c, 0, 62, 38
3, 124800, Note_on_c, 0, 58, 32
3, 125040, Note_on_c, 0, 62, 0
3, 125040, Note_on_c, 0, 65, 30
3, 125160, Note_on_c, 0, 65, 0
3, 125280, Note_on_c, 0, 58, 0
3, 125280, Note_on_c, 0, 65, 30
3, 125400, Note_on_c, 0, 65, 0
3, 125520, Note_on_c, 0, 65, 30
3, 125640, Note_on_c, 0, 65, 0
3, 125760, Note_on_c, 0, 62, 38
3, 125760, Note_on_c, 0, 58, 32
3, 126000, Note_on_c, 0, 62, 0
3, 126000, Note_on_c, 0, 65, 28
3, 126240, Note_on_c, 0, 65, 0
3, 126240, Note_on_c, 0, 58, 0
3, 126240, Note_on_c, 0, 63, 28
3, 126240, Note_on_c, 0, 60, 23
3, 126480, Note_on_c, 0, 63, 0
3, 126480, Note_on_c, 0, 65, 28
3, 126720, Note_on_c, 0, 65, 0
3, 126720, Note_on_c, 0, 60, 0
3, 126720, Note_on_c, 0, 60, 35
3, 126720, Note_on_c, 0, 57, 29
3, 126960, Note_on_c, 0, 60, 0
3, 126960, Note_on_c, 0, 65, 28
3, 127080, Note_on_c, 0, 65, 0
3, 127200, Note_on_c, 0, 57, 0
3, 127200, Note_on_c, 0, 65, 30
3, 127320, Note_on_c, 0, 65, 0
3, 127440, Note_on_c, 0, 65, 26
3, 127560, Note_on_c, 0, 65, 0
3, 127680, Note_on_c, 0, 57, 34
3, 127680, Note_on_c, 0, 53, 28
3, 127920, Note_on_c, 0, 57, 0
3, 127920, Note_on_c, 0, 65, 25
3, 128160, Note_on_c, 0, 65, 0
3, 128160, Note_on_c, 0, 53, 0
3, 128160, Note_on_c, 0, 63, 31
3, 128160, Note_on_c, 0, 60, 26
3, 128400, Note_on_c, 0, 63, 0
3, 128400, Note_on_c, 0, 65, 26
3, 128640, Note_on_c, 0, 65, 0
3, 128640, Note_on_c, 0, 60, 0
3, 128640, Note_on_c, 0, 62, 38
3, 128640, Note_on_c, 0, 58, 32
3, 129120, Note_on_c, 0, 58, 0
3, 129120, Note_on_c, 0, 62, 0
3, 129600, Note_on_c, 0, 74, 56
3, 129600, Note_on_c, 0, 70, 47
3, 129840, Note_on_c, 0, 70, 0
3, 129840, Note_on_c, 0, 74, 0
3, 129840, Note_on_c, 0, 72, 51
3, 129840, Note_on_c, 0, 69, 43
3, 130080, Note_on_c, 0, 69, 0
3, 130080, Note_on_c, 0, 72, 0
3, 130080, Note_on_c, 0, 67, 38
3, 130080, Note_on_c, 0, 70, 45
3, 130320, Note_on_c, 0, 70, 0
3, 130320, Note_on_c, 0, 67, 0
3, 130320, Note_on_c, 0, 69, 45
3, 130320, Note_on_c, 0, 66, 38
3, 130560, Note_on_c, 0, 66, 0
3, 130560, Note_on_c, 0, 69, 0
3, 130560, Note_on_c, 0, 67, 47
3, 130560, Note_on_c, 0, 70, 56
3, 130800, Note_on_c, 0, 70, 0
3, 130800, Note_on_c, 0, 67, 0
3, 130800, Note_on_c, 0, 65, 43
3, 130800, Note_on_c, 0, 69, 51
3, 131040, Note_on_c, 0, 69, 0
3, 131040, Note_on_c, 0, 65, 0
3, 131040, Note_on_c, 0, 63, 40
3, 131040, Note_on_c, 0, 67, 47
3, 131280, Note_on_c, 0, 67, 0
3, 131280, Note_on_c, 0, 63, 0
3, 131280, Note_on_c, 0, 66, 47
3, 131280, Note_on_c, 0, 62, 40
3, 131520, Note_on_c, 0, 62, 0
3, 131520, Note_on_c, 0, 66, 0
3, 131520, Note_on_c, 0, 63, 47
3, 131520, Note_on_c, 0, 67, 56
3, 131760, Note_on_c, 0, 67, 0
3, 131760, Note_on_c, 0, 63, 0
3, 131760, Note_on_c, 0, 65, 50
3, 131760, Note_on_c, 0, 62, 42
3, 132000, Note_on_c, 0, 62, 0
3, 132000, Note_on_c, 0, 65, 0
3, 132000, Note_on_c, 0, 60, 40
3, 132000, Note_on_c, 0, 63, 47
3, 132240, Note_on_c, 0, 63, 0
3, 132240, Note_on_c, 0, 60, 0
3, 132240, Note_on_c, 0, 62, 46
3, 132240, Note_on_c, 0, 59, 39
3, 132470, Note_on_c, 0, 59, 0
3, 132470, Note_on_c, 0, 62, 0
3, 132480, Note_on_c, 0, 65, 46
3, 132480, Note_on_c, 0, 59, 35
3, 132480, Note_on_c, 0, 62, 36
3, 132480, Note_on_c, 0, 55, 33
3, 133440, Note_on_c, 0, 55, 0
3, 133440, Note_on_c, 0, 65, 0
3, 133440, Note_on_c, 0, 59, 0
3, 133440, Note_on_c, 0, 62, 0
3, 133440, Note_on_c, 0, 60, 35
3, 133440, Note_on_c, 0, 63, 42
3, 133920, Note_on_c, 0, 63, 0
3, 133920, Note_on_c, 0, 69, 44
3, 134400, Note_on_c, 0, 69, 0
3, 134400, Note_on_c, 0, 60, 0
3, 134400, Note_on_c, 0, 70, 48
3, 134400, Note_on_c, 0, 62, 40
3, 134880, Note_on_c, 0, 62, 0
3, 134880, Note_on_c, 0, 70, 0
3, 134880, Note_on_c, 0, 63, 38
3, 134880, Note_on_c, 0, 67, 45
3, 135360, Note_on_c, 0, 67, 0
3, 135360, Note_on_c, 0, 63, 0
3, 135360, Note_on_c, 0, 53, 37
3, 135360, Note_on_c, 0, 62, 44
3, 135840, Note_on_c, 0, 62, 0
3, 135840, Note_on_c, 0, 60, 40
3, 136320, Note_on_c, 0, 60, 0
3, 136320, Note_on_c, 0, 53, 0
3, 136560, Note_on_c, 0, 46, 50
3, 136800, Note_on_c, 0, 46, 0
3, 136800, Note_on_c, 0, 50, 54
3, 137040, Note_on_c, 0, 50, 0
3, 137040, Note_on_c, 0, 55, 50
3, 137280, Note_on_c, 0, 55, 0
3, 137520, Note_on_c, 0, 48, 50
3, 137760, Note_on_c, 0, 48, 0
3, 137760, Note_on_c, 0, 51, 54
3, 138000, Note_on_c, 0, 51, 0
3, 138000, Note_on_c, 0, 57, 50
3, 138240, Note_on_c, 0, 57, 0
3, 138480, Note_on_c, 0, 50, 50
3, 138720, Note_on_c, 0, 50, 0
3, 138720, Note_on_c, 0, 53, 54
3, 138960, Note_on_c, 0, 53, 0
3, 138960, Note_on_c, 0, 58, 45
3, 139200, Note_on_c, 0, 50, 49
3, 139680, Note_on_c, 0, 58, 0
3, 139680, Note_on_c, 0, 56, 47
3, 140160, Note_on_c, 0, 56, 0
3, 140160, Note_on_c, 0, 50, 0
3, 140160, Note_on_c, 0, 55, 40
3, 140160, Note_on_c, 0, 51, 40
3, 140160, Note_on_c, 0, 58, 48
3, 140640, Note_on_c, 0, 58, 0
3, 140640, Note_on_c, 0, 51, 0
3, 140640, Note_on_c, 0, 55, 0
3, 141120, Note_on_c, 0, 51, 40
3, 141120, Note_on_c, 0, 55, 40
3, 141120, Note_on_c, 0, 60, 48
3, 141600, Note_on_c, 0, 60, 0
3, 141600, Note_on_c, 0, 55, 0
3, 141600, Note_on_c, 0, 51, 0
3, 142080, Note_on_c, 0, 53, 50
3, 142320, Note_on_c, 0, 53, 0
3, 142320, Note_on_c, 0, 62, 43
3, 142560, Note_on_c, 0, 62, 0
3, 142560, Note_on_c, 0, 58, 50
3, 142800, Note_on_c, 0, 58, 0
3, 142800, Note_on_c, 0, 62, 38
3, 143040, Note_on_c, 0, 62, 0
3, 143040, Note_on_c, 0, 53, 43
3, 143280, Note_on_c, 0, 53, 0
3, 143280, Note_on_c, 0, 62, 35
3, 143520, Note_on_c, 0, 62, 0
3, 143520, Note_on_c, 0, 58, 35
3, 143760, Note_on_c, 0, 58, 0
3, 143760, Note_on_c, 0, 62, 35
3, 144000, Note_on_c, 0, 62, 0
3, 144000, Note_on_c, 0, 53, 38
3, 144240, Note_on_c, 0, 53, 0
3, 144240, Note_on_c, 0, 63, 33
3, 144480, Note_on_c, 0, 63, 0
3, 144480, Note_on_c, 0, 57, 33
3, 144720, Note_on_c, 0, 57, 0
3, 144720, Note_on_c, 0, 63, 33
3, 144960, Note_on_c, 0, 63, 0
3, 144960, Note_on_c, 0, 53, 37
3, 145200, Note_on_c, 0, 53, 0
3, 145200, Note_on_c, 0, 63, 32
3, 145440, Note_on_c, 0, 63, 0
3, 145440, Note_on_c, 0, 57, 32
3, 145680, Note_on_c, 0, 57, 0
3, 145680, Note_on_c, 0, 63, 32
3, 145920, Note_on_c, 0, 63, 0
3, 145920, Note_on_c, 0, 58, 37
3, 146160, Note_on_c, 0, 62, 35
3, 146400, Note_on_c, 0, 62, 0
3, 146400, Note_on_c, 0, 65, 39
3, 146640, Note_on_c, 0, 65, 0
3, 146640, Note_on_c, 0, 68, 35
3, 146880, Note_on_c, 0, 68, 0
3, 146880, Note_on_c, 0, 67, 37
3, 147360, Note_on_c, 0, 67, 0
3, 147360, Note_on_c, 0, 63, 34
3, 147840, Note_on_c, 0, 63, 0
3, 147840, Note_on_c, 0, 58, 0
3, 147840, Note_on_c, 0, 62, 35
3, 147840, Note_on_c, 0, 58, 37
3, 148080, Note_on_c, 0, 62, 0
3, 148080, Note_on_c, 0, 65, 35
3, 148320, Note_on_c, 0, 65, 0
3, 148320, Note_on_c, 0, 68, 39
3, 148560, Note_on_c, 0, 68, 0
3, 148560, Note_on_c, 0, 66, 35
3, 148800, Note_on_c, 0, 66, 0
3, 148800, Note_on_c, 0, 67, 37
3, 149280, Note_on_c, 0, 67, 0
3, 149280, Note_on_c, 0, 63, 34
3, 149760, Note_on_c, 0, 63, 0
3, 149760, Note_on_c, 0, 58, 0
3, 149760, Note_on_c, 0, 58, 32
3, 150000, Note_on_c, 0, 62, 26
3, 150000, Note_on_c, 0, 65, 35
3, 150240, Note_on_c, 0, 65, 0
3, 150240, Note_on_c, 0, 62, 0
3, 150240, Note_on_c, 0, 58, 0
3, 150240, Note_on_c, 0, 67, 40
3, 150240, Note_on_c, 0, 63, 32
3, 150480, Note_on_c, 0, 63, 0
3, 150480, Note_on_c, 0, 67, 0
3, 150480, Note_on_c, 0, 63, 37
3, 150480, Note_on_c, 0, 60, 29
3, 150720, Note_on_c, 0, 60, 0
3, 150720, Note_on_c, 0, 63, 0
3, 150720, Note_on_c, 0, 58, 32
3, 150720, Note_on_c, 0, 62, 38
3, 150960, Note_on_c, 0, 62, 0
3, 150960, Note_on_c, 0, 65, 36
3, 150960, Note_on_c, 0, 62, 28
3, 151200, Note_on_c, 0, 62, 0
3, 151200, Note_on_c, 0, 65, 0
3, 151200, Note_on_c, 0, 58, 0
3, 151200, Note_on_c, 0, 67, 40
3, 151200, Note_on_c, 0, 63, 32
3, 151440, Note_on_c, 0, 63, 0
3, 151440, Note_on_c, 0, 67, 0
3, 151440, Note_on_c, 0, 63, 30
3, 151440, Note_on_c, 0, 60, 24
3, 151675, Note_on_c, 0, 60, 0
3, 151680, Note_on_c, 0, 63, 0
3, 151680, Note_on_c, 0, 58, 27
3, 151680, Note_on_c, 0, 46, 21
3, 152640, Note_on_c, 0, 50, 18
3, 152640, Note_on_c, 0, 53, 20
3, 153120, Note_on_c, 0, 53, 0
3, 153120, Note_on_c, 0, 58, 0
3, 153120, Note_on_c, 0, 46, 0
3, 153120, Note_on_c, 0, 50, 0
3, 153120, End_track
4, 0, Start_track
4, 0, Title_t, "Pedal"
4, 0, Program_c, 0, 0
4, 39, Control_c, 0, 64, 127
4, 977, Control_c, 0, 64, 0
4, 1024, Control_c, 0, 64, 127
4, 1450, Control_c, 0, 64, 0
4, 1511, Control_c, 0, 64, 127
4, 1931, Control_c, 0, 64, 0
4, 1977, Control_c, 0, 64, 127
4, 2892, Control_c, 0, 64, 0
4, 2983, Control_c, 0, 64, 127
4, 3861, Control_c, 0, 64, 0
4, 3900, Control_c, 0, 64, 127
4, 4334, Control_c, 0, 64, 0
4, 4370, Control_c, 0, 64, 127
4, 4812, Control_c, 0, 64, 0
4, 4896, Control_c, 0, 64, 127
4, 5283, Control_c, 0, 64, 0
4, 5337, Control_c, 0, 64, 127
4, 5771, Control_c, 0, 64, 0
4, 5824, Control_c, 0, 64, 127
4, 6731, Control_c, 0, 64, 0
4, 6794, Control_c, 0, 64, 127
4, 7691, Control_c, 0, 64, 0
4, 7755, Control_c, 0, 64, 127
4, 8652, Control_c, 0, 64, 0
4, 8743, Control_c, 0, 64, 127
4, 9612, Control_c, 0, 64, 0
4, 9692, Control_c, 0, 64, 127
4, 9844, Control_c, 0, 64, 0
4, 9949, Control_c, 0, 64, 127
4, 10577, Control_c, 0, 64, 0
4, 10640, Control_c, 0, 64, 127
4, 11520, Control_c, 0, 64, 0
4, 11633, Control_c, 0, 64, 127
4, 12492, Control_c, 0, 64, 0
4, 12621, Control_c, 0, 64, 127
4, 13452, Control_c, 0, 64, 0
4, 13553, Control_c, 0, 64, 127
4, 14412, Control_c, 0, 64, 0
4, 14563, Control_c, 0, 64, 127
4, 15360, Control_c, 0, 64, 0
4, 15417, Control_c, 0, 64, 127
4, 15843, Control_c, 0, 64, 0
4, 15868, Control_c, 0, 64, 127
4, 16330, Control_c, 0, 64, 0
4, 16373, Control_c, 0, 64, 127
4, 16810, Control_c, 0, 64, 0
4, 16853, Control_c, 0, 64, 127
4, 17291, Control_c, 0, 64, 0
4, 17475, Control_c, 0, 64, 127
4, 18251, Control_c, 0, 64, 0
4, 18412, Control_c, 0, 64, 127
4, 19209, Control_c, 0, 64, 0
4, 19269, Control_c, 0, 64, 127
4, 19688, Control_c, 0, 64, 0
4, 19729, Control_c, 0, 64, 127
4, 20163, Control_c, 0, 64, 0
4, 20203, Control_c, 0, 64, 127
4, 20645, Control_c, 0, 64, 0
4, 20683, Control_c, 0, 64, 127
4, 21130, Control_c, 0, 64, 0
4, 21180, Control_c, 0, 64, 127
4, 22090, Control_c, 0, 64, 0
4, 22155, Control_c, 0, 64, 127
4, 23051, Control_c, 0, 64, 0
4, 23109, Control_c, 0, 64, 127
4, 24012, Control_c, 0, 64, 0
4, 24069, Control_c, 0, 64, 127
4, 24967, Control_c, 0, 64, 0
4, 25023, Control_c, 0, 64, 127
4, 25451, Control_c, 0, 64, 0
4, 25509, Control_c, 0, 64, 127
4, 26167, Control_c, 0, 64, 0
4, 26240, Control_c, 0, 64, 127
4, 26646, Control_c, 0, 64, 0
4, 26692, Control_c, 0, 64, 127
4, 26880, Control_c, 0, 64, 0
4, 26937, Control_c, 0, 64, 127
4, 27363, Control_c, 0, 64, 0
4, 27388, Control_c, 0, 64, 127
4, 27850, Control_c, 0, 64, 0
4, 27893, Control_c, 0, 64, 127
4, 28330, Control_c, 0, 64, 0
4, 28373, Control_c, 0, 64, 127
4, 28810, Control_c, 0, 64, 0
4, 28998, Control_c, 0, 64, 127
4, 29773, Control_c, 0, 64, 0
4, 29880, Control_c, 0, 64, 127
4, 30251, Control_c, 0, 64, 0
4, 30346, Control_c, 0, 64, 127
4, 30720, Control_c, 0, 64, 0
4, 30805, Control_c, 0, 64, 127
4, 31685, Control_c, 0, 64, 0
4, 31786, Control_c, 0, 64, 127
4, 32171, Control_c, 0, 64, 0
4, 32273, Control_c, 0, 64, 127
4, 32650, Control_c, 0, 64, 0
4, 32725, Control_c, 0, 64, 127
4, 33613, Control_c, 0, 64, 0
4, 33664, Control_c, 0, 64, 127
4, 34090, Control_c, 0, 64, 0
4, 34151, Control_c, 0, 64, 127
4, 34560, Control_c, 0, 64, 0
4, 34645, Control_c, 0, 64, 127
4, 35525, Control_c, 0, 64, 0
4, 35626, Control_c, 0, 64, 127
4, 36011, Control_c, 0, 64, 0
4, 36113, Control_c, 0, 64, 127
4, 36490, Control_c, 0, 64, 0
4, 36565, Control_c, 0, 64, 127
4, 37193, Control_c, 0, 64, 0
4, 37518, Control_c, 0, 64, 127
4, 37926, Control_c, 0, 64, 0
4, 38492, Control_c, 0, 64, 127
4, 38891, Control_c, 0, 64, 0
4, 39453, Control_c, 0, 64, 127
4, 39851, Control_c, 0, 64, 0
4, 40405, Control_c, 0, 64, 127
4, 41286, Control_c, 0, 64, 0
4, 41839, Control_c, 0, 64, 127
4, 42251, Control_c, 0, 64, 0
4, 42360, Control_c, 0, 64, 127
4, 42739, Control_c, 0, 64, 0
4, 42861, Control_c, 0, 64, 127
4, 43209, Control_c, 0, 64, 0
4, 43299, Control_c, 0, 64, 127
4, 43690, Control_c, 0, 64, 0
4, 43800, Control_c, 0, 64, 127
4, 44160, Control_c, 0, 64, 0
4, 44240, Control_c, 0, 64, 127
4, 44650, Control_c, 0, 64, 0
4, 44760, Control_c, 0, 64, 127
4, 45130, Control_c, 0, 64, 0
4, 45206, Control_c, 0, 64, 127
4, 45610, Control_c, 0, 64, 0
4, 45663, Control_c, 0, 64, 127
4, 46080, Control_c, 0, 64, 0
4, 46165, Control_c, 0, 64, 127
4, 47045, Control_c, 0, 64, 0
4, 47146, Control_c, 0, 64, 127
4, 47531, Control_c, 0, 64, 0
4, 47633, Control_c, 0, 64, 127
4, 48010, Control_c, 0, 64, 0
4, 48085, Control_c, 0, 64, 127
4, 48973, Control_c, 0, 64, 0
4, 49024, Control_c, 0, 64, 127
4, 49450, Control_c, 0, 64, 0
4, 49511, Control_c, 0, 64, 127
4, 49920, Control_c, 0, 64, 0
4, 50005, Control_c, 0, 64, 127
4, 50885, Control_c, 0, 64, 0
4, 50986, Control_c, 0, 64, 127
4, 51371, Control_c, 0, 64, 0
4, 51473, Control_c, 0, 64, 127
4, 51850, Control_c, 0, 64, 0
4, 51925, Control_c, 0, 64, 127
4, 52553, Control_c, 0, 64, 0
4, 52878, Control_c, 0, 64, 127
4, 53286, Control_c, 0, 64, 0
4, 53852, Control_c, 0, 64, 127
4, 54251, Control_c, 0, 64, 0
4, 54813, Control_c, 0, 64, 127
4, 55211, Control_c, 0, 64, 0
4, 55765, Control_c, 0, 64, 127
4, 56646, Control_c, 0, 64, 0
4, 57199, Control_c, 0, 64, 127
4, 57611, Control_c, 0, 64, 0
4, 57685, Control_c, 0, 64, 127
4, 58099, Control_c, 0, 64, 0
4, 58221, Control_c, 0, 64, 127
4, 58569, Control_c, 0, 64, 0
4, 58659, Control_c, 0, 64, 127
4, 59050, Control_c, 0, 64, 0
4, 59160, Control_c, 0, 64, 127
4, 59495, Control_c, 0, 64, 0
4, 59586, Control_c, 0, 64, 127
4, 60485, Control_c, 0, 64, 0
4, 60532, Control_c, 0, 64, 127
4, 61450, Control_c, 0, 64, 0
4, 61518, Control_c, 0, 64, 127
4, 62410, Control_c, 0, 64, 0
4, 62513, Control_c, 0, 64, 127
4, 62891, Control_c, 0, 64, 0
4, 62979, Control_c, 0, 64, 127
4, 63360, Control_c, 0, 64, 0
4, 63440, Control_c, 0, 64, 127
4, 63610, Control_c, 0, 64, 0
4, 65280, Control_c, 0, 64, 127
4, 66247, Control_c, 0, 64, 0
4, 66290, Control_c, 0, 64, 127
4, 67200, Control_c, 0, 64, 0
4, 67246, Control_c, 0, 64, 127
4, 69170, Control_c, 0, 64, 0
4, 69206, Control_c, 0, 64, 127
4, 70090, Control_c, 0, 64, 0
4, 70143, Control_c, 0, 64, 127
4, 70572, Control_c, 0, 64, 0
4, 70632, Control_c, 0, 64, 127
4, 71090, Control_c, 0, 64, 0
4, 71126, Control_c, 0, 64, 127
4, 72010, Control_c, 0, 64, 0
4, 72063, Control_c, 0, 64, 127
4, 72492, Control_c, 0, 64, 0
4, 72552, Control_c, 0, 64, 127
4, 72960, Control_c, 0, 64, 0
4, 73075, Control_c, 0, 64, 127
4, 73448, Control_c, 0, 64, 0
4, 73532, Control_c, 0, 64, 127
4, 73931, Control_c, 0, 64, 0
4, 74035, Control_c, 0, 64, 127
4, 74411, Control_c, 0, 64, 0
4, 74503, Control_c, 0, 64, 127
4, 74880, Control_c, 0, 64, 0
4, 74977, Control_c, 0, 64, 127
4, 75848, Control_c, 0, 64, 0
4, 76860, Control_c, 0, 64, 127
4, 77291, Control_c, 0, 64, 0
4, 77347, Control_c, 0, 64, 127
4, 77777, Control_c, 0, 64, 0
4, 77824, Control_c, 0, 64, 127
4, 78250, Control_c, 0, 64, 0
4, 78311, Control_c, 0, 64, 127
4, 78731, Control_c, 0, 64, 0
4, 78777, Control_c, 0, 64, 127
4, 79692, Control_c, 0, 64, 0
4, 79783, Control_c, 0, 64, 127
4, 80661, Control_c, 0, 64, 0
4, 80700, Control_c, 0, 64, 127
4, 81134, Control_c, 0, 64, 0
4, 81170, Control_c, 0, 64, 127
4, 81612, Control_c, 0, 64, 0
4, 81696, Control_c, 0, 64, 127
4, 82083, Control_c, 0, 64, 0
4, 82137, Control_c, 0, 64, 127
4, 82571, Control_c, 0, 64, 0
4, 82624, Control_c, 0, 64, 127
4, 83531, Control_c, 0, 64, 0
4, 83594, Control_c, 0, 64, 127
4, 84491, Control_c, 0, 64, 0
4, 84555, Control_c, 0, 64, 127
4, 84727, Control_c, 0, 64, 0
4, 84787, Control_c, 0, 64, 127
4, 85452, Control_c, 0, 64, 0
4, 85543, Control_c, 0, 64, 127
4, 86412, Control_c, 0, 64, 0
4, 86492, Control_c, 0, 64, 127
4, 86644, Control_c, 0, 64, 0
4, 86749, Control_c, 0, 64, 127
4, 87377, Control_c, 0, 64, 0
4, 87440, Control_c, 0, 64, 127
4, 88320, Control_c, 0, 64, 0
4, 88555, Control_c, 0, 64, 127
4, 89292, Control_c, 0, 64, 0
4, 89532, Control_c, 0, 64, 127
4, 90252, Control_c, 0, 64, 0
4, 90353, Control_c, 0, 64, 127
4, 91212, Control_c, 0, 64, 0
4, 91363, Control_c, 0, 64, 127
4, 91692, Control_c, 0, 64, 0
4, 91768, Control_c, 0, 64, 127
4, 92160, Control_c, 0, 64, 0
4, 92217, Control_c, 0, 64, 127
4, 92643, Control_c, 0, 64, 0
4, 92668, Control_c, 0, 64, 127
4, 93130, Control_c, 0, 64, 0
4, 93173, Control_c, 0, 64, 127
4, 93610, Control_c, 0, 64, 0
4, 93653, Control_c, 0, 64, 127
4, 94066, Control_c, 0, 64, 0
4, 94108, Control_c, 0, 64, 127
4, 95053, Control_c, 0, 64, 0
4, 95111, Control_c, 0, 64, 127
4, 96023, Control_c, 0, 64, 0
4, 96069, Control_c, 0, 64, 127
4, 96488, Control_c, 0, 64, 0
4, 96529, Control_c, 0, 64, 127
4, 96963, Control_c, 0, 64, 0
4, 97003, Control_c, 0, 64, 127
4, 97930, Control_c, 0, 64, 0
4, 97980, Control_c, 0, 64, 127
4, 98890, Control_c, 0, 64, 0
4, 98955, Control_c, 0, 64, 127
4, 99851, Control_c, 0, 64, 0
4, 99909, Control_c, 0, 64, 127
4, 100812, Control_c, 0, 64, 0
4, 100869, Control_c, 0, 64, 127
4, 101767, Control_c, 0, 64, 0
4, 101823, Control_c, 0, 64, 127
4, 102251, Control_c, 0, 64, 0
4, 102309, Control_c, 0, 64, 127
4, 103209, Control_c, 0, 64, 0
4, 103243, Control_c, 0, 64, 127
4, 103446, Control_c, 0, 64, 0
4, 103492, Control_c, 0, 64, 127
4, 103680, Control_c, 0, 64, 0
4, 103737, Control_c, 0, 64, 127
4, 104163, Control_c, 0, 64, 0
4, 104188, Control_c, 0, 64, 127
4, 104650, Control_c, 0, 64, 0
4, 104693, Control_c, 0, 64, 127
4, 105130, Control_c, 0, 64, 0
4, 105173, Control_c, 0, 64, 127
4, 105610, Control_c, 0, 64, 0
4, 105798, Control_c, 0, 64, 127
4, 106573, Control_c, 0, 64, 0
4, 106680, Control_c, 0, 64, 127
4, 107051, Control_c, 0, 64, 0
4, 107146, Control_c, 0, 64, 127
4, 107520, Control_c, 0, 64, 0
4, 107605, Control_c, 0, 64, 127
4, 108485, Control_c, 0, 64, 0
4, 108586, Control_c, 0, 64, 127
4, 108971, Control_c, 0, 64, 0
4, 109073, Control_c, 0, 64, 127
4, 109450, Control_c, 0, 64, 0
4, 109525, Control_c, 0, 64, 127
4, 110413, Control_c, 0, 64, 0
4, 110464, Control_c, 0, 64, 127
4, 110890, Control_c, 0, 64, 0
4, 110951, Control_c, 0, 64, 127
4, 111360, Control_c, 0, 64, 0
4, 111445, Control_c, 0, 64, 127
4, 112325, Control_c, 0, 64, 0
4, 112426, Control_c, 0, 64, 127
4, 112811, Control_c, 0, 64, 0
4, 112913, Control_c, 0, 64, 127
4, 113290, Control_c, 0, 64, 0
4, 113365, Control_c, 0, 64, 127
4, 113993, Control_c, 0, 64, 0
4, 114318, Control_c, 0, 64, 127
4, 114726, Control_c, 0, 64, 0
4, 115292, Control_c, 0, 64, 127
4, 115691, Control_c, 0, 64, 0
4, 116253, Control_c, 0, 64, 127
4, 116651, Control_c, 0, 64, 0
4, 117205, Control_c, 0, 64, 127
4, 118086, Control_c, 0, 64, 0
4, 118639, Control_c, 0, 64, 127
4, 119048, Control_c, 0, 64, 0
4, 119137, Control_c, 0, 64, 127
4, 119539, Control_c, 0, 64, 0
4, 119661, Control_c, 0, 64, 127
4, 120009, Control_c, 0, 64, 0
4, 120099, Control_c, 0, 64, 127
4, 120490, Control_c, 0, 64, 0
4, 120600, Control_c, 0, 64, 127
4, 120960, Control_c, 0, 64, 0
4, 121040, Control_c, 0, 64, 127
4, 121450, Control_c, 0, 64, 0
4, 121560, Control_c, 0, 64, 127
4, 121930, Control_c, 0, 64, 0
4, 122006, Control_c, 0, 64, 127
4, 122410, Control_c, 0, 64, 0
4, 122463, Control_c, 0, 64, 127
4, 122880, Control_c, 0, 64, 0
4, 122965, Control_c, 0, 64, 127
4, 123845, Control_c, 0, 64, 0
4, 123946, Control_c, 0, 64, 127
4, 124331, Control_c, 0, 64, 0
4, 124433, Control_c, 0, 64, 127
4, 124810, Control_c, 0, 64, 0
4, 124885, Control_c, 0, 64, 127
4, 125773, Control_c, 0, 64, 0
4, 125824, Control_c, 0, 64, 127
4, 126250, Control_c, 0, 64, 0
4, 126311, Control_c, 0, 64, 127
4, 126720, Control_c, 0, 64, 0
4, 127037, Control_c, 0, 64, 127
4, 127685, Control_c, 0, 64, 0
4, 127786, Control_c, 0, 64, 127
4, 128171, Control_c, 0, 64, 0
4, 128273, Control_c, 0, 64, 127
4, 128650, Control_c, 0, 64, 0
4, 128725, Control_c, 0, 64, 127
4, 129155, Control_c, 0, 64, 0
4, 129678, Control_c, 0, 64, 127
4, 130086, Control_c, 0, 64, 0
4, 130652, Control_c, 0, 64, 127
4, 131051, Control_c, 0, 64, 0
4, 131613, Control_c, 0, 64, 127
4, 132011, Control_c, 0, 64, 0
4, 132565, Control_c, 0, 64, 127
4, 133446, Control_c, 0, 64, 0
4, 133999, Control_c, 0, 64, 127
4, 134407, Control_c, 0, 64, 0
4, 134506, Control_c, 0, 64, 127
4, 134899, Control_c, 0, 64, 0
4, 135021, Control_c, 0, 64, 127
4, 135369, Control_c, 0, 64, 0
4, 135459, Control_c, 0, 64, 127
4, 135850, Control_c, 0, 64, 0
4, 135960, Control_c, 0, 64, 127
4, 136295, Control_c, 0, 64, 0
4, 136304, Control_c, 0, 64, 127
4, 137285, Control_c, 0, 64, 0
4, 137332, Control_c, 0, 64, 127
4, 138250, Control_c, 0, 64, 0
4, 138318, Control_c, 0, 64, 127
4, 139210, Control_c, 0, 64, 0
4, 139313, Control_c, 0, 64, 127
4, 139691, Control_c, 0, 64, 0
4, 139779, Control_c, 0, 64, 127
4, 140160, Control_c, 0, 64, 0
4, 140240, Control_c, 0, 64, 127
4, 140410, Control_c, 0, 64, 0
4, 142119, Control_c, 0, 64, 127
4, 143047, Control_c, 0, 64, 0
4, 143090, Control_c, 0, 64, 127
4, 144000, Control_c, 0, 64, 0
4, 144046, Control_c, 0, 64, 127
4, 145930, Control_c, 0, 64, 0
4, 146040, Control_c, 0, 64, 127
4, 146890, Control_c, 0, 64, 0
4, 146943, Control_c, 0, 64, 127
4, 147372, Control_c, 0, 64, 0
4, 147432, Control_c, 0, 64, 127
4, 147850, Control_c, 0, 64, 0
4, 147926, Control_c, 0, 64, 127
4, 148810, Control_c, 0, 64, 0
4, 148863, Control_c, 0, 64, 127
4, 149292, Control_c, 0, 64, 0
4, 149352, Control_c, 0, 64, 127
4, 149760, Control_c, 0, 64, 0
4, 149838, Control_c, 0, 64, 127
4, 150250, Control_c, 0, 64, 0
4, 150339, Control_c, 0, 64, 127
4, 150730, Control_c, 0, 64, 0
4, 150798, Control_c, 0, 64, 127
4, 151211, Control_c, 0, 64, 0
4, 151292, Control_c, 0, 64, 127
4, 151683, Control_c, 0, 64, 0
4, 152027, Control_c, 0, 64, 127
4, 152651, Control_c, 0, 64, 0
4, 152820, Control_c, 0, 64, 127
4, 153600, Control_c, 0, 64, 0
4, 153600, End_track
5, 0, Start_track
5, 0, Title_t, "Mozart: Sonate KV 332"
5, 0, End_track
6, 0, Start_track
6, 0, Title_t, "Copyright © 2006 by Bernd Krüger"
6, 0, End_track
7, 0, Start_track
7, 0, Title_t, "http://www.piano-midi.de"
7, 0, End_track
8, 0, Start_track
8, 0, Title_t, "Edition: 2013-07-25"
8, 0, End_track
9, 0, Start_track
9, 0, Title_t, "Spur 8"
9, 0, End_track
10, 0, Start_track
10, 0, Title_t, "Spur 9"
10, 0, End_track
0, 0, End_of_file
