0, 0, Header, 1, 8, 480
1, 0, Start_track
1, 0, Title_t, "Klaviersonate B-Dur KV 333"
1, 0, Title_t, "2. Satz"
1, 0, Copyright_t, "Copyright © 1997 von Bernd Krüger. http://www.piano-midi.de"
1, 0, Text_t, "Mozart"
1, 0, Text_t, "Andante cantabile"
1, 0, Text_t, "Fertiggestellt am 27.8.97\012"
1, 0, Text_t, "Update am 31.3.2000\012"
1, 0, Text_t, "Update am 10.12.2001\012"
1, 0, Text_t, "Normierung: 23.12.2002\012"
1, 0, Text_t, "Update am 11.9.2013\012"
1, 0, Text_t, "Dauer:8:43 Minuten\012"
1, 0, Time_signature, 3, 2, 24, 8
1, 0, Key_signature, -3, "major"
1, 0, Tempo, 1054852
1, 0, Marker_t, "Andante Cantabile - Teil 1"
1, 960, Tempo, 998502
1, 1200, Tempo, 1089918
1, 1440, Tempo, 1013856
1, 1920, Tempo, 998502
1, 2400, Tempo, 1046390
1, 2880, Tempo, 1029866
1, 3360, Tempo, 1054852
1, 3600, Tempo, 1021798
1, 4320, Tempo, 1072003
1, 4800, Tempo, 1054852
1, 5120, Tempo, 1046390
1, 5440, Tempo, 1038062
1, 5720, Tempo, 1029866
1, 5760, Tempo, 1054852
1, 6240, Tempo, 1063453
1, 6600, Tempo, 1099102
1, 6720, Tempo, 1054852
1, 7200, Tempo, 1072003
1, 7680, Tempo, 1054852
1, 7712, Tempo, 1034661
1, 7776, Tempo, 1017122
1, 7808, Tempo, 1000167
1, 7840, Tempo, 983768
1, 7872, Tempo, 967898
1, 7904, Tempo, 952532
1, 8032, Tempo, 937647
1, 8064, Tempo, 952532
1, 8096, Tempo, 983768
1, 8128, Tempo, 1017122
1, 8160, Tempo, 1052816
1, 8280, Tempo, 1063453
1, 8640, Tempo, 1257598
1, 8760, Tempo, 1211143
1, 9000, Tempo, 1348315
1, 9120, Tempo, 1189061
1, 9840, Tempo, 1222494
1, 10080, Tempo, 1054852
1, 10800, Tempo, 1021798
1, 11280, Tempo, 1080886
1, 11520, Tempo, 1054852
1, 12240, Tempo, 1021798
1, 12960, Tempo, 1046390
1, 13680, Tempo, 1021798
1, 14160, Tempo, 1046390
1, 14400, Tempo, 1046390
1, 15120, Tempo, 1013856
1, 16560, Tempo, 1089918
1, 16800, Tempo, 1137441
1, 17040, Tempo, 1245589
1, 17280, Tempo, 1137441
1, 18000, Tempo, 1089918
1, 18200, Tempo, 1080886
1, 18360, Tempo, 1072003
1, 18560, Tempo, 1063453
1, 18720, Tempo, 1054852
1, 20160, Tempo, 1108443
1, 20400, Tempo, 1054852
1, 20880, Tempo, 1089918
1, 21600, Tempo, 1054852
1, 23040, Tempo, 1099102
1, 23280, Tempo, 1072003
1, 23760, Tempo, 1089918
1, 24480, Tempo, 1054852
1, 25440, Tempo, 1117943
1, 25680, Tempo, 1167770
1, 25920, Tempo, 1072003
1, 26640, Tempo, 1008403
1, 26760, Tempo, 1061947
1, 26880, Tempo, 1016949
1, 27000, Tempo, 1061947
1, 27120, Tempo, 1016949
1, 27360, Tempo, 1029866
1, 27760, Tempo, 1189061
1, 27840, Tempo, 1054852
1, 28320, Tempo, 1043478
1, 28440, Tempo, 1100917
1, 28560, Tempo, 1052632
1, 28680, Tempo, 1090909
1, 28800, Tempo, 1061947
1, 29040, Tempo, 1054852
1, 29520, Tempo, 1046390
1, 29720, Tempo, 1054852
1, 29880, Tempo, 1063453
1, 30040, Tempo, 1072003
1, 30200, Tempo, 1080886
1, 30240, Tempo, 1046390
1, 30720, Tempo, 1046390
1, 30960, Tempo, 1063453
1, 31200, Tempo, 1054852
1, 31440, Tempo, 1046390
1, 31680, Tempo, 1038062
1, 31720, Tempo, 1029866
1, 32400, Tempo, 1080886
1, 32840, Tempo, 1063453
1, 32880, Tempo, 1167770
1, 33120, Tempo, 1038062
1, 33840, Tempo, 1063453
1, 34320, Tempo, 1117943
1, 35280, Tempo, 1072003
1, 36000, Tempo, 1046390
1, 36480, Tempo, 1046390
1, 36680, Tempo, 1021798
1, 36920, Tempo, 1063453
1, 37000, Tempo, 1072003
1, 37080, Tempo, 1080886
1, 37160, Tempo, 1089918
1, 37240, Tempo, 1099102
1, 37320, Tempo, 1108443
1, 37400, Tempo, 1117943
1, 37440, Tempo, 1038062
1, 37480, Tempo, 1029866
1, 38160, Tempo, 1080886
1, 38600, Tempo, 1063453
1, 38640, Tempo, 1167770
1, 38840, Tempo, 1167770
1, 38920, Tempo, 1157407
1, 38960, Tempo, 1147447
1, 39040, Tempo, 1137441
1, 39080, Tempo, 1127608
1, 39160, Tempo, 1117943
1, 39200, Tempo, 1108443
1, 39280, Tempo, 1099102
1, 39320, Tempo, 1089918
1, 39360, Tempo, 1054852
1, 40080, Tempo, 1147447
1, 40320, Tempo, 1021798
1, 41040, Tempo, 1021798
1, 41200, Tempo, 1029866
1, 41360, Tempo, 1038062
1, 41480, Tempo, 1046390
1, 41640, Tempo, 1054852
1, 41760, Tempo, 1063453
1, 42480, Tempo, 1080886
1, 42520, Tempo, 1089918
1, 42640, Tempo, 1099102
1, 42720, Tempo, 1108443
1, 42840, Tempo, 1117943
1, 42920, Tempo, 1127608
1, 42960, Tempo, 1308044
1, 43200, Tempo, 1362398
1, 43920, Tempo, 1245589
1, 44160, Tempo, 1167770
1, 44400, Tempo, 1269841
1, 44640, Tempo, 1054852
1, 44640, Marker_t, "Teil 1 - Wiederholung"
1, 45600, Tempo, 998502
1, 45840, Tempo, 1089918
1, 46080, Tempo, 1013856
1, 46560, Tempo, 998502
1, 47040, Tempo, 1046390
1, 47520, Tempo, 1029866
1, 48000, Tempo, 1054852
1, 48240, Tempo, 1021798
1, 48960, Tempo, 1072003
1, 49440, Tempo, 1054852
1, 49760, Tempo, 1046390
1, 50080, Tempo, 1038062
1, 50360, Tempo, 1029866
1, 50400, Tempo, 1054852
1, 50880, Tempo, 1063453
1, 51240, Tempo, 1099102
1, 51360, Tempo, 1054852
1, 51840, Tempo, 1072003
1, 52320, Tempo, 1054852
1, 52800, Tempo, 1108443
1, 52920, Tempo, 1063453
1, 53280, Tempo, 1257598
1, 53400, Tempo, 1132289
1, 53640, Tempo, 1500375
1, 53760, Tempo, 1189061
1, 54240, Tempo, 1154068
1, 54480, Tempo, 1222494
1, 54720, Tempo, 1054852
1, 55440, Tempo, 1021798
1, 55920, Tempo, 1080886
1, 56160, Tempo, 1054852
1, 56880, Tempo, 1021798
1, 57600, Tempo, 1046390
1, 58320, Tempo, 1021798
1, 58800, Tempo, 1046390
1, 59040, Tempo, 1046390
1, 59760, Tempo, 1013856
1, 61200, Tempo, 1052816
1, 61440, Tempo, 1176701
1, 61680, Tempo, 1245589
1, 61920, Tempo, 1137441
1, 62640, Tempo, 1089918
1, 62840, Tempo, 1080886
1, 63000, Tempo, 1072003
1, 63200, Tempo, 1063453
1, 63360, Tempo, 1054852
1, 64800, Tempo, 1108443
1, 65040, Tempo, 1054852
1, 65520, Tempo, 1089918
1, 66240, Tempo, 1054852
1, 67680, Tempo, 1099102
1, 67920, Tempo, 1072003
1, 68400, Tempo, 1089918
1, 69120, Tempo, 1054852
1, 70080, Tempo, 1117943
1, 70320, Tempo, 1167770
1, 70560, Tempo, 1072003
1, 71280, Tempo, 1008403
1, 71400, Tempo, 1061947
1, 71520, Tempo, 1016949
1, 71640, Tempo, 1061947
1, 71760, Tempo, 1016949
1, 72000, Tempo, 1029866
1, 72400, Tempo, 1189061
1, 72480, Tempo, 1054852
1, 72960, Tempo, 1043478
1, 73080, Tempo, 1100917
1, 73200, Tempo, 1052632
1, 73320, Tempo, 1090909
1, 73440, Tempo, 1061947
1, 73680, Tempo, 1054852
1, 74160, Tempo, 1046390
1, 74360, Tempo, 1054852
1, 74520, Tempo, 1063453
1, 74680, Tempo, 1072003
1, 74840, Tempo, 1080886
1, 74880, Tempo, 1046390
1, 75360, Tempo, 1046390
1, 75600, Tempo, 1063453
1, 75840, Tempo, 1054852
1, 76080, Tempo, 1046390
1, 76320, Tempo, 1038062
1, 76360, Tempo, 1029866
1, 77040, Tempo, 1080886
1, 77480, Tempo, 1063453
1, 77520, Tempo, 1167770
1, 77760, Tempo, 1038062
1, 78480, Tempo, 1063453
1, 78960, Tempo, 1117943
1, 79920, Tempo, 1072003
1, 80640, Tempo, 1046390
1, 81120, Tempo, 1046390
1, 81320, Tempo, 1021798
1, 81560, Tempo, 1063453
1, 81640, Tempo, 1072003
1, 81720, Tempo, 1080886
1, 81800, Tempo, 1089918
1, 81880, Tempo, 1099102
1, 81960, Tempo, 1108443
1, 82040, Tempo, 1117943
1, 82080, Tempo, 1038062
1, 82120, Tempo, 1029866
1, 82440, Tempo, 952532
1, 82560, Tempo, 1071620
1, 82800, Tempo, 1080886
1, 83240, Tempo, 1063453
1, 83280, Tempo, 1167770
1, 83480, Tempo, 1167770
1, 83560, Tempo, 1157407
1, 83600, Tempo, 1147447
1, 83680, Tempo, 1137441
1, 83720, Tempo, 1127608
1, 83800, Tempo, 1117943
1, 83840, Tempo, 1108443
1, 83920, Tempo, 1099102
1, 83960, Tempo, 1089918
1, 84000, Tempo, 1054852
1, 84720, Tempo, 1147447
1, 84960, Tempo, 1021798
1, 85680, Tempo, 1021798
1, 85840, Tempo, 1029866
1, 86000, Tempo, 1038062
1, 86120, Tempo, 1046390
1, 86280, Tempo, 1054852
1, 86400, Tempo, 1063453
1, 87120, Tempo, 1080886
1, 87160, Tempo, 1089918
1, 87280, Tempo, 1099102
1, 87360, Tempo, 1108443
1, 87480, Tempo, 1117943
1, 87560, Tempo, 1127608
1, 87600, Tempo, 1308044
1, 87840, Tempo, 1362398
1, 88560, Tempo, 1245589
1, 88800, Tempo, 1167770
1, 89040, Tempo, 1304631
1, 89280, Tempo, 1250260
1, 89280, Marker_t, "Teil 2"
1, 89760, Tempo, 1080886
1, 90240, Tempo, 1117943
1, 90480, Tempo, 1167770
1, 90720, Tempo, 1127608
1, 91440, Tempo, 1054852
1, 92160, Tempo, 1063453
1, 92640, Tempo, 1029866
1, 93360, Tempo, 1046390
1, 93600, Tempo, 1054852
1, 94320, Tempo, 1080886
1, 95280, Tempo, 998502
1, 95760, Tempo, 960000
1, 95880, Tempo, 1008403
1, 96000, Tempo, 1029866
1, 96240, Tempo, 990917
1, 96480, Tempo, 1046390
1, 97200, Tempo, 1063453
1, 97680, Tempo, 1137441
1, 97920, Tempo, 1063453
1, 98160, Tempo, 1029866
1, 98640, Tempo, 1006036
1, 98880, Tempo, 1029866
1, 99120, Tempo, 1006036
1, 99240, Tempo, 1089918
1, 99360, Tempo, 1054852
1, 100080, Tempo, 1038062
1, 101040, Tempo, 1029866
1, 101340, Tempo, 1021798
1, 101640, Tempo, 1013856
1, 101940, Tempo, 1006036
1, 102000, Tempo, 1072003
1, 102240, Tempo, 1046390
1, 102960, Tempo, 1021798
1, 103440, Tempo, 1054852
1, 103680, Tempo, 1021798
1, 104040, Tempo, 1189061
1, 104160, Tempo, 1046390
1, 104640, Tempo, 1089918
1, 104880, Tempo, 1157407
1, 105120, Tempo, 1029866
1, 105840, Tempo, 1021798
1, 106320, Tempo, 1063453
1, 106560, Tempo, 1054852
1, 106800, Tempo, 1021798
1, 107280, Tempo, 1021798
1, 108000, Tempo, 1054852
1, 108240, Tempo, 1021798
1, 108720, Tempo, 1038062
1, 108960, Tempo, 1046390
1, 109200, Tempo, 1080886
1, 109440, Tempo, 1046390
1, 109920, Tempo, 1029866
1, 110160, Tempo, 1013856
1, 110880, Tempo, 1054852
1, 111120, Tempo, 1021798
1, 111840, Tempo, 1038062
1, 112080, Tempo, 1080886
1, 112680, Tempo, 1029866
1, 113040, Tempo, 1072003
1, 114480, Tempo, 1108443
1, 114960, Tempo, 1167770
1, 115200, Tempo, 1321295
1, 115440, Tempo, 1211143
1, 115680, Tempo, 1072003
1, 116160, Tempo, 1046390
1, 116180, Tempo, 1063453
1, 116240, Tempo, 1072003
1, 116280, Tempo, 1080886
1, 116340, Tempo, 1089918
1, 116380, Tempo, 1099102
1, 116440, Tempo, 1108443
1, 116480, Tempo, 1117943
1, 116500, Tempo, 1080886
1, 116520, Tempo, 1257598
1, 116640, Tempo, 1054852
1, 117120, Tempo, 1029866
1, 117600, Tempo, 1054852
1, 117840, Tempo, 1072003
1, 118080, Tempo, 1013856
1, 118560, Tempo, 1038062
1, 119640, Tempo, 1038062
1, 119860, Tempo, 1029866
1, 120060, Tempo, 1021798
1, 120280, Tempo, 1013856
1, 120480, Tempo, 1013856
1, 120580, Tempo, 1021798
1, 120680, Tempo, 1029866
1, 120780, Tempo, 1038062
1, 120880, Tempo, 1046390
1, 120960, Tempo, 1054852
1, 121460, Tempo, 1046390
1, 121700, Tempo, 1038062
1, 121940, Tempo, 1029866
1, 122180, Tempo, 1021798
1, 122280, Tempo, 1072003
1, 122400, Tempo, 1038062
1, 122640, Tempo, 1021798
1, 122900, Tempo, 1013856
1, 122960, Tempo, 1021798
1, 123020, Tempo, 1029866
1, 123060, Tempo, 1038062
1, 123120, Tempo, 1046390
1, 123360, Tempo, 1054852
1, 124920, Tempo, 1021798
1, 125160, Tempo, 1080886
1, 125280, Tempo, 1038062
1, 125520, Tempo, 1006036
1, 125760, Tempo, 1063453
1, 126000, Tempo, 1029866
1, 126720, Tempo, 1054852
1, 127440, Tempo, 1021798
1, 127920, Tempo, 1080886
1, 128160, Tempo, 1054852
1, 128880, Tempo, 1021798
1, 129600, Tempo, 1046390
1, 130320, Tempo, 1021798
1, 130800, Tempo, 1046390
1, 131040, Tempo, 1046390
1, 131760, Tempo, 1013856
1, 132720, Tempo, 1006036
1, 132780, Tempo, 1013856
1, 132840, Tempo, 1021798
1, 132900, Tempo, 1029866
1, 132940, Tempo, 1038062
1, 132960, Tempo, 1013856
1, 133200, Tempo, 1089918
1, 133440, Tempo, 1137441
1, 133680, Tempo, 1189061
1, 133920, Tempo, 1046390
1, 134000, Tempo, 1054852
1, 134060, Tempo, 1063453
1, 134140, Tempo, 1072003
1, 134200, Tempo, 1080886
1, 134260, Tempo, 1089918
1, 134280, Tempo, 1137441
1, 134520, Tempo, 1054852
1, 135200, Tempo, 1063453
1, 135360, Tempo, 1054852
1, 136800, Tempo, 1108443
1, 137040, Tempo, 1054852
1, 137520, Tempo, 1089918
1, 138240, Tempo, 1054852
1, 139680, Tempo, 1099102
1, 139920, Tempo, 1072003
1, 140400, Tempo, 1089918
1, 141120, Tempo, 1054852
1, 142060, Tempo, 1054852
1, 142140, Tempo, 1063453
1, 142200, Tempo, 1072003
1, 142280, Tempo, 1080886
1, 142340, Tempo, 1089918
1, 142440, Tempo, 1157407
1, 142540, Tempo, 1117943
1, 142560, Tempo, 1072003
1, 143280, Tempo, 1046390
1, 143520, Tempo, 1016949
1, 143640, Tempo, 1071429
1, 143760, Tempo, 1016949
1, 143880, Tempo, 1052632
1, 144000, Tempo, 1013856
1, 144480, Tempo, 1054852
1, 144960, Tempo, 1052632
1, 145080, Tempo, 1100917
1, 145200, Tempo, 1052632
1, 145320, Tempo, 1100917
1, 145440, Tempo, 1081081
1, 145680, Tempo, 1054852
1, 146160, Tempo, 1046390
1, 146360, Tempo, 1054852
1, 146520, Tempo, 1063453
1, 146680, Tempo, 1072003
1, 146840, Tempo, 1080886
1, 146880, Tempo, 1046390
1, 147360, Tempo, 1046390
1, 147600, Tempo, 1063453
1, 147840, Tempo, 1054852
1, 148080, Tempo, 1046390
1, 148320, Tempo, 1038062
1, 148360, Tempo, 1029866
1, 149040, Tempo, 1080886
1, 149480, Tempo, 1063453
1, 149520, Tempo, 1167770
1, 149760, Tempo, 1038062
1, 150480, Tempo, 1063453
1, 150960, Tempo, 1117943
1, 151920, Tempo, 1072003
1, 152640, Tempo, 1046390
1, 153120, Tempo, 1046390
1, 153320, Tempo, 1021798
1, 153560, Tempo, 1063453
1, 153640, Tempo, 1072003
1, 153720, Tempo, 1080886
1, 153800, Tempo, 1089918
1, 153880, Tempo, 1099102
1, 153960, Tempo, 1108443
1, 154040, Tempo, 1117943
1, 154080, Tempo, 1038062
1, 154120, Tempo, 1029866
1, 154800, Tempo, 1080886
1, 155240, Tempo, 1063453
1, 155280, Tempo, 1167770
1, 155480, Tempo, 1167770
1, 155560, Tempo, 1157407
1, 155600, Tempo, 1147447
1, 155680, Tempo, 1137441
1, 155720, Tempo, 1127608
1, 155800, Tempo, 1117943
1, 155840, Tempo, 1108443
1, 155920, Tempo, 1099102
1, 155960, Tempo, 1089918
1, 156000, Tempo, 1054852
1, 156720, Tempo, 1147447
1, 156960, Tempo, 1021798
1, 157680, Tempo, 1021798
1, 157840, Tempo, 1029866
1, 158000, Tempo, 1038062
1, 158120, Tempo, 1046390
1, 158280, Tempo, 1054852
1, 158400, Tempo, 1063453
1, 159120, Tempo, 1080886
1, 159160, Tempo, 1089918
1, 159280, Tempo, 1099102
1, 159360, Tempo, 1108443
1, 159480, Tempo, 1117943
1, 159560, Tempo, 1127608
1, 159600, Tempo, 1308044
1, 159840, Tempo, 1362398
1, 160560, Tempo, 1245589
1, 160800, Tempo, 1167770
1, 161040, Tempo, 1250260
1, 161280, Tempo, 1090909
1, 161280, Marker_t, "Teil 2 - Wiederholung"
1, 161520, Tempo, 1061947
1, 161760, Tempo, 1080886
1, 162240, Tempo, 1117943
1, 162480, Tempo, 1167770
1, 162720, Tempo, 1127608
1, 163440, Tempo, 1054852
1, 164160, Tempo, 1063453
1, 164640, Tempo, 1029866
1, 165360, Tempo, 1046390
1, 165600, Tempo, 1054852
1, 166320, Tempo, 1080886
1, 167280, Tempo, 998502
1, 167760, Tempo, 960000
1, 167880, Tempo, 1008403
1, 168000, Tempo, 1029866
1, 168240, Tempo, 990917
1, 168480, Tempo, 1046390
1, 169080, Tempo, 1008403
1, 169200, Tempo, 1063453
1, 169680, Tempo, 1137441
1, 169920, Tempo, 1063453
1, 170160, Tempo, 1029866
1, 170640, Tempo, 1006036
1, 170880, Tempo, 1016949
1, 171120, Tempo, 1006036
1, 171240, Tempo, 1089918
1, 171360, Tempo, 1054852
1, 172080, Tempo, 1038062
1, 172560, Tempo, 1091107
1, 172800, Tempo, 1008403
1, 173040, Tempo, 1029866
1, 173340, Tempo, 1021798
1, 173640, Tempo, 1013856
1, 173760, Tempo, 983607
1, 173940, Tempo, 1006036
1, 174000, Tempo, 1072003
1, 174240, Tempo, 1046390
1, 174960, Tempo, 1021798
1, 175440, Tempo, 1054852
1, 175680, Tempo, 1021798
1, 175800, Tempo, 983607
1, 176040, Tempo, 1189061
1, 176160, Tempo, 1046390
1, 176520, Tempo, 1008403
1, 176640, Tempo, 1089918
1, 176880, Tempo, 1157407
1, 177120, Tempo, 1029866
1, 177840, Tempo, 1021798
1, 178320, Tempo, 1063453
1, 178560, Tempo, 1054852
1, 178800, Tempo, 1021798
1, 179280, Tempo, 1021798
1, 179760, Tempo, 1091107
1, 180000, Tempo, 1054852
1, 180240, Tempo, 1021798
1, 180720, Tempo, 1038062
1, 180960, Tempo, 1046390
1, 181200, Tempo, 1111317
1, 181440, Tempo, 1046390
1, 181920, Tempo, 1029866
1, 182160, Tempo, 1013856
1, 182880, Tempo, 1054852
1, 183120, Tempo, 1021798
1, 183840, Tempo, 1038062
1, 184080, Tempo, 1080886
1, 184680, Tempo, 1029866
1, 185040, Tempo, 1072003
1, 186480, Tempo, 1108443
1, 186960, Tempo, 1167770
1, 187200, Tempo, 1321295
1, 187440, Tempo, 1250260
1, 187560, Tempo, 1363946
1, 187680, Tempo, 1072003
1, 188160, Tempo, 1046390
1, 188180, Tempo, 1063453
1, 188240, Tempo, 1072003
1, 188280, Tempo, 1080886
1, 188320, Tempo, 1071429
1, 188360, Tempo, 1081081
1, 188380, Tempo, 1090909
1, 188400, Tempo, 1100917
1, 188420, Tempo, 1111111
1, 188440, Tempo, 1121495
1, 188460, Tempo, 1132075
1, 188480, Tempo, 1142857
1, 188500, Tempo, 1080886
1, 188520, Tempo, 1257598
1, 188640, Tempo, 1054852
1, 189000, Tempo, 1025641
1, 189120, Tempo, 1029866
1, 189480, Tempo, 1000000
1, 189600, Tempo, 1054852
1, 189840, Tempo, 1072003
1, 190080, Tempo, 1013856
1, 190560, Tempo, 1038062
1, 191640, Tempo, 1038062
1, 191860, Tempo, 1029866
1, 192060, Tempo, 1021798
1, 192280, Tempo, 1013856
1, 192480, Tempo, 1013856
1, 192580, Tempo, 1021798
1, 192680, Tempo, 1029866
1, 192780, Tempo, 1038062
1, 192880, Tempo, 1046390
1, 192960, Tempo, 1054852
1, 193460, Tempo, 1046390
1, 193700, Tempo, 1038062
1, 193940, Tempo, 1029866
1, 194180, Tempo, 1021798
1, 194280, Tempo, 1072003
1, 194400, Tempo, 1038062
1, 194640, Tempo, 1021798
1, 194900, Tempo, 1013856
1, 194960, Tempo, 1021798
1, 195020, Tempo, 1029866
1, 195060, Tempo, 1038062
1, 195120, Tempo, 1046390
1, 195360, Tempo, 1054852
1, 195840, Tempo, 1000167
1, 196080, Tempo, 1071620
1, 196440, Tempo, 1017122
1, 196560, Tempo, 1071620
1, 196920, Tempo, 1021798
1, 197160, Tempo, 1111317
1, 197280, Tempo, 1038062
1, 197520, Tempo, 1006036
1, 197760, Tempo, 1063453
1, 198000, Tempo, 1029866
1, 198720, Tempo, 1054852
1, 199440, Tempo, 1021798
1, 199920, Tempo, 1080886
1, 200160, Tempo, 1054852
1, 200880, Tempo, 1021798
1, 201600, Tempo, 1034483
1, 201840, Tempo, 1043478
1, 202320, Tempo, 1021798
1, 202800, Tempo, 1046390
1, 203040, Tempo, 1000000
1, 203160, Tempo, 1034483
1, 203760, Tempo, 1013856
1, 204720, Tempo, 1006036
1, 204780, Tempo, 1013856
1, 204840, Tempo, 1021798
1, 204900, Tempo, 1029866
1, 204940, Tempo, 1038062
1, 204960, Tempo, 1013856
1, 205200, Tempo, 1089918
1, 205440, Tempo, 1137441
1, 205680, Tempo, 1224740
1, 205920, Tempo, 1046390
1, 206000, Tempo, 1054852
1, 206060, Tempo, 1063453
1, 206140, Tempo, 1072003
1, 206200, Tempo, 1080886
1, 206260, Tempo, 1089918
1, 206280, Tempo, 1137441
1, 206520, Tempo, 1054852
1, 207200, Tempo, 1063453
1, 207240, Tempo, 1025641
1, 207360, Tempo, 1054852
1, 208800, Tempo, 1108443
1, 208920, Tempo, 1061947
1, 209040, Tempo, 1054852
1, 209520, Tempo, 1089918
1, 210240, Tempo, 1054852
1, 211680, Tempo, 1099102
1, 211800, Tempo, 1052632
1, 211920, Tempo, 1072003
1, 212400, Tempo, 1089918
1, 213120, Tempo, 1054852
1, 213840, Tempo, 1052632
1, 214060, Tempo, 1054852
1, 214140, Tempo, 1063453
1, 214200, Tempo, 1072003
1, 214280, Tempo, 1080886
1, 214340, Tempo, 1089918
1, 214440, Tempo, 1157407
1, 214540, Tempo, 1117943
1, 214560, Tempo, 1072003
1, 215280, Tempo, 1046390
1, 215520, Tempo, 1025641
1, 215640, Tempo, 1071429
1, 215760, Tempo, 1034483
1, 215880, Tempo, 1071429
1, 216000, Tempo, 1017122
1, 216240, Tempo, 967898
1, 216360, Tempo, 1071620
1, 216480, Tempo, 1054852
1, 216960, Tempo, 1016949
1, 217080, Tempo, 1090909
1, 217200, Tempo, 1034483
1, 217320, Tempo, 1100917
1, 217440, Tempo, 1081081
1, 217680, Tempo, 1054852
1, 218160, Tempo, 1046390
1, 218360, Tempo, 1054852
1, 218520, Tempo, 1063453
1, 218680, Tempo, 1072003
1, 218840, Tempo, 1080886
1, 218880, Tempo, 1046390
1, 219360, Tempo, 1046390
1, 219600, Tempo, 1063453
1, 219840, Tempo, 1054852
1, 220080, Tempo, 1046390
1, 220320, Tempo, 1038062
1, 220360, Tempo, 1029866
1, 220560, Tempo, 991736
1, 220720, Tempo, 1043478
1, 220800, Tempo, 1025641
1, 221040, Tempo, 1080886
1, 221480, Tempo, 1063453
1, 221520, Tempo, 1167770
1, 221760, Tempo, 1038062
1, 222480, Tempo, 1063453
1, 222960, Tempo, 1117943
1, 223920, Tempo, 1072003
1, 224640, Tempo, 1046390
1, 225120, Tempo, 1046390
1, 225320, Tempo, 1021798
1, 225560, Tempo, 1063453
1, 225640, Tempo, 1072003
1, 225720, Tempo, 1080886
1, 225800, Tempo, 1089918
1, 225880, Tempo, 1099102
1, 225960, Tempo, 1108443
1, 226040, Tempo, 1117943
1, 226080, Tempo, 1038062
1, 226120, Tempo, 1029866
1, 226320, Tempo, 1000000
1, 226440, Tempo, 1061947
1, 226560, Tempo, 1025641
1, 226800, Tempo, 1080886
1, 227240, Tempo, 1063453
1, 227280, Tempo, 1167770
1, 227480, Tempo, 1167770
1, 227560, Tempo, 1157407
1, 227600, Tempo, 1147447
1, 227680, Tempo, 1137441
1, 227720, Tempo, 1127608
1, 227800, Tempo, 1117943
1, 227840, Tempo, 1108443
1, 227920, Tempo, 1099102
1, 227960, Tempo, 1089918
1, 228000, Tempo, 1054852
1, 228720, Tempo, 1147447
1, 228960, Tempo, 1021798
1, 229680, Tempo, 1021798
1, 229840, Tempo, 1029866
1, 230000, Tempo, 1038062
1, 230120, Tempo, 1046390
1, 230280, Tempo, 1054852
1, 230400, Tempo, 1063453
1, 231120, Tempo, 1080886
1, 231160, Tempo, 1089918
1, 231280, Tempo, 1099102
1, 231360, Tempo, 1108443
1, 231480, Tempo, 1117943
1, 231560, Tempo, 1127608
1, 231600, Tempo, 1308044
1, 232560, Tempo, 1363946
1, 232800, Tempo, 1276867
1, 233040, Tempo, 1714776
1, 233280, Tempo, 1333630
1, 234480, Marker_t, "Fine"
1, 234480, End_track
2, 0, Start_track
2, 0, Title_t, "Piano right"
2, 0, Program_c, 0, 0
2, 0, Control_c, 0, 7, 100
2, 0, Control_c, 0, 10, 64
2, 0, Control_c, 0, 91, 127
2, 0, Text_t, "bdca426d104a26ac9dcb070447587523"
2, 1, Note_on_c, 0, 70, 59
2, 1, Note_on_c, 0, 67, 59
2, 480, Note_on_c, 0, 68, 55
2, 480, Note_on_c, 0, 65, 55
2, 481, Note_on_c, 0, 67, 0
2, 481, Note_on_c, 0, 70, 0
2, 720, Note_on_c, 0, 63, 53
2, 720, Note_on_c, 0, 67, 53
2, 740, Note_on_c, 0, 68, 0
2, 740, Note_on_c, 0, 65, 0
2, 960, Note_on_c, 0, 68, 54
2, 960, Note_on_c, 0, 72, 54
2, 980, Note_on_c, 0, 63, 0
2, 980, Note_on_c, 0, 67, 0
2, 1200, Note_on_c, 0, 67, 52
2, 1200, Note_on_c, 0, 70, 52
2, 1220, Note_on_c, 0, 68, 0
2, 1220, Note_on_c, 0, 72, 0
2, 1420, Note_on_c, 0, 67, 0
2, 1420, Note_on_c, 0, 70, 0
2, 1440, Note_on_c, 0, 70, 59
2, 1440, Note_on_c, 0, 67, 59
2, 1920, Note_on_c, 0, 67, 0
2, 1920, Note_on_c, 0, 70, 0
2, 1920, Note_on_c, 0, 65, 53
2, 1920, Note_on_c, 0, 68, 53
2, 2400, Note_on_c, 0, 68, 0
2, 2400, Note_on_c, 0, 65, 0
2, 2400, Note_on_c, 0, 63, 51
2, 2400, Note_on_c, 0, 67, 51
2, 2880, Note_on_c, 0, 67, 0
2, 2880, Note_on_c, 0, 63, 0
2, 2880, Note_on_c, 0, 64, 65
2, 3360, Note_on_c, 0, 64, 0
2, 3360, Note_on_c, 0, 65, 55
2, 3600, Note_on_c, 0, 65, 0
2, 3600, Note_on_c, 0, 72, 55
2, 3840, Note_on_c, 0, 72, 0
2, 3840, Note_on_c, 0, 70, 53
2, 3960, Note_on_c, 0, 70, 0
2, 3960, Note_on_c, 0, 68, 51
2, 4080, Note_on_c, 0, 68, 0
2, 4080, Note_on_c, 0, 67, 53
2, 4200, Note_on_c, 0, 67, 0
2, 4200, Note_on_c, 0, 65, 52
2, 4320, Note_on_c, 0, 65, 0
2, 4320, Note_on_c, 0, 55, 59
2, 4320, Note_on_c, 0, 63, 59
2, 4800, Note_on_c, 0, 63, 0
2, 4800, Note_on_c, 0, 55, 0
2, 4800, Note_on_c, 0, 53, 53
2, 4800, Note_on_c, 0, 62, 53
2, 4920, Note_on_c, 0, 62, 0
2, 4920, Note_on_c, 0, 53, 0
2, 4980, Note_on_c, 0, 58, 47
2, 5040, Note_on_c, 0, 58, 0
2, 5040, Note_on_c, 0, 62, 51
2, 5100, Note_on_c, 0, 62, 0
2, 5100, Note_on_c, 0, 60, 49
2, 5160, Note_on_c, 0, 60, 0
2, 5160, Note_on_c, 0, 63, 52
2, 5220, Note_on_c, 0, 63, 0
2, 5220, Note_on_c, 0, 62, 51
2, 5280, Note_on_c, 0, 62, 0
2, 5280, Note_on_c, 0, 65, 53
2, 5340, Note_on_c, 0, 65, 0
2, 5340, Note_on_c, 0, 63, 51
2, 5400, Note_on_c, 0, 63, 0
2, 5400, Note_on_c, 0, 67, 54
2, 5460, Note_on_c, 0, 67, 0
2, 5460, Note_on_c, 0, 65, 54
2, 5520, Note_on_c, 0, 65, 0
2, 5520, Note_on_c, 0, 68, 57
2, 5580, Note_on_c, 0, 68, 0
2, 5580, Note_on_c, 0, 67, 54
2, 5640, Note_on_c, 0, 67, 0
2, 5640, Note_on_c, 0, 70, 59
2, 5700, Note_on_c, 0, 70, 0
2, 5700, Note_on_c, 0, 68, 56
2, 5760, Note_on_c, 0, 68, 0
2, 5760, Note_on_c, 0, 72, 60
2, 5820, Note_on_c, 0, 72, 0
2, 5820, Note_on_c, 0, 67, 61
2, 5820, Note_on_c, 0, 70, 61
2, 6120, Note_on_c, 0, 70, 0
2, 6120, Note_on_c, 0, 72, 53
2, 6180, Note_on_c, 0, 72, 0
2, 6180, Note_on_c, 0, 70, 50
2, 6240, Note_on_c, 0, 70, 0
2, 6240, Note_on_c, 0, 67, 0
2, 6240, Note_on_c, 0, 68, 53
2, 6360, Note_on_c, 0, 68, 0
2, 6360, Note_on_c, 0, 67, 51
2, 6480, Note_on_c, 0, 67, 0
2, 6480, Note_on_c, 0, 65, 53
2, 6600, Note_on_c, 0, 65, 0
2, 6600, Note_on_c, 0, 63, 52
2, 6720, Note_on_c, 0, 63, 0
2, 6720, Note_on_c, 0, 79, 62
2, 6840, Note_on_c, 0, 79, 0
2, 6840, Note_on_c, 0, 74, 54
2, 6960, Note_on_c, 0, 74, 0
2, 6960, Note_on_c, 0, 75, 58
2, 7080, Note_on_c, 0, 75, 0
2, 7080, Note_on_c, 0, 72, 52
2, 7200, Note_on_c, 0, 72, 0
2, 7200, Note_on_c, 0, 70, 56
2, 7680, Note_on_c, 0, 70, 0
2, 7680, Note_on_c, 0, 68, 50
2, 7732, Note_on_c, 0, 68, 0
2, 7732, Note_on_c, 0, 70, 48
2, 7783, Note_on_c, 0, 70, 0
2, 7783, Note_on_c, 0, 68, 50
2, 7835, Note_on_c, 0, 68, 0
2, 7835, Note_on_c, 0, 70, 48
2, 7887, Note_on_c, 0, 70, 0
2, 7887, Note_on_c, 0, 68, 50
2, 7938, Note_on_c, 0, 68, 0
2, 7938, Note_on_c, 0, 70, 49
2, 7990, Note_on_c, 0, 70, 0
2, 7990, Note_on_c, 0, 68, 49
2, 8040, Note_on_c, 0, 67, 57
2, 8041, Note_on_c, 0, 68, 0
2, 8100, Note_on_c, 0, 67, 0
2, 8100, Note_on_c, 0, 68, 55
2, 8160, Note_on_c, 0, 68, 0
2, 8160, Note_on_c, 0, 67, 60
2, 8220, Note_on_c, 0, 67, 0
2, 8280, Note_on_c, 0, 75, 65
2, 8400, Note_on_c, 0, 75, 0
2, 8400, Note_on_c, 0, 74, 62
2, 8520, Note_on_c, 0, 74, 0
2, 8520, Note_on_c, 0, 73, 59
2, 8640, Note_on_c, 0, 73, 0
2, 8640, Note_on_c, 0, 71, 57
2, 8730, Note_on_c, 0, 74, 53
2, 8760, Note_on_c, 0, 74, 0
2, 8760, Note_on_c, 0, 71, 0
2, 8760, Note_on_c, 0, 72, 61
2, 8850, Note_on_c, 0, 70, 53
2, 8880, Note_on_c, 0, 70, 0
2, 8880, Note_on_c, 0, 72, 0
2, 8880, Note_on_c, 0, 68, 57
2, 8970, Note_on_c, 0, 67, 47
2, 9000, Note_on_c, 0, 67, 0
2, 9000, Note_on_c, 0, 68, 0
2, 9000, Note_on_c, 0, 65, 55
2, 9120, Note_on_c, 0, 65, 0
2, 9120, Note_on_c, 0, 63, 51
2, 9840, Note_on_c, 0, 63, 0
2, 9840, Note_on_c, 0, 67, 50
2, 9840, Note_on_c, 0, 62, 50
2, 9960, Note_on_c, 0, 67, 0
2, 9960, Note_on_c, 0, 65, 47
2, 10080, Note_on_c, 0, 65, 0
2, 10080, Note_on_c, 0, 62, 0
2, 10080, Note_on_c, 0, 63, 46
2, 10560, Note_on_c, 0, 63, 0
2, 10800, Note_on_c, 0, 67, 49
2, 10800, Note_on_c, 0, 70, 49
2, 11040, Note_on_c, 0, 70, 0
2, 11040, Note_on_c, 0, 67, 0
2, 11040, Note_on_c, 0, 67, 52
2, 11040, Note_on_c, 0, 70, 52
2, 11280, Note_on_c, 0, 70, 0
2, 11280, Note_on_c, 0, 67, 0
2, 11280, Note_on_c, 0, 67, 46
2, 11280, Note_on_c, 0, 70, 46
2, 11520, Note_on_c, 0, 70, 0
2, 11520, Note_on_c, 0, 67, 0
2, 11520, Note_on_c, 0, 68, 57
2, 11520, Note_on_c, 0, 75, 57
2, 11760, Note_on_c, 0, 75, 0
2, 11760, Note_on_c, 0, 74, 50
2, 12240, Note_on_c, 0, 74, 0
2, 12240, Note_on_c, 0, 68, 0
2, 12240, Note_on_c, 0, 82, 54
2, 12360, Note_on_c, 0, 80, 51
2, 12384, Note_on_c, 0, 82, 0
2, 12480, Note_on_c, 0, 80, 0
2, 12480, Note_on_c, 0, 79, 54
2, 12600, Note_on_c, 0, 77, 52
2, 12624, Note_on_c, 0, 79, 0
2, 12720, Note_on_c, 0, 75, 52
2, 12744, Note_on_c, 0, 77, 0
2, 12840, Note_on_c, 0, 74, 49
2, 12864, Note_on_c, 0, 75, 0
2, 12960, Note_on_c, 0, 74, 0
2, 12960, Note_on_c, 0, 77, 54
2, 13000, Note_on_c, 0, 77, 0
2, 13000, Note_on_c, 0, 75, 52
2, 13320, Note_on_c, 0, 75, 0
2, 13320, Note_on_c, 0, 74, 45
2, 13380, Note_on_c, 0, 74, 0
2, 13380, Note_on_c, 0, 72, 44
2, 13440, Note_on_c, 0, 72, 0
2, 13440, Note_on_c, 0, 70, 45
2, 13680, Note_on_c, 0, 70, 0
2, 13680, Note_on_c, 0, 67, 45
2, 13680, Note_on_c, 0, 70, 45
2, 13920, Note_on_c, 0, 70, 0
2, 13920, Note_on_c, 0, 67, 0
2, 13920, Note_on_c, 0, 67, 50
2, 13920, Note_on_c, 0, 70, 50
2, 14160, Note_on_c, 0, 70, 0
2, 14160, Note_on_c, 0, 67, 0
2, 14160, Note_on_c, 0, 70, 45
2, 14160, Note_on_c, 0, 67, 45
2, 14400, Note_on_c, 0, 67, 0
2, 14400, Note_on_c, 0, 70, 0
2, 14400, Note_on_c, 0, 68, 56
2, 14400, Note_on_c, 0, 75, 56
2, 14640, Note_on_c, 0, 75, 0
2, 14640, Note_on_c, 0, 74, 46
2, 15120, Note_on_c, 0, 74, 0
2, 15120, Note_on_c, 0, 68, 0
2, 15120, Note_on_c, 0, 82, 53
2, 15240, Note_on_c, 0, 80, 50
2, 15264, Note_on_c, 0, 82, 0
2, 15360, Note_on_c, 0, 80, 0
2, 15360, Note_on_c, 0, 79, 53
2, 15480, Note_on_c, 0, 77, 50
2, 15504, Note_on_c, 0, 79, 0
2, 15600, Note_on_c, 0, 75, 52
2, 15624, Note_on_c, 0, 77, 0
2, 15720, Note_on_c, 0, 74, 50
2, 15744, Note_on_c, 0, 75, 0
2, 15840, Note_on_c, 0, 74, 0
2, 15840, Note_on_c, 0, 75, 53
2, 15960, Note_on_c, 0, 75, 0
2, 15960, Note_on_c, 0, 77, 43
2, 16000, Note_on_c, 0, 77, 0
2, 16000, Note_on_c, 0, 75, 43
2, 16040, Note_on_c, 0, 75, 0
2, 16040, Note_on_c, 0, 74, 43
2, 16080, Note_on_c, 0, 74, 0
2, 16080, Note_on_c, 0, 75, 43
2, 16140, Note_on_c, 0, 75, 0
2, 16140, Note_on_c, 0, 77, 44
2, 16200, Note_on_c, 0, 77, 0
2, 16200, Note_on_c, 0, 79, 45
2, 16260, Note_on_c, 0, 79, 0
2, 16260, Note_on_c, 0, 75, 44
2, 16320, Note_on_c, 0, 75, 0
2, 16320, Note_on_c, 0, 70, 43
2, 16440, Note_on_c, 0, 70, 0
2, 16560, Note_on_c, 0, 70, 48
2, 16560, Note_on_c, 0, 67, 48
2, 16800, Note_on_c, 0, 67, 0
2, 16800, Note_on_c, 0, 70, 0
2, 16800, Note_on_c, 0, 65, 45
2, 16800, Note_on_c, 0, 68, 45
2, 17040, Note_on_c, 0, 68, 0
2, 17040, Note_on_c, 0, 65, 0
2, 17040, Note_on_c, 0, 63, 49
2, 17040, Note_on_c, 0, 67, 49
2, 17280, Note_on_c, 0, 67, 0
2, 17280, Note_on_c, 0, 63, 0
2, 17280, Note_on_c, 0, 63, 53
2, 17280, Note_on_c, 0, 70, 53
2, 17640, Note_on_c, 0, 70, 0
2, 17640, Note_on_c, 0, 67, 39
2, 17760, Note_on_c, 0, 67, 0
2, 17760, Note_on_c, 0, 63, 0
2, 17760, Note_on_c, 0, 62, 35
2, 17760, Note_on_c, 0, 65, 35
2, 18240, Note_on_c, 0, 65, 0
2, 18240, Note_on_c, 0, 62, 0
2, 18660, Note_on_c, 0, 65, 67
2, 18720, Note_on_c, 0, 65, 0
2, 18720, Note_on_c, 0, 77, 72
2, 19440, Note_on_c, 0, 77, 0
2, 19440, Note_on_c, 0, 75, 70
2, 19500, Note_on_c, 0, 75, 0
2, 19500, Note_on_c, 0, 74, 62
2, 19560, Note_on_c, 0, 74, 0
2, 19560, Note_on_c, 0, 72, 65
2, 19620, Note_on_c, 0, 72, 0
2, 19620, Note_on_c, 0, 70, 63
2, 19680, Note_on_c, 0, 70, 0
2, 19680, Note_on_c, 0, 69, 71
2, 19920, Note_on_c, 0, 69, 0
2, 19920, Note_on_c, 0, 70, 70
2, 20160, Note_on_c, 0, 70, 0
2, 20160, Note_on_c, 0, 72, 67
2, 20160, Note_on_c, 0, 69, 67
2, 20400, Note_on_c, 0, 69, 0
2, 20400, Note_on_c, 0, 72, 0
2, 20400, Note_on_c, 0, 75, 65
2, 20400, Note_on_c, 0, 70, 65
2, 20460, Note_on_c, 0, 75, 0
2, 20460, Note_on_c, 0, 74, 62
2, 20520, Note_on_c, 0, 74, 0
2, 20520, Note_on_c, 0, 72, 65
2, 20580, Note_on_c, 0, 72, 0
2, 20580, Note_on_c, 0, 74, 61
2, 20640, Note_on_c, 0, 74, 0
2, 20640, Note_on_c, 0, 70, 0
2, 20640, Note_on_c, 0, 72, 65
2, 20640, Note_on_c, 0, 75, 65
2, 20880, Note_on_c, 0, 75, 0
2, 20880, Note_on_c, 0, 72, 0
2, 20880, Note_on_c, 0, 65, 49
2, 21120, Note_on_c, 0, 65, 0
2, 21120, Note_on_c, 0, 65, 53
2, 21360, Note_on_c, 0, 65, 0
2, 21360, Note_on_c, 0, 65, 50
2, 21600, Note_on_c, 0, 65, 0
2, 21600, Note_on_c, 0, 75, 72
2, 22320, Note_on_c, 0, 75, 0
2, 22320, Note_on_c, 0, 77, 69
2, 22380, Note_on_c, 0, 77, 0
2, 22380, Note_on_c, 0, 75, 63
2, 22440, Note_on_c, 0, 75, 0
2, 22440, Note_on_c, 0, 74, 69
2, 22500, Note_on_c, 0, 74, 0
2, 22500, Note_on_c, 0, 72, 63
2, 22560, Note_on_c, 0, 72, 0
2, 22560, Note_on_c, 0, 70, 73
2, 22800, Note_on_c, 0, 70, 0
2, 22800, Note_on_c, 0, 69, 70
2, 22800, Note_on_c, 0, 72, 70
2, 23040, Note_on_c, 0, 72, 0
2, 23040, Note_on_c, 0, 69, 0
2, 23040, Note_on_c, 0, 74, 71
2, 23040, Note_on_c, 0, 70, 71
2, 23280, Note_on_c, 0, 70, 0
2, 23280, Note_on_c, 0, 74, 0
2, 23280, Note_on_c, 0, 77, 67
2, 23280, Note_on_c, 0, 72, 67
2, 23340, Note_on_c, 0, 77, 0
2, 23340, Note_on_c, 0, 75, 67
2, 23400, Note_on_c, 0, 75, 0
2, 23400, Note_on_c, 0, 74, 67
2, 23460, Note_on_c, 0, 74, 0
2, 23460, Note_on_c, 0, 75, 64
2, 23520, Note_on_c, 0, 75, 0
2, 23520, Note_on_c, 0, 72, 0
2, 23520, Note_on_c, 0, 74, 72
2, 23520, Note_on_c, 0, 77, 72
2, 23640, Note_on_c, 0, 77, 0
2, 23640, Note_on_c, 0, 74, 0
2, 24480, Note_on_c, 0, 80, 76
2, 25200, Note_on_c, 0, 80, 0
2, 25200, Note_on_c, 0, 79, 67
2, 25260, Note_on_c, 0, 79, 0
2, 25260, Note_on_c, 0, 77, 63
2, 25320, Note_on_c, 0, 77, 0
2, 25320, Note_on_c, 0, 75, 67
2, 25380, Note_on_c, 0, 75, 0
2, 25380, Note_on_c, 0, 74, 64
2, 25440, Note_on_c, 0, 74, 0
2, 25440, Note_on_c, 0, 75, 72
2, 25680, Note_on_c, 0, 75, 0
2, 25680, Note_on_c, 0, 77, 74
2, 25800, Note_on_c, 0, 77, 0
2, 25920, Note_on_c, 0, 78, 80
2, 26640, Note_on_c, 0, 78, 0
2, 26640, Note_on_c, 0, 80, 72
2, 26760, Note_on_c, 0, 80, 0
2, 26760, Note_on_c, 0, 79, 69
2, 26880, Note_on_c, 0, 79, 0
2, 26880, Note_on_c, 0, 77, 70
2, 27000, Note_on_c, 0, 77, 0
2, 27000, Note_on_c, 0, 75, 67
2, 27120, Note_on_c, 0, 75, 0
2, 27120, Note_on_c, 0, 74, 67
2, 27240, Note_on_c, 0, 74, 0
2, 27240, Note_on_c, 0, 72, 64
2, 27360, Note_on_c, 0, 72, 0
2, 27360, Note_on_c, 0, 77, 75
2, 27440, Note_on_c, 0, 77, 0
2, 27440, Note_on_c, 0, 76, 71
2, 27520, Note_on_c, 0, 76, 0
2, 27520, Note_on_c, 0, 77, 73
2, 27600, Note_on_c, 0, 77, 0
2, 27600, Note_on_c, 0, 79, 75
2, 27680, Note_on_c, 0, 79, 0
2, 27680, Note_on_c, 0, 67, 67
2, 27760, Note_on_c, 0, 67, 0
2, 27760, Note_on_c, 0, 75, 69
2, 27840, Note_on_c, 0, 75, 0
2, 27840, Note_on_c, 0, 70, 75
2, 28320, Note_on_c, 0, 70, 0
2, 28320, Note_on_c, 0, 69, 62
2, 28320, Note_on_c, 0, 74, 68
2, 28440, Note_on_c, 0, 74, 0
2, 28440, Note_on_c, 0, 72, 60
2, 28560, Note_on_c, 0, 72, 0
2, 28560, Note_on_c, 0, 70, 66
2, 28680, Note_on_c, 0, 70, 0
2, 28680, Note_on_c, 0, 72, 59
2, 28800, Note_on_c, 0, 72, 0
2, 28800, Note_on_c, 0, 69, 0
2, 28800, Note_on_c, 0, 70, 60
2, 29280, Note_on_c, 0, 70, 0
2, 29520, Note_on_c, 0, 70, 75
2, 29520, Note_on_c, 0, 77, 75
2, 29760, Note_on_c, 0, 77, 0
2, 29760, Note_on_c, 0, 70, 0
2, 29760, Note_on_c, 0, 77, 59
2, 29760, Note_on_c, 0, 72, 80
2, 30000, Note_on_c, 0, 72, 0
2, 30000, Note_on_c, 0, 77, 0
2, 30000, Note_on_c, 0, 74, 76
2, 30000, Note_on_c, 0, 77, 76
2, 30240, Note_on_c, 0, 77, 0
2, 30240, Note_on_c, 0, 74, 0
2, 30240, Note_on_c, 0, 77, 80
2, 30240, Note_on_c, 0, 75, 63
2, 30540, Note_on_c, 0, 77, 0
2, 30540, Note_on_c, 0, 79, 69
2, 30600, Note_on_c, 0, 79, 0
2, 30600, Note_on_c, 0, 77, 67
2, 30660, Note_on_c, 0, 77, 0
2, 30660, Note_on_c, 0, 76, 70
2, 30720, Note_on_c, 0, 76, 0
2, 30720, Note_on_c, 0, 77, 76
2, 30840, Note_on_c, 0, 77, 0
2, 30960, Note_on_c, 0, 75, 0
2, 30960, Note_on_c, 0, 69, 75
2, 30960, Note_on_c, 0, 77, 75
2, 31200, Note_on_c, 0, 77, 0
2, 31200, Note_on_c, 0, 69, 0
2, 31200, Note_on_c, 0, 70, 76
2, 31200, Note_on_c, 0, 79, 76
2, 31440, Note_on_c, 0, 79, 0
2, 31440, Note_on_c, 0, 70, 0
2, 31440, Note_on_c, 0, 72, 75
2, 31440, Note_on_c, 0, 81, 75
2, 31680, Note_on_c, 0, 81, 0
2, 31680, Note_on_c, 0, 72, 0
2, 31680, Note_on_c, 0, 82, 86
2, 31680, Note_on_c, 0, 70, 86
2, 31980, Note_on_c, 0, 82, 0
2, 31980, Note_on_c, 0, 84, 75
2, 32040, Note_on_c, 0, 84, 0
2, 32040, Note_on_c, 0, 86, 76
2, 32100, Note_on_c, 0, 86, 0
2, 32100, Note_on_c, 0, 82, 72
2, 32160, Note_on_c, 0, 82, 0
2, 32160, Note_on_c, 0, 77, 78
2, 32280, Note_on_c, 0, 77, 0
2, 32400, Note_on_c, 0, 70, 0
2, 32400, Note_on_c, 0, 74, 54
2, 32400, Note_on_c, 0, 77, 54
2, 32640, Note_on_c, 0, 77, 0
2, 32640, Note_on_c, 0, 74, 0
2, 32640, Note_on_c, 0, 72, 54
2, 32640, Note_on_c, 0, 75, 54
2, 32880, Note_on_c, 0, 75, 0
2, 32880, Note_on_c, 0, 72, 0
2, 32880, Note_on_c, 0, 70, 54
2, 32880, Note_on_c, 0, 74, 54
2, 33120, Note_on_c, 0, 74, 0
2, 33120, Note_on_c, 0, 70, 0
2, 33120, Note_on_c, 0, 72, 57
2, 33420, Note_on_c, 0, 72, 0
2, 33420, Note_on_c, 0, 74, 52
2, 33480, Note_on_c, 0, 74, 0
2, 33480, Note_on_c, 0, 75, 54
2, 33540, Note_on_c, 0, 75, 0
2, 33540, Note_on_c, 0, 72, 52
2, 33600, Note_on_c, 0, 72, 0
2, 33600, Note_on_c, 0, 79, 59
2, 33720, Note_on_c, 0, 79, 0
2, 33840, Note_on_c, 0, 67, 49
2, 33840, Note_on_c, 0, 75, 49
2, 34080, Note_on_c, 0, 75, 0
2, 34080, Note_on_c, 0, 67, 0
2, 34080, Note_on_c, 0, 65, 52
2, 34080, Note_on_c, 0, 70, 52
2, 34320, Note_on_c, 0, 70, 0
2, 34320, Note_on_c, 0, 65, 0
2, 34320, Note_on_c, 0, 69, 49
2, 34320, Note_on_c, 0, 72, 49
2, 34560, Note_on_c, 0, 72, 0
2, 34560, Note_on_c, 0, 69, 0
2, 34560, Note_on_c, 0, 72, 54
2, 34560, Note_on_c, 0, 69, 54
2, 34920, Note_on_c, 0, 72, 0
2, 34920, Note_on_c, 0, 73, 50
2, 35040, Note_on_c, 0, 73, 0
2, 35040, Note_on_c, 0, 69, 0
2, 35040, Note_on_c, 0, 70, 45
2, 35040, Note_on_c, 0, 74, 45
2, 35280, Note_on_c, 0, 74, 0
2, 35280, Note_on_c, 0, 70, 0
2, 35280, Note_on_c, 0, 70, 74
2, 35280, Note_on_c, 0, 77, 74
2, 35520, Note_on_c, 0, 77, 0
2, 35520, Note_on_c, 0, 70, 0
2, 35520, Note_on_c, 0, 72, 80
2, 35520, Note_on_c, 0, 77, 59
2, 35760, Note_on_c, 0, 77, 0
2, 35760, Note_on_c, 0, 72, 0
2, 35760, Note_on_c, 0, 77, 75
2, 35760, Note_on_c, 0, 74, 75
2, 36000, Note_on_c, 0, 74, 0
2, 36000, Note_on_c, 0, 77, 0
2, 36000, Note_on_c, 0, 75, 83
2, 36000, Note_on_c, 0, 77, 83
2, 36300, Note_on_c, 0, 77, 0
2, 36300, Note_on_c, 0, 79, 69
2, 36360, Note_on_c, 0, 79, 0
2, 36360, Note_on_c, 0, 77, 71
2, 36420, Note_on_c, 0, 77, 0
2, 36420, Note_on_c, 0, 76, 67
2, 36480, Note_on_c, 0, 76, 0
2, 36480, Note_on_c, 0, 77, 77
2, 36600, Note_on_c, 0, 77, 0
2, 36720, Note_on_c, 0, 75, 0
2, 36720, Note_on_c, 0, 69, 76
2, 36720, Note_on_c, 0, 77, 76
2, 36960, Note_on_c, 0, 77, 0
2, 36960, Note_on_c, 0, 69, 0
2, 36960, Note_on_c, 0, 79, 81
2, 36960, Note_on_c, 0, 70, 81
2, 37200, Note_on_c, 0, 70, 0
2, 37200, Note_on_c, 0, 79, 0
2, 37200, Note_on_c, 0, 72, 76
2, 37200, Note_on_c, 0, 81, 76
2, 37440, Note_on_c, 0, 81, 0
2, 37440, Note_on_c, 0, 72, 0
2, 37440, Note_on_c, 0, 82, 86
2, 37440, Note_on_c, 0, 70, 86
2, 37740, Note_on_c, 0, 82, 0
2, 37740, Note_on_c, 0, 84, 67
2, 37800, Note_on_c, 0, 84, 0
2, 37800, Note_on_c, 0, 86, 70
2, 37860, Note_on_c, 0, 86, 0
2, 37860, Note_on_c, 0, 82, 66
2, 37920, Note_on_c, 0, 82, 0
2, 37920, Note_on_c, 0, 77, 63
2, 38040, Note_on_c, 0, 77, 0
2, 38160, Note_on_c, 0, 70, 0
2, 38160, Note_on_c, 0, 74, 54
2, 38160, Note_on_c, 0, 77, 54
2, 38400, Note_on_c, 0, 77, 0
2, 38400, Note_on_c, 0, 74, 0
2, 38400, Note_on_c, 0, 72, 54
2, 38400, Note_on_c, 0, 75, 54
2, 38640, Note_on_c, 0, 75, 0
2, 38640, Note_on_c, 0, 72, 0
2, 38640, Note_on_c, 0, 70, 54
2, 38640, Note_on_c, 0, 74, 54
2, 38880, Note_on_c, 0, 74, 0
2, 38880, Note_on_c, 0, 70, 0
2, 38880, Note_on_c, 0, 71, 45
2, 38940, Note_on_c, 0, 71, 0
2, 38940, Note_on_c, 0, 72, 45
2, 39000, Note_on_c, 0, 72, 0
2, 39000, Note_on_c, 0, 74, 46
2, 39060, Note_on_c, 0, 74, 0
2, 39060, Note_on_c, 0, 72, 45
2, 39120, Note_on_c, 0, 72, 0
2, 39120, Note_on_c, 0, 75, 50
2, 39180, Note_on_c, 0, 75, 0
2, 39180, Note_on_c, 0, 74, 47
2, 39240, Note_on_c, 0, 74, 0
2, 39240, Note_on_c, 0, 77, 52
2, 39300, Note_on_c, 0, 77, 0
2, 39300, Note_on_c, 0, 75, 50
2, 39360, Note_on_c, 0, 75, 0
2, 39360, Note_on_c, 0, 79, 60
2, 39840, Note_on_c, 0, 79, 0
2, 39840, Note_on_c, 0, 77, 54
2, 40080, Note_on_c, 0, 77, 0
2, 40260, Note_on_c, 0, 69, 50
2, 40320, Note_on_c, 0, 69, 0
2, 40320, Note_on_c, 0, 70, 51
2, 40800, Note_on_c, 0, 70, 0
2, 41040, Note_on_c, 0, 80, 66
2, 41280, Note_on_c, 0, 80, 0
2, 41280, Note_on_c, 0, 79, 70
2, 41520, Note_on_c, 0, 79, 0
2, 41520, Note_on_c, 0, 81, 73
2, 41760, Note_on_c, 0, 81, 0
2, 41760, Note_on_c, 0, 84, 76
2, 42000, Note_on_c, 0, 84, 0
2, 42000, Note_on_c, 0, 82, 71
2, 42240, Note_on_c, 0, 82, 0
2, 42480, Note_on_c, 0, 68, 69
2, 42720, Note_on_c, 0, 68, 0
2, 42720, Note_on_c, 0, 67, 69
2, 42960, Note_on_c, 0, 67, 0
2, 42960, Note_on_c, 0, 63, 63
2, 42960, Note_on_c, 0, 69, 63
2, 43200, Note_on_c, 0, 69, 0
2, 43200, Note_on_c, 0, 63, 0
2, 43200, Note_on_c, 0, 72, 54
2, 43200, Note_on_c, 0, 63, 54
2, 43680, Note_on_c, 0, 63, 0
2, 43680, Note_on_c, 0, 72, 0
2, 43680, Note_on_c, 0, 70, 42
2, 43680, Note_on_c, 0, 62, 42
2, 43920, Note_on_c, 0, 62, 0
2, 43920, Note_on_c, 0, 70, 0
2, 43920, Note_on_c, 0, 62, 47
2, 43920, Note_on_c, 0, 65, 47
2, 44160, Note_on_c, 0, 65, 0
2, 44160, Note_on_c, 0, 62, 0
2, 44160, Note_on_c, 0, 63, 52
2, 44160, Note_on_c, 0, 67, 52
2, 44400, Note_on_c, 0, 67, 0
2, 44400, Note_on_c, 0, 63, 0
2, 44400, Note_on_c, 0, 65, 55
2, 44400, Note_on_c, 0, 68, 55
2, 44640, Note_on_c, 0, 68, 0
2, 44640, Note_on_c, 0, 65, 0
2, 44640, Control_c, 0, 91, 127
2, 44640, Text_t, "bdca426d104a26ac9dcb070447587523"
2, 44641, Note_on_c, 0, 70, 59
2, 44641, Note_on_c, 0, 67, 59
2, 45120, Note_on_c, 0, 68, 55
2, 45120, Note_on_c, 0, 65, 55
2, 45121, Note_on_c, 0, 67, 0
2, 45121, Note_on_c, 0, 70, 0
2, 45360, Note_on_c, 0, 63, 53
2, 45360, Note_on_c, 0, 67, 53
2, 45380, Note_on_c, 0, 68, 0
2, 45380, Note_on_c, 0, 65, 0
2, 45600, Note_on_c, 0, 68, 54
2, 45600, Note_on_c, 0, 72, 54
2, 45620, Note_on_c, 0, 63, 0
2, 45620, Note_on_c, 0, 67, 0
2, 45840, Note_on_c, 0, 67, 52
2, 45840, Note_on_c, 0, 70, 52
2, 45860, Note_on_c, 0, 68, 0
2, 45860, Note_on_c, 0, 72, 0
2, 46060, Note_on_c, 0, 67, 0
2, 46060, Note_on_c, 0, 70, 0
2, 46080, Note_on_c, 0, 70, 59
2, 46080, Note_on_c, 0, 67, 59
2, 46560, Note_on_c, 0, 67, 0
2, 46560, Note_on_c, 0, 70, 0
2, 46560, Note_on_c, 0, 65, 53
2, 46560, Note_on_c, 0, 68, 53
2, 47040, Note_on_c, 0, 68, 0
2, 47040, Note_on_c, 0, 65, 0
2, 47040, Note_on_c, 0, 63, 51
2, 47040, Note_on_c, 0, 67, 51
2, 47520, Note_on_c, 0, 67, 0
2, 47520, Note_on_c, 0, 63, 0
2, 47520, Note_on_c, 0, 64, 65
2, 48000, Note_on_c, 0, 64, 0
2, 48000, Note_on_c, 0, 65, 55
2, 48240, Note_on_c, 0, 65, 0
2, 48240, Note_on_c, 0, 72, 55
2, 48480, Note_on_c, 0, 72, 0
2, 48480, Note_on_c, 0, 70, 53
2, 48600, Note_on_c, 0, 70, 0
2, 48600, Note_on_c, 0, 68, 51
2, 48720, Note_on_c, 0, 68, 0
2, 48720, Note_on_c, 0, 67, 53
2, 48840, Note_on_c, 0, 67, 0
2, 48840, Note_on_c, 0, 65, 52
2, 48960, Note_on_c, 0, 65, 0
2, 48960, Note_on_c, 0, 55, 59
2, 48960, Note_on_c, 0, 63, 59
2, 49440, Note_on_c, 0, 63, 0
2, 49440, Note_on_c, 0, 55, 0
2, 49440, Note_on_c, 0, 53, 53
2, 49440, Note_on_c, 0, 62, 53
2, 49560, Note_on_c, 0, 62, 0
2, 49560, Note_on_c, 0, 53, 0
2, 49620, Note_on_c, 0, 58, 47
2, 49680, Note_on_c, 0, 58, 0
2, 49680, Note_on_c, 0, 62, 51
2, 49740, Note_on_c, 0, 62, 0
2, 49740, Note_on_c, 0, 60, 49
2, 49800, Note_on_c, 0, 60, 0
2, 49800, Note_on_c, 0, 63, 52
2, 49860, Note_on_c, 0, 63, 0
2, 49860, Note_on_c, 0, 62, 51
2, 49920, Note_on_c, 0, 62, 0
2, 49920, Note_on_c, 0, 65, 53
2, 49980, Note_on_c, 0, 65, 0
2, 49980, Note_on_c, 0, 63, 51
2, 50040, Note_on_c, 0, 63, 0
2, 50040, Note_on_c, 0, 67, 54
2, 50100, Note_on_c, 0, 67, 0
2, 50100, Note_on_c, 0, 65, 54
2, 50160, Note_on_c, 0, 65, 0
2, 50160, Note_on_c, 0, 68, 57
2, 50220, Note_on_c, 0, 68, 0
2, 50220, Note_on_c, 0, 67, 54
2, 50280, Note_on_c, 0, 67, 0
2, 50280, Note_on_c, 0, 70, 59
2, 50340, Note_on_c, 0, 70, 0
2, 50340, Note_on_c, 0, 68, 56
2, 50400, Note_on_c, 0, 68, 0
2, 50400, Note_on_c, 0, 72, 60
2, 50460, Note_on_c, 0, 72, 0
2, 50460, Note_on_c, 0, 67, 61
2, 50460, Note_on_c, 0, 70, 61
2, 50760, Note_on_c, 0, 70, 0
2, 50760, Note_on_c, 0, 72, 53
2, 50820, Note_on_c, 0, 72, 0
2, 50820, Note_on_c, 0, 70, 50
2, 50880, Note_on_c, 0, 70, 0
2, 50880, Note_on_c, 0, 67, 0
2, 50880, Note_on_c, 0, 68, 53
2, 51000, Note_on_c, 0, 68, 0
2, 51000, Note_on_c, 0, 67, 51
2, 51120, Note_on_c, 0, 67, 0
2, 51120, Note_on_c, 0, 65, 53
2, 51240, Note_on_c, 0, 65, 0
2, 51240, Note_on_c, 0, 63, 52
2, 51360, Note_on_c, 0, 63, 0
2, 51360, Note_on_c, 0, 79, 62
2, 51480, Note_on_c, 0, 79, 0
2, 51480, Note_on_c, 0, 74, 54
2, 51600, Note_on_c, 0, 74, 0
2, 51600, Note_on_c, 0, 75, 58
2, 51720, Note_on_c, 0, 75, 0
2, 51720, Note_on_c, 0, 72, 52
2, 51840, Note_on_c, 0, 72, 0
2, 51840, Note_on_c, 0, 70, 56
2, 52320, Note_on_c, 0, 70, 0
2, 52320, Note_on_c, 0, 68, 50
2, 52372, Note_on_c, 0, 68, 0
2, 52372, Note_on_c, 0, 70, 48
2, 52423, Note_on_c, 0, 70, 0
2, 52423, Note_on_c, 0, 68, 50
2, 52475, Note_on_c, 0, 68, 0
2, 52475, Note_on_c, 0, 70, 48
2, 52527, Note_on_c, 0, 70, 0
2, 52527, Note_on_c, 0, 68, 50
2, 52578, Note_on_c, 0, 68, 0
2, 52578, Note_on_c, 0, 70, 49
2, 52630, Note_on_c, 0, 70, 0
2, 52630, Note_on_c, 0, 68, 49
2, 52680, Note_on_c, 0, 67, 57
2, 52681, Note_on_c, 0, 68, 0
2, 52740, Note_on_c, 0, 67, 0
2, 52740, Note_on_c, 0, 68, 55
2, 52800, Note_on_c, 0, 68, 0
2, 52800, Note_on_c, 0, 67, 60
2, 52860, Note_on_c, 0, 67, 0
2, 52920, Note_on_c, 0, 75, 65
2, 53040, Note_on_c, 0, 75, 0
2, 53040, Note_on_c, 0, 74, 62
2, 53160, Note_on_c, 0, 74, 0
2, 53160, Note_on_c, 0, 73, 59
2, 53280, Note_on_c, 0, 73, 0
2, 53280, Note_on_c, 0, 71, 57
2, 53370, Note_on_c, 0, 74, 53
2, 53400, Note_on_c, 0, 74, 0
2, 53400, Note_on_c, 0, 71, 0
2, 53400, Note_on_c, 0, 72, 61
2, 53490, Note_on_c, 0, 70, 53
2, 53520, Note_on_c, 0, 70, 0
2, 53520, Note_on_c, 0, 72, 0
2, 53520, Note_on_c, 0, 68, 57
2, 53610, Note_on_c, 0, 67, 47
2, 53640, Note_on_c, 0, 67, 0
2, 53640, Note_on_c, 0, 68, 0
2, 53640, Note_on_c, 0, 65, 55
2, 53760, Note_on_c, 0, 65, 0
2, 53760, Note_on_c, 0, 63, 51
2, 54480, Note_on_c, 0, 63, 0
2, 54480, Note_on_c, 0, 67, 50
2, 54480, Note_on_c, 0, 62, 50
2, 54600, Note_on_c, 0, 67, 0
2, 54600, Note_on_c, 0, 65, 47
2, 54720, Note_on_c, 0, 65, 0
2, 54720, Note_on_c, 0, 62, 0
2, 54720, Note_on_c, 0, 63, 46
2, 55200, Note_on_c, 0, 63, 0
2, 55440, Note_on_c, 0, 67, 49
2, 55440, Note_on_c, 0, 70, 49
2, 55680, Note_on_c, 0, 70, 0
2, 55680, Note_on_c, 0, 67, 0
2, 55680, Note_on_c, 0, 67, 52
2, 55680, Note_on_c, 0, 70, 52
2, 55920, Note_on_c, 0, 70, 0
2, 55920, Note_on_c, 0, 67, 0
2, 55920, Note_on_c, 0, 67, 46
2, 55920, Note_on_c, 0, 70, 46
2, 56160, Note_on_c, 0, 70, 0
2, 56160, Note_on_c, 0, 67, 0
2, 56160, Note_on_c, 0, 68, 57
2, 56160, Note_on_c, 0, 75, 57
2, 56400, Note_on_c, 0, 75, 0
2, 56400, Note_on_c, 0, 74, 50
2, 56880, Note_on_c, 0, 74, 0
2, 56880, Note_on_c, 0, 68, 0
2, 56880, Note_on_c, 0, 82, 54
2, 57000, Note_on_c, 0, 80, 51
2, 57024, Note_on_c, 0, 82, 0
2, 57120, Note_on_c, 0, 80, 0
2, 57120, Note_on_c, 0, 79, 54
2, 57240, Note_on_c, 0, 77, 52
2, 57264, Note_on_c, 0, 79, 0
2, 57360, Note_on_c, 0, 75, 52
2, 57384, Note_on_c, 0, 77, 0
2, 57480, Note_on_c, 0, 74, 49
2, 57504, Note_on_c, 0, 75, 0
2, 57600, Note_on_c, 0, 74, 0
2, 57600, Note_on_c, 0, 77, 54
2, 57640, Note_on_c, 0, 77, 0
2, 57640, Note_on_c, 0, 75, 52
2, 57960, Note_on_c, 0, 75, 0
2, 57960, Note_on_c, 0, 74, 45
2, 58020, Note_on_c, 0, 74, 0
2, 58020, Note_on_c, 0, 72, 44
2, 58080, Note_on_c, 0, 72, 0
2, 58080, Note_on_c, 0, 70, 45
2, 58320, Note_on_c, 0, 70, 0
2, 58320, Note_on_c, 0, 67, 45
2, 58320, Note_on_c, 0, 70, 45
2, 58560, Note_on_c, 0, 70, 0
2, 58560, Note_on_c, 0, 67, 0
2, 58560, Note_on_c, 0, 67, 50
2, 58560, Note_on_c, 0, 70, 50
2, 58800, Note_on_c, 0, 70, 0
2, 58800, Note_on_c, 0, 67, 0
2, 58800, Note_on_c, 0, 70, 45
2, 58800, Note_on_c, 0, 67, 45
2, 59040, Note_on_c, 0, 67, 0
2, 59040, Note_on_c, 0, 70, 0
2, 59040, Note_on_c, 0, 68, 56
2, 59040, Note_on_c, 0, 75, 56
2, 59280, Note_on_c, 0, 75, 0
2, 59280, Note_on_c, 0, 74, 46
2, 59760, Note_on_c, 0, 74, 0
2, 59760, Note_on_c, 0, 68, 0
2, 59760, Note_on_c, 0, 82, 53
2, 59880, Note_on_c, 0, 80, 50
2, 59904, Note_on_c, 0, 82, 0
2, 60000, Note_on_c, 0, 80, 0
2, 60000, Note_on_c, 0, 79, 53
2, 60120, Note_on_c, 0, 77, 50
2, 60144, Note_on_c, 0, 79, 0
2, 60240, Note_on_c, 0, 75, 52
2, 60264, Note_on_c, 0, 77, 0
2, 60360, Note_on_c, 0, 74, 50
2, 60384, Note_on_c, 0, 75, 0
2, 60480, Note_on_c, 0, 74, 0
2, 60480, Note_on_c, 0, 75, 53
2, 60600, Note_on_c, 0, 75, 0
2, 60600, Note_on_c, 0, 77, 43
2, 60640, Note_on_c, 0, 77, 0
2, 60640, Note_on_c, 0, 75, 43
2, 60680, Note_on_c, 0, 75, 0
2, 60680, Note_on_c, 0, 74, 43
2, 60720, Note_on_c, 0, 74, 0
2, 60720, Note_on_c, 0, 75, 43
2, 60780, Note_on_c, 0, 75, 0
2, 60780, Note_on_c, 0, 77, 44
2, 60840, Note_on_c, 0, 77, 0
2, 60840, Note_on_c, 0, 79, 45
2, 60900, Note_on_c, 0, 79, 0
2, 60900, Note_on_c, 0, 75, 44
2, 60960, Note_on_c, 0, 75, 0
2, 60960, Note_on_c, 0, 70, 43
2, 61080, Note_on_c, 0, 70, 0
2, 61200, Note_on_c, 0, 70, 48
2, 61200, Note_on_c, 0, 67, 48
2, 61440, Note_on_c, 0, 67, 0
2, 61440, Note_on_c, 0, 70, 0
2, 61440, Note_on_c, 0, 65, 45
2, 61440, Note_on_c, 0, 68, 45
2, 61680, Note_on_c, 0, 68, 0
2, 61680, Note_on_c, 0, 65, 0
2, 61680, Note_on_c, 0, 63, 49
2, 61680, Note_on_c, 0, 67, 49
2, 61920, Note_on_c, 0, 67, 0
2, 61920, Note_on_c, 0, 63, 0
2, 61920, Note_on_c, 0, 63, 53
2, 61920, Note_on_c, 0, 70, 53
2, 62280, Note_on_c, 0, 70, 0
2, 62280, Note_on_c, 0, 67, 39
2, 62400, Note_on_c, 0, 67, 0
2, 62400, Note_on_c, 0, 63, 0
2, 62400, Note_on_c, 0, 62, 35
2, 62400, Note_on_c, 0, 65, 35
2, 62880, Note_on_c, 0, 65, 0
2, 62880, Note_on_c, 0, 62, 0
2, 63300, Note_on_c, 0, 65, 67
2, 63360, Note_on_c, 0, 65, 0
2, 63360, Note_on_c, 0, 77, 72
2, 64080, Note_on_c, 0, 77, 0
2, 64080, Note_on_c, 0, 75, 70
2, 64140, Note_on_c, 0, 75, 0
2, 64140, Note_on_c, 0, 74, 62
2, 64200, Note_on_c, 0, 74, 0
2, 64200, Note_on_c, 0, 72, 65
2, 64260, Note_on_c, 0, 72, 0
2, 64260, Note_on_c, 0, 70, 63
2, 64320, Note_on_c, 0, 70, 0
2, 64320, Note_on_c, 0, 69, 71
2, 64560, Note_on_c, 0, 69, 0
2, 64560, Note_on_c, 0, 70, 70
2, 64800, Note_on_c, 0, 70, 0
2, 64800, Note_on_c, 0, 72, 67
2, 64800, Note_on_c, 0, 69, 67
2, 65040, Note_on_c, 0, 69, 0
2, 65040, Note_on_c, 0, 72, 0
2, 65040, Note_on_c, 0, 75, 65
2, 65040, Note_on_c, 0, 70, 65
2, 65100, Note_on_c, 0, 75, 0
2, 65100, Note_on_c, 0, 74, 62
2, 65160, Note_on_c, 0, 74, 0
2, 65160, Note_on_c, 0, 72, 65
2, 65220, Note_on_c, 0, 72, 0
2, 65220, Note_on_c, 0, 74, 61
2, 65280, Note_on_c, 0, 74, 0
2, 65280, Note_on_c, 0, 70, 0
2, 65280, Note_on_c, 0, 72, 65
2, 65280, Note_on_c, 0, 75, 65
2, 65520, Note_on_c, 0, 75, 0
2, 65520, Note_on_c, 0, 72, 0
2, 65520, Note_on_c, 0, 65, 49
2, 65760, Note_on_c, 0, 65, 0
2, 65760, Note_on_c, 0, 65, 53
2, 66000, Note_on_c, 0, 65, 0
2, 66000, Note_on_c, 0, 65, 50
2, 66240, Note_on_c, 0, 65, 0
2, 66240, Note_on_c, 0, 75, 72
2, 66960, Note_on_c, 0, 75, 0
2, 66960, Note_on_c, 0, 77, 69
2, 67020, Note_on_c, 0, 77, 0
2, 67020, Note_on_c, 0, 75, 63
2, 67080, Note_on_c, 0, 75, 0
2, 67080, Note_on_c, 0, 74, 69
2, 67140, Note_on_c, 0, 74, 0
2, 67140, Note_on_c, 0, 72, 63
2, 67200, Note_on_c, 0, 72, 0
2, 67200, Note_on_c, 0, 70, 73
2, 67440, Note_on_c, 0, 70, 0
2, 67440, Note_on_c, 0, 69, 70
2, 67440, Note_on_c, 0, 72, 70
2, 67680, Note_on_c, 0, 72, 0
2, 67680, Note_on_c, 0, 69, 0
2, 67680, Note_on_c, 0, 74, 71
2, 67680, Note_on_c, 0, 70, 71
2, 67920, Note_on_c, 0, 70, 0
2, 67920, Note_on_c, 0, 74, 0
2, 67920, Note_on_c, 0, 77, 67
2, 67920, Note_on_c, 0, 72, 67
2, 67980, Note_on_c, 0, 77, 0
2, 67980, Note_on_c, 0, 75, 67
2, 68040, Note_on_c, 0, 75, 0
2, 68040, Note_on_c, 0, 74, 67
2, 68100, Note_on_c, 0, 74, 0
2, 68100, Note_on_c, 0, 75, 64
2, 68160, Note_on_c, 0, 75, 0
2, 68160, Note_on_c, 0, 72, 0
2, 68160, Note_on_c, 0, 74, 72
2, 68160, Note_on_c, 0, 77, 72
2, 68280, Note_on_c, 0, 77, 0
2, 68280, Note_on_c, 0, 74, 0
2, 69120, Note_on_c, 0, 80, 76
2, 69840, Note_on_c, 0, 80, 0
2, 69840, Note_on_c, 0, 79, 67
2, 69900, Note_on_c, 0, 79, 0
2, 69900, Note_on_c, 0, 77, 63
2, 69960, Note_on_c, 0, 77, 0
2, 69960, Note_on_c, 0, 75, 67
2, 70020, Note_on_c, 0, 75, 0
2, 70020, Note_on_c, 0, 74, 64
2, 70080, Note_on_c, 0, 74, 0
2, 70080, Note_on_c, 0, 75, 72
2, 70320, Note_on_c, 0, 75, 0
2, 70320, Note_on_c, 0, 77, 74
2, 70440, Note_on_c, 0, 77, 0
2, 70560, Note_on_c, 0, 78, 80
2, 71280, Note_on_c, 0, 78, 0
2, 71280, Note_on_c, 0, 80, 72
2, 71400, Note_on_c, 0, 80, 0
2, 71400, Note_on_c, 0, 79, 69
2, 71520, Note_on_c, 0, 79, 0
2, 71520, Note_on_c, 0, 77, 70
2, 71640, Note_on_c, 0, 77, 0
2, 71640, Note_on_c, 0, 75, 67
2, 71760, Note_on_c, 0, 75, 0
2, 71760, Note_on_c, 0, 74, 67
2, 71880, Note_on_c, 0, 74, 0
2, 71880, Note_on_c, 0, 72, 64
2, 72000, Note_on_c, 0, 72, 0
2, 72000, Note_on_c, 0, 77, 75
2, 72080, Note_on_c, 0, 77, 0
2, 72080, Note_on_c, 0, 76, 71
2, 72160, Note_on_c, 0, 76, 0
2, 72160, Note_on_c, 0, 77, 73
2, 72240, Note_on_c, 0, 77, 0
2, 72240, Note_on_c, 0, 79, 75
2, 72320, Note_on_c, 0, 79, 0
2, 72320, Note_on_c, 0, 67, 67
2, 72400, Note_on_c, 0, 67, 0
2, 72400, Note_on_c, 0, 75, 69
2, 72480, Note_on_c, 0, 75, 0
2, 72480, Note_on_c, 0, 70, 75
2, 72960, Note_on_c, 0, 70, 0
2, 72960, Note_on_c, 0, 69, 62
2, 72960, Note_on_c, 0, 74, 68
2, 73080, Note_on_c, 0, 74, 0
2, 73080, Note_on_c, 0, 72, 60
2, 73200, Note_on_c, 0, 72, 0
2, 73200, Note_on_c, 0, 70, 66
2, 73320, Note_on_c, 0, 70, 0
2, 73320, Note_on_c, 0, 72, 59
2, 73440, Note_on_c, 0, 72, 0
2, 73440, Note_on_c, 0, 69, 0
2, 73440, Note_on_c, 0, 70, 60
2, 73920, Note_on_c, 0, 70, 0
2, 74160, Note_on_c, 0, 70, 75
2, 74160, Note_on_c, 0, 77, 75
2, 74400, Note_on_c, 0, 77, 0
2, 74400, Note_on_c, 0, 70, 0
2, 74400, Note_on_c, 0, 77, 59
2, 74400, Note_on_c, 0, 72, 80
2, 74640, Note_on_c, 0, 72, 0
2, 74640, Note_on_c, 0, 77, 0
2, 74640, Note_on_c, 0, 74, 76
2, 74640, Note_on_c, 0, 77, 76
2, 74880, Note_on_c, 0, 77, 0
2, 74880, Note_on_c, 0, 74, 0
2, 74880, Note_on_c, 0, 77, 80
2, 74880, Note_on_c, 0, 75, 63
2, 75180, Note_on_c, 0, 77, 0
2, 75180, Note_on_c, 0, 79, 69
2, 75240, Note_on_c, 0, 79, 0
2, 75240, Note_on_c, 0, 77, 67
2, 75300, Note_on_c, 0, 77, 0
2, 75300, Note_on_c, 0, 76, 70
2, 75360, Note_on_c, 0, 76, 0
2, 75360, Note_on_c, 0, 77, 76
2, 75480, Note_on_c, 0, 77, 0
2, 75600, Note_on_c, 0, 75, 0
2, 75600, Note_on_c, 0, 69, 75
2, 75600, Note_on_c, 0, 77, 75
2, 75840, Note_on_c, 0, 77, 0
2, 75840, Note_on_c, 0, 69, 0
2, 75840, Note_on_c, 0, 70, 76
2, 75840, Note_on_c, 0, 79, 76
2, 76080, Note_on_c, 0, 79, 0
2, 76080, Note_on_c, 0, 70, 0
2, 76080, Note_on_c, 0, 72, 75
2, 76080, Note_on_c, 0, 81, 75
2, 76320, Note_on_c, 0, 81, 0
2, 76320, Note_on_c, 0, 72, 0
2, 76320, Note_on_c, 0, 82, 86
2, 76320, Note_on_c, 0, 70, 86
2, 76620, Note_on_c, 0, 82, 0
2, 76620, Note_on_c, 0, 84, 75
2, 76680, Note_on_c, 0, 84, 0
2, 76680, Note_on_c, 0, 86, 76
2, 76740, Note_on_c, 0, 86, 0
2, 76740, Note_on_c, 0, 82, 72
2, 76800, Note_on_c, 0, 82, 0
2, 76800, Note_on_c, 0, 77, 78
2, 76920, Note_on_c, 0, 77, 0
2, 77040, Note_on_c, 0, 70, 0
2, 77040, Note_on_c, 0, 74, 54
2, 77040, Note_on_c, 0, 77, 54
2, 77280, Note_on_c, 0, 77, 0
2, 77280, Note_on_c, 0, 74, 0
2, 77280, Note_on_c, 0, 72, 54
2, 77280, Note_on_c, 0, 75, 54
2, 77520, Note_on_c, 0, 75, 0
2, 77520, Note_on_c, 0, 72, 0
2, 77520, Note_on_c, 0, 70, 54
2, 77520, Note_on_c, 0, 74, 54
2, 77760, Note_on_c, 0, 74, 0
2, 77760, Note_on_c, 0, 70, 0
2, 77760, Note_on_c, 0, 72, 57
2, 78060, Note_on_c, 0, 72, 0
2, 78060, Note_on_c, 0, 74, 52
2, 78120, Note_on_c, 0, 74, 0
2, 78120, Note_on_c, 0, 75, 54
2, 78180, Note_on_c, 0, 75, 0
2, 78180, Note_on_c, 0, 72, 52
2, 78240, Note_on_c, 0, 72, 0
2, 78240, Note_on_c, 0, 79, 59
2, 78360, Note_on_c, 0, 79, 0
2, 78480, Note_on_c, 0, 67, 49
2, 78480, Note_on_c, 0, 75, 49
2, 78720, Note_on_c, 0, 75, 0
2, 78720, Note_on_c, 0, 67, 0
2, 78720, Note_on_c, 0, 65, 52
2, 78720, Note_on_c, 0, 70, 52
2, 78960, Note_on_c, 0, 70, 0
2, 78960, Note_on_c, 0, 65, 0
2, 78960, Note_on_c, 0, 69, 49
2, 78960, Note_on_c, 0, 72, 49
2, 79200, Note_on_c, 0, 72, 0
2, 79200, Note_on_c, 0, 69, 0
2, 79200, Note_on_c, 0, 72, 54
2, 79200, Note_on_c, 0, 69, 54
2, 79560, Note_on_c, 0, 72, 0
2, 79560, Note_on_c, 0, 73, 50
2, 79680, Note_on_c, 0, 73, 0
2, 79680, Note_on_c, 0, 69, 0
2, 79680, Note_on_c, 0, 70, 45
2, 79680, Note_on_c, 0, 74, 45
2, 79920, Note_on_c, 0, 74, 0
2, 79920, Note_on_c, 0, 70, 0
2, 79920, Note_on_c, 0, 70, 74
2, 79920, Note_on_c, 0, 77, 74
2, 80160, Note_on_c, 0, 77, 0
2, 80160, Note_on_c, 0, 70, 0
2, 80160, Note_on_c, 0, 72, 80
2, 80160, Note_on_c, 0, 77, 59
2, 80400, Note_on_c, 0, 77, 0
2, 80400, Note_on_c, 0, 72, 0
2, 80400, Note_on_c, 0, 77, 75
2, 80400, Note_on_c, 0, 74, 75
2, 80640, Note_on_c, 0, 74, 0
2, 80640, Note_on_c, 0, 77, 0
2, 80640, Note_on_c, 0, 75, 83
2, 80640, Note_on_c, 0, 77, 83
2, 80940, Note_on_c, 0, 77, 0
2, 80940, Note_on_c, 0, 79, 69
2, 81000, Note_on_c, 0, 79, 0
2, 81000, Note_on_c, 0, 77, 71
2, 81060, Note_on_c, 0, 77, 0
2, 81060, Note_on_c, 0, 76, 67
2, 81120, Note_on_c, 0, 76, 0
2, 81120, Note_on_c, 0, 77, 77
2, 81240, Note_on_c, 0, 77, 0
2, 81360, Note_on_c, 0, 75, 0
2, 81360, Note_on_c, 0, 69, 76
2, 81360, Note_on_c, 0, 77, 76
2, 81600, Note_on_c, 0, 77, 0
2, 81600, Note_on_c, 0, 69, 0
2, 81600, Note_on_c, 0, 79, 81
2, 81600, Note_on_c, 0, 70, 81
2, 81840, Note_on_c, 0, 70, 0
2, 81840, Note_on_c, 0, 79, 0
2, 81840, Note_on_c, 0, 72, 76
2, 81840, Note_on_c, 0, 81, 76
2, 82080, Note_on_c, 0, 81, 0
2, 82080, Note_on_c, 0, 72, 0
2, 82080, Note_on_c, 0, 82, 86
2, 82080, Note_on_c, 0, 70, 86
2, 82380, Note_on_c, 0, 82, 0
2, 82380, Note_on_c, 0, 84, 67
2, 82440, Note_on_c, 0, 84, 0
2, 82440, Note_on_c, 0, 86, 70
2, 82500, Note_on_c, 0, 86, 0
2, 82500, Note_on_c, 0, 82, 66
2, 82560, Note_on_c, 0, 82, 0
2, 82560, Note_on_c, 0, 77, 63
2, 82680, Note_on_c, 0, 77, 0
2, 82800, Note_on_c, 0, 70, 0
2, 82800, Note_on_c, 0, 74, 54
2, 82800, Note_on_c, 0, 77, 54
2, 83040, Note_on_c, 0, 77, 0
2, 83040, Note_on_c, 0, 74, 0
2, 83040, Note_on_c, 0, 72, 54
2, 83040, Note_on_c, 0, 75, 54
2, 83280, Note_on_c, 0, 75, 0
2, 83280, Note_on_c, 0, 72, 0
2, 83280, Note_on_c, 0, 70, 54
2, 83280, Note_on_c, 0, 74, 54
2, 83520, Note_on_c, 0, 74, 0
2, 83520, Note_on_c, 0, 70, 0
2, 83520, Note_on_c, 0, 71, 45
2, 83580, Note_on_c, 0, 71, 0
2, 83580, Note_on_c, 0, 72, 45
2, 83640, Note_on_c, 0, 72, 0
2, 83640, Note_on_c, 0, 74, 46
2, 83700, Note_on_c, 0, 74, 0
2, 83700, Note_on_c, 0, 72, 45
2, 83760, Note_on_c, 0, 72, 0
2, 83760, Note_on_c, 0, 75, 50
2, 83820, Note_on_c, 0, 75, 0
2, 83820, Note_on_c, 0, 74, 47
2, 83880, Note_on_c, 0, 74, 0
2, 83880, Note_on_c, 0, 77, 52
2, 83940, Note_on_c, 0, 77, 0
2, 83940, Note_on_c, 0, 75, 50
2, 84000, Note_on_c, 0, 75, 0
2, 84000, Note_on_c, 0, 79, 60
2, 84480, Note_on_c, 0, 79, 0
2, 84480, Note_on_c, 0, 77, 54
2, 84720, Note_on_c, 0, 77, 0
2, 84900, Note_on_c, 0, 69, 50
2, 84960, Note_on_c, 0, 69, 0
2, 84960, Note_on_c, 0, 70, 51
2, 85440, Note_on_c, 0, 70, 0
2, 85680, Note_on_c, 0, 80, 66
2, 85920, Note_on_c, 0, 80, 0
2, 85920, Note_on_c, 0, 79, 70
2, 86160, Note_on_c, 0, 79, 0
2, 86160, Note_on_c, 0, 81, 73
2, 86400, Note_on_c, 0, 81, 0
2, 86400, Note_on_c, 0, 84, 76
2, 86640, Note_on_c, 0, 84, 0
2, 86640, Note_on_c, 0, 82, 71
2, 86880, Note_on_c, 0, 82, 0
2, 87120, Note_on_c, 0, 68, 69
2, 87360, Note_on_c, 0, 68, 0
2, 87360, Note_on_c, 0, 67, 69
2, 87600, Note_on_c, 0, 67, 0
2, 87600, Note_on_c, 0, 63, 63
2, 87600, Note_on_c, 0, 69, 63
2, 87840, Note_on_c, 0, 69, 0
2, 87840, Note_on_c, 0, 63, 0
2, 87840, Note_on_c, 0, 72, 54
2, 87840, Note_on_c, 0, 63, 54
2, 88320, Note_on_c, 0, 63, 0
2, 88320, Note_on_c, 0, 72, 0
2, 88320, Note_on_c, 0, 70, 42
2, 88320, Note_on_c, 0, 62, 42
2, 88560, Note_on_c, 0, 62, 0
2, 88560, Note_on_c, 0, 70, 0
2, 88560, Note_on_c, 0, 62, 47
2, 88560, Note_on_c, 0, 65, 47
2, 88800, Note_on_c, 0, 65, 0
2, 88800, Note_on_c, 0, 62, 0
2, 88800, Note_on_c, 0, 63, 52
2, 88800, Note_on_c, 0, 67, 52
2, 89040, Note_on_c, 0, 67, 0
2, 89040, Note_on_c, 0, 63, 0
2, 89040, Note_on_c, 0, 65, 55
2, 89040, Note_on_c, 0, 68, 55
2, 89280, Note_on_c, 0, 68, 0
2, 89280, Note_on_c, 0, 65, 0
2, 89280, Control_c, 0, 91, 127
2, 89280, Note_on_c, 0, 66, 67
2, 89280, Note_on_c, 0, 69, 67
2, 89760, Note_on_c, 0, 69, 0
2, 89760, Note_on_c, 0, 66, 0
2, 89760, Note_on_c, 0, 67, 62
2, 89760, Note_on_c, 0, 70, 62
2, 90000, Note_on_c, 0, 70, 0
2, 90000, Note_on_c, 0, 67, 0
2, 90000, Note_on_c, 0, 70, 54
2, 90000, Note_on_c, 0, 73, 54
2, 90240, Note_on_c, 0, 73, 0
2, 90240, Note_on_c, 0, 70, 0
2, 90240, Note_on_c, 0, 64, 56
2, 90240, Note_on_c, 0, 67, 56
2, 90480, Note_on_c, 0, 67, 0
2, 90480, Note_on_c, 0, 64, 0
2, 90480, Note_on_c, 0, 68, 51
2, 90480, Note_on_c, 0, 72, 51
2, 90720, Note_on_c, 0, 72, 0
2, 90720, Note_on_c, 0, 68, 0
2, 90720, Note_on_c, 0, 67, 55
2, 90720, Note_on_c, 0, 70, 55
2, 91200, Note_on_c, 0, 70, 0
2, 91200, Note_on_c, 0, 67, 0
2, 91200, Note_on_c, 0, 65, 52
2, 91200, Note_on_c, 0, 68, 52
2, 91440, Note_on_c, 0, 68, 0
2, 91440, Note_on_c, 0, 65, 0
2, 91440, Note_on_c, 0, 77, 54
2, 91656, Note_on_c, 0, 77, 0
2, 91680, Note_on_c, 0, 77, 54
2, 91896, Note_on_c, 0, 77, 0
2, 91920, Note_on_c, 0, 77, 54
2, 92136, Note_on_c, 0, 77, 0
2, 92160, Note_on_c, 0, 78, 62
2, 92640, Note_on_c, 0, 78, 0
2, 92640, Note_on_c, 0, 79, 56
2, 92880, Note_on_c, 0, 79, 0
2, 92880, Note_on_c, 0, 82, 63
2, 93360, Note_on_c, 0, 82, 0
2, 93360, Note_on_c, 0, 76, 57
2, 93600, Note_on_c, 0, 76, 0
2, 93600, Note_on_c, 0, 79, 64
2, 94080, Note_on_c, 0, 79, 0
2, 94080, Note_on_c, 0, 77, 60
2, 94320, Note_on_c, 0, 77, 0
2, 95280, Note_on_c, 0, 80, 59
2, 95520, Note_on_c, 0, 80, 0
2, 95520, Note_on_c, 0, 79, 61
2, 95640, Note_on_c, 0, 79, 0
2, 95640, Note_on_c, 0, 77, 59
2, 95760, Note_on_c, 0, 77, 0
2, 95760, Note_on_c, 0, 75, 57
2, 95880, Note_on_c, 0, 75, 0
2, 95880, Note_on_c, 0, 73, 57
2, 96000, Note_on_c, 0, 73, 0
2, 96000, Note_on_c, 0, 72, 59
2, 96120, Note_on_c, 0, 72, 0
2, 96120, Note_on_c, 0, 73, 62
2, 96240, Note_on_c, 0, 73, 0
2, 96240, Note_on_c, 0, 77, 66
2, 96360, Note_on_c, 0, 77, 0
2, 96360, Note_on_c, 0, 73, 60
2, 96480, Note_on_c, 0, 73, 0
2, 96480, Note_on_c, 0, 62, 57
2, 96480, Note_on_c, 0, 68, 57
2, 96480, Note_on_c, 0, 72, 57
2, 96960, Note_on_c, 0, 72, 0
2, 96960, Note_on_c, 0, 71, 47
2, 97920, Note_on_c, 0, 71, 0
2, 97920, Note_on_c, 0, 68, 0
2, 97920, Note_on_c, 0, 62, 0
2, 98160, Note_on_c, 0, 63, 53
2, 98160, Note_on_c, 0, 72, 53
2, 98400, Note_on_c, 0, 72, 0
2, 98400, Note_on_c, 0, 71, 56
2, 98520, Note_on_c, 0, 71, 0
2, 98520, Note_on_c, 0, 72, 58
2, 98640, Note_on_c, 0, 72, 0
2, 98640, Note_on_c, 0, 63, 0
2, 98640, Note_on_c, 0, 63, 50
2, 98640, Note_on_c, 0, 74, 59
2, 98760, Note_on_c, 0, 74, 0
2, 98760, Note_on_c, 0, 72, 56
2, 98880, Note_on_c, 0, 72, 0
2, 98880, Note_on_c, 0, 71, 56
2, 99000, Note_on_c, 0, 71, 0
2, 99000, Note_on_c, 0, 72, 59
2, 99120, Note_on_c, 0, 72, 0
2, 99120, Note_on_c, 0, 63, 0
2, 99120, Note_on_c, 0, 63, 61
2, 99120, Note_on_c, 0, 75, 61
2, 99240, Note_on_c, 0, 75, 0
2, 99240, Note_on_c, 0, 74, 60
2, 99360, Note_on_c, 0, 74, 0
2, 99360, Note_on_c, 0, 71, 66
2, 99840, Note_on_c, 0, 71, 0
2, 99840, Note_on_c, 0, 63, 0
2, 99840, Note_on_c, 0, 63, 60
2, 99840, Note_on_c, 0, 72, 60
2, 100800, Note_on_c, 0, 72, 0
2, 100800, Note_on_c, 0, 63, 0
2, 101040, Note_on_c, 0, 63, 62
2, 101040, Note_on_c, 0, 72, 62
2, 101256, Note_on_c, 0, 72, 0
2, 101256, Note_on_c, 0, 63, 0
2, 101280, Note_on_c, 0, 63, 64
2, 101280, Note_on_c, 0, 72, 64
2, 101496, Note_on_c, 0, 72, 0
2, 101496, Note_on_c, 0, 63, 0
2, 101520, Note_on_c, 0, 63, 67
2, 101520, Note_on_c, 0, 72, 67
2, 101736, Note_on_c, 0, 72, 0
2, 101736, Note_on_c, 0, 63, 0
2, 101760, Note_on_c, 0, 63, 70
2, 101760, Note_on_c, 0, 72, 70
2, 101976, Note_on_c, 0, 72, 0
2, 101976, Note_on_c, 0, 63, 0
2, 102000, Note_on_c, 0, 63, 72
2, 102000, Note_on_c, 0, 72, 72
2, 102216, Note_on_c, 0, 72, 0
2, 102216, Note_on_c, 0, 63, 0
2, 102240, Note_on_c, 0, 73, 74
2, 102240, Note_on_c, 0, 63, 74
2, 102540, Note_on_c, 0, 73, 0
2, 102540, Note_on_c, 0, 72, 62
2, 102600, Note_on_c, 0, 72, 0
2, 102600, Note_on_c, 0, 70, 57
2, 102660, Note_on_c, 0, 70, 0
2, 102660, Note_on_c, 0, 68, 54
2, 102720, Note_on_c, 0, 68, 0
2, 102720, Note_on_c, 0, 67, 66
2, 102960, Note_on_c, 0, 67, 0
2, 102960, Note_on_c, 0, 63, 0
2, 102960, Note_on_c, 0, 79, 67
2, 103200, Note_on_c, 0, 79, 0
2, 103200, Note_on_c, 0, 80, 67
2, 103440, Note_on_c, 0, 80, 0
2, 103440, Note_on_c, 0, 72, 65
2, 103800, Note_on_c, 0, 72, 0
2, 103800, Note_on_c, 0, 70, 56
2, 103920, Note_on_c, 0, 70, 0
2, 103920, Note_on_c, 0, 73, 60
2, 104040, Note_on_c, 0, 73, 0
2, 104040, Note_on_c, 0, 77, 55
2, 104160, Note_on_c, 0, 77, 0
2, 104160, Note_on_c, 0, 68, 63
2, 104880, Note_on_c, 0, 68, 0
2, 104880, Note_on_c, 0, 67, 55
2, 104880, Note_on_c, 0, 72, 55
2, 105000, Note_on_c, 0, 72, 0
2, 105000, Note_on_c, 0, 70, 55
2, 105120, Note_on_c, 0, 70, 0
2, 105120, Note_on_c, 0, 67, 0
2, 105120, Note_on_c, 0, 68, 46
2, 105600, Note_on_c, 0, 68, 0
2, 105840, Note_on_c, 0, 68, 46
2, 105840, Note_on_c, 0, 72, 46
2, 106080, Note_on_c, 0, 72, 0
2, 106080, Note_on_c, 0, 68, 0
2, 106080, Note_on_c, 0, 68, 49
2, 106080, Note_on_c, 0, 72, 49
2, 106320, Note_on_c, 0, 72, 0
2, 106320, Note_on_c, 0, 68, 0
2, 106320, Note_on_c, 0, 68, 46
2, 106320, Note_on_c, 0, 72, 46
2, 106560, Note_on_c, 0, 72, 0
2, 106560, Note_on_c, 0, 68, 0
2, 106560, Note_on_c, 0, 70, 58
2, 106560, Note_on_c, 0, 72, 58
2, 106560, Note_on_c, 0, 77, 58
2, 106800, Note_on_c, 0, 77, 0
2, 106800, Note_on_c, 0, 76, 46
2, 107280, Note_on_c, 0, 76, 0
2, 107280, Note_on_c, 0, 72, 0
2, 107280, Note_on_c, 0, 70, 0
2, 107280, Note_on_c, 0, 70, 47
2, 107280, Note_on_c, 0, 72, 47
2, 107520, Note_on_c, 0, 72, 0
2, 107520, Note_on_c, 0, 70, 0
2, 107520, Note_on_c, 0, 70, 51
2, 107520, Note_on_c, 0, 72, 51
2, 107760, Note_on_c, 0, 72, 0
2, 107760, Note_on_c, 0, 70, 0
2, 107760, Note_on_c, 0, 70, 47
2, 107760, Note_on_c, 0, 72, 47
2, 108000, Note_on_c, 0, 72, 0
2, 108000, Note_on_c, 0, 70, 0
2, 108000, Note_on_c, 0, 79, 59
2, 108000, Note_on_c, 0, 68, 59
2, 108000, Note_on_c, 0, 72, 59
2, 108240, Note_on_c, 0, 79, 0
2, 108240, Note_on_c, 0, 77, 51
2, 108720, Note_on_c, 0, 77, 0
2, 108720, Note_on_c, 0, 72, 0
2, 108720, Note_on_c, 0, 68, 0
2, 108720, Note_on_c, 0, 68, 51
2, 108720, Note_on_c, 0, 72, 51
2, 108960, Note_on_c, 0, 72, 0
2, 108960, Note_on_c, 0, 68, 0
2, 108960, Note_on_c, 0, 68, 54
2, 108960, Note_on_c, 0, 72, 54
2, 109200, Note_on_c, 0, 72, 0
2, 109200, Note_on_c, 0, 68, 0
2, 109200, Note_on_c, 0, 68, 49
2, 109200, Note_on_c, 0, 72, 49
2, 109440, Note_on_c, 0, 72, 0
2, 109440, Note_on_c, 0, 68, 0
2, 109440, Note_on_c, 0, 80, 64
2, 109440, Note_on_c, 0, 68, 64
2, 109440, Note_on_c, 0, 72, 64
2, 109680, Note_on_c, 0, 80, 0
2, 109680, Note_on_c, 0, 78, 60
2, 110160, Note_on_c, 0, 78, 0
2, 110160, Note_on_c, 0, 72, 0
2, 110160, Note_on_c, 0, 68, 0
2, 110160, Note_on_c, 0, 68, 50
2, 110160, Note_on_c, 0, 72, 50
2, 110376, Note_on_c, 0, 72, 0
2, 110376, Note_on_c, 0, 68, 0
2, 110400, Note_on_c, 0, 68, 55
2, 110400, Note_on_c, 0, 72, 55
2, 110616, Note_on_c, 0, 72, 0
2, 110616, Note_on_c, 0, 68, 0
2, 110640, Note_on_c, 0, 68, 51
2, 110640, Note_on_c, 0, 72, 51
2, 110856, Note_on_c, 0, 72, 0
2, 110856, Note_on_c, 0, 68, 0
2, 110880, Note_on_c, 0, 78, 61
2, 110880, Note_on_c, 0, 68, 61
2, 110880, Note_on_c, 0, 73, 61
2, 111120, Note_on_c, 0, 78, 0
2, 111120, Note_on_c, 0, 76, 56
2, 111600, Note_on_c, 0, 76, 0
2, 111600, Note_on_c, 0, 73, 0
2, 111600, Note_on_c, 0, 68, 0
2, 111600, Note_on_c, 0, 68, 59
2, 111600, Note_on_c, 0, 76, 59
2, 111840, Note_on_c, 0, 76, 0
2, 111840, Note_on_c, 0, 68, 0
2, 111840, Note_on_c, 0, 68, 64
2, 111840, Note_on_c, 0, 76, 64
2, 112080, Note_on_c, 0, 76, 0
2, 112080, Note_on_c, 0, 68, 0
2, 112080, Note_on_c, 0, 68, 59
2, 112080, Note_on_c, 0, 75, 59
2, 112320, Note_on_c, 0, 75, 0
2, 112320, Note_on_c, 0, 68, 0
2, 112320, Note_on_c, 0, 68, 65
2, 112320, Note_on_c, 0, 75, 65
2, 112680, Note_on_c, 0, 75, 0
2, 112680, Note_on_c, 0, 77, 52
2, 112740, Note_on_c, 0, 77, 0
2, 112740, Note_on_c, 0, 75, 49
2, 112800, Note_on_c, 0, 75, 0
2, 112800, Note_on_c, 0, 74, 52
2, 113040, Note_on_c, 0, 74, 0
2, 113040, Note_on_c, 0, 68, 0
2, 113040, Note_on_c, 0, 62, 45
2, 113040, Note_on_c, 0, 68, 45
2, 113280, Note_on_c, 0, 68, 0
2, 113280, Note_on_c, 0, 62, 0
2, 113280, Note_on_c, 0, 62, 47
2, 113280, Note_on_c, 0, 68, 47
2, 113520, Note_on_c, 0, 68, 0
2, 113520, Note_on_c, 0, 62, 0
2, 113520, Note_on_c, 0, 62, 45
2, 113520, Note_on_c, 0, 68, 45
2, 113760, Note_on_c, 0, 68, 0
2, 113760, Note_on_c, 0, 62, 0
2, 113760, Note_on_c, 0, 62, 47
2, 113760, Note_on_c, 0, 68, 47
2, 114240, Note_on_c, 0, 68, 0
2, 114240, Note_on_c, 0, 62, 0
2, 114480, Note_on_c, 0, 74, 39
2, 114480, Note_on_c, 0, 80, 39
2, 114696, Note_on_c, 0, 80, 0
2, 114696, Note_on_c, 0, 74, 0
2, 114720, Note_on_c, 0, 74, 39
2, 114720, Note_on_c, 0, 80, 39
2, 114936, Note_on_c, 0, 80, 0
2, 114936, Note_on_c, 0, 74, 0
2, 114960, Note_on_c, 0, 74, 39
2, 114960, Note_on_c, 0, 80, 39
2, 115176, Note_on_c, 0, 80, 0
2, 115176, Note_on_c, 0, 74, 0
2, 115200, Note_on_c, 0, 74, 43
2, 115200, Note_on_c, 0, 80, 43
2, 115440, Note_on_c, 0, 80, 0
2, 115440, Note_on_c, 0, 82, 34
2, 115470, Note_on_c, 0, 82, 0
2, 115470, Note_on_c, 0, 80, 36
2, 115500, Note_on_c, 0, 80, 0
2, 115500, Note_on_c, 0, 79, 39
2, 115530, Note_on_c, 0, 79, 0
2, 115530, Note_on_c, 0, 80, 41
2, 115560, Note_on_c, 0, 80, 0
2, 115560, Note_on_c, 0, 82, 40
2, 115620, Note_on_c, 0, 82, 0
2, 115620, Note_on_c, 0, 84, 37
2, 115680, Note_on_c, 0, 84, 0
2, 115680, Note_on_c, 0, 74, 0
2, 115680, Note_on_c, 0, 82, 43
2, 115800, Note_on_c, 0, 82, 0
2, 115800, Note_on_c, 0, 80, 40
2, 115920, Note_on_c, 0, 80, 0
2, 115920, Note_on_c, 0, 79, 44
2, 116040, Note_on_c, 0, 79, 0
2, 116040, Note_on_c, 0, 77, 44
2, 116160, Note_on_c, 0, 77, 0
2, 116160, Note_on_c, 0, 75, 46
2, 116280, Note_on_c, 0, 75, 0
2, 116280, Note_on_c, 0, 74, 44
2, 116400, Note_on_c, 0, 74, 0
2, 116400, Note_on_c, 0, 72, 44
2, 116520, Note_on_c, 0, 72, 0
2, 116520, Note_on_c, 0, 70, 44
2, 116630, Note_on_c, 0, 70, 0
2, 116640, Control_c, 0, 91, 127
2, 116641, Note_on_c, 0, 70, 46
2, 116641, Note_on_c, 0, 67, 46
2, 117000, Note_on_c, 0, 72, 46
2, 117001, Note_on_c, 0, 70, 0
2, 117060, Note_on_c, 0, 72, 0
2, 117060, Note_on_c, 0, 70, 46
2, 117120, Note_on_c, 0, 70, 0
2, 117120, Note_on_c, 0, 65, 44
2, 117120, Note_on_c, 0, 68, 44
2, 117121, Note_on_c, 0, 67, 0
2, 117360, Note_on_c, 0, 68, 0
2, 117360, Note_on_c, 0, 65, 0
2, 117360, Note_on_c, 0, 63, 42
2, 117360, Note_on_c, 0, 67, 42
2, 117600, Note_on_c, 0, 67, 0
2, 117600, Note_on_c, 0, 63, 0
2, 117600, Note_on_c, 0, 68, 43
2, 117600, Note_on_c, 0, 72, 43
2, 117840, Note_on_c, 0, 72, 0
2, 117840, Note_on_c, 0, 68, 0
2, 117840, Note_on_c, 0, 67, 41
2, 117840, Note_on_c, 0, 70, 41
2, 118070, Note_on_c, 0, 70, 0
2, 118070, Note_on_c, 0, 67, 0
2, 118080, Note_on_c, 0, 70, 45
2, 118080, Note_on_c, 0, 67, 45
2, 118440, Note_on_c, 0, 70, 0
2, 118440, Note_on_c, 0, 72, 42
2, 118500, Note_on_c, 0, 72, 0
2, 118500, Note_on_c, 0, 70, 42
2, 118560, Note_on_c, 0, 70, 0
2, 118560, Note_on_c, 0, 67, 0
2, 118560, Note_on_c, 0, 68, 47
2, 119040, Note_on_c, 0, 68, 0
2, 119040, Note_on_c, 0, 67, 47
2, 119640, Note_on_c, 0, 67, 0
2, 119640, Note_on_c, 0, 64, 44
2, 119760, Note_on_c, 0, 64, 0
2, 119760, Note_on_c, 0, 65, 45
2, 119880, Note_on_c, 0, 65, 0
2, 119880, Note_on_c, 0, 67, 46
2, 120000, Note_on_c, 0, 67, 0
2, 120000, Note_on_c, 0, 68, 49
2, 120120, Note_on_c, 0, 68, 0
2, 120120, Note_on_c, 0, 69, 51
2, 120240, Note_on_c, 0, 69, 0
2, 120240, Note_on_c, 0, 70, 52
2, 120360, Note_on_c, 0, 70, 0
2, 120360, Note_on_c, 0, 71, 54
2, 120480, Note_on_c, 0, 71, 0
2, 120480, Note_on_c, 0, 74, 56
2, 120540, Note_on_c, 0, 74, 0
2, 120540, Note_on_c, 0, 72, 54
2, 120600, Note_on_c, 0, 72, 0
2, 120600, Note_on_c, 0, 71, 52
2, 120660, Note_on_c, 0, 71, 0
2, 120660, Note_on_c, 0, 72, 54
2, 120720, Note_on_c, 0, 72, 0
2, 120720, Note_on_c, 0, 70, 52
2, 120780, Note_on_c, 0, 70, 0
2, 120780, Note_on_c, 0, 68, 49
2, 120840, Note_on_c, 0, 68, 0
2, 120840, Note_on_c, 0, 67, 51
2, 120900, Note_on_c, 0, 67, 0
2, 120900, Note_on_c, 0, 65, 50
2, 120960, Note_on_c, 0, 65, 0
2, 120960, Note_on_c, 0, 55, 54
2, 120960, Note_on_c, 0, 63, 54
2, 121440, Note_on_c, 0, 63, 0
2, 121440, Note_on_c, 0, 55, 0
2, 121440, Note_on_c, 0, 53, 47
2, 121440, Note_on_c, 0, 62, 47
2, 121500, Note_on_c, 0, 62, 0
2, 121500, Note_on_c, 0, 53, 0
2, 121500, Note_on_c, 0, 58, 49
2, 121560, Note_on_c, 0, 58, 0
2, 121560, Note_on_c, 0, 57, 50
2, 121620, Note_on_c, 0, 57, 0
2, 121620, Note_on_c, 0, 58, 51
2, 121680, Note_on_c, 0, 58, 0
2, 121680, Note_on_c, 0, 59, 52
2, 121740, Note_on_c, 0, 59, 0
2, 121740, Note_on_c, 0, 60, 53
2, 121800, Note_on_c, 0, 60, 0
2, 121800, Note_on_c, 0, 61, 54
2, 121860, Note_on_c, 0, 61, 0
2, 121860, Note_on_c, 0, 62, 54
2, 121920, Note_on_c, 0, 62, 0
2, 121920, Note_on_c, 0, 63, 55
2, 121980, Note_on_c, 0, 63, 0
2, 121980, Note_on_c, 0, 64, 56
2, 122040, Note_on_c, 0, 64, 0
2, 122040, Note_on_c, 0, 65, 57
2, 122100, Note_on_c, 0, 65, 0
2, 122100, Note_on_c, 0, 66, 59
2, 122160, Note_on_c, 0, 66, 0
2, 122160, Note_on_c, 0, 67, 60
2, 122220, Note_on_c, 0, 67, 0
2, 122220, Note_on_c, 0, 68, 61
2, 122280, Note_on_c, 0, 68, 0
2, 122280, Note_on_c, 0, 69, 62
2, 122340, Note_on_c, 0, 69, 0
2, 122340, Note_on_c, 0, 70, 63
2, 122390, Note_on_c, 0, 70, 0
2, 122400, Note_on_c, 0, 67, 63
2, 122400, Note_on_c, 0, 70, 63
2, 122760, Note_on_c, 0, 70, 0
2, 122760, Note_on_c, 0, 72, 57
2, 122820, Note_on_c, 0, 72, 0
2, 122820, Note_on_c, 0, 70, 53
2, 122880, Note_on_c, 0, 70, 0
2, 122880, Note_on_c, 0, 67, 0
2, 122880, Note_on_c, 0, 68, 55
2, 122940, Note_on_c, 0, 68, 0
2, 122940, Note_on_c, 0, 67, 54
2, 123000, Note_on_c, 0, 67, 0
2, 123000, Note_on_c, 0, 72, 56
2, 123060, Note_on_c, 0, 72, 0
2, 123060, Note_on_c, 0, 70, 53
2, 123120, Note_on_c, 0, 70, 0
2, 123120, Note_on_c, 0, 75, 57
2, 123180, Note_on_c, 0, 75, 0
2, 123180, Note_on_c, 0, 74, 55
2, 123240, Note_on_c, 0, 74, 0
2, 123240, Note_on_c, 0, 77, 61
2, 123300, Note_on_c, 0, 77, 0
2, 123300, Note_on_c, 0, 75, 55
2, 123360, Note_on_c, 0, 75, 0
2, 123360, Note_on_c, 0, 80, 63
2, 123420, Note_on_c, 0, 80, 0
2, 123420, Note_on_c, 0, 79, 59
2, 123480, Note_on_c, 0, 79, 0
2, 123480, Note_on_c, 0, 78, 61
2, 123540, Note_on_c, 0, 78, 0
2, 123540, Note_on_c, 0, 79, 61
2, 123600, Note_on_c, 0, 79, 0
2, 123600, Note_on_c, 0, 77, 61
2, 123660, Note_on_c, 0, 77, 0
2, 123660, Note_on_c, 0, 75, 59
2, 123720, Note_on_c, 0, 75, 0
2, 123720, Note_on_c, 0, 74, 57
2, 123780, Note_on_c, 0, 74, 0
2, 123780, Note_on_c, 0, 72, 55
2, 123840, Note_on_c, 0, 72, 0
2, 123840, Note_on_c, 0, 70, 60
2, 124080, Note_on_c, 0, 70, 0
2, 124080, Note_on_c, 0, 69, 63
2, 124560, Note_on_c, 0, 69, 0
2, 124560, Note_on_c, 0, 68, 63
2, 124920, Note_on_c, 0, 68, 0
2, 124920, Note_on_c, 0, 67, 66
2, 125040, Note_on_c, 0, 67, 0
2, 125040, Note_on_c, 0, 75, 68
2, 125160, Note_on_c, 0, 75, 0
2, 125160, Note_on_c, 0, 73, 64
2, 125280, Note_on_c, 0, 73, 0
2, 125280, Note_on_c, 0, 71, 67
2, 125400, Note_on_c, 0, 71, 0
2, 125400, Note_on_c, 0, 72, 64
2, 125520, Note_on_c, 0, 72, 0
2, 125520, Note_on_c, 0, 74, 69
2, 125640, Note_on_c, 0, 74, 0
2, 125640, Note_on_c, 0, 75, 64
2, 125750, Note_on_c, 0, 75, 0
2, 125760, Note_on_c, 0, 75, 70
2, 126000, Note_on_c, 0, 75, 0
2, 126000, Note_on_c, 0, 70, 66
2, 126360, Note_on_c, 0, 70, 0
2, 126360, Note_on_c, 0, 72, 54
2, 126420, Note_on_c, 0, 72, 0
2, 126420, Note_on_c, 0, 70, 50
2, 126470, Note_on_c, 0, 70, 0
2, 126480, Note_on_c, 0, 70, 53
2, 126540, Note_on_c, 0, 70, 0
2, 126540, Note_on_c, 0, 68, 45
2, 126600, Note_on_c, 0, 68, 0
2, 126600, Note_on_c, 0, 67, 51
2, 126660, Note_on_c, 0, 67, 0
2, 126660, Note_on_c, 0, 65, 45
2, 126720, Note_on_c, 0, 65, 0
2, 126720, Note_on_c, 0, 63, 46
2, 127200, Note_on_c, 0, 63, 0
2, 127440, Note_on_c, 0, 67, 46
2, 127440, Note_on_c, 0, 70, 46
2, 127680, Note_on_c, 0, 70, 0
2, 127680, Note_on_c, 0, 67, 0
2, 127680, Note_on_c, 0, 67, 50
2, 127680, Note_on_c, 0, 70, 50
2, 127920, Note_on_c, 0, 70, 0
2, 127920, Note_on_c, 0, 67, 0
2, 127920, Note_on_c, 0, 67, 46
2, 127920, Note_on_c, 0, 70, 46
2, 128160, Note_on_c, 0, 70, 0
2, 128160, Note_on_c, 0, 67, 0
2, 128160, Note_on_c, 0, 68, 54
2, 128160, Note_on_c, 0, 75, 54
2, 128400, Note_on_c, 0, 75, 0
2, 128400, Note_on_c, 0, 74, 46
2, 128880, Note_on_c, 0, 74, 0
2, 128880, Note_on_c, 0, 68, 0
2, 128880, Note_on_c, 0, 82, 50
2, 129000, Note_on_c, 0, 82, 0
2, 129000, Note_on_c, 0, 80, 47
2, 129120, Note_on_c, 0, 80, 0
2, 129120, Note_on_c, 0, 79, 52
2, 129240, Note_on_c, 0, 79, 0
2, 129240, Note_on_c, 0, 77, 47
2, 129360, Note_on_c, 0, 77, 0
2, 129360, Note_on_c, 0, 75, 49
2, 129480, Note_on_c, 0, 75, 0
2, 129480, Note_on_c, 0, 74, 45
2, 129600, Note_on_c, 0, 74, 0
2, 129600, Note_on_c, 0, 77, 54
2, 129640, Note_on_c, 0, 77, 0
2, 129640, Note_on_c, 0, 75, 52
2, 129940, Note_on_c, 0, 75, 0
2, 129960, Note_on_c, 0, 74, 49
2, 130020, Note_on_c, 0, 74, 0
2, 130020, Note_on_c, 0, 72, 45
2, 130080, Note_on_c, 0, 72, 0
2, 130080, Note_on_c, 0, 70, 50
2, 130310, Note_on_c, 0, 70, 0
2, 130320, Note_on_c, 0, 67, 49
2, 130320, Note_on_c, 0, 70, 49
2, 130536, Note_on_c, 0, 70, 0
2, 130536, Note_on_c, 0, 67, 0
2, 130560, Note_on_c, 0, 67, 53
2, 130560, Note_on_c, 0, 70, 53
2, 130776, Note_on_c, 0, 70, 0
2, 130776, Note_on_c, 0, 67, 0
2, 130800, Note_on_c, 0, 67, 49
2, 130800, Note_on_c, 0, 70, 49
2, 131016, Note_on_c, 0, 70, 0
2, 131016, Note_on_c, 0, 67, 0
2, 131040, Note_on_c, 0, 68, 62
2, 131040, Note_on_c, 0, 75, 62
2, 131160, Note_on_c, 0, 75, 0
2, 131160, Note_on_c, 0, 74, 55
2, 131280, Note_on_c, 0, 74, 0
2, 131280, Note_on_c, 0, 68, 0
2, 131280, Note_on_c, 0, 84, 60
2, 131760, Note_on_c, 0, 84, 0
2, 131760, Note_on_c, 0, 82, 50
2, 131820, Note_on_c, 0, 82, 0
2, 131820, Note_on_c, 0, 80, 49
2, 131880, Note_on_c, 0, 80, 0
2, 131880, Note_on_c, 0, 84, 52
2, 131940, Note_on_c, 0, 84, 0
2, 131940, Note_on_c, 0, 80, 49
2, 132000, Note_on_c, 0, 80, 0
2, 132000, Note_on_c, 0, 79, 51
2, 132060, Note_on_c, 0, 79, 0
2, 132060, Note_on_c, 0, 77, 49
2, 132120, Note_on_c, 0, 77, 0
2, 132120, Note_on_c, 0, 80, 51
2, 132180, Note_on_c, 0, 80, 0
2, 132180, Note_on_c, 0, 77, 49
2, 132240, Note_on_c, 0, 77, 0
2, 132240, Note_on_c, 0, 75, 51
2, 132300, Note_on_c, 0, 75, 0
2, 132300, Note_on_c, 0, 74, 49
2, 132360, Note_on_c, 0, 74, 0
2, 132360, Note_on_c, 0, 77, 52
2, 132420, Note_on_c, 0, 77, 0
2, 132420, Note_on_c, 0, 74, 49
2, 132480, Note_on_c, 0, 74, 0
2, 132480, Note_on_c, 0, 75, 54
2, 132540, Note_on_c, 0, 75, 0
2, 132540, Note_on_c, 0, 77, 52
2, 132600, Note_on_c, 0, 77, 0
2, 132600, Note_on_c, 0, 75, 52
2, 132660, Note_on_c, 0, 75, 0
2, 132660, Note_on_c, 0, 74, 52
2, 132720, Note_on_c, 0, 74, 0
2, 132720, Note_on_c, 0, 75, 50
2, 132760, Note_on_c, 0, 75, 0
2, 132760, Note_on_c, 0, 76, 47
2, 132800, Note_on_c, 0, 76, 0
2, 132800, Note_on_c, 0, 77, 50
2, 132840, Note_on_c, 0, 77, 0
2, 132840, Note_on_c, 0, 78, 53
2, 132900, Note_on_c, 0, 78, 0
2, 132900, Note_on_c, 0, 79, 54
2, 132960, Note_on_c, 0, 79, 0
2, 132960, Note_on_c, 0, 70, 50
2, 133200, Note_on_c, 0, 70, 0
2, 133200, Note_on_c, 0, 67, 45
2, 133200, Note_on_c, 0, 70, 45
2, 133440, Note_on_c, 0, 70, 0
2, 133440, Note_on_c, 0, 67, 0
2, 133440, Note_on_c, 0, 65, 47
2, 133440, Note_on_c, 0, 68, 47
2, 133680, Note_on_c, 0, 68, 0
2, 133680, Note_on_c, 0, 65, 0
2, 133680, Note_on_c, 0, 63, 51
2, 133680, Note_on_c, 0, 67, 51
2, 133910, Note_on_c, 0, 67, 0
2, 133910, Note_on_c, 0, 63, 0
2, 133920, Note_on_c, 0, 63, 58
2, 133920, Note_on_c, 0, 70, 58
2, 134040, Note_on_c, 0, 70, 0
2, 134040, Note_on_c, 0, 69, 49
2, 134160, Note_on_c, 0, 69, 0
2, 134160, Note_on_c, 0, 70, 53
2, 134280, Note_on_c, 0, 70, 0
2, 134280, Note_on_c, 0, 67, 42
2, 134400, Note_on_c, 0, 67, 0
2, 134400, Note_on_c, 0, 63, 0
2, 134400, Note_on_c, 0, 62, 38
2, 134400, Note_on_c, 0, 65, 38
2, 134880, Note_on_c, 0, 65, 0
2, 134880, Note_on_c, 0, 62, 0
2, 135300, Note_on_c, 0, 70, 67
2, 135360, Note_on_c, 0, 70, 0
2, 135360, Note_on_c, 0, 82, 73
2, 136080, Note_on_c, 0, 82, 0
2, 136080, Note_on_c, 0, 80, 70
2, 136140, Note_on_c, 0, 80, 0
2, 136140, Note_on_c, 0, 79, 66
2, 136200, Note_on_c, 0, 79, 0
2, 136200, Note_on_c, 0, 77, 70
2, 136260, Note_on_c, 0, 77, 0
2, 136260, Note_on_c, 0, 75, 64
2, 136320, Note_on_c, 0, 75, 0
2, 136320, Note_on_c, 0, 74, 74
2, 136560, Note_on_c, 0, 74, 0
2, 136560, Note_on_c, 0, 75, 72
2, 136800, Note_on_c, 0, 75, 0
2, 136800, Note_on_c, 0, 74, 67
2, 136800, Note_on_c, 0, 77, 67
2, 137040, Note_on_c, 0, 77, 0
2, 137040, Note_on_c, 0, 74, 0
2, 137040, Note_on_c, 0, 80, 69
2, 137040, Note_on_c, 0, 75, 69
2, 137100, Note_on_c, 0, 80, 0
2, 137100, Note_on_c, 0, 79, 65
2, 137160, Note_on_c, 0, 79, 0
2, 137160, Note_on_c, 0, 77, 66
2, 137220, Note_on_c, 0, 77, 0
2, 137220, Note_on_c, 0, 79, 65
2, 137280, Note_on_c, 0, 79, 0
2, 137280, Note_on_c, 0, 75, 0
2, 137280, Note_on_c, 0, 77, 70
2, 137280, Note_on_c, 0, 80, 70
2, 137520, Note_on_c, 0, 80, 0
2, 137520, Note_on_c, 0, 77, 0
2, 137520, Note_on_c, 0, 70, 57
2, 137736, Note_on_c, 0, 70, 0
2, 137760, Note_on_c, 0, 70, 59
2, 137976, Note_on_c, 0, 70, 0
2, 138000, Note_on_c, 0, 70, 59
2, 138216, Note_on_c, 0, 70, 0
2, 138240, Note_on_c, 0, 80, 72
2, 138960, Note_on_c, 0, 80, 0
2, 138960, Note_on_c, 0, 82, 69
2, 139020, Note_on_c, 0, 82, 0
2, 139020, Note_on_c, 0, 80, 65
2, 139080, Note_on_c, 0, 80, 0
2, 139080, Note_on_c, 0, 79, 69
2, 139140, Note_on_c, 0, 79, 0
2, 139140, Note_on_c, 0, 77, 64
2, 139200, Note_on_c, 0, 77, 0
2, 139200, Note_on_c, 0, 75, 73
2, 139440, Note_on_c, 0, 75, 0
2, 139440, Note_on_c, 0, 74, 70
2, 139440, Note_on_c, 0, 77, 70
2, 139680, Note_on_c, 0, 77, 0
2, 139680, Note_on_c, 0, 74, 0
2, 139680, Note_on_c, 0, 75, 71
2, 139680, Note_on_c, 0, 79, 71
2, 139920, Note_on_c, 0, 79, 0
2, 139920, Note_on_c, 0, 75, 0
2, 139920, Note_on_c, 0, 82, 67
2, 139920, Note_on_c, 0, 77, 67
2, 139980, Note_on_c, 0, 82, 0
2, 139980, Note_on_c, 0, 80, 63
2, 140040, Note_on_c, 0, 80, 0
2, 140040, Note_on_c, 0, 79, 67
2, 140100, Note_on_c, 0, 79, 0
2, 140100, Note_on_c, 0, 80, 64
2, 140160, Note_on_c, 0, 80, 0
2, 140160, Note_on_c, 0, 77, 0
2, 140160, Note_on_c, 0, 79, 72
2, 140160, Note_on_c, 0, 82, 72
2, 140280, Note_on_c, 0, 82, 0
2, 140280, Note_on_c, 0, 79, 0
2, 141120, Note_on_c, 0, 73, 83
2, 141720, Note_on_c, 0, 73, 0
2, 141720, Note_on_c, 0, 75, 62
2, 141750, Note_on_c, 0, 75, 0
2, 141750, Note_on_c, 0, 73, 58
2, 141780, Note_on_c, 0, 73, 0
2, 141780, Note_on_c, 0, 72, 62
2, 141810, Note_on_c, 0, 72, 0
2, 141810, Note_on_c, 0, 73, 59
2, 141840, Note_on_c, 0, 73, 0
2, 141840, Note_on_c, 0, 75, 67
2, 141960, Note_on_c, 0, 75, 0
2, 141960, Note_on_c, 0, 77, 67
2, 142080, Note_on_c, 0, 77, 0
2, 142080, Note_on_c, 0, 75, 67
2, 142200, Note_on_c, 0, 75, 0
2, 142200, Note_on_c, 0, 73, 60
2, 142320, Note_on_c, 0, 73, 0
2, 142320, Note_on_c, 0, 72, 67
2, 142440, Note_on_c, 0, 72, 0
2, 142440, Note_on_c, 0, 71, 61
2, 142550, Note_on_c, 0, 71, 0
2, 142560, Note_on_c, 0, 71, 70
2, 143160, Note_on_c, 0, 71, 0
2, 143160, Note_on_c, 0, 72, 67
2, 143280, Note_on_c, 0, 72, 0
2, 143280, Note_on_c, 0, 75, 69
2, 143400, Note_on_c, 0, 75, 0
2, 143400, Note_on_c, 0, 74, 69
2, 143520, Note_on_c, 0, 74, 0
2, 143520, Note_on_c, 0, 77, 69
2, 143640, Note_on_c, 0, 77, 0
2, 143640, Note_on_c, 0, 75, 64
2, 143760, Note_on_c, 0, 75, 0
2, 143760, Note_on_c, 0, 74, 68
2, 143880, Note_on_c, 0, 74, 0
2, 143880, Note_on_c, 0, 72, 61
2, 144000, Note_on_c, 0, 72, 0
2, 144000, Note_on_c, 0, 70, 59
2, 144080, Note_on_c, 0, 71, 60
2, 144100, Note_on_c, 0, 70, 0
2, 144160, Note_on_c, 0, 72, 62
2, 144180, Note_on_c, 0, 71, 0
2, 144240, Note_on_c, 0, 73, 66
2, 144260, Note_on_c, 0, 72, 0
2, 144320, Note_on_c, 0, 74, 68
2, 144340, Note_on_c, 0, 73, 0
2, 144400, Note_on_c, 0, 75, 69
2, 144420, Note_on_c, 0, 74, 0
2, 144480, Note_on_c, 0, 75, 0
2, 144480, Note_on_c, 0, 75, 60
2, 144540, Note_on_c, 0, 75, 0
2, 144540, Note_on_c, 0, 63, 73
2, 144960, Note_on_c, 0, 63, 0
2, 144960, Note_on_c, 0, 67, 59
2, 144960, Note_on_c, 0, 62, 59
2, 145080, Note_on_c, 0, 67, 0
2, 145080, Note_on_c, 0, 65, 64
2, 145200, Note_on_c, 0, 65, 0
2, 145200, Note_on_c, 0, 63, 64
2, 145320, Note_on_c, 0, 63, 0
2, 145320, Note_on_c, 0, 65, 59
2, 145440, Note_on_c, 0, 65, 0
2, 145440, Note_on_c, 0, 62, 0
2, 145440, Note_on_c, 0, 63, 55
2, 145920, Note_on_c, 0, 63, 0
2, 146160, Note_on_c, 0, 63, 75
2, 146160, Note_on_c, 0, 70, 75
2, 146376, Note_on_c, 0, 70, 0
2, 146376, Note_on_c, 0, 63, 0
2, 146400, Note_on_c, 0, 65, 80
2, 146400, Note_on_c, 0, 70, 59
2, 146616, Note_on_c, 0, 70, 0
2, 146616, Note_on_c, 0, 65, 0
2, 146640, Note_on_c, 0, 67, 75
2, 146640, Note_on_c, 0, 70, 75
2, 146856, Note_on_c, 0, 70, 0
2, 146856, Note_on_c, 0, 67, 0
2, 146880, Note_on_c, 0, 70, 80
2, 146880, Note_on_c, 0, 68, 63
2, 147180, Note_on_c, 0, 70, 0
2, 147180, Note_on_c, 0, 72, 76
2, 147240, Note_on_c, 0, 72, 0
2, 147240, Note_on_c, 0, 70, 70
2, 147300, Note_on_c, 0, 70, 0
2, 147300, Note_on_c, 0, 69, 69
2, 147360, Note_on_c, 0, 69, 0
2, 147360, Note_on_c, 0, 70, 79
2, 147480, Note_on_c, 0, 70, 0
2, 147600, Note_on_c, 0, 68, 0
2, 147600, Note_on_c, 0, 62, 74
2, 147600, Note_on_c, 0, 70, 74
2, 147840, Note_on_c, 0, 70, 0
2, 147840, Note_on_c, 0, 62, 0
2, 147840, Note_on_c, 0, 63, 76
2, 147840, Note_on_c, 0, 72, 76
2, 148080, Note_on_c, 0, 72, 0
2, 148080, Note_on_c, 0, 63, 0
2, 148080, Note_on_c, 0, 65, 72
2, 148080, Note_on_c, 0, 74, 72
2, 148320, Note_on_c, 0, 74, 0
2, 148320, Note_on_c, 0, 65, 0
2, 148320, Note_on_c, 0, 75, 81
2, 148320, Note_on_c, 0, 63, 81
2, 148620, Note_on_c, 0, 75, 0
2, 148620, Note_on_c, 0, 77, 70
2, 148680, Note_on_c, 0, 77, 0
2, 148680, Note_on_c, 0, 79, 72
2, 148740, Note_on_c, 0, 79, 0
2, 148740, Note_on_c, 0, 75, 66
2, 148800, Note_on_c, 0, 75, 0
2, 148800, Note_on_c, 0, 70, 69
2, 148920, Note_on_c, 0, 70, 0
2, 149040, Note_on_c, 0, 63, 0
2, 149040, Note_on_c, 0, 67, 52
2, 149040, Note_on_c, 0, 70, 52
2, 149280, Note_on_c, 0, 70, 0
2, 149280, Note_on_c, 0, 67, 0
2, 149280, Note_on_c, 0, 65, 54
2, 149280, Note_on_c, 0, 68, 54
2, 149520, Note_on_c, 0, 68, 0
2, 149520, Note_on_c, 0, 65, 0
2, 149520, Note_on_c, 0, 63, 52
2, 149520, Note_on_c, 0, 67, 52
2, 149760, Note_on_c, 0, 67, 0
2, 149760, Note_on_c, 0, 63, 0
2, 149760, Note_on_c, 0, 65, 57
2, 150060, Note_on_c, 0, 65, 0
2, 150060, Note_on_c, 0, 67, 50
2, 150120, Note_on_c, 0, 67, 0
2, 150120, Note_on_c, 0, 68, 52
2, 150180, Note_on_c, 0, 68, 0
2, 150180, Note_on_c, 0, 65, 50
2, 150240, Note_on_c, 0, 65, 0
2, 150240, Note_on_c, 0, 72, 56
2, 150360, Note_on_c, 0, 72, 0
2, 150480, Note_on_c, 0, 60, 46
2, 150480, Note_on_c, 0, 65, 46
2, 150720, Note_on_c, 0, 65, 0
2, 150720, Note_on_c, 0, 60, 0
2, 150720, Note_on_c, 0, 58, 49
2, 150720, Note_on_c, 0, 63, 49
2, 150960, Note_on_c, 0, 63, 0
2, 150960, Note_on_c, 0, 58, 0
2, 150960, Note_on_c, 0, 62, 46
2, 150960, Note_on_c, 0, 65, 46
2, 151190, Note_on_c, 0, 65, 0
2, 151190, Note_on_c, 0, 62, 0
2, 151200, Note_on_c, 0, 62, 54
2, 151200, Note_on_c, 0, 65, 54
2, 151560, Note_on_c, 0, 65, 0
2, 151560, Note_on_c, 0, 66, 50
2, 151680, Note_on_c, 0, 66, 0
2, 151680, Note_on_c, 0, 62, 0
2, 151680, Note_on_c, 0, 63, 45
2, 151680, Note_on_c, 0, 67, 45
2, 151920, Note_on_c, 0, 67, 0
2, 151920, Note_on_c, 0, 63, 0
2, 151920, Note_on_c, 0, 75, 76
2, 151920, Note_on_c, 0, 82, 76
2, 152136, Note_on_c, 0, 82, 0
2, 152136, Note_on_c, 0, 75, 0
2, 152160, Note_on_c, 0, 77, 77
2, 152160, Note_on_c, 0, 82, 77
2, 152376, Note_on_c, 0, 82, 0
2, 152376, Note_on_c, 0, 77, 0
2, 152400, Note_on_c, 0, 79, 76
2, 152400, Note_on_c, 0, 82, 76
2, 152616, Note_on_c, 0, 82, 0
2, 152616, Note_on_c, 0, 79, 0
2, 152640, Note_on_c, 0, 82, 81
2, 152640, Note_on_c, 0, 80, 81
2, 152940, Note_on_c, 0, 82, 0
2, 152940, Note_on_c, 0, 84, 73
2, 153000, Note_on_c, 0, 84, 0
2, 153000, Note_on_c, 0, 82, 69
2, 153060, Note_on_c, 0, 82, 0
2, 153060, Note_on_c, 0, 81, 70
2, 153120, Note_on_c, 0, 81, 0
2, 153120, Note_on_c, 0, 82, 78
2, 153240, Note_on_c, 0, 82, 0
2, 153360, Note_on_c, 0, 80, 0
2, 153360, Note_on_c, 0, 74, 76
2, 153360, Note_on_c, 0, 82, 76
2, 153600, Note_on_c, 0, 82, 0
2, 153600, Note_on_c, 0, 74, 0
2, 153600, Note_on_c, 0, 75, 80
2, 153600, Note_on_c, 0, 84, 80
2, 153840, Note_on_c, 0, 84, 0
2, 153840, Note_on_c, 0, 75, 0
2, 153840, Note_on_c, 0, 77, 75
2, 153840, Note_on_c, 0, 86, 75
2, 154080, Note_on_c, 0, 86, 0
2, 154080, Note_on_c, 0, 77, 0
2, 154080, Note_on_c, 0, 87, 86
2, 154080, Note_on_c, 0, 75, 86
2, 154380, Note_on_c, 0, 87, 0
2, 154380, Note_on_c, 0, 86, 68
2, 154440, Note_on_c, 0, 86, 0
2, 154440, Note_on_c, 0, 87, 70
2, 154500, Note_on_c, 0, 87, 0
2, 154500, Note_on_c, 0, 82, 66
2, 154560, Note_on_c, 0, 82, 0
2, 154560, Note_on_c, 0, 79, 61
2, 154680, Note_on_c, 0, 79, 0
2, 154800, Note_on_c, 0, 75, 0
2, 154800, Note_on_c, 0, 79, 54
2, 154800, Note_on_c, 0, 82, 54
2, 155040, Note_on_c, 0, 82, 0
2, 155040, Note_on_c, 0, 79, 0
2, 155040, Note_on_c, 0, 77, 54
2, 155040, Note_on_c, 0, 80, 54
2, 155280, Note_on_c, 0, 80, 0
2, 155280, Note_on_c, 0, 77, 0
2, 155280, Note_on_c, 0, 75, 54
2, 155280, Note_on_c, 0, 79, 54
2, 155520, Note_on_c, 0, 79, 0
2, 155520, Note_on_c, 0, 75, 0
2, 155520, Note_on_c, 0, 76, 51
2, 155580, Note_on_c, 0, 76, 0
2, 155580, Note_on_c, 0, 77, 50
2, 155640, Note_on_c, 0, 77, 0
2, 155640, Note_on_c, 0, 79, 56
2, 155700, Note_on_c, 0, 79, 0
2, 155700, Note_on_c, 0, 77, 55
2, 155760, Note_on_c, 0, 77, 0
2, 155760, Note_on_c, 0, 80, 59
2, 155820, Note_on_c, 0, 80, 0
2, 155820, Note_on_c, 0, 79, 58
2, 155880, Note_on_c, 0, 79, 0
2, 155880, Note_on_c, 0, 82, 62
2, 155940, Note_on_c, 0, 82, 0
2, 155940, Note_on_c, 0, 80, 60
2, 156000, Note_on_c, 0, 80, 0
2, 156000, Note_on_c, 0, 84, 66
2, 156480, Note_on_c, 0, 84, 0
2, 156480, Note_on_c, 0, 82, 59
2, 156720, Note_on_c, 0, 82, 0
2, 156900, Note_on_c, 0, 74, 53
2, 156960, Note_on_c, 0, 74, 0
2, 156960, Note_on_c, 0, 75, 56
2, 157440, Note_on_c, 0, 75, 0
2, 157680, Note_on_c, 0, 85, 69
2, 157920, Note_on_c, 0, 85, 0
2, 157920, Note_on_c, 0, 84, 72
2, 158160, Note_on_c, 0, 84, 0
2, 158160, Note_on_c, 0, 86, 75
2, 158400, Note_on_c, 0, 86, 0
2, 158400, Note_on_c, 0, 89, 81
2, 158640, Note_on_c, 0, 89, 0
2, 158640, Note_on_c, 0, 87, 78
2, 158880, Note_on_c, 0, 87, 0
2, 159120, Note_on_c, 0, 73, 72
2, 159360, Note_on_c, 0, 73, 0
2, 159360, Note_on_c, 0, 72, 74
2, 159600, Note_on_c, 0, 72, 0
2, 159600, Note_on_c, 0, 68, 69
2, 159600, Note_on_c, 0, 74, 69
2, 159840, Note_on_c, 0, 74, 0
2, 159840, Note_on_c, 0, 68, 0
2, 159840, Note_on_c, 0, 77, 59
2, 159840, Note_on_c, 0, 68, 59
2, 160320, Note_on_c, 0, 68, 0
2, 160320, Note_on_c, 0, 77, 0
2, 160320, Note_on_c, 0, 67, 52
2, 160320, Note_on_c, 0, 75, 52
2, 160560, Note_on_c, 0, 75, 0
2, 160560, Note_on_c, 0, 67, 0
2, 160560, Note_on_c, 0, 62, 47
2, 160560, Note_on_c, 0, 65, 47
2, 160800, Note_on_c, 0, 65, 0
2, 160800, Note_on_c, 0, 62, 0
2, 160800, Note_on_c, 0, 63, 52
2, 160800, Note_on_c, 0, 67, 52
2, 161040, Note_on_c, 0, 67, 0
2, 161040, Note_on_c, 0, 63, 0
2, 161040, Note_on_c, 0, 65, 54
2, 161040, Note_on_c, 0, 68, 54
2, 161280, Note_on_c, 0, 68, 0
2, 161280, Note_on_c, 0, 65, 0
2, 161280, Control_c, 0, 91, 127
2, 161280, Note_on_c, 0, 66, 67
2, 161280, Note_on_c, 0, 69, 67
2, 161760, Note_on_c, 0, 69, 0
2, 161760, Note_on_c, 0, 66, 0
2, 161760, Note_on_c, 0, 67, 62
2, 161760, Note_on_c, 0, 70, 62
2, 162000, Note_on_c, 0, 70, 0
2, 162000, Note_on_c, 0, 67, 0
2, 162000, Note_on_c, 0, 70, 54
2, 162000, Note_on_c, 0, 73, 54
2, 162240, Note_on_c, 0, 73, 0
2, 162240, Note_on_c, 0, 70, 0
2, 162240, Note_on_c, 0, 64, 56
2, 162240, Note_on_c, 0, 67, 56
2, 162480, Note_on_c, 0, 67, 0
2, 162480, Note_on_c, 0, 64, 0
2, 162480, Note_on_c, 0, 68, 51
2, 162480, Note_on_c, 0, 72, 51
2, 162720, Note_on_c, 0, 72, 0
2, 162720, Note_on_c, 0, 68, 0
2, 162720, Note_on_c, 0, 67, 55
2, 162720, Note_on_c, 0, 70, 55
2, 163200, Note_on_c, 0, 70, 0
2, 163200, Note_on_c, 0, 67, 0
2, 163200, Note_on_c, 0, 65, 52
2, 163200, Note_on_c, 0, 68, 52
2, 163440, Note_on_c, 0, 68, 0
2, 163440, Note_on_c, 0, 65, 0
2, 163440, Note_on_c, 0, 77, 54
2, 163656, Note_on_c, 0, 77, 0
2, 163680, Note_on_c, 0, 77, 54
2, 163896, Note_on_c, 0, 77, 0
2, 163920, Note_on_c, 0, 77, 54
2, 164136, Note_on_c, 0, 77, 0
2, 164160, Note_on_c, 0, 78, 62
2, 164640, Note_on_c, 0, 78, 0
2, 164640, Note_on_c, 0, 79, 56
2, 164880, Note_on_c, 0, 79, 0
2, 164880, Note_on_c, 0, 82, 63
2, 165360, Note_on_c, 0, 82, 0
2, 165360, Note_on_c, 0, 76, 57
2, 165600, Note_on_c, 0, 76, 0
2, 165600, Note_on_c, 0, 79, 64
2, 166080, Note_on_c, 0, 79, 0
2, 166080, Note_on_c, 0, 77, 60
2, 166320, Note_on_c, 0, 77, 0
2, 167280, Note_on_c, 0, 80, 59
2, 167520, Note_on_c, 0, 80, 0
2, 167520, Note_on_c, 0, 79, 61
2, 167640, Note_on_c, 0, 79, 0
2, 167640, Note_on_c, 0, 77, 59
2, 167760, Note_on_c, 0, 77, 0
2, 167760, Note_on_c, 0, 75, 57
2, 167880, Note_on_c, 0, 75, 0
2, 167880, Note_on_c, 0, 73, 57
2, 168000, Note_on_c, 0, 73, 0
2, 168000, Note_on_c, 0, 72, 59
2, 168120, Note_on_c, 0, 72, 0
2, 168120, Note_on_c, 0, 73, 62
2, 168240, Note_on_c, 0, 73, 0
2, 168240, Note_on_c, 0, 77, 66
2, 168360, Note_on_c, 0, 77, 0
2, 168360, Note_on_c, 0, 73, 60
2, 168480, Note_on_c, 0, 73, 0
2, 168480, Note_on_c, 0, 62, 57
2, 168480, Note_on_c, 0, 68, 57
2, 168480, Note_on_c, 0, 72, 57
2, 168960, Note_on_c, 0, 72, 0
2, 168960, Note_on_c, 0, 71, 47
2, 169920, Note_on_c, 0, 71, 0
2, 169920, Note_on_c, 0, 68, 0
2, 169920, Note_on_c, 0, 62, 0
2, 170160, Note_on_c, 0, 63, 53
2, 170160, Note_on_c, 0, 72, 53
2, 170400, Note_on_c, 0, 72, 0
2, 170400, Note_on_c, 0, 71, 56
2, 170520, Note_on_c, 0, 71, 0
2, 170520, Note_on_c, 0, 72, 58
2, 170640, Note_on_c, 0, 72, 0
2, 170640, Note_on_c, 0, 63, 0
2, 170640, Note_on_c, 0, 63, 50
2, 170640, Note_on_c, 0, 74, 59
2, 170760, Note_on_c, 0, 74, 0
2, 170760, Note_on_c, 0, 72, 56
2, 170880, Note_on_c, 0, 72, 0
2, 170880, Note_on_c, 0, 71, 56
2, 171000, Note_on_c, 0, 71, 0
2, 171000, Note_on_c, 0, 72, 59
2, 171120, Note_on_c, 0, 72, 0
2, 171120, Note_on_c, 0, 63, 0
2, 171120, Note_on_c, 0, 63, 61
2, 171120, Note_on_c, 0, 75, 61
2, 171240, Note_on_c, 0, 75, 0
2, 171240, Note_on_c, 0, 74, 60
2, 171360, Note_on_c, 0, 74, 0
2, 171360, Note_on_c, 0, 71, 66
2, 171840, Note_on_c, 0, 71, 0
2, 171840, Note_on_c, 0, 63, 0
2, 171840, Note_on_c, 0, 63, 60
2, 171840, Note_on_c, 0, 72, 60
2, 172800, Note_on_c, 0, 72, 0
2, 172800, Note_on_c, 0, 63, 0
2, 173040, Note_on_c, 0, 63, 62
2, 173040, Note_on_c, 0, 72, 62
2, 173256, Note_on_c, 0, 72, 0
2, 173256, Note_on_c, 0, 63, 0
2, 173280, Note_on_c, 0, 63, 64
2, 173280, Note_on_c, 0, 72, 64
2, 173496, Note_on_c, 0, 72, 0
2, 173496, Note_on_c, 0, 63, 0
2, 173520, Note_on_c, 0, 63, 67
2, 173520, Note_on_c, 0, 72, 67
2, 173736, Note_on_c, 0, 72, 0
2, 173736, Note_on_c, 0, 63, 0
2, 173760, Note_on_c, 0, 63, 70
2, 173760, Note_on_c, 0, 72, 70
2, 173976, Note_on_c, 0, 72, 0
2, 173976, Note_on_c, 0, 63, 0
2, 174000, Note_on_c, 0, 63, 72
2, 174000, Note_on_c, 0, 72, 72
2, 174216, Note_on_c, 0, 72, 0
2, 174216, Note_on_c, 0, 63, 0
2, 174240, Note_on_c, 0, 73, 74
2, 174240, Note_on_c, 0, 63, 74
2, 174540, Note_on_c, 0, 73, 0
2, 174540, Note_on_c, 0, 72, 62
2, 174600, Note_on_c, 0, 72, 0
2, 174600, Note_on_c, 0, 70, 57
2, 174660, Note_on_c, 0, 70, 0
2, 174660, Note_on_c, 0, 68, 54
2, 174720, Note_on_c, 0, 68, 0
2, 174720, Note_on_c, 0, 67, 66
2, 174960, Note_on_c, 0, 67, 0
2, 174960, Note_on_c, 0, 63, 0
2, 174960, Note_on_c, 0, 79, 67
2, 175200, Note_on_c, 0, 79, 0
2, 175200, Note_on_c, 0, 80, 67
2, 175440, Note_on_c, 0, 80, 0
2, 175440, Note_on_c, 0, 72, 65
2, 175800, Note_on_c, 0, 72, 0
2, 175800, Note_on_c, 0, 70, 56
2, 175920, Note_on_c, 0, 70, 0
2, 175920, Note_on_c, 0, 73, 60
2, 176040, Note_on_c, 0, 73, 0
2, 176040, Note_on_c, 0, 77, 55
2, 176160, Note_on_c, 0, 77, 0
2, 176160, Note_on_c, 0, 68, 63
2, 176880, Note_on_c, 0, 68, 0
2, 176880, Note_on_c, 0, 67, 55
2, 176880, Note_on_c, 0, 72, 55
2, 177000, Note_on_c, 0, 72, 0
2, 177000, Note_on_c, 0, 70, 55
2, 177120, Note_on_c, 0, 70, 0
2, 177120, Note_on_c, 0, 67, 0
2, 177120, Note_on_c, 0, 68, 46
2, 177600, Note_on_c, 0, 68, 0
2, 177840, Note_on_c, 0, 68, 46
2, 177840, Note_on_c, 0, 72, 46
2, 178080, Note_on_c, 0, 72, 0
2, 178080, Note_on_c, 0, 68, 0
2, 178080, Note_on_c, 0, 68, 49
2, 178080, Note_on_c, 0, 72, 49
2, 178320, Note_on_c, 0, 72, 0
2, 178320, Note_on_c, 0, 68, 0
2, 178320, Note_on_c, 0, 68, 46
2, 178320, Note_on_c, 0, 72, 46
2, 178560, Note_on_c, 0, 72, 0
2, 178560, Note_on_c, 0, 68, 0
2, 178560, Note_on_c, 0, 70, 58
2, 178560, Note_on_c, 0, 72, 58
2, 178560, Note_on_c, 0, 77, 58
2, 178800, Note_on_c, 0, 77, 0
2, 178800, Note_on_c, 0, 76, 46
2, 179280, Note_on_c, 0, 76, 0
2, 179280, Note_on_c, 0, 72, 0
2, 179280, Note_on_c, 0, 70, 0
2, 179280, Note_on_c, 0, 70, 47
2, 179280, Note_on_c, 0, 72, 47
2, 179520, Note_on_c, 0, 72, 0
2, 179520, Note_on_c, 0, 70, 0
2, 179520, Note_on_c, 0, 70, 51
2, 179520, Note_on_c, 0, 72, 51
2, 179760, Note_on_c, 0, 72, 0
2, 179760, Note_on_c, 0, 70, 0
2, 179760, Note_on_c, 0, 70, 47
2, 179760, Note_on_c, 0, 72, 47
2, 180000, Note_on_c, 0, 72, 0
2, 180000, Note_on_c, 0, 70, 0
2, 180000, Note_on_c, 0, 79, 59
2, 180000, Note_on_c, 0, 68, 59
2, 180000, Note_on_c, 0, 72, 59
2, 180240, Note_on_c, 0, 79, 0
2, 180240, Note_on_c, 0, 77, 51
2, 180720, Note_on_c, 0, 77, 0
2, 180720, Note_on_c, 0, 72, 0
2, 180720, Note_on_c, 0, 68, 0
2, 180720, Note_on_c, 0, 68, 51
2, 180720, Note_on_c, 0, 72, 51
2, 180960, Note_on_c, 0, 72, 0
2, 180960, Note_on_c, 0, 68, 0
2, 180960, Note_on_c, 0, 68, 54
2, 180960, Note_on_c, 0, 72, 54
2, 181200, Note_on_c, 0, 72, 0
2, 181200, Note_on_c, 0, 68, 0
2, 181200, Note_on_c, 0, 68, 49
2, 181200, Note_on_c, 0, 72, 49
2, 181440, Note_on_c, 0, 72, 0
2, 181440, Note_on_c, 0, 68, 0
2, 181440, Note_on_c, 0, 80, 64
2, 181440, Note_on_c, 0, 68, 64
2, 181440, Note_on_c, 0, 72, 64
2, 181680, Note_on_c, 0, 80, 0
2, 181680, Note_on_c, 0, 78, 60
2, 182160, Note_on_c, 0, 78, 0
2, 182160, Note_on_c, 0, 72, 0
2, 182160, Note_on_c, 0, 68, 0
2, 182160, Note_on_c, 0, 68, 50
2, 182160, Note_on_c, 0, 72, 50
2, 182376, Note_on_c, 0, 72, 0
2, 182376, Note_on_c, 0, 68, 0
2, 182400, Note_on_c, 0, 68, 55
2, 182400, Note_on_c, 0, 72, 55
2, 182616, Note_on_c, 0, 72, 0
2, 182616, Note_on_c, 0, 68, 0
2, 182640, Note_on_c, 0, 68, 51
2, 182640, Note_on_c, 0, 72, 51
2, 182856, Note_on_c, 0, 72, 0
2, 182856, Note_on_c, 0, 68, 0
2, 182880, Note_on_c, 0, 78, 61
2, 182880, Note_on_c, 0, 68, 61
2, 182880, Note_on_c, 0, 73, 61
2, 183120, Note_on_c, 0, 78, 0
2, 183120, Note_on_c, 0, 76, 56
2, 183600, Note_on_c, 0, 76, 0
2, 183600, Note_on_c, 0, 73, 0
2, 183600, Note_on_c, 0, 68, 0
2, 183600, Note_on_c, 0, 68, 59
2, 183600, Note_on_c, 0, 76, 59
2, 183840, Note_on_c, 0, 76, 0
2, 183840, Note_on_c, 0, 68, 0
2, 183840, Note_on_c, 0, 68, 64
2, 183840, Note_on_c, 0, 76, 64
2, 184080, Note_on_c, 0, 76, 0
2, 184080, Note_on_c, 0, 68, 0
2, 184080, Note_on_c, 0, 68, 59
2, 184080, Note_on_c, 0, 75, 59
2, 184320, Note_on_c, 0, 75, 0
2, 184320, Note_on_c, 0, 68, 0
2, 184320, Note_on_c, 0, 68, 65
2, 184320, Note_on_c, 0, 75, 65
2, 184680, Note_on_c, 0, 75, 0
2, 184680, Note_on_c, 0, 77, 52
2, 184740, Note_on_c, 0, 77, 0
2, 184740, Note_on_c, 0, 75, 49
2, 184800, Note_on_c, 0, 75, 0
2, 184800, Note_on_c, 0, 74, 52
2, 185040, Note_on_c, 0, 74, 0
2, 185040, Note_on_c, 0, 68, 0
2, 185040, Note_on_c, 0, 62, 45
2, 185040, Note_on_c, 0, 68, 45
2, 185280, Note_on_c, 0, 68, 0
2, 185280, Note_on_c, 0, 62, 0
2, 185280, Note_on_c, 0, 62, 47
2, 185280, Note_on_c, 0, 68, 47
2, 185520, Note_on_c, 0, 68, 0
2, 185520, Note_on_c, 0, 62, 0
2, 185520, Note_on_c, 0, 62, 45
2, 185520, Note_on_c, 0, 68, 45
2, 185760, Note_on_c, 0, 68, 0
2, 185760, Note_on_c, 0, 62, 0
2, 185760, Note_on_c, 0, 62, 47
2, 185760, Note_on_c, 0, 68, 47
2, 186240, Note_on_c, 0, 68, 0
2, 186240, Note_on_c, 0, 62, 0
2, 186480, Note_on_c, 0, 74, 39
2, 186480, Note_on_c, 0, 80, 39
2, 186696, Note_on_c, 0, 80, 0
2, 186696, Note_on_c, 0, 74, 0
2, 186720, Note_on_c, 0, 74, 39
2, 186720, Note_on_c, 0, 80, 39
2, 186936, Note_on_c, 0, 80, 0
2, 186936, Note_on_c, 0, 74, 0
2, 186960, Note_on_c, 0, 74, 39
2, 186960, Note_on_c, 0, 80, 39
2, 187176, Note_on_c, 0, 80, 0
2, 187176, Note_on_c, 0, 74, 0
2, 187200, Note_on_c, 0, 74, 43
2, 187200, Note_on_c, 0, 80, 43
2, 187440, Note_on_c, 0, 80, 0
2, 187440, Note_on_c, 0, 82, 34
2, 187470, Note_on_c, 0, 82, 0
2, 187470, Note_on_c, 0, 80, 36
2, 187500, Note_on_c, 0, 80, 0
2, 187500, Note_on_c, 0, 79, 39
2, 187530, Note_on_c, 0, 79, 0
2, 187530, Note_on_c, 0, 80, 41
2, 187560, Note_on_c, 0, 80, 0
2, 187560, Note_on_c, 0, 82, 40
2, 187620, Note_on_c, 0, 82, 0
2, 187620, Note_on_c, 0, 84, 37
2, 187680, Note_on_c, 0, 84, 0
2, 187680, Note_on_c, 0, 74, 0
2, 187680, Note_on_c, 0, 82, 43
2, 187800, Note_on_c, 0, 82, 0
2, 187800, Note_on_c, 0, 80, 40
2, 187920, Note_on_c, 0, 80, 0
2, 187920, Note_on_c, 0, 79, 44
2, 188040, Note_on_c, 0, 79, 0
2, 188040, Note_on_c, 0, 77, 44
2, 188160, Note_on_c, 0, 77, 0
2, 188160, Note_on_c, 0, 75, 46
2, 188280, Note_on_c, 0, 75, 0
2, 188280, Note_on_c, 0, 74, 44
2, 188400, Note_on_c, 0, 74, 0
2, 188400, Note_on_c, 0, 72, 44
2, 188520, Note_on_c, 0, 72, 0
2, 188520, Note_on_c, 0, 70, 44
2, 188630, Note_on_c, 0, 70, 0
2, 188640, Control_c, 0, 91, 127
2, 188641, Note_on_c, 0, 70, 46
2, 188641, Note_on_c, 0, 67, 46
2, 189000, Note_on_c, 0, 72, 46
2, 189001, Note_on_c, 0, 70, 0
2, 189060, Note_on_c, 0, 72, 0
2, 189060, Note_on_c, 0, 70, 46
2, 189120, Note_on_c, 0, 70, 0
2, 189120, Note_on_c, 0, 65, 44
2, 189120, Note_on_c, 0, 68, 44
2, 189121, Note_on_c, 0, 67, 0
2, 189360, Note_on_c, 0, 68, 0
2, 189360, Note_on_c, 0, 65, 0
2, 189360, Note_on_c, 0, 63, 42
2, 189360, Note_on_c, 0, 67, 42
2, 189600, Note_on_c, 0, 67, 0
2, 189600, Note_on_c, 0, 63, 0
2, 189600, Note_on_c, 0, 68, 43
2, 189600, Note_on_c, 0, 72, 43
2, 189840, Note_on_c, 0, 72, 0
2, 189840, Note_on_c, 0, 68, 0
2, 189840, Note_on_c, 0, 67, 41
2, 189840, Note_on_c, 0, 70, 41
2, 190070, Note_on_c, 0, 70, 0
2, 190070, Note_on_c, 0, 67, 0
2, 190080, Note_on_c, 0, 70, 45
2, 190080, Note_on_c, 0, 67, 45
2, 190440, Note_on_c, 0, 70, 0
2, 190440, Note_on_c, 0, 72, 42
2, 190500, Note_on_c, 0, 72, 0
2, 190500, Note_on_c, 0, 70, 42
2, 190560, Note_on_c, 0, 70, 0
2, 190560, Note_on_c, 0, 67, 0
2, 190560, Note_on_c, 0, 68, 47
2, 191040, Note_on_c, 0, 68, 0
2, 191040, Note_on_c, 0, 67, 47
2, 191640, Note_on_c, 0, 67, 0
2, 191640, Note_on_c, 0, 64, 44
2, 191760, Note_on_c, 0, 64, 0
2, 191760, Note_on_c, 0, 65, 45
2, 191880, Note_on_c, 0, 65, 0
2, 191880, Note_on_c, 0, 67, 46
2, 192000, Note_on_c, 0, 67, 0
2, 192000, Note_on_c, 0, 68, 49
2, 192120, Note_on_c, 0, 68, 0
2, 192120, Note_on_c, 0, 69, 51
2, 192240, Note_on_c, 0, 69, 0
2, 192240, Note_on_c, 0, 70, 52
2, 192360, Note_on_c, 0, 70, 0
2, 192360, Note_on_c, 0, 71, 54
2, 192480, Note_on_c, 0, 71, 0
2, 192480, Note_on_c, 0, 74, 56
2, 192540, Note_on_c, 0, 74, 0
2, 192540, Note_on_c, 0, 72, 54
2, 192600, Note_on_c, 0, 72, 0
2, 192600, Note_on_c, 0, 71, 52
2, 192660, Note_on_c, 0, 71, 0
2, 192660, Note_on_c, 0, 72, 54
2, 192720, Note_on_c, 0, 72, 0
2, 192720, Note_on_c, 0, 70, 52
2, 192780, Note_on_c, 0, 70, 0
2, 192780, Note_on_c, 0, 68, 49
2, 192840, Note_on_c, 0, 68, 0
2, 192840, Note_on_c, 0, 67, 51
2, 192900, Note_on_c, 0, 67, 0
2, 192900, Note_on_c, 0, 65, 50
2, 192960, Note_on_c, 0, 65, 0
2, 192960, Note_on_c, 0, 55, 54
2, 192960, Note_on_c, 0, 63, 54
2, 193440, Note_on_c, 0, 63, 0
2, 193440, Note_on_c, 0, 55, 0
2, 193440, Note_on_c, 0, 53, 47
2, 193440, Note_on_c, 0, 62, 47
2, 193500, Note_on_c, 0, 62, 0
2, 193500, Note_on_c, 0, 53, 0
2, 193500, Note_on_c, 0, 58, 49
2, 193560, Note_on_c, 0, 58, 0
2, 193560, Note_on_c, 0, 57, 50
2, 193620, Note_on_c, 0, 57, 0
2, 193620, Note_on_c, 0, 58, 51
2, 193680, Note_on_c, 0, 58, 0
2, 193680, Note_on_c, 0, 59, 52
2, 193740, Note_on_c, 0, 59, 0
2, 193740, Note_on_c, 0, 60, 53
2, 193800, Note_on_c, 0, 60, 0
2, 193800, Note_on_c, 0, 61, 54
2, 193860, Note_on_c, 0, 61, 0
2, 193860, Note_on_c, 0, 62, 54
2, 193920, Note_on_c, 0, 62, 0
2, 193920, Note_on_c, 0, 63, 55
2, 193980, Note_on_c, 0, 63, 0
2, 193980, Note_on_c, 0, 64, 56
2, 194040, Note_on_c, 0, 64, 0
2, 194040, Note_on_c, 0, 65, 57
2, 194100, Note_on_c, 0, 65, 0
2, 194100, Note_on_c, 0, 66, 59
2, 194160, Note_on_c, 0, 66, 0
2, 194160, Note_on_c, 0, 67, 60
2, 194220, Note_on_c, 0, 67, 0
2, 194220, Note_on_c, 0, 68, 61
2, 194280, Note_on_c, 0, 68, 0
2, 194280, Note_on_c, 0, 69, 62
2, 194340, Note_on_c, 0, 69, 0
2, 194340, Note_on_c, 0, 70, 63
2, 194390, Note_on_c, 0, 70, 0
2, 194400, Note_on_c, 0, 67, 63
2, 194400, Note_on_c, 0, 70, 63
2, 194760, Note_on_c, 0, 70, 0
2, 194760, Note_on_c, 0, 72, 57
2, 194820, Note_on_c, 0, 72, 0
2, 194820, Note_on_c, 0, 70, 53
2, 194880, Note_on_c, 0, 70, 0
2, 194880, Note_on_c, 0, 67, 0
2, 194880, Note_on_c, 0, 68, 55
2, 194940, Note_on_c, 0, 68, 0
2, 194940, Note_on_c, 0, 67, 54
2, 195000, Note_on_c, 0, 67, 0
2, 195000, Note_on_c, 0, 72, 56
2, 195060, Note_on_c, 0, 72, 0
2, 195060, Note_on_c, 0, 70, 53
2, 195120, Note_on_c, 0, 70, 0
2, 195120, Note_on_c, 0, 75, 57
2, 195180, Note_on_c, 0, 75, 0
2, 195180, Note_on_c, 0, 74, 55
2, 195240, Note_on_c, 0, 74, 0
2, 195240, Note_on_c, 0, 77, 61
2, 195300, Note_on_c, 0, 77, 0
2, 195300, Note_on_c, 0, 75, 55
2, 195360, Note_on_c, 0, 75, 0
2, 195360, Note_on_c, 0, 80, 63
2, 195420, Note_on_c, 0, 80, 0
2, 195420, Note_on_c, 0, 79, 59
2, 195480, Note_on_c, 0, 79, 0
2, 195480, Note_on_c, 0, 78, 61
2, 195540, Note_on_c, 0, 78, 0
2, 195540, Note_on_c, 0, 79, 61
2, 195600, Note_on_c, 0, 79, 0
2, 195600, Note_on_c, 0, 77, 61
2, 195660, Note_on_c, 0, 77, 0
2, 195660, Note_on_c, 0, 75, 59
2, 195720, Note_on_c, 0, 75, 0
2, 195720, Note_on_c, 0, 74, 57
2, 195780, Note_on_c, 0, 74, 0
2, 195780, Note_on_c, 0, 72, 55
2, 195840, Note_on_c, 0, 72, 0
2, 195840, Note_on_c, 0, 70, 60
2, 196080, Note_on_c, 0, 70, 0
2, 196080, Note_on_c, 0, 69, 63
2, 196560, Note_on_c, 0, 69, 0
2, 196560, Note_on_c, 0, 68, 63
2, 196920, Note_on_c, 0, 68, 0
2, 196920, Note_on_c, 0, 67, 66
2, 197040, Note_on_c, 0, 67, 0
2, 197040, Note_on_c, 0, 75, 68
2, 197160, Note_on_c, 0, 75, 0
2, 197160, Note_on_c, 0, 73, 64
2, 197280, Note_on_c, 0, 73, 0
2, 197280, Note_on_c, 0, 71, 67
2, 197400, Note_on_c, 0, 71, 0
2, 197400, Note_on_c, 0, 72, 64
2, 197520, Note_on_c, 0, 72, 0
2, 197520, Note_on_c, 0, 74, 69
2, 197640, Note_on_c, 0, 74, 0
2, 197640, Note_on_c, 0, 75, 64
2, 197750, Note_on_c, 0, 75, 0
2, 197760, Note_on_c, 0, 75, 70
2, 198000, Note_on_c, 0, 75, 0
2, 198000, Note_on_c, 0, 70, 66
2, 198360, Note_on_c, 0, 70, 0
2, 198360, Note_on_c, 0, 72, 54
2, 198420, Note_on_c, 0, 72, 0
2, 198420, Note_on_c, 0, 70, 50
2, 198470, Note_on_c, 0, 70, 0
2, 198480, Note_on_c, 0, 70, 53
2, 198540, Note_on_c, 0, 70, 0
2, 198540, Note_on_c, 0, 68, 45
2, 198600, Note_on_c, 0, 68, 0
2, 198600, Note_on_c, 0, 67, 51
2, 198660, Note_on_c, 0, 67, 0
2, 198660, Note_on_c, 0, 65, 45
2, 198720, Note_on_c, 0, 65, 0
2, 198720, Note_on_c, 0, 63, 46
2, 199200, Note_on_c, 0, 63, 0
2, 199440, Note_on_c, 0, 67, 46
2, 199440, Note_on_c, 0, 70, 46
2, 199680, Note_on_c, 0, 70, 0
2, 199680, Note_on_c, 0, 67, 0
2, 199680, Note_on_c, 0, 67, 50
2, 199680, Note_on_c, 0, 70, 50
2, 199920, Note_on_c, 0, 70, 0
2, 199920, Note_on_c, 0, 67, 0
2, 199920, Note_on_c, 0, 67, 46
2, 199920, Note_on_c, 0, 70, 46
2, 200160, Note_on_c, 0, 70, 0
2, 200160, Note_on_c, 0, 67, 0
2, 200160, Note_on_c, 0, 68, 54
2, 200160, Note_on_c, 0, 75, 54
2, 200400, Note_on_c, 0, 75, 0
2, 200400, Note_on_c, 0, 74, 46
2, 200880, Note_on_c, 0, 74, 0
2, 200880, Note_on_c, 0, 68, 0
2, 200880, Note_on_c, 0, 82, 50
2, 201000, Note_on_c, 0, 82, 0
2, 201000, Note_on_c, 0, 80, 47
2, 201120, Note_on_c, 0, 80, 0
2, 201120, Note_on_c, 0, 79, 52
2, 201240, Note_on_c, 0, 79, 0
2, 201240, Note_on_c, 0, 77, 47
2, 201360, Note_on_c, 0, 77, 0
2, 201360, Note_on_c, 0, 75, 49
2, 201480, Note_on_c, 0, 75, 0
2, 201480, Note_on_c, 0, 74, 45
2, 201600, Note_on_c, 0, 74, 0
2, 201600, Note_on_c, 0, 77, 54
2, 201640, Note_on_c, 0, 77, 0
2, 201640, Note_on_c, 0, 75, 52
2, 201940, Note_on_c, 0, 75, 0
2, 201960, Note_on_c, 0, 74, 49
2, 202020, Note_on_c, 0, 74, 0
2, 202020, Note_on_c, 0, 72, 45
2, 202080, Note_on_c, 0, 72, 0
2, 202080, Note_on_c, 0, 70, 50
2, 202310, Note_on_c, 0, 70, 0
2, 202320, Note_on_c, 0, 67, 49
2, 202320, Note_on_c, 0, 70, 49
2, 202536, Note_on_c, 0, 70, 0
2, 202536, Note_on_c, 0, 67, 0
2, 202560, Note_on_c, 0, 67, 53
2, 202560, Note_on_c, 0, 70, 53
2, 202776, Note_on_c, 0, 70, 0
2, 202776, Note_on_c, 0, 67, 0
2, 202800, Note_on_c, 0, 67, 49
2, 202800, Note_on_c, 0, 70, 49
2, 203016, Note_on_c, 0, 70, 0
2, 203016, Note_on_c, 0, 67, 0
2, 203040, Note_on_c, 0, 68, 62
2, 203040, Note_on_c, 0, 75, 62
2, 203160, Note_on_c, 0, 75, 0
2, 203160, Note_on_c, 0, 74, 55
2, 203280, Note_on_c, 0, 74, 0
2, 203280, Note_on_c, 0, 68, 0
2, 203280, Note_on_c, 0, 84, 60
2, 203760, Note_on_c, 0, 84, 0
2, 203760, Note_on_c, 0, 82, 50
2, 203820, Note_on_c, 0, 82, 0
2, 203820, Note_on_c, 0, 80, 49
2, 203880, Note_on_c, 0, 80, 0
2, 203880, Note_on_c, 0, 84, 52
2, 203940, Note_on_c, 0, 84, 0
2, 203940, Note_on_c, 0, 80, 49
2, 204000, Note_on_c, 0, 80, 0
2, 204000, Note_on_c, 0, 79, 51
2, 204060, Note_on_c, 0, 79, 0
2, 204060, Note_on_c, 0, 77, 49
2, 204120, Note_on_c, 0, 77, 0
2, 204120, Note_on_c, 0, 80, 51
2, 204180, Note_on_c, 0, 80, 0
2, 204180, Note_on_c, 0, 77, 49
2, 204240, Note_on_c, 0, 77, 0
2, 204240, Note_on_c, 0, 75, 51
2, 204300, Note_on_c, 0, 75, 0
2, 204300, Note_on_c, 0, 74, 49
2, 204360, Note_on_c, 0, 74, 0
2, 204360, Note_on_c, 0, 77, 52
2, 204420, Note_on_c, 0, 77, 0
2, 204420, Note_on_c, 0, 74, 49
2, 204480, Note_on_c, 0, 74, 0
2, 204480, Note_on_c, 0, 75, 54
2, 204540, Note_on_c, 0, 75, 0
2, 204540, Note_on_c, 0, 77, 52
2, 204600, Note_on_c, 0, 77, 0
2, 204600, Note_on_c, 0, 75, 52
2, 204660, Note_on_c, 0, 75, 0
2, 204660, Note_on_c, 0, 74, 52
2, 204720, Note_on_c, 0, 74, 0
2, 204720, Note_on_c, 0, 75, 50
2, 204760, Note_on_c, 0, 75, 0
2, 204760, Note_on_c, 0, 76, 47
2, 204800, Note_on_c, 0, 76, 0
2, 204800, Note_on_c, 0, 77, 50
2, 204840, Note_on_c, 0, 77, 0
2, 204840, Note_on_c, 0, 78, 53
2, 204900, Note_on_c, 0, 78, 0
2, 204900, Note_on_c, 0, 79, 54
2, 204960, Note_on_c, 0, 79, 0
2, 204960, Note_on_c, 0, 70, 50
2, 205200, Note_on_c, 0, 70, 0
2, 205200, Note_on_c, 0, 67, 45
2, 205200, Note_on_c, 0, 70, 45
2, 205440, Note_on_c, 0, 70, 0
2, 205440, Note_on_c, 0, 67, 0
2, 205440, Note_on_c, 0, 65, 47
2, 205440, Note_on_c, 0, 68, 47
2, 205680, Note_on_c, 0, 68, 0
2, 205680, Note_on_c, 0, 65, 0
2, 205680, Note_on_c, 0, 63, 51
2, 205680, Note_on_c, 0, 67, 51
2, 205910, Note_on_c, 0, 67, 0
2, 205910, Note_on_c, 0, 63, 0
2, 205920, Note_on_c, 0, 63, 58
2, 205920, Note_on_c, 0, 70, 58
2, 206040, Note_on_c, 0, 70, 0
2, 206040, Note_on_c, 0, 69, 49
2, 206160, Note_on_c, 0, 69, 0
2, 206160, Note_on_c, 0, 70, 53
2, 206280, Note_on_c, 0, 70, 0
2, 206280, Note_on_c, 0, 67, 42
2, 206400, Note_on_c, 0, 67, 0
2, 206400, Note_on_c, 0, 63, 0
2, 206400, Note_on_c, 0, 62, 38
2, 206400, Note_on_c, 0, 65, 38
2, 206880, Note_on_c, 0, 65, 0
2, 206880, Note_on_c, 0, 62, 0
2, 207300, Note_on_c, 0, 70, 67
2, 207360, Note_on_c, 0, 70, 0
2, 207360, Note_on_c, 0, 82, 73
2, 208080, Note_on_c, 0, 82, 0
2, 208080, Note_on_c, 0, 80, 70
2, 208140, Note_on_c, 0, 80, 0
2, 208140, Note_on_c, 0, 79, 66
2, 208200, Note_on_c, 0, 79, 0
2, 208200, Note_on_c, 0, 77, 70
2, 208260, Note_on_c, 0, 77, 0
2, 208260, Note_on_c, 0, 75, 64
2, 208320, Note_on_c, 0, 75, 0
2, 208320, Note_on_c, 0, 74, 74
2, 208560, Note_on_c, 0, 74, 0
2, 208560, Note_on_c, 0, 75, 72
2, 208800, Note_on_c, 0, 75, 0
2, 208800, Note_on_c, 0, 74, 67
2, 208800, Note_on_c, 0, 77, 67
2, 209040, Note_on_c, 0, 77, 0
2, 209040, Note_on_c, 0, 74, 0
2, 209040, Note_on_c, 0, 80, 69
2, 209040, Note_on_c, 0, 75, 69
2, 209100, Note_on_c, 0, 80, 0
2, 209100, Note_on_c, 0, 79, 65
2, 209160, Note_on_c, 0, 79, 0
2, 209160, Note_on_c, 0, 77, 66
2, 209220, Note_on_c, 0, 77, 0
2, 209220, Note_on_c, 0, 79, 65
2, 209280, Note_on_c, 0, 79, 0
2, 209280, Note_on_c, 0, 75, 0
2, 209280, Note_on_c, 0, 77, 70
2, 209280, Note_on_c, 0, 80, 70
2, 209520, Note_on_c, 0, 80, 0
2, 209520, Note_on_c, 0, 77, 0
2, 209520, Note_on_c, 0, 70, 57
2, 209736, Note_on_c, 0, 70, 0
2, 209760, Note_on_c, 0, 70, 59
2, 209976, Note_on_c, 0, 70, 0
2, 210000, Note_on_c, 0, 70, 59
2, 210216, Note_on_c, 0, 70, 0
2, 210240, Note_on_c, 0, 80, 72
2, 210960, Note_on_c, 0, 80, 0
2, 210960, Note_on_c, 0, 82, 69
2, 211020, Note_on_c, 0, 82, 0
2, 211020, Note_on_c, 0, 80, 65
2, 211080, Note_on_c, 0, 80, 0
2, 211080, Note_on_c, 0, 79, 69
2, 211140, Note_on_c, 0, 79, 0
2, 211140, Note_on_c, 0, 77, 64
2, 211200, Note_on_c, 0, 77, 0
2, 211200, Note_on_c, 0, 75, 73
2, 211440, Note_on_c, 0, 75, 0
2, 211440, Note_on_c, 0, 74, 70
2, 211440, Note_on_c, 0, 77, 70
2, 211680, Note_on_c, 0, 77, 0
2, 211680, Note_on_c, 0, 74, 0
2, 211680, Note_on_c, 0, 75, 71
2, 211680, Note_on_c, 0, 79, 71
2, 211920, Note_on_c, 0, 79, 0
2, 211920, Note_on_c, 0, 75, 0
2, 211920, Note_on_c, 0, 82, 67
2, 211920, Note_on_c, 0, 77, 67
2, 211980, Note_on_c, 0, 82, 0
2, 211980, Note_on_c, 0, 80, 63
2, 212040, Note_on_c, 0, 80, 0
2, 212040, Note_on_c, 0, 79, 67
2, 212100, Note_on_c, 0, 79, 0
2, 212100, Note_on_c, 0, 80, 64
2, 212160, Note_on_c, 0, 80, 0
2, 212160, Note_on_c, 0, 77, 0
2, 212160, Note_on_c, 0, 79, 72
2, 212160, Note_on_c, 0, 82, 72
2, 212280, Note_on_c, 0, 82, 0
2, 212280, Note_on_c, 0, 79, 0
2, 213120, Note_on_c, 0, 73, 83
2, 213720, Note_on_c, 0, 73, 0
2, 213720, Note_on_c, 0, 75, 62
2, 213750, Note_on_c, 0, 75, 0
2, 213750, Note_on_c, 0, 73, 58
2, 213780, Note_on_c, 0, 73, 0
2, 213780, Note_on_c, 0, 72, 62
2, 213810, Note_on_c, 0, 72, 0
2, 213810, Note_on_c, 0, 73, 59
2, 213840, Note_on_c, 0, 73, 0
2, 213840, Note_on_c, 0, 75, 67
2, 213960, Note_on_c, 0, 75, 0
2, 213960, Note_on_c, 0, 77, 67
2, 214080, Note_on_c, 0, 77, 0
2, 214080, Note_on_c, 0, 75, 67
2, 214200, Note_on_c, 0, 75, 0
2, 214200, Note_on_c, 0, 73, 60
2, 214320, Note_on_c, 0, 73, 0
2, 214320, Note_on_c, 0, 72, 67
2, 214440, Note_on_c, 0, 72, 0
2, 214440, Note_on_c, 0, 71, 61
2, 214550, Note_on_c, 0, 71, 0
2, 214560, Note_on_c, 0, 71, 70
2, 215160, Note_on_c, 0, 71, 0
2, 215160, Note_on_c, 0, 72, 67
2, 215280, Note_on_c, 0, 72, 0
2, 215280, Note_on_c, 0, 75, 69
2, 215400, Note_on_c, 0, 75, 0
2, 215400, Note_on_c, 0, 74, 69
2, 215520, Note_on_c, 0, 74, 0
2, 215520, Note_on_c, 0, 77, 69
2, 215640, Note_on_c, 0, 77, 0
2, 215640, Note_on_c, 0, 75, 64
2, 215760, Note_on_c, 0, 75, 0
2, 215760, Note_on_c, 0, 74, 68
2, 215880, Note_on_c, 0, 74, 0
2, 215880, Note_on_c, 0, 72, 61
2, 216000, Note_on_c, 0, 72, 0
2, 216000, Note_on_c, 0, 70, 59
2, 216080, Note_on_c, 0, 71, 60
2, 216100, Note_on_c, 0, 70, 0
2, 216160, Note_on_c, 0, 72, 62
2, 216180, Note_on_c, 0, 71, 0
2, 216240, Note_on_c, 0, 73, 66
2, 216260, Note_on_c, 0, 72, 0
2, 216320, Note_on_c, 0, 74, 68
2, 216340, Note_on_c, 0, 73, 0
2, 216400, Note_on_c, 0, 75, 69
2, 216420, Note_on_c, 0, 74, 0
2, 216480, Note_on_c, 0, 75, 0
2, 216480, Note_on_c, 0, 75, 60
2, 216540, Note_on_c, 0, 75, 0
2, 216540, Note_on_c, 0, 63, 73
2, 216960, Note_on_c, 0, 63, 0
2, 216960, Note_on_c, 0, 67, 59
2, 216960, Note_on_c, 0, 62, 59
2, 217080, Note_on_c, 0, 67, 0
2, 217080, Note_on_c, 0, 65, 64
2, 217200, Note_on_c, 0, 65, 0
2, 217200, Note_on_c, 0, 63, 64
2, 217320, Note_on_c, 0, 63, 0
2, 217320, Note_on_c, 0, 65, 59
2, 217440, Note_on_c, 0, 65, 0
2, 217440, Note_on_c, 0, 62, 0
2, 217440, Note_on_c, 0, 63, 55
2, 217920, Note_on_c, 0, 63, 0
2, 218160, Note_on_c, 0, 63, 75
2, 218160, Note_on_c, 0, 70, 75
2, 218376, Note_on_c, 0, 70, 0
2, 218376, Note_on_c, 0, 63, 0
2, 218400, Note_on_c, 0, 65, 80
2, 218400, Note_on_c, 0, 70, 59
2, 218616, Note_on_c, 0, 70, 0
2, 218616, Note_on_c, 0, 65, 0
2, 218640, Note_on_c, 0, 67, 75
2, 218640, Note_on_c, 0, 70, 75
2, 218856, Note_on_c, 0, 70, 0
2, 218856, Note_on_c, 0, 67, 0
2, 218880, Note_on_c, 0, 70, 80
2, 218880, Note_on_c, 0, 68, 63
2, 219180, Note_on_c, 0, 70, 0
2, 219180, Note_on_c, 0, 72, 76
2, 219240, Note_on_c, 0, 72, 0
2, 219240, Note_on_c, 0, 70, 70
2, 219300, Note_on_c, 0, 70, 0
2, 219300, Note_on_c, 0, 69, 69
2, 219360, Note_on_c, 0, 69, 0
2, 219360, Note_on_c, 0, 70, 79
2, 219480, Note_on_c, 0, 70, 0
2, 219600, Note_on_c, 0, 68, 0
2, 219600, Note_on_c, 0, 62, 74
2, 219600, Note_on_c, 0, 70, 74
2, 219840, Note_on_c, 0, 70, 0
2, 219840, Note_on_c, 0, 62, 0
2, 219840, Note_on_c, 0, 63, 76
2, 219840, Note_on_c, 0, 72, 76
2, 220080, Note_on_c, 0, 72, 0
2, 220080, Note_on_c, 0, 63, 0
2, 220080, Note_on_c, 0, 65, 72
2, 220080, Note_on_c, 0, 74, 72
2, 220320, Note_on_c, 0, 74, 0
2, 220320, Note_on_c, 0, 65, 0
2, 220320, Note_on_c, 0, 75, 81
2, 220320, Note_on_c, 0, 63, 81
2, 220620, Note_on_c, 0, 75, 0
2, 220620, Note_on_c, 0, 77, 70
2, 220680, Note_on_c, 0, 77, 0
2, 220680, Note_on_c, 0, 79, 72
2, 220740, Note_on_c, 0, 79, 0
2, 220740, Note_on_c, 0, 75, 66
2, 220800, Note_on_c, 0, 75, 0
2, 220800, Note_on_c, 0, 70, 69
2, 220920, Note_on_c, 0, 70, 0
2, 221040, Note_on_c, 0, 63, 0
2, 221040, Note_on_c, 0, 67, 52
2, 221040, Note_on_c, 0, 70, 52
2, 221280, Note_on_c, 0, 70, 0
2, 221280, Note_on_c, 0, 67, 0
2, 221280, Note_on_c, 0, 65, 54
2, 221280, Note_on_c, 0, 68, 54
2, 221520, Note_on_c, 0, 68, 0
2, 221520, Note_on_c, 0, 65, 0
2, 221520, Note_on_c, 0, 63, 52
2, 221520, Note_on_c, 0, 67, 52
2, 221760, Note_on_c, 0, 67, 0
2, 221760, Note_on_c, 0, 63, 0
2, 221760, Note_on_c, 0, 65, 57
2, 222060, Note_on_c, 0, 65, 0
2, 222060, Note_on_c, 0, 67, 50
2, 222120, Note_on_c, 0, 67, 0
2, 222120, Note_on_c, 0, 68, 52
2, 222180, Note_on_c, 0, 68, 0
2, 222180, Note_on_c, 0, 65, 50
2, 222240, Note_on_c, 0, 65, 0
2, 222240, Note_on_c, 0, 72, 56
2, 222360, Note_on_c, 0, 72, 0
2, 222480, Note_on_c, 0, 60, 46
2, 222480, Note_on_c, 0, 65, 46
2, 222720, Note_on_c, 0, 65, 0
2, 222720, Note_on_c, 0, 60, 0
2, 222720, Note_on_c, 0, 58, 49
2, 222720, Note_on_c, 0, 63, 49
2, 222960, Note_on_c, 0, 63, 0
2, 222960, Note_on_c, 0, 58, 0
2, 222960, Note_on_c, 0, 62, 46
2, 222960, Note_on_c, 0, 65, 46
2, 223190, Note_on_c, 0, 65, 0
2, 223190, Note_on_c, 0, 62, 0
2, 223200, Note_on_c, 0, 62, 54
2, 223200, Note_on_c, 0, 65, 54
2, 223560, Note_on_c, 0, 65, 0
2, 223560, Note_on_c, 0, 66, 50
2, 223680, Note_on_c, 0, 66, 0
2, 223680, Note_on_c, 0, 62, 0
2, 223680, Note_on_c, 0, 63, 45
2, 223680, Note_on_c, 0, 67, 45
2, 223920, Note_on_c, 0, 67, 0
2, 223920, Note_on_c, 0, 63, 0
2, 223920, Note_on_c, 0, 75, 76
2, 223920, Note_on_c, 0, 82, 76
2, 224136, Note_on_c, 0, 82, 0
2, 224136, Note_on_c, 0, 75, 0
2, 224160, Note_on_c, 0, 77, 77
2, 224160, Note_on_c, 0, 82, 77
2, 224376, Note_on_c, 0, 82, 0
2, 224376, Note_on_c, 0, 77, 0
2, 224400, Note_on_c, 0, 79, 76
2, 224400, Note_on_c, 0, 82, 76
2, 224616, Note_on_c, 0, 82, 0
2, 224616, Note_on_c, 0, 79, 0
2, 224640, Note_on_c, 0, 82, 81
2, 224640, Note_on_c, 0, 80, 81
2, 224940, Note_on_c, 0, 82, 0
2, 224940, Note_on_c, 0, 84, 73
2, 225000, Note_on_c, 0, 84, 0
2, 225000, Note_on_c, 0, 82, 69
2, 225060, Note_on_c, 0, 82, 0
2, 225060, Note_on_c, 0, 81, 70
2, 225120, Note_on_c, 0, 81, 0
2, 225120, Note_on_c, 0, 82, 78
2, 225240, Note_on_c, 0, 82, 0
2, 225360, Note_on_c, 0, 80, 0
2, 225360, Note_on_c, 0, 74, 76
2, 225360, Note_on_c, 0, 82, 76
2, 225600, Note_on_c, 0, 82, 0
2, 225600, Note_on_c, 0, 74, 0
2, 225600, Note_on_c, 0, 75, 80
2, 225600, Note_on_c, 0, 84, 80
2, 225840, Note_on_c, 0, 84, 0
2, 225840, Note_on_c, 0, 75, 0
2, 225840, Note_on_c, 0, 77, 75
2, 225840, Note_on_c, 0, 86, 75
2, 226080, Note_on_c, 0, 86, 0
2, 226080, Note_on_c, 0, 77, 0
2, 226080, Note_on_c, 0, 87, 86
2, 226080, Note_on_c, 0, 75, 86
2, 226380, Note_on_c, 0, 87, 0
2, 226380, Note_on_c, 0, 86, 68
2, 226440, Note_on_c, 0, 86, 0
2, 226440, Note_on_c, 0, 87, 70
2, 226500, Note_on_c, 0, 87, 0
2, 226500, Note_on_c, 0, 82, 66
2, 226560, Note_on_c, 0, 82, 0
2, 226560, Note_on_c, 0, 79, 61
2, 226680, Note_on_c, 0, 79, 0
2, 226800, Note_on_c, 0, 75, 0
2, 226800, Note_on_c, 0, 79, 54
2, 226800, Note_on_c, 0, 82, 54
2, 227040, Note_on_c, 0, 82, 0
2, 227040, Note_on_c, 0, 79, 0
2, 227040, Note_on_c, 0, 77, 54
2, 227040, Note_on_c, 0, 80, 54
2, 227280, Note_on_c, 0, 80, 0
2, 227280, Note_on_c, 0, 77, 0
2, 227280, Note_on_c, 0, 75, 54
2, 227280, Note_on_c, 0, 79, 54
2, 227520, Note_on_c, 0, 79, 0
2, 227520, Note_on_c, 0, 75, 0
2, 227520, Note_on_c, 0, 76, 51
2, 227580, Note_on_c, 0, 76, 0
2, 227580, Note_on_c, 0, 77, 50
2, 227640, Note_on_c, 0, 77, 0
2, 227640, Note_on_c, 0, 79, 56
2, 227700, Note_on_c, 0, 79, 0
2, 227700, Note_on_c, 0, 77, 55
2, 227760, Note_on_c, 0, 77, 0
2, 227760, Note_on_c, 0, 80, 59
2, 227820, Note_on_c, 0, 80, 0
2, 227820, Note_on_c, 0, 79, 58
2, 227880, Note_on_c, 0, 79, 0
2, 227880, Note_on_c, 0, 82, 62
2, 227940, Note_on_c, 0, 82, 0
2, 227940, Note_on_c, 0, 80, 60
2, 228000, Note_on_c, 0, 80, 0
2, 228000, Note_on_c, 0, 84, 66
2, 228480, Note_on_c, 0, 84, 0
2, 228480, Note_on_c, 0, 82, 59
2, 228720, Note_on_c, 0, 82, 0
2, 228900, Note_on_c, 0, 74, 53
2, 228960, Note_on_c, 0, 74, 0
2, 228960, Note_on_c, 0, 75, 56
2, 229440, Note_on_c, 0, 75, 0
2, 229680, Note_on_c, 0, 85, 69
2, 229920, Note_on_c, 0, 85, 0
2, 229920, Note_on_c, 0, 84, 72
2, 230160, Note_on_c, 0, 84, 0
2, 230160, Note_on_c, 0, 86, 75
2, 230400, Note_on_c, 0, 86, 0
2, 230400, Note_on_c, 0, 89, 81
2, 230640, Note_on_c, 0, 89, 0
2, 230640, Note_on_c, 0, 87, 78
2, 230880, Note_on_c, 0, 87, 0
2, 231120, Note_on_c, 0, 73, 72
2, 231360, Note_on_c, 0, 73, 0
2, 231360, Note_on_c, 0, 72, 74
2, 231600, Note_on_c, 0, 72, 0
2, 231600, Note_on_c, 0, 68, 69
2, 231600, Note_on_c, 0, 74, 69
2, 231840, Note_on_c, 0, 74, 0
2, 231840, Note_on_c, 0, 68, 0
2, 231840, Note_on_c, 0, 77, 54
2, 231840, Note_on_c, 0, 68, 54
2, 232320, Note_on_c, 0, 68, 0
2, 232320, Note_on_c, 0, 77, 0
2, 232320, Note_on_c, 0, 67, 42
2, 232320, Note_on_c, 0, 75, 42
2, 232560, Note_on_c, 0, 75, 0
2, 232560, Note_on_c, 0, 67, 0
2, 232560, Note_on_c, 0, 62, 41
2, 232560, Note_on_c, 0, 65, 41
2, 232800, Note_on_c, 0, 65, 0
2, 232800, Note_on_c, 0, 62, 0
2, 232800, Note_on_c, 0, 63, 46
2, 232800, Note_on_c, 0, 67, 46
2, 233040, Note_on_c, 0, 67, 0
2, 233040, Note_on_c, 0, 63, 0
2, 233040, Note_on_c, 0, 65, 45
2, 233040, Note_on_c, 0, 68, 45
2, 233280, Note_on_c, 0, 68, 0
2, 233280, Note_on_c, 0, 65, 0
2, 233280, Note_on_c, 0, 62, 34
2, 233280, Note_on_c, 0, 65, 37
2, 233280, Note_on_c, 0, 68, 37
2, 234240, Note_on_c, 0, 68, 0
2, 234240, Note_on_c, 0, 65, 0
2, 234240, Note_on_c, 0, 62, 0
2, 234240, Note_on_c, 0, 63, 36
2, 234240, Note_on_c, 0, 67, 36
2, 234480, Note_on_c, 0, 67, 0
2, 234480, Note_on_c, 0, 63, 0
2, 234480, End_track
3, 0, Start_track
3, 0, Title_t, "Piano left"
3, 0, Program_c, 0, 0
3, 0, Control_c, 0, 7, 100
3, 0, Control_c, 0, 10, 64
3, 0, Control_c, 0, 91, 127
3, 1, Note_on_c, 0, 51, 51
3, 961, Note_on_c, 0, 51, 0
3, 1440, Note_on_c, 0, 51, 50
3, 1920, Note_on_c, 0, 51, 0
3, 1920, Note_on_c, 0, 53, 46
3, 2400, Note_on_c, 0, 53, 0
3, 2400, Note_on_c, 0, 55, 45
3, 2880, Note_on_c, 0, 55, 0
3, 2880, Note_on_c, 0, 58, 55
3, 2880, Note_on_c, 0, 61, 55
3, 3360, Note_on_c, 0, 61, 0
3, 3360, Note_on_c, 0, 58, 0
3, 3360, Note_on_c, 0, 60, 51
3, 3360, Note_on_c, 0, 56, 51
3, 3840, Note_on_c, 0, 56, 0
3, 3840, Note_on_c, 0, 60, 0
3, 4320, Note_on_c, 0, 45, 47
3, 4440, Note_on_c, 0, 45, 0
3, 4440, Note_on_c, 0, 46, 50
3, 4560, Note_on_c, 0, 46, 0
3, 4560, Note_on_c, 0, 48, 53
3, 4680, Note_on_c, 0, 48, 0
3, 4680, Note_on_c, 0, 46, 51
3, 4790, Note_on_c, 0, 46, 0
3, 4800, Note_on_c, 0, 46, 49
3, 5280, Note_on_c, 0, 46, 0
3, 5760, Note_on_c, 0, 39, 53
3, 5760, Note_on_c, 0, 51, 53
3, 6240, Note_on_c, 0, 51, 0
3, 6240, Note_on_c, 0, 39, 0
3, 6720, Note_on_c, 0, 51, 49
3, 6720, Note_on_c, 0, 60, 49
3, 7200, Note_on_c, 0, 60, 0
3, 7200, Note_on_c, 0, 51, 0
3, 7200, Note_on_c, 0, 60, 53
3, 7200, Note_on_c, 0, 53, 53
3, 7680, Note_on_c, 0, 53, 0
3, 7680, Note_on_c, 0, 60, 0
3, 7680, Note_on_c, 0, 58, 50
3, 7680, Note_on_c, 0, 62, 50
3, 8160, Note_on_c, 0, 62, 0
3, 8160, Note_on_c, 0, 58, 0
3, 8160, Note_on_c, 0, 60, 49
3, 8160, Note_on_c, 0, 63, 49
3, 8400, Note_on_c, 0, 63, 0
3, 8400, Note_on_c, 0, 60, 0
3, 8640, Note_on_c, 0, 44, 54
3, 8640, Note_on_c, 0, 56, 54
3, 9120, Note_on_c, 0, 56, 0
3, 9120, Note_on_c, 0, 44, 0
3, 9120, Note_on_c, 0, 46, 50
3, 9120, Note_on_c, 0, 55, 50
3, 9600, Note_on_c, 0, 55, 0
3, 9600, Note_on_c, 0, 56, 40
3, 10080, Note_on_c, 0, 56, 0
3, 10080, Note_on_c, 0, 46, 0
3, 10080, Note_on_c, 0, 51, 32
3, 10200, Note_on_c, 0, 51, 0
3, 10200, Note_on_c, 0, 55, 32
3, 10320, Note_on_c, 0, 55, 0
3, 10320, Note_on_c, 0, 58, 30
3, 10440, Note_on_c, 0, 58, 0
3, 10440, Note_on_c, 0, 55, 27
3, 10560, Note_on_c, 0, 55, 0
3, 10560, Note_on_c, 0, 51, 33
3, 10680, Note_on_c, 0, 51, 0
3, 10680, Note_on_c, 0, 55, 29
3, 10800, Note_on_c, 0, 55, 0
3, 10800, Note_on_c, 0, 58, 31
3, 10920, Note_on_c, 0, 58, 0
3, 10920, Note_on_c, 0, 55, 29
3, 11040, Note_on_c, 0, 55, 0
3, 11040, Note_on_c, 0, 51, 33
3, 11160, Note_on_c, 0, 51, 0
3, 11160, Note_on_c, 0, 55, 29
3, 11280, Note_on_c, 0, 55, 0
3, 11280, Note_on_c, 0, 58, 31
3, 11400, Note_on_c, 0, 58, 0
3, 11400, Note_on_c, 0, 55, 29
3, 11520, Note_on_c, 0, 55, 0
3, 11520, Note_on_c, 0, 51, 36
3, 11640, Note_on_c, 0, 51, 0
3, 11640, Note_on_c, 0, 53, 27
3, 11760, Note_on_c, 0, 53, 0
3, 11760, Note_on_c, 0, 56, 30
3, 11880, Note_on_c, 0, 56, 0
3, 11880, Note_on_c, 0, 53, 27
3, 12000, Note_on_c, 0, 53, 0
3, 12000, Note_on_c, 0, 51, 32
3, 12120, Note_on_c, 0, 51, 0
3, 12120, Note_on_c, 0, 53, 27
3, 12240, Note_on_c, 0, 53, 0
3, 12240, Note_on_c, 0, 56, 30
3, 12360, Note_on_c, 0, 56, 0
3, 12360, Note_on_c, 0, 53, 27
3, 12480, Note_on_c, 0, 53, 0
3, 12480, Note_on_c, 0, 51, 32
3, 12600, Note_on_c, 0, 51, 0
3, 12600, Note_on_c, 0, 53, 27
3, 12720, Note_on_c, 0, 53, 0
3, 12720, Note_on_c, 0, 56, 30
3, 12840, Note_on_c, 0, 56, 0
3, 12840, Note_on_c, 0, 53, 27
3, 12960, Note_on_c, 0, 53, 0
3, 12960, Note_on_c, 0, 51, 33
3, 13080, Note_on_c, 0, 51, 0
3, 13080, Note_on_c, 0, 55, 27
3, 13200, Note_on_c, 0, 55, 0
3, 13200, Note_on_c, 0, 58, 30
3, 13320, Note_on_c, 0, 58, 0
3, 13320, Note_on_c, 0, 55, 27
3, 13440, Note_on_c, 0, 55, 0
3, 13440, Note_on_c, 0, 51, 29
3, 13560, Note_on_c, 0, 51, 0
3, 13560, Note_on_c, 0, 55, 27
3, 13680, Note_on_c, 0, 55, 0
3, 13680, Note_on_c, 0, 58, 30
3, 13800, Note_on_c, 0, 58, 0
3, 13800, Note_on_c, 0, 55, 27
3, 13920, Note_on_c, 0, 55, 0
3, 13920, Note_on_c, 0, 51, 29
3, 14040, Note_on_c, 0, 51, 0
3, 14040, Note_on_c, 0, 55, 27
3, 14160, Note_on_c, 0, 55, 0
3, 14160, Note_on_c, 0, 58, 30
3, 14280, Note_on_c, 0, 58, 0
3, 14280, Note_on_c, 0, 55, 27
3, 14400, Note_on_c, 0, 55, 0
3, 14400, Note_on_c, 0, 51, 35
3, 14520, Note_on_c, 0, 51, 0
3, 14520, Note_on_c, 0, 53, 29
3, 14640, Note_on_c, 0, 53, 0
3, 14640, Note_on_c, 0, 56, 30
3, 14760, Note_on_c, 0, 56, 0
3, 14760, Note_on_c, 0, 53, 29
3, 14880, Note_on_c, 0, 53, 0
3, 14880, Note_on_c, 0, 51, 32
3, 15000, Note_on_c, 0, 51, 0
3, 15000, Note_on_c, 0, 53, 27
3, 15120, Note_on_c, 0, 53, 0
3, 15120, Note_on_c, 0, 56, 27
3, 15240, Note_on_c, 0, 56, 0
3, 15240, Note_on_c, 0, 53, 27
3, 15360, Note_on_c, 0, 53, 0
3, 15360, Note_on_c, 0, 51, 32
3, 15480, Note_on_c, 0, 51, 0
3, 15480, Note_on_c, 0, 53, 27
3, 15600, Note_on_c, 0, 53, 0
3, 15600, Note_on_c, 0, 56, 27
3, 15720, Note_on_c, 0, 56, 0
3, 15720, Note_on_c, 0, 53, 27
3, 15840, Note_on_c, 0, 53, 0
3, 15840, Note_on_c, 0, 55, 27
3, 15840, Note_on_c, 0, 51, 27
3, 16320, Note_on_c, 0, 51, 0
3, 16320, Note_on_c, 0, 55, 0
3, 16560, Note_on_c, 0, 58, 32
3, 16560, Note_on_c, 0, 55, 32
3, 16800, Note_on_c, 0, 55, 0
3, 16800, Note_on_c, 0, 58, 0
3, 16800, Note_on_c, 0, 56, 34
3, 16800, Note_on_c, 0, 60, 34
3, 17040, Note_on_c, 0, 60, 0
3, 17040, Note_on_c, 0, 56, 0
3, 17040, Note_on_c, 0, 57, 35
3, 17040, Note_on_c, 0, 60, 35
3, 17280, Note_on_c, 0, 60, 0
3, 17280, Note_on_c, 0, 57, 0
3, 17280, Note_on_c, 0, 58, 37
3, 17760, Note_on_c, 0, 58, 0
3, 18000, Note_on_c, 0, 58, 46
3, 18240, Note_on_c, 0, 58, 0
3, 18240, Note_on_c, 0, 53, 46
3, 18480, Note_on_c, 0, 53, 0
3, 18480, Note_on_c, 0, 50, 46
3, 18720, Note_on_c, 0, 50, 0
3, 18720, Note_on_c, 0, 46, 53
3, 18960, Note_on_c, 0, 46, 0
3, 18960, Note_on_c, 0, 50, 45
3, 19200, Note_on_c, 0, 50, 0
3, 19200, Note_on_c, 0, 53, 47
3, 19440, Note_on_c, 0, 53, 0
3, 19440, Note_on_c, 0, 58, 45
3, 19680, Note_on_c, 0, 58, 0
3, 19680, Note_on_c, 0, 65, 51
3, 19680, Note_on_c, 0, 63, 51
3, 19920, Note_on_c, 0, 63, 0
3, 19920, Note_on_c, 0, 62, 47
3, 20160, Note_on_c, 0, 62, 0
3, 20160, Note_on_c, 0, 65, 0
3, 20160, Note_on_c, 0, 63, 51
3, 20160, Note_on_c, 0, 60, 51
3, 20400, Note_on_c, 0, 60, 0
3, 20400, Note_on_c, 0, 63, 0
3, 20400, Note_on_c, 0, 62, 47
3, 20400, Note_on_c, 0, 58, 47
3, 20640, Note_on_c, 0, 58, 0
3, 20640, Note_on_c, 0, 62, 0
3, 20640, Note_on_c, 0, 60, 47
3, 20640, Note_on_c, 0, 57, 47
3, 20880, Note_on_c, 0, 57, 0
3, 20880, Note_on_c, 0, 60, 0
3, 21840, Note_on_c, 0, 53, 45
3, 22080, Note_on_c, 0, 53, 0
3, 22080, Note_on_c, 0, 57, 45
3, 22320, Note_on_c, 0, 57, 0
3, 22320, Note_on_c, 0, 60, 45
3, 22560, Note_on_c, 0, 60, 0
3, 22560, Note_on_c, 0, 62, 50
3, 22800, Note_on_c, 0, 62, 0
3, 22800, Note_on_c, 0, 63, 45
3, 22800, Note_on_c, 0, 65, 45
3, 23040, Note_on_c, 0, 63, 0
3, 23040, Note_on_c, 0, 62, 51
3, 23280, Note_on_c, 0, 62, 0
3, 23280, Note_on_c, 0, 65, 0
3, 23280, Note_on_c, 0, 60, 45
3, 23280, Note_on_c, 0, 63, 45
3, 23520, Note_on_c, 0, 63, 0
3, 23520, Note_on_c, 0, 60, 0
3, 23520, Note_on_c, 0, 62, 50
3, 23520, Note_on_c, 0, 58, 50
3, 23760, Note_on_c, 0, 58, 0
3, 23760, Note_on_c, 0, 62, 0
3, 23760, Note_on_c, 0, 46, 54
3, 23976, Note_on_c, 0, 46, 0
3, 24000, Note_on_c, 0, 46, 57
3, 24216, Note_on_c, 0, 46, 0
3, 24240, Note_on_c, 0, 46, 54
3, 24456, Note_on_c, 0, 46, 0
3, 24720, Note_on_c, 0, 50, 54
3, 24960, Note_on_c, 0, 50, 0
3, 24960, Note_on_c, 0, 53, 56
3, 25200, Note_on_c, 0, 53, 0
3, 25200, Note_on_c, 0, 56, 52
3, 25440, Note_on_c, 0, 56, 0
3, 25440, Note_on_c, 0, 55, 56
3, 25680, Note_on_c, 0, 55, 0
3, 25680, Note_on_c, 0, 50, 53
3, 25800, Note_on_c, 0, 50, 0
3, 26160, Note_on_c, 0, 58, 53
3, 26160, Note_on_c, 0, 51, 53
3, 26400, Note_on_c, 0, 51, 0
3, 26400, Note_on_c, 0, 58, 0
3, 26400, Note_on_c, 0, 58, 53
3, 26400, Note_on_c, 0, 51, 53
3, 26640, Note_on_c, 0, 51, 0
3, 26640, Note_on_c, 0, 58, 0
3, 26640, Note_on_c, 0, 59, 55
3, 26640, Note_on_c, 0, 51, 55
3, 26880, Note_on_c, 0, 51, 0
3, 26880, Note_on_c, 0, 59, 0
3, 26880, Note_on_c, 0, 51, 55
3, 26880, Note_on_c, 0, 60, 55
3, 27120, Note_on_c, 0, 60, 0
3, 27120, Note_on_c, 0, 51, 0
3, 27120, Note_on_c, 0, 57, 53
3, 27120, Note_on_c, 0, 51, 53
3, 27360, Note_on_c, 0, 51, 0
3, 27360, Note_on_c, 0, 57, 0
3, 27360, Note_on_c, 0, 58, 54
3, 27360, Note_on_c, 0, 50, 54
3, 27600, Note_on_c, 0, 50, 0
3, 27600, Note_on_c, 0, 58, 0
3, 27600, Note_on_c, 0, 51, 50
3, 27600, Note_on_c, 0, 58, 50
3, 27840, Note_on_c, 0, 58, 0
3, 27840, Note_on_c, 0, 51, 0
3, 27840, Note_on_c, 0, 53, 50
3, 27840, Note_on_c, 0, 62, 50
3, 28080, Note_on_c, 0, 62, 0
3, 28080, Note_on_c, 0, 53, 0
3, 28080, Note_on_c, 0, 62, 46
3, 28080, Note_on_c, 0, 53, 46
3, 28320, Note_on_c, 0, 53, 0
3, 28320, Note_on_c, 0, 62, 0
3, 28320, Note_on_c, 0, 63, 42
3, 28320, Note_on_c, 0, 53, 42
3, 28560, Note_on_c, 0, 53, 0
3, 28560, Note_on_c, 0, 63, 0
3, 28560, Note_on_c, 0, 63, 42
3, 28560, Note_on_c, 0, 53, 42
3, 28800, Note_on_c, 0, 53, 0
3, 28800, Note_on_c, 0, 63, 0
3, 28800, Note_on_c, 0, 62, 45
3, 28800, Note_on_c, 0, 58, 45
3, 28920, Note_on_c, 0, 58, 0
3, 28920, Note_on_c, 0, 62, 0
3, 28920, Note_on_c, 0, 58, 50
3, 29040, Note_on_c, 0, 58, 0
3, 29040, Note_on_c, 0, 62, 54
3, 29160, Note_on_c, 0, 62, 0
3, 29160, Note_on_c, 0, 65, 57
3, 29280, Note_on_c, 0, 65, 0
3, 29280, Note_on_c, 0, 63, 63
3, 29400, Note_on_c, 0, 63, 0
3, 29400, Note_on_c, 0, 65, 54
3, 29520, Note_on_c, 0, 65, 0
3, 29520, Note_on_c, 0, 62, 63
3, 29640, Note_on_c, 0, 62, 0
3, 29640, Note_on_c, 0, 65, 54
3, 29760, Note_on_c, 0, 65, 0
3, 29760, Note_on_c, 0, 60, 63
3, 29880, Note_on_c, 0, 60, 0
3, 29880, Note_on_c, 0, 65, 56
3, 30000, Note_on_c, 0, 65, 0
3, 30000, Note_on_c, 0, 58, 63
3, 30120, Note_on_c, 0, 58, 0
3, 30120, Note_on_c, 0, 65, 55
3, 30240, Note_on_c, 0, 65, 0
3, 30240, Note_on_c, 0, 57, 63
3, 30360, Note_on_c, 0, 57, 0
3, 30360, Note_on_c, 0, 60, 53
3, 30480, Note_on_c, 0, 60, 0
3, 30480, Note_on_c, 0, 63, 56
3, 30600, Note_on_c, 0, 63, 0
3, 30600, Note_on_c, 0, 62, 53
3, 30720, Note_on_c, 0, 62, 0
3, 30720, Note_on_c, 0, 60, 61
3, 30840, Note_on_c, 0, 60, 0
3, 30840, Note_on_c, 0, 58, 54
3, 30960, Note_on_c, 0, 58, 0
3, 30960, Note_on_c, 0, 57, 56
3, 31080, Note_on_c, 0, 57, 0
3, 31080, Note_on_c, 0, 55, 54
3, 31200, Note_on_c, 0, 55, 0
3, 31200, Note_on_c, 0, 53, 56
3, 31320, Note_on_c, 0, 53, 0
3, 31320, Note_on_c, 0, 55, 54
3, 31440, Note_on_c, 0, 55, 0
3, 31440, Note_on_c, 0, 51, 56
3, 31560, Note_on_c, 0, 51, 0
3, 31560, Note_on_c, 0, 53, 54
3, 31680, Note_on_c, 0, 53, 0
3, 31680, Note_on_c, 0, 50, 61
3, 31800, Note_on_c, 0, 50, 0
3, 31800, Note_on_c, 0, 53, 52
3, 31920, Note_on_c, 0, 53, 0
3, 31920, Note_on_c, 0, 58, 54
3, 32040, Note_on_c, 0, 58, 0
3, 32040, Note_on_c, 0, 53, 51
3, 32160, Note_on_c, 0, 53, 0
3, 32160, Note_on_c, 0, 62, 57
3, 32280, Note_on_c, 0, 62, 0
3, 32400, Note_on_c, 0, 58, 41
3, 32400, Note_on_c, 0, 62, 41
3, 32640, Note_on_c, 0, 62, 0
3, 32640, Note_on_c, 0, 58, 0
3, 32640, Note_on_c, 0, 60, 43
3, 32640, Note_on_c, 0, 63, 43
3, 32880, Note_on_c, 0, 63, 0
3, 32880, Note_on_c, 0, 60, 0
3, 32880, Note_on_c, 0, 65, 39
3, 32880, Note_on_c, 0, 62, 39
3, 33120, Note_on_c, 0, 62, 0
3, 33120, Note_on_c, 0, 65, 0
3, 33120, Note_on_c, 0, 67, 46
3, 33120, Note_on_c, 0, 63, 46
3, 33600, Note_on_c, 0, 63, 0
3, 33600, Note_on_c, 0, 67, 0
3, 33840, Note_on_c, 0, 60, 41
3, 33840, Note_on_c, 0, 51, 41
3, 34080, Note_on_c, 0, 51, 0
3, 34080, Note_on_c, 0, 60, 0
3, 34080, Note_on_c, 0, 62, 43
3, 34080, Note_on_c, 0, 53, 43
3, 34320, Note_on_c, 0, 62, 0
3, 34320, Note_on_c, 0, 63, 42
3, 34560, Note_on_c, 0, 63, 0
3, 34560, Note_on_c, 0, 53, 0
3, 34560, Note_on_c, 0, 63, 45
3, 34560, Note_on_c, 0, 58, 45
3, 35040, Note_on_c, 0, 63, 0
3, 35040, Note_on_c, 0, 62, 35
3, 35160, Note_on_c, 0, 62, 0
3, 35160, Note_on_c, 0, 58, 0
3, 35160, Note_on_c, 0, 58, 51
3, 35280, Note_on_c, 0, 58, 0
3, 35280, Note_on_c, 0, 62, 54
3, 35400, Note_on_c, 0, 62, 0
3, 35400, Note_on_c, 0, 65, 51
3, 35520, Note_on_c, 0, 65, 0
3, 35520, Note_on_c, 0, 63, 57
3, 35640, Note_on_c, 0, 63, 0
3, 35640, Note_on_c, 0, 62, 54
3, 35760, Note_on_c, 0, 62, 0
3, 35760, Note_on_c, 0, 60, 55
3, 35880, Note_on_c, 0, 60, 0
3, 35880, Note_on_c, 0, 58, 53
3, 36000, Note_on_c, 0, 58, 0
3, 36000, Note_on_c, 0, 57, 63
3, 36120, Note_on_c, 0, 57, 0
3, 36120, Note_on_c, 0, 60, 54
3, 36240, Note_on_c, 0, 60, 0
3, 36240, Note_on_c, 0, 63, 56
3, 36360, Note_on_c, 0, 63, 0
3, 36360, Note_on_c, 0, 62, 54
3, 36480, Note_on_c, 0, 62, 0
3, 36480, Note_on_c, 0, 60, 61
3, 36600, Note_on_c, 0, 60, 0
3, 36600, Note_on_c, 0, 58, 54
3, 36720, Note_on_c, 0, 58, 0
3, 36720, Note_on_c, 0, 57, 56
3, 36840, Note_on_c, 0, 57, 0
3, 36840, Note_on_c, 0, 55, 54
3, 36960, Note_on_c, 0, 55, 0
3, 36960, Note_on_c, 0, 53, 56
3, 37080, Note_on_c, 0, 53, 0
3, 37080, Note_on_c, 0, 55, 54
3, 37200, Note_on_c, 0, 55, 0
3, 37200, Note_on_c, 0, 51, 56
3, 37320, Note_on_c, 0, 51, 0
3, 37320, Note_on_c, 0, 53, 54
3, 37440, Note_on_c, 0, 53, 0
3, 37440, Note_on_c, 0, 50, 61
3, 37560, Note_on_c, 0, 50, 0
3, 37560, Note_on_c, 0, 53, 46
3, 37680, Note_on_c, 0, 53, 0
3, 37680, Note_on_c, 0, 58, 51
3, 37800, Note_on_c, 0, 58, 0
3, 37800, Note_on_c, 0, 53, 45
3, 37920, Note_on_c, 0, 53, 0
3, 37920, Note_on_c, 0, 62, 50
3, 38040, Note_on_c, 0, 62, 0
3, 38160, Note_on_c, 0, 58, 41
3, 38160, Note_on_c, 0, 62, 41
3, 38400, Note_on_c, 0, 62, 0
3, 38400, Note_on_c, 0, 58, 0
3, 38400, Note_on_c, 0, 60, 43
3, 38400, Note_on_c, 0, 63, 43
3, 38640, Note_on_c, 0, 63, 0
3, 38640, Note_on_c, 0, 60, 0
3, 38640, Note_on_c, 0, 65, 42
3, 38640, Note_on_c, 0, 62, 42
3, 38880, Note_on_c, 0, 62, 0
3, 38880, Note_on_c, 0, 65, 0
3, 38880, Note_on_c, 0, 63, 43
3, 38880, Note_on_c, 0, 67, 43
3, 39360, Note_on_c, 0, 67, 0
3, 39360, Note_on_c, 0, 63, 0
3, 39840, Note_on_c, 0, 57, 43
3, 39840, Note_on_c, 0, 63, 43
3, 39840, Note_on_c, 0, 53, 43
3, 40080, Note_on_c, 0, 57, 0
3, 40080, Note_on_c, 0, 60, 43
3, 40320, Note_on_c, 0, 60, 0
3, 40320, Note_on_c, 0, 53, 0
3, 40320, Note_on_c, 0, 63, 0
3, 40320, Note_on_c, 0, 58, 43
3, 40440, Note_on_c, 0, 58, 0
3, 40440, Note_on_c, 0, 62, 39
3, 40560, Note_on_c, 0, 62, 0
3, 40560, Note_on_c, 0, 65, 40
3, 40680, Note_on_c, 0, 65, 0
3, 40680, Note_on_c, 0, 62, 42
3, 40800, Note_on_c, 0, 62, 0
3, 40800, Note_on_c, 0, 58, 46
3, 40920, Note_on_c, 0, 58, 0
3, 40920, Note_on_c, 0, 62, 44
3, 41040, Note_on_c, 0, 62, 0
3, 41040, Note_on_c, 0, 65, 45
3, 41160, Note_on_c, 0, 65, 0
3, 41160, Note_on_c, 0, 62, 46
3, 41280, Note_on_c, 0, 62, 0
3, 41280, Note_on_c, 0, 63, 53
3, 41400, Note_on_c, 0, 63, 0
3, 41400, Note_on_c, 0, 60, 50
3, 41520, Note_on_c, 0, 60, 0
3, 41520, Note_on_c, 0, 65, 51
3, 41640, Note_on_c, 0, 65, 0
3, 41640, Note_on_c, 0, 63, 53
3, 41760, Note_on_c, 0, 63, 0
3, 41760, Note_on_c, 0, 62, 56
3, 41880, Note_on_c, 0, 62, 0
3, 41880, Note_on_c, 0, 65, 51
3, 42000, Note_on_c, 0, 65, 0
3, 42000, Note_on_c, 0, 62, 53
3, 42120, Note_on_c, 0, 62, 0
3, 42120, Note_on_c, 0, 60, 50
3, 42240, Note_on_c, 0, 60, 0
3, 42240, Note_on_c, 0, 58, 64
3, 42360, Note_on_c, 0, 58, 0
3, 42360, Note_on_c, 0, 56, 56
3, 42480, Note_on_c, 0, 56, 0
3, 42480, Note_on_c, 0, 53, 59
3, 42600, Note_on_c, 0, 53, 0
3, 42600, Note_on_c, 0, 50, 56
3, 42720, Note_on_c, 0, 50, 0
3, 42720, Note_on_c, 0, 51, 64
3, 42840, Note_on_c, 0, 51, 0
3, 42840, Note_on_c, 0, 48, 59
3, 42960, Note_on_c, 0, 48, 0
3, 42960, Note_on_c, 0, 53, 64
3, 43080, Note_on_c, 0, 53, 0
3, 43080, Note_on_c, 0, 41, 54
3, 43200, Note_on_c, 0, 41, 0
3, 43200, Note_on_c, 0, 46, 46
3, 43920, Note_on_c, 0, 46, 0
3, 43920, Note_on_c, 0, 56, 42
3, 44160, Note_on_c, 0, 56, 0
3, 44160, Note_on_c, 0, 55, 45
3, 44400, Note_on_c, 0, 55, 0
3, 44400, Note_on_c, 0, 53, 49
3, 44640, Note_on_c, 0, 53, 0
3, 44640, Control_c, 0, 91, 127
3, 44641, Note_on_c, 0, 51, 51
3, 45601, Note_on_c, 0, 51, 0
3, 46080, Note_on_c, 0, 51, 50
3, 46560, Note_on_c, 0, 51, 0
3, 46560, Note_on_c, 0, 53, 46
3, 47040, Note_on_c, 0, 53, 0
3, 47040, Note_on_c, 0, 55, 45
3, 47520, Note_on_c, 0, 55, 0
3, 47520, Note_on_c, 0, 58, 55
3, 47520, Note_on_c, 0, 61, 55
3, 48000, Note_on_c, 0, 61, 0
3, 48000, Note_on_c, 0, 58, 0
3, 48000, Note_on_c, 0, 60, 51
3, 48000, Note_on_c, 0, 56, 51
3, 48480, Note_on_c, 0, 56, 0
3, 48480, Note_on_c, 0, 60, 0
3, 48960, Note_on_c, 0, 45, 47
3, 49080, Note_on_c, 0, 45, 0
3, 49080, Note_on_c, 0, 46, 50
3, 49200, Note_on_c, 0, 46, 0
3, 49200, Note_on_c, 0, 48, 53
3, 49320, Note_on_c, 0, 48, 0
3, 49320, Note_on_c, 0, 46, 51
3, 49430, Note_on_c, 0, 46, 0
3, 49440, Note_on_c, 0, 46, 49
3, 49920, Note_on_c, 0, 46, 0
3, 50400, Note_on_c, 0, 39, 53
3, 50400, Note_on_c, 0, 51, 53
3, 50880, Note_on_c, 0, 51, 0
3, 50880, Note_on_c, 0, 39, 0
3, 51360, Note_on_c, 0, 51, 49
3, 51360, Note_on_c, 0, 60, 49
3, 51840, Note_on_c, 0, 60, 0
3, 51840, Note_on_c, 0, 51, 0
3, 51840, Note_on_c, 0, 60, 53
3, 51840, Note_on_c, 0, 53, 53
3, 52320, Note_on_c, 0, 53, 0
3, 52320, Note_on_c, 0, 60, 0
3, 52320, Note_on_c, 0, 58, 50
3, 52320, Note_on_c, 0, 62, 50
3, 52800, Note_on_c, 0, 62, 0
3, 52800, Note_on_c, 0, 58, 0
3, 52800, Note_on_c, 0, 60, 49
3, 52800, Note_on_c, 0, 63, 49
3, 53040, Note_on_c, 0, 63, 0
3, 53040, Note_on_c, 0, 60, 0
3, 53280, Note_on_c, 0, 44, 54
3, 53280, Note_on_c, 0, 56, 54
3, 53760, Note_on_c, 0, 56, 0
3, 53760, Note_on_c, 0, 44, 0
3, 53760, Note_on_c, 0, 46, 50
3, 53760, Note_on_c, 0, 55, 50
3, 54240, Note_on_c, 0, 55, 0
3, 54240, Note_on_c, 0, 56, 40
3, 54720, Note_on_c, 0, 56, 0
3, 54720, Note_on_c, 0, 46, 0
3, 54720, Note_on_c, 0, 51, 32
3, 54840, Note_on_c, 0, 51, 0
3, 54840, Note_on_c, 0, 55, 32
3, 54960, Note_on_c, 0, 55, 0
3, 54960, Note_on_c, 0, 58, 30
3, 55080, Note_on_c, 0, 58, 0
3, 55080, Note_on_c, 0, 55, 27
3, 55200, Note_on_c, 0, 55, 0
3, 55200, Note_on_c, 0, 51, 33
3, 55320, Note_on_c, 0, 51, 0
3, 55320, Note_on_c, 0, 55, 29
3, 55440, Note_on_c, 0, 55, 0
3, 55440, Note_on_c, 0, 58, 31
3, 55560, Note_on_c, 0, 58, 0
3, 55560, Note_on_c, 0, 55, 29
3, 55680, Note_on_c, 0, 55, 0
3, 55680, Note_on_c, 0, 51, 33
3, 55800, Note_on_c, 0, 51, 0
3, 55800, Note_on_c, 0, 55, 29
3, 55920, Note_on_c, 0, 55, 0
3, 55920, Note_on_c, 0, 58, 31
3, 56040, Note_on_c, 0, 58, 0
3, 56040, Note_on_c, 0, 55, 29
3, 56160, Note_on_c, 0, 55, 0
3, 56160, Note_on_c, 0, 51, 36
3, 56280, Note_on_c, 0, 51, 0
3, 56280, Note_on_c, 0, 53, 27
3, 56400, Note_on_c, 0, 53, 0
3, 56400, Note_on_c, 0, 56, 30
3, 56520, Note_on_c, 0, 56, 0
3, 56520, Note_on_c, 0, 53, 27
3, 56640, Note_on_c, 0, 53, 0
3, 56640, Note_on_c, 0, 51, 32
3, 56760, Note_on_c, 0, 51, 0
3, 56760, Note_on_c, 0, 53, 27
3, 56880, Note_on_c, 0, 53, 0
3, 56880, Note_on_c, 0, 56, 30
3, 57000, Note_on_c, 0, 56, 0
3, 57000, Note_on_c, 0, 53, 27
3, 57120, Note_on_c, 0, 53, 0
3, 57120, Note_on_c, 0, 51, 32
3, 57240, Note_on_c, 0, 51, 0
3, 57240, Note_on_c, 0, 53, 27
3, 57360, Note_on_c, 0, 53, 0
3, 57360, Note_on_c, 0, 56, 30
3, 57480, Note_on_c, 0, 56, 0
3, 57480, Note_on_c, 0, 53, 27
3, 57600, Note_on_c, 0, 53, 0
3, 57600, Note_on_c, 0, 51, 33
3, 57720, Note_on_c, 0, 51, 0
3, 57720, Note_on_c, 0, 55, 27
3, 57840, Note_on_c, 0, 55, 0
3, 57840, Note_on_c, 0, 58, 30
3, 57960, Note_on_c, 0, 58, 0
3, 57960, Note_on_c, 0, 55, 27
3, 58080, Note_on_c, 0, 55, 0
3, 58080, Note_on_c, 0, 51, 29
3, 58200, Note_on_c, 0, 51, 0
3, 58200, Note_on_c, 0, 55, 27
3, 58320, Note_on_c, 0, 55, 0
3, 58320, Note_on_c, 0, 58, 30
3, 58440, Note_on_c, 0, 58, 0
3, 58440, Note_on_c, 0, 55, 27
3, 58560, Note_on_c, 0, 55, 0
3, 58560, Note_on_c, 0, 51, 29
3, 58680, Note_on_c, 0, 51, 0
3, 58680, Note_on_c, 0, 55, 27
3, 58800, Note_on_c, 0, 55, 0
3, 58800, Note_on_c, 0, 58, 30
3, 58920, Note_on_c, 0, 58, 0
3, 58920, Note_on_c, 0, 55, 27
3, 59040, Note_on_c, 0, 55, 0
3, 59040, Note_on_c, 0, 51, 35
3, 59160, Note_on_c, 0, 51, 0
3, 59160, Note_on_c, 0, 53, 29
3, 59280, Note_on_c, 0, 53, 0
3, 59280, Note_on_c, 0, 56, 30
3, 59400, Note_on_c, 0, 56, 0
3, 59400, Note_on_c, 0, 53, 29
3, 59520, Note_on_c, 0, 53, 0
3, 59520, Note_on_c, 0, 51, 32
3, 59640, Note_on_c, 0, 51, 0
3, 59640, Note_on_c, 0, 53, 27
3, 59760, Note_on_c, 0, 53, 0
3, 59760, Note_on_c, 0, 56, 27
3, 59880, Note_on_c, 0, 56, 0
3, 59880, Note_on_c, 0, 53, 27
3, 60000, Note_on_c, 0, 53, 0
3, 60000, Note_on_c, 0, 51, 32
3, 60120, Note_on_c, 0, 51, 0
3, 60120, Note_on_c, 0, 53, 27
3, 60240, Note_on_c, 0, 53, 0
3, 60240, Note_on_c, 0, 56, 27
3, 60360, Note_on_c, 0, 56, 0
3, 60360, Note_on_c, 0, 53, 27
3, 60480, Note_on_c, 0, 53, 0
3, 60480, Note_on_c, 0, 55, 27
3, 60480, Note_on_c, 0, 51, 27
3, 60960, Note_on_c, 0, 51, 0
3, 60960, Note_on_c, 0, 55, 0
3, 61200, Note_on_c, 0, 58, 32
3, 61200, Note_on_c, 0, 55, 32
3, 61440, Note_on_c, 0, 55, 0
3, 61440, Note_on_c, 0, 58, 0
3, 61440, Note_on_c, 0, 56, 34
3, 61440, Note_on_c, 0, 60, 34
3, 61680, Note_on_c, 0, 60, 0
3, 61680, Note_on_c, 0, 56, 0
3, 61680, Note_on_c, 0, 57, 35
3, 61680, Note_on_c, 0, 60, 35
3, 61920, Note_on_c, 0, 60, 0
3, 61920, Note_on_c, 0, 57, 0
3, 61920, Note_on_c, 0, 58, 37
3, 62400, Note_on_c, 0, 58, 0
3, 62640, Note_on_c, 0, 58, 46
3, 62880, Note_on_c, 0, 58, 0
3, 62880, Note_on_c, 0, 53, 46
3, 63120, Note_on_c, 0, 53, 0
3, 63120, Note_on_c, 0, 50, 46
3, 63360, Note_on_c, 0, 50, 0
3, 63360, Note_on_c, 0, 46, 53
3, 63600, Note_on_c, 0, 46, 0
3, 63600, Note_on_c, 0, 50, 45
3, 63840, Note_on_c, 0, 50, 0
3, 63840, Note_on_c, 0, 53, 47
3, 64080, Note_on_c, 0, 53, 0
3, 64080, Note_on_c, 0, 58, 45
3, 64320, Note_on_c, 0, 58, 0
3, 64320, Note_on_c, 0, 65, 51
3, 64320, Note_on_c, 0, 63, 51
3, 64560, Note_on_c, 0, 63, 0
3, 64560, Note_on_c, 0, 62, 47
3, 64800, Note_on_c, 0, 62, 0
3, 64800, Note_on_c, 0, 65, 0
3, 64800, Note_on_c, 0, 63, 51
3, 64800, Note_on_c, 0, 60, 51
3, 65040, Note_on_c, 0, 60, 0
3, 65040, Note_on_c, 0, 63, 0
3, 65040, Note_on_c, 0, 62, 47
3, 65040, Note_on_c, 0, 58, 47
3, 65280, Note_on_c, 0, 58, 0
3, 65280, Note_on_c, 0, 62, 0
3, 65280, Note_on_c, 0, 60, 47
3, 65280, Note_on_c, 0, 57, 47
3, 65520, Note_on_c, 0, 57, 0
3, 65520, Note_on_c, 0, 60, 0
3, 66480, Note_on_c, 0, 53, 45
3, 66720, Note_on_c, 0, 53, 0
3, 66720, Note_on_c, 0, 57, 45
3, 66960, Note_on_c, 0, 57, 0
3, 66960, Note_on_c, 0, 60, 45
3, 67200, Note_on_c, 0, 60, 0
3, 67200, Note_on_c, 0, 62, 50
3, 67440, Note_on_c, 0, 62, 0
3, 67440, Note_on_c, 0, 63, 45
3, 67440, Note_on_c, 0, 65, 45
3, 67680, Note_on_c, 0, 63, 0
3, 67680, Note_on_c, 0, 62, 51
3, 67920, Note_on_c, 0, 62, 0
3, 67920, Note_on_c, 0, 65, 0
3, 67920, Note_on_c, 0, 60, 45
3, 67920, Note_on_c, 0, 63, 45
3, 68160, Note_on_c, 0, 63, 0
3, 68160, Note_on_c, 0, 60, 0
3, 68160, Note_on_c, 0, 62, 50
3, 68160, Note_on_c, 0, 58, 50
3, 68400, Note_on_c, 0, 58, 0
3, 68400, Note_on_c, 0, 62, 0
3, 68400, Note_on_c, 0, 46, 54
3, 68616, Note_on_c, 0, 46, 0
3, 68640, Note_on_c, 0, 46, 57
3, 68856, Note_on_c, 0, 46, 0
3, 68880, Note_on_c, 0, 46, 54
3, 69096, Note_on_c, 0, 46, 0
3, 69360, Note_on_c, 0, 50, 54
3, 69600, Note_on_c, 0, 50, 0
3, 69600, Note_on_c, 0, 53, 56
3, 69840, Note_on_c, 0, 53, 0
3, 69840, Note_on_c, 0, 56, 52
3, 70080, Note_on_c, 0, 56, 0
3, 70080, Note_on_c, 0, 55, 56
3, 70320, Note_on_c, 0, 55, 0
3, 70320, Note_on_c, 0, 50, 53
3, 70440, Note_on_c, 0, 50, 0
3, 70800, Note_on_c, 0, 58, 53
3, 70800, Note_on_c, 0, 51, 53
3, 71040, Note_on_c, 0, 51, 0
3, 71040, Note_on_c, 0, 58, 0
3, 71040, Note_on_c, 0, 58, 53
3, 71040, Note_on_c, 0, 51, 53
3, 71280, Note_on_c, 0, 51, 0
3, 71280, Note_on_c, 0, 58, 0
3, 71280, Note_on_c, 0, 59, 55
3, 71280, Note_on_c, 0, 51, 55
3, 71520, Note_on_c, 0, 51, 0
3, 71520, Note_on_c, 0, 59, 0
3, 71520, Note_on_c, 0, 51, 55
3, 71520, Note_on_c, 0, 60, 55
3, 71760, Note_on_c, 0, 60, 0
3, 71760, Note_on_c, 0, 51, 0
3, 71760, Note_on_c, 0, 57, 53
3, 71760, Note_on_c, 0, 51, 53
3, 72000, Note_on_c, 0, 51, 0
3, 72000, Note_on_c, 0, 57, 0
3, 72000, Note_on_c, 0, 58, 54
3, 72000, Note_on_c, 0, 50, 54
3, 72240, Note_on_c, 0, 50, 0
3, 72240, Note_on_c, 0, 58, 0
3, 72240, Note_on_c, 0, 51, 50
3, 72240, Note_on_c, 0, 58, 50
3, 72480, Note_on_c, 0, 58, 0
3, 72480, Note_on_c, 0, 51, 0
3, 72480, Note_on_c, 0, 53, 50
3, 72480, Note_on_c, 0, 62, 50
3, 72720, Note_on_c, 0, 62, 0
3, 72720, Note_on_c, 0, 53, 0
3, 72720, Note_on_c, 0, 62, 46
3, 72720, Note_on_c, 0, 53, 46
3, 72960, Note_on_c, 0, 53, 0
3, 72960, Note_on_c, 0, 62, 0
3, 72960, Note_on_c, 0, 63, 42
3, 72960, Note_on_c, 0, 53, 42
3, 73200, Note_on_c, 0, 53, 0
3, 73200, Note_on_c, 0, 63, 0
3, 73200, Note_on_c, 0, 63, 42
3, 73200, Note_on_c, 0, 53, 42
3, 73440, Note_on_c, 0, 53, 0
3, 73440, Note_on_c, 0, 63, 0
3, 73440, Note_on_c, 0, 62, 45
3, 73440, Note_on_c, 0, 58, 45
3, 73560, Note_on_c, 0, 58, 0
3, 73560, Note_on_c, 0, 62, 0
3, 73560, Note_on_c, 0, 58, 50
3, 73680, Note_on_c, 0, 58, 0
3, 73680, Note_on_c, 0, 62, 54
3, 73800, Note_on_c, 0, 62, 0
3, 73800, Note_on_c, 0, 65, 57
3, 73920, Note_on_c, 0, 65, 0
3, 73920, Note_on_c, 0, 63, 63
3, 74040, Note_on_c, 0, 63, 0
3, 74040, Note_on_c, 0, 65, 54
3, 74160, Note_on_c, 0, 65, 0
3, 74160, Note_on_c, 0, 62, 63
3, 74280, Note_on_c, 0, 62, 0
3, 74280, Note_on_c, 0, 65, 54
3, 74400, Note_on_c, 0, 65, 0
3, 74400, Note_on_c, 0, 60, 63
3, 74520, Note_on_c, 0, 60, 0
3, 74520, Note_on_c, 0, 65, 56
3, 74640, Note_on_c, 0, 65, 0
3, 74640, Note_on_c, 0, 58, 63
3, 74760, Note_on_c, 0, 58, 0
3, 74760, Note_on_c, 0, 65, 55
3, 74880, Note_on_c, 0, 65, 0
3, 74880, Note_on_c, 0, 57, 63
3, 75000, Note_on_c, 0, 57, 0
3, 75000, Note_on_c, 0, 60, 53
3, 75120, Note_on_c, 0, 60, 0
3, 75120, Note_on_c, 0, 63, 56
3, 75240, Note_on_c, 0, 63, 0
3, 75240, Note_on_c, 0, 62, 53
3, 75360, Note_on_c, 0, 62, 0
3, 75360, Note_on_c, 0, 60, 61
3, 75480, Note_on_c, 0, 60, 0
3, 75480, Note_on_c, 0, 58, 54
3, 75600, Note_on_c, 0, 58, 0
3, 75600, Note_on_c, 0, 57, 56
3, 75720, Note_on_c, 0, 57, 0
3, 75720, Note_on_c, 0, 55, 54
3, 75840, Note_on_c, 0, 55, 0
3, 75840, Note_on_c, 0, 53, 56
3, 75960, Note_on_c, 0, 53, 0
3, 75960, Note_on_c, 0, 55, 54
3, 76080, Note_on_c, 0, 55, 0
3, 76080, Note_on_c, 0, 51, 56
3, 76200, Note_on_c, 0, 51, 0
3, 76200, Note_on_c, 0, 53, 54
3, 76320, Note_on_c, 0, 53, 0
3, 76320, Note_on_c, 0, 50, 61
3, 76440, Note_on_c, 0, 50, 0
3, 76440, Note_on_c, 0, 53, 52
3, 76560, Note_on_c, 0, 53, 0
3, 76560, Note_on_c, 0, 58, 54
3, 76680, Note_on_c, 0, 58, 0
3, 76680, Note_on_c, 0, 53, 51
3, 76800, Note_on_c, 0, 53, 0
3, 76800, Note_on_c, 0, 62, 57
3, 76920, Note_on_c, 0, 62, 0
3, 77040, Note_on_c, 0, 58, 41
3, 77040, Note_on_c, 0, 62, 41
3, 77280, Note_on_c, 0, 62, 0
3, 77280, Note_on_c, 0, 58, 0
3, 77280, Note_on_c, 0, 60, 43
3, 77280, Note_on_c, 0, 63, 43
3, 77520, Note_on_c, 0, 63, 0
3, 77520, Note_on_c, 0, 60, 0
3, 77520, Note_on_c, 0, 65, 39
3, 77520, Note_on_c, 0, 62, 39
3, 77760, Note_on_c, 0, 62, 0
3, 77760, Note_on_c, 0, 65, 0
3, 77760, Note_on_c, 0, 67, 46
3, 77760, Note_on_c, 0, 63, 46
3, 78240, Note_on_c, 0, 63, 0
3, 78240, Note_on_c, 0, 67, 0
3, 78480, Note_on_c, 0, 60, 41
3, 78480, Note_on_c, 0, 51, 41
3, 78720, Note_on_c, 0, 51, 0
3, 78720, Note_on_c, 0, 60, 0
3, 78720, Note_on_c, 0, 62, 43
3, 78720, Note_on_c, 0, 53, 43
3, 78960, Note_on_c, 0, 62, 0
3, 78960, Note_on_c, 0, 63, 42
3, 79200, Note_on_c, 0, 63, 0
3, 79200, Note_on_c, 0, 53, 0
3, 79200, Note_on_c, 0, 63, 45
3, 79200, Note_on_c, 0, 58, 45
3, 79680, Note_on_c, 0, 63, 0
3, 79680, Note_on_c, 0, 62, 35
3, 79800, Note_on_c, 0, 62, 0
3, 79800, Note_on_c, 0, 58, 0
3, 79800, Note_on_c, 0, 58, 51
3, 79920, Note_on_c, 0, 58, 0
3, 79920, Note_on_c, 0, 62, 54
3, 80040, Note_on_c, 0, 62, 0
3, 80040, Note_on_c, 0, 65, 51
3, 80160, Note_on_c, 0, 65, 0
3, 80160, Note_on_c, 0, 63, 57
3, 80280, Note_on_c, 0, 63, 0
3, 80280, Note_on_c, 0, 62, 54
3, 80400, Note_on_c, 0, 62, 0
3, 80400, Note_on_c, 0, 60, 55
3, 80520, Note_on_c, 0, 60, 0
3, 80520, Note_on_c, 0, 58, 53
3, 80640, Note_on_c, 0, 58, 0
3, 80640, Note_on_c, 0, 57, 63
3, 80760, Note_on_c, 0, 57, 0
3, 80760, Note_on_c, 0, 60, 54
3, 80880, Note_on_c, 0, 60, 0
3, 80880, Note_on_c, 0, 63, 56
3, 81000, Note_on_c, 0, 63, 0
3, 81000, Note_on_c, 0, 62, 54
3, 81120, Note_on_c, 0, 62, 0
3, 81120, Note_on_c, 0, 60, 61
3, 81240, Note_on_c, 0, 60, 0
3, 81240, Note_on_c, 0, 58, 54
3, 81360, Note_on_c, 0, 58, 0
3, 81360, Note_on_c, 0, 57, 56
3, 81480, Note_on_c, 0, 57, 0
3, 81480, Note_on_c, 0, 55, 54
3, 81600, Note_on_c, 0, 55, 0
3, 81600, Note_on_c, 0, 53, 56
3, 81720, Note_on_c, 0, 53, 0
3, 81720, Note_on_c, 0, 55, 54
3, 81840, Note_on_c, 0, 55, 0
3, 81840, Note_on_c, 0, 51, 56
3, 81960, Note_on_c, 0, 51, 0
3, 81960, Note_on_c, 0, 53, 54
3, 82080, Note_on_c, 0, 53, 0
3, 82080, Note_on_c, 0, 50, 61
3, 82200, Note_on_c, 0, 50, 0
3, 82200, Note_on_c, 0, 53, 46
3, 82320, Note_on_c, 0, 53, 0
3, 82320, Note_on_c, 0, 58, 51
3, 82440, Note_on_c, 0, 58, 0
3, 82440, Note_on_c, 0, 53, 45
3, 82560, Note_on_c, 0, 53, 0
3, 82560, Note_on_c, 0, 62, 50
3, 82680, Note_on_c, 0, 62, 0
3, 82800, Note_on_c, 0, 58, 41
3, 82800, Note_on_c, 0, 62, 41
3, 83040, Note_on_c, 0, 62, 0
3, 83040, Note_on_c, 0, 58, 0
3, 83040, Note_on_c, 0, 60, 43
3, 83040, Note_on_c, 0, 63, 43
3, 83280, Note_on_c, 0, 63, 0
3, 83280, Note_on_c, 0, 60, 0
3, 83280, Note_on_c, 0, 65, 42
3, 83280, Note_on_c, 0, 62, 42
3, 83520, Note_on_c, 0, 62, 0
3, 83520, Note_on_c, 0, 65, 0
3, 83520, Note_on_c, 0, 63, 43
3, 83520, Note_on_c, 0, 67, 43
3, 84000, Note_on_c, 0, 67, 0
3, 84000, Note_on_c, 0, 63, 0
3, 84480, Note_on_c, 0, 57, 43
3, 84480, Note_on_c, 0, 63, 43
3, 84480, Note_on_c, 0, 53, 43
3, 84720, Note_on_c, 0, 57, 0
3, 84720, Note_on_c, 0, 60, 43
3, 84960, Note_on_c, 0, 60, 0
3, 84960, Note_on_c, 0, 53, 0
3, 84960, Note_on_c, 0, 63, 0
3, 84960, Note_on_c, 0, 58, 43
3, 85080, Note_on_c, 0, 58, 0
3, 85080, Note_on_c, 0, 62, 39
3, 85200, Note_on_c, 0, 62, 0
3, 85200, Note_on_c, 0, 65, 40
3, 85320, Note_on_c, 0, 65, 0
3, 85320, Note_on_c, 0, 62, 42
3, 85440, Note_on_c, 0, 62, 0
3, 85440, Note_on_c, 0, 58, 46
3, 85560, Note_on_c, 0, 58, 0
3, 85560, Note_on_c, 0, 62, 44
3, 85680, Note_on_c, 0, 62, 0
3, 85680, Note_on_c, 0, 65, 45
3, 85800, Note_on_c, 0, 65, 0
3, 85800, Note_on_c, 0, 62, 46
3, 85920, Note_on_c, 0, 62, 0
3, 85920, Note_on_c, 0, 63, 53
3, 86040, Note_on_c, 0, 63, 0
3, 86040, Note_on_c, 0, 60, 50
3, 86160, Note_on_c, 0, 60, 0
3, 86160, Note_on_c, 0, 65, 51
3, 86280, Note_on_c, 0, 65, 0
3, 86280, Note_on_c, 0, 63, 53
3, 86400, Note_on_c, 0, 63, 0
3, 86400, Note_on_c, 0, 62, 56
3, 86520, Note_on_c, 0, 62, 0
3, 86520, Note_on_c, 0, 65, 51
3, 86640, Note_on_c, 0, 65, 0
3, 86640, Note_on_c, 0, 62, 53
3, 86760, Note_on_c, 0, 62, 0
3, 86760, Note_on_c, 0, 60, 50
3, 86880, Note_on_c, 0, 60, 0
3, 86880, Note_on_c, 0, 58, 64
3, 87000, Note_on_c, 0, 58, 0
3, 87000, Note_on_c, 0, 56, 56
3, 87120, Note_on_c, 0, 56, 0
3, 87120, Note_on_c, 0, 53, 59
3, 87240, Note_on_c, 0, 53, 0
3, 87240, Note_on_c, 0, 50, 56
3, 87360, Note_on_c, 0, 50, 0
3, 87360, Note_on_c, 0, 51, 64
3, 87480, Note_on_c, 0, 51, 0
3, 87480, Note_on_c, 0, 48, 59
3, 87600, Note_on_c, 0, 48, 0
3, 87600, Note_on_c, 0, 53, 64
3, 87720, Note_on_c, 0, 53, 0
3, 87720, Note_on_c, 0, 41, 54
3, 87840, Note_on_c, 0, 41, 0
3, 87840, Note_on_c, 0, 46, 46
3, 88560, Note_on_c, 0, 46, 0
3, 88560, Note_on_c, 0, 56, 42
3, 88800, Note_on_c, 0, 56, 0
3, 88800, Note_on_c, 0, 55, 45
3, 89040, Note_on_c, 0, 55, 0
3, 89040, Note_on_c, 0, 53, 49
3, 89280, Note_on_c, 0, 53, 0
3, 89280, Note_on_c, 0, 52, 56
3, 89280, Control_c, 0, 91, 127
3, 90240, Note_on_c, 0, 52, 0
3, 90240, Note_on_c, 0, 48, 46
3, 90720, Note_on_c, 0, 48, 0
3, 90720, Note_on_c, 0, 49, 53
3, 91680, Note_on_c, 0, 49, 0
3, 91680, Note_on_c, 0, 60, 43
3, 91680, Note_on_c, 0, 56, 43
3, 92160, Note_on_c, 0, 56, 0
3, 92160, Note_on_c, 0, 60, 0
3, 92160, Note_on_c, 0, 58, 43
3, 92160, Note_on_c, 0, 61, 43
3, 92640, Note_on_c, 0, 61, 0
3, 92640, Note_on_c, 0, 58, 0
3, 93120, Note_on_c, 0, 60, 43
3, 93120, Note_on_c, 0, 70, 43
3, 93600, Note_on_c, 0, 70, 0
3, 93600, Note_on_c, 0, 60, 0
3, 93600, Note_on_c, 0, 65, 43
3, 93600, Note_on_c, 0, 70, 43
3, 94080, Note_on_c, 0, 70, 0
3, 94080, Note_on_c, 0, 68, 36
3, 94320, Note_on_c, 0, 68, 0
3, 94320, Note_on_c, 0, 65, 0
3, 94320, Note_on_c, 0, 41, 45
3, 94536, Note_on_c, 0, 41, 0
3, 94560, Note_on_c, 0, 41, 46
3, 94776, Note_on_c, 0, 41, 0
3, 94800, Note_on_c, 0, 41, 44
3, 95016, Note_on_c, 0, 41, 0
3, 95040, Note_on_c, 0, 41, 52
3, 96480, Note_on_c, 0, 41, 0
3, 96480, Note_on_c, 0, 41, 42
3, 97200, Note_on_c, 0, 41, 0
3, 97200, Note_on_c, 0, 41, 45
3, 97416, Note_on_c, 0, 41, 0
3, 97440, Note_on_c, 0, 41, 46
3, 97656, Note_on_c, 0, 41, 0
3, 97680, Note_on_c, 0, 41, 45
3, 97896, Note_on_c, 0, 41, 0
3, 97920, Note_on_c, 0, 42, 54
3, 99360, Note_on_c, 0, 42, 0
3, 99360, Note_on_c, 0, 43, 49
3, 100080, Note_on_c, 0, 43, 0
3, 100080, Note_on_c, 0, 43, 48
3, 100296, Note_on_c, 0, 43, 0
3, 100320, Note_on_c, 0, 43, 50
3, 100536, Note_on_c, 0, 43, 0
3, 100560, Note_on_c, 0, 43, 47
3, 100776, Note_on_c, 0, 43, 0
3, 100800, Note_on_c, 0, 44, 55
3, 101760, Note_on_c, 0, 44, 0
3, 101760, Note_on_c, 0, 45, 62
3, 102240, Note_on_c, 0, 45, 0
3, 102240, Note_on_c, 0, 46, 62
3, 102720, Note_on_c, 0, 46, 0
3, 102720, Note_on_c, 0, 49, 48
3, 103200, Note_on_c, 0, 49, 0
3, 103200, Note_on_c, 0, 48, 54
3, 103680, Note_on_c, 0, 48, 0
3, 103680, Note_on_c, 0, 49, 44
3, 104160, Note_on_c, 0, 49, 0
3, 104160, Note_on_c, 0, 51, 43
3, 104160, Note_on_c, 0, 60, 43
3, 104640, Note_on_c, 0, 60, 0
3, 104640, Note_on_c, 0, 51, 0
3, 104640, Note_on_c, 0, 51, 36
3, 104640, Note_on_c, 0, 61, 36
3, 105120, Note_on_c, 0, 61, 0
3, 105120, Note_on_c, 0, 51, 0
3, 105120, Note_on_c, 0, 56, 33
3, 105240, Note_on_c, 0, 56, 0
3, 105240, Note_on_c, 0, 60, 26
3, 105360, Note_on_c, 0, 60, 0
3, 105360, Note_on_c, 0, 63, 27
3, 105480, Note_on_c, 0, 63, 0
3, 105480, Note_on_c, 0, 60, 25
3, 105600, Note_on_c, 0, 60, 0
3, 105600, Note_on_c, 0, 56, 30
3, 105720, Note_on_c, 0, 56, 0
3, 105720, Note_on_c, 0, 60, 26
3, 105840, Note_on_c, 0, 60, 0
3, 105840, Note_on_c, 0, 63, 29
3, 105960, Note_on_c, 0, 63, 0
3, 105960, Note_on_c, 0, 60, 26
3, 106080, Note_on_c, 0, 60, 0
3, 106080, Note_on_c, 0, 56, 33
3, 106200, Note_on_c, 0, 56, 0
3, 106200, Note_on_c, 0, 60, 27
3, 106320, Note_on_c, 0, 60, 0
3, 106320, Note_on_c, 0, 63, 29
3, 106440, Note_on_c, 0, 63, 0
3, 106440, Note_on_c, 0, 60, 27
3, 106560, Note_on_c, 0, 60, 0
3, 106560, Note_on_c, 0, 55, 36
3, 106680, Note_on_c, 0, 55, 0
3, 106680, Note_on_c, 0, 58, 26
3, 106800, Note_on_c, 0, 58, 0
3, 106800, Note_on_c, 0, 60, 27
3, 106920, Note_on_c, 0, 60, 0
3, 106920, Note_on_c, 0, 58, 26
3, 107040, Note_on_c, 0, 58, 0
3, 107040, Note_on_c, 0, 55, 32
3, 107160, Note_on_c, 0, 55, 0
3, 107160, Note_on_c, 0, 58, 26
3, 107280, Note_on_c, 0, 58, 0
3, 107280, Note_on_c, 0, 60, 27
3, 107400, Note_on_c, 0, 60, 0
3, 107400, Note_on_c, 0, 58, 25
3, 107520, Note_on_c, 0, 58, 0
3, 107520, Note_on_c, 0, 55, 32
3, 107640, Note_on_c, 0, 55, 0
3, 107640, Note_on_c, 0, 58, 27
3, 107760, Note_on_c, 0, 58, 0
3, 107760, Note_on_c, 0, 60, 27
3, 107880, Note_on_c, 0, 60, 0
3, 107880, Note_on_c, 0, 58, 25
3, 108000, Note_on_c, 0, 58, 0
3, 108000, Note_on_c, 0, 53, 36
3, 108120, Note_on_c, 0, 53, 0
3, 108120, Note_on_c, 0, 56, 27
3, 108240, Note_on_c, 0, 56, 0
3, 108240, Note_on_c, 0, 60, 30
3, 108360, Note_on_c, 0, 60, 0
3, 108360, Note_on_c, 0, 56, 27
3, 108480, Note_on_c, 0, 56, 0
3, 108480, Note_on_c, 0, 53, 32
3, 108600, Note_on_c, 0, 53, 0
3, 108600, Note_on_c, 0, 56, 26
3, 108720, Note_on_c, 0, 56, 0
3, 108720, Note_on_c, 0, 60, 27
3, 108840, Note_on_c, 0, 60, 0
3, 108840, Note_on_c, 0, 56, 26
3, 108960, Note_on_c, 0, 56, 0
3, 108960, Note_on_c, 0, 53, 32
3, 109080, Note_on_c, 0, 53, 0
3, 109080, Note_on_c, 0, 56, 27
3, 109200, Note_on_c, 0, 56, 0
3, 109200, Note_on_c, 0, 60, 29
3, 109320, Note_on_c, 0, 60, 0
3, 109320, Note_on_c, 0, 56, 27
3, 109440, Note_on_c, 0, 56, 0
3, 109440, Note_on_c, 0, 51, 36
3, 109560, Note_on_c, 0, 51, 0
3, 109560, Note_on_c, 0, 54, 30
3, 109680, Note_on_c, 0, 54, 0
3, 109680, Note_on_c, 0, 56, 32
3, 109800, Note_on_c, 0, 56, 0
3, 109800, Note_on_c, 0, 54, 29
3, 109920, Note_on_c, 0, 54, 0
3, 109920, Note_on_c, 0, 51, 36
3, 110040, Note_on_c, 0, 51, 0
3, 110040, Note_on_c, 0, 54, 29
3, 110160, Note_on_c, 0, 54, 0
3, 110160, Note_on_c, 0, 56, 32
3, 110280, Note_on_c, 0, 56, 0
3, 110280, Note_on_c, 0, 54, 29
3, 110400, Note_on_c, 0, 54, 0
3, 110400, Note_on_c, 0, 51, 35
3, 110520, Note_on_c, 0, 51, 0
3, 110520, Note_on_c, 0, 54, 29
3, 110640, Note_on_c, 0, 54, 0
3, 110640, Note_on_c, 0, 56, 31
3, 110760, Note_on_c, 0, 56, 0
3, 110760, Note_on_c, 0, 54, 27
3, 110880, Note_on_c, 0, 54, 0
3, 110880, Note_on_c, 0, 49, 40
3, 111000, Note_on_c, 0, 49, 0
3, 111000, Note_on_c, 0, 52, 34
3, 111120, Note_on_c, 0, 52, 0
3, 111120, Note_on_c, 0, 56, 36
3, 111240, Note_on_c, 0, 56, 0
3, 111240, Note_on_c, 0, 52, 33
3, 111360, Note_on_c, 0, 52, 0
3, 111360, Note_on_c, 0, 49, 40
3, 111480, Note_on_c, 0, 49, 0
3, 111480, Note_on_c, 0, 52, 33
3, 111600, Note_on_c, 0, 52, 0
3, 111600, Note_on_c, 0, 56, 36
3, 111720, Note_on_c, 0, 56, 0
3, 111720, Note_on_c, 0, 52, 33
3, 111840, Note_on_c, 0, 52, 0
3, 111840, Note_on_c, 0, 47, 39
3, 111960, Note_on_c, 0, 47, 0
3, 111960, Note_on_c, 0, 51, 34
3, 112080, Note_on_c, 0, 51, 0
3, 112080, Note_on_c, 0, 56, 36
3, 112200, Note_on_c, 0, 56, 0
3, 112200, Note_on_c, 0, 51, 33
3, 112320, Note_on_c, 0, 51, 0
3, 112320, Note_on_c, 0, 46, 36
3, 112320, Note_on_c, 0, 53, 36
3, 113040, Note_on_c, 0, 53, 0
3, 113040, Note_on_c, 0, 46, 0
3, 113040, Note_on_c, 0, 46, 29
3, 113040, Note_on_c, 0, 53, 29
3, 113280, Note_on_c, 0, 53, 0
3, 113280, Note_on_c, 0, 46, 0
3, 113280, Note_on_c, 0, 46, 32
3, 113280, Note_on_c, 0, 53, 32
3, 113520, Note_on_c, 0, 53, 0
3, 113520, Note_on_c, 0, 46, 0
3, 113520, Note_on_c, 0, 46, 29
3, 113520, Note_on_c, 0, 53, 29
3, 113760, Note_on_c, 0, 53, 0
3, 113760, Note_on_c, 0, 46, 0
3, 113760, Note_on_c, 0, 46, 32
3, 113760, Note_on_c, 0, 53, 32
3, 114240, Note_on_c, 0, 53, 0
3, 114240, Note_on_c, 0, 46, 0
3, 114480, Note_on_c, 0, 65, 27
3, 114480, Note_on_c, 0, 58, 27
3, 114696, Note_on_c, 0, 58, 0
3, 114696, Note_on_c, 0, 65, 0
3, 114720, Note_on_c, 0, 65, 27
3, 114720, Note_on_c, 0, 58, 27
3, 114936, Note_on_c, 0, 58, 0
3, 114936, Note_on_c, 0, 65, 0
3, 114960, Note_on_c, 0, 65, 27
3, 114960, Note_on_c, 0, 58, 27
3, 115176, Note_on_c, 0, 58, 0
3, 115176, Note_on_c, 0, 65, 0
3, 115200, Note_on_c, 0, 58, 31
3, 115200, Note_on_c, 0, 65, 31
3, 115680, Note_on_c, 0, 65, 0
3, 115680, Note_on_c, 0, 58, 0
3, 116640, Control_c, 0, 91, 127
3, 116641, Note_on_c, 0, 51, 39
3, 117601, Note_on_c, 0, 51, 0
3, 118080, Note_on_c, 0, 51, 37
3, 118200, Note_on_c, 0, 51, 0
3, 118200, Note_on_c, 0, 55, 33
3, 118320, Note_on_c, 0, 55, 0
3, 118320, Note_on_c, 0, 58, 36
3, 118440, Note_on_c, 0, 58, 0
3, 118440, Note_on_c, 0, 51, 33
3, 118560, Note_on_c, 0, 51, 0
3, 118560, Note_on_c, 0, 53, 40
3, 118680, Note_on_c, 0, 53, 0
3, 118680, Note_on_c, 0, 56, 32
3, 118800, Note_on_c, 0, 56, 0
3, 118800, Note_on_c, 0, 62, 35
3, 118920, Note_on_c, 0, 62, 0
3, 118920, Note_on_c, 0, 53, 33
3, 119040, Note_on_c, 0, 53, 0
3, 119040, Note_on_c, 0, 55, 40
3, 119160, Note_on_c, 0, 55, 0
3, 119160, Note_on_c, 0, 58, 32
3, 119280, Note_on_c, 0, 58, 0
3, 119280, Note_on_c, 0, 63, 36
3, 119400, Note_on_c, 0, 63, 0
3, 119400, Note_on_c, 0, 55, 33
3, 119520, Note_on_c, 0, 55, 0
3, 119520, Note_on_c, 0, 56, 41
3, 119520, Note_on_c, 0, 60, 41
3, 120960, Note_on_c, 0, 60, 0
3, 120960, Note_on_c, 0, 56, 0
3, 120960, Note_on_c, 0, 45, 44
3, 121080, Note_on_c, 0, 45, 0
3, 121080, Note_on_c, 0, 46, 46
3, 121200, Note_on_c, 0, 46, 0
3, 121200, Note_on_c, 0, 48, 49
3, 121320, Note_on_c, 0, 48, 0
3, 121320, Note_on_c, 0, 46, 45
3, 121430, Note_on_c, 0, 46, 0
3, 121440, Note_on_c, 0, 46, 45
3, 121920, Note_on_c, 0, 46, 0
3, 122400, Note_on_c, 0, 39, 45
3, 122400, Note_on_c, 0, 51, 45
3, 122880, Note_on_c, 0, 51, 0
3, 122880, Note_on_c, 0, 39, 0
3, 123360, Note_on_c, 0, 51, 53
3, 123360, Note_on_c, 0, 60, 53
3, 123840, Note_on_c, 0, 60, 0
3, 123840, Note_on_c, 0, 51, 0
3, 123840, Note_on_c, 0, 53, 51
3, 123840, Note_on_c, 0, 60, 51
3, 124320, Note_on_c, 0, 60, 0
3, 124320, Note_on_c, 0, 53, 0
3, 124320, Note_on_c, 0, 58, 46
3, 124320, Note_on_c, 0, 62, 46
3, 124560, Note_on_c, 0, 58, 0
3, 124560, Note_on_c, 0, 59, 40
3, 124800, Note_on_c, 0, 59, 0
3, 124800, Note_on_c, 0, 62, 0
3, 124800, Note_on_c, 0, 63, 47
3, 124800, Note_on_c, 0, 60, 47
3, 125040, Note_on_c, 0, 60, 0
3, 125040, Note_on_c, 0, 55, 45
3, 125280, Note_on_c, 0, 55, 0
3, 125280, Note_on_c, 0, 56, 50
3, 125520, Note_on_c, 0, 56, 0
3, 125520, Note_on_c, 0, 63, 0
3, 125760, Note_on_c, 0, 46, 51
3, 125760, Note_on_c, 0, 55, 51
3, 126240, Note_on_c, 0, 55, 0
3, 126240, Note_on_c, 0, 56, 37
3, 126720, Note_on_c, 0, 56, 0
3, 126720, Note_on_c, 0, 46, 0
3, 126720, Note_on_c, 0, 51, 30
3, 126840, Note_on_c, 0, 51, 0
3, 126840, Note_on_c, 0, 55, 26
3, 126960, Note_on_c, 0, 55, 0
3, 126960, Note_on_c, 0, 58, 27
3, 127080, Note_on_c, 0, 58, 0
3, 127080, Note_on_c, 0, 55, 27
3, 127200, Note_on_c, 0, 55, 0
3, 127200, Note_on_c, 0, 51, 30
3, 127320, Note_on_c, 0, 51, 0
3, 127320, Note_on_c, 0, 55, 27
3, 127440, Note_on_c, 0, 55, 0
3, 127440, Note_on_c, 0, 58, 29
3, 127560, Note_on_c, 0, 58, 0
3, 127560, Note_on_c, 0, 55, 27
3, 127680, Note_on_c, 0, 55, 0
3, 127680, Note_on_c, 0, 51, 33
3, 127800, Note_on_c, 0, 51, 0
3, 127800, Note_on_c, 0, 55, 27
3, 127920, Note_on_c, 0, 55, 0
3, 127920, Note_on_c, 0, 58, 29
3, 128040, Note_on_c, 0, 58, 0
3, 128040, Note_on_c, 0, 55, 27
3, 128160, Note_on_c, 0, 55, 0
3, 128160, Note_on_c, 0, 51, 36
3, 128280, Note_on_c, 0, 51, 0
3, 128280, Note_on_c, 0, 53, 27
3, 128400, Note_on_c, 0, 53, 0
3, 128400, Note_on_c, 0, 56, 30
3, 128520, Note_on_c, 0, 56, 0
3, 128520, Note_on_c, 0, 53, 27
3, 128640, Note_on_c, 0, 53, 0
3, 128640, Note_on_c, 0, 51, 32
3, 128760, Note_on_c, 0, 51, 0
3, 128760, Note_on_c, 0, 53, 27
3, 128880, Note_on_c, 0, 53, 0
3, 128880, Note_on_c, 0, 56, 27
3, 129000, Note_on_c, 0, 56, 0
3, 129000, Note_on_c, 0, 53, 26
3, 129120, Note_on_c, 0, 53, 0
3, 129120, Note_on_c, 0, 51, 32
3, 129240, Note_on_c, 0, 51, 0
3, 129240, Note_on_c, 0, 53, 27
3, 129360, Note_on_c, 0, 53, 0
3, 129360, Note_on_c, 0, 56, 27
3, 129480, Note_on_c, 0, 56, 0
3, 129480, Note_on_c, 0, 53, 27
3, 129600, Note_on_c, 0, 53, 0
3, 129600, Note_on_c, 0, 51, 33
3, 129720, Note_on_c, 0, 51, 0
3, 129720, Note_on_c, 0, 55, 26
3, 129840, Note_on_c, 0, 55, 0
3, 129840, Note_on_c, 0, 58, 27
3, 129960, Note_on_c, 0, 58, 0
3, 129960, Note_on_c, 0, 55, 26
3, 130080, Note_on_c, 0, 55, 0
3, 130080, Note_on_c, 0, 51, 31
3, 130200, Note_on_c, 0, 51, 0
3, 130200, Note_on_c, 0, 55, 26
3, 130320, Note_on_c, 0, 55, 0
3, 130320, Note_on_c, 0, 58, 27
3, 130440, Note_on_c, 0, 58, 0
3, 130440, Note_on_c, 0, 55, 26
3, 130560, Note_on_c, 0, 55, 0
3, 130560, Note_on_c, 0, 51, 33
3, 130680, Note_on_c, 0, 51, 0
3, 130680, Note_on_c, 0, 55, 27
3, 130800, Note_on_c, 0, 55, 0
3, 130800, Note_on_c, 0, 58, 30
3, 130920, Note_on_c, 0, 58, 0
3, 130920, Note_on_c, 0, 55, 27
3, 131040, Note_on_c, 0, 55, 0
3, 131040, Note_on_c, 0, 51, 36
3, 131160, Note_on_c, 0, 51, 0
3, 131160, Note_on_c, 0, 53, 25
3, 131280, Note_on_c, 0, 53, 0
3, 131280, Note_on_c, 0, 56, 27
3, 131400, Note_on_c, 0, 56, 0
3, 131400, Note_on_c, 0, 53, 24
3, 131520, Note_on_c, 0, 53, 0
3, 131520, Note_on_c, 0, 51, 29
3, 131640, Note_on_c, 0, 51, 0
3, 131640, Note_on_c, 0, 53, 23
3, 131760, Note_on_c, 0, 53, 0
3, 131760, Note_on_c, 0, 56, 27
3, 131880, Note_on_c, 0, 56, 0
3, 131880, Note_on_c, 0, 53, 23
3, 132000, Note_on_c, 0, 53, 0
3, 132000, Note_on_c, 0, 51, 30
3, 132120, Note_on_c, 0, 51, 0
3, 132120, Note_on_c, 0, 53, 26
3, 132240, Note_on_c, 0, 53, 0
3, 132240, Note_on_c, 0, 56, 26
3, 132360, Note_on_c, 0, 56, 0
3, 132360, Note_on_c, 0, 53, 25
3, 132480, Note_on_c, 0, 53, 0
3, 132480, Note_on_c, 0, 51, 27
3, 132480, Note_on_c, 0, 55, 27
3, 132960, Note_on_c, 0, 55, 0
3, 132960, Note_on_c, 0, 51, 0
3, 133200, Note_on_c, 0, 55, 32
3, 133440, Note_on_c, 0, 55, 0
3, 133440, Note_on_c, 0, 56, 34
3, 133680, Note_on_c, 0, 56, 0
3, 133680, Note_on_c, 0, 57, 35
3, 133920, Note_on_c, 0, 57, 0
3, 133920, Note_on_c, 0, 58, 37
3, 134520, Note_on_c, 0, 58, 0
3, 134520, Note_on_c, 0, 59, 41
3, 134640, Note_on_c, 0, 59, 0
3, 134640, Note_on_c, 0, 60, 45
3, 134760, Note_on_c, 0, 60, 0
3, 134760, Note_on_c, 0, 58, 43
3, 134870, Note_on_c, 0, 58, 0
3, 134880, Note_on_c, 0, 58, 45
3, 135000, Note_on_c, 0, 58, 0
3, 135000, Note_on_c, 0, 56, 44
3, 135120, Note_on_c, 0, 56, 0
3, 135120, Note_on_c, 0, 55, 45
3, 135240, Note_on_c, 0, 55, 0
3, 135240, Note_on_c, 0, 53, 45
3, 135360, Note_on_c, 0, 53, 0
3, 135360, Note_on_c, 0, 51, 53
3, 135600, Note_on_c, 0, 51, 0
3, 135600, Note_on_c, 0, 55, 45
3, 135840, Note_on_c, 0, 55, 0
3, 135840, Note_on_c, 0, 58, 47
3, 136080, Note_on_c, 0, 58, 0
3, 136080, Note_on_c, 0, 63, 45
3, 136320, Note_on_c, 0, 63, 0
3, 136320, Note_on_c, 0, 68, 51
3, 136560, Note_on_c, 0, 68, 0
3, 136560, Note_on_c, 0, 67, 47
3, 136800, Note_on_c, 0, 67, 0
3, 136800, Note_on_c, 0, 68, 51
3, 136800, Note_on_c, 0, 65, 51
3, 137040, Note_on_c, 0, 65, 0
3, 137040, Note_on_c, 0, 68, 0
3, 137040, Note_on_c, 0, 67, 47
3, 137040, Note_on_c, 0, 63, 47
3, 137280, Note_on_c, 0, 63, 0
3, 137280, Note_on_c, 0, 67, 0
3, 137280, Note_on_c, 0, 62, 47
3, 137280, Note_on_c, 0, 65, 47
3, 137520, Note_on_c, 0, 65, 0
3, 137520, Note_on_c, 0, 62, 0
3, 138480, Note_on_c, 0, 58, 45
3, 138720, Note_on_c, 0, 58, 0
3, 138720, Note_on_c, 0, 62, 45
3, 138960, Note_on_c, 0, 62, 0
3, 138960, Note_on_c, 0, 65, 45
3, 139200, Note_on_c, 0, 65, 0
3, 139200, Note_on_c, 0, 67, 50
3, 139440, Note_on_c, 0, 67, 0
3, 139440, Note_on_c, 0, 70, 45
3, 139440, Note_on_c, 0, 68, 45
3, 139680, Note_on_c, 0, 68, 0
3, 139680, Note_on_c, 0, 67, 51
3, 139920, Note_on_c, 0, 67, 0
3, 139920, Note_on_c, 0, 70, 0
3, 139920, Note_on_c, 0, 65, 45
3, 139920, Note_on_c, 0, 68, 45
3, 140160, Note_on_c, 0, 68, 0
3, 140160, Note_on_c, 0, 65, 0
3, 140160, Note_on_c, 0, 63, 50
3, 140160, Note_on_c, 0, 67, 50
3, 140400, Note_on_c, 0, 67, 0
3, 140400, Note_on_c, 0, 63, 0
3, 140400, Note_on_c, 0, 39, 54
3, 140400, Note_on_c, 0, 51, 54
3, 140616, Note_on_c, 0, 51, 0
3, 140616, Note_on_c, 0, 39, 0
3, 140640, Note_on_c, 0, 39, 56
3, 140640, Note_on_c, 0, 51, 56
3, 140856, Note_on_c, 0, 51, 0
3, 140856, Note_on_c, 0, 39, 0
3, 140880, Note_on_c, 0, 39, 54
3, 140880, Note_on_c, 0, 51, 54
3, 141096, Note_on_c, 0, 51, 0
3, 141096, Note_on_c, 0, 39, 0
3, 141360, Note_on_c, 0, 63, 47
3, 141360, Note_on_c, 0, 55, 47
3, 141576, Note_on_c, 0, 55, 0
3, 141576, Note_on_c, 0, 63, 0
3, 141600, Note_on_c, 0, 55, 49
3, 141600, Note_on_c, 0, 63, 49
3, 141816, Note_on_c, 0, 63, 0
3, 141816, Note_on_c, 0, 55, 0
3, 141840, Note_on_c, 0, 55, 48
3, 141840, Note_on_c, 0, 63, 48
3, 142056, Note_on_c, 0, 63, 0
3, 142056, Note_on_c, 0, 55, 0
3, 142080, Note_on_c, 0, 55, 51
3, 142080, Note_on_c, 0, 63, 51
3, 142296, Note_on_c, 0, 63, 0
3, 142296, Note_on_c, 0, 55, 0
3, 142320, Note_on_c, 0, 55, 45
3, 142320, Note_on_c, 0, 63, 45
3, 142536, Note_on_c, 0, 63, 0
3, 142536, Note_on_c, 0, 55, 0
3, 142800, Note_on_c, 0, 55, 47
3, 142800, Note_on_c, 0, 63, 47
3, 143040, Note_on_c, 0, 55, 0
3, 143040, Note_on_c, 0, 56, 50
3, 143280, Note_on_c, 0, 56, 0
3, 143280, Note_on_c, 0, 63, 0
3, 143280, Note_on_c, 0, 63, 55
3, 143280, Note_on_c, 0, 56, 55
3, 143496, Note_on_c, 0, 56, 0
3, 143496, Note_on_c, 0, 63, 0
3, 143520, Note_on_c, 0, 56, 55
3, 143520, Note_on_c, 0, 63, 55
3, 143736, Note_on_c, 0, 63, 0
3, 143736, Note_on_c, 0, 56, 0
3, 143760, Note_on_c, 0, 56, 50
3, 143760, Note_on_c, 0, 63, 50
3, 143976, Note_on_c, 0, 63, 0
3, 143976, Note_on_c, 0, 56, 0
3, 144000, Note_on_c, 0, 55, 53
3, 144000, Note_on_c, 0, 63, 53
3, 144240, Note_on_c, 0, 63, 0
3, 144240, Note_on_c, 0, 55, 0
3, 144240, Note_on_c, 0, 56, 48
3, 144240, Note_on_c, 0, 63, 48
3, 144480, Note_on_c, 0, 63, 0
3, 144480, Note_on_c, 0, 56, 0
3, 144480, Note_on_c, 0, 46, 50
3, 144480, Note_on_c, 0, 55, 50
3, 144696, Note_on_c, 0, 55, 0
3, 144696, Note_on_c, 0, 46, 0
3, 144720, Note_on_c, 0, 46, 46
3, 144720, Note_on_c, 0, 55, 46
3, 144936, Note_on_c, 0, 55, 0
3, 144936, Note_on_c, 0, 46, 0
3, 144960, Note_on_c, 0, 46, 39
3, 144960, Note_on_c, 0, 56, 39
3, 145176, Note_on_c, 0, 56, 0
3, 145176, Note_on_c, 0, 46, 0
3, 145200, Note_on_c, 0, 46, 39
3, 145200, Note_on_c, 0, 56, 39
3, 145416, Note_on_c, 0, 56, 0
3, 145416, Note_on_c, 0, 46, 0
3, 145440, Note_on_c, 0, 51, 45
3, 145440, Note_on_c, 0, 55, 45
3, 145560, Note_on_c, 0, 55, 0
3, 145560, Note_on_c, 0, 51, 0
3, 145560, Note_on_c, 0, 51, 50
3, 145680, Note_on_c, 0, 51, 0
3, 145680, Note_on_c, 0, 55, 54
3, 145800, Note_on_c, 0, 55, 0
3, 145800, Note_on_c, 0, 58, 57
3, 145920, Note_on_c, 0, 58, 0
3, 145920, Note_on_c, 0, 56, 63
3, 146040, Note_on_c, 0, 56, 0
3, 146040, Note_on_c, 0, 58, 56
3, 146160, Note_on_c, 0, 58, 0
3, 146160, Note_on_c, 0, 55, 63
3, 146280, Note_on_c, 0, 55, 0
3, 146280, Note_on_c, 0, 58, 56
3, 146400, Note_on_c, 0, 58, 0
3, 146400, Note_on_c, 0, 53, 63
3, 146520, Note_on_c, 0, 53, 0
3, 146520, Note_on_c, 0, 58, 56
3, 146640, Note_on_c, 0, 58, 0
3, 146640, Note_on_c, 0, 51, 63
3, 146760, Note_on_c, 0, 51, 0
3, 146760, Note_on_c, 0, 58, 56
3, 146880, Note_on_c, 0, 58, 0
3, 146880, Note_on_c, 0, 50, 63
3, 147000, Note_on_c, 0, 50, 0
3, 147000, Note_on_c, 0, 53, 54
3, 147120, Note_on_c, 0, 53, 0
3, 147120, Note_on_c, 0, 56, 56
3, 147240, Note_on_c, 0, 56, 0
3, 147240, Note_on_c, 0, 55, 53
3, 147360, Note_on_c, 0, 55, 0
3, 147360, Note_on_c, 0, 53, 61
3, 147480, Note_on_c, 0, 53, 0
3, 147480, Note_on_c, 0, 51, 54
3, 147600, Note_on_c, 0, 51, 0
3, 147600, Note_on_c, 0, 50, 56
3, 147720, Note_on_c, 0, 50, 0
3, 147720, Note_on_c, 0, 48, 54
3, 147840, Note_on_c, 0, 48, 0
3, 147840, Note_on_c, 0, 46, 56
3, 147960, Note_on_c, 0, 46, 0
3, 147960, Note_on_c, 0, 48, 54
3, 148080, Note_on_c, 0, 48, 0
3, 148080, Note_on_c, 0, 44, 56
3, 148200, Note_on_c, 0, 44, 0
3, 148200, Note_on_c, 0, 46, 52
3, 148320, Note_on_c, 0, 46, 0
3, 148320, Note_on_c, 0, 43, 61
3, 148440, Note_on_c, 0, 43, 0
3, 148440, Note_on_c, 0, 46, 47
3, 148560, Note_on_c, 0, 46, 0
3, 148560, Note_on_c, 0, 51, 52
3, 148680, Note_on_c, 0, 51, 0
3, 148680, Note_on_c, 0, 46, 47
3, 148800, Note_on_c, 0, 46, 0
3, 148800, Note_on_c, 0, 55, 52
3, 148920, Note_on_c, 0, 55, 0
3, 149040, Note_on_c, 0, 51, 43
3, 149040, Note_on_c, 0, 55, 43
3, 149280, Note_on_c, 0, 55, 0
3, 149280, Note_on_c, 0, 51, 0
3, 149280, Note_on_c, 0, 53, 43
3, 149280, Note_on_c, 0, 56, 43
3, 149520, Note_on_c, 0, 56, 0
3, 149520, Note_on_c, 0, 53, 0
3, 149520, Note_on_c, 0, 55, 43
3, 149520, Note_on_c, 0, 58, 43
3, 149760, Note_on_c, 0, 58, 0
3, 149760, Note_on_c, 0, 55, 0
3, 149760, Note_on_c, 0, 56, 46
3, 149760, Note_on_c, 0, 60, 46
3, 150240, Note_on_c, 0, 60, 0
3, 150240, Note_on_c, 0, 56, 0
3, 150480, Note_on_c, 0, 44, 36
3, 150480, Note_on_c, 0, 53, 36
3, 150720, Note_on_c, 0, 53, 0
3, 150720, Note_on_c, 0, 44, 0
3, 150720, Note_on_c, 0, 46, 43
3, 150720, Note_on_c, 0, 55, 43
3, 150960, Note_on_c, 0, 55, 0
3, 150960, Note_on_c, 0, 56, 36
3, 151190, Note_on_c, 0, 56, 0
3, 151200, Note_on_c, 0, 46, 0
3, 151200, Note_on_c, 0, 51, 45
3, 151200, Note_on_c, 0, 56, 45
3, 151680, Note_on_c, 0, 56, 0
3, 151680, Note_on_c, 0, 55, 35
3, 151800, Note_on_c, 0, 55, 0
3, 151800, Note_on_c, 0, 51, 0
3, 151800, Note_on_c, 0, 63, 52
3, 151920, Note_on_c, 0, 63, 0
3, 151920, Note_on_c, 0, 67, 54
3, 152040, Note_on_c, 0, 67, 0
3, 152040, Note_on_c, 0, 70, 51
3, 152160, Note_on_c, 0, 70, 0
3, 152160, Note_on_c, 0, 68, 57
3, 152280, Note_on_c, 0, 68, 0
3, 152280, Note_on_c, 0, 67, 52
3, 152400, Note_on_c, 0, 67, 0
3, 152400, Note_on_c, 0, 65, 54
3, 152520, Note_on_c, 0, 65, 0
3, 152520, Note_on_c, 0, 63, 53
3, 152640, Note_on_c, 0, 63, 0
3, 152640, Note_on_c, 0, 62, 63
3, 152760, Note_on_c, 0, 62, 0
3, 152760, Note_on_c, 0, 65, 54
3, 152880, Note_on_c, 0, 65, 0
3, 152880, Note_on_c, 0, 68, 56
3, 153000, Note_on_c, 0, 68, 0
3, 153000, Note_on_c, 0, 67, 54
3, 153120, Note_on_c, 0, 67, 0
3, 153120, Note_on_c, 0, 65, 61
3, 153240, Note_on_c, 0, 65, 0
3, 153240, Note_on_c, 0, 63, 54
3, 153360, Note_on_c, 0, 63, 0
3, 153360, Note_on_c, 0, 62, 56
3, 153480, Note_on_c, 0, 62, 0
3, 153480, Note_on_c, 0, 60, 54
3, 153600, Note_on_c, 0, 60, 0
3, 153600, Note_on_c, 0, 58, 56
3, 153720, Note_on_c, 0, 58, 0
3, 153720, Note_on_c, 0, 60, 54
3, 153840, Note_on_c, 0, 60, 0
3, 153840, Note_on_c, 0, 56, 56
3, 153960, Note_on_c, 0, 56, 0
3, 153960, Note_on_c, 0, 58, 53
3, 154080, Note_on_c, 0, 58, 0
3, 154080, Note_on_c, 0, 55, 61
3, 154200, Note_on_c, 0, 55, 0
3, 154200, Note_on_c, 0, 58, 45
3, 154320, Note_on_c, 0, 58, 0
3, 154320, Note_on_c, 0, 60, 49
3, 154440, Note_on_c, 0, 60, 0
3, 154440, Note_on_c, 0, 62, 45
3, 154560, Note_on_c, 0, 62, 0
3, 154560, Note_on_c, 0, 63, 46
3, 154680, Note_on_c, 0, 63, 0
3, 154800, Note_on_c, 0, 63, 43
3, 154800, Note_on_c, 0, 67, 43
3, 155040, Note_on_c, 0, 67, 0
3, 155040, Note_on_c, 0, 63, 0
3, 155040, Note_on_c, 0, 65, 43
3, 155040, Note_on_c, 0, 68, 43
3, 155280, Note_on_c, 0, 68, 0
3, 155280, Note_on_c, 0, 65, 0
3, 155280, Note_on_c, 0, 67, 36
3, 155280, Note_on_c, 0, 70, 36
3, 155520, Note_on_c, 0, 70, 0
3, 155520, Note_on_c, 0, 67, 0
3, 155520, Note_on_c, 0, 68, 43
3, 155520, Note_on_c, 0, 72, 43
3, 155760, Note_on_c, 0, 72, 0
3, 155760, Note_on_c, 0, 68, 0
3, 156480, Note_on_c, 0, 62, 43
3, 156480, Note_on_c, 0, 58, 43
3, 156480, Note_on_c, 0, 68, 43
3, 156720, Note_on_c, 0, 62, 0
3, 156720, Note_on_c, 0, 65, 43
3, 156960, Note_on_c, 0, 65, 0
3, 156960, Note_on_c, 0, 68, 0
3, 156960, Note_on_c, 0, 58, 0
3, 156960, Note_on_c, 0, 63, 43
3, 157080, Note_on_c, 0, 63, 0
3, 157080, Note_on_c, 0, 67, 39
3, 157200, Note_on_c, 0, 67, 0
3, 157200, Note_on_c, 0, 70, 40
3, 157320, Note_on_c, 0, 70, 0
3, 157320, Note_on_c, 0, 67, 42
3, 157440, Note_on_c, 0, 67, 0
3, 157440, Note_on_c, 0, 63, 46
3, 157560, Note_on_c, 0, 63, 0
3, 157560, Note_on_c, 0, 67, 44
3, 157680, Note_on_c, 0, 67, 0
3, 157680, Note_on_c, 0, 70, 49
3, 157800, Note_on_c, 0, 70, 0
3, 157800, Note_on_c, 0, 67, 50
3, 157920, Note_on_c, 0, 67, 0
3, 157920, Note_on_c, 0, 68, 58
3, 158040, Note_on_c, 0, 68, 0
3, 158040, Note_on_c, 0, 65, 55
3, 158160, Note_on_c, 0, 65, 0
3, 158160, Note_on_c, 0, 70, 56
3, 158280, Note_on_c, 0, 70, 0
3, 158280, Note_on_c, 0, 68, 58
3, 158400, Note_on_c, 0, 68, 0
3, 158400, Note_on_c, 0, 67, 62
3, 158520, Note_on_c, 0, 67, 0
3, 158520, Note_on_c, 0, 70, 56
3, 158640, Note_on_c, 0, 70, 0
3, 158640, Note_on_c, 0, 67, 53
3, 158760, Note_on_c, 0, 67, 0
3, 158760, Note_on_c, 0, 65, 55
3, 158880, Note_on_c, 0, 65, 0
3, 158880, Note_on_c, 0, 63, 70
3, 159000, Note_on_c, 0, 63, 0
3, 159000, Note_on_c, 0, 61, 61
3, 159120, Note_on_c, 0, 61, 0
3, 159120, Note_on_c, 0, 58, 64
3, 159240, Note_on_c, 0, 58, 0
3, 159240, Note_on_c, 0, 55, 61
3, 159360, Note_on_c, 0, 55, 0
3, 159360, Note_on_c, 0, 56, 70
3, 159480, Note_on_c, 0, 56, 0
3, 159480, Note_on_c, 0, 53, 64
3, 159600, Note_on_c, 0, 53, 0
3, 159600, Note_on_c, 0, 58, 70
3, 159720, Note_on_c, 0, 58, 0
3, 159720, Note_on_c, 0, 46, 59
3, 159840, Note_on_c, 0, 46, 0
3, 159840, Note_on_c, 0, 51, 50
3, 160560, Note_on_c, 0, 51, 0
3, 160560, Note_on_c, 0, 56, 42
3, 160800, Note_on_c, 0, 56, 0
3, 160800, Note_on_c, 0, 55, 45
3, 161040, Note_on_c, 0, 55, 0
3, 161040, Note_on_c, 0, 53, 47
3, 161280, Note_on_c, 0, 53, 0
3, 161280, Note_on_c, 0, 52, 56
3, 161280, Control_c, 0, 91, 127
3, 162240, Note_on_c, 0, 52, 0
3, 162240, Note_on_c, 0, 48, 46
3, 162720, Note_on_c, 0, 48, 0
3, 162720, Note_on_c, 0, 49, 53
3, 163680, Note_on_c, 0, 49, 0
3, 163680, Note_on_c, 0, 60, 43
3, 163680, Note_on_c, 0, 56, 43
3, 164160, Note_on_c, 0, 56, 0
3, 164160, Note_on_c, 0, 60, 0
3, 164160, Note_on_c, 0, 58, 43
3, 164160, Note_on_c, 0, 61, 43
3, 164640, Note_on_c, 0, 61, 0
3, 164640, Note_on_c, 0, 58, 0
3, 165120, Note_on_c, 0, 60, 43
3, 165120, Note_on_c, 0, 70, 43
3, 165600, Note_on_c, 0, 70, 0
3, 165600, Note_on_c, 0, 60, 0
3, 165600, Note_on_c, 0, 65, 43
3, 165600, Note_on_c, 0, 70, 43
3, 166080, Note_on_c, 0, 70, 0
3, 166080, Note_on_c, 0, 68, 36
3, 166320, Note_on_c, 0, 68, 0
3, 166320, Note_on_c, 0, 65, 0
3, 166320, Note_on_c, 0, 41, 45
3, 166536, Note_on_c, 0, 41, 0
3, 166560, Note_on_c, 0, 41, 46
3, 166776, Note_on_c, 0, 41, 0
3, 166800, Note_on_c, 0, 41, 44
3, 167016, Note_on_c, 0, 41, 0
3, 167040, Note_on_c, 0, 41, 52
3, 168480, Note_on_c, 0, 41, 0
3, 168480, Note_on_c, 0, 41, 42
3, 169200, Note_on_c, 0, 41, 0
3, 169200, Note_on_c, 0, 41, 45
3, 169416, Note_on_c, 0, 41, 0
3, 169440, Note_on_c, 0, 41, 46
3, 169656, Note_on_c, 0, 41, 0
3, 169680, Note_on_c, 0, 41, 45
3, 169896, Note_on_c, 0, 41, 0
3, 169920, Note_on_c, 0, 42, 54
3, 171360, Note_on_c, 0, 42, 0
3, 171360, Note_on_c, 0, 43, 49
3, 172080, Note_on_c, 0, 43, 0
3, 172080, Note_on_c, 0, 43, 48
3, 172296, Note_on_c, 0, 43, 0
3, 172320, Note_on_c, 0, 43, 50
3, 172536, Note_on_c, 0, 43, 0
3, 172560, Note_on_c, 0, 43, 47
3, 172776, Note_on_c, 0, 43, 0
3, 172800, Note_on_c, 0, 44, 55
3, 173760, Note_on_c, 0, 44, 0
3, 173760, Note_on_c, 0, 45, 62
3, 174240, Note_on_c, 0, 45, 0
3, 174240, Note_on_c, 0, 46, 62
3, 174720, Note_on_c, 0, 46, 0
3, 174720, Note_on_c, 0, 49, 48
3, 175200, Note_on_c, 0, 49, 0
3, 175200, Note_on_c, 0, 48, 54
3, 175680, Note_on_c, 0, 48, 0
3, 175680, Note_on_c, 0, 49, 44
3, 176160, Note_on_c, 0, 49, 0
3, 176160, Note_on_c, 0, 51, 43
3, 176160, Note_on_c, 0, 60, 43
3, 176640, Note_on_c, 0, 60, 0
3, 176640, Note_on_c, 0, 51, 0
3, 176640, Note_on_c, 0, 51, 36
3, 176640, Note_on_c, 0, 61, 36
3, 177120, Note_on_c, 0, 61, 0
3, 177120, Note_on_c, 0, 51, 0
3, 177120, Note_on_c, 0, 56, 33
3, 177240, Note_on_c, 0, 56, 0
3, 177240, Note_on_c, 0, 60, 26
3, 177360, Note_on_c, 0, 60, 0
3, 177360, Note_on_c, 0, 63, 27
3, 177480, Note_on_c, 0, 63, 0
3, 177480, Note_on_c, 0, 60, 25
3, 177600, Note_on_c, 0, 60, 0
3, 177600, Note_on_c, 0, 56, 30
3, 177720, Note_on_c, 0, 56, 0
3, 177720, Note_on_c, 0, 60, 26
3, 177840, Note_on_c, 0, 60, 0
3, 177840, Note_on_c, 0, 63, 29
3, 177960, Note_on_c, 0, 63, 0
3, 177960, Note_on_c, 0, 60, 26
3, 178080, Note_on_c, 0, 60, 0
3, 178080, Note_on_c, 0, 56, 33
3, 178200, Note_on_c, 0, 56, 0
3, 178200, Note_on_c, 0, 60, 27
3, 178320, Note_on_c, 0, 60, 0
3, 178320, Note_on_c, 0, 63, 29
3, 178440, Note_on_c, 0, 63, 0
3, 178440, Note_on_c, 0, 60, 27
3, 178560, Note_on_c, 0, 60, 0
3, 178560, Note_on_c, 0, 55, 36
3, 178680, Note_on_c, 0, 55, 0
3, 178680, Note_on_c, 0, 58, 26
3, 178800, Note_on_c, 0, 58, 0
3, 178800, Note_on_c, 0, 60, 27
3, 178920, Note_on_c, 0, 60, 0
3, 178920, Note_on_c, 0, 58, 26
3, 179040, Note_on_c, 0, 58, 0
3, 179040, Note_on_c, 0, 55, 32
3, 179160, Note_on_c, 0, 55, 0
3, 179160, Note_on_c, 0, 58, 26
3, 179280, Note_on_c, 0, 58, 0
3, 179280, Note_on_c, 0, 60, 27
3, 179400, Note_on_c, 0, 60, 0
3, 179400, Note_on_c, 0, 58, 25
3, 179520, Note_on_c, 0, 58, 0
3, 179520, Note_on_c, 0, 55, 32
3, 179640, Note_on_c, 0, 55, 0
3, 179640, Note_on_c, 0, 58, 27
3, 179760, Note_on_c, 0, 58, 0
3, 179760, Note_on_c, 0, 60, 27
3, 179880, Note_on_c, 0, 60, 0
3, 179880, Note_on_c, 0, 58, 25
3, 180000, Note_on_c, 0, 58, 0
3, 180000, Note_on_c, 0, 53, 36
3, 180120, Note_on_c, 0, 53, 0
3, 180120, Note_on_c, 0, 56, 27
3, 180240, Note_on_c, 0, 56, 0
3, 180240, Note_on_c, 0, 60, 30
3, 180360, Note_on_c, 0, 60, 0
3, 180360, Note_on_c, 0, 56, 27
3, 180480, Note_on_c, 0, 56, 0
3, 180480, Note_on_c, 0, 53, 32
3, 180600, Note_on_c, 0, 53, 0
3, 180600, Note_on_c, 0, 56, 26
3, 180720, Note_on_c, 0, 56, 0
3, 180720, Note_on_c, 0, 60, 27
3, 180840, Note_on_c, 0, 60, 0
3, 180840, Note_on_c, 0, 56, 26
3, 180960, Note_on_c, 0, 56, 0
3, 180960, Note_on_c, 0, 53, 32
3, 181080, Note_on_c, 0, 53, 0
3, 181080, Note_on_c, 0, 56, 27
3, 181200, Note_on_c, 0, 56, 0
3, 181200, Note_on_c, 0, 60, 29
3, 181320, Note_on_c, 0, 60, 0
3, 181320, Note_on_c, 0, 56, 27
3, 181440, Note_on_c, 0, 56, 0
3, 181440, Note_on_c, 0, 51, 36
3, 181560, Note_on_c, 0, 51, 0
3, 181560, Note_on_c, 0, 54, 30
3, 181680, Note_on_c, 0, 54, 0
3, 181680, Note_on_c, 0, 56, 32
3, 181800, Note_on_c, 0, 56, 0
3, 181800, Note_on_c, 0, 54, 29
3, 181920, Note_on_c, 0, 54, 0
3, 181920, Note_on_c, 0, 51, 36
3, 182040, Note_on_c, 0, 51, 0
3, 182040, Note_on_c, 0, 54, 29
3, 182160, Note_on_c, 0, 54, 0
3, 182160, Note_on_c, 0, 56, 32
3, 182280, Note_on_c, 0, 56, 0
3, 182280, Note_on_c, 0, 54, 29
3, 182400, Note_on_c, 0, 54, 0
3, 182400, Note_on_c, 0, 51, 35
3, 182520, Note_on_c, 0, 51, 0
3, 182520, Note_on_c, 0, 54, 29
3, 182640, Note_on_c, 0, 54, 0
3, 182640, Note_on_c, 0, 56, 31
3, 182760, Note_on_c, 0, 56, 0
3, 182760, Note_on_c, 0, 54, 27
3, 182880, Note_on_c, 0, 54, 0
3, 182880, Note_on_c, 0, 49, 40
3, 183000, Note_on_c, 0, 49, 0
3, 183000, Note_on_c, 0, 52, 34
3, 183120, Note_on_c, 0, 52, 0
3, 183120, Note_on_c, 0, 56, 36
3, 183240, Note_on_c, 0, 56, 0
3, 183240, Note_on_c, 0, 52, 33
3, 183360, Note_on_c, 0, 52, 0
3, 183360, Note_on_c, 0, 49, 40
3, 183480, Note_on_c, 0, 49, 0
3, 183480, Note_on_c, 0, 52, 33
3, 183600, Note_on_c, 0, 52, 0
3, 183600, Note_on_c, 0, 56, 36
3, 183720, Note_on_c, 0, 56, 0
3, 183720, Note_on_c, 0, 52, 33
3, 183840, Note_on_c, 0, 52, 0
3, 183840, Note_on_c, 0, 47, 39
3, 183960, Note_on_c, 0, 47, 0
3, 183960, Note_on_c, 0, 51, 34
3, 184080, Note_on_c, 0, 51, 0
3, 184080, Note_on_c, 0, 56, 36
3, 184200, Note_on_c, 0, 56, 0
3, 184200, Note_on_c, 0, 51, 33
3, 184320, Note_on_c, 0, 51, 0
3, 184320, Note_on_c, 0, 46, 36
3, 184320, Note_on_c, 0, 53, 36
3, 185040, Note_on_c, 0, 53, 0
3, 185040, Note_on_c, 0, 46, 0
3, 185040, Note_on_c, 0, 46, 29
3, 185040, Note_on_c, 0, 53, 29
3, 185280, Note_on_c, 0, 53, 0
3, 185280, Note_on_c, 0, 46, 0
3, 185280, Note_on_c, 0, 46, 32
3, 185280, Note_on_c, 0, 53, 32
3, 185520, Note_on_c, 0, 53, 0
3, 185520, Note_on_c, 0, 46, 0
3, 185520, Note_on_c, 0, 46, 29
3, 185520, Note_on_c, 0, 53, 29
3, 185760, Note_on_c, 0, 53, 0
3, 185760, Note_on_c, 0, 46, 0
3, 185760, Note_on_c, 0, 46, 32
3, 185760, Note_on_c, 0, 53, 32
3, 186240, Note_on_c, 0, 53, 0
3, 186240, Note_on_c, 0, 46, 0
3, 186480, Note_on_c, 0, 65, 27
3, 186480, Note_on_c, 0, 58, 27
3, 186696, Note_on_c, 0, 58, 0
3, 186696, Note_on_c, 0, 65, 0
3, 186720, Note_on_c, 0, 65, 27
3, 186720, Note_on_c, 0, 58, 27
3, 186936, Note_on_c, 0, 58, 0
3, 186936, Note_on_c, 0, 65, 0
3, 186960, Note_on_c, 0, 65, 27
3, 186960, Note_on_c, 0, 58, 27
3, 187176, Note_on_c, 0, 58, 0
3, 187176, Note_on_c, 0, 65, 0
3, 187200, Note_on_c, 0, 58, 31
3, 187200, Note_on_c, 0, 65, 31
3, 187680, Note_on_c, 0, 65, 0
3, 187680, Note_on_c, 0, 58, 0
3, 188640, Control_c, 0, 91, 127
3, 188641, Note_on_c, 0, 51, 39
3, 189601, Note_on_c, 0, 51, 0
3, 190080, Note_on_c, 0, 51, 37
3, 190200, Note_on_c, 0, 51, 0
3, 190200, Note_on_c, 0, 55, 33
3, 190320, Note_on_c, 0, 55, 0
3, 190320, Note_on_c, 0, 58, 36
3, 190440, Note_on_c, 0, 58, 0
3, 190440, Note_on_c, 0, 51, 33
3, 190560, Note_on_c, 0, 51, 0
3, 190560, Note_on_c, 0, 53, 40
3, 190680, Note_on_c, 0, 53, 0
3, 190680, Note_on_c, 0, 56, 32
3, 190800, Note_on_c, 0, 56, 0
3, 190800, Note_on_c, 0, 62, 35
3, 190920, Note_on_c, 0, 62, 0
3, 190920, Note_on_c, 0, 53, 33
3, 191040, Note_on_c, 0, 53, 0
3, 191040, Note_on_c, 0, 55, 40
3, 191160, Note_on_c, 0, 55, 0
3, 191160, Note_on_c, 0, 58, 32
3, 191280, Note_on_c, 0, 58, 0
3, 191280, Note_on_c, 0, 63, 36
3, 191400, Note_on_c, 0, 63, 0
3, 191400, Note_on_c, 0, 55, 33
3, 191520, Note_on_c, 0, 55, 0
3, 191520, Note_on_c, 0, 56, 41
3, 191520, Note_on_c, 0, 60, 41
3, 192960, Note_on_c, 0, 60, 0
3, 192960, Note_on_c, 0, 56, 0
3, 192960, Note_on_c, 0, 45, 44
3, 193080, Note_on_c, 0, 45, 0
3, 193080, Note_on_c, 0, 46, 46
3, 193200, Note_on_c, 0, 46, 0
3, 193200, Note_on_c, 0, 48, 49
3, 193320, Note_on_c, 0, 48, 0
3, 193320, Note_on_c, 0, 46, 45
3, 193430, Note_on_c, 0, 46, 0
3, 193440, Note_on_c, 0, 46, 45
3, 193920, Note_on_c, 0, 46, 0
3, 194400, Note_on_c, 0, 39, 45
3, 194400, Note_on_c, 0, 51, 45
3, 194880, Note_on_c, 0, 51, 0
3, 194880, Note_on_c, 0, 39, 0
3, 195360, Note_on_c, 0, 51, 53
3, 195360, Note_on_c, 0, 60, 53
3, 195840, Note_on_c, 0, 60, 0
3, 195840, Note_on_c, 0, 51, 0
3, 195840, Note_on_c, 0, 53, 51
3, 195840, Note_on_c, 0, 60, 51
3, 196320, Note_on_c, 0, 60, 0
3, 196320, Note_on_c, 0, 53, 0
3, 196320, Note_on_c, 0, 58, 46
3, 196320, Note_on_c, 0, 62, 46
3, 196560, Note_on_c, 0, 58, 0
3, 196560, Note_on_c, 0, 59, 40
3, 196800, Note_on_c, 0, 59, 0
3, 196800, Note_on_c, 0, 62, 0
3, 196800, Note_on_c, 0, 63, 47
3, 196800, Note_on_c, 0, 60, 47
3, 197040, Note_on_c, 0, 60, 0
3, 197040, Note_on_c, 0, 55, 45
3, 197280, Note_on_c, 0, 55, 0
3, 197280, Note_on_c, 0, 56, 50
3, 197520, Note_on_c, 0, 56, 0
3, 197520, Note_on_c, 0, 63, 0
3, 197760, Note_on_c, 0, 46, 51
3, 197760, Note_on_c, 0, 55, 51
3, 198240, Note_on_c, 0, 55, 0
3, 198240, Note_on_c, 0, 56, 37
3, 198720, Note_on_c, 0, 56, 0
3, 198720, Note_on_c, 0, 46, 0
3, 198720, Note_on_c, 0, 51, 30
3, 198840, Note_on_c, 0, 51, 0
3, 198840, Note_on_c, 0, 55, 26
3, 198960, Note_on_c, 0, 55, 0
3, 198960, Note_on_c, 0, 58, 27
3, 199080, Note_on_c, 0, 58, 0
3, 199080, Note_on_c, 0, 55, 27
3, 199200, Note_on_c, 0, 55, 0
3, 199200, Note_on_c, 0, 51, 30
3, 199320, Note_on_c, 0, 51, 0
3, 199320, Note_on_c, 0, 55, 27
3, 199440, Note_on_c, 0, 55, 0
3, 199440, Note_on_c, 0, 58, 29
3, 199560, Note_on_c, 0, 58, 0
3, 199560, Note_on_c, 0, 55, 27
3, 199680, Note_on_c, 0, 55, 0
3, 199680, Note_on_c, 0, 51, 33
3, 199800, Note_on_c, 0, 51, 0
3, 199800, Note_on_c, 0, 55, 27
3, 199920, Note_on_c, 0, 55, 0
3, 199920, Note_on_c, 0, 58, 29
3, 200040, Note_on_c, 0, 58, 0
3, 200040, Note_on_c, 0, 55, 27
3, 200160, Note_on_c, 0, 55, 0
3, 200160, Note_on_c, 0, 51, 36
3, 200280, Note_on_c, 0, 51, 0
3, 200280, Note_on_c, 0, 53, 27
3, 200400, Note_on_c, 0, 53, 0
3, 200400, Note_on_c, 0, 56, 30
3, 200520, Note_on_c, 0, 56, 0
3, 200520, Note_on_c, 0, 53, 27
3, 200640, Note_on_c, 0, 53, 0
3, 200640, Note_on_c, 0, 51, 32
3, 200760, Note_on_c, 0, 51, 0
3, 200760, Note_on_c, 0, 53, 27
3, 200880, Note_on_c, 0, 53, 0
3, 200880, Note_on_c, 0, 56, 27
3, 201000, Note_on_c, 0, 56, 0
3, 201000, Note_on_c, 0, 53, 26
3, 201120, Note_on_c, 0, 53, 0
3, 201120, Note_on_c, 0, 51, 32
3, 201240, Note_on_c, 0, 51, 0
3, 201240, Note_on_c, 0, 53, 27
3, 201360, Note_on_c, 0, 53, 0
3, 201360, Note_on_c, 0, 56, 27
3, 201480, Note_on_c, 0, 56, 0
3, 201480, Note_on_c, 0, 53, 27
3, 201600, Note_on_c, 0, 53, 0
3, 201600, Note_on_c, 0, 51, 33
3, 201720, Note_on_c, 0, 51, 0
3, 201720, Note_on_c, 0, 55, 26
3, 201840, Note_on_c, 0, 55, 0
3, 201840, Note_on_c, 0, 58, 27
3, 201960, Note_on_c, 0, 58, 0
3, 201960, Note_on_c, 0, 55, 26
3, 202080, Note_on_c, 0, 55, 0
3, 202080, Note_on_c, 0, 51, 31
3, 202200, Note_on_c, 0, 51, 0
3, 202200, Note_on_c, 0, 55, 26
3, 202320, Note_on_c, 0, 55, 0
3, 202320, Note_on_c, 0, 58, 27
3, 202440, Note_on_c, 0, 58, 0
3, 202440, Note_on_c, 0, 55, 26
3, 202560, Note_on_c, 0, 55, 0
3, 202560, Note_on_c, 0, 51, 33
3, 202680, Note_on_c, 0, 51, 0
3, 202680, Note_on_c, 0, 55, 27
3, 202800, Note_on_c, 0, 55, 0
3, 202800, Note_on_c, 0, 58, 30
3, 202920, Note_on_c, 0, 58, 0
3, 202920, Note_on_c, 0, 55, 27
3, 203040, Note_on_c, 0, 55, 0
3, 203040, Note_on_c, 0, 51, 36
3, 203160, Note_on_c, 0, 51, 0
3, 203160, Note_on_c, 0, 53, 25
3, 203280, Note_on_c, 0, 53, 0
3, 203280, Note_on_c, 0, 56, 27
3, 203400, Note_on_c, 0, 56, 0
3, 203400, Note_on_c, 0, 53, 24
3, 203520, Note_on_c, 0, 53, 0
3, 203520, Note_on_c, 0, 51, 29
3, 203640, Note_on_c, 0, 51, 0
3, 203640, Note_on_c, 0, 53, 23
3, 203760, Note_on_c, 0, 53, 0
3, 203760, Note_on_c, 0, 56, 27
3, 203880, Note_on_c, 0, 56, 0
3, 203880, Note_on_c, 0, 53, 23
3, 204000, Note_on_c, 0, 53, 0
3, 204000, Note_on_c, 0, 51, 30
3, 204120, Note_on_c, 0, 51, 0
3, 204120, Note_on_c, 0, 53, 26
3, 204240, Note_on_c, 0, 53, 0
3, 204240, Note_on_c, 0, 56, 26
3, 204360, Note_on_c, 0, 56, 0
3, 204360, Note_on_c, 0, 53, 25
3, 204480, Note_on_c, 0, 53, 0
3, 204480, Note_on_c, 0, 51, 27
3, 204480, Note_on_c, 0, 55, 27
3, 204960, Note_on_c, 0, 55, 0
3, 204960, Note_on_c, 0, 51, 0
3, 205200, Note_on_c, 0, 55, 32
3, 205440, Note_on_c, 0, 55, 0
3, 205440, Note_on_c, 0, 56, 34
3, 205680, Note_on_c, 0, 56, 0
3, 205680, Note_on_c, 0, 57, 35
3, 205920, Note_on_c, 0, 57, 0
3, 205920, Note_on_c, 0, 58, 37
3, 206520, Note_on_c, 0, 58, 0
3, 206520, Note_on_c, 0, 59, 41
3, 206640, Note_on_c, 0, 59, 0
3, 206640, Note_on_c, 0, 60, 45
3, 206760, Note_on_c, 0, 60, 0
3, 206760, Note_on_c, 0, 58, 43
3, 206870, Note_on_c, 0, 58, 0
3, 206880, Note_on_c, 0, 58, 45
3, 207000, Note_on_c, 0, 58, 0
3, 207000, Note_on_c, 0, 56, 44
3, 207120, Note_on_c, 0, 56, 0
3, 207120, Note_on_c, 0, 55, 45
3, 207240, Note_on_c, 0, 55, 0
3, 207240, Note_on_c, 0, 53, 45
3, 207360, Note_on_c, 0, 53, 0
3, 207360, Note_on_c, 0, 51, 53
3, 207600, Note_on_c, 0, 51, 0
3, 207600, Note_on_c, 0, 55, 45
3, 207840, Note_on_c, 0, 55, 0
3, 207840, Note_on_c, 0, 58, 47
3, 208080, Note_on_c, 0, 58, 0
3, 208080, Note_on_c, 0, 63, 45
3, 208320, Note_on_c, 0, 63, 0
3, 208320, Note_on_c, 0, 68, 51
3, 208560, Note_on_c, 0, 68, 0
3, 208560, Note_on_c, 0, 67, 47
3, 208800, Note_on_c, 0, 67, 0
3, 208800, Note_on_c, 0, 68, 51
3, 208800, Note_on_c, 0, 65, 51
3, 209040, Note_on_c, 0, 65, 0
3, 209040, Note_on_c, 0, 68, 0
3, 209040, Note_on_c, 0, 67, 47
3, 209040, Note_on_c, 0, 63, 47
3, 209280, Note_on_c, 0, 63, 0
3, 209280, Note_on_c, 0, 67, 0
3, 209280, Note_on_c, 0, 62, 47
3, 209280, Note_on_c, 0, 65, 47
3, 209520, Note_on_c, 0, 65, 0
3, 209520, Note_on_c, 0, 62, 0
3, 210480, Note_on_c, 0, 58, 45
3, 210720, Note_on_c, 0, 58, 0
3, 210720, Note_on_c, 0, 62, 45
3, 210960, Note_on_c, 0, 62, 0
3, 210960, Note_on_c, 0, 65, 45
3, 211200, Note_on_c, 0, 65, 0
3, 211200, Note_on_c, 0, 67, 50
3, 211440, Note_on_c, 0, 67, 0
3, 211440, Note_on_c, 0, 70, 45
3, 211440, Note_on_c, 0, 68, 45
3, 211680, Note_on_c, 0, 68, 0
3, 211680, Note_on_c, 0, 67, 51
3, 211920, Note_on_c, 0, 67, 0
3, 211920, Note_on_c, 0, 70, 0
3, 211920, Note_on_c, 0, 65, 45
3, 211920, Note_on_c, 0, 68, 45
3, 212160, Note_on_c, 0, 68, 0
3, 212160, Note_on_c, 0, 65, 0
3, 212160, Note_on_c, 0, 63, 50
3, 212160, Note_on_c, 0, 67, 50
3, 212400, Note_on_c, 0, 67, 0
3, 212400, Note_on_c, 0, 63, 0
3, 212400, Note_on_c, 0, 39, 54
3, 212400, Note_on_c, 0, 51, 54
3, 212616, Note_on_c, 0, 51, 0
3, 212616, Note_on_c, 0, 39, 0
3, 212640, Note_on_c, 0, 39, 56
3, 212640, Note_on_c, 0, 51, 56
3, 212856, Note_on_c, 0, 51, 0
3, 212856, Note_on_c, 0, 39, 0
3, 212880, Note_on_c, 0, 39, 54
3, 212880, Note_on_c, 0, 51, 54
3, 213096, Note_on_c, 0, 51, 0
3, 213096, Note_on_c, 0, 39, 0
3, 213360, Note_on_c, 0, 63, 47
3, 213360, Note_on_c, 0, 55, 47
3, 213576, Note_on_c, 0, 55, 0
3, 213576, Note_on_c, 0, 63, 0
3, 213600, Note_on_c, 0, 55, 49
3, 213600, Note_on_c, 0, 63, 49
3, 213816, Note_on_c, 0, 63, 0
3, 213816, Note_on_c, 0, 55, 0
3, 213840, Note_on_c, 0, 55, 48
3, 213840, Note_on_c, 0, 63, 48
3, 214056, Note_on_c, 0, 63, 0
3, 214056, Note_on_c, 0, 55, 0
3, 214080, Note_on_c, 0, 55, 51
3, 214080, Note_on_c, 0, 63, 51
3, 214296, Note_on_c, 0, 63, 0
3, 214296, Note_on_c, 0, 55, 0
3, 214320, Note_on_c, 0, 55, 45
3, 214320, Note_on_c, 0, 63, 45
3, 214536, Note_on_c, 0, 63, 0
3, 214536, Note_on_c, 0, 55, 0
3, 214800, Note_on_c, 0, 55, 47
3, 214800, Note_on_c, 0, 63, 47
3, 215040, Note_on_c, 0, 55, 0
3, 215040, Note_on_c, 0, 56, 50
3, 215280, Note_on_c, 0, 56, 0
3, 215280, Note_on_c, 0, 63, 0
3, 215280, Note_on_c, 0, 63, 55
3, 215280, Note_on_c, 0, 56, 55
3, 215496, Note_on_c, 0, 56, 0
3, 215496, Note_on_c, 0, 63, 0
3, 215520, Note_on_c, 0, 56, 55
3, 215520, Note_on_c, 0, 63, 55
3, 215736, Note_on_c, 0, 63, 0
3, 215736, Note_on_c, 0, 56, 0
3, 215760, Note_on_c, 0, 56, 50
3, 215760, Note_on_c, 0, 63, 50
3, 215976, Note_on_c, 0, 63, 0
3, 215976, Note_on_c, 0, 56, 0
3, 216000, Note_on_c, 0, 55, 53
3, 216000, Note_on_c, 0, 63, 53
3, 216240, Note_on_c, 0, 63, 0
3, 216240, Note_on_c, 0, 55, 0
3, 216240, Note_on_c, 0, 56, 48
3, 216240, Note_on_c, 0, 63, 48
3, 216480, Note_on_c, 0, 63, 0
3, 216480, Note_on_c, 0, 56, 0
3, 216480, Note_on_c, 0, 46, 50
3, 216480, Note_on_c, 0, 55, 50
3, 216696, Note_on_c, 0, 55, 0
3, 216696, Note_on_c, 0, 46, 0
3, 216720, Note_on_c, 0, 46, 46
3, 216720, Note_on_c, 0, 55, 46
3, 216936, Note_on_c, 0, 55, 0
3, 216936, Note_on_c, 0, 46, 0
3, 216960, Note_on_c, 0, 46, 39
3, 216960, Note_on_c, 0, 56, 39
3, 217176, Note_on_c, 0, 56, 0
3, 217176, Note_on_c, 0, 46, 0
3, 217200, Note_on_c, 0, 46, 39
3, 217200, Note_on_c, 0, 56, 39
3, 217416, Note_on_c, 0, 56, 0
3, 217416, Note_on_c, 0, 46, 0
3, 217440, Note_on_c, 0, 51, 45
3, 217440, Note_on_c, 0, 55, 45
3, 217560, Note_on_c, 0, 55, 0
3, 217560, Note_on_c, 0, 51, 0
3, 217560, Note_on_c, 0, 51, 50
3, 217680, Note_on_c, 0, 51, 0
3, 217680, Note_on_c, 0, 55, 54
3, 217800, Note_on_c, 0, 55, 0
3, 217800, Note_on_c, 0, 58, 57
3, 217920, Note_on_c, 0, 58, 0
3, 217920, Note_on_c, 0, 56, 63
3, 218040, Note_on_c, 0, 56, 0
3, 218040, Note_on_c, 0, 58, 56
3, 218160, Note_on_c, 0, 58, 0
3, 218160, Note_on_c, 0, 55, 63
3, 218280, Note_on_c, 0, 55, 0
3, 218280, Note_on_c, 0, 58, 56
3, 218400, Note_on_c, 0, 58, 0
3, 218400, Note_on_c, 0, 53, 63
3, 218520, Note_on_c, 0, 53, 0
3, 218520, Note_on_c, 0, 58, 56
3, 218640, Note_on_c, 0, 58, 0
3, 218640, Note_on_c, 0, 51, 63
3, 218760, Note_on_c, 0, 51, 0
3, 218760, Note_on_c, 0, 58, 56
3, 218880, Note_on_c, 0, 58, 0
3, 218880, Note_on_c, 0, 50, 63
3, 219000, Note_on_c, 0, 50, 0
3, 219000, Note_on_c, 0, 53, 54
3, 219120, Note_on_c, 0, 53, 0
3, 219120, Note_on_c, 0, 56, 56
3, 219240, Note_on_c, 0, 56, 0
3, 219240, Note_on_c, 0, 55, 53
3, 219360, Note_on_c, 0, 55, 0
3, 219360, Note_on_c, 0, 53, 61
3, 219480, Note_on_c, 0, 53, 0
3, 219480, Note_on_c, 0, 51, 54
3, 219600, Note_on_c, 0, 51, 0
3, 219600, Note_on_c, 0, 50, 56
3, 219720, Note_on_c, 0, 50, 0
3, 219720, Note_on_c, 0, 48, 54
3, 219840, Note_on_c, 0, 48, 0
3, 219840, Note_on_c, 0, 46, 56
3, 219960, Note_on_c, 0, 46, 0
3, 219960, Note_on_c, 0, 48, 54
3, 220080, Note_on_c, 0, 48, 0
3, 220080, Note_on_c, 0, 44, 56
3, 220200, Note_on_c, 0, 44, 0
3, 220200, Note_on_c, 0, 46, 52
3, 220320, Note_on_c, 0, 46, 0
3, 220320, Note_on_c, 0, 43, 61
3, 220440, Note_on_c, 0, 43, 0
3, 220440, Note_on_c, 0, 46, 47
3, 220560, Note_on_c, 0, 46, 0
3, 220560, Note_on_c, 0, 51, 52
3, 220680, Note_on_c, 0, 51, 0
3, 220680, Note_on_c, 0, 46, 47
3, 220800, Note_on_c, 0, 46, 0
3, 220800, Note_on_c, 0, 55, 52
3, 220920, Note_on_c, 0, 55, 0
3, 221040, Note_on_c, 0, 51, 43
3, 221040, Note_on_c, 0, 55, 43
3, 221280, Note_on_c, 0, 55, 0
3, 221280, Note_on_c, 0, 51, 0
3, 221280, Note_on_c, 0, 53, 43
3, 221280, Note_on_c, 0, 56, 43
3, 221520, Note_on_c, 0, 56, 0
3, 221520, Note_on_c, 0, 53, 0
3, 221520, Note_on_c, 0, 55, 43
3, 221520, Note_on_c, 0, 58, 43
3, 221760, Note_on_c, 0, 58, 0
3, 221760, Note_on_c, 0, 55, 0
3, 221760, Note_on_c, 0, 56, 46
3, 221760, Note_on_c, 0, 60, 46
3, 222240, Note_on_c, 0, 60, 0
3, 222240, Note_on_c, 0, 56, 0
3, 222480, Note_on_c, 0, 44, 36
3, 222480, Note_on_c, 0, 53, 36
3, 222720, Note_on_c, 0, 53, 0
3, 222720, Note_on_c, 0, 44, 0
3, 222720, Note_on_c, 0, 46, 43
3, 222720, Note_on_c, 0, 55, 43
3, 222960, Note_on_c, 0, 55, 0
3, 222960, Note_on_c, 0, 56, 36
3, 223190, Note_on_c, 0, 56, 0
3, 223200, Note_on_c, 0, 46, 0
3, 223200, Note_on_c, 0, 51, 45
3, 223200, Note_on_c, 0, 56, 45
3, 223680, Note_on_c, 0, 56, 0
3, 223680, Note_on_c, 0, 55, 35
3, 223800, Note_on_c, 0, 55, 0
3, 223800, Note_on_c, 0, 51, 0
3, 223800, Note_on_c, 0, 63, 52
3, 223920, Note_on_c, 0, 63, 0
3, 223920, Note_on_c, 0, 67, 54
3, 224040, Note_on_c, 0, 67, 0
3, 224040, Note_on_c, 0, 70, 51
3, 224160, Note_on_c, 0, 70, 0
3, 224160, Note_on_c, 0, 68, 57
3, 224280, Note_on_c, 0, 68, 0
3, 224280, Note_on_c, 0, 67, 52
3, 224400, Note_on_c, 0, 67, 0
3, 224400, Note_on_c, 0, 65, 54
3, 224520, Note_on_c, 0, 65, 0
3, 224520, Note_on_c, 0, 63, 53
3, 224640, Note_on_c, 0, 63, 0
3, 224640, Note_on_c, 0, 62, 63
3, 224760, Note_on_c, 0, 62, 0
3, 224760, Note_on_c, 0, 65, 54
3, 224880, Note_on_c, 0, 65, 0
3, 224880, Note_on_c, 0, 68, 56
3, 225000, Note_on_c, 0, 68, 0
3, 225000, Note_on_c, 0, 67, 54
3, 225120, Note_on_c, 0, 67, 0
3, 225120, Note_on_c, 0, 65, 61
3, 225240, Note_on_c, 0, 65, 0
3, 225240, Note_on_c, 0, 63, 54
3, 225360, Note_on_c, 0, 63, 0
3, 225360, Note_on_c, 0, 62, 56
3, 225480, Note_on_c, 0, 62, 0
3, 225480, Note_on_c, 0, 60, 54
3, 225600, Note_on_c, 0, 60, 0
3, 225600, Note_on_c, 0, 58, 56
3, 225720, Note_on_c, 0, 58, 0
3, 225720, Note_on_c, 0, 60, 54
3, 225840, Note_on_c, 0, 60, 0
3, 225840, Note_on_c, 0, 56, 56
3, 225960, Note_on_c, 0, 56, 0
3, 225960, Note_on_c, 0, 58, 53
3, 226080, Note_on_c, 0, 58, 0
3, 226080, Note_on_c, 0, 55, 61
3, 226200, Note_on_c, 0, 55, 0
3, 226200, Note_on_c, 0, 58, 45
3, 226320, Note_on_c, 0, 58, 0
3, 226320, Note_on_c, 0, 60, 49
3, 226440, Note_on_c, 0, 60, 0
3, 226440, Note_on_c, 0, 62, 45
3, 226560, Note_on_c, 0, 62, 0
3, 226560, Note_on_c, 0, 63, 46
3, 226680, Note_on_c, 0, 63, 0
3, 226800, Note_on_c, 0, 63, 43
3, 226800, Note_on_c, 0, 67, 43
3, 227040, Note_on_c, 0, 67, 0
3, 227040, Note_on_c, 0, 63, 0
3, 227040, Note_on_c, 0, 65, 43
3, 227040, Note_on_c, 0, 68, 43
3, 227280, Note_on_c, 0, 68, 0
3, 227280, Note_on_c, 0, 65, 0
3, 227280, Note_on_c, 0, 67, 36
3, 227280, Note_on_c, 0, 70, 36
3, 227520, Note_on_c, 0, 70, 0
3, 227520, Note_on_c, 0, 67, 0
3, 227520, Note_on_c, 0, 68, 43
3, 227520, Note_on_c, 0, 72, 43
3, 227760, Note_on_c, 0, 72, 0
3, 227760, Note_on_c, 0, 68, 0
3, 228480, Note_on_c, 0, 62, 43
3, 228480, Note_on_c, 0, 58, 43
3, 228480, Note_on_c, 0, 68, 43
3, 228720, Note_on_c, 0, 62, 0
3, 228720, Note_on_c, 0, 65, 43
3, 228960, Note_on_c, 0, 65, 0
3, 228960, Note_on_c, 0, 68, 0
3, 228960, Note_on_c, 0, 58, 0
3, 228960, Note_on_c, 0, 63, 43
3, 229080, Note_on_c, 0, 63, 0
3, 229080, Note_on_c, 0, 67, 39
3, 229200, Note_on_c, 0, 67, 0
3, 229200, Note_on_c, 0, 70, 40
3, 229320, Note_on_c, 0, 70, 0
3, 229320, Note_on_c, 0, 67, 42
3, 229440, Note_on_c, 0, 67, 0
3, 229440, Note_on_c, 0, 63, 46
3, 229560, Note_on_c, 0, 63, 0
3, 229560, Note_on_c, 0, 67, 44
3, 229680, Note_on_c, 0, 67, 0
3, 229680, Note_on_c, 0, 70, 49
3, 229800, Note_on_c, 0, 70, 0
3, 229800, Note_on_c, 0, 67, 50
3, 229920, Note_on_c, 0, 67, 0
3, 229920, Note_on_c, 0, 68, 58
3, 230040, Note_on_c, 0, 68, 0
3, 230040, Note_on_c, 0, 65, 55
3, 230160, Note_on_c, 0, 65, 0
3, 230160, Note_on_c, 0, 70, 56
3, 230280, Note_on_c, 0, 70, 0
3, 230280, Note_on_c, 0, 68, 58
3, 230400, Note_on_c, 0, 68, 0
3, 230400, Note_on_c, 0, 67, 62
3, 230520, Note_on_c, 0, 67, 0
3, 230520, Note_on_c, 0, 70, 56
3, 230640, Note_on_c, 0, 70, 0
3, 230640, Note_on_c, 0, 67, 53
3, 230760, Note_on_c, 0, 67, 0
3, 230760, Note_on_c, 0, 65, 55
3, 230880, Note_on_c, 0, 65, 0
3, 230880, Note_on_c, 0, 63, 70
3, 231000, Note_on_c, 0, 63, 0
3, 231000, Note_on_c, 0, 61, 61
3, 231120, Note_on_c, 0, 61, 0
3, 231120, Note_on_c, 0, 58, 64
3, 231240, Note_on_c, 0, 58, 0
3, 231240, Note_on_c, 0, 55, 61
3, 231360, Note_on_c, 0, 55, 0
3, 231360, Note_on_c, 0, 56, 70
3, 231480, Note_on_c, 0, 56, 0
3, 231480, Note_on_c, 0, 53, 64
3, 231600, Note_on_c, 0, 53, 0
3, 231600, Note_on_c, 0, 58, 70
3, 231720, Note_on_c, 0, 58, 0
3, 231720, Note_on_c, 0, 46, 59
3, 231840, Note_on_c, 0, 46, 0
3, 231840, Note_on_c, 0, 51, 46
3, 232560, Note_on_c, 0, 51, 0
3, 233040, Note_on_c, 0, 46, 36
3, 233280, Note_on_c, 0, 46, 0
3, 233280, Note_on_c, 0, 39, 27
3, 233280, Note_on_c, 0, 51, 31
3, 234480, Note_on_c, 0, 51, 0
3, 234480, Note_on_c, 0, 39, 0
3, 234480, End_track
4, 0, Start_track
4, 0, Title_t, "Pedal"
4, 0, Control_c, 0, 64, 0
4, 7747, Control_c, 0, 64, 127
4, 8173, Control_c, 0, 64, 0
4, 10631, Control_c, 0, 64, 127
4, 11526, Control_c, 0, 64, 0
4, 11584, Control_c, 0, 64, 127
4, 11772, Control_c, 0, 64, 0
4, 11831, Control_c, 0, 64, 127
4, 12005, Control_c, 0, 64, 0
4, 12992, Control_c, 0, 64, 127
4, 13086, Control_c, 0, 64, 0
4, 13743, Control_c, 0, 64, 127
4, 14410, Control_c, 0, 64, 0
4, 14471, Control_c, 0, 64, 127
4, 14647, Control_c, 0, 64, 0
4, 14725, Control_c, 0, 64, 127
4, 14894, Control_c, 0, 64, 0
4, 15875, Control_c, 0, 64, 127
4, 16333, Control_c, 0, 64, 0
4, 18784, Control_c, 0, 64, 127
4, 19449, Control_c, 0, 64, 0
4, 19486, Control_c, 0, 64, 127
4, 19690, Control_c, 0, 64, 0
4, 19733, Control_c, 0, 64, 127
4, 19930, Control_c, 0, 64, 0
4, 19987, Control_c, 0, 64, 127
4, 20165, Control_c, 0, 64, 0
4, 20220, Control_c, 0, 64, 127
4, 20410, Control_c, 0, 64, 0
4, 20450, Control_c, 0, 64, 127
4, 20651, Control_c, 0, 64, 0
4, 21632, Control_c, 0, 64, 127
4, 22324, Control_c, 0, 64, 0
4, 22359, Control_c, 0, 64, 127
4, 22577, Control_c, 0, 64, 0
4, 22617, Control_c, 0, 64, 127
4, 22807, Control_c, 0, 64, 0
4, 22846, Control_c, 0, 64, 127
4, 23051, Control_c, 0, 64, 0
4, 23076, Control_c, 0, 64, 127
4, 23289, Control_c, 0, 64, 0
4, 23326, Control_c, 0, 64, 127
4, 23528, Control_c, 0, 64, 0
4, 23570, Control_c, 0, 64, 127
4, 23665, Control_c, 0, 64, 0
4, 27420, Control_c, 0, 64, 127
4, 27610, Control_c, 0, 64, 0
4, 27646, Control_c, 0, 64, 127
4, 27851, Control_c, 0, 64, 0
4, 28871, Control_c, 0, 64, 127
4, 29293, Control_c, 0, 64, 0
4, 29548, Control_c, 0, 64, 127
4, 29776, Control_c, 0, 64, 0
4, 29831, Control_c, 0, 64, 127
4, 30014, Control_c, 0, 64, 0
4, 30078, Control_c, 0, 64, 127
4, 30249, Control_c, 0, 64, 0
4, 30295, Control_c, 0, 64, 127
4, 30486, Control_c, 0, 64, 0
4, 30523, Control_c, 0, 64, 127
4, 30729, Control_c, 0, 64, 0
4, 30986, Control_c, 0, 64, 127
4, 31209, Control_c, 0, 64, 0
4, 31237, Control_c, 0, 64, 127
4, 31450, Control_c, 0, 64, 0
4, 31483, Control_c, 0, 64, 127
4, 31684, Control_c, 0, 64, 0
4, 31733, Control_c, 0, 64, 127
4, 32168, Control_c, 0, 64, 0
4, 35389, Control_c, 0, 64, 127
4, 35527, Control_c, 0, 64, 0
4, 35595, Control_c, 0, 64, 127
4, 35768, Control_c, 0, 64, 0
4, 35823, Control_c, 0, 64, 127
4, 36009, Control_c, 0, 64, 0
4, 36035, Control_c, 0, 64, 127
4, 36250, Control_c, 0, 64, 0
4, 36263, Control_c, 0, 64, 127
4, 36492, Control_c, 0, 64, 0
4, 36746, Control_c, 0, 64, 127
4, 36969, Control_c, 0, 64, 0
4, 37000, Control_c, 0, 64, 127
4, 37209, Control_c, 0, 64, 0
4, 37252, Control_c, 0, 64, 127
4, 37453, Control_c, 0, 64, 0
4, 37497, Control_c, 0, 64, 127
4, 37934, Control_c, 0, 64, 0
4, 40433, Control_c, 0, 64, 127
4, 40811, Control_c, 0, 64, 0
4, 40906, Control_c, 0, 64, 127
4, 41288, Control_c, 0, 64, 0
4, 41372, Control_c, 0, 64, 127
4, 41526, Control_c, 0, 64, 0
4, 41577, Control_c, 0, 64, 127
4, 41773, Control_c, 0, 64, 0
4, 41817, Control_c, 0, 64, 127
4, 42011, Control_c, 0, 64, 0
4, 42078, Control_c, 0, 64, 127
4, 42250, Control_c, 0, 64, 0
4, 42332, Control_c, 0, 64, 127
4, 42732, Control_c, 0, 64, 0
4, 42798, Control_c, 0, 64, 127
4, 42968, Control_c, 0, 64, 0
4, 43024, Control_c, 0, 64, 127
4, 43210, Control_c, 0, 64, 0
4, 43356, Control_c, 0, 64, 127
4, 43695, Control_c, 0, 64, 0
4, 44640, Control_c, 0, 64, 0
4, 52387, Control_c, 0, 64, 127
4, 52813, Control_c, 0, 64, 0
4, 55271, Control_c, 0, 64, 127
4, 56166, Control_c, 0, 64, 0
4, 56224, Control_c, 0, 64, 127
4, 56412, Control_c, 0, 64, 0
4, 56471, Control_c, 0, 64, 127
4, 56645, Control_c, 0, 64, 0
4, 57632, Control_c, 0, 64, 127
4, 57726, Control_c, 0, 64, 0
4, 58383, Control_c, 0, 64, 127
4, 59050, Control_c, 0, 64, 0
4, 59111, Control_c, 0, 64, 127
4, 59287, Control_c, 0, 64, 0
4, 59365, Control_c, 0, 64, 127
4, 59534, Control_c, 0, 64, 0
4, 60515, Control_c, 0, 64, 127
4, 60973, Control_c, 0, 64, 0
4, 63424, Control_c, 0, 64, 127
4, 64089, Control_c, 0, 64, 0
4, 64126, Control_c, 0, 64, 127
4, 64330, Control_c, 0, 64, 0
4, 64373, Control_c, 0, 64, 127
4, 64570, Control_c, 0, 64, 0
4, 64627, Control_c, 0, 64, 127
4, 64805, Control_c, 0, 64, 0
4, 64860, Control_c, 0, 64, 127
4, 65050, Control_c, 0, 64, 0
4, 65090, Control_c, 0, 64, 127
4, 65291, Control_c, 0, 64, 0
4, 66272, Control_c, 0, 64, 127
4, 66964, Control_c, 0, 64, 0
4, 66999, Control_c, 0, 64, 127
4, 67217, Control_c, 0, 64, 0
4, 67257, Control_c, 0, 64, 127
4, 67447, Control_c, 0, 64, 0
4, 67486, Control_c, 0, 64, 127
4, 67691, Control_c, 0, 64, 0
4, 67716, Control_c, 0, 64, 127
4, 67929, Control_c, 0, 64, 0
4, 67966, Control_c, 0, 64, 127
4, 68168, Control_c, 0, 64, 0
4, 68210, Control_c, 0, 64, 127
4, 68305, Control_c, 0, 64, 0
4, 72060, Control_c, 0, 64, 127
4, 72250, Control_c, 0, 64, 0
4, 72286, Control_c, 0, 64, 127
4, 72491, Control_c, 0, 64, 0
4, 73511, Control_c, 0, 64, 127
4, 73933, Control_c, 0, 64, 0
4, 74188, Control_c, 0, 64, 127
4, 74416, Control_c, 0, 64, 0
4, 74471, Control_c, 0, 64, 127
4, 74654, Control_c, 0, 64, 0
4, 74718, Control_c, 0, 64, 127
4, 74889, Control_c, 0, 64, 0
4, 74935, Control_c, 0, 64, 127
4, 75126, Control_c, 0, 64, 0
4, 75163, Control_c, 0, 64, 127
4, 75369, Control_c, 0, 64, 0
4, 75626, Control_c, 0, 64, 127
4, 75849, Control_c, 0, 64, 0
4, 75877, Control_c, 0, 64, 127
4, 76090, Control_c, 0, 64, 0
4, 76123, Control_c, 0, 64, 127
4, 76324, Control_c, 0, 64, 0
4, 76373, Control_c, 0, 64, 127
4, 76808, Control_c, 0, 64, 0
4, 80029, Control_c, 0, 64, 127
4, 80167, Control_c, 0, 64, 0
4, 80235, Control_c, 0, 64, 127
4, 80408, Control_c, 0, 64, 0
4, 80463, Control_c, 0, 64, 127
4, 80649, Control_c, 0, 64, 0
4, 80675, Control_c, 0, 64, 127
4, 80890, Control_c, 0, 64, 0
4, 80903, Control_c, 0, 64, 127
4, 81132, Control_c, 0, 64, 0
4, 81386, Control_c, 0, 64, 127
4, 81609, Control_c, 0, 64, 0
4, 81640, Control_c, 0, 64, 127
4, 81849, Control_c, 0, 64, 0
4, 81892, Control_c, 0, 64, 127
4, 82093, Control_c, 0, 64, 0
4, 82137, Control_c, 0, 64, 127
4, 82574, Control_c, 0, 64, 0
4, 85073, Control_c, 0, 64, 127
4, 85451, Control_c, 0, 64, 0
4, 85546, Control_c, 0, 64, 127
4, 85928, Control_c, 0, 64, 0
4, 86012, Control_c, 0, 64, 127
4, 86166, Control_c, 0, 64, 0
4, 86217, Control_c, 0, 64, 127
4, 86413, Control_c, 0, 64, 0
4, 86457, Control_c, 0, 64, 127
4, 86651, Control_c, 0, 64, 0
4, 86718, Control_c, 0, 64, 127
4, 86890, Control_c, 0, 64, 0
4, 86972, Control_c, 0, 64, 127
4, 87372, Control_c, 0, 64, 0
4, 87438, Control_c, 0, 64, 127
4, 87608, Control_c, 0, 64, 0
4, 87664, Control_c, 0, 64, 127
4, 87850, Control_c, 0, 64, 0
4, 87996, Control_c, 0, 64, 127
4, 88335, Control_c, 0, 64, 0
4, 89280, Control_c, 0, 64, 0
4, 105339, Control_c, 0, 64, 127
4, 105843, Control_c, 0, 64, 0
4, 105897, Control_c, 0, 64, 127
4, 106567, Control_c, 0, 64, 0
4, 106624, Control_c, 0, 64, 127
4, 106810, Control_c, 0, 64, 0
4, 106871, Control_c, 0, 64, 127
4, 107290, Control_c, 0, 64, 0
4, 107351, Control_c, 0, 64, 127
4, 108010, Control_c, 0, 64, 0
4, 108078, Control_c, 0, 64, 127
4, 108249, Control_c, 0, 64, 0
4, 108325, Control_c, 0, 64, 127
4, 108716, Control_c, 0, 64, 0
4, 108784, Control_c, 0, 64, 127
4, 109457, Control_c, 0, 64, 0
4, 109492, Control_c, 0, 64, 127
4, 109700, Control_c, 0, 64, 0
4, 109755, Control_c, 0, 64, 127
4, 110167, Control_c, 0, 64, 0
4, 110235, Control_c, 0, 64, 127
4, 110890, Control_c, 0, 64, 0
4, 110932, Control_c, 0, 64, 127
4, 111129, Control_c, 0, 64, 0
4, 111217, Control_c, 0, 64, 127
4, 112087, Control_c, 0, 64, 0
4, 112149, Control_c, 0, 64, 127
4, 112334, Control_c, 0, 64, 0
4, 112387, Control_c, 0, 64, 127
4, 112811, Control_c, 0, 64, 0
4, 118154, Control_c, 0, 64, 127
4, 118578, Control_c, 0, 64, 0
4, 118613, Control_c, 0, 64, 127
4, 119051, Control_c, 0, 64, 0
4, 119097, Control_c, 0, 64, 127
4, 119529, Control_c, 0, 64, 0
4, 126939, Control_c, 0, 64, 127
4, 127446, Control_c, 0, 64, 0
4, 127525, Control_c, 0, 64, 127
4, 128174, Control_c, 0, 64, 0
4, 128428, Control_c, 0, 64, 127
4, 128895, Control_c, 0, 64, 0
4, 129641, Control_c, 0, 64, 127
4, 129736, Control_c, 0, 64, 0
4, 130333, Control_c, 0, 64, 127
4, 131058, Control_c, 0, 64, 0
4, 135413, Control_c, 0, 64, 127
4, 136090, Control_c, 0, 64, 0
4, 136133, Control_c, 0, 64, 127
4, 136337, Control_c, 0, 64, 0
4, 136384, Control_c, 0, 64, 127
4, 136567, Control_c, 0, 64, 0
4, 136617, Control_c, 0, 64, 127
4, 136810, Control_c, 0, 64, 0
4, 136843, Control_c, 0, 64, 127
4, 137049, Control_c, 0, 64, 0
4, 137083, Control_c, 0, 64, 127
4, 137290, Control_c, 0, 64, 0
4, 137326, Control_c, 0, 64, 127
4, 137528, Control_c, 0, 64, 0
4, 138300, Control_c, 0, 64, 127
4, 138972, Control_c, 0, 64, 0
4, 139003, Control_c, 0, 64, 127
4, 139207, Control_c, 0, 64, 0
4, 139246, Control_c, 0, 64, 127
4, 139445, Control_c, 0, 64, 0
4, 139479, Control_c, 0, 64, 127
4, 139695, Control_c, 0, 64, 0
4, 139723, Control_c, 0, 64, 127
4, 139924, Control_c, 0, 64, 0
4, 139959, Control_c, 0, 64, 127
4, 140171, Control_c, 0, 64, 0
4, 140206, Control_c, 0, 64, 127
4, 140347, Control_c, 0, 64, 0
4, 141638, Control_c, 0, 64, 127
4, 141845, Control_c, 0, 64, 0
4, 145511, Control_c, 0, 64, 127
4, 145928, Control_c, 0, 64, 0
4, 146203, Control_c, 0, 64, 127
4, 146417, Control_c, 0, 64, 0
4, 146464, Control_c, 0, 64, 127
4, 146649, Control_c, 0, 64, 0
4, 146704, Control_c, 0, 64, 127
4, 146889, Control_c, 0, 64, 0
4, 146912, Control_c, 0, 64, 127
4, 147129, Control_c, 0, 64, 0
4, 147152, Control_c, 0, 64, 127
4, 147369, Control_c, 0, 64, 0
4, 147615, Control_c, 0, 64, 127
4, 147852, Control_c, 0, 64, 0
4, 147877, Control_c, 0, 64, 127
4, 148092, Control_c, 0, 64, 0
4, 148132, Control_c, 0, 64, 127
4, 148329, Control_c, 0, 64, 0
4, 148373, Control_c, 0, 64, 127
4, 148816, Control_c, 0, 64, 0
4, 151949, Control_c, 0, 64, 127
4, 152178, Control_c, 0, 64, 0
4, 152240, Control_c, 0, 64, 127
4, 152409, Control_c, 0, 64, 0
4, 152469, Control_c, 0, 64, 127
4, 152646, Control_c, 0, 64, 0
4, 152675, Control_c, 0, 64, 127
4, 152886, Control_c, 0, 64, 0
4, 152920, Control_c, 0, 64, 127
4, 153131, Control_c, 0, 64, 0
4, 153377, Control_c, 0, 64, 127
4, 153612, Control_c, 0, 64, 0
4, 153637, Control_c, 0, 64, 127
4, 153848, Control_c, 0, 64, 0
4, 153886, Control_c, 0, 64, 127
4, 154099, Control_c, 0, 64, 0
4, 154130, Control_c, 0, 64, 127
4, 154334, Control_c, 0, 64, 0
4, 154377, Control_c, 0, 64, 127
4, 154569, Control_c, 0, 64, 0
4, 156996, Control_c, 0, 64, 127
4, 157690, Control_c, 0, 64, 0
4, 157744, Control_c, 0, 64, 127
4, 157929, Control_c, 0, 64, 0
4, 157977, Control_c, 0, 64, 127
4, 158171, Control_c, 0, 64, 0
4, 158238, Control_c, 0, 64, 127
4, 158415, Control_c, 0, 64, 0
4, 158452, Control_c, 0, 64, 127
4, 158892, Control_c, 0, 64, 0
4, 159172, Control_c, 0, 64, 127
4, 159379, Control_c, 0, 64, 0
4, 159435, Control_c, 0, 64, 127
4, 159613, Control_c, 0, 64, 0
4, 159663, Control_c, 0, 64, 127
4, 159847, Control_c, 0, 64, 0
4, 159996, Control_c, 0, 64, 127
4, 160339, Control_c, 0, 64, 0
4, 161280, Control_c, 0, 64, 0
4, 177339, Control_c, 0, 64, 127
4, 177843, Control_c, 0, 64, 0
4, 177897, Control_c, 0, 64, 127
4, 178567, Control_c, 0, 64, 0
4, 178624, Control_c, 0, 64, 127
4, 178810, Control_c, 0, 64, 0
4, 178871, Control_c, 0, 64, 127
4, 179290, Control_c, 0, 64, 0
4, 179351, Control_c, 0, 64, 127
4, 180010, Control_c, 0, 64, 0
4, 180078, Control_c, 0, 64, 127
4, 180249, Control_c, 0, 64, 0
4, 180325, Control_c, 0, 64, 127
4, 180716, Control_c, 0, 64, 0
4, 180784, Control_c, 0, 64, 127
4, 181457, Control_c, 0, 64, 0
4, 181492, Control_c, 0, 64, 127
4, 181700, Control_c, 0, 64, 0
4, 181755, Control_c, 0, 64, 127
4, 182167, Control_c, 0, 64, 0
4, 182235, Control_c, 0, 64, 127
4, 182890, Control_c, 0, 64, 0
4, 182932, Control_c, 0, 64, 127
4, 183129, Control_c, 0, 64, 0
4, 183217, Control_c, 0, 64, 127
4, 184087, Control_c, 0, 64, 0
4, 184149, Control_c, 0, 64, 127
4, 184334, Control_c, 0, 64, 0
4, 184387, Control_c, 0, 64, 127
4, 184811, Control_c, 0, 64, 0
4, 190154, Control_c, 0, 64, 127
4, 190578, Control_c, 0, 64, 0
4, 190613, Control_c, 0, 64, 127
4, 191051, Control_c, 0, 64, 0
4, 191097, Control_c, 0, 64, 127
4, 191529, Control_c, 0, 64, 0
4, 198939, Control_c, 0, 64, 127
4, 199446, Control_c, 0, 64, 0
4, 199525, Control_c, 0, 64, 127
4, 200174, Control_c, 0, 64, 0
4, 200428, Control_c, 0, 64, 127
4, 200895, Control_c, 0, 64, 0
4, 201641, Control_c, 0, 64, 127
4, 201736, Control_c, 0, 64, 0
4, 202333, Control_c, 0, 64, 127
4, 203058, Control_c, 0, 64, 0
4, 207413, Control_c, 0, 64, 127
4, 208090, Control_c, 0, 64, 0
4, 208133, Control_c, 0, 64, 127
4, 208337, Control_c, 0, 64, 0
4, 208384, Control_c, 0, 64, 127
4, 208567, Control_c, 0, 64, 0
4, 208617, Control_c, 0, 64, 127
4, 208810, Control_c, 0, 64, 0
4, 208843, Control_c, 0, 64, 127
4, 209049, Control_c, 0, 64, 0
4, 209083, Control_c, 0, 64, 127
4, 209290, Control_c, 0, 64, 0
4, 209326, Control_c, 0, 64, 127
4, 209528, Control_c, 0, 64, 0
4, 210300, Control_c, 0, 64, 127
4, 210972, Control_c, 0, 64, 0
4, 211003, Control_c, 0, 64, 127
4, 211207, Control_c, 0, 64, 0
4, 211246, Control_c, 0, 64, 127
4, 211445, Control_c, 0, 64, 0
4, 211479, Control_c, 0, 64, 127
4, 211695, Control_c, 0, 64, 0
4, 211723, Control_c, 0, 64, 127
4, 211924, Control_c, 0, 64, 0
4, 211959, Control_c, 0, 64, 127
4, 212171, Control_c, 0, 64, 0
4, 212206, Control_c, 0, 64, 127
4, 212347, Control_c, 0, 64, 0
4, 213638, Control_c, 0, 64, 127
4, 213845, Control_c, 0, 64, 0
4, 217511, Control_c, 0, 64, 127
4, 217928, Control_c, 0, 64, 0
4, 218203, Control_c, 0, 64, 127
4, 218417, Control_c, 0, 64, 0
4, 218464, Control_c, 0, 64, 127
4, 218649, Control_c, 0, 64, 0
4, 218704, Control_c, 0, 64, 127
4, 218889, Control_c, 0, 64, 0
4, 218912, Control_c, 0, 64, 127
4, 219129, Control_c, 0, 64, 0
4, 219152, Control_c, 0, 64, 127
4, 219369, Control_c, 0, 64, 0
4, 219615, Control_c, 0, 64, 127
4, 219852, Control_c, 0, 64, 0
4, 219877, Control_c, 0, 64, 127
4, 220092, Control_c, 0, 64, 0
4, 220132, Control_c, 0, 64, 127
4, 220329, Control_c, 0, 64, 0
4, 220373, Control_c, 0, 64, 127
4, 220816, Control_c, 0, 64, 0
4, 223949, Control_c, 0, 64, 127
4, 224178, Control_c, 0, 64, 0
4, 224240, Control_c, 0, 64, 127
4, 224409, Control_c, 0, 64, 0
4, 224469, Control_c, 0, 64, 127
4, 224646, Control_c, 0, 64, 0
4, 224675, Control_c, 0, 64, 127
4, 224886, Control_c, 0, 64, 0
4, 224920, Control_c, 0, 64, 127
4, 225131, Control_c, 0, 64, 0
4, 225377, Control_c, 0, 64, 127
4, 225612, Control_c, 0, 64, 0
4, 225637, Control_c, 0, 64, 127
4, 225848, Control_c, 0, 64, 0
4, 225886, Control_c, 0, 64, 127
4, 226099, Control_c, 0, 64, 0
4, 226130, Control_c, 0, 64, 127
4, 226334, Control_c, 0, 64, 0
4, 226377, Control_c, 0, 64, 127
4, 226569, Control_c, 0, 64, 0
4, 228996, Control_c, 0, 64, 127
4, 229690, Control_c, 0, 64, 0
4, 229744, Control_c, 0, 64, 127
4, 229929, Control_c, 0, 64, 0
4, 229977, Control_c, 0, 64, 127
4, 230171, Control_c, 0, 64, 0
4, 230238, Control_c, 0, 64, 127
4, 230415, Control_c, 0, 64, 0
4, 230452, Control_c, 0, 64, 127
4, 230892, Control_c, 0, 64, 0
4, 231172, Control_c, 0, 64, 127
4, 231379, Control_c, 0, 64, 0
4, 231435, Control_c, 0, 64, 127
4, 231613, Control_c, 0, 64, 0
4, 231663, Control_c, 0, 64, 127
4, 231847, Control_c, 0, 64, 0
4, 231996, Control_c, 0, 64, 127
4, 232339, Control_c, 0, 64, 0
4, 233280, Control_c, 0, 64, 0
4, 233407, Control_c, 0, 64, 127
4, 234254, Control_c, 0, 64, 0
4, 234353, Control_c, 0, 64, 127
4, 234636, Control_c, 0, 64, 0
4, 234636, End_track
5, 0, Start_track
5, 0, Title_t, "Mozart: Klaviersonate B-Dur KV 333 2. Satz"
5, 0, End_track
6, 0, Start_track
6, 0, Title_t, "Copyright © 1997 by Bernd Krüger"
6, 0, End_track
7, 0, Start_track
7, 0, Title_t, "http://www.piano-midi.de"
7, 0, End_track
8, 0, Start_track
8, 0, Title_t, "Edition: 2013-09-13"
8, 0, End_track
0, 0, End_of_file
