0, 0, Header, 1, 9, 480
1, 0, Start_track
1, 0, Title_t, "Klaviersonate C-Dur KV 330"
1, 0, Title_t, "2. Satz"
1, 0, Copyright_t, "Copyright © 1997 by Krüger http://www.piano-midi.de"
1, 0, Text_t, "Andante Cantabile"
1, 0, Text_t, "Update am 31.3.2000\012"
1, 0, Text_t, "Update am 3.12.2001\012"
1, 0, Text_t, "Normierung: 23.12.2002\012"
1, 0, Text_t, "Update am 1.2.2006\012"
1, 0, Text_t, "Update am 20.6.2013\012"
1, 0, Text_t, "Dauer: 6:36 Minuten\012"
1, 0, SMPTE_offset, 96, 0, 3, 0, 0
1, 0, Time_signature, 3, 2, 24, 8
1, 0, Key_signature, -1, "major"
1, 0, Tempo, 1194268
1, 80, Tempo, 1348315
1, 720, Marker_t, "Teil1"
1, 1440, Tempo, 1300954
1, 1680, Tempo, 1250000
1, 1800, Tempo, 1250000
1, 1920, Tempo, 1263158
1, 2160, Tempo, 1348315
1, 2640, Tempo, 1412097
1, 2880, Tempo, 1348315
1, 3600, Tempo, 1312336
1, 4620, Tempo, 1270110
1, 4680, Tempo, 1148545
1, 4740, Tempo, 1165049
1, 4800, Tempo, 1363636
1, 5040, Tempo, 1287830
1, 5280, Tempo, 1340483
1, 5520, Tempo, 1454193
1, 5760, Tempo, 1398927
1, 6480, Tempo, 1287830
1, 7080, Tempo, 1382807
1, 7200, Tempo, 1287830
1, 8520, Tempo, 1492909
1, 8640, Tempo, 1287830
1, 9120, Tempo, 1382807
1, 9600, Tempo, 1300672
1, 10080, Tempo, 1354402
1, 10440, Tempo, 1459499
1, 10560, Tempo, 1354402
1, 12000, Tempo, 1463415
1, 12120, Marker_t, "Teil1 Wiederholung"
1, 12240, Tempo, 1363636
1, 12320, Tempo, 1348315
1, 12960, Tempo, 1300954
1, 13200, Tempo, 1224490
1, 13320, Tempo, 1224490
1, 13440, Tempo, 1290323
1, 13680, Tempo, 1348315
1, 14160, Tempo, 1412097
1, 14400, Tempo, 1348315
1, 15120, Tempo, 1312336
1, 16080, Tempo, 1243781
1, 16200, Tempo, 1126972
1, 16260, Tempo, 1142857
1, 16320, Tempo, 1348315
1, 16560, Tempo, 1287830
1, 16800, Tempo, 1340483
1, 17040, Tempo, 1454193
1, 17280, Tempo, 1398927
1, 18000, Tempo, 1287830
1, 18600, Tempo, 1382807
1, 18720, Tempo, 1287830
1, 20040, Tempo, 1492909
1, 20160, Tempo, 1287830
1, 20640, Tempo, 1382807
1, 21120, Tempo, 1300672
1, 21600, Tempo, 1354402
1, 21960, Tempo, 1459499
1, 22080, Tempo, 1354402
1, 23520, Tempo, 1395349
1, 23560, Marker_t, "Teil2"
1, 23760, Tempo, 1290323
1, 24120, Tempo, 1290323
1, 24360, Tempo, 1420455
1, 24480, Tempo, 1333333
1, 24960, Tempo, 1276596
1, 25200, Tempo, 1263158
1, 25680, Tempo, 1379310
1, 25920, Tempo, 1318681
1, 26640, Tempo, 1276596
1, 28320, Tempo, 1304348
1, 28560, Tempo, 1304348
1, 28680, Tempo, 1420455
1, 28800, Tempo, 1333333
1, 29520, Tempo, 1304348
1, 30000, Tempo, 1379310
1, 30240, Tempo, 1304348
1, 30960, Tempo, 1276596
1, 31440, Tempo, 1333333
1, 31680, Tempo, 1378676
1, 32160, Tempo, 1395349
1, 32400, Tempo, 1333333
1, 33100, Tempo, 1188119
1, 33124, Tempo, 1176471
1, 33152, Tempo, 1165049
1, 33180, Tempo, 1153846
1, 33204, Tempo, 1142857
1, 33232, Tempo, 1132075
1, 33260, Tempo, 1121495
1, 33272, Tempo, 1132075
1, 33284, Tempo, 1153846
1, 33300, Tempo, 1165049
1, 33312, Tempo, 1188119
1, 33324, Tempo, 1212121
1, 33332, Tempo, 1121495
1, 33340, Tempo, 1071429
1, 33360, Tempo, 1224490
1, 33448, Tempo, 1363636
1, 34440, Tempo, 1569038
1, 34560, Tempo, 1356239
1, 35040, Tempo, 1333333
1, 35280, Tempo, 1290323
1, 35760, Tempo, 1428571
1, 35880, Tempo, 1518987
1, 36000, Tempo, 1348315
1, 36720, Tempo, 1188119
1, 36840, Tempo, 1263158
1, 36960, Tempo, 1188119
1, 37080, Tempo, 1263158
1, 37440, Tempo, 1237113
1, 38160, Tempo, 1200000
1, 38280, Tempo, 1263158
1, 38400, Tempo, 1176471
1, 38520, Tempo, 1263158
1, 38640, Tempo, 1176471
1, 38760, Tempo, 1237113
1, 38880, Tempo, 1411765
1, 39000, Tempo, 1348315
1, 39360, Tempo, 1318681
1, 40080, Tempo, 1348315
1, 40140, Tempo, 1454898
1, 40320, Tempo, 1326260
1, 41040, Tempo, 1290323
1, 41040, Marker_t, "Teil2 Wiederholung"
1, 41640, Tempo, 1420455
1, 41760, Tempo, 1333333
1, 42240, Tempo, 1276596
1, 42480, Tempo, 1263158
1, 42960, Tempo, 1379310
1, 43200, Tempo, 1318681
1, 43920, Tempo, 1276596
1, 45600, Tempo, 1304348
1, 46080, Tempo, 1333333
1, 46800, Tempo, 1304348
1, 47280, Tempo, 1379310
1, 47520, Tempo, 1304348
1, 48240, Tempo, 1276596
1, 48720, Tempo, 1333333
1, 48960, Tempo, 1378676
1, 49440, Tempo, 1395349
1, 49680, Tempo, 1333333
1, 50372, Tempo, 1188119
1, 50400, Tempo, 1176471
1, 50428, Tempo, 1165049
1, 50440, Tempo, 1153846
1, 50468, Tempo, 1142857
1, 50480, Tempo, 1132075
1, 50508, Tempo, 1121495
1, 50520, Tempo, 1111111
1, 50532, Tempo, 1121495
1, 50548, Tempo, 1132075
1, 50560, Tempo, 1153846
1, 50572, Tempo, 1165049
1, 50588, Tempo, 1188119
1, 50600, Tempo, 1200000
1, 50612, Tempo, 1224490
1, 50620, Tempo, 1100917
1, 50628, Tempo, 1132075
1, 50640, Tempo, 1250000
1, 50728, Tempo, 1363636
1, 51720, Tempo, 1655629
1, 51840, Tempo, 1387604
1, 52320, Tempo, 1333333
1, 52560, Tempo, 1290323
1, 53040, Tempo, 1428571
1, 53160, Tempo, 1491054
1, 53280, Tempo, 1348315
1, 54000, Tempo, 1200000
1, 54120, Tempo, 1263158
1, 54240, Tempo, 1212121
1, 54360, Tempo, 1263158
1, 54720, Tempo, 1237113
1, 55440, Tempo, 1188119
1, 55560, Tempo, 1250000
1, 55680, Tempo, 1188119
1, 55800, Tempo, 1250000
1, 55920, Tempo, 1200000
1, 56040, Tempo, 1250000
1, 56160, Tempo, 1411765
1, 56280, Tempo, 1348315
1, 56640, Tempo, 1318681
1, 57360, Tempo, 1348315
1, 58320, Marker_t, "Teil3"
1, 58860, Tempo, 1454898
1, 59040, Key_signature, -4, "major"
1, 59040, Tempo, 1290323
1, 59060, Tempo, 1276596
1, 59100, Tempo, 1263158
1, 59140, Tempo, 1276596
1, 59160, Tempo, 1304348
1, 59180, Tempo, 1318681
1, 59200, Tempo, 1304348
1, 59220, Tempo, 1276596
1, 59280, Tempo, 1304348
1, 59300, Tempo, 1318681
1, 59380, Tempo, 1290323
1, 59420, Tempo, 1276596
1, 59460, Tempo, 1304348
1, 59480, Tempo, 1318681
1, 59560, Tempo, 1290323
1, 59580, Tempo, 1276596
1, 59620, Tempo, 1290323
1, 59640, Tempo, 1304348
1, 59680, Tempo, 1290323
1, 59700, Tempo, 1263158
1, 59760, Tempo, 1250000
1, 59780, Tempo, 1290323
1, 59800, Tempo, 1304348
1, 59820, Tempo, 1318681
1, 59880, Tempo, 1304348
1, 59900, Tempo, 1276596
1, 59920, Tempo, 1263158
1, 59940, Tempo, 1250000
1, 59960, Tempo, 1276596
1, 59980, Tempo, 1318681
1, 60060, Tempo, 1304348
1, 60080, Tempo, 1276596
1, 60120, Tempo, 1263158
1, 60140, Tempo, 1290323
1, 60240, Tempo, 1379310
1, 60480, Tempo, 1290323
1, 60500, Tempo, 1276596
1, 60520, Tempo, 1263158
1, 60540, Tempo, 1250000
1, 60560, Tempo, 1304348
1, 60580, Tempo, 1318681
1, 60600, Tempo, 1304348
1, 60620, Tempo, 1276596
1, 60660, Tempo, 1333333
1, 60700, Tempo, 1318681
1, 60720, Tempo, 1237113
1, 60740, Tempo, 1290323
1, 60800, Tempo, 1318681
1, 60860, Tempo, 1304348
1, 60880, Tempo, 1263158
1, 60920, Tempo, 1276596
1, 60940, Tempo, 1304348
1, 60960, Tempo, 1237113
1, 61160, Tempo, 1276596
1, 61200, Tempo, 1276596
1, 61220, Tempo, 1276596
1, 61240, Tempo, 1290323
1, 61260, Tempo, 1276596
1, 61300, Tempo, 1263158
1, 61340, Tempo, 1276596
1, 61420, Tempo, 1263158
1, 61440, Tempo, 1318681
1, 61460, Tempo, 1304348
1, 61480, Tempo, 1290323
1, 61520, Tempo, 1304348
1, 61540, Tempo, 1318681
1, 61580, Tempo, 1304348
1, 61600, Tempo, 1290323
1, 61680, Tempo, 1445783
1, 61920, Tempo, 1290323
1, 61940, Tempo, 1276596
1, 61960, Tempo, 1263158
1, 62000, Tempo, 1276596
1, 62020, Tempo, 1290323
1, 62040, Tempo, 1304348
1, 62100, Tempo, 1276596
1, 62120, Tempo, 1263158
1, 62140, Tempo, 1290323
1, 62160, Tempo, 1304348
1, 62180, Tempo, 1318681
1, 62220, Tempo, 1290323
1, 62260, Tempo, 1263158
1, 62280, Tempo, 1304348
1, 62300, Tempo, 1318681
1, 62320, Tempo, 1333333
1, 62340, Tempo, 1318681
1, 62360, Tempo, 1290323
1, 62400, Tempo, 1250000
1, 62412, Tempo, 1237113
1, 62424, Tempo, 1224490
1, 62452, Tempo, 1237113
1, 62464, Tempo, 1276596
1, 62492, Tempo, 1263158
1, 62504, Tempo, 1250000
1, 62520, Tempo, 1237113
1, 62532, Tempo, 1224490
1, 62544, Tempo, 1212121
1, 62572, Tempo, 1250000
1, 62640, Tempo, 1290323
1, 62660, Tempo, 1276596
1, 62720, Tempo, 1304348
1, 62800, Tempo, 1290323
1, 62820, Tempo, 1276596
1, 62840, Tempo, 1263158
1, 62860, Tempo, 1290323
1, 62880, Tempo, 1304348
1, 62900, Tempo, 1318681
1, 62920, Tempo, 1333333
1, 62940, Tempo, 1318681
1, 62960, Tempo, 1304348
1, 62980, Tempo, 1276596
1, 63020, Tempo, 1290323
1, 63040, Tempo, 1304348
1, 63060, Tempo, 1333333
1, 63100, Tempo, 1318681
1, 63120, Tempo, 1290323
1, 63140, Tempo, 1276596
1, 63160, Tempo, 1290323
1, 63240, Tempo, 1379310
1, 63340, Tempo, 1290323
1, 63360, Tempo, 1276596
1, 63380, Tempo, 1263158
1, 63460, Tempo, 1290323
1, 63480, Tempo, 1304348
1, 63500, Tempo, 1318681
1, 63520, Tempo, 1333333
1, 63560, Tempo, 1318681
1, 63580, Tempo, 1304348
1, 63600, Tempo, 1290323
1, 63620, Tempo, 1276596
1, 63680, Tempo, 1304348
1, 63720, Tempo, 1290323
1, 63740, Tempo, 1276596
1, 63760, Tempo, 1263158
1, 63780, Tempo, 1304348
1, 63800, Tempo, 1318681
1, 63840, Tempo, 1333333
1, 63860, Tempo, 1304348
1, 63880, Tempo, 1290323
1, 63900, Tempo, 1276596
1, 64080, Tempo, 1276596
1, 64800, Tempo, 1290323
1, 65520, Tempo, 1276596
1, 65700, Tempo, 1304348
1, 65880, Tempo, 1379310
1, 66000, Tempo, 1463415
1, 66240, Tempo, 1333333
1, 66360, Tempo, 1263158
1, 66372, Tempo, 1153846
1, 66400, Tempo, 1165049
1, 66412, Tempo, 1176471
1, 66440, Tempo, 1188119
1, 66452, Tempo, 1200000
1, 66464, Tempo, 1212121
1, 66480, Tempo, 1276596
1, 66600, Tempo, 1428571
1, 66720, Tempo, 1318681
1, 68880, Tempo, 1333333
1, 69600, Tempo, 1463415
1, 69840, Tempo, 1348315
1, 69840, Marker_t, "Teil3 Wiederholung"
1, 70380, Tempo, 1420455
1, 70560, Tempo, 1290323
1, 70580, Tempo, 1276596
1, 70620, Tempo, 1263158
1, 70660, Tempo, 1276596
1, 70680, Tempo, 1304348
1, 70700, Tempo, 1318681
1, 70720, Tempo, 1304348
1, 70740, Tempo, 1276596
1, 70800, Tempo, 1304348
1, 70820, Tempo, 1318681
1, 70900, Tempo, 1290323
1, 70940, Tempo, 1276596
1, 70980, Tempo, 1304348
1, 71000, Tempo, 1318681
1, 71080, Tempo, 1290323
1, 71100, Tempo, 1276596
1, 71140, Tempo, 1290323
1, 71160, Tempo, 1304348
1, 71200, Tempo, 1290323
1, 71220, Tempo, 1263158
1, 71280, Tempo, 1250000
1, 71400, Tempo, 1304348
1, 71420, Tempo, 1276596
1, 71440, Tempo, 1263158
1, 71460, Tempo, 1250000
1, 71480, Tempo, 1276596
1, 71500, Tempo, 1318681
1, 71580, Tempo, 1304348
1, 71600, Tempo, 1276596
1, 71640, Tempo, 1263158
1, 71660, Tempo, 1290323
1, 71760, Tempo, 1379310
1, 72000, Tempo, 1290323
1, 72020, Tempo, 1276596
1, 72040, Tempo, 1263158
1, 72060, Tempo, 1250000
1, 72080, Tempo, 1304348
1, 72100, Tempo, 1318681
1, 72120, Tempo, 1304348
1, 72140, Tempo, 1276596
1, 72180, Tempo, 1333333
1, 72220, Tempo, 1318681
1, 72240, Tempo, 1304348
1, 72260, Tempo, 1290323
1, 72320, Tempo, 1318681
1, 72380, Tempo, 1304348
1, 72400, Tempo, 1263158
1, 72440, Tempo, 1276596
1, 72460, Tempo, 1304348
1, 72480, Tempo, 1237113
1, 72720, Tempo, 1263158
1, 72740, Tempo, 1276596
1, 72760, Tempo, 1290323
1, 72780, Tempo, 1276596
1, 72820, Tempo, 1263158
1, 72860, Tempo, 1276596
1, 72940, Tempo, 1263158
1, 72960, Tempo, 1318681
1, 72980, Tempo, 1304348
1, 73000, Tempo, 1290323
1, 73040, Tempo, 1304348
1, 73060, Tempo, 1318681
1, 73100, Tempo, 1304348
1, 73120, Tempo, 1290323
1, 73200, Tempo, 1445783
1, 73440, Tempo, 1290323
1, 73460, Tempo, 1276596
1, 73480, Tempo, 1263158
1, 73520, Tempo, 1276596
1, 73540, Tempo, 1290323
1, 73560, Tempo, 1304348
1, 73620, Tempo, 1276596
1, 73640, Tempo, 1263158
1, 73660, Tempo, 1290323
1, 73680, Tempo, 1304348
1, 73700, Tempo, 1318681
1, 73740, Tempo, 1290323
1, 73860, Tempo, 1318681
1, 73880, Tempo, 1290323
1, 73920, Tempo, 1250000
1, 73932, Tempo, 1237113
1, 73944, Tempo, 1224490
1, 73972, Tempo, 1237113
1, 73984, Tempo, 1276596
1, 74012, Tempo, 1263158
1, 74024, Tempo, 1250000
1, 74040, Tempo, 1237113
1, 74052, Tempo, 1224490
1, 74064, Tempo, 1212121
1, 74092, Tempo, 1250000
1, 74160, Tempo, 1290323
1, 74180, Tempo, 1276596
1, 74240, Tempo, 1304348
1, 74320, Tempo, 1290323
1, 74340, Tempo, 1276596
1, 74360, Tempo, 1263158
1, 74380, Tempo, 1290323
1, 74400, Tempo, 1304348
1, 74420, Tempo, 1318681
1, 74440, Tempo, 1333333
1, 74460, Tempo, 1318681
1, 74480, Tempo, 1304348
1, 74500, Tempo, 1276596
1, 74540, Tempo, 1290323
1, 74560, Tempo, 1304348
1, 74580, Tempo, 1333333
1, 74620, Tempo, 1318681
1, 74640, Tempo, 1290323
1, 74660, Tempo, 1276596
1, 74680, Tempo, 1290323
1, 74760, Tempo, 1379310
1, 74860, Tempo, 1290323
1, 74880, Tempo, 1276596
1, 74900, Tempo, 1263158
1, 74980, Tempo, 1290323
1, 75000, Tempo, 1304348
1, 75020, Tempo, 1318681
1, 75040, Tempo, 1333333
1, 75080, Tempo, 1318681
1, 75100, Tempo, 1304348
1, 75120, Tempo, 1290323
1, 75140, Tempo, 1276596
1, 75200, Tempo, 1304348
1, 75240, Tempo, 1290323
1, 75260, Tempo, 1276596
1, 75280, Tempo, 1263158
1, 75300, Tempo, 1304348
1, 75320, Tempo, 1318681
1, 75360, Tempo, 1333333
1, 75380, Tempo, 1304348
1, 75400, Tempo, 1290323
1, 75420, Tempo, 1276596
1, 75600, Tempo, 1276596
1, 76320, Tempo, 1290323
1, 77040, Tempo, 1276596
1, 77220, Tempo, 1290323
1, 77400, Tempo, 1411765
1, 77520, Tempo, 1463415
1, 77760, Tempo, 1348315
1, 77880, Tempo, 1263158
1, 77900, Tempo, 1132075
1, 77920, Tempo, 1142857
1, 77940, Tempo, 1165049
1, 77960, Tempo, 1188119
1, 77980, Tempo, 1212121
1, 78000, Tempo, 1237113
1, 78120, Tempo, 1428571
1, 78240, Tempo, 1318681
1, 80400, Tempo, 1333333
1, 81120, Tempo, 1276596
1, 81360, Tempo, 1237113
1, 81360, Marker_t, "Teil4"
1, 81600, Tempo, 1200000
1, 81840, Tempo, 1212121
1, 82080, Tempo, 1176471
1, 82320, Tempo, 1153846
1, 82560, Tempo, 1132075
1, 82800, Tempo, 1237113
1, 83040, Tempo, 1188119
1, 83280, Tempo, 1290323
1, 83520, Tempo, 1212121
1, 84000, Tempo, 1142857
1, 84240, Tempo, 1165049
1, 84480, Tempo, 1153846
1, 84720, Tempo, 1188119
1, 84960, Tempo, 1132075
1, 85200, Tempo, 1142857
1, 85440, Tempo, 1250000
1, 85480, Tempo, 1165049
1, 86160, Tempo, 1304348
1, 86400, Tempo, 1250000
1, 86880, Tempo, 1142857
1, 87120, Tempo, 1142857
1, 87360, Tempo, 1132075
1, 88080, Tempo, 1081081
1, 88320, Tempo, 1200000
1, 88360, Tempo, 1111111
1, 88560, Tempo, 1132075
1, 88800, Tempo, 1111111
1, 89280, Tempo, 1142857
1, 89760, Tempo, 1121495
1, 90000, Tempo, 1263158
1, 90040, Tempo, 1188119
1, 90240, Tempo, 1224490
1, 90540, Tempo, 1270110
1, 90720, Tempo, 1224490
1, 90840, Tempo, 1290323
1, 90960, Tempo, 1224490
1, 91060, Tempo, 1290323
1, 91680, Tempo, 1237113
1, 91800, Tempo, 1276596
1, 91920, Tempo, 1304348
1, 92040, Tempo, 1363636
1, 92160, Tempo, 1363636
1, 92640, Tempo, 1304348
1, 92880, Tempo, 1224490
1, 92880, Marker_t, "Teil4 Wiederholung"
1, 93120, Tempo, 1165049
1, 93360, Tempo, 1200000
1, 93600, Tempo, 1142857
1, 93840, Tempo, 1153846
1, 94080, Tempo, 1132075
1, 94320, Tempo, 1237113
1, 94560, Tempo, 1188119
1, 94800, Tempo, 1290323
1, 95040, Tempo, 1212121
1, 95520, Tempo, 1142857
1, 95760, Tempo, 1165049
1, 96000, Tempo, 1153846
1, 96240, Tempo, 1188119
1, 96480, Tempo, 1132075
1, 96720, Tempo, 1142857
1, 96960, Tempo, 1250000
1, 97000, Tempo, 1165049
1, 97680, Tempo, 1304348
1, 97920, Tempo, 1250000
1, 98400, Tempo, 1142857
1, 98640, Tempo, 1142857
1, 98880, Tempo, 1132075
1, 99600, Tempo, 1081081
1, 99840, Tempo, 1200000
1, 99880, Tempo, 1111111
1, 100080, Tempo, 1132075
1, 100320, Tempo, 1111111
1, 100800, Tempo, 1142857
1, 101280, Tempo, 1121495
1, 101520, Tempo, 1263158
1, 101560, Tempo, 1188119
1, 101760, Tempo, 1224490
1, 102000, Tempo, 1297578
1, 102240, Tempo, 1237113
1, 102360, Tempo, 1276596
1, 102480, Tempo, 1212121
1, 102600, Tempo, 1290323
1, 103200, Tempo, 1237113
1, 103320, Tempo, 1276596
1, 103440, Tempo, 1304348
1, 103560, Tempo, 1363636
1, 103680, Tempo, 1363636
1, 104400, Marker_t, "Teil5"
1, 105120, Tempo, 1304348
1, 105140, Tempo, 1263158
1, 105180, Tempo, 1304348
1, 105200, Tempo, 1318681
1, 105220, Tempo, 1290323
1, 105260, Tempo, 1276596
1, 105300, Tempo, 1318681
1, 105320, Tempo, 1333333
1, 105340, Tempo, 1318681
1, 105360, Tempo, 1290323
1, 105380, Tempo, 1276596
1, 105440, Tempo, 1318681
1, 105460, Tempo, 1333333
1, 105500, Tempo, 1318681
1, 105520, Tempo, 1290323
1, 105540, Tempo, 1276596
1, 105560, Tempo, 1263158
1, 105600, Tempo, 1304348
1, 105620, Tempo, 1318681
1, 105680, Tempo, 1304348
1, 105700, Tempo, 1290323
1, 105720, Tempo, 1276596
1, 105780, Tempo, 1304348
1, 105820, Tempo, 1318681
1, 105840, Tempo, 1290323
1, 105860, Tempo, 1276596
1, 105900, Tempo, 1263158
1, 105940, Tempo, 1290323
1, 105960, Tempo, 1304348
1, 105980, Tempo, 1318681
1, 106020, Tempo, 1290323
1, 106060, Tempo, 1276596
1, 106080, Tempo, 1263158
1, 106120, Tempo, 1276596
1, 106140, Tempo, 1304348
1, 106160, Tempo, 1333333
1, 106180, Tempo, 1304348
1, 106200, Tempo, 1290323
1, 106320, Tempo, 1363636
1, 106544, Tempo, 1290323
1, 106560, Tempo, 1276596
1, 106600, Tempo, 1290323
1, 106612, Tempo, 1304348
1, 106624, Tempo, 1333333
1, 106652, Tempo, 1318681
1, 106664, Tempo, 1304348
1, 106680, Tempo, 1276596
1, 106692, Tempo, 1263158
1, 106720, Tempo, 1276596
1, 106732, Tempo, 1318681
1, 106772, Tempo, 1304348
1, 106784, Tempo, 1290323
1, 106800, Tempo, 1276596
1, 106812, Tempo, 1263158
1, 106824, Tempo, 1290323
1, 106840, Tempo, 1318681
1, 106864, Tempo, 1290323
1, 106880, Tempo, 1276596
1, 106932, Tempo, 1333333
1, 106984, Tempo, 1318681
1, 107000, Tempo, 1290323
1, 107024, Tempo, 1276596
1, 107040, Tempo, 1263158
1, 107052, Tempo, 1250000
1, 107064, Tempo, 1276596
1, 107080, Tempo, 1304348
1, 107104, Tempo, 1333333
1, 107120, Tempo, 1304348
1, 107132, Tempo, 1290323
1, 107144, Tempo, 1263158
1, 107172, Tempo, 1290323
1, 107280, Tempo, 1333333
1, 107304, Tempo, 1318681
1, 107332, Tempo, 1304348
1, 107360, Tempo, 1290323
1, 107372, Tempo, 1304348
1, 107384, Tempo, 1348315
1, 107400, Tempo, 1363636
1, 107412, Tempo, 1348315
1, 107424, Tempo, 1318681
1, 107440, Tempo, 1304348
1, 107452, Tempo, 1290323
1, 107464, Tempo, 1276596
1, 107480, Tempo, 1290323
1, 107492, Tempo, 1333333
1, 107504, Tempo, 1348315
1, 107560, Tempo, 1318681
1, 107572, Tempo, 1304348
1, 107600, Tempo, 1333333
1, 107612, Tempo, 1363636
1, 107652, Tempo, 1348315
1, 107664, Tempo, 1318681
1, 107680, Tempo, 1304348
1, 107760, Tempo, 1538462
1, 107984, Tempo, 1304348
1, 108040, Tempo, 1290323
1, 108064, Tempo, 1318681
1, 108092, Tempo, 1304348
1, 108104, Tempo, 1276596
1, 108120, Tempo, 1263158
1, 108144, Tempo, 1290323
1, 108160, Tempo, 1304348
1, 108172, Tempo, 1333333
1, 108184, Tempo, 1348315
1, 108212, Tempo, 1318681
1, 108224, Tempo, 1276596
1, 108240, Tempo, 1263158
1, 108264, Tempo, 1290323
1, 108280, Tempo, 1318681
1, 108332, Tempo, 1304348
1, 108344, Tempo, 1290323
1, 108372, Tempo, 1276596
1, 108384, Tempo, 1290323
1, 108400, Tempo, 1304348
1, 108424, Tempo, 1318681
1, 108440, Tempo, 1333333
1, 108464, Tempo, 1318681
1, 108480, Tempo, 1304348
1, 108492, Tempo, 1290323
1, 108544, Tempo, 1304348
1, 108612, Tempo, 1290323
1, 108624, Tempo, 1304348
1, 108720, Tempo, 1348315
1, 108760, Tempo, 1395349
1, 108772, Tempo, 1411765
1, 108824, Tempo, 1379310
1, 108840, Tempo, 1363636
1, 108852, Tempo, 1348315
1, 108880, Tempo, 1395349
1, 108892, Tempo, 1411765
1, 108972, Tempo, 1379310
1, 108984, Tempo, 1363636
1, 109000, Tempo, 1348315
1, 109024, Tempo, 1363636
1, 109040, Tempo, 1395349
1, 109052, Tempo, 1411765
1, 109092, Tempo, 1395349
1, 109200, Tempo, 1666667
1, 109320, Tempo, 1764706
1, 109440, Tempo, 1600000
1, 110160, Tempo, 1363636
1, 110160, Marker_t, "Teil6"
1, 110240, Tempo, 1348315
1, 110880, Key_signature, -1, "major"
1, 110880, Tempo, 1300954
1, 111120, Tempo, 1212121
1, 111240, Tempo, 1237113
1, 111360, Tempo, 1290323
1, 111600, Tempo, 1348315
1, 112080, Tempo, 1412097
1, 112320, Tempo, 1348315
1, 113040, Tempo, 1312336
1, 114000, Tempo, 1218522
1, 114120, Tempo, 1100917
1, 114180, Tempo, 1200000
1, 114240, Tempo, 1333333
1, 114480, Tempo, 1287830
1, 114720, Tempo, 1340483
1, 114960, Tempo, 1454193
1, 115200, Tempo, 1398927
1, 115920, Tempo, 1287830
1, 116520, Tempo, 1382807
1, 116640, Tempo, 1287830
1, 117960, Tempo, 1492909
1, 118080, Tempo, 1287830
1, 118560, Tempo, 1382807
1, 119040, Tempo, 1300672
1, 119520, Tempo, 1354402
1, 119880, Tempo, 1459499
1, 120000, Tempo, 1354402
1, 121440, Tempo, 1395349
1, 121680, Tempo, 1290323
1, 122040, Tempo, 1290323
1, 122400, Tempo, 1333333
1, 122880, Tempo, 1276596
1, 123120, Tempo, 1263158
1, 123600, Tempo, 1379310
1, 123840, Tempo, 1318681
1, 124560, Tempo, 1276596
1, 126240, Tempo, 1304348
1, 126480, Tempo, 1243781
1, 126600, Tempo, 1387604
1, 126720, Tempo, 1333333
1, 127440, Tempo, 1304348
1, 127920, Tempo, 1379310
1, 128160, Tempo, 1304348
1, 128880, Tempo, 1276596
1, 129360, Tempo, 1333333
1, 129600, Tempo, 1378676
1, 130080, Tempo, 1395349
1, 130320, Tempo, 1333333
1, 131010, Tempo, 1176471
1, 131050, Tempo, 1165049
1, 131070, Tempo, 1153846
1, 131090, Tempo, 1142857
1, 131130, Tempo, 1132075
1, 131150, Tempo, 1121495
1, 131170, Tempo, 1111111
1, 131190, Tempo, 1132075
1, 131210, Tempo, 1153846
1, 131230, Tempo, 1176471
1, 131250, Tempo, 1200000
1, 131254, Tempo, 1090909
1, 131262, Tempo, 1142857
1, 131270, Tempo, 1212121
1, 131280, Tempo, 1212121
1, 131368, Tempo, 1363636
1, 132360, Tempo, 1569038
1, 132480, Tempo, 1356239
1, 132960, Tempo, 1333333
1, 132980, Tempo, 1318681
1, 133200, Tempo, 1290323
1, 133680, Tempo, 1428571
1, 133800, Tempo, 1518987
1, 133920, Tempo, 1348315
1, 134640, Tempo, 1188119
1, 134760, Tempo, 1263158
1, 134880, Tempo, 1188119
1, 135000, Tempo, 1263158
1, 135360, Tempo, 1237113
1, 136080, Tempo, 1200000
1, 136200, Tempo, 1263158
1, 136320, Tempo, 1176471
1, 136440, Tempo, 1263158
1, 136560, Tempo, 1176471
1, 136680, Tempo, 1237113
1, 136800, Tempo, 1411765
1, 136920, Tempo, 1348315
1, 137280, Tempo, 1318681
1, 138000, Tempo, 1348315
1, 138720, Tempo, 1395349
1, 138960, Tempo, 1348315
1, 139680, Tempo, 1304348
1, 141120, Tempo, 1304348
1, 141840, Tempo, 1333333
1, 142320, Tempo, 1428571
1, 142440, Tempo, 1611171
1, 142560, Tempo, 1326260
1, 143280, Tempo, 1395349
1, 143520, Tempo, 1420455
1, 143760, Tempo, 1805054
1, 143880, Tempo, 2377179
1, 144000, Tempo, 1411765
1, 144480, Marker_t, "Fine"
1, 145440, Tempo, 1290323
1, 145440, End_track
2, 0, Start_track
2, 0, Title_t, "Piano right"
2, 0, Program_c, 0, 0
2, 0, Control_c, 0, 7, 100
2, 0, Control_c, 0, 10, 64
2, 0, Control_c, 0, 91, 127
2, 0, Text_t, "bdca426d104a26ac9dcb070447587523"
2, 480, Control_c, 0, 91, 127
2, 720, Note_on_c, 0, 72, 50
2, 960, Note_on_c, 0, 72, 0
2, 960, Note_on_c, 0, 72, 50
2, 1200, Note_on_c, 0, 72, 0
2, 1200, Note_on_c, 0, 72, 50
2, 1440, Note_on_c, 0, 72, 0
2, 1440, Note_on_c, 0, 72, 52
2, 1560, Note_on_c, 0, 72, 0
2, 1560, Note_on_c, 0, 74, 47
2, 1600, Note_on_c, 0, 74, 0
2, 1600, Note_on_c, 0, 72, 46
2, 1640, Note_on_c, 0, 72, 0
2, 1640, Note_on_c, 0, 71, 46
2, 1680, Note_on_c, 0, 71, 0
2, 1680, Note_on_c, 0, 72, 52
2, 1800, Note_on_c, 0, 72, 0
2, 1800, Note_on_c, 0, 77, 40
2, 1920, Note_on_c, 0, 77, 0
2, 1920, Note_on_c, 0, 72, 44
2, 2040, Note_on_c, 0, 72, 0
2, 2160, Note_on_c, 0, 69, 43
2, 2400, Note_on_c, 0, 69, 0
2, 2400, Note_on_c, 0, 72, 48
2, 2640, Note_on_c, 0, 72, 0
2, 2640, Note_on_c, 0, 64, 44
2, 2880, Note_on_c, 0, 64, 0
2, 2880, Note_on_c, 0, 67, 53
2, 3360, Note_on_c, 0, 67, 0
2, 3360, Note_on_c, 0, 65, 48
2, 3600, Note_on_c, 0, 65, 0
2, 3600, Note_on_c, 0, 60, 40
2, 3600, Note_on_c, 0, 65, 73
2, 3840, Note_on_c, 0, 65, 0
2, 3840, Note_on_c, 0, 60, 0
2, 3840, Note_on_c, 0, 64, 51
2, 3840, Note_on_c, 0, 67, 75
2, 4080, Note_on_c, 0, 67, 0
2, 4080, Note_on_c, 0, 64, 0
2, 4080, Note_on_c, 0, 60, 40
2, 4080, Note_on_c, 0, 65, 52
2, 4080, Note_on_c, 0, 69, 76
2, 4320, Note_on_c, 0, 69, 0
2, 4320, Note_on_c, 0, 65, 0
2, 4320, Note_on_c, 0, 60, 0
2, 4320, Note_on_c, 0, 65, 63
2, 4320, Note_on_c, 0, 70, 77
2, 4680, Note_on_c, 0, 70, 0
2, 4680, Note_on_c, 0, 65, 0
2, 4680, Note_on_c, 0, 72, 61
2, 4740, Note_on_c, 0, 72, 0
2, 4740, Note_on_c, 0, 74, 57
2, 4800, Note_on_c, 0, 74, 0
2, 4800, Note_on_c, 0, 72, 55
2, 4920, Note_on_c, 0, 72, 0
2, 5040, Note_on_c, 0, 65, 46
2, 5280, Note_on_c, 0, 65, 0
2, 5280, Note_on_c, 0, 59, 25
2, 5280, Note_on_c, 0, 64, 52
2, 5520, Note_on_c, 0, 64, 0
2, 5520, Note_on_c, 0, 65, 46
2, 5760, Note_on_c, 0, 65, 0
2, 5760, Note_on_c, 0, 59, 0
2, 5760, Note_on_c, 0, 60, 32
2, 5760, Note_on_c, 0, 65, 32
2, 5760, Note_on_c, 0, 69, 47
2, 6240, Note_on_c, 0, 69, 0
2, 6240, Note_on_c, 0, 65, 0
2, 6240, Note_on_c, 0, 67, 46
2, 6240, Note_on_c, 0, 64, 21
2, 6480, Note_on_c, 0, 64, 0
2, 6480, Note_on_c, 0, 67, 0
2, 6480, Note_on_c, 0, 67, 54
2, 6720, Note_on_c, 0, 67, 0
2, 6720, Note_on_c, 0, 60, 0
2, 6720, Note_on_c, 0, 67, 59
2, 6960, Note_on_c, 0, 67, 0
2, 6960, Note_on_c, 0, 67, 65
2, 7140, Note_on_c, 0, 67, 0
2, 7140, Note_on_c, 0, 67, 66
2, 7200, Note_on_c, 0, 67, 0
2, 7200, Note_on_c, 0, 79, 74
2, 7560, Note_on_c, 0, 79, 0
2, 7560, Note_on_c, 0, 74, 50
2, 7620, Note_on_c, 0, 74, 0
2, 7620, Note_on_c, 0, 71, 46
2, 7680, Note_on_c, 0, 71, 0
2, 7680, Note_on_c, 0, 67, 48
2, 7920, Note_on_c, 0, 67, 0
2, 7920, Note_on_c, 0, 67, 55
2, 8160, Note_on_c, 0, 67, 0
2, 8160, Note_on_c, 0, 67, 63
2, 8400, Note_on_c, 0, 67, 0
2, 8400, Note_on_c, 0, 67, 69
2, 8580, Note_on_c, 0, 67, 0
2, 8580, Note_on_c, 0, 67, 68
2, 8640, Note_on_c, 0, 67, 0
2, 8640, Note_on_c, 0, 79, 73
2, 9300, Note_on_c, 0, 79, 0
2, 9300, Note_on_c, 0, 81, 56
2, 9330, Note_on_c, 0, 81, 0
2, 9330, Note_on_c, 0, 83, 49
2, 9360, Note_on_c, 0, 83, 0
2, 9360, Note_on_c, 0, 84, 55
2, 9480, Note_on_c, 0, 84, 0
2, 9480, Note_on_c, 0, 83, 49
2, 9600, Note_on_c, 0, 83, 0
2, 9600, Note_on_c, 0, 81, 55
2, 9720, Note_on_c, 0, 81, 0
2, 9720, Note_on_c, 0, 79, 46
2, 9840, Note_on_c, 0, 79, 0
2, 9840, Note_on_c, 0, 77, 51
2, 9960, Note_on_c, 0, 77, 0
2, 9960, Note_on_c, 0, 76, 47
2, 10080, Note_on_c, 0, 76, 0
2, 10080, Note_on_c, 0, 73, 52
2, 10200, Note_on_c, 0, 73, 0
2, 10200, Note_on_c, 0, 74, 48
2, 10320, Note_on_c, 0, 74, 0
2, 10320, Note_on_c, 0, 77, 49
2, 10440, Note_on_c, 0, 77, 0
2, 10440, Note_on_c, 0, 81, 46
2, 10560, Note_on_c, 0, 81, 0
2, 10560, Note_on_c, 0, 72, 54
2, 11280, Note_on_c, 0, 72, 0
2, 11280, Note_on_c, 0, 76, 48
2, 11280, Note_on_c, 0, 71, 37
2, 11400, Note_on_c, 0, 76, 0
2, 11400, Note_on_c, 0, 74, 47
2, 11520, Note_on_c, 0, 74, 0
2, 11520, Note_on_c, 0, 71, 0
2, 11520, Note_on_c, 0, 72, 47
2, 12000, Note_on_c, 0, 72, 0
2, 12240, Note_on_c, 0, 72, 50
2, 12480, Note_on_c, 0, 72, 0
2, 12480, Note_on_c, 0, 72, 50
2, 12720, Note_on_c, 0, 72, 0
2, 12720, Note_on_c, 0, 72, 50
2, 12960, Note_on_c, 0, 72, 0
2, 12960, Note_on_c, 0, 72, 52
2, 13080, Note_on_c, 0, 72, 0
2, 13080, Note_on_c, 0, 74, 47
2, 13120, Note_on_c, 0, 74, 0
2, 13120, Note_on_c, 0, 72, 46
2, 13160, Note_on_c, 0, 72, 0
2, 13160, Note_on_c, 0, 71, 46
2, 13200, Note_on_c, 0, 71, 0
2, 13200, Note_on_c, 0, 72, 52
2, 13320, Note_on_c, 0, 72, 0
2, 13320, Note_on_c, 0, 77, 43
2, 13440, Note_on_c, 0, 77, 0
2, 13440, Note_on_c, 0, 72, 47
2, 13560, Note_on_c, 0, 72, 0
2, 13680, Note_on_c, 0, 69, 47
2, 13920, Note_on_c, 0, 69, 0
2, 13920, Note_on_c, 0, 72, 48
2, 14160, Note_on_c, 0, 72, 0
2, 14160, Note_on_c, 0, 64, 45
2, 14400, Note_on_c, 0, 64, 0
2, 14400, Note_on_c, 0, 67, 54
2, 14880, Note_on_c, 0, 67, 0
2, 14880, Note_on_c, 0, 65, 48
2, 15120, Note_on_c, 0, 65, 0
2, 15120, Note_on_c, 0, 60, 40
2, 15120, Note_on_c, 0, 65, 73
2, 15360, Note_on_c, 0, 65, 0
2, 15360, Note_on_c, 0, 60, 0
2, 15360, Note_on_c, 0, 64, 51
2, 15360, Note_on_c, 0, 67, 75
2, 15600, Note_on_c, 0, 67, 0
2, 15600, Note_on_c, 0, 64, 0
2, 15600, Note_on_c, 0, 65, 52
2, 15600, Note_on_c, 0, 60, 40
2, 15600, Note_on_c, 0, 69, 76
2, 15840, Note_on_c, 0, 69, 0
2, 15840, Note_on_c, 0, 60, 0
2, 15840, Note_on_c, 0, 65, 0
2, 15840, Note_on_c, 0, 65, 63
2, 15840, Note_on_c, 0, 70, 77
2, 16200, Note_on_c, 0, 70, 0
2, 16200, Note_on_c, 0, 65, 0
2, 16200, Note_on_c, 0, 72, 59
2, 16260, Note_on_c, 0, 72, 0
2, 16260, Note_on_c, 0, 74, 56
2, 16320, Note_on_c, 0, 74, 0
2, 16320, Note_on_c, 0, 72, 56
2, 16440, Note_on_c, 0, 72, 0
2, 16560, Note_on_c, 0, 65, 47
2, 16800, Note_on_c, 0, 65, 0
2, 16800, Note_on_c, 0, 59, 31
2, 16800, Note_on_c, 0, 64, 52
2, 17040, Note_on_c, 0, 64, 0
2, 17040, Note_on_c, 0, 65, 45
2, 17280, Note_on_c, 0, 65, 0
2, 17280, Note_on_c, 0, 59, 0
2, 17280, Note_on_c, 0, 60, 32
2, 17280, Note_on_c, 0, 65, 32
2, 17280, Note_on_c, 0, 69, 47
2, 17760, Note_on_c, 0, 69, 0
2, 17760, Note_on_c, 0, 65, 0
2, 17760, Note_on_c, 0, 64, 31
2, 17760, Note_on_c, 0, 67, 46
2, 18000, Note_on_c, 0, 67, 0
2, 18000, Note_on_c, 0, 64, 0
2, 18000, Note_on_c, 0, 67, 54
2, 18240, Note_on_c, 0, 67, 0
2, 18240, Note_on_c, 0, 60, 0
2, 18240, Note_on_c, 0, 67, 59
2, 18480, Note_on_c, 0, 67, 0
2, 18480, Note_on_c, 0, 67, 65
2, 18660, Note_on_c, 0, 67, 0
2, 18660, Note_on_c, 0, 67, 66
2, 18720, Note_on_c, 0, 67, 0
2, 18720, Note_on_c, 0, 79, 74
2, 19080, Note_on_c, 0, 79, 0
2, 19080, Note_on_c, 0, 74, 50
2, 19140, Note_on_c, 0, 74, 0
2, 19140, Note_on_c, 0, 71, 46
2, 19200, Note_on_c, 0, 71, 0
2, 19200, Note_on_c, 0, 67, 51
2, 19440, Note_on_c, 0, 67, 0
2, 19440, Note_on_c, 0, 67, 59
2, 19680, Note_on_c, 0, 67, 0
2, 19680, Note_on_c, 0, 67, 63
2, 19920, Note_on_c, 0, 67, 0
2, 19920, Note_on_c, 0, 67, 69
2, 20100, Note_on_c, 0, 67, 0
2, 20100, Note_on_c, 0, 67, 68
2, 20160, Note_on_c, 0, 67, 0
2, 20160, Note_on_c, 0, 79, 73
2, 20820, Note_on_c, 0, 79, 0
2, 20820, Note_on_c, 0, 81, 56
2, 20850, Note_on_c, 0, 81, 0
2, 20850, Note_on_c, 0, 83, 49
2, 20880, Note_on_c, 0, 83, 0
2, 20880, Note_on_c, 0, 84, 53
2, 21000, Note_on_c, 0, 84, 0
2, 21000, Note_on_c, 0, 83, 49
2, 21120, Note_on_c, 0, 83, 0
2, 21120, Note_on_c, 0, 81, 52
2, 21240, Note_on_c, 0, 81, 0
2, 21240, Note_on_c, 0, 79, 49
2, 21360, Note_on_c, 0, 79, 0
2, 21360, Note_on_c, 0, 77, 51
2, 21480, Note_on_c, 0, 77, 0
2, 21480, Note_on_c, 0, 76, 50
2, 21600, Note_on_c, 0, 76, 0
2, 21600, Note_on_c, 0, 73, 52
2, 21720, Note_on_c, 0, 73, 0
2, 21720, Note_on_c, 0, 74, 48
2, 21840, Note_on_c, 0, 74, 0
2, 21840, Note_on_c, 0, 77, 49
2, 21960, Note_on_c, 0, 77, 0
2, 21960, Note_on_c, 0, 81, 48
2, 22080, Note_on_c, 0, 81, 0
2, 22080, Note_on_c, 0, 72, 54
2, 22800, Note_on_c, 0, 72, 0
2, 22800, Note_on_c, 0, 76, 48
2, 22800, Note_on_c, 0, 71, 43
2, 22920, Note_on_c, 0, 76, 0
2, 22920, Note_on_c, 0, 74, 47
2, 23040, Note_on_c, 0, 74, 0
2, 23040, Note_on_c, 0, 71, 0
2, 23040, Note_on_c, 0, 72, 47
2, 23520, Note_on_c, 0, 72, 0
2, 23760, Control_c, 0, 91, 127
2, 23760, Note_on_c, 0, 72, 50
2, 24000, Note_on_c, 0, 72, 0
2, 24000, Note_on_c, 0, 74, 54
2, 24120, Note_on_c, 0, 72, 50
2, 24130, Note_on_c, 0, 74, 0
2, 24240, Note_on_c, 0, 70, 55
2, 24250, Note_on_c, 0, 72, 0
2, 24360, Note_on_c, 0, 69, 49
2, 24370, Note_on_c, 0, 70, 0
2, 24480, Note_on_c, 0, 67, 61
2, 24490, Note_on_c, 0, 69, 0
2, 24960, Note_on_c, 0, 67, 0
2, 24960, Note_on_c, 0, 66, 51
2, 25200, Note_on_c, 0, 66, 0
2, 25200, Note_on_c, 0, 66, 63
2, 25440, Note_on_c, 0, 66, 0
2, 25440, Note_on_c, 0, 67, 65
2, 25680, Note_on_c, 0, 67, 0
2, 25680, Note_on_c, 0, 66, 52
2, 25680, Note_on_c, 0, 69, 66
2, 25860, Note_on_c, 0, 69, 0
2, 25860, Note_on_c, 0, 66, 0
2, 25920, Note_on_c, 0, 66, 51
2, 25920, Note_on_c, 0, 69, 65
2, 26400, Note_on_c, 0, 69, 0
2, 26400, Note_on_c, 0, 66, 0
2, 26400, Note_on_c, 0, 67, 45
2, 26400, Note_on_c, 0, 70, 56
2, 26616, Note_on_c, 0, 70, 0
2, 26616, Note_on_c, 0, 67, 0
2, 26640, Note_on_c, 0, 64, 51
2, 26880, Note_on_c, 0, 64, 0
2, 26880, Note_on_c, 0, 65, 55
2, 27120, Note_on_c, 0, 65, 0
2, 27120, Note_on_c, 0, 64, 53
2, 27120, Note_on_c, 0, 67, 53
2, 27300, Note_on_c, 0, 67, 0
2, 27300, Note_on_c, 0, 64, 0
2, 27360, Note_on_c, 0, 65, 55
2, 27360, Note_on_c, 0, 69, 61
2, 27600, Note_on_c, 0, 69, 0
2, 27600, Note_on_c, 0, 70, 68
2, 27840, Note_on_c, 0, 70, 0
2, 27840, Note_on_c, 0, 72, 67
2, 28080, Note_on_c, 0, 72, 0
2, 28080, Note_on_c, 0, 73, 70
2, 28320, Note_on_c, 0, 73, 0
2, 28320, Note_on_c, 0, 76, 72
2, 28440, Note_on_c, 0, 74, 58
2, 28450, Note_on_c, 0, 76, 0
2, 28560, Note_on_c, 0, 65, 0
2, 28560, Note_on_c, 0, 72, 65
2, 28570, Note_on_c, 0, 74, 0
2, 28680, Note_on_c, 0, 67, 55
2, 28680, Note_on_c, 0, 70, 55
2, 28690, Note_on_c, 0, 72, 0
2, 28800, Note_on_c, 0, 65, 46
2, 28800, Note_on_c, 0, 69, 57
2, 28810, Note_on_c, 0, 70, 0
2, 28810, Note_on_c, 0, 67, 0
2, 29280, Note_on_c, 0, 65, 0
2, 29280, Note_on_c, 0, 69, 0
2, 29280, Note_on_c, 0, 64, 40
2, 29280, Note_on_c, 0, 67, 51
2, 29520, Note_on_c, 0, 67, 0
2, 29520, Note_on_c, 0, 64, 0
2, 29520, Note_on_c, 0, 72, 65
2, 29760, Note_on_c, 0, 72, 0
2, 29760, Note_on_c, 0, 72, 66
2, 30000, Note_on_c, 0, 72, 0
2, 30000, Note_on_c, 0, 72, 72
2, 30240, Note_on_c, 0, 72, 0
2, 30240, Note_on_c, 0, 72, 81
2, 30240, Note_on_c, 0, 82, 81
2, 30960, Note_on_c, 0, 82, 0
2, 30960, Note_on_c, 0, 81, 69
2, 31200, Note_on_c, 0, 81, 0
2, 31200, Note_on_c, 0, 79, 70
2, 31200, Note_on_c, 0, 70, 58
2, 31440, Note_on_c, 0, 70, 0
2, 31440, Note_on_c, 0, 79, 0
2, 31440, Note_on_c, 0, 69, 56
2, 31440, Note_on_c, 0, 77, 66
2, 31680, Note_on_c, 0, 77, 0
2, 31680, Note_on_c, 0, 69, 0
2, 31680, Note_on_c, 0, 77, 66
2, 31680, Note_on_c, 0, 67, 55
2, 32160, Note_on_c, 0, 77, 0
2, 32160, Note_on_c, 0, 76, 56
2, 32400, Note_on_c, 0, 76, 0
2, 32400, Note_on_c, 0, 75, 51
2, 32640, Note_on_c, 0, 75, 0
2, 32640, Note_on_c, 0, 67, 0
2, 32640, Note_on_c, 0, 72, 0
2, 32640, Note_on_c, 0, 75, 48
2, 32880, Note_on_c, 0, 75, 0
2, 32880, Note_on_c, 0, 75, 47
2, 33120, Note_on_c, 0, 75, 0
2, 33120, Note_on_c, 0, 75, 39
2, 33150, Note_on_c, 0, 75, 0
2, 33150, Note_on_c, 0, 77, 40
2, 33180, Note_on_c, 0, 77, 0
2, 33180, Note_on_c, 0, 75, 42
2, 33210, Note_on_c, 0, 75, 0
2, 33210, Note_on_c, 0, 77, 42
2, 33240, Note_on_c, 0, 77, 0
2, 33240, Note_on_c, 0, 75, 42
2, 33270, Note_on_c, 0, 75, 0
2, 33270, Note_on_c, 0, 77, 42
2, 33300, Note_on_c, 0, 77, 0
2, 33300, Note_on_c, 0, 75, 39
2, 33330, Note_on_c, 0, 75, 0
2, 33330, Note_on_c, 0, 77, 38
2, 33360, Note_on_c, 0, 77, 0
2, 33360, Note_on_c, 0, 75, 46
2, 33480, Note_on_c, 0, 75, 0
2, 33480, Note_on_c, 0, 77, 50
2, 33600, Note_on_c, 0, 77, 0
2, 33600, Note_on_c, 0, 79, 55
2, 33840, Note_on_c, 0, 79, 0
2, 33840, Note_on_c, 0, 77, 54
2, 33960, Note_on_c, 0, 77, 0
2, 33960, Note_on_c, 0, 75, 51
2, 34080, Note_on_c, 0, 75, 0
2, 34080, Note_on_c, 0, 75, 53
2, 34200, Note_on_c, 0, 75, 0
2, 34200, Note_on_c, 0, 74, 49
2, 34314, Note_on_c, 0, 74, 0
2, 34320, Note_on_c, 0, 74, 52
2, 34440, Note_on_c, 0, 74, 0
2, 34440, Note_on_c, 0, 73, 50
2, 34552, Note_on_c, 0, 73, 0
2, 34560, Note_on_c, 0, 73, 55
2, 35040, Note_on_c, 0, 73, 0
2, 35040, Note_on_c, 0, 74, 50
2, 35280, Note_on_c, 0, 74, 0
2, 35280, Note_on_c, 0, 77, 54
2, 35400, Note_on_c, 0, 77, 0
2, 35400, Note_on_c, 0, 76, 51
2, 35520, Note_on_c, 0, 76, 0
2, 35520, Note_on_c, 0, 79, 59
2, 35640, Note_on_c, 0, 79, 0
2, 35640, Note_on_c, 0, 77, 53
2, 35760, Note_on_c, 0, 77, 0
2, 35760, Note_on_c, 0, 76, 54
2, 35880, Note_on_c, 0, 76, 0
2, 35880, Note_on_c, 0, 74, 49
2, 35992, Note_on_c, 0, 74, 0
2, 36000, Note_on_c, 0, 74, 49
2, 36480, Note_on_c, 0, 74, 0
2, 36480, Note_on_c, 0, 72, 48
2, 36720, Note_on_c, 0, 72, 0
2, 36720, Note_on_c, 0, 77, 57
2, 36900, Note_on_c, 0, 77, 0
2, 36900, Note_on_c, 0, 72, 51
2, 36960, Note_on_c, 0, 72, 0
2, 36960, Note_on_c, 0, 81, 65
2, 37140, Note_on_c, 0, 81, 0
2, 37140, Note_on_c, 0, 77, 58
2, 37200, Note_on_c, 0, 77, 0
2, 37200, Note_on_c, 0, 72, 66
2, 37380, Note_on_c, 0, 72, 0
2, 37380, Note_on_c, 0, 69, 57
2, 37440, Note_on_c, 0, 69, 0
2, 37440, Note_on_c, 0, 72, 69
2, 37800, Note_on_c, 0, 72, 0
2, 37800, Note_on_c, 0, 71, 55
2, 37920, Note_on_c, 0, 71, 0
2, 37920, Note_on_c, 0, 70, 55
2, 38160, Note_on_c, 0, 70, 0
2, 38160, Note_on_c, 0, 67, 75
2, 38160, Note_on_c, 0, 64, 67
2, 38340, Note_on_c, 0, 64, 0
2, 38340, Note_on_c, 0, 60, 64
2, 38400, Note_on_c, 0, 60, 0
2, 38400, Note_on_c, 0, 67, 0
2, 38400, Note_on_c, 0, 65, 69
2, 38400, Note_on_c, 0, 69, 76
2, 38580, Note_on_c, 0, 65, 0
2, 38580, Note_on_c, 0, 60, 65
2, 38640, Note_on_c, 0, 60, 0
2, 38640, Note_on_c, 0, 69, 0
2, 38640, Note_on_c, 0, 70, 78
2, 38640, Note_on_c, 0, 67, 70
2, 38820, Note_on_c, 0, 67, 0
2, 38820, Note_on_c, 0, 60, 69
2, 38880, Note_on_c, 0, 60, 0
2, 38880, Note_on_c, 0, 70, 0
2, 38880, Note_on_c, 0, 69, 70
2, 38880, Note_on_c, 0, 72, 80
2, 39000, Note_on_c, 0, 72, 0
2, 39000, Note_on_c, 0, 74, 53
2, 39120, Note_on_c, 0, 74, 0
2, 39120, Note_on_c, 0, 69, 0
2, 39120, Note_on_c, 0, 76, 54
2, 39240, Note_on_c, 0, 76, 0
2, 39240, Note_on_c, 0, 77, 47
2, 39360, Note_on_c, 0, 77, 0
2, 39360, Note_on_c, 0, 60, 38
2, 39360, Note_on_c, 0, 65, 49
2, 40080, Note_on_c, 0, 65, 0
2, 40080, Note_on_c, 0, 60, 0
2, 40080, Note_on_c, 0, 64, 37
2, 40080, Note_on_c, 0, 69, 47
2, 40200, Note_on_c, 0, 69, 0
2, 40200, Note_on_c, 0, 67, 44
2, 40320, Note_on_c, 0, 67, 0
2, 40320, Note_on_c, 0, 64, 0
2, 40320, Note_on_c, 0, 65, 47
2, 40800, Note_on_c, 0, 65, 0
2, 41040, Control_c, 0, 91, 127
2, 41040, Note_on_c, 0, 72, 50
2, 41280, Note_on_c, 0, 72, 0
2, 41280, Note_on_c, 0, 74, 54
2, 41400, Note_on_c, 0, 72, 50
2, 41410, Note_on_c, 0, 74, 0
2, 41520, Note_on_c, 0, 70, 55
2, 41530, Note_on_c, 0, 72, 0
2, 41640, Note_on_c, 0, 69, 49
2, 41650, Note_on_c, 0, 70, 0
2, 41760, Note_on_c, 0, 67, 61
2, 41770, Note_on_c, 0, 69, 0
2, 42240, Note_on_c, 0, 67, 0
2, 42240, Note_on_c, 0, 66, 51
2, 42475, Note_on_c, 0, 66, 0
2, 42480, Note_on_c, 0, 66, 63
2, 42720, Note_on_c, 0, 66, 0
2, 42720, Note_on_c, 0, 67, 65
2, 42960, Note_on_c, 0, 67, 0
2, 42960, Note_on_c, 0, 66, 52
2, 42960, Note_on_c, 0, 69, 66
2, 43140, Note_on_c, 0, 69, 0
2, 43140, Note_on_c, 0, 66, 0
2, 43200, Note_on_c, 0, 66, 51
2, 43200, Note_on_c, 0, 69, 65
2, 43680, Note_on_c, 0, 69, 0
2, 43680, Note_on_c, 0, 66, 0
2, 43680, Note_on_c, 0, 67, 45
2, 43680, Note_on_c, 0, 70, 56
2, 43896, Note_on_c, 0, 70, 0
2, 43896, Note_on_c, 0, 67, 0
2, 43920, Note_on_c, 0, 64, 51
2, 44160, Note_on_c, 0, 64, 0
2, 44160, Note_on_c, 0, 65, 55
2, 44400, Note_on_c, 0, 65, 0
2, 44400, Note_on_c, 0, 64, 53
2, 44400, Note_on_c, 0, 67, 53
2, 44580, Note_on_c, 0, 67, 0
2, 44580, Note_on_c, 0, 64, 0
2, 44640, Note_on_c, 0, 65, 55
2, 44640, Note_on_c, 0, 69, 61
2, 44880, Note_on_c, 0, 69, 0
2, 44880, Note_on_c, 0, 70, 68
2, 45120, Note_on_c, 0, 70, 0
2, 45120, Note_on_c, 0, 72, 70
2, 45360, Note_on_c, 0, 72, 0
2, 45360, Note_on_c, 0, 73, 70
2, 45600, Note_on_c, 0, 73, 0
2, 45600, Note_on_c, 0, 76, 70
2, 45720, Note_on_c, 0, 74, 58
2, 45730, Note_on_c, 0, 76, 0
2, 45840, Note_on_c, 0, 65, 0
2, 45840, Note_on_c, 0, 72, 65
2, 45850, Note_on_c, 0, 74, 0
2, 45960, Note_on_c, 0, 67, 55
2, 45960, Note_on_c, 0, 70, 55
2, 45970, Note_on_c, 0, 72, 0
2, 46080, Note_on_c, 0, 65, 46
2, 46080, Note_on_c, 0, 69, 57
2, 46090, Note_on_c, 0, 70, 0
2, 46090, Note_on_c, 0, 67, 0
2, 46560, Note_on_c, 0, 65, 0
2, 46560, Note_on_c, 0, 69, 0
2, 46560, Note_on_c, 0, 64, 40
2, 46560, Note_on_c, 0, 67, 51
2, 46800, Note_on_c, 0, 67, 0
2, 46800, Note_on_c, 0, 64, 0
2, 46800, Note_on_c, 0, 72, 65
2, 47040, Note_on_c, 0, 72, 0
2, 47040, Note_on_c, 0, 72, 66
2, 47280, Note_on_c, 0, 72, 0
2, 47280, Note_on_c, 0, 72, 72
2, 47520, Note_on_c, 0, 72, 0
2, 47520, Note_on_c, 0, 72, 81
2, 47520, Note_on_c, 0, 82, 81
2, 48240, Note_on_c, 0, 82, 0
2, 48240, Note_on_c, 0, 81, 69
2, 48480, Note_on_c, 0, 81, 0
2, 48480, Note_on_c, 0, 70, 58
2, 48480, Note_on_c, 0, 79, 70
2, 48720, Note_on_c, 0, 79, 0
2, 48720, Note_on_c, 0, 70, 0
2, 48720, Note_on_c, 0, 69, 56
2, 48720, Note_on_c, 0, 77, 66
2, 48960, Note_on_c, 0, 77, 0
2, 48960, Note_on_c, 0, 69, 0
2, 48960, Note_on_c, 0, 67, 60
2, 48960, Note_on_c, 0, 77, 60
2, 49440, Note_on_c, 0, 77, 0
2, 49440, Note_on_c, 0, 76, 56
2, 49680, Note_on_c, 0, 76, 0
2, 49680, Note_on_c, 0, 75, 51
2, 49920, Note_on_c, 0, 75, 0
2, 49920, Note_on_c, 0, 67, 0
2, 49920, Note_on_c, 0, 72, 0
2, 49920, Note_on_c, 0, 75, 50
2, 50160, Note_on_c, 0, 75, 0
2, 50160, Note_on_c, 0, 75, 46
2, 50400, Note_on_c, 0, 75, 0
2, 50400, Note_on_c, 0, 75, 40
2, 50430, Note_on_c, 0, 75, 0
2, 50430, Note_on_c, 0, 77, 42
2, 50460, Note_on_c, 0, 77, 0
2, 50460, Note_on_c, 0, 75, 43
2, 50490, Note_on_c, 0, 75, 0
2, 50490, Note_on_c, 0, 77, 45
2, 50520, Note_on_c, 0, 77, 0
2, 50520, Note_on_c, 0, 75, 45
2, 50550, Note_on_c, 0, 75, 0
2, 50550, Note_on_c, 0, 77, 45
2, 50580, Note_on_c, 0, 77, 0
2, 50580, Note_on_c, 0, 75, 43
2, 50610, Note_on_c, 0, 75, 0
2, 50610, Note_on_c, 0, 77, 42
2, 50640, Note_on_c, 0, 77, 0
2, 50640, Note_on_c, 0, 75, 47
2, 50760, Note_on_c, 0, 75, 0
2, 50760, Note_on_c, 0, 77, 47
2, 50880, Note_on_c, 0, 77, 0
2, 50880, Note_on_c, 0, 79, 54
2, 51120, Note_on_c, 0, 79, 0
2, 51120, Note_on_c, 0, 77, 54
2, 51240, Note_on_c, 0, 77, 0
2, 51240, Note_on_c, 0, 75, 51
2, 51355, Note_on_c, 0, 75, 0
2, 51360, Note_on_c, 0, 75, 54
2, 51480, Note_on_c, 0, 75, 0
2, 51480, Note_on_c, 0, 74, 49
2, 51596, Note_on_c, 0, 74, 0
2, 51600, Note_on_c, 0, 74, 53
2, 51720, Note_on_c, 0, 74, 0
2, 51720, Note_on_c, 0, 73, 49
2, 51835, Note_on_c, 0, 73, 0
2, 51840, Note_on_c, 0, 73, 55
2, 52320, Note_on_c, 0, 73, 0
2, 52320, Note_on_c, 0, 74, 50
2, 52560, Note_on_c, 0, 74, 0
2, 52560, Note_on_c, 0, 77, 56
2, 52680, Note_on_c, 0, 77, 0
2, 52680, Note_on_c, 0, 76, 53
2, 52800, Note_on_c, 0, 76, 0
2, 52800, Note_on_c, 0, 79, 59
2, 52920, Note_on_c, 0, 79, 0
2, 52920, Note_on_c, 0, 77, 53
2, 53040, Note_on_c, 0, 77, 0
2, 53040, Note_on_c, 0, 76, 54
2, 53160, Note_on_c, 0, 76, 0
2, 53160, Note_on_c, 0, 74, 50
2, 53275, Note_on_c, 0, 74, 0
2, 53280, Note_on_c, 0, 74, 49
2, 53760, Note_on_c, 0, 74, 0
2, 53760, Note_on_c, 0, 72, 48
2, 54000, Note_on_c, 0, 72, 0
2, 54000, Note_on_c, 0, 77, 57
2, 54180, Note_on_c, 0, 77, 0
2, 54180, Note_on_c, 0, 72, 51
2, 54240, Note_on_c, 0, 72, 0
2, 54240, Note_on_c, 0, 81, 65
2, 54420, Note_on_c, 0, 81, 0
2, 54420, Note_on_c, 0, 77, 58
2, 54480, Note_on_c, 0, 77, 0
2, 54480, Note_on_c, 0, 72, 66
2, 54660, Note_on_c, 0, 72, 0
2, 54660, Note_on_c, 0, 69, 57
2, 54720, Note_on_c, 0, 69, 0
2, 54720, Note_on_c, 0, 72, 69
2, 55080, Note_on_c, 0, 72, 0
2, 55080, Note_on_c, 0, 71, 65
2, 55200, Note_on_c, 0, 71, 0
2, 55200, Note_on_c, 0, 70, 65
2, 55440, Note_on_c, 0, 70, 0
2, 55440, Note_on_c, 0, 64, 67
2, 55440, Note_on_c, 0, 67, 75
2, 55620, Note_on_c, 0, 64, 0
2, 55620, Note_on_c, 0, 60, 64
2, 55680, Note_on_c, 0, 60, 0
2, 55680, Note_on_c, 0, 67, 0
2, 55680, Note_on_c, 0, 65, 69
2, 55680, Note_on_c, 0, 69, 76
2, 55860, Note_on_c, 0, 65, 0
2, 55860, Note_on_c, 0, 60, 65
2, 55920, Note_on_c, 0, 60, 0
2, 55920, Note_on_c, 0, 69, 0
2, 55920, Note_on_c, 0, 67, 71
2, 55920, Note_on_c, 0, 70, 78
2, 56100, Note_on_c, 0, 67, 0
2, 56100, Note_on_c, 0, 60, 69
2, 56160, Note_on_c, 0, 60, 0
2, 56160, Note_on_c, 0, 70, 0
2, 56160, Note_on_c, 0, 72, 80
2, 56160, Note_on_c, 0, 69, 71
2, 56280, Note_on_c, 0, 72, 0
2, 56280, Note_on_c, 0, 74, 51
2, 56400, Note_on_c, 0, 74, 0
2, 56400, Note_on_c, 0, 69, 0
2, 56400, Note_on_c, 0, 76, 54
2, 56520, Note_on_c, 0, 76, 0
2, 56520, Note_on_c, 0, 77, 47
2, 56640, Note_on_c, 0, 77, 0
2, 56640, Note_on_c, 0, 60, 38
2, 56640, Note_on_c, 0, 65, 49
2, 57360, Note_on_c, 0, 65, 0
2, 57360, Note_on_c, 0, 60, 0
2, 57360, Note_on_c, 0, 69, 47
2, 57360, Note_on_c, 0, 64, 37
2, 57480, Note_on_c, 0, 69, 0
2, 57480, Note_on_c, 0, 67, 44
2, 57600, Note_on_c, 0, 67, 0
2, 57600, Note_on_c, 0, 64, 0
2, 57600, Note_on_c, 0, 65, 47
2, 58080, Note_on_c, 0, 65, 0
2, 58320, Note_on_c, 0, 68, 37
2, 58320, Control_c, 0, 91, 127
2, 58320, Note_on_c, 0, 60, 37
2, 58548, Note_on_c, 0, 60, 0
2, 58548, Note_on_c, 0, 68, 0
2, 58560, Note_on_c, 0, 68, 37
2, 58560, Note_on_c, 0, 60, 37
2, 58788, Note_on_c, 0, 60, 0
2, 58788, Note_on_c, 0, 68, 0
2, 58800, Note_on_c, 0, 60, 37
2, 58800, Note_on_c, 0, 68, 37
2, 59028, Note_on_c, 0, 68, 0
2, 59028, Note_on_c, 0, 60, 0
2, 59040, Note_on_c, 0, 68, 40
2, 59040, Note_on_c, 0, 60, 40
2, 59760, Note_on_c, 0, 60, 0
2, 59760, Note_on_c, 0, 68, 0
2, 59760, Note_on_c, 0, 67, 37
2, 59760, Note_on_c, 0, 58, 37
2, 60000, Note_on_c, 0, 58, 0
2, 60000, Note_on_c, 0, 67, 0
2, 60000, Note_on_c, 0, 70, 37
2, 60000, Note_on_c, 0, 61, 37
2, 60240, Note_on_c, 0, 61, 0
2, 60240, Note_on_c, 0, 70, 0
2, 60240, Note_on_c, 0, 55, 37
2, 60240, Note_on_c, 0, 64, 37
2, 60480, Note_on_c, 0, 64, 0
2, 60480, Note_on_c, 0, 55, 0
2, 60480, Note_on_c, 0, 65, 42
2, 60480, Note_on_c, 0, 56, 42
2, 61200, Note_on_c, 0, 56, 0
2, 61200, Note_on_c, 0, 65, 0
2, 61200, Note_on_c, 0, 72, 42
2, 61200, Note_on_c, 0, 68, 42
2, 61428, Note_on_c, 0, 68, 0
2, 61428, Note_on_c, 0, 72, 0
2, 61440, Note_on_c, 0, 72, 44
2, 61440, Note_on_c, 0, 68, 44
2, 61668, Note_on_c, 0, 68, 0
2, 61668, Note_on_c, 0, 72, 0
2, 61680, Note_on_c, 0, 68, 40
2, 61680, Note_on_c, 0, 72, 40
2, 61908, Note_on_c, 0, 72, 0
2, 61908, Note_on_c, 0, 68, 0
2, 61920, Note_on_c, 0, 72, 50
2, 61920, Note_on_c, 0, 67, 50
2, 62640, Note_on_c, 0, 72, 0
2, 62640, Note_on_c, 0, 73, 51
2, 62880, Note_on_c, 0, 73, 0
2, 62880, Note_on_c, 0, 72, 50
2, 63120, Note_on_c, 0, 72, 0
2, 63120, Note_on_c, 0, 70, 48
2, 63300, Note_on_c, 0, 70, 0
2, 63300, Note_on_c, 0, 72, 46
2, 63360, Note_on_c, 0, 72, 0
2, 63360, Note_on_c, 0, 67, 0
2, 63360, Note_on_c, 0, 70, 53
2, 63360, Note_on_c, 0, 67, 53
2, 63600, Note_on_c, 0, 67, 0
2, 63600, Note_on_c, 0, 70, 0
2, 63600, Note_on_c, 0, 65, 44
2, 63600, Note_on_c, 0, 68, 44
2, 63840, Note_on_c, 0, 68, 0
2, 63840, Note_on_c, 0, 65, 0
2, 64080, Note_on_c, 0, 68, 53
2, 64320, Note_on_c, 0, 68, 0
2, 64320, Note_on_c, 0, 70, 58
2, 64560, Note_on_c, 0, 70, 0
2, 64560, Note_on_c, 0, 72, 53
2, 64800, Note_on_c, 0, 72, 0
2, 64800, Note_on_c, 0, 75, 61
2, 65040, Note_on_c, 0, 75, 0
2, 65040, Note_on_c, 0, 73, 57
2, 65280, Note_on_c, 0, 73, 0
2, 65490, Note_on_c, 0, 72, 60
2, 65520, Note_on_c, 0, 72, 0
2, 65520, Note_on_c, 0, 73, 74
2, 65730, Note_on_c, 0, 73, 0
2, 65730, Note_on_c, 0, 72, 64
2, 65760, Note_on_c, 0, 72, 0
2, 65760, Note_on_c, 0, 73, 80
2, 65970, Note_on_c, 0, 73, 0
2, 65970, Note_on_c, 0, 72, 68
2, 66000, Note_on_c, 0, 72, 0
2, 66000, Note_on_c, 0, 73, 89
2, 66240, Note_on_c, 0, 73, 0
2, 66240, Note_on_c, 0, 73, 90
2, 66360, Note_on_c, 0, 73, 0
2, 66360, Note_on_c, 0, 75, 64
2, 66400, Note_on_c, 0, 75, 0
2, 66400, Note_on_c, 0, 73, 57
2, 66440, Note_on_c, 0, 73, 0
2, 66440, Note_on_c, 0, 72, 64
2, 66480, Note_on_c, 0, 72, 0
2, 66480, Note_on_c, 0, 73, 64
2, 66600, Note_on_c, 0, 73, 0
2, 66600, Note_on_c, 0, 75, 56
2, 66720, Note_on_c, 0, 75, 0
2, 66720, Note_on_c, 0, 77, 47
2, 67440, Note_on_c, 0, 77, 0
2, 67440, Note_on_c, 0, 75, 47
2, 67560, Note_on_c, 0, 75, 0
2, 67560, Note_on_c, 0, 73, 47
2, 67680, Note_on_c, 0, 73, 0
2, 67680, Note_on_c, 0, 72, 51
2, 67800, Note_on_c, 0, 72, 0
2, 67800, Note_on_c, 0, 75, 47
2, 67920, Note_on_c, 0, 75, 0
2, 67920, Note_on_c, 0, 73, 47
2, 68040, Note_on_c, 0, 73, 0
2, 68040, Note_on_c, 0, 70, 47
2, 68160, Note_on_c, 0, 70, 0
2, 68160, Note_on_c, 0, 68, 53
2, 68880, Note_on_c, 0, 68, 0
2, 68880, Note_on_c, 0, 67, 43
2, 68880, Note_on_c, 0, 72, 43
2, 69000, Note_on_c, 0, 72, 0
2, 69000, Note_on_c, 0, 70, 43
2, 69120, Note_on_c, 0, 70, 0
2, 69120, Note_on_c, 0, 67, 0
2, 69120, Note_on_c, 0, 68, 47
2, 69600, Note_on_c, 0, 68, 0
2, 69840, Control_c, 0, 91, 127
2, 69840, Note_on_c, 0, 60, 37
2, 69840, Note_on_c, 0, 68, 37
2, 70068, Note_on_c, 0, 68, 0
2, 70068, Note_on_c, 0, 60, 0
2, 70080, Note_on_c, 0, 60, 37
2, 70080, Note_on_c, 0, 68, 37
2, 70308, Note_on_c, 0, 68, 0
2, 70308, Note_on_c, 0, 60, 0
2, 70320, Note_on_c, 0, 60, 37
2, 70320, Note_on_c, 0, 68, 37
2, 70548, Note_on_c, 0, 68, 0
2, 70548, Note_on_c, 0, 60, 0
2, 70560, Note_on_c, 0, 60, 40
2, 70560, Note_on_c, 0, 68, 40
2, 71280, Note_on_c, 0, 68, 0
2, 71280, Note_on_c, 0, 60, 0
2, 71280, Note_on_c, 0, 58, 37
2, 71280, Note_on_c, 0, 67, 37
2, 71520, Note_on_c, 0, 67, 0
2, 71520, Note_on_c, 0, 58, 0
2, 71520, Note_on_c, 0, 61, 37
2, 71520, Note_on_c, 0, 70, 37
2, 71760, Note_on_c, 0, 70, 0
2, 71760, Note_on_c, 0, 61, 0
2, 71760, Note_on_c, 0, 55, 37
2, 71760, Note_on_c, 0, 64, 37
2, 72000, Note_on_c, 0, 64, 0
2, 72000, Note_on_c, 0, 55, 0
2, 72000, Note_on_c, 0, 56, 42
2, 72000, Note_on_c, 0, 65, 42
2, 72720, Note_on_c, 0, 65, 0
2, 72720, Note_on_c, 0, 56, 0
2, 72720, Note_on_c, 0, 68, 42
2, 72720, Note_on_c, 0, 72, 42
2, 72948, Note_on_c, 0, 72, 0
2, 72948, Note_on_c, 0, 68, 0
2, 72960, Note_on_c, 0, 68, 44
2, 72960, Note_on_c, 0, 72, 44
2, 73188, Note_on_c, 0, 72, 0
2, 73188, Note_on_c, 0, 68, 0
2, 73200, Note_on_c, 0, 68, 40
2, 73200, Note_on_c, 0, 72, 40
2, 73428, Note_on_c, 0, 72, 0
2, 73428, Note_on_c, 0, 68, 0
2, 73440, Note_on_c, 0, 72, 50
2, 73440, Note_on_c, 0, 67, 50
2, 74160, Note_on_c, 0, 72, 0
2, 74160, Note_on_c, 0, 73, 51
2, 74400, Note_on_c, 0, 73, 0
2, 74400, Note_on_c, 0, 72, 50
2, 74640, Note_on_c, 0, 72, 0
2, 74640, Note_on_c, 0, 70, 48
2, 74820, Note_on_c, 0, 70, 0
2, 74820, Note_on_c, 0, 72, 46
2, 74880, Note_on_c, 0, 72, 0
2, 74880, Note_on_c, 0, 67, 0
2, 74880, Note_on_c, 0, 67, 53
2, 74880, Note_on_c, 0, 70, 53
2, 75120, Note_on_c, 0, 70, 0
2, 75120, Note_on_c, 0, 67, 0
2, 75120, Note_on_c, 0, 65, 44
2, 75120, Note_on_c, 0, 68, 44
2, 75360, Note_on_c, 0, 68, 0
2, 75360, Note_on_c, 0, 65, 0
2, 75600, Note_on_c, 0, 68, 53
2, 75840, Note_on_c, 0, 68, 0
2, 75840, Note_on_c, 0, 70, 58
2, 76080, Note_on_c, 0, 70, 0
2, 76080, Note_on_c, 0, 72, 53
2, 76320, Note_on_c, 0, 72, 0
2, 76320, Note_on_c, 0, 75, 61
2, 76560, Note_on_c, 0, 75, 0
2, 76560, Note_on_c, 0, 73, 57
2, 76800, Note_on_c, 0, 73, 0
2, 77010, Note_on_c, 0, 72, 57
2, 77040, Note_on_c, 0, 72, 0
2, 77040, Note_on_c, 0, 73, 72
2, 77250, Note_on_c, 0, 73, 0
2, 77250, Note_on_c, 0, 72, 63
2, 77280, Note_on_c, 0, 72, 0
2, 77280, Note_on_c, 0, 73, 78
2, 77490, Note_on_c, 0, 73, 0
2, 77490, Note_on_c, 0, 72, 69
2, 77520, Note_on_c, 0, 72, 0
2, 77520, Note_on_c, 0, 73, 86
2, 77760, Note_on_c, 0, 73, 0
2, 77760, Note_on_c, 0, 73, 95
2, 77880, Note_on_c, 0, 73, 0
2, 77880, Note_on_c, 0, 75, 60
2, 77920, Note_on_c, 0, 75, 0
2, 77920, Note_on_c, 0, 73, 56
2, 77960, Note_on_c, 0, 73, 0
2, 77960, Note_on_c, 0, 72, 60
2, 78000, Note_on_c, 0, 72, 0
2, 78000, Note_on_c, 0, 73, 61
2, 78120, Note_on_c, 0, 73, 0
2, 78120, Note_on_c, 0, 75, 53
2, 78240, Note_on_c, 0, 75, 0
2, 78240, Note_on_c, 0, 77, 47
2, 78960, Note_on_c, 0, 77, 0
2, 78960, Note_on_c, 0, 75, 47
2, 79080, Note_on_c, 0, 75, 0
2, 79080, Note_on_c, 0, 73, 44
2, 79200, Note_on_c, 0, 73, 0
2, 79200, Note_on_c, 0, 72, 51
2, 79320, Note_on_c, 0, 72, 0
2, 79320, Note_on_c, 0, 75, 44
2, 79440, Note_on_c, 0, 75, 0
2, 79440, Note_on_c, 0, 73, 47
2, 79560, Note_on_c, 0, 73, 0
2, 79560, Note_on_c, 0, 70, 46
2, 79680, Note_on_c, 0, 70, 0
2, 79680, Note_on_c, 0, 68, 53
2, 80400, Note_on_c, 0, 68, 0
2, 80400, Note_on_c, 0, 67, 43
2, 80400, Note_on_c, 0, 72, 43
2, 80520, Note_on_c, 0, 72, 0
2, 80520, Note_on_c, 0, 70, 43
2, 80640, Note_on_c, 0, 70, 0
2, 80640, Note_on_c, 0, 67, 0
2, 80640, Note_on_c, 0, 68, 47
2, 81120, Note_on_c, 0, 68, 0
2, 81360, Control_c, 0, 91, 127
2, 81360, Note_on_c, 0, 63, 53
2, 81600, Note_on_c, 0, 63, 0
2, 81600, Note_on_c, 0, 68, 53
2, 81840, Note_on_c, 0, 68, 0
2, 81840, Note_on_c, 0, 72, 51
2, 82080, Note_on_c, 0, 72, 0
2, 82080, Note_on_c, 0, 75, 58
2, 82800, Note_on_c, 0, 75, 0
2, 82800, Note_on_c, 0, 73, 50
2, 82920, Note_on_c, 0, 73, 0
2, 82920, Note_on_c, 0, 72, 47
2, 83040, Note_on_c, 0, 72, 0
2, 83040, Note_on_c, 0, 70, 50
2, 83280, Note_on_c, 0, 70, 0
2, 83280, Note_on_c, 0, 68, 47
2, 83460, Note_on_c, 0, 68, 0
2, 83520, Note_on_c, 0, 72, 53
2, 84000, Note_on_c, 0, 72, 0
2, 84000, Note_on_c, 0, 70, 49
2, 84240, Note_on_c, 0, 70, 0
2, 84240, Note_on_c, 0, 60, 67
2, 84480, Note_on_c, 0, 60, 0
2, 84480, Note_on_c, 0, 65, 69
2, 84720, Note_on_c, 0, 65, 0
2, 84720, Note_on_c, 0, 68, 67
2, 84960, Note_on_c, 0, 68, 0
2, 84960, Note_on_c, 0, 72, 71
2, 85680, Note_on_c, 0, 72, 0
2, 85680, Note_on_c, 0, 70, 53
2, 85800, Note_on_c, 0, 70, 0
2, 85800, Note_on_c, 0, 68, 50
2, 85920, Note_on_c, 0, 68, 0
2, 85920, Note_on_c, 0, 67, 53
2, 86160, Note_on_c, 0, 67, 0
2, 86160, Note_on_c, 0, 65, 44
2, 86340, Note_on_c, 0, 65, 0
2, 86400, Note_on_c, 0, 65, 49
2, 86400, Note_on_c, 0, 68, 49
2, 86880, Note_on_c, 0, 68, 0
2, 86880, Note_on_c, 0, 65, 0
2, 86880, Note_on_c, 0, 67, 46
2, 86880, Note_on_c, 0, 64, 46
2, 87120, Note_on_c, 0, 64, 0
2, 87120, Note_on_c, 0, 67, 0
2, 87120, Note_on_c, 0, 72, 60
2, 87360, Note_on_c, 0, 72, 0
2, 87360, Note_on_c, 0, 77, 60
2, 87600, Note_on_c, 0, 77, 0
2, 87600, Note_on_c, 0, 80, 59
2, 87840, Note_on_c, 0, 80, 0
2, 87840, Note_on_c, 0, 79, 66
2, 88080, Note_on_c, 0, 79, 0
2, 88080, Note_on_c, 0, 77, 65
2, 88320, Note_on_c, 0, 77, 0
2, 88560, Note_on_c, 0, 72, 66
2, 88800, Note_on_c, 0, 72, 0
2, 88800, Note_on_c, 0, 77, 68
2, 89040, Note_on_c, 0, 77, 0
2, 89040, Note_on_c, 0, 80, 66
2, 89280, Note_on_c, 0, 80, 0
2, 89280, Note_on_c, 0, 79, 72
2, 89520, Note_on_c, 0, 79, 0
2, 89520, Note_on_c, 0, 77, 69
2, 89760, Note_on_c, 0, 77, 0
2, 90000, Note_on_c, 0, 69, 61
2, 90000, Note_on_c, 0, 75, 72
2, 90000, Note_on_c, 0, 77, 72
2, 90000, Note_on_c, 0, 72, 61
2, 90228, Note_on_c, 0, 72, 0
2, 90228, Note_on_c, 0, 69, 0
2, 90228, Note_on_c, 0, 75, 0
2, 90228, Note_on_c, 0, 77, 0
2, 90240, Note_on_c, 0, 75, 73
2, 90240, Note_on_c, 0, 69, 61
2, 90240, Note_on_c, 0, 72, 61
2, 90240, Note_on_c, 0, 77, 73
2, 90468, Note_on_c, 0, 77, 0
2, 90468, Note_on_c, 0, 75, 0
2, 90468, Note_on_c, 0, 69, 0
2, 90468, Note_on_c, 0, 72, 0
2, 90480, Note_on_c, 0, 75, 72
2, 90480, Note_on_c, 0, 69, 60
2, 90480, Note_on_c, 0, 72, 60
2, 90480, Note_on_c, 0, 77, 72
2, 90708, Note_on_c, 0, 77, 0
2, 90708, Note_on_c, 0, 75, 0
2, 90708, Note_on_c, 0, 69, 0
2, 90708, Note_on_c, 0, 72, 0
2, 90720, Note_on_c, 0, 77, 63
2, 90720, Note_on_c, 0, 73, 63
2, 90840, Note_on_c, 0, 73, 0
2, 90840, Note_on_c, 0, 77, 0
2, 90840, Note_on_c, 0, 73, 55
2, 90840, Note_on_c, 0, 70, 55
2, 90948, Note_on_c, 0, 70, 0
2, 90948, Note_on_c, 0, 73, 0
2, 90960, Note_on_c, 0, 70, 53
2, 90960, Note_on_c, 0, 73, 53
2, 91080, Note_on_c, 0, 73, 0
2, 91080, Note_on_c, 0, 70, 0
2, 91080, Note_on_c, 0, 70, 48
2, 91080, Note_on_c, 0, 67, 48
2, 91188, Note_on_c, 0, 67, 0
2, 91188, Note_on_c, 0, 70, 0
2, 91200, Note_on_c, 0, 65, 46
2, 91200, Note_on_c, 0, 68, 46
2, 91620, Note_on_c, 0, 68, 0
2, 91620, Note_on_c, 0, 65, 0
2, 91620, Note_on_c, 0, 68, 46
2, 91680, Note_on_c, 0, 68, 0
2, 91680, Note_on_c, 0, 67, 49
2, 91680, Note_on_c, 0, 64, 49
2, 91920, Note_on_c, 0, 64, 0
2, 91920, Note_on_c, 0, 67, 0
2, 91920, Note_on_c, 0, 65, 46
2, 92040, Note_on_c, 0, 65, 0
2, 92040, Note_on_c, 0, 67, 43
2, 92160, Note_on_c, 0, 67, 0
2, 92160, Note_on_c, 0, 65, 49
2, 92640, Note_on_c, 0, 65, 0
2, 92880, Control_c, 0, 91, 127
2, 92880, Note_on_c, 0, 63, 53
2, 93120, Note_on_c, 0, 63, 0
2, 93120, Note_on_c, 0, 68, 53
2, 93360, Note_on_c, 0, 68, 0
2, 93360, Note_on_c, 0, 72, 51
2, 93600, Note_on_c, 0, 72, 0
2, 93600, Note_on_c, 0, 75, 58
2, 94320, Note_on_c, 0, 75, 0
2, 94320, Note_on_c, 0, 73, 50
2, 94440, Note_on_c, 0, 73, 0
2, 94440, Note_on_c, 0, 72, 47
2, 94560, Note_on_c, 0, 72, 0
2, 94560, Note_on_c, 0, 70, 50
2, 94800, Note_on_c, 0, 70, 0
2, 94800, Note_on_c, 0, 68, 47
2, 94980, Note_on_c, 0, 68, 0
2, 95040, Note_on_c, 0, 72, 53
2, 95520, Note_on_c, 0, 72, 0
2, 95520, Note_on_c, 0, 70, 49
2, 95760, Note_on_c, 0, 70, 0
2, 95760, Note_on_c, 0, 60, 67
2, 96000, Note_on_c, 0, 60, 0
2, 96000, Note_on_c, 0, 65, 69
2, 96240, Note_on_c, 0, 65, 0
2, 96240, Note_on_c, 0, 68, 67
2, 96480, Note_on_c, 0, 68, 0
2, 96480, Note_on_c, 0, 72, 71
2, 97200, Note_on_c, 0, 72, 0
2, 97200, Note_on_c, 0, 70, 53
2, 97320, Note_on_c, 0, 70, 0
2, 97320, Note_on_c, 0, 68, 50
2, 97440, Note_on_c, 0, 68, 0
2, 97440, Note_on_c, 0, 67, 53
2, 97680, Note_on_c, 0, 67, 0
2, 97680, Note_on_c, 0, 65, 47
2, 97860, Note_on_c, 0, 65, 0
2, 97920, Note_on_c, 0, 65, 49
2, 97920, Note_on_c, 0, 68, 49
2, 98400, Note_on_c, 0, 68, 0
2, 98400, Note_on_c, 0, 65, 0
2, 98400, Note_on_c, 0, 64, 46
2, 98400, Note_on_c, 0, 67, 46
2, 98640, Note_on_c, 0, 67, 0
2, 98640, Note_on_c, 0, 64, 0
2, 98640, Note_on_c, 0, 72, 60
2, 98880, Note_on_c, 0, 72, 0
2, 98880, Note_on_c, 0, 77, 60
2, 99120, Note_on_c, 0, 77, 0
2, 99120, Note_on_c, 0, 80, 59
2, 99360, Note_on_c, 0, 80, 0
2, 99360, Note_on_c, 0, 79, 66
2, 99600, Note_on_c, 0, 79, 0
2, 99600, Note_on_c, 0, 77, 65
2, 99840, Note_on_c, 0, 77, 0
2, 100080, Note_on_c, 0, 72, 66
2, 100320, Note_on_c, 0, 72, 0
2, 100320, Note_on_c, 0, 77, 68
2, 100560, Note_on_c, 0, 77, 0
2, 100560, Note_on_c, 0, 80, 66
2, 100800, Note_on_c, 0, 80, 0
2, 100800, Note_on_c, 0, 79, 72
2, 101040, Note_on_c, 0, 79, 0
2, 101040, Note_on_c, 0, 77, 69
2, 101280, Note_on_c, 0, 77, 0
2, 101520, Note_on_c, 0, 72, 61
2, 101520, Note_on_c, 0, 69, 61
2, 101520, Note_on_c, 0, 75, 72
2, 101520, Note_on_c, 0, 77, 72
2, 101748, Note_on_c, 0, 77, 0
2, 101748, Note_on_c, 0, 72, 0
2, 101748, Note_on_c, 0, 69, 0
2, 101748, Note_on_c, 0, 75, 0
2, 101760, Note_on_c, 0, 69, 61
2, 101760, Note_on_c, 0, 72, 61
2, 101760, Note_on_c, 0, 75, 73
2, 101760, Note_on_c, 0, 77, 73
2, 101988, Note_on_c, 0, 77, 0
2, 101988, Note_on_c, 0, 69, 0
2, 101988, Note_on_c, 0, 72, 0
2, 101988, Note_on_c, 0, 75, 0
2, 102000, Note_on_c, 0, 69, 60
2, 102000, Note_on_c, 0, 72, 60
2, 102000, Note_on_c, 0, 75, 72
2, 102000, Note_on_c, 0, 77, 72
2, 102228, Note_on_c, 0, 77, 0
2, 102228, Note_on_c, 0, 69, 0
2, 102228, Note_on_c, 0, 72, 0
2, 102228, Note_on_c, 0, 75, 0
2, 102240, Note_on_c, 0, 73, 63
2, 102240, Note_on_c, 0, 77, 63
2, 102360, Note_on_c, 0, 77, 0
2, 102360, Note_on_c, 0, 73, 0
2, 102360, Note_on_c, 0, 70, 55
2, 102360, Note_on_c, 0, 73, 55
2, 102468, Note_on_c, 0, 73, 0
2, 102468, Note_on_c, 0, 70, 0
2, 102480, Note_on_c, 0, 70, 53
2, 102480, Note_on_c, 0, 73, 53
2, 102600, Note_on_c, 0, 73, 0
2, 102600, Note_on_c, 0, 70, 0
2, 102600, Note_on_c, 0, 70, 48
2, 102600, Note_on_c, 0, 67, 48
2, 102708, Note_on_c, 0, 67, 0
2, 102708, Note_on_c, 0, 70, 0
2, 102720, Note_on_c, 0, 65, 46
2, 102720, Note_on_c, 0, 68, 46
2, 103140, Note_on_c, 0, 68, 0
2, 103140, Note_on_c, 0, 65, 0
2, 103140, Note_on_c, 0, 68, 46
2, 103200, Note_on_c, 0, 68, 0
2, 103200, Note_on_c, 0, 64, 49
2, 103200, Note_on_c, 0, 67, 49
2, 103440, Note_on_c, 0, 67, 0
2, 103440, Note_on_c, 0, 64, 0
2, 103440, Note_on_c, 0, 65, 46
2, 103560, Note_on_c, 0, 65, 0
2, 103560, Note_on_c, 0, 67, 43
2, 103680, Note_on_c, 0, 67, 0
2, 103680, Note_on_c, 0, 65, 49
2, 104160, Note_on_c, 0, 65, 0
2, 104400, Note_on_c, 0, 68, 37
2, 104400, Control_c, 0, 91, 127
2, 104400, Note_on_c, 0, 60, 37
2, 104628, Note_on_c, 0, 60, 0
2, 104628, Note_on_c, 0, 68, 0
2, 104640, Note_on_c, 0, 60, 37
2, 104640, Note_on_c, 0, 68, 37
2, 104868, Note_on_c, 0, 68, 0
2, 104868, Note_on_c, 0, 60, 0
2, 104880, Note_on_c, 0, 60, 35
2, 104880, Note_on_c, 0, 68, 35
2, 105108, Note_on_c, 0, 68, 0
2, 105108, Note_on_c, 0, 60, 0
2, 105120, Note_on_c, 0, 60, 40
2, 105120, Note_on_c, 0, 68, 40
2, 105840, Note_on_c, 0, 68, 0
2, 105840, Note_on_c, 0, 60, 0
2, 105840, Note_on_c, 0, 67, 37
2, 105840, Note_on_c, 0, 58, 37
2, 106080, Note_on_c, 0, 58, 0
2, 106080, Note_on_c, 0, 67, 0
2, 106080, Note_on_c, 0, 70, 39
2, 106080, Note_on_c, 0, 61, 39
2, 106320, Note_on_c, 0, 61, 0
2, 106320, Note_on_c, 0, 70, 0
2, 106320, Note_on_c, 0, 55, 37
2, 106320, Note_on_c, 0, 64, 37
2, 106560, Note_on_c, 0, 64, 0
2, 106560, Note_on_c, 0, 55, 0
2, 106560, Note_on_c, 0, 56, 42
2, 106560, Note_on_c, 0, 65, 42
2, 107280, Note_on_c, 0, 65, 0
2, 107280, Note_on_c, 0, 56, 0
2, 107280, Note_on_c, 0, 72, 34
2, 107280, Note_on_c, 0, 68, 34
2, 107508, Note_on_c, 0, 68, 0
2, 107508, Note_on_c, 0, 72, 0
2, 107520, Note_on_c, 0, 72, 35
2, 107520, Note_on_c, 0, 68, 35
2, 107748, Note_on_c, 0, 68, 0
2, 107748, Note_on_c, 0, 72, 0
2, 107760, Note_on_c, 0, 68, 34
2, 107760, Note_on_c, 0, 72, 34
2, 107988, Note_on_c, 0, 72, 0
2, 107988, Note_on_c, 0, 68, 0
2, 108000, Note_on_c, 0, 72, 38
2, 108000, Note_on_c, 0, 68, 38
2, 108000, Note_on_c, 0, 64, 38
2, 108720, Note_on_c, 0, 68, 0
2, 108720, Note_on_c, 0, 72, 0
2, 108720, Note_on_c, 0, 67, 34
2, 108720, Note_on_c, 0, 70, 34
2, 108960, Note_on_c, 0, 70, 0
2, 108960, Note_on_c, 0, 67, 0
2, 108960, Note_on_c, 0, 70, 37
2, 108960, Note_on_c, 0, 73, 37
2, 109200, Note_on_c, 0, 73, 0
2, 109200, Note_on_c, 0, 70, 0
2, 109200, Note_on_c, 0, 64, 0
2, 109200, Note_on_c, 0, 60, 32
2, 109200, Note_on_c, 0, 64, 32
2, 109207, Note_on_c, 0, 58, 32
2, 109440, Note_on_c, 0, 64, 0
2, 109440, Note_on_c, 0, 60, 0
2, 109440, Note_on_c, 0, 65, 32
2, 109440, Note_on_c, 0, 60, 32
2, 109440, Note_on_c, 0, 56, 32
2, 109447, Note_on_c, 0, 58, 0
2, 109920, Note_on_c, 0, 65, 0
2, 109920, Note_on_c, 0, 60, 0
2, 109920, Note_on_c, 0, 56, 0
2, 110160, Note_on_c, 0, 72, 50
2, 110400, Note_on_c, 0, 72, 0
2, 110400, Note_on_c, 0, 72, 50
2, 110640, Note_on_c, 0, 72, 0
2, 110640, Note_on_c, 0, 72, 50
2, 110880, Note_on_c, 0, 72, 0
2, 110880, Note_on_c, 0, 72, 52
2, 111000, Note_on_c, 0, 72, 0
2, 111000, Note_on_c, 0, 74, 47
2, 111040, Note_on_c, 0, 74, 0
2, 111040, Note_on_c, 0, 72, 46
2, 111080, Note_on_c, 0, 72, 0
2, 111080, Note_on_c, 0, 71, 46
2, 111120, Note_on_c, 0, 71, 0
2, 111120, Note_on_c, 0, 72, 52
2, 111240, Note_on_c, 0, 72, 0
2, 111240, Note_on_c, 0, 77, 49
2, 111360, Note_on_c, 0, 77, 0
2, 111360, Note_on_c, 0, 72, 47
2, 111480, Note_on_c, 0, 72, 0
2, 111600, Note_on_c, 0, 69, 47
2, 111840, Note_on_c, 0, 69, 0
2, 111840, Note_on_c, 0, 72, 48
2, 112080, Note_on_c, 0, 72, 0
2, 112080, Note_on_c, 0, 64, 47
2, 112320, Note_on_c, 0, 64, 0
2, 112320, Note_on_c, 0, 67, 54
2, 112800, Note_on_c, 0, 67, 0
2, 112800, Note_on_c, 0, 65, 48
2, 113040, Note_on_c, 0, 65, 0
2, 113040, Note_on_c, 0, 60, 40
2, 113040, Note_on_c, 0, 65, 73
2, 113280, Note_on_c, 0, 65, 0
2, 113280, Note_on_c, 0, 60, 0
2, 113280, Note_on_c, 0, 64, 51
2, 113280, Note_on_c, 0, 67, 75
2, 113520, Note_on_c, 0, 67, 0
2, 113520, Note_on_c, 0, 64, 0
2, 113520, Note_on_c, 0, 65, 52
2, 113520, Note_on_c, 0, 60, 40
2, 113520, Note_on_c, 0, 69, 76
2, 113760, Note_on_c, 0, 69, 0
2, 113760, Note_on_c, 0, 60, 0
2, 113760, Note_on_c, 0, 65, 0
2, 113760, Note_on_c, 0, 65, 63
2, 113760, Note_on_c, 0, 70, 77
2, 114120, Note_on_c, 0, 70, 0
2, 114120, Note_on_c, 0, 65, 0
2, 114120, Note_on_c, 0, 72, 63
2, 114180, Note_on_c, 0, 72, 0
2, 114180, Note_on_c, 0, 74, 57
2, 114240, Note_on_c, 0, 74, 0
2, 114240, Note_on_c, 0, 72, 56
2, 114360, Note_on_c, 0, 72, 0
2, 114480, Note_on_c, 0, 65, 51
2, 114720, Note_on_c, 0, 65, 0
2, 114720, Note_on_c, 0, 59, 36
2, 114720, Note_on_c, 0, 64, 52
2, 114960, Note_on_c, 0, 64, 0
2, 114960, Note_on_c, 0, 65, 45
2, 115200, Note_on_c, 0, 65, 0
2, 115200, Note_on_c, 0, 59, 0
2, 115200, Note_on_c, 0, 60, 32
2, 115200, Note_on_c, 0, 65, 32
2, 115200, Note_on_c, 0, 69, 47
2, 115680, Note_on_c, 0, 69, 0
2, 115680, Note_on_c, 0, 65, 0
2, 115680, Note_on_c, 0, 64, 31
2, 115680, Note_on_c, 0, 67, 46
2, 115920, Note_on_c, 0, 67, 0
2, 115920, Note_on_c, 0, 64, 0
2, 115920, Note_on_c, 0, 67, 54
2, 116160, Note_on_c, 0, 67, 0
2, 116160, Note_on_c, 0, 60, 0
2, 116160, Note_on_c, 0, 67, 59
2, 116400, Note_on_c, 0, 67, 0
2, 116400, Note_on_c, 0, 67, 65
2, 116580, Note_on_c, 0, 67, 0
2, 116580, Note_on_c, 0, 67, 65
2, 116640, Note_on_c, 0, 67, 0
2, 116640, Note_on_c, 0, 79, 73
2, 117000, Note_on_c, 0, 79, 0
2, 117000, Note_on_c, 0, 74, 50
2, 117060, Note_on_c, 0, 74, 0
2, 117060, Note_on_c, 0, 71, 46
2, 117120, Note_on_c, 0, 71, 0
2, 117120, Note_on_c, 0, 67, 49
2, 117360, Note_on_c, 0, 67, 0
2, 117360, Note_on_c, 0, 67, 59
2, 117600, Note_on_c, 0, 67, 0
2, 117600, Note_on_c, 0, 67, 63
2, 117840, Note_on_c, 0, 67, 0
2, 117840, Note_on_c, 0, 67, 69
2, 118020, Note_on_c, 0, 67, 0
2, 118020, Note_on_c, 0, 67, 67
2, 118080, Note_on_c, 0, 67, 0
2, 118080, Note_on_c, 0, 79, 72
2, 118740, Note_on_c, 0, 79, 0
2, 118740, Note_on_c, 0, 81, 56
2, 118770, Note_on_c, 0, 81, 0
2, 118770, Note_on_c, 0, 83, 49
2, 118800, Note_on_c, 0, 83, 0
2, 118800, Note_on_c, 0, 84, 58
2, 118920, Note_on_c, 0, 84, 0
2, 118920, Note_on_c, 0, 83, 51
2, 119040, Note_on_c, 0, 83, 0
2, 119040, Note_on_c, 0, 81, 56
2, 119160, Note_on_c, 0, 81, 0
2, 119160, Note_on_c, 0, 79, 50
2, 119280, Note_on_c, 0, 79, 0
2, 119280, Note_on_c, 0, 77, 54
2, 119400, Note_on_c, 0, 77, 0
2, 119400, Note_on_c, 0, 76, 52
2, 119520, Note_on_c, 0, 76, 0
2, 119520, Note_on_c, 0, 73, 54
2, 119640, Note_on_c, 0, 73, 0
2, 119640, Note_on_c, 0, 74, 49
2, 119760, Note_on_c, 0, 74, 0
2, 119760, Note_on_c, 0, 77, 49
2, 119880, Note_on_c, 0, 77, 0
2, 119880, Note_on_c, 0, 81, 48
2, 120000, Note_on_c, 0, 81, 0
2, 120000, Note_on_c, 0, 72, 54
2, 120720, Note_on_c, 0, 72, 0
2, 120720, Note_on_c, 0, 76, 48
2, 120720, Note_on_c, 0, 71, 48
2, 120840, Note_on_c, 0, 76, 0
2, 120840, Note_on_c, 0, 74, 47
2, 120960, Note_on_c, 0, 74, 0
2, 120960, Note_on_c, 0, 71, 0
2, 120960, Note_on_c, 0, 72, 47
2, 121440, Note_on_c, 0, 72, 0
2, 121680, Control_c, 0, 91, 127
2, 121680, Note_on_c, 0, 72, 50
2, 121920, Note_on_c, 0, 72, 0
2, 121920, Note_on_c, 0, 74, 54
2, 122040, Note_on_c, 0, 72, 50
2, 122050, Note_on_c, 0, 74, 0
2, 122160, Note_on_c, 0, 70, 55
2, 122170, Note_on_c, 0, 72, 0
2, 122280, Note_on_c, 0, 69, 49
2, 122290, Note_on_c, 0, 70, 0
2, 122400, Note_on_c, 0, 67, 61
2, 122410, Note_on_c, 0, 69, 0
2, 122880, Note_on_c, 0, 67, 0
2, 122880, Note_on_c, 0, 66, 51
2, 123115, Note_on_c, 0, 66, 0
2, 123120, Note_on_c, 0, 66, 63
2, 123360, Note_on_c, 0, 66, 0
2, 123360, Note_on_c, 0, 67, 65
2, 123600, Note_on_c, 0, 67, 0
2, 123600, Note_on_c, 0, 66, 52
2, 123600, Note_on_c, 0, 69, 66
2, 123780, Note_on_c, 0, 69, 0
2, 123780, Note_on_c, 0, 66, 0
2, 123840, Note_on_c, 0, 66, 51
2, 123840, Note_on_c, 0, 69, 65
2, 124320, Note_on_c, 0, 69, 0
2, 124320, Note_on_c, 0, 66, 0
2, 124320, Note_on_c, 0, 67, 45
2, 124320, Note_on_c, 0, 70, 56
2, 124536, Note_on_c, 0, 70, 0
2, 124536, Note_on_c, 0, 67, 0
2, 124560, Note_on_c, 0, 64, 51
2, 124800, Note_on_c, 0, 64, 0
2, 124800, Note_on_c, 0, 65, 55
2, 125040, Note_on_c, 0, 65, 0
2, 125040, Note_on_c, 0, 64, 53
2, 125040, Note_on_c, 0, 67, 53
2, 125220, Note_on_c, 0, 67, 0
2, 125220, Note_on_c, 0, 64, 0
2, 125280, Note_on_c, 0, 65, 56
2, 125280, Note_on_c, 0, 69, 61
2, 125520, Note_on_c, 0, 69, 0
2, 125520, Note_on_c, 0, 70, 68
2, 125760, Note_on_c, 0, 70, 0
2, 125760, Note_on_c, 0, 72, 67
2, 126000, Note_on_c, 0, 72, 0
2, 126000, Note_on_c, 0, 73, 70
2, 126240, Note_on_c, 0, 73, 0
2, 126240, Note_on_c, 0, 76, 72
2, 126360, Note_on_c, 0, 74, 65
2, 126370, Note_on_c, 0, 76, 0
2, 126480, Note_on_c, 0, 65, 0
2, 126480, Note_on_c, 0, 72, 64
2, 126490, Note_on_c, 0, 74, 0
2, 126600, Note_on_c, 0, 67, 47
2, 126600, Note_on_c, 0, 70, 58
2, 126610, Note_on_c, 0, 72, 0
2, 126720, Note_on_c, 0, 65, 46
2, 126720, Note_on_c, 0, 69, 57
2, 126730, Note_on_c, 0, 70, 0
2, 126730, Note_on_c, 0, 67, 0
2, 127200, Note_on_c, 0, 65, 0
2, 127200, Note_on_c, 0, 69, 0
2, 127200, Note_on_c, 0, 64, 40
2, 127200, Note_on_c, 0, 67, 51
2, 127440, Note_on_c, 0, 67, 0
2, 127440, Note_on_c, 0, 64, 0
2, 127440, Note_on_c, 0, 72, 65
2, 127668, Note_on_c, 0, 72, 0
2, 127680, Note_on_c, 0, 72, 66
2, 127908, Note_on_c, 0, 72, 0
2, 127920, Note_on_c, 0, 72, 72
2, 128148, Note_on_c, 0, 72, 0
2, 128160, Note_on_c, 0, 72, 81
2, 128160, Note_on_c, 0, 82, 81
2, 128880, Note_on_c, 0, 82, 0
2, 128880, Note_on_c, 0, 81, 69
2, 129120, Note_on_c, 0, 81, 0
2, 129120, Note_on_c, 0, 70, 58
2, 129120, Note_on_c, 0, 79, 70
2, 129360, Note_on_c, 0, 79, 0
2, 129360, Note_on_c, 0, 70, 0
2, 129360, Note_on_c, 0, 69, 56
2, 129360, Note_on_c, 0, 77, 66
2, 129600, Note_on_c, 0, 77, 0
2, 129600, Note_on_c, 0, 69, 0
2, 129600, Note_on_c, 0, 67, 55
2, 129600, Note_on_c, 0, 77, 66
2, 130080, Note_on_c, 0, 77, 0
2, 130080, Note_on_c, 0, 76, 56
2, 130308, Note_on_c, 0, 76, 0
2, 130320, Note_on_c, 0, 75, 51
2, 130548, Note_on_c, 0, 75, 0
2, 130560, Note_on_c, 0, 67, 0
2, 130560, Note_on_c, 0, 72, 0
2, 130560, Note_on_c, 0, 75, 50
2, 130788, Note_on_c, 0, 75, 0
2, 130800, Note_on_c, 0, 75, 47
2, 131028, Note_on_c, 0, 75, 0
2, 131040, Note_on_c, 0, 75, 39
2, 131070, Note_on_c, 0, 75, 0
2, 131070, Note_on_c, 0, 77, 39
2, 131100, Note_on_c, 0, 77, 0
2, 131100, Note_on_c, 0, 75, 39
2, 131130, Note_on_c, 0, 75, 0
2, 131130, Note_on_c, 0, 77, 40
2, 131160, Note_on_c, 0, 77, 0
2, 131160, Note_on_c, 0, 75, 42
2, 131190, Note_on_c, 0, 75, 0
2, 131190, Note_on_c, 0, 77, 40
2, 131220, Note_on_c, 0, 77, 0
2, 131220, Note_on_c, 0, 75, 40
2, 131250, Note_on_c, 0, 75, 0
2, 131250, Note_on_c, 0, 77, 40
2, 131280, Note_on_c, 0, 77, 0
2, 131280, Note_on_c, 0, 75, 42
2, 131400, Note_on_c, 0, 75, 0
2, 131400, Note_on_c, 0, 77, 47
2, 131520, Note_on_c, 0, 77, 0
2, 131520, Note_on_c, 0, 79, 58
2, 131760, Note_on_c, 0, 79, 0
2, 131760, Note_on_c, 0, 77, 54
2, 131880, Note_on_c, 0, 77, 0
2, 131880, Note_on_c, 0, 75, 51
2, 131988, Note_on_c, 0, 75, 0
2, 132000, Note_on_c, 0, 75, 54
2, 132120, Note_on_c, 0, 75, 0
2, 132120, Note_on_c, 0, 74, 51
2, 132228, Note_on_c, 0, 74, 0
2, 132240, Note_on_c, 0, 74, 53
2, 132360, Note_on_c, 0, 74, 0
2, 132360, Note_on_c, 0, 73, 51
2, 132468, Note_on_c, 0, 73, 0
2, 132480, Note_on_c, 0, 73, 55
2, 132960, Note_on_c, 0, 73, 0
2, 132960, Note_on_c, 0, 74, 51
2, 133200, Note_on_c, 0, 74, 0
2, 133200, Note_on_c, 0, 77, 56
2, 133320, Note_on_c, 0, 77, 0
2, 133320, Note_on_c, 0, 76, 53
2, 133440, Note_on_c, 0, 76, 0
2, 133440, Note_on_c, 0, 79, 58
2, 133560, Note_on_c, 0, 79, 0
2, 133560, Note_on_c, 0, 77, 53
2, 133680, Note_on_c, 0, 77, 0
2, 133680, Note_on_c, 0, 76, 52
2, 133800, Note_on_c, 0, 76, 0
2, 133800, Note_on_c, 0, 74, 49
2, 133916, Note_on_c, 0, 74, 0
2, 133920, Note_on_c, 0, 74, 49
2, 134400, Note_on_c, 0, 74, 0
2, 134400, Note_on_c, 0, 72, 48
2, 134640, Note_on_c, 0, 72, 0
2, 134640, Note_on_c, 0, 77, 57
2, 134820, Note_on_c, 0, 77, 0
2, 134820, Note_on_c, 0, 72, 51
2, 134880, Note_on_c, 0, 72, 0
2, 134880, Note_on_c, 0, 81, 65
2, 135060, Note_on_c, 0, 81, 0
2, 135060, Note_on_c, 0, 77, 58
2, 135120, Note_on_c, 0, 77, 0
2, 135120, Note_on_c, 0, 72, 66
2, 135300, Note_on_c, 0, 72, 0
2, 135300, Note_on_c, 0, 69, 57
2, 135360, Note_on_c, 0, 69, 0
2, 135360, Note_on_c, 0, 72, 69
2, 135720, Note_on_c, 0, 72, 0
2, 135720, Note_on_c, 0, 71, 65
2, 135840, Note_on_c, 0, 71, 0
2, 135840, Note_on_c, 0, 70, 65
2, 136080, Note_on_c, 0, 70, 0
2, 136080, Note_on_c, 0, 64, 67
2, 136080, Note_on_c, 0, 67, 75
2, 136260, Note_on_c, 0, 64, 0
2, 136260, Note_on_c, 0, 60, 64
2, 136320, Note_on_c, 0, 60, 0
2, 136320, Note_on_c, 0, 67, 0
2, 136320, Note_on_c, 0, 69, 75
2, 136320, Note_on_c, 0, 65, 67
2, 136500, Note_on_c, 0, 65, 0
2, 136500, Note_on_c, 0, 60, 63
2, 136560, Note_on_c, 0, 60, 0
2, 136560, Note_on_c, 0, 69, 0
2, 136560, Note_on_c, 0, 67, 67
2, 136560, Note_on_c, 0, 70, 75
2, 136740, Note_on_c, 0, 67, 0
2, 136740, Note_on_c, 0, 60, 64
2, 136800, Note_on_c, 0, 60, 0
2, 136800, Note_on_c, 0, 70, 0
2, 136800, Note_on_c, 0, 72, 76
2, 136800, Note_on_c, 0, 69, 61
2, 136920, Note_on_c, 0, 72, 0
2, 136920, Note_on_c, 0, 74, 53
2, 137040, Note_on_c, 0, 74, 0
2, 137040, Note_on_c, 0, 69, 0
2, 137040, Note_on_c, 0, 76, 57
2, 137160, Note_on_c, 0, 76, 0
2, 137160, Note_on_c, 0, 77, 53
2, 137280, Note_on_c, 0, 77, 0
2, 137280, Note_on_c, 0, 60, 38
2, 137280, Note_on_c, 0, 65, 49
2, 138000, Note_on_c, 0, 65, 0
2, 138000, Note_on_c, 0, 60, 0
2, 138000, Note_on_c, 0, 64, 37
2, 138000, Note_on_c, 0, 69, 47
2, 138120, Note_on_c, 0, 69, 0
2, 138120, Note_on_c, 0, 67, 44
2, 138240, Note_on_c, 0, 67, 0
2, 138240, Note_on_c, 0, 64, 0
2, 138240, Note_on_c, 0, 65, 47
2, 138720, Note_on_c, 0, 65, 0
2, 138960, Control_c, 0, 91, 127
2, 138960, Note_on_c, 0, 60, 33
2, 138960, Note_on_c, 0, 69, 37
2, 139188, Note_on_c, 0, 69, 0
2, 139188, Note_on_c, 0, 60, 0
2, 139200, Note_on_c, 0, 60, 36
2, 139200, Note_on_c, 0, 69, 40
2, 139428, Note_on_c, 0, 69, 0
2, 139428, Note_on_c, 0, 60, 0
2, 139440, Note_on_c, 0, 60, 33
2, 139440, Note_on_c, 0, 69, 37
2, 139668, Note_on_c, 0, 69, 0
2, 139668, Note_on_c, 0, 60, 0
2, 139680, Note_on_c, 0, 69, 40
2, 139680, Note_on_c, 0, 60, 36
2, 140400, Note_on_c, 0, 60, 0
2, 140400, Note_on_c, 0, 69, 0
2, 140400, Note_on_c, 0, 65, 42
2, 140400, Note_on_c, 0, 57, 37
2, 140640, Note_on_c, 0, 57, 0
2, 140640, Note_on_c, 0, 65, 0
2, 140640, Note_on_c, 0, 67, 39
2, 140640, Note_on_c, 0, 70, 45
2, 140880, Note_on_c, 0, 70, 0
2, 140880, Note_on_c, 0, 67, 0
2, 140880, Note_on_c, 0, 64, 37
2, 140880, Note_on_c, 0, 67, 42
2, 141120, Note_on_c, 0, 67, 0
2, 141120, Note_on_c, 0, 64, 0
2, 141120, Note_on_c, 0, 72, 49
2, 141120, Note_on_c, 0, 69, 44
2, 141840, Note_on_c, 0, 69, 0
2, 141840, Note_on_c, 0, 72, 0
2, 141840, Note_on_c, 0, 77, 54
2, 141840, Note_on_c, 0, 69, 48
2, 142068, Note_on_c, 0, 69, 0
2, 142068, Note_on_c, 0, 77, 0
2, 142080, Note_on_c, 0, 69, 50
2, 142080, Note_on_c, 0, 77, 56
2, 142308, Note_on_c, 0, 77, 0
2, 142308, Note_on_c, 0, 69, 0
2, 142320, Note_on_c, 0, 77, 53
2, 142320, Note_on_c, 0, 69, 47
2, 142548, Note_on_c, 0, 69, 0
2, 142548, Note_on_c, 0, 77, 0
2, 142560, Note_on_c, 0, 69, 47
2, 142560, Note_on_c, 0, 65, 42
2, 143280, Note_on_c, 0, 65, 0
2, 143280, Note_on_c, 0, 69, 0
2, 143280, Note_on_c, 0, 69, 30
2, 143280, Note_on_c, 0, 72, 34
2, 143520, Note_on_c, 0, 72, 0
2, 143520, Note_on_c, 0, 69, 0
2, 143520, Note_on_c, 0, 67, 29
2, 143520, Note_on_c, 0, 70, 33
2, 143760, Note_on_c, 0, 70, 0
2, 143760, Note_on_c, 0, 67, 0
2, 143760, Note_on_c, 0, 64, 30
2, 143760, Note_on_c, 0, 58, 27
2, 143760, Note_on_c, 0, 67, 30
2, 144000, Note_on_c, 0, 67, 0
2, 144000, Note_on_c, 0, 58, 0
2, 144000, Note_on_c, 0, 64, 0
2, 144000, Note_on_c, 0, 65, 30
2, 144000, Note_on_c, 0, 57, 27
2, 144480, Note_on_c, 0, 57, 0
2, 144480, Note_on_c, 0, 65, 0
2, 144480, End_track
3, 0, Start_track
3, 0, Title_t, "Piano left"
3, 0, Program_c, 0, 0
3, 0, Control_c, 0, 7, 100
3, 0, Control_c, 0, 10, 64
3, 480, Control_c, 0, 91, 127
3, 1440, Note_on_c, 0, 53, 30
3, 1440, Note_on_c, 0, 57, 30
3, 1440, Note_on_c, 0, 60, 34
3, 2400, Note_on_c, 0, 60, 0
3, 2400, Note_on_c, 0, 57, 0
3, 2400, Note_on_c, 0, 53, 0
3, 2400, Note_on_c, 0, 55, 27
3, 2400, Note_on_c, 0, 58, 30
3, 2400, Note_on_c, 0, 48, 27
3, 2880, Note_on_c, 0, 48, 0
3, 2880, Note_on_c, 0, 58, 0
3, 2880, Note_on_c, 0, 55, 0
3, 2880, Note_on_c, 0, 50, 37
3, 2880, Note_on_c, 0, 58, 37
3, 3360, Note_on_c, 0, 58, 0
3, 3360, Note_on_c, 0, 57, 37
3, 3600, Note_on_c, 0, 57, 0
3, 3600, Note_on_c, 0, 50, 0
3, 3600, Note_on_c, 0, 45, 57
3, 3600, Note_on_c, 0, 57, 57
3, 3840, Note_on_c, 0, 57, 0
3, 3840, Note_on_c, 0, 45, 0
3, 3840, Note_on_c, 0, 43, 59
3, 3840, Note_on_c, 0, 55, 59
3, 4080, Note_on_c, 0, 55, 0
3, 4080, Note_on_c, 0, 43, 0
3, 4080, Note_on_c, 0, 41, 57
3, 4080, Note_on_c, 0, 53, 57
3, 4320, Note_on_c, 0, 53, 0
3, 4320, Note_on_c, 0, 41, 0
3, 4320, Note_on_c, 0, 62, 56
3, 4320, Note_on_c, 0, 50, 49
3, 4560, Note_on_c, 0, 50, 0
3, 4560, Note_on_c, 0, 62, 0
3, 4560, Note_on_c, 0, 46, 44
3, 4560, Note_on_c, 0, 58, 44
3, 4800, Note_on_c, 0, 58, 0
3, 4800, Note_on_c, 0, 46, 0
3, 4800, Note_on_c, 0, 57, 27
3, 4800, Note_on_c, 0, 45, 19
3, 4920, Note_on_c, 0, 45, 0
3, 4920, Note_on_c, 0, 57, 0
3, 5280, Note_on_c, 0, 50, 29
3, 5760, Note_on_c, 0, 50, 0
3, 5760, Note_on_c, 0, 48, 27
3, 6720, Note_on_c, 0, 48, 0
3, 6720, Note_on_c, 0, 60, 39
3, 6720, Note_on_c, 0, 64, 39
3, 7200, Note_on_c, 0, 64, 0
3, 7200, Note_on_c, 0, 60, 0
3, 7200, Note_on_c, 0, 59, 51
3, 7200, Note_on_c, 0, 65, 51
3, 7200, Note_on_c, 0, 62, 51
3, 8160, Note_on_c, 0, 62, 0
3, 8160, Note_on_c, 0, 65, 0
3, 8160, Note_on_c, 0, 59, 0
3, 8160, Note_on_c, 0, 64, 43
3, 8160, Note_on_c, 0, 60, 43
3, 8640, Note_on_c, 0, 60, 0
3, 8640, Note_on_c, 0, 64, 0
3, 8640, Note_on_c, 0, 53, 52
3, 8640, Note_on_c, 0, 59, 52
3, 8640, Note_on_c, 0, 50, 52
3, 9120, Note_on_c, 0, 50, 0
3, 9120, Note_on_c, 0, 59, 0
3, 9120, Note_on_c, 0, 53, 0
3, 9120, Note_on_c, 0, 55, 37
3, 9120, Note_on_c, 0, 60, 37
3, 9120, Note_on_c, 0, 52, 37
3, 9600, Note_on_c, 0, 52, 0
3, 9600, Note_on_c, 0, 60, 0
3, 9600, Note_on_c, 0, 55, 0
3, 10320, Note_on_c, 0, 57, 30
3, 10320, Note_on_c, 0, 62, 30
3, 10320, Note_on_c, 0, 53, 30
3, 10560, Note_on_c, 0, 53, 0
3, 10560, Note_on_c, 0, 62, 0
3, 10560, Note_on_c, 0, 57, 0
3, 10560, Note_on_c, 0, 60, 24
3, 10560, Note_on_c, 0, 64, 27
3, 10560, Note_on_c, 0, 55, 25
3, 11040, Note_on_c, 0, 64, 0
3, 11040, Note_on_c, 0, 60, 0
3, 11040, Note_on_c, 0, 65, 26
3, 11040, Note_on_c, 0, 62, 23
3, 11520, Note_on_c, 0, 62, 0
3, 11520, Note_on_c, 0, 65, 0
3, 11520, Note_on_c, 0, 55, 0
3, 11520, Note_on_c, 0, 60, 30
3, 11520, Note_on_c, 0, 64, 34
3, 12000, Note_on_c, 0, 64, 0
3, 12000, Note_on_c, 0, 60, 0
3, 12000, Note_on_c, 0, 48, 26
3, 12240, Note_on_c, 0, 48, 0
3, 12960, Note_on_c, 0, 53, 30
3, 12960, Note_on_c, 0, 57, 30
3, 12960, Note_on_c, 0, 60, 34
3, 13920, Note_on_c, 0, 60, 0
3, 13920, Note_on_c, 0, 57, 0
3, 13920, Note_on_c, 0, 53, 0
3, 13920, Note_on_c, 0, 48, 27
3, 13920, Note_on_c, 0, 55, 27
3, 13920, Note_on_c, 0, 58, 30
3, 14400, Note_on_c, 0, 58, 0
3, 14400, Note_on_c, 0, 55, 0
3, 14400, Note_on_c, 0, 48, 0
3, 14400, Note_on_c, 0, 50, 37
3, 14400, Note_on_c, 0, 58, 37
3, 14880, Note_on_c, 0, 58, 0
3, 14880, Note_on_c, 0, 57, 37
3, 15120, Note_on_c, 0, 57, 0
3, 15120, Note_on_c, 0, 50, 0
3, 15120, Note_on_c, 0, 45, 57
3, 15120, Note_on_c, 0, 57, 57
3, 15360, Note_on_c, 0, 57, 0
3, 15360, Note_on_c, 0, 45, 0
3, 15360, Note_on_c, 0, 43, 59
3, 15360, Note_on_c, 0, 55, 59
3, 15600, Note_on_c, 0, 55, 0
3, 15600, Note_on_c, 0, 43, 0
3, 15600, Note_on_c, 0, 41, 57
3, 15600, Note_on_c, 0, 53, 57
3, 15840, Note_on_c, 0, 53, 0
3, 15840, Note_on_c, 0, 41, 0
3, 15840, Note_on_c, 0, 50, 49
3, 15840, Note_on_c, 0, 62, 56
3, 16080, Note_on_c, 0, 62, 0
3, 16080, Note_on_c, 0, 50, 0
3, 16080, Note_on_c, 0, 46, 45
3, 16080, Note_on_c, 0, 58, 45
3, 16320, Note_on_c, 0, 58, 0
3, 16320, Note_on_c, 0, 46, 0
3, 16320, Note_on_c, 0, 57, 29
3, 16440, Note_on_c, 0, 57, 0
3, 16800, Note_on_c, 0, 50, 34
3, 17280, Note_on_c, 0, 50, 0
3, 17280, Note_on_c, 0, 48, 27
3, 18240, Note_on_c, 0, 48, 0
3, 18240, Note_on_c, 0, 60, 39
3, 18240, Note_on_c, 0, 64, 39
3, 18720, Note_on_c, 0, 64, 0
3, 18720, Note_on_c, 0, 60, 0
3, 18720, Note_on_c, 0, 59, 51
3, 18720, Note_on_c, 0, 62, 51
3, 18720, Note_on_c, 0, 65, 51
3, 19680, Note_on_c, 0, 65, 0
3, 19680, Note_on_c, 0, 62, 0
3, 19680, Note_on_c, 0, 59, 0
3, 19680, Note_on_c, 0, 60, 43
3, 19680, Note_on_c, 0, 64, 43
3, 20160, Note_on_c, 0, 64, 0
3, 20160, Note_on_c, 0, 60, 0
3, 20160, Note_on_c, 0, 50, 52
3, 20160, Note_on_c, 0, 53, 52
3, 20160, Note_on_c, 0, 59, 52
3, 20640, Note_on_c, 0, 59, 0
3, 20640, Note_on_c, 0, 53, 0
3, 20640, Note_on_c, 0, 50, 0
3, 20640, Note_on_c, 0, 52, 37
3, 20640, Note_on_c, 0, 55, 37
3, 20640, Note_on_c, 0, 60, 37
3, 21120, Note_on_c, 0, 60, 0
3, 21120, Note_on_c, 0, 55, 0
3, 21120, Note_on_c, 0, 52, 0
3, 21840, Note_on_c, 0, 62, 30
3, 21840, Note_on_c, 0, 57, 30
3, 21840, Note_on_c, 0, 53, 30
3, 22080, Note_on_c, 0, 53, 0
3, 22080, Note_on_c, 0, 57, 0
3, 22080, Note_on_c, 0, 62, 0
3, 22080, Note_on_c, 0, 64, 27
3, 22080, Note_on_c, 0, 60, 24
3, 22080, Note_on_c, 0, 55, 24
3, 22560, Note_on_c, 0, 60, 0
3, 22560, Note_on_c, 0, 64, 0
3, 22560, Note_on_c, 0, 65, 26
3, 22560, Note_on_c, 0, 62, 23
3, 23040, Note_on_c, 0, 62, 0
3, 23040, Note_on_c, 0, 65, 0
3, 23040, Note_on_c, 0, 55, 0
3, 23040, Note_on_c, 0, 64, 34
3, 23040, Note_on_c, 0, 60, 30
3, 23520, Note_on_c, 0, 60, 0
3, 23520, Note_on_c, 0, 64, 0
3, 23520, Note_on_c, 0, 48, 27
3, 23760, Note_on_c, 0, 48, 0
3, 23760, Control_c, 0, 91, 127
3, 24480, Note_on_c, 0, 60, 42
3, 24480, Note_on_c, 0, 63, 46
3, 25200, Note_on_c, 0, 63, 0
3, 25200, Note_on_c, 0, 60, 0
3, 25200, Note_on_c, 0, 63, 46
3, 25200, Note_on_c, 0, 60, 46
3, 25440, Note_on_c, 0, 60, 0
3, 25440, Note_on_c, 0, 63, 0
3, 25440, Note_on_c, 0, 62, 47
3, 25440, Note_on_c, 0, 58, 47
3, 25680, Note_on_c, 0, 58, 0
3, 25680, Note_on_c, 0, 62, 0
3, 25680, Note_on_c, 0, 57, 47
3, 25680, Note_on_c, 0, 62, 47
3, 25680, Note_on_c, 0, 60, 47
3, 25920, Note_on_c, 0, 60, 0
3, 25920, Note_on_c, 0, 62, 0
3, 25920, Note_on_c, 0, 57, 0
3, 25920, Note_on_c, 0, 60, 50
3, 25920, Note_on_c, 0, 55, 50
3, 25920, Note_on_c, 0, 62, 50
3, 26400, Note_on_c, 0, 60, 0
3, 26400, Note_on_c, 0, 58, 48
3, 26616, Note_on_c, 0, 58, 0
3, 26640, Note_on_c, 0, 62, 0
3, 26640, Note_on_c, 0, 55, 0
3, 26640, Note_on_c, 0, 58, 44
3, 26640, Note_on_c, 0, 61, 44
3, 26880, Note_on_c, 0, 61, 0
3, 26880, Note_on_c, 0, 58, 0
3, 26880, Note_on_c, 0, 60, 48
3, 26880, Note_on_c, 0, 57, 48
3, 27120, Note_on_c, 0, 57, 0
3, 27120, Note_on_c, 0, 60, 0
3, 27120, Note_on_c, 0, 55, 45
3, 27120, Note_on_c, 0, 60, 45
3, 27120, Note_on_c, 0, 58, 45
3, 27360, Note_on_c, 0, 58, 0
3, 27360, Note_on_c, 0, 60, 0
3, 27360, Note_on_c, 0, 55, 0
3, 27360, Note_on_c, 0, 57, 48
3, 27360, Note_on_c, 0, 60, 48
3, 27360, Note_on_c, 0, 53, 48
3, 27600, Note_on_c, 0, 53, 0
3, 27600, Note_on_c, 0, 60, 0
3, 27600, Note_on_c, 0, 57, 0
3, 27600, Note_on_c, 0, 50, 50
3, 27840, Note_on_c, 0, 50, 0
3, 27840, Note_on_c, 0, 45, 54
3, 28320, Note_on_c, 0, 45, 0
3, 28320, Note_on_c, 0, 46, 49
3, 28560, Note_on_c, 0, 46, 0
3, 28560, Note_on_c, 0, 43, 46
3, 28680, Note_on_c, 0, 43, 0
3, 28800, Note_on_c, 0, 48, 43
3, 29760, Note_on_c, 0, 48, 0
3, 30240, Note_on_c, 0, 36, 53
3, 30240, Note_on_c, 0, 48, 64
3, 30600, Note_on_c, 0, 48, 0
3, 30600, Note_on_c, 0, 36, 0
3, 30600, Note_on_c, 0, 38, 51
3, 30600, Note_on_c, 0, 50, 60
3, 30720, Note_on_c, 0, 50, 0
3, 30720, Note_on_c, 0, 38, 0
3, 30720, Note_on_c, 0, 52, 64
3, 30720, Note_on_c, 0, 40, 53
3, 30900, Note_on_c, 0, 40, 0
3, 30900, Note_on_c, 0, 52, 0
3, 30960, Note_on_c, 0, 41, 40
3, 30960, Note_on_c, 0, 53, 48
3, 31140, Note_on_c, 0, 53, 0
3, 31140, Note_on_c, 0, 41, 0
3, 31200, Note_on_c, 0, 55, 53
3, 31200, Note_on_c, 0, 43, 45
3, 31380, Note_on_c, 0, 43, 0
3, 31380, Note_on_c, 0, 55, 0
3, 31440, Note_on_c, 0, 45, 42
3, 31440, Note_on_c, 0, 57, 50
3, 31620, Note_on_c, 0, 57, 0
3, 31620, Note_on_c, 0, 45, 0
3, 31680, Note_on_c, 0, 46, 45
3, 31680, Note_on_c, 0, 58, 53
3, 32640, Note_on_c, 0, 58, 0
3, 32640, Note_on_c, 0, 46, 0
3, 33120, Note_on_c, 0, 65, 43
3, 33120, Note_on_c, 0, 57, 37
3, 33120, Note_on_c, 0, 60, 37
3, 33600, Note_on_c, 0, 60, 0
3, 33600, Note_on_c, 0, 57, 0
3, 33600, Note_on_c, 0, 65, 0
3, 33600, Note_on_c, 0, 65, 43
3, 33600, Note_on_c, 0, 57, 37
3, 33600, Note_on_c, 0, 60, 37
3, 34080, Note_on_c, 0, 60, 0
3, 34080, Note_on_c, 0, 57, 0
3, 34080, Note_on_c, 0, 65, 0
3, 34080, Note_on_c, 0, 65, 37
3, 34080, Note_on_c, 0, 57, 33
3, 34080, Note_on_c, 0, 63, 33
3, 34560, Note_on_c, 0, 63, 0
3, 34560, Note_on_c, 0, 57, 0
3, 34560, Note_on_c, 0, 65, 0
3, 34560, Note_on_c, 0, 62, 22
3, 34560, Note_on_c, 0, 58, 22
3, 34560, Note_on_c, 0, 65, 28
3, 35520, Note_on_c, 0, 65, 0
3, 35520, Note_on_c, 0, 58, 0
3, 35520, Note_on_c, 0, 62, 0
3, 36000, Note_on_c, 0, 58, 28
3, 36000, Note_on_c, 0, 53, 28
3, 36000, Note_on_c, 0, 62, 35
3, 36480, Note_on_c, 0, 62, 0
3, 36480, Note_on_c, 0, 58, 0
3, 36480, Note_on_c, 0, 57, 26
3, 36480, Note_on_c, 0, 60, 33
3, 36960, Note_on_c, 0, 60, 0
3, 36960, Note_on_c, 0, 57, 0
3, 36960, Note_on_c, 0, 53, 0
3, 37440, Note_on_c, 0, 52, 43
3, 37440, Note_on_c, 0, 60, 43
3, 37440, Note_on_c, 0, 55, 43
3, 38160, Note_on_c, 0, 55, 0
3, 38160, Note_on_c, 0, 60, 0
3, 38160, Note_on_c, 0, 52, 0
3, 38160, Note_on_c, 0, 58, 48
3, 38160, Note_on_c, 0, 46, 42
3, 38400, Note_on_c, 0, 46, 0
3, 38400, Note_on_c, 0, 58, 0
3, 38400, Note_on_c, 0, 57, 50
3, 38400, Note_on_c, 0, 45, 44
3, 38640, Note_on_c, 0, 45, 0
3, 38640, Note_on_c, 0, 57, 0
3, 38640, Note_on_c, 0, 55, 50
3, 38640, Note_on_c, 0, 43, 44
3, 38880, Note_on_c, 0, 43, 0
3, 38880, Note_on_c, 0, 55, 0
3, 38880, Note_on_c, 0, 53, 54
3, 38880, Note_on_c, 0, 41, 49
3, 39120, Note_on_c, 0, 41, 0
3, 39120, Note_on_c, 0, 53, 0
3, 39360, Note_on_c, 0, 48, 33
3, 39360, Note_on_c, 0, 57, 38
3, 39840, Note_on_c, 0, 57, 0
3, 39840, Note_on_c, 0, 58, 32
3, 40320, Note_on_c, 0, 58, 0
3, 40320, Note_on_c, 0, 48, 0
3, 40320, Note_on_c, 0, 53, 28
3, 40320, Note_on_c, 0, 57, 34
3, 40800, Note_on_c, 0, 57, 0
3, 40800, Note_on_c, 0, 53, 0
3, 40800, Note_on_c, 0, 41, 28
3, 41040, Note_on_c, 0, 41, 0
3, 41040, Control_c, 0, 91, 127
3, 41760, Note_on_c, 0, 63, 46
3, 41760, Note_on_c, 0, 60, 46
3, 42480, Note_on_c, 0, 60, 0
3, 42480, Note_on_c, 0, 63, 0
3, 42480, Note_on_c, 0, 63, 46
3, 42480, Note_on_c, 0, 60, 46
3, 42720, Note_on_c, 0, 60, 0
3, 42720, Note_on_c, 0, 63, 0
3, 42720, Note_on_c, 0, 62, 47
3, 42720, Note_on_c, 0, 58, 47
3, 42960, Note_on_c, 0, 58, 0
3, 42960, Note_on_c, 0, 62, 0
3, 42960, Note_on_c, 0, 57, 47
3, 42960, Note_on_c, 0, 60, 47
3, 42960, Note_on_c, 0, 62, 47
3, 43200, Note_on_c, 0, 62, 0
3, 43200, Note_on_c, 0, 60, 0
3, 43200, Note_on_c, 0, 57, 0
3, 43200, Note_on_c, 0, 60, 50
3, 43200, Note_on_c, 0, 62, 50
3, 43200, Note_on_c, 0, 55, 50
3, 43680, Note_on_c, 0, 60, 0
3, 43680, Note_on_c, 0, 58, 48
3, 43896, Note_on_c, 0, 58, 0
3, 43920, Note_on_c, 0, 55, 0
3, 43920, Note_on_c, 0, 62, 0
3, 43920, Note_on_c, 0, 61, 44
3, 43920, Note_on_c, 0, 58, 44
3, 44160, Note_on_c, 0, 58, 0
3, 44160, Note_on_c, 0, 61, 0
3, 44160, Note_on_c, 0, 60, 48
3, 44160, Note_on_c, 0, 57, 48
3, 44400, Note_on_c, 0, 57, 0
3, 44400, Note_on_c, 0, 60, 0
3, 44400, Note_on_c, 0, 55, 45
3, 44400, Note_on_c, 0, 58, 45
3, 44400, Note_on_c, 0, 60, 45
3, 44640, Note_on_c, 0, 60, 0
3, 44640, Note_on_c, 0, 58, 0
3, 44640, Note_on_c, 0, 55, 0
3, 44640, Note_on_c, 0, 53, 48
3, 44640, Note_on_c, 0, 57, 48
3, 44640, Note_on_c, 0, 60, 48
3, 44880, Note_on_c, 0, 60, 0
3, 44880, Note_on_c, 0, 57, 0
3, 44880, Note_on_c, 0, 53, 0
3, 44880, Note_on_c, 0, 50, 50
3, 45120, Note_on_c, 0, 50, 0
3, 45120, Note_on_c, 0, 45, 54
3, 45600, Note_on_c, 0, 45, 0
3, 45600, Note_on_c, 0, 46, 53
3, 45840, Note_on_c, 0, 46, 0
3, 45840, Note_on_c, 0, 43, 46
3, 45960, Note_on_c, 0, 43, 0
3, 46080, Note_on_c, 0, 48, 43
3, 47040, Note_on_c, 0, 48, 0
3, 47520, Note_on_c, 0, 36, 53
3, 47520, Note_on_c, 0, 48, 64
3, 47880, Note_on_c, 0, 48, 0
3, 47880, Note_on_c, 0, 36, 0
3, 47880, Note_on_c, 0, 38, 51
3, 47880, Note_on_c, 0, 50, 60
3, 48000, Note_on_c, 0, 50, 0
3, 48000, Note_on_c, 0, 38, 0
3, 48000, Note_on_c, 0, 40, 53
3, 48000, Note_on_c, 0, 52, 64
3, 48180, Note_on_c, 0, 52, 0
3, 48180, Note_on_c, 0, 40, 0
3, 48240, Note_on_c, 0, 41, 40
3, 48240, Note_on_c, 0, 53, 48
3, 48420, Note_on_c, 0, 53, 0
3, 48420, Note_on_c, 0, 41, 0
3, 48480, Note_on_c, 0, 43, 45
3, 48480, Note_on_c, 0, 55, 53
3, 48660, Note_on_c, 0, 55, 0
3, 48660, Note_on_c, 0, 43, 0
3, 48720, Note_on_c, 0, 45, 42
3, 48720, Note_on_c, 0, 57, 50
3, 48900, Note_on_c, 0, 57, 0
3, 48900, Note_on_c, 0, 45, 0
3, 48960, Note_on_c, 0, 46, 45
3, 48960, Note_on_c, 0, 58, 53
3, 49920, Note_on_c, 0, 58, 0
3, 49920, Note_on_c, 0, 46, 0
3, 50400, Note_on_c, 0, 65, 43
3, 50400, Note_on_c, 0, 60, 37
3, 50400, Note_on_c, 0, 57, 37
3, 50880, Note_on_c, 0, 57, 0
3, 50880, Note_on_c, 0, 60, 0
3, 50880, Note_on_c, 0, 65, 0
3, 50880, Note_on_c, 0, 65, 43
3, 50880, Note_on_c, 0, 57, 37
3, 50880, Note_on_c, 0, 60, 37
3, 51360, Note_on_c, 0, 60, 0
3, 51360, Note_on_c, 0, 57, 0
3, 51360, Note_on_c, 0, 65, 0
3, 51360, Note_on_c, 0, 65, 37
3, 51360, Note_on_c, 0, 57, 33
3, 51360, Note_on_c, 0, 63, 33
3, 51840, Note_on_c, 0, 63, 0
3, 51840, Note_on_c, 0, 57, 0
3, 51840, Note_on_c, 0, 65, 0
3, 51840, Note_on_c, 0, 62, 22
3, 51840, Note_on_c, 0, 58, 22
3, 51840, Note_on_c, 0, 65, 28
3, 52800, Note_on_c, 0, 65, 0
3, 52800, Note_on_c, 0, 58, 0
3, 52800, Note_on_c, 0, 62, 0
3, 53280, Note_on_c, 0, 58, 28
3, 53280, Note_on_c, 0, 53, 28
3, 53280, Note_on_c, 0, 62, 35
3, 53760, Note_on_c, 0, 62, 0
3, 53760, Note_on_c, 0, 58, 0
3, 53760, Note_on_c, 0, 57, 26
3, 53760, Note_on_c, 0, 60, 33
3, 54240, Note_on_c, 0, 60, 0
3, 54240, Note_on_c, 0, 57, 0
3, 54240, Note_on_c, 0, 53, 0
3, 54720, Note_on_c, 0, 55, 43
3, 54720, Note_on_c, 0, 60, 43
3, 54720, Note_on_c, 0, 52, 43
3, 55440, Note_on_c, 0, 52, 0
3, 55440, Note_on_c, 0, 60, 0
3, 55440, Note_on_c, 0, 55, 0
3, 55440, Note_on_c, 0, 46, 42
3, 55440, Note_on_c, 0, 58, 48
3, 55680, Note_on_c, 0, 58, 0
3, 55680, Note_on_c, 0, 46, 0
3, 55680, Note_on_c, 0, 57, 50
3, 55680, Note_on_c, 0, 45, 44
3, 55920, Note_on_c, 0, 45, 0
3, 55920, Note_on_c, 0, 57, 0
3, 55920, Note_on_c, 0, 55, 50
3, 55920, Note_on_c, 0, 43, 44
3, 56160, Note_on_c, 0, 43, 0
3, 56160, Note_on_c, 0, 55, 0
3, 56160, Note_on_c, 0, 41, 49
3, 56160, Note_on_c, 0, 53, 54
3, 56400, Note_on_c, 0, 53, 0
3, 56400, Note_on_c, 0, 41, 0
3, 56640, Note_on_c, 0, 57, 37
3, 56640, Note_on_c, 0, 48, 29
3, 57120, Note_on_c, 0, 57, 0
3, 57120, Note_on_c, 0, 58, 28
3, 57600, Note_on_c, 0, 58, 0
3, 57600, Note_on_c, 0, 48, 0
3, 57600, Note_on_c, 0, 53, 32
3, 57600, Note_on_c, 0, 57, 32
3, 58080, Note_on_c, 0, 57, 0
3, 58080, Note_on_c, 0, 53, 0
3, 58080, Note_on_c, 0, 41, 26
3, 58320, Note_on_c, 0, 41, 0
3, 58320, Control_c, 0, 91, 127
3, 59040, Note_on_c, 0, 41, 40
3, 59160, Note_on_c, 0, 41, 0
3, 59160, Note_on_c, 0, 53, 26
3, 59268, Note_on_c, 0, 53, 0
3, 59280, Note_on_c, 0, 53, 28
3, 59388, Note_on_c, 0, 53, 0
3, 59400, Note_on_c, 0, 53, 26
3, 59508, Note_on_c, 0, 53, 0
3, 59520, Note_on_c, 0, 53, 24
3, 59628, Note_on_c, 0, 53, 0
3, 59640, Note_on_c, 0, 53, 22
3, 59748, Note_on_c, 0, 53, 0
3, 59760, Note_on_c, 0, 53, 25
3, 59868, Note_on_c, 0, 53, 0
3, 59880, Note_on_c, 0, 53, 22
3, 59988, Note_on_c, 0, 53, 0
3, 60000, Note_on_c, 0, 53, 29
3, 60108, Note_on_c, 0, 53, 0
3, 60120, Note_on_c, 0, 53, 25
3, 60228, Note_on_c, 0, 53, 0
3, 60240, Note_on_c, 0, 53, 27
3, 60348, Note_on_c, 0, 53, 0
3, 60360, Note_on_c, 0, 53, 25
3, 60468, Note_on_c, 0, 53, 0
3, 60480, Note_on_c, 0, 41, 34
3, 60600, Note_on_c, 0, 41, 0
3, 60600, Note_on_c, 0, 53, 24
3, 60708, Note_on_c, 0, 53, 0
3, 60720, Note_on_c, 0, 53, 26
3, 60828, Note_on_c, 0, 53, 0
3, 60840, Note_on_c, 0, 53, 23
3, 60948, Note_on_c, 0, 53, 0
3, 60960, Note_on_c, 0, 53, 25
3, 61068, Note_on_c, 0, 53, 0
3, 61080, Note_on_c, 0, 53, 22
3, 61188, Note_on_c, 0, 53, 0
3, 61200, Note_on_c, 0, 53, 25
3, 61308, Note_on_c, 0, 53, 0
3, 61320, Note_on_c, 0, 53, 22
3, 61428, Note_on_c, 0, 53, 0
3, 61440, Note_on_c, 0, 53, 28
3, 61548, Note_on_c, 0, 53, 0
3, 61560, Note_on_c, 0, 53, 25
3, 61668, Note_on_c, 0, 53, 0
3, 61680, Note_on_c, 0, 53, 28
3, 61788, Note_on_c, 0, 53, 0
3, 61800, Note_on_c, 0, 53, 27
3, 61908, Note_on_c, 0, 53, 0
3, 61920, Note_on_c, 0, 40, 33
3, 62040, Note_on_c, 0, 40, 0
3, 62040, Note_on_c, 0, 52, 29
3, 62148, Note_on_c, 0, 52, 0
3, 62160, Note_on_c, 0, 52, 27
3, 62268, Note_on_c, 0, 52, 0
3, 62280, Note_on_c, 0, 52, 24
3, 62388, Note_on_c, 0, 52, 0
3, 62400, Note_on_c, 0, 52, 29
3, 62508, Note_on_c, 0, 52, 0
3, 62520, Note_on_c, 0, 52, 23
3, 62628, Note_on_c, 0, 52, 0
3, 62640, Note_on_c, 0, 52, 25
3, 62748, Note_on_c, 0, 52, 0
3, 62760, Note_on_c, 0, 52, 22
3, 62868, Note_on_c, 0, 52, 0
3, 62880, Note_on_c, 0, 52, 29
3, 62988, Note_on_c, 0, 52, 0
3, 63000, Note_on_c, 0, 52, 27
3, 63108, Note_on_c, 0, 52, 0
3, 63120, Note_on_c, 0, 52, 29
3, 63228, Note_on_c, 0, 52, 0
3, 63240, Note_on_c, 0, 52, 26
3, 63348, Note_on_c, 0, 52, 0
3, 63360, Note_on_c, 0, 41, 29
3, 63480, Note_on_c, 0, 41, 0
3, 63480, Note_on_c, 0, 53, 28
3, 63588, Note_on_c, 0, 53, 0
3, 63600, Note_on_c, 0, 53, 29
3, 63708, Note_on_c, 0, 53, 0
3, 63720, Note_on_c, 0, 53, 26
3, 63828, Note_on_c, 0, 53, 0
3, 63840, Note_on_c, 0, 53, 32
3, 64320, Note_on_c, 0, 53, 0
3, 65040, Note_on_c, 0, 61, 33
3, 65040, Note_on_c, 0, 53, 33
3, 65040, Note_on_c, 0, 56, 33
3, 65268, Note_on_c, 0, 56, 0
3, 65268, Note_on_c, 0, 53, 0
3, 65268, Note_on_c, 0, 61, 0
3, 65280, Note_on_c, 0, 61, 36
3, 65280, Note_on_c, 0, 53, 36
3, 65280, Note_on_c, 0, 56, 36
3, 65508, Note_on_c, 0, 56, 0
3, 65508, Note_on_c, 0, 53, 0
3, 65508, Note_on_c, 0, 61, 0
3, 65520, Note_on_c, 0, 61, 40
3, 65520, Note_on_c, 0, 53, 40
3, 65520, Note_on_c, 0, 56, 40
3, 65748, Note_on_c, 0, 56, 0
3, 65748, Note_on_c, 0, 53, 0
3, 65748, Note_on_c, 0, 61, 0
3, 65760, Note_on_c, 0, 56, 46
3, 65760, Note_on_c, 0, 53, 46
3, 65760, Note_on_c, 0, 61, 46
3, 65988, Note_on_c, 0, 61, 0
3, 65988, Note_on_c, 0, 53, 0
3, 65988, Note_on_c, 0, 56, 0
3, 66000, Note_on_c, 0, 61, 49
3, 66000, Note_on_c, 0, 53, 49
3, 66000, Note_on_c, 0, 56, 49
3, 66228, Note_on_c, 0, 56, 0
3, 66228, Note_on_c, 0, 53, 0
3, 66228, Note_on_c, 0, 61, 0
3, 66240, Note_on_c, 0, 61, 49
3, 66240, Note_on_c, 0, 63, 58
3, 66240, Note_on_c, 0, 55, 49
3, 66240, Note_on_c, 0, 58, 49
3, 67200, Note_on_c, 0, 58, 0
3, 67200, Note_on_c, 0, 61, 0
3, 67200, Note_on_c, 0, 63, 0
3, 67200, Note_on_c, 0, 55, 0
3, 67680, Note_on_c, 0, 56, 34
3, 67920, Note_on_c, 0, 56, 0
3, 67920, Note_on_c, 0, 58, 30
3, 67920, Note_on_c, 0, 49, 30
3, 68160, Note_on_c, 0, 49, 0
3, 68160, Note_on_c, 0, 58, 0
3, 68160, Note_on_c, 0, 51, 34
3, 68160, Note_on_c, 0, 60, 34
3, 68640, Note_on_c, 0, 60, 0
3, 68640, Note_on_c, 0, 61, 24
3, 69120, Note_on_c, 0, 61, 0
3, 69120, Note_on_c, 0, 51, 0
3, 69120, Note_on_c, 0, 56, 29
3, 69120, Note_on_c, 0, 60, 34
3, 69600, Note_on_c, 0, 60, 0
3, 69600, Note_on_c, 0, 56, 0
3, 69600, Note_on_c, 0, 44, 27
3, 69840, Note_on_c, 0, 44, 0
3, 69840, Control_c, 0, 91, 127
3, 70560, Note_on_c, 0, 41, 40
3, 70680, Note_on_c, 0, 41, 0
3, 70680, Note_on_c, 0, 53, 26
3, 70788, Note_on_c, 0, 53, 0
3, 70800, Note_on_c, 0, 53, 29
3, 70908, Note_on_c, 0, 53, 0
3, 70920, Note_on_c, 0, 53, 26
3, 71028, Note_on_c, 0, 53, 0
3, 71040, Note_on_c, 0, 53, 27
3, 71148, Note_on_c, 0, 53, 0
3, 71160, Note_on_c, 0, 53, 23
3, 71268, Note_on_c, 0, 53, 0
3, 71280, Note_on_c, 0, 53, 26
3, 71388, Note_on_c, 0, 53, 0
3, 71400, Note_on_c, 0, 53, 23
3, 71508, Note_on_c, 0, 53, 0
3, 71520, Note_on_c, 0, 53, 29
3, 71628, Note_on_c, 0, 53, 0
3, 71640, Note_on_c, 0, 53, 25
3, 71748, Note_on_c, 0, 53, 0
3, 71760, Note_on_c, 0, 53, 27
3, 71868, Note_on_c, 0, 53, 0
3, 71880, Note_on_c, 0, 53, 26
3, 71988, Note_on_c, 0, 53, 0
3, 72000, Note_on_c, 0, 41, 34
3, 72120, Note_on_c, 0, 41, 0
3, 72120, Note_on_c, 0, 53, 26
3, 72228, Note_on_c, 0, 53, 0
3, 72240, Note_on_c, 0, 53, 27
3, 72348, Note_on_c, 0, 53, 0
3, 72360, Note_on_c, 0, 53, 23
3, 72468, Note_on_c, 0, 53, 0
3, 72480, Note_on_c, 0, 53, 26
3, 72588, Note_on_c, 0, 53, 0
3, 72600, Note_on_c, 0, 53, 23
3, 72708, Note_on_c, 0, 53, 0
3, 72720, Note_on_c, 0, 53, 25
3, 72828, Note_on_c, 0, 53, 0
3, 72840, Note_on_c, 0, 53, 23
3, 72948, Note_on_c, 0, 53, 0
3, 72960, Note_on_c, 0, 53, 28
3, 73068, Note_on_c, 0, 53, 0
3, 73080, Note_on_c, 0, 53, 26
3, 73188, Note_on_c, 0, 53, 0
3, 73200, Note_on_c, 0, 53, 28
3, 73308, Note_on_c, 0, 53, 0
3, 73320, Note_on_c, 0, 53, 26
3, 73428, Note_on_c, 0, 53, 0
3, 73440, Note_on_c, 0, 40, 33
3, 73560, Note_on_c, 0, 40, 0
3, 73560, Note_on_c, 0, 52, 29
3, 73668, Note_on_c, 0, 52, 0
3, 73680, Note_on_c, 0, 52, 27
3, 73788, Note_on_c, 0, 52, 0
3, 73800, Note_on_c, 0, 52, 27
3, 73908, Note_on_c, 0, 52, 0
3, 73920, Note_on_c, 0, 52, 28
3, 74028, Note_on_c, 0, 52, 0
3, 74040, Note_on_c, 0, 52, 23
3, 74148, Note_on_c, 0, 52, 0
3, 74160, Note_on_c, 0, 52, 26
3, 74268, Note_on_c, 0, 52, 0
3, 74280, Note_on_c, 0, 52, 24
3, 74388, Note_on_c, 0, 52, 0
3, 74400, Note_on_c, 0, 52, 29
3, 74508, Note_on_c, 0, 52, 0
3, 74520, Note_on_c, 0, 52, 27
3, 74628, Note_on_c, 0, 52, 0
3, 74640, Note_on_c, 0, 52, 29
3, 74748, Note_on_c, 0, 52, 0
3, 74760, Note_on_c, 0, 52, 26
3, 74868, Note_on_c, 0, 52, 0
3, 74880, Note_on_c, 0, 41, 29
3, 75000, Note_on_c, 0, 41, 0
3, 75000, Note_on_c, 0, 53, 27
3, 75108, Note_on_c, 0, 53, 0
3, 75120, Note_on_c, 0, 53, 29
3, 75228, Note_on_c, 0, 53, 0
3, 75240, Note_on_c, 0, 53, 28
3, 75348, Note_on_c, 0, 53, 0
3, 75360, Note_on_c, 0, 53, 33
3, 75840, Note_on_c, 0, 53, 0
3, 76560, Note_on_c, 0, 61, 33
3, 76560, Note_on_c, 0, 56, 33
3, 76560, Note_on_c, 0, 53, 33
3, 76788, Note_on_c, 0, 53, 0
3, 76788, Note_on_c, 0, 56, 0
3, 76788, Note_on_c, 0, 61, 0
3, 76800, Note_on_c, 0, 61, 36
3, 76800, Note_on_c, 0, 56, 36
3, 76800, Note_on_c, 0, 53, 36
3, 77028, Note_on_c, 0, 53, 0
3, 77028, Note_on_c, 0, 56, 0
3, 77028, Note_on_c, 0, 61, 0
3, 77040, Note_on_c, 0, 61, 40
3, 77040, Note_on_c, 0, 56, 40
3, 77040, Note_on_c, 0, 53, 40
3, 77268, Note_on_c, 0, 53, 0
3, 77268, Note_on_c, 0, 56, 0
3, 77268, Note_on_c, 0, 61, 0
3, 77280, Note_on_c, 0, 61, 46
3, 77280, Note_on_c, 0, 56, 46
3, 77280, Note_on_c, 0, 53, 46
3, 77508, Note_on_c, 0, 53, 0
3, 77508, Note_on_c, 0, 56, 0
3, 77508, Note_on_c, 0, 61, 0
3, 77520, Note_on_c, 0, 61, 49
3, 77520, Note_on_c, 0, 56, 49
3, 77520, Note_on_c, 0, 53, 49
3, 77748, Note_on_c, 0, 53, 0
3, 77748, Note_on_c, 0, 56, 0
3, 77748, Note_on_c, 0, 61, 0
3, 77760, Note_on_c, 0, 63, 57
3, 77760, Note_on_c, 0, 61, 48
3, 77760, Note_on_c, 0, 58, 48
3, 77760, Note_on_c, 0, 55, 48
3, 78720, Note_on_c, 0, 55, 0
3, 78720, Note_on_c, 0, 63, 0
3, 78720, Note_on_c, 0, 61, 0
3, 78720, Note_on_c, 0, 58, 0
3, 79200, Note_on_c, 0, 56, 34
3, 79440, Note_on_c, 0, 56, 0
3, 79440, Note_on_c, 0, 49, 30
3, 79440, Note_on_c, 0, 58, 30
3, 79680, Note_on_c, 0, 58, 0
3, 79680, Note_on_c, 0, 49, 0
3, 79680, Note_on_c, 0, 51, 34
3, 79680, Note_on_c, 0, 60, 34
3, 80160, Note_on_c, 0, 60, 0
3, 80160, Note_on_c, 0, 61, 23
3, 80640, Note_on_c, 0, 61, 0
3, 80640, Note_on_c, 0, 51, 0
3, 80640, Note_on_c, 0, 56, 29
3, 80640, Note_on_c, 0, 60, 34
3, 81120, Note_on_c, 0, 60, 0
3, 81120, Note_on_c, 0, 56, 0
3, 81120, Note_on_c, 0, 44, 30
3, 81360, Note_on_c, 0, 44, 0
3, 81360, Control_c, 0, 91, 127
3, 82320, Note_on_c, 0, 56, 43
3, 82560, Note_on_c, 0, 56, 0
3, 82560, Note_on_c, 0, 60, 45
3, 82800, Note_on_c, 0, 60, 0
3, 82800, Note_on_c, 0, 63, 45
3, 83040, Note_on_c, 0, 63, 0
3, 83040, Note_on_c, 0, 53, 47
3, 83280, Note_on_c, 0, 53, 0
3, 83280, Note_on_c, 0, 62, 43
3, 83520, Note_on_c, 0, 62, 0
3, 83760, Note_on_c, 0, 51, 40
3, 84000, Note_on_c, 0, 51, 0
3, 84000, Note_on_c, 0, 55, 40
3, 84240, Note_on_c, 0, 55, 0
3, 84240, Note_on_c, 0, 58, 58
3, 84240, Note_on_c, 0, 52, 58
3, 84480, Note_on_c, 0, 52, 0
3, 84480, Note_on_c, 0, 58, 0
3, 84480, Note_on_c, 0, 56, 58
3, 84480, Note_on_c, 0, 53, 58
3, 84960, Note_on_c, 0, 53, 0
3, 84960, Note_on_c, 0, 56, 0
3, 85200, Note_on_c, 0, 49, 54
3, 85440, Note_on_c, 0, 53, 52
3, 85680, Note_on_c, 0, 53, 0
3, 85680, Note_on_c, 0, 56, 45
3, 85920, Note_on_c, 0, 56, 0
3, 85920, Note_on_c, 0, 58, 45
3, 86160, Note_on_c, 0, 58, 0
3, 86160, Note_on_c, 0, 59, 42
3, 86400, Note_on_c, 0, 59, 0
3, 86400, Note_on_c, 0, 49, 0
3, 86400, Note_on_c, 0, 48, 37
3, 86400, Note_on_c, 0, 60, 37
3, 87120, Note_on_c, 0, 60, 0
3, 87120, Note_on_c, 0, 48, 0
3, 87600, Note_on_c, 0, 44, 49
3, 87840, Note_on_c, 0, 44, 0
3, 87840, Note_on_c, 0, 46, 53
3, 88080, Note_on_c, 0, 46, 0
3, 88080, Note_on_c, 0, 58, 51
3, 88320, Note_on_c, 0, 58, 0
3, 88320, Note_on_c, 0, 59, 53
3, 88560, Note_on_c, 0, 59, 0
3, 88560, Note_on_c, 0, 60, 51
3, 88800, Note_on_c, 0, 60, 0
3, 89040, Note_on_c, 0, 48, 56
3, 89280, Note_on_c, 0, 48, 0
3, 89280, Note_on_c, 0, 49, 58
3, 89520, Note_on_c, 0, 49, 0
3, 89520, Note_on_c, 0, 61, 58
3, 89760, Note_on_c, 0, 61, 0
3, 89760, Note_on_c, 0, 63, 65
3, 90000, Note_on_c, 0, 63, 0
3, 90000, Note_on_c, 0, 60, 61
3, 90000, Note_on_c, 0, 48, 51
3, 90228, Note_on_c, 0, 48, 0
3, 90228, Note_on_c, 0, 60, 0
3, 90240, Note_on_c, 0, 45, 50
3, 90240, Note_on_c, 0, 57, 59
3, 90468, Note_on_c, 0, 57, 0
3, 90468, Note_on_c, 0, 45, 0
3, 90480, Note_on_c, 0, 41, 50
3, 90480, Note_on_c, 0, 53, 59
3, 90708, Note_on_c, 0, 53, 0
3, 90708, Note_on_c, 0, 41, 0
3, 90720, Note_on_c, 0, 58, 46
3, 90720, Note_on_c, 0, 46, 46
3, 91200, Note_on_c, 0, 46, 0
3, 91200, Note_on_c, 0, 58, 0
3, 91200, Note_on_c, 0, 60, 37
3, 91200, Note_on_c, 0, 48, 37
3, 91680, Note_on_c, 0, 48, 0
3, 91680, Note_on_c, 0, 60, 0
3, 91680, Note_on_c, 0, 48, 37
3, 91680, Note_on_c, 0, 58, 37
3, 92160, Note_on_c, 0, 58, 0
3, 92160, Note_on_c, 0, 48, 0
3, 92160, Note_on_c, 0, 56, 37
3, 92160, Note_on_c, 0, 53, 37
3, 92640, Note_on_c, 0, 53, 0
3, 92640, Note_on_c, 0, 56, 0
3, 92640, Note_on_c, 0, 41, 30
3, 92880, Note_on_c, 0, 41, 0
3, 92880, Control_c, 0, 91, 127
3, 93840, Note_on_c, 0, 56, 45
3, 94080, Note_on_c, 0, 56, 0
3, 94080, Note_on_c, 0, 60, 48
3, 94320, Note_on_c, 0, 60, 0
3, 94320, Note_on_c, 0, 63, 45
3, 94560, Note_on_c, 0, 63, 0
3, 94560, Note_on_c, 0, 53, 49
3, 94800, Note_on_c, 0, 53, 0
3, 94800, Note_on_c, 0, 62, 43
3, 95040, Note_on_c, 0, 62, 0
3, 95280, Note_on_c, 0, 51, 40
3, 95520, Note_on_c, 0, 51, 0
3, 95520, Note_on_c, 0, 55, 40
3, 95760, Note_on_c, 0, 55, 0
3, 95760, Note_on_c, 0, 52, 58
3, 95760, Note_on_c, 0, 58, 58
3, 96000, Note_on_c, 0, 58, 0
3, 96000, Note_on_c, 0, 52, 0
3, 96000, Note_on_c, 0, 53, 58
3, 96000, Note_on_c, 0, 56, 58
3, 96480, Note_on_c, 0, 56, 0
3, 96480, Note_on_c, 0, 53, 0
3, 96720, Note_on_c, 0, 49, 54
3, 96960, Note_on_c, 0, 53, 52
3, 97200, Note_on_c, 0, 53, 0
3, 97200, Note_on_c, 0, 56, 45
3, 97440, Note_on_c, 0, 56, 0
3, 97440, Note_on_c, 0, 58, 45
3, 97680, Note_on_c, 0, 58, 0
3, 97680, Note_on_c, 0, 59, 39
3, 97920, Note_on_c, 0, 59, 0
3, 97920, Note_on_c, 0, 49, 0
3, 97920, Note_on_c, 0, 48, 37
3, 97920, Note_on_c, 0, 60, 37
3, 98640, Note_on_c, 0, 60, 0
3, 98640, Note_on_c, 0, 48, 0
3, 99120, Note_on_c, 0, 44, 49
3, 99360, Note_on_c, 0, 44, 0
3, 99360, Note_on_c, 0, 46, 53
3, 99600, Note_on_c, 0, 46, 0
3, 99600, Note_on_c, 0, 58, 51
3, 99840, Note_on_c, 0, 58, 0
3, 99840, Note_on_c, 0, 59, 53
3, 100080, Note_on_c, 0, 59, 0
3, 100080, Note_on_c, 0, 60, 51
3, 100320, Note_on_c, 0, 60, 0
3, 100560, Note_on_c, 0, 48, 56
3, 100800, Note_on_c, 0, 48, 0
3, 100800, Note_on_c, 0, 49, 58
3, 101040, Note_on_c, 0, 49, 0
3, 101040, Note_on_c, 0, 61, 58
3, 101280, Note_on_c, 0, 61, 0
3, 101280, Note_on_c, 0, 63, 65
3, 101520, Note_on_c, 0, 63, 0
3, 101520, Note_on_c, 0, 48, 51
3, 101520, Note_on_c, 0, 60, 61
3, 101748, Note_on_c, 0, 60, 0
3, 101748, Note_on_c, 0, 48, 0
3, 101760, Note_on_c, 0, 45, 50
3, 101760, Note_on_c, 0, 57, 59
3, 101988, Note_on_c, 0, 57, 0
3, 101988, Note_on_c, 0, 45, 0
3, 102000, Note_on_c, 0, 41, 50
3, 102000, Note_on_c, 0, 53, 59
3, 102228, Note_on_c, 0, 53, 0
3, 102228, Note_on_c, 0, 41, 0
3, 102240, Note_on_c, 0, 46, 46
3, 102240, Note_on_c, 0, 58, 46
3, 102720, Note_on_c, 0, 58, 0
3, 102720, Note_on_c, 0, 46, 0
3, 102720, Note_on_c, 0, 48, 37
3, 102720, Note_on_c, 0, 60, 37
3, 103200, Note_on_c, 0, 60, 0
3, 103200, Note_on_c, 0, 48, 0
3, 103200, Note_on_c, 0, 48, 37
3, 103200, Note_on_c, 0, 58, 37
3, 103680, Note_on_c, 0, 58, 0
3, 103680, Note_on_c, 0, 48, 0
3, 103680, Note_on_c, 0, 53, 37
3, 103680, Note_on_c, 0, 56, 37
3, 104160, Note_on_c, 0, 56, 0
3, 104160, Note_on_c, 0, 53, 0
3, 104160, Note_on_c, 0, 41, 28
3, 104400, Note_on_c, 0, 41, 0
3, 104400, Control_c, 0, 91, 127
3, 105120, Note_on_c, 0, 41, 40
3, 105240, Note_on_c, 0, 41, 0
3, 105240, Note_on_c, 0, 53, 27
3, 105348, Note_on_c, 0, 53, 0
3, 105360, Note_on_c, 0, 53, 29
3, 105468, Note_on_c, 0, 53, 0
3, 105480, Note_on_c, 0, 53, 28
3, 105588, Note_on_c, 0, 53, 0
3, 105600, Note_on_c, 0, 53, 29
3, 105708, Note_on_c, 0, 53, 0
3, 105720, Note_on_c, 0, 53, 25
3, 105828, Note_on_c, 0, 53, 0
3, 105840, Note_on_c, 0, 53, 28
3, 105948, Note_on_c, 0, 53, 0
3, 105960, Note_on_c, 0, 53, 26
3, 106068, Note_on_c, 0, 53, 0
3, 106080, Note_on_c, 0, 53, 29
3, 106188, Note_on_c, 0, 53, 0
3, 106200, Note_on_c, 0, 53, 27
3, 106308, Note_on_c, 0, 53, 0
3, 106320, Note_on_c, 0, 53, 29
3, 106428, Note_on_c, 0, 53, 0
3, 106440, Note_on_c, 0, 53, 27
3, 106548, Note_on_c, 0, 53, 0
3, 106560, Note_on_c, 0, 41, 34
3, 106680, Note_on_c, 0, 41, 0
3, 106680, Note_on_c, 0, 53, 26
3, 106788, Note_on_c, 0, 53, 0
3, 106800, Note_on_c, 0, 53, 28
3, 106908, Note_on_c, 0, 53, 0
3, 106920, Note_on_c, 0, 53, 26
3, 107028, Note_on_c, 0, 53, 0
3, 107040, Note_on_c, 0, 53, 25
3, 107148, Note_on_c, 0, 53, 0
3, 107160, Note_on_c, 0, 53, 23
3, 107268, Note_on_c, 0, 53, 0
3, 107280, Note_on_c, 0, 53, 26
3, 107388, Note_on_c, 0, 53, 0
3, 107400, Note_on_c, 0, 53, 23
3, 107508, Note_on_c, 0, 53, 0
3, 107520, Note_on_c, 0, 53, 28
3, 107628, Note_on_c, 0, 53, 0
3, 107640, Note_on_c, 0, 53, 27
3, 107748, Note_on_c, 0, 53, 0
3, 107760, Note_on_c, 0, 53, 28
3, 107868, Note_on_c, 0, 53, 0
3, 107880, Note_on_c, 0, 53, 27
3, 107988, Note_on_c, 0, 53, 0
3, 108000, Note_on_c, 0, 41, 33
3, 108120, Note_on_c, 0, 41, 0
3, 108120, Note_on_c, 0, 53, 22
3, 108228, Note_on_c, 0, 53, 0
3, 108240, Note_on_c, 0, 53, 26
3, 108348, Note_on_c, 0, 53, 0
3, 108360, Note_on_c, 0, 53, 24
3, 108468, Note_on_c, 0, 53, 0
3, 108480, Note_on_c, 0, 53, 26
3, 108588, Note_on_c, 0, 53, 0
3, 108600, Note_on_c, 0, 53, 23
3, 108708, Note_on_c, 0, 53, 0
3, 108720, Note_on_c, 0, 53, 26
3, 108828, Note_on_c, 0, 53, 0
3, 108840, Note_on_c, 0, 53, 23
3, 108948, Note_on_c, 0, 53, 0
3, 108960, Note_on_c, 0, 53, 24
3, 109068, Note_on_c, 0, 53, 0
3, 109080, Note_on_c, 0, 53, 22
3, 109188, Note_on_c, 0, 53, 0
3, 109200, Note_on_c, 0, 53, 24
3, 109308, Note_on_c, 0, 53, 0
3, 109320, Note_on_c, 0, 53, 23
3, 109428, Note_on_c, 0, 53, 0
3, 109440, Note_on_c, 0, 53, 30
3, 109920, Note_on_c, 0, 53, 0
3, 110880, Note_on_c, 0, 53, 34
3, 110880, Note_on_c, 0, 57, 34
3, 110880, Note_on_c, 0, 60, 34
3, 111840, Note_on_c, 0, 60, 0
3, 111840, Note_on_c, 0, 57, 0
3, 111840, Note_on_c, 0, 53, 0
3, 111840, Note_on_c, 0, 48, 30
3, 111840, Note_on_c, 0, 55, 30
3, 111840, Note_on_c, 0, 58, 30
3, 112320, Note_on_c, 0, 58, 0
3, 112320, Note_on_c, 0, 55, 0
3, 112320, Note_on_c, 0, 48, 0
3, 112320, Note_on_c, 0, 50, 37
3, 112320, Note_on_c, 0, 58, 37
3, 112800, Note_on_c, 0, 58, 0
3, 112800, Note_on_c, 0, 57, 37
3, 113040, Note_on_c, 0, 57, 0
3, 113040, Note_on_c, 0, 50, 0
3, 113040, Note_on_c, 0, 45, 57
3, 113040, Note_on_c, 0, 57, 57
3, 113280, Note_on_c, 0, 57, 0
3, 113280, Note_on_c, 0, 45, 0
3, 113280, Note_on_c, 0, 43, 59
3, 113280, Note_on_c, 0, 55, 59
3, 113520, Note_on_c, 0, 55, 0
3, 113520, Note_on_c, 0, 43, 0
3, 113520, Note_on_c, 0, 41, 57
3, 113520, Note_on_c, 0, 53, 57
3, 113760, Note_on_c, 0, 53, 0
3, 113760, Note_on_c, 0, 41, 0
3, 113760, Note_on_c, 0, 50, 49
3, 113760, Note_on_c, 0, 62, 56
3, 114000, Note_on_c, 0, 62, 0
3, 114000, Note_on_c, 0, 50, 0
3, 114000, Note_on_c, 0, 46, 48
3, 114000, Note_on_c, 0, 58, 54
3, 114240, Note_on_c, 0, 58, 0
3, 114240, Note_on_c, 0, 46, 0
3, 114240, Note_on_c, 0, 45, 24
3, 114240, Note_on_c, 0, 57, 29
3, 114360, Note_on_c, 0, 57, 0
3, 114360, Note_on_c, 0, 45, 0
3, 114720, Note_on_c, 0, 50, 34
3, 115200, Note_on_c, 0, 50, 0
3, 115200, Note_on_c, 0, 48, 27
3, 116160, Note_on_c, 0, 48, 0
3, 116160, Note_on_c, 0, 60, 39
3, 116160, Note_on_c, 0, 64, 39
3, 116640, Note_on_c, 0, 64, 0
3, 116640, Note_on_c, 0, 60, 0
3, 116640, Note_on_c, 0, 59, 51
3, 116640, Note_on_c, 0, 62, 51
3, 116640, Note_on_c, 0, 65, 51
3, 117600, Note_on_c, 0, 65, 0
3, 117600, Note_on_c, 0, 62, 0
3, 117600, Note_on_c, 0, 59, 0
3, 117600, Note_on_c, 0, 60, 43
3, 117600, Note_on_c, 0, 64, 43
3, 118080, Note_on_c, 0, 64, 0
3, 118080, Note_on_c, 0, 60, 0
3, 118080, Note_on_c, 0, 50, 51
3, 118080, Note_on_c, 0, 53, 51
3, 118080, Note_on_c, 0, 59, 51
3, 118560, Note_on_c, 0, 59, 0
3, 118560, Note_on_c, 0, 53, 0
3, 118560, Note_on_c, 0, 50, 0
3, 118560, Note_on_c, 0, 52, 37
3, 118560, Note_on_c, 0, 55, 37
3, 118560, Note_on_c, 0, 60, 37
3, 119040, Note_on_c, 0, 60, 0
3, 119040, Note_on_c, 0, 55, 0
3, 119040, Note_on_c, 0, 52, 0
3, 119760, Note_on_c, 0, 62, 30
3, 119760, Note_on_c, 0, 57, 30
3, 119760, Note_on_c, 0, 53, 30
3, 120000, Note_on_c, 0, 53, 0
3, 120000, Note_on_c, 0, 57, 0
3, 120000, Note_on_c, 0, 62, 0
3, 120000, Note_on_c, 0, 64, 27
3, 120000, Note_on_c, 0, 60, 21
3, 120000, Note_on_c, 0, 55, 21
3, 120480, Note_on_c, 0, 60, 0
3, 120480, Note_on_c, 0, 64, 0
3, 120480, Note_on_c, 0, 65, 29
3, 120480, Note_on_c, 0, 62, 23
3, 120960, Note_on_c, 0, 62, 0
3, 120960, Note_on_c, 0, 65, 0
3, 120960, Note_on_c, 0, 55, 0
3, 120960, Note_on_c, 0, 64, 34
3, 120960, Note_on_c, 0, 60, 27
3, 121440, Note_on_c, 0, 60, 0
3, 121440, Note_on_c, 0, 64, 0
3, 121440, Note_on_c, 0, 48, 29
3, 121680, Note_on_c, 0, 48, 0
3, 121680, Control_c, 0, 91, 127
3, 122400, Note_on_c, 0, 63, 46
3, 122400, Note_on_c, 0, 60, 46
3, 123120, Note_on_c, 0, 60, 0
3, 123120, Note_on_c, 0, 63, 0
3, 123120, Note_on_c, 0, 63, 46
3, 123120, Note_on_c, 0, 60, 46
3, 123360, Note_on_c, 0, 60, 0
3, 123360, Note_on_c, 0, 63, 0
3, 123360, Note_on_c, 0, 62, 47
3, 123360, Note_on_c, 0, 58, 47
3, 123600, Note_on_c, 0, 58, 0
3, 123600, Note_on_c, 0, 62, 0
3, 123600, Note_on_c, 0, 57, 47
3, 123600, Note_on_c, 0, 60, 47
3, 123600, Note_on_c, 0, 62, 47
3, 123840, Note_on_c, 0, 62, 0
3, 123840, Note_on_c, 0, 60, 0
3, 123840, Note_on_c, 0, 57, 0
3, 123840, Note_on_c, 0, 60, 50
3, 123840, Note_on_c, 0, 62, 50
3, 123840, Note_on_c, 0, 55, 50
3, 124320, Note_on_c, 0, 60, 0
3, 124320, Note_on_c, 0, 58, 48
3, 124536, Note_on_c, 0, 58, 0
3, 124560, Note_on_c, 0, 55, 0
3, 124560, Note_on_c, 0, 62, 0
3, 124560, Note_on_c, 0, 61, 44
3, 124560, Note_on_c, 0, 58, 44
3, 124800, Note_on_c, 0, 58, 0
3, 124800, Note_on_c, 0, 61, 0
3, 124800, Note_on_c, 0, 60, 48
3, 124800, Note_on_c, 0, 57, 48
3, 125040, Note_on_c, 0, 57, 0
3, 125040, Note_on_c, 0, 60, 0
3, 125040, Note_on_c, 0, 55, 45
3, 125040, Note_on_c, 0, 58, 45
3, 125040, Note_on_c, 0, 60, 45
3, 125280, Note_on_c, 0, 60, 0
3, 125280, Note_on_c, 0, 58, 0
3, 125280, Note_on_c, 0, 55, 0
3, 125280, Note_on_c, 0, 53, 48
3, 125280, Note_on_c, 0, 57, 48
3, 125280, Note_on_c, 0, 60, 48
3, 125520, Note_on_c, 0, 60, 0
3, 125520, Note_on_c, 0, 57, 0
3, 125520, Note_on_c, 0, 53, 0
3, 125520, Note_on_c, 0, 50, 50
3, 125760, Note_on_c, 0, 50, 0
3, 125760, Note_on_c, 0, 45, 56
3, 126240, Note_on_c, 0, 45, 0
3, 126240, Note_on_c, 0, 46, 53
3, 126480, Note_on_c, 0, 46, 0
3, 126480, Note_on_c, 0, 43, 46
3, 126600, Note_on_c, 0, 43, 0
3, 126720, Note_on_c, 0, 48, 43
3, 127680, Note_on_c, 0, 48, 0
3, 128160, Note_on_c, 0, 36, 53
3, 128160, Note_on_c, 0, 48, 64
3, 128520, Note_on_c, 0, 48, 0
3, 128520, Note_on_c, 0, 36, 0
3, 128520, Note_on_c, 0, 38, 51
3, 128520, Note_on_c, 0, 50, 60
3, 128640, Note_on_c, 0, 50, 0
3, 128640, Note_on_c, 0, 38, 0
3, 128640, Note_on_c, 0, 40, 53
3, 128640, Note_on_c, 0, 52, 64
3, 128820, Note_on_c, 0, 52, 0
3, 128820, Note_on_c, 0, 40, 0
3, 128880, Note_on_c, 0, 41, 40
3, 128880, Note_on_c, 0, 53, 48
3, 129060, Note_on_c, 0, 53, 0
3, 129060, Note_on_c, 0, 41, 0
3, 129120, Note_on_c, 0, 43, 45
3, 129120, Note_on_c, 0, 55, 53
3, 129300, Note_on_c, 0, 55, 0
3, 129300, Note_on_c, 0, 43, 0
3, 129360, Note_on_c, 0, 45, 42
3, 129360, Note_on_c, 0, 57, 50
3, 129540, Note_on_c, 0, 57, 0
3, 129540, Note_on_c, 0, 45, 0
3, 129600, Note_on_c, 0, 46, 45
3, 129600, Note_on_c, 0, 58, 53
3, 130560, Note_on_c, 0, 58, 0
3, 130560, Note_on_c, 0, 46, 0
3, 131040, Note_on_c, 0, 65, 43
3, 131040, Note_on_c, 0, 60, 37
3, 131040, Note_on_c, 0, 57, 37
3, 131520, Note_on_c, 0, 57, 0
3, 131520, Note_on_c, 0, 60, 0
3, 131520, Note_on_c, 0, 65, 0
3, 131520, Note_on_c, 0, 60, 37
3, 131520, Note_on_c, 0, 65, 43
3, 131520, Note_on_c, 0, 57, 37
3, 132000, Note_on_c, 0, 57, 0
3, 132000, Note_on_c, 0, 65, 0
3, 132000, Note_on_c, 0, 60, 0
3, 132000, Note_on_c, 0, 65, 37
3, 132000, Note_on_c, 0, 57, 33
3, 132000, Note_on_c, 0, 63, 37
3, 132480, Note_on_c, 0, 63, 0
3, 132480, Note_on_c, 0, 57, 0
3, 132480, Note_on_c, 0, 65, 0
3, 132480, Note_on_c, 0, 62, 28
3, 132480, Note_on_c, 0, 58, 28
3, 132480, Note_on_c, 0, 65, 36
3, 133440, Note_on_c, 0, 65, 0
3, 133440, Note_on_c, 0, 58, 0
3, 133440, Note_on_c, 0, 62, 0
3, 133920, Note_on_c, 0, 58, 28
3, 133920, Note_on_c, 0, 53, 28
3, 133920, Note_on_c, 0, 62, 35
3, 134400, Note_on_c, 0, 62, 0
3, 134400, Note_on_c, 0, 58, 0
3, 134400, Note_on_c, 0, 57, 26
3, 134400, Note_on_c, 0, 60, 33
3, 134880, Note_on_c, 0, 60, 0
3, 134880, Note_on_c, 0, 57, 0
3, 134880, Note_on_c, 0, 53, 0
3, 135360, Note_on_c, 0, 55, 43
3, 135360, Note_on_c, 0, 60, 43
3, 135360, Note_on_c, 0, 52, 43
3, 136080, Note_on_c, 0, 52, 0
3, 136080, Note_on_c, 0, 60, 0
3, 136080, Note_on_c, 0, 55, 0
3, 136080, Note_on_c, 0, 46, 42
3, 136080, Note_on_c, 0, 58, 48
3, 136320, Note_on_c, 0, 58, 0
3, 136320, Note_on_c, 0, 46, 0
3, 136320, Note_on_c, 0, 57, 50
3, 136320, Note_on_c, 0, 45, 44
3, 136560, Note_on_c, 0, 45, 0
3, 136560, Note_on_c, 0, 57, 0
3, 136560, Note_on_c, 0, 43, 44
3, 136560, Note_on_c, 0, 55, 50
3, 136800, Note_on_c, 0, 55, 0
3, 136800, Note_on_c, 0, 43, 0
3, 136800, Note_on_c, 0, 41, 49
3, 136800, Note_on_c, 0, 53, 54
3, 137040, Note_on_c, 0, 53, 0
3, 137040, Note_on_c, 0, 41, 0
3, 137280, Note_on_c, 0, 57, 37
3, 137280, Note_on_c, 0, 48, 29
3, 137760, Note_on_c, 0, 57, 0
3, 137760, Note_on_c, 0, 58, 29
3, 138240, Note_on_c, 0, 58, 0
3, 138240, Note_on_c, 0, 48, 0
3, 138240, Note_on_c, 0, 53, 33
3, 138240, Note_on_c, 0, 57, 33
3, 138720, Note_on_c, 0, 57, 0
3, 138720, Note_on_c, 0, 53, 0
3, 138720, Note_on_c, 0, 41, 29
3, 138960, Note_on_c, 0, 41, 0
3, 138960, Control_c, 0, 91, 127
3, 139680, Note_on_c, 0, 41, 40
3, 139800, Note_on_c, 0, 41, 0
3, 139800, Note_on_c, 0, 53, 28
3, 139908, Note_on_c, 0, 53, 0
3, 139920, Note_on_c, 0, 53, 29
3, 140028, Note_on_c, 0, 53, 0
3, 140040, Note_on_c, 0, 53, 28
3, 140148, Note_on_c, 0, 53, 0
3, 140160, Note_on_c, 0, 53, 32
3, 140268, Note_on_c, 0, 53, 0
3, 140280, Note_on_c, 0, 53, 29
3, 140388, Note_on_c, 0, 53, 0
3, 140400, Note_on_c, 0, 53, 29
3, 140508, Note_on_c, 0, 53, 0
3, 140520, Note_on_c, 0, 53, 28
3, 140628, Note_on_c, 0, 53, 0
3, 140640, Note_on_c, 0, 53, 32
3, 140748, Note_on_c, 0, 53, 0
3, 140760, Note_on_c, 0, 53, 29
3, 140868, Note_on_c, 0, 53, 0
3, 140880, Note_on_c, 0, 53, 30
3, 140988, Note_on_c, 0, 53, 0
3, 141000, Note_on_c, 0, 53, 28
3, 141108, Note_on_c, 0, 53, 0
3, 141120, Note_on_c, 0, 41, 40
3, 141240, Note_on_c, 0, 41, 0
3, 141240, Note_on_c, 0, 53, 28
3, 141348, Note_on_c, 0, 53, 0
3, 141360, Note_on_c, 0, 53, 31
3, 141468, Note_on_c, 0, 53, 0
3, 141480, Note_on_c, 0, 53, 28
3, 141588, Note_on_c, 0, 53, 0
3, 141600, Note_on_c, 0, 38, 48
3, 141720, Note_on_c, 0, 38, 0
3, 141720, Note_on_c, 0, 50, 33
3, 141828, Note_on_c, 0, 50, 0
3, 141840, Note_on_c, 0, 50, 37
3, 141948, Note_on_c, 0, 50, 0
3, 141960, Note_on_c, 0, 50, 33
3, 142068, Note_on_c, 0, 50, 0
3, 142080, Note_on_c, 0, 35, 50
3, 142200, Note_on_c, 0, 35, 0
3, 142200, Note_on_c, 0, 47, 38
3, 142308, Note_on_c, 0, 47, 0
3, 142320, Note_on_c, 0, 47, 42
3, 142428, Note_on_c, 0, 47, 0
3, 142440, Note_on_c, 0, 47, 38
3, 142548, Note_on_c, 0, 47, 0
3, 142560, Note_on_c, 0, 36, 33
3, 142680, Note_on_c, 0, 36, 0
3, 142680, Note_on_c, 0, 48, 26
3, 142788, Note_on_c, 0, 48, 0
3, 142800, Note_on_c, 0, 48, 28
3, 142908, Note_on_c, 0, 48, 0
3, 142920, Note_on_c, 0, 48, 26
3, 143028, Note_on_c, 0, 48, 0
3, 143040, Note_on_c, 0, 48, 30
3, 143148, Note_on_c, 0, 48, 0
3, 143160, Note_on_c, 0, 48, 22
3, 143268, Note_on_c, 0, 48, 0
3, 143280, Note_on_c, 0, 48, 25
3, 143388, Note_on_c, 0, 48, 0
3, 143400, Note_on_c, 0, 48, 23
3, 143508, Note_on_c, 0, 48, 0
3, 143520, Note_on_c, 0, 48, 28
3, 143628, Note_on_c, 0, 48, 0
3, 143640, Note_on_c, 0, 48, 24
3, 143748, Note_on_c, 0, 48, 0
3, 143760, Note_on_c, 0, 48, 26
3, 143868, Note_on_c, 0, 48, 0
3, 143880, Note_on_c, 0, 48, 24
3, 143988, Note_on_c, 0, 48, 0
3, 144000, Note_on_c, 0, 41, 28
3, 144480, Note_on_c, 0, 41, 0
3, 144480, End_track
4, 0, Start_track
4, 0, Title_t, "Pedale"
4, 0, Control_c, 0, 64, 0
4, 777, Control_c, 0, 64, 127
4, 1451, Control_c, 0, 64, 0
4, 1472, Control_c, 0, 64, 127
4, 1689, Control_c, 0, 64, 0
4, 1720, Control_c, 0, 64, 127
4, 1963, Control_c, 0, 64, 0
4, 2452, Control_c, 0, 64, 127
4, 2884, Control_c, 0, 64, 0
4, 3078, Control_c, 0, 64, 127
4, 3373, Control_c, 0, 64, 0
4, 3501, Control_c, 0, 64, 127
4, 3859, Control_c, 0, 64, 0
4, 3967, Control_c, 0, 64, 127
4, 4092, Control_c, 0, 64, 0
4, 4179, Control_c, 0, 64, 127
4, 4328, Control_c, 0, 64, 0
4, 4401, Control_c, 0, 64, 127
4, 4816, Control_c, 0, 64, 0
4, 5354, Control_c, 0, 64, 127
4, 5769, Control_c, 0, 64, 0
4, 5806, Control_c, 0, 64, 127
4, 6257, Control_c, 0, 64, 0
4, 6307, Control_c, 0, 64, 127
4, 6723, Control_c, 0, 64, 0
4, 6819, Control_c, 0, 64, 127
4, 7091, Control_c, 0, 64, 0
4, 7151, Control_c, 0, 64, 127
4, 8172, Control_c, 0, 64, 0
4, 8252, Control_c, 0, 64, 127
4, 8554, Control_c, 0, 64, 0
4, 8586, Control_c, 0, 64, 127
4, 9133, Control_c, 0, 64, 0
4, 10332, Control_c, 0, 64, 127
4, 10573, Control_c, 0, 64, 0
4, 10703, Control_c, 0, 64, 127
4, 11056, Control_c, 0, 64, 0
4, 11126, Control_c, 0, 64, 127
4, 11537, Control_c, 0, 64, 0
4, 11661, Control_c, 0, 64, 127
4, 12018, Control_c, 0, 64, 0
4, 12297, Control_c, 0, 64, 127
4, 12972, Control_c, 0, 64, 0
4, 12992, Control_c, 0, 64, 127
4, 13210, Control_c, 0, 64, 0
4, 13241, Control_c, 0, 64, 127
4, 13484, Control_c, 0, 64, 0
4, 13972, Control_c, 0, 64, 127
4, 14405, Control_c, 0, 64, 0
4, 14598, Control_c, 0, 64, 127
4, 14894, Control_c, 0, 64, 0
4, 15022, Control_c, 0, 64, 127
4, 15380, Control_c, 0, 64, 0
4, 15488, Control_c, 0, 64, 127
4, 15613, Control_c, 0, 64, 0
4, 15700, Control_c, 0, 64, 127
4, 15849, Control_c, 0, 64, 0
4, 15922, Control_c, 0, 64, 127
4, 16337, Control_c, 0, 64, 0
4, 16875, Control_c, 0, 64, 127
4, 17290, Control_c, 0, 64, 0
4, 17327, Control_c, 0, 64, 127
4, 17778, Control_c, 0, 64, 0
4, 17828, Control_c, 0, 64, 127
4, 18250, Control_c, 0, 64, 0
4, 18318, Control_c, 0, 64, 127
4, 18612, Control_c, 0, 64, 0
4, 18671, Control_c, 0, 64, 127
4, 19697, Control_c, 0, 64, 0
4, 19749, Control_c, 0, 64, 127
4, 20075, Control_c, 0, 64, 0
4, 20106, Control_c, 0, 64, 127
4, 20654, Control_c, 0, 64, 0
4, 21892, Control_c, 0, 64, 127
4, 22094, Control_c, 0, 64, 0
4, 22224, Control_c, 0, 64, 127
4, 22577, Control_c, 0, 64, 0
4, 22646, Control_c, 0, 64, 127
4, 23058, Control_c, 0, 64, 0
4, 23182, Control_c, 0, 64, 127
4, 23539, Control_c, 0, 64, 0
4, 24516, Control_c, 0, 64, 127
4, 24968, Control_c, 0, 64, 0
4, 25013, Control_c, 0, 64, 127
4, 25448, Control_c, 0, 64, 0
4, 25486, Control_c, 0, 64, 127
4, 25691, Control_c, 0, 64, 0
4, 25740, Control_c, 0, 64, 127
4, 25930, Control_c, 0, 64, 0
4, 25970, Control_c, 0, 64, 127
4, 26414, Control_c, 0, 64, 0
4, 26453, Control_c, 0, 64, 127
4, 26647, Control_c, 0, 64, 0
4, 26697, Control_c, 0, 64, 127
4, 26894, Control_c, 0, 64, 0
4, 26926, Control_c, 0, 64, 127
4, 27134, Control_c, 0, 64, 0
4, 27170, Control_c, 0, 64, 127
4, 27366, Control_c, 0, 64, 0
4, 27423, Control_c, 0, 64, 127
4, 27606, Control_c, 0, 64, 0
4, 27663, Control_c, 0, 64, 127
4, 27857, Control_c, 0, 64, 0
4, 27960, Control_c, 0, 64, 127
4, 28340, Control_c, 0, 64, 0
4, 28400, Control_c, 0, 64, 127
4, 28575, Control_c, 0, 64, 0
4, 28652, Control_c, 0, 64, 127
4, 28808, Control_c, 0, 64, 0
4, 28899, Control_c, 0, 64, 127
4, 29296, Control_c, 0, 64, 0
4, 29619, Control_c, 0, 64, 127
4, 30251, Control_c, 0, 64, 0
4, 30283, Control_c, 0, 64, 127
4, 30735, Control_c, 0, 64, 0
4, 31010, Control_c, 0, 64, 127
4, 31216, Control_c, 0, 64, 0
4, 31264, Control_c, 0, 64, 127
4, 31447, Control_c, 0, 64, 0
4, 31486, Control_c, 0, 64, 127
4, 31689, Control_c, 0, 64, 0
4, 31863, Control_c, 0, 64, 127
4, 32175, Control_c, 0, 64, 0
4, 32526, Control_c, 0, 64, 127
4, 33120, Control_c, 0, 64, 0
4, 33149, Control_c, 0, 64, 127
4, 33612, Control_c, 0, 64, 0
4, 33641, Control_c, 0, 64, 127
4, 34093, Control_c, 0, 64, 0
4, 34114, Control_c, 0, 64, 127
4, 34332, Control_c, 0, 64, 0
4, 34356, Control_c, 0, 64, 127
4, 34566, Control_c, 0, 64, 0
4, 34708, Control_c, 0, 64, 127
4, 35054, Control_c, 0, 64, 0
4, 36039, Control_c, 0, 64, 127
4, 36491, Control_c, 0, 64, 0
4, 36544, Control_c, 0, 64, 127
4, 37448, Control_c, 0, 64, 0
4, 37490, Control_c, 0, 64, 127
4, 37812, Control_c, 0, 64, 0
4, 38213, Control_c, 0, 64, 127
4, 38409, Control_c, 0, 64, 0
4, 38436, Control_c, 0, 64, 127
4, 38657, Control_c, 0, 64, 0
4, 38704, Control_c, 0, 64, 127
4, 38820, Control_c, 0, 64, 0
4, 39438, Control_c, 0, 64, 127
4, 39812, Control_c, 0, 64, 0
4, 39904, Control_c, 0, 64, 127
4, 40327, Control_c, 0, 64, 0
4, 40405, Control_c, 0, 64, 127
4, 40948, Control_c, 0, 64, 0
4, 41796, Control_c, 0, 64, 127
4, 42249, Control_c, 0, 64, 0
4, 42294, Control_c, 0, 64, 127
4, 42729, Control_c, 0, 64, 0
4, 42767, Control_c, 0, 64, 127
4, 42972, Control_c, 0, 64, 0
4, 43021, Control_c, 0, 64, 127
4, 43211, Control_c, 0, 64, 0
4, 43250, Control_c, 0, 64, 127
4, 43695, Control_c, 0, 64, 0
4, 43734, Control_c, 0, 64, 127
4, 43928, Control_c, 0, 64, 0
4, 43977, Control_c, 0, 64, 127
4, 44175, Control_c, 0, 64, 0
4, 44207, Control_c, 0, 64, 127
4, 44415, Control_c, 0, 64, 0
4, 44450, Control_c, 0, 64, 127
4, 44647, Control_c, 0, 64, 0
4, 44704, Control_c, 0, 64, 127
4, 44887, Control_c, 0, 64, 0
4, 44944, Control_c, 0, 64, 127
4, 45138, Control_c, 0, 64, 0
4, 45241, Control_c, 0, 64, 127
4, 45621, Control_c, 0, 64, 0
4, 45681, Control_c, 0, 64, 127
4, 45856, Control_c, 0, 64, 0
4, 45932, Control_c, 0, 64, 127
4, 46089, Control_c, 0, 64, 0
4, 46180, Control_c, 0, 64, 127
4, 46577, Control_c, 0, 64, 0
4, 46900, Control_c, 0, 64, 127
4, 47532, Control_c, 0, 64, 0
4, 47563, Control_c, 0, 64, 127
4, 48016, Control_c, 0, 64, 0
4, 48290, Control_c, 0, 64, 127
4, 48497, Control_c, 0, 64, 0
4, 48544, Control_c, 0, 64, 127
4, 48728, Control_c, 0, 64, 0
4, 48767, Control_c, 0, 64, 127
4, 48970, Control_c, 0, 64, 0
4, 49144, Control_c, 0, 64, 127
4, 49456, Control_c, 0, 64, 0
4, 49806, Control_c, 0, 64, 127
4, 50401, Control_c, 0, 64, 0
4, 50430, Control_c, 0, 64, 127
4, 50893, Control_c, 0, 64, 0
4, 50921, Control_c, 0, 64, 127
4, 51374, Control_c, 0, 64, 0
4, 51395, Control_c, 0, 64, 127
4, 51613, Control_c, 0, 64, 0
4, 51636, Control_c, 0, 64, 127
4, 51847, Control_c, 0, 64, 0
4, 51989, Control_c, 0, 64, 127
4, 52335, Control_c, 0, 64, 0
4, 53320, Control_c, 0, 64, 127
4, 53772, Control_c, 0, 64, 0
4, 53824, Control_c, 0, 64, 127
4, 54729, Control_c, 0, 64, 0
4, 54770, Control_c, 0, 64, 127
4, 55093, Control_c, 0, 64, 0
4, 55494, Control_c, 0, 64, 127
4, 55690, Control_c, 0, 64, 0
4, 55716, Control_c, 0, 64, 127
4, 55938, Control_c, 0, 64, 0
4, 55984, Control_c, 0, 64, 127
4, 56101, Control_c, 0, 64, 0
4, 56718, Control_c, 0, 64, 127
4, 57093, Control_c, 0, 64, 0
4, 57184, Control_c, 0, 64, 127
4, 57608, Control_c, 0, 64, 0
4, 57685, Control_c, 0, 64, 127
4, 58229, Control_c, 0, 64, 0
4, 58377, Control_c, 0, 64, 127
4, 59052, Control_c, 0, 64, 0
4, 59111, Control_c, 0, 64, 127
4, 59764, Control_c, 0, 64, 0
4, 59838, Control_c, 0, 64, 127
4, 60244, Control_c, 0, 64, 0
4, 60311, Control_c, 0, 64, 127
4, 60489, Control_c, 0, 64, 0
4, 60621, Control_c, 0, 64, 127
4, 61214, Control_c, 0, 64, 0
4, 61292, Control_c, 0, 64, 127
4, 61927, Control_c, 0, 64, 0
4, 62026, Control_c, 0, 64, 127
4, 62647, Control_c, 0, 64, 0
4, 62686, Control_c, 0, 64, 127
4, 62896, Control_c, 0, 64, 0
4, 62933, Control_c, 0, 64, 127
4, 63370, Control_c, 0, 64, 0
4, 63445, Control_c, 0, 64, 127
4, 63611, Control_c, 0, 64, 0
4, 63671, Control_c, 0, 64, 127
4, 63939, Control_c, 0, 64, 0
4, 65143, Control_c, 0, 64, 127
4, 65495, Control_c, 0, 64, 0
4, 65541, Control_c, 0, 64, 127
4, 65735, Control_c, 0, 64, 0
4, 65796, Control_c, 0, 64, 127
4, 65986, Control_c, 0, 64, 0
4, 66028, Control_c, 0, 64, 127
4, 66243, Control_c, 0, 64, 0
4, 66300, Control_c, 0, 64, 127
4, 66734, Control_c, 0, 64, 0
4, 66802, Control_c, 0, 64, 127
4, 67355, Control_c, 0, 64, 0
4, 67744, Control_c, 0, 64, 127
4, 67928, Control_c, 0, 64, 0
4, 67991, Control_c, 0, 64, 127
4, 68178, Control_c, 0, 64, 0
4, 68266, Control_c, 0, 64, 127
4, 68654, Control_c, 0, 64, 0
4, 68746, Control_c, 0, 64, 127
4, 69123, Control_c, 0, 64, 0
4, 69332, Control_c, 0, 64, 127
4, 69614, Control_c, 0, 64, 0
4, 69897, Control_c, 0, 64, 127
4, 70572, Control_c, 0, 64, 0
4, 70631, Control_c, 0, 64, 127
4, 71284, Control_c, 0, 64, 0
4, 71358, Control_c, 0, 64, 127
4, 71764, Control_c, 0, 64, 0
4, 71831, Control_c, 0, 64, 127
4, 72009, Control_c, 0, 64, 0
4, 72141, Control_c, 0, 64, 127
4, 72734, Control_c, 0, 64, 0
4, 72812, Control_c, 0, 64, 127
4, 73447, Control_c, 0, 64, 0
4, 73546, Control_c, 0, 64, 127
4, 74167, Control_c, 0, 64, 0
4, 74206, Control_c, 0, 64, 127
4, 74416, Control_c, 0, 64, 0
4, 74453, Control_c, 0, 64, 127
4, 74890, Control_c, 0, 64, 0
4, 74965, Control_c, 0, 64, 127
4, 75131, Control_c, 0, 64, 0
4, 75191, Control_c, 0, 64, 127
4, 75459, Control_c, 0, 64, 0
4, 76663, Control_c, 0, 64, 127
4, 77015, Control_c, 0, 64, 0
4, 77061, Control_c, 0, 64, 127
4, 77255, Control_c, 0, 64, 0
4, 77316, Control_c, 0, 64, 127
4, 77506, Control_c, 0, 64, 0
4, 77548, Control_c, 0, 64, 127
4, 77763, Control_c, 0, 64, 0
4, 77820, Control_c, 0, 64, 127
4, 78254, Control_c, 0, 64, 0
4, 78322, Control_c, 0, 64, 127
4, 78875, Control_c, 0, 64, 0
4, 79264, Control_c, 0, 64, 127
4, 79448, Control_c, 0, 64, 0
4, 79511, Control_c, 0, 64, 127
4, 79698, Control_c, 0, 64, 0
4, 79786, Control_c, 0, 64, 127
4, 80174, Control_c, 0, 64, 0
4, 80266, Control_c, 0, 64, 127
4, 80643, Control_c, 0, 64, 0
4, 80852, Control_c, 0, 64, 127
4, 81134, Control_c, 0, 64, 0
4, 86457, Control_c, 0, 64, 127
4, 86887, Control_c, 0, 64, 0
4, 86983, Control_c, 0, 64, 127
4, 87136, Control_c, 0, 64, 0
4, 90017, Control_c, 0, 64, 127
4, 90720, Control_c, 0, 64, 0
4, 90766, Control_c, 0, 64, 127
4, 91208, Control_c, 0, 64, 0
4, 91253, Control_c, 0, 64, 127
4, 91698, Control_c, 0, 64, 0
4, 91758, Control_c, 0, 64, 127
4, 92169, Control_c, 0, 64, 0
4, 92344, Control_c, 0, 64, 127
4, 92824, Control_c, 0, 64, 0
4, 98023, Control_c, 0, 64, 127
4, 98412, Control_c, 0, 64, 0
4, 98503, Control_c, 0, 64, 127
4, 98732, Control_c, 0, 64, 0
4, 101570, Control_c, 0, 64, 127
4, 102254, Control_c, 0, 64, 0
4, 102283, Control_c, 0, 64, 127
4, 102728, Control_c, 0, 64, 0
4, 102766, Control_c, 0, 64, 127
4, 103218, Control_c, 0, 64, 0
4, 103334, Control_c, 0, 64, 127
4, 103699, Control_c, 0, 64, 0
4, 103807, Control_c, 0, 64, 127
4, 104344, Control_c, 0, 64, 0
4, 104513, Control_c, 0, 64, 127
4, 105130, Control_c, 0, 64, 0
4, 105198, Control_c, 0, 64, 127
4, 105854, Control_c, 0, 64, 0
4, 105932, Control_c, 0, 64, 127
4, 106576, Control_c, 0, 64, 0
4, 106659, Control_c, 0, 64, 127
4, 107293, Control_c, 0, 64, 0
4, 107351, Control_c, 0, 64, 127
4, 108005, Control_c, 0, 64, 0
4, 108078, Control_c, 0, 64, 127
4, 108724, Control_c, 0, 64, 0
4, 108784, Control_c, 0, 64, 127
4, 109207, Control_c, 0, 64, 0
4, 109264, Control_c, 0, 64, 127
4, 109447, Control_c, 0, 64, 0
4, 109567, Control_c, 0, 64, 127
4, 109895, Control_c, 0, 64, 0
4, 110217, Control_c, 0, 64, 127
4, 110892, Control_c, 0, 64, 0
4, 110912, Control_c, 0, 64, 127
4, 111130, Control_c, 0, 64, 0
4, 111161, Control_c, 0, 64, 127
4, 111404, Control_c, 0, 64, 0
4, 111892, Control_c, 0, 64, 127
4, 112325, Control_c, 0, 64, 0
4, 112518, Control_c, 0, 64, 127
4, 112814, Control_c, 0, 64, 0
4, 112942, Control_c, 0, 64, 127
4, 113300, Control_c, 0, 64, 0
4, 113408, Control_c, 0, 64, 127
4, 113533, Control_c, 0, 64, 0
4, 113620, Control_c, 0, 64, 127
4, 113769, Control_c, 0, 64, 0
4, 113842, Control_c, 0, 64, 127
4, 114257, Control_c, 0, 64, 0
4, 114795, Control_c, 0, 64, 127
4, 115210, Control_c, 0, 64, 0
4, 115247, Control_c, 0, 64, 127
4, 115698, Control_c, 0, 64, 0
4, 115748, Control_c, 0, 64, 127
4, 116170, Control_c, 0, 64, 0
4, 116259, Control_c, 0, 64, 127
4, 116532, Control_c, 0, 64, 0
4, 116591, Control_c, 0, 64, 127
4, 117612, Control_c, 0, 64, 0
4, 117675, Control_c, 0, 64, 127
4, 117995, Control_c, 0, 64, 0
4, 118026, Control_c, 0, 64, 127
4, 118574, Control_c, 0, 64, 0
4, 119772, Control_c, 0, 64, 127
4, 120014, Control_c, 0, 64, 0
4, 120144, Control_c, 0, 64, 127
4, 120497, Control_c, 0, 64, 0
4, 120566, Control_c, 0, 64, 127
4, 120978, Control_c, 0, 64, 0
4, 121102, Control_c, 0, 64, 127
4, 121459, Control_c, 0, 64, 0
4, 122436, Control_c, 0, 64, 127
4, 122888, Control_c, 0, 64, 0
4, 122933, Control_c, 0, 64, 127
4, 123368, Control_c, 0, 64, 0
4, 123406, Control_c, 0, 64, 127
4, 123611, Control_c, 0, 64, 0
4, 123660, Control_c, 0, 64, 127
4, 123850, Control_c, 0, 64, 0
4, 123890, Control_c, 0, 64, 127
4, 124334, Control_c, 0, 64, 0
4, 124373, Control_c, 0, 64, 127
4, 124567, Control_c, 0, 64, 0
4, 124617, Control_c, 0, 64, 127
4, 124814, Control_c, 0, 64, 0
4, 124846, Control_c, 0, 64, 127
4, 125054, Control_c, 0, 64, 0
4, 125090, Control_c, 0, 64, 127
4, 125286, Control_c, 0, 64, 0
4, 125343, Control_c, 0, 64, 127
4, 125526, Control_c, 0, 64, 0
4, 125583, Control_c, 0, 64, 127
4, 125777, Control_c, 0, 64, 0
4, 125880, Control_c, 0, 64, 127
4, 126260, Control_c, 0, 64, 0
4, 126320, Control_c, 0, 64, 127
4, 126495, Control_c, 0, 64, 0
4, 126572, Control_c, 0, 64, 127
4, 126728, Control_c, 0, 64, 0
4, 126819, Control_c, 0, 64, 127
4, 127216, Control_c, 0, 64, 0
4, 127539, Control_c, 0, 64, 127
4, 128171, Control_c, 0, 64, 0
4, 128203, Control_c, 0, 64, 127
4, 128655, Control_c, 0, 64, 0
4, 128930, Control_c, 0, 64, 127
4, 129136, Control_c, 0, 64, 0
4, 129184, Control_c, 0, 64, 127
4, 129367, Control_c, 0, 64, 0
4, 129406, Control_c, 0, 64, 127
4, 129609, Control_c, 0, 64, 0
4, 129783, Control_c, 0, 64, 127
4, 130095, Control_c, 0, 64, 0
4, 130446, Control_c, 0, 64, 127
4, 131040, Control_c, 0, 64, 0
4, 131069, Control_c, 0, 64, 127
4, 131532, Control_c, 0, 64, 0
4, 131561, Control_c, 0, 64, 127
4, 132013, Control_c, 0, 64, 0
4, 132034, Control_c, 0, 64, 127
4, 132252, Control_c, 0, 64, 0
4, 132276, Control_c, 0, 64, 127
4, 132486, Control_c, 0, 64, 0
4, 132628, Control_c, 0, 64, 127
4, 132974, Control_c, 0, 64, 0
4, 133959, Control_c, 0, 64, 127
4, 134411, Control_c, 0, 64, 0
4, 134464, Control_c, 0, 64, 127
4, 135368, Control_c, 0, 64, 0
4, 135410, Control_c, 0, 64, 127
4, 135732, Control_c, 0, 64, 0
4, 136133, Control_c, 0, 64, 127
4, 136329, Control_c, 0, 64, 0
4, 136356, Control_c, 0, 64, 127
4, 136577, Control_c, 0, 64, 0
4, 136624, Control_c, 0, 64, 127
4, 136740, Control_c, 0, 64, 0
4, 137358, Control_c, 0, 64, 127
4, 137732, Control_c, 0, 64, 0
4, 137824, Control_c, 0, 64, 127
4, 138247, Control_c, 0, 64, 0
4, 138325, Control_c, 0, 64, 127
4, 138868, Control_c, 0, 64, 0
4, 139116, Control_c, 0, 64, 127
4, 139685, Control_c, 0, 64, 0
4, 139779, Control_c, 0, 64, 127
4, 140655, Control_c, 0, 64, 0
4, 140739, Control_c, 0, 64, 127
4, 141135, Control_c, 0, 64, 0
4, 141200, Control_c, 0, 64, 127
4, 141617, Control_c, 0, 64, 0
4, 141697, Control_c, 0, 64, 127
4, 142096, Control_c, 0, 64, 0
4, 142183, Control_c, 0, 64, 127
4, 142576, Control_c, 0, 64, 0
4, 142645, Control_c, 0, 64, 127
4, 143537, Control_c, 0, 64, 0
4, 143589, Control_c, 0, 64, 127
4, 144005, Control_c, 0, 64, 0
4, 144214, Control_c, 0, 64, 127
4, 144854, Control_c, 0, 64, 0
4, 144854, End_track
5, 0, Start_track
5, 0, Title_t, "Mozart: Klaviersonate C-Dur KV 330 2. Satz"
5, 0, End_track
6, 0, Start_track
6, 0, Title_t, "Copyright © 1997 by Bernd Krüger"
6, 0, End_track
7, 0, Start_track
7, 0, Title_t, "http://www.piano-midi.de"
7, 0, End_track
8, 0, Start_track
8, 0, Title_t, "Edition: 2013-06-20"
8, 0, End_track
9, 0, Start_track
9, 0, Title_t, "Spur 8"
9, 0, End_track
0, 0, End_of_file
