0, 0, Header, 1, 17, 480
1, 0, Start_track
1, 0, Title_t, "Sonate KV 570 3. Satz"
1, 0, Copyright_t, "Copyright © 2006 by Bernd Krueger"
1, 0, Text_t, "Wolfgnag Amadeus Mozart"
1, 0, Text_t, "Allegretto"
1, 0, Text_t, "Veröffentlicht: 1.12.2006\012"
1, 0, Text_t, "Update: 23.10.2013\012"
1, 0, Text_t, "Dauer: 3:20 Minuten\012"
1, 0, Time_signature, 4, 2, 24, 8
1, 0, Key_signature, -2, "major"
1, 0, Tempo, 384098
1, 1426, Marker_t, "Teil 1"
1, 1440, Tempo, 436999
1, 1680, Tempo, 423430
1, 1920, Tempo, 411749
1, 2400, Tempo, 423430
1, 2460, Tempo, 421704
1, 2880, Tempo, 410116
1, 3360, Tempo, 411749
1, 3840, Tempo, 394633
1, 4080, Tempo, 416667
1, 4320, Tempo, 400695
1, 4560, Tempo, 410116
1, 4800, Tempo, 406945
1, 5040, Tempo, 414995
1, 5280, Tempo, 406945
1, 5760, Tempo, 388752
1, 6000, Tempo, 418323
1, 6240, Tempo, 406945
1, 6720, Tempo, 387347
1, 6960, Tempo, 411749
1, 7260, Tempo, 408525
1, 7680, Tempo, 390244
1, 7920, Tempo, 411749
1, 8160, Tempo, 394633
1, 8400, Tempo, 421704
1, 8640, Tempo, 402253
1, 9360, Tempo, 423430
1, 9600, Tempo, 411749
1, 10080, Tempo, 423430
1, 10140, Tempo, 421704
1, 10560, Tempo, 410116
1, 11040, Tempo, 411749
1, 11520, Tempo, 394633
1, 11760, Tempo, 416667
1, 12000, Tempo, 400695
1, 12240, Tempo, 410116
1, 12480, Tempo, 406945
1, 12720, Tempo, 414995
1, 12960, Tempo, 406945
1, 13440, Tempo, 388752
1, 13680, Tempo, 402253
1, 13920, Tempo, 400695
1, 14400, Tempo, 387347
1, 14640, Tempo, 406945
1, 14940, Tempo, 408525
1, 15360, Tempo, 390244
1, 15600, Tempo, 400695
1, 15840, Tempo, 390244
1, 16080, Tempo, 403796
1, 16200, Tempo, 420050
1, 16320, Tempo, 402253
1, 16800, Tempo, 402253
1, 17040, Tempo, 423430
1, 17280, Tempo, 405817
1, 17760, Tempo, 416118
1, 18240, Tempo, 396040
1, 18420, Tempo, 402982
1, 18720, Tempo, 411749
1, 19200, Tempo, 394633
1, 19440, Tempo, 416667
1, 19680, Tempo, 400695
1, 19920, Tempo, 410116
1, 20160, Tempo, 406945
1, 20400, Tempo, 414995
1, 20640, Tempo, 438340
1, 20880, Tempo, 420698
1, 21120, Tempo, 405817
1, 21600, Tempo, 416118
1, 22080, Tempo, 396040
1, 22260, Tempo, 402982
1, 22560, Tempo, 411749
1, 23040, Tempo, 394633
1, 23280, Tempo, 416667
1, 23520, Tempo, 400695
1, 23760, Tempo, 410116
1, 24000, Tempo, 406945
1, 24240, Tempo, 414995
1, 24480, Tempo, 406945
1, 24960, Tempo, 405817
1, 25200, Tempo, 394659
1, 25440, Tempo, 404394
1, 25740, Tempo, 430138
1, 25920, Tempo, 396040
1, 26100, Tempo, 402982
1, 26400, Tempo, 411749
1, 26880, Tempo, 405817
1, 27120, Tempo, 394659
1, 27360, Tempo, 404394
1, 27660, Tempo, 430138
1, 27840, Tempo, 396040
1, 28009, Tempo, 396040
1, 28086, Tempo, 397404
1, 28143, Tempo, 398777
1, 28220, Tempo, 400160
1, 28278, Tempo, 401580
1, 28335, Tempo, 402982
1, 28412, Tempo, 404394
1, 28470, Tempo, 405817
1, 28546, Tempo, 407249
1, 28604, Tempo, 408719
1, 28662, Tempo, 410172
1, 28680, Tempo, 455754
1, 28800, Tempo, 411749
1, 29280, Tempo, 423430
1, 29340, Tempo, 421704
1, 29760, Tempo, 410116
1, 30240, Tempo, 411749
1, 30720, Tempo, 394633
1, 30960, Tempo, 416667
1, 31200, Tempo, 400695
1, 31440, Tempo, 410116
1, 31680, Tempo, 406945
1, 31920, Tempo, 414995
1, 32160, Tempo, 406945
1, 32640, Tempo, 388752
1, 32880, Tempo, 418323
1, 33120, Tempo, 406945
1, 33600, Tempo, 387347
1, 33840, Tempo, 411749
1, 34140, Tempo, 408525
1, 34560, Tempo, 390244
1, 34800, Tempo, 411749
1, 35040, Tempo, 394633
1, 35280, Tempo, 421704
1, 35520, Tempo, 402253
1, 36240, Tempo, 423430
1, 36480, Tempo, 411749
1, 36960, Tempo, 423430
1, 37020, Tempo, 421704
1, 37440, Tempo, 410116
1, 37920, Tempo, 411749
1, 38400, Tempo, 394633
1, 38640, Tempo, 416667
1, 38880, Tempo, 400695
1, 39120, Tempo, 410116
1, 39360, Tempo, 406945
1, 39600, Tempo, 414995
1, 39840, Tempo, 406945
1, 40320, Tempo, 388752
1, 40560, Tempo, 402253
1, 40800, Tempo, 400695
1, 41280, Tempo, 387347
1, 41520, Tempo, 406945
1, 41820, Tempo, 408525
1, 42240, Tempo, 390244
1, 42480, Tempo, 400695
1, 42720, Tempo, 390244
1, 42960, Tempo, 403796
1, 43080, Tempo, 420050
1, 43200, Tempo, 402253
1, 43680, Tempo, 402253
1, 43920, Tempo, 423430
1, 43920, Marker_t, "Teil 2"
1, 44160, Tempo, 393959
1, 44400, Tempo, 410874
1, 44640, Tempo, 423430
1, 44700, Tempo, 421704
1, 45120, Tempo, 393959
1, 45360, Tempo, 410874
1, 45600, Tempo, 423430
1, 45660, Tempo, 421704
1, 46080, Tempo, 399441
1, 46320, Tempo, 405077
1, 46560, Tempo, 399441
1, 46800, Tempo, 403660
1, 47040, Tempo, 395309
1, 47400, Tempo, 416840
1, 47520, Tempo, 403660
1, 48000, Tempo, 393959
1, 48240, Tempo, 410874
1, 48480, Tempo, 423430
1, 48540, Tempo, 421704
1, 48960, Tempo, 393959
1, 49200, Tempo, 410874
1, 49440, Tempo, 423430
1, 49500, Tempo, 421704
1, 49920, Tempo, 399441
1, 50160, Tempo, 405077
1, 50400, Tempo, 399441
1, 50640, Tempo, 403660
1, 50880, Tempo, 395309
1, 51240, Tempo, 416840
1, 51360, Tempo, 425441
1, 51600, Tempo, 402604
1, 52560, Tempo, 419903
1, 52800, Tempo, 402253
1, 53520, Tempo, 413850
1, 53760, Tempo, 395309
1, 54600, Tempo, 413850
1, 54720, Tempo, 393959
1, 55440, Tempo, 406504
1, 55674, Tempo, 391287
1, 55790, Tempo, 392619
1, 55905, Tempo, 393959
1, 56020, Tempo, 395309
1, 56116, Tempo, 396694
1, 56231, Tempo, 398063
1, 56346, Tempo, 399441
1, 56442, Tempo, 400828
1, 56634, Tempo, 392619
1, 56750, Tempo, 393959
1, 56865, Tempo, 395309
1, 56961, Tempo, 396694
1, 57076, Tempo, 398063
1, 57191, Tempo, 399441
1, 57287, Tempo, 400828
1, 57402, Tempo, 402253
1, 57498, Tempo, 403660
1, 57594, Tempo, 392619
1, 57600, Tempo, 405077
1, 58080, Tempo, 419903
1, 58320, Tempo, 496073
1, 58560, Tempo, 458435
1, 59040, Tempo, 468787
1, 59280, Tempo, 423430
1, 59280, Marker_t, "Teil 2 Wiederholung"
1, 59520, Tempo, 393959
1, 59760, Tempo, 410874
1, 60000, Tempo, 423430
1, 60060, Tempo, 421704
1, 60480, Tempo, 393959
1, 60720, Tempo, 410874
1, 60960, Tempo, 423430
1, 61020, Tempo, 421704
1, 61440, Tempo, 399441
1, 61680, Tempo, 405077
1, 61920, Tempo, 399441
1, 62160, Tempo, 403660
1, 62400, Tempo, 395309
1, 62760, Tempo, 431562
1, 62880, Tempo, 430015
1, 63000, Tempo, 402604
1, 63360, Tempo, 393959
1, 63600, Tempo, 410874
1, 63840, Tempo, 423430
1, 63900, Tempo, 421704
1, 64320, Tempo, 393959
1, 64560, Tempo, 410874
1, 64800, Tempo, 423430
1, 64860, Tempo, 421704
1, 65280, Tempo, 399441
1, 65520, Tempo, 405077
1, 65760, Tempo, 399441
1, 66000, Tempo, 403660
1, 66240, Tempo, 395309
1, 66600, Tempo, 416840
1, 66720, Tempo, 403660
1, 67920, Tempo, 419903
1, 68160, Tempo, 402253
1, 68880, Tempo, 413850
1, 69120, Tempo, 395309
1, 69960, Tempo, 413850
1, 70080, Tempo, 393959
1, 70800, Tempo, 406504
1, 71034, Tempo, 391287
1, 71150, Tempo, 392619
1, 71265, Tempo, 393959
1, 71380, Tempo, 395309
1, 71476, Tempo, 396694
1, 71591, Tempo, 398063
1, 71706, Tempo, 399441
1, 71802, Tempo, 400828
1, 71994, Tempo, 392619
1, 72110, Tempo, 393959
1, 72225, Tempo, 395309
1, 72321, Tempo, 396694
1, 72436, Tempo, 398063
1, 72551, Tempo, 399441
1, 72647, Tempo, 400828
1, 72762, Tempo, 402253
1, 72858, Tempo, 403660
1, 72954, Tempo, 392619
1, 72960, Tempo, 405077
1, 73440, Tempo, 419903
1, 73680, Tempo, 496073
1, 73920, Tempo, 458435
1, 74400, Tempo, 490798
1, 74640, Tempo, 423430
1, 74640, Marker_t, "Teil 3"
1, 74880, Tempo, 393959
1, 75120, Tempo, 410874
1, 75360, Tempo, 423430
1, 75420, Tempo, 421704
1, 75840, Tempo, 393959
1, 76080, Tempo, 410874
1, 76320, Tempo, 423430
1, 76380, Tempo, 421704
1, 76800, Tempo, 393959
1, 77040, Tempo, 410874
1, 77280, Tempo, 423430
1, 77340, Tempo, 421704
1, 77760, Tempo, 393959
1, 78000, Tempo, 410874
1, 78240, Tempo, 423430
1, 78300, Tempo, 421704
1, 78720, Tempo, 395309
1, 79560, Tempo, 413850
1, 79680, Tempo, 395309
1, 80520, Tempo, 457910
1, 80640, Tempo, 391978
1, 80880, Tempo, 428541
1, 81360, Tempo, 445137
1, 81600, Tempo, 426955
1, 82080, Tempo, 455754
1, 82320, Tempo, 423430
1, 82560, Tempo, 393959
1, 82800, Tempo, 410874
1, 83040, Tempo, 423430
1, 83100, Tempo, 421704
1, 83520, Tempo, 393959
1, 83760, Tempo, 410874
1, 84000, Tempo, 423430
1, 84060, Tempo, 421704
1, 84480, Tempo, 399441
1, 84720, Tempo, 405077
1, 84960, Tempo, 399441
1, 85200, Tempo, 403660
1, 85440, Tempo, 395309
1, 85800, Tempo, 416840
1, 85920, Tempo, 426955
1, 86160, Tempo, 402604
1, 86400, Tempo, 393959
1, 86640, Tempo, 410874
1, 86880, Tempo, 423430
1, 86940, Tempo, 421704
1, 87360, Tempo, 393959
1, 87600, Tempo, 410874
1, 87840, Tempo, 423430
1, 87900, Tempo, 421704
1, 88320, Tempo, 399441
1, 88560, Tempo, 405077
1, 88800, Tempo, 399441
1, 89040, Tempo, 403660
1, 89280, Tempo, 395309
1, 89640, Tempo, 416840
1, 89760, Tempo, 403660
1, 90960, Tempo, 419903
1, 91200, Tempo, 402253
1, 91920, Tempo, 413850
1, 92160, Tempo, 395309
1, 93000, Tempo, 413850
1, 93120, Tempo, 393959
1, 93840, Tempo, 406504
1, 94074, Tempo, 391287
1, 94190, Tempo, 392619
1, 94305, Tempo, 393959
1, 94420, Tempo, 395309
1, 94516, Tempo, 396694
1, 94631, Tempo, 398063
1, 94746, Tempo, 399441
1, 94842, Tempo, 400828
1, 95034, Tempo, 392619
1, 95150, Tempo, 393959
1, 95265, Tempo, 395309
1, 95361, Tempo, 396694
1, 95476, Tempo, 398063
1, 95591, Tempo, 399441
1, 95687, Tempo, 400828
1, 95802, Tempo, 402253
1, 95898, Tempo, 403660
1, 95994, Tempo, 392619
1, 96000, Tempo, 405077
1, 96480, Tempo, 419903
1, 96720, Tempo, 496073
1, 96960, Tempo, 458435
1, 97440, Tempo, 468787
1, 97680, Tempo, 423430
1, 97680, Marker_t, "Teil 3 Wiederholung"
1, 97920, Tempo, 393959
1, 98160, Tempo, 410874
1, 98400, Tempo, 423430
1, 98460, Tempo, 421704
1, 98880, Tempo, 393959
1, 99120, Tempo, 410874
1, 99360, Tempo, 423430
1, 99420, Tempo, 421704
1, 99840, Tempo, 393959
1, 100080, Tempo, 410874
1, 100320, Tempo, 423430
1, 100380, Tempo, 421704
1, 100800, Tempo, 393959
1, 101040, Tempo, 410874
1, 101280, Tempo, 423430
1, 101340, Tempo, 421704
1, 101760, Tempo, 395309
1, 102600, Tempo, 413850
1, 102720, Tempo, 395309
1, 103560, Tempo, 521603
1, 103680, Tempo, 391978
1, 103920, Tempo, 428541
1, 104400, Tempo, 445137
1, 104640, Tempo, 426955
1, 105120, Tempo, 455754
1, 105360, Tempo, 423430
1, 105600, Tempo, 393959
1, 105840, Tempo, 410874
1, 106080, Tempo, 423430
1, 106140, Tempo, 421704
1, 106560, Tempo, 393959
1, 106800, Tempo, 410874
1, 107040, Tempo, 423430
1, 107100, Tempo, 421704
1, 107520, Tempo, 399441
1, 107760, Tempo, 405077
1, 108000, Tempo, 399441
1, 108240, Tempo, 403660
1, 108480, Tempo, 395309
1, 108840, Tempo, 434688
1, 109080, Tempo, 401257
1, 109440, Tempo, 393959
1, 109680, Tempo, 410874
1, 109920, Tempo, 423430
1, 109980, Tempo, 421704
1, 110400, Tempo, 393959
1, 110640, Tempo, 410874
1, 110880, Tempo, 423430
1, 110940, Tempo, 421704
1, 111360, Tempo, 399441
1, 111600, Tempo, 405077
1, 111840, Tempo, 399441
1, 112080, Tempo, 403660
1, 112320, Tempo, 395309
1, 112680, Tempo, 416840
1, 112800, Tempo, 403660
1, 114000, Tempo, 419903
1, 114240, Tempo, 402253
1, 114960, Tempo, 413850
1, 115200, Tempo, 395309
1, 116040, Tempo, 413850
1, 116160, Tempo, 393959
1, 116880, Tempo, 406504
1, 117114, Tempo, 391287
1, 117230, Tempo, 392619
1, 117345, Tempo, 393959
1, 117460, Tempo, 395309
1, 117556, Tempo, 396694
1, 117671, Tempo, 398063
1, 117786, Tempo, 399441
1, 117882, Tempo, 400828
1, 118074, Tempo, 392619
1, 118190, Tempo, 393959
1, 118305, Tempo, 395309
1, 118401, Tempo, 396694
1, 118516, Tempo, 398063
1, 118631, Tempo, 399441
1, 118727, Tempo, 400828
1, 118842, Tempo, 402253
1, 118938, Tempo, 403660
1, 119034, Tempo, 392619
1, 119040, Tempo, 405077
1, 119520, Tempo, 419903
1, 119760, Tempo, 517108
1, 120000, Tempo, 458435
1, 120480, Tempo, 468787
1, 120720, Tempo, 446861
1, 120720, Marker_t, "Übergang"
1, 120960, Tempo, 430108
1, 121200, Tempo, 448598
1, 121440, Tempo, 430108
1, 121920, Tempo, 436649
1, 122160, Tempo, 450349
1, 122400, Tempo, 436649
1, 122760, Tempo, 464936
1, 122880, Tempo, 433369
1, 123600, Tempo, 448598
1, 123840, Tempo, 440012
1, 124320, Tempo, 450349
1, 124800, Tempo, 417915
1, 124800, Marker_t, "Teil 4"
1, 125280, Tempo, 408970
1, 125520, Tempo, 425653
1, 125760, Tempo, 410874
1, 126480, Tempo, 422505
1, 126720, Tempo, 419434
1, 127200, Tempo, 410874
1, 127440, Tempo, 417915
1, 127680, Tempo, 410874
1, 128160, Tempo, 412456
1, 128640, Tempo, 411636
1, 128880, Tempo, 404394
1, 129360, Tempo, 414022
1, 129600, Tempo, 404913
1, 130320, Tempo, 415541
1, 130560, Tempo, 404913
1, 131280, Tempo, 426773
1, 131520, Tempo, 410903
1, 131760, Tempo, 421911
1, 132000, Tempo, 428449
1, 132240, Tempo, 453035
1, 132480, Tempo, 414880
1, 132480, Marker_t, "Teil 4 Wiederholung"
1, 132960, Tempo, 407526
1, 133200, Tempo, 423519
1, 133440, Tempo, 407526
1, 134160, Tempo, 420256
1, 134400, Tempo, 413394
1, 134880, Tempo, 406091
1, 135120, Tempo, 420964
1, 135360, Tempo, 406091
1, 135840, Tempo, 412456
1, 136320, Tempo, 417624
1, 136560, Tempo, 406697
1, 137040, Tempo, 414022
1, 137280, Tempo, 402604
1, 138000, Tempo, 415541
1, 138240, Tempo, 406697
1, 138960, Tempo, 426773
1, 139200, Tempo, 410903
1, 139440, Tempo, 421911
1, 139680, Tempo, 428449
1, 139920, Tempo, 451162
1, 140160, Tempo, 425653
1, 140160, Marker_t, "Teil 5"
1, 140400, Tempo, 413394
1, 140640, Tempo, 406394
1, 141120, Tempo, 403470
1, 141840, Tempo, 413109
1, 142080, Tempo, 406394
1, 142320, Tempo, 403470
1, 143040, Tempo, 406394
1, 143760, Tempo, 423519
1, 144000, Tempo, 404913
1, 144960, Tempo, 407886
1, 145440, Tempo, 409389
1, 145680, Tempo, 418702
1, 145920, Tempo, 410903
1, 146898, Tempo, 414022
1, 147051, Tempo, 415541
1, 147205, Tempo, 417130
1, 147339, Tempo, 418702
1, 147493, Tempo, 420256
1, 147646, Tempo, 421911
1, 147781, Tempo, 423519
1, 147840, Tempo, 409389
1, 148320, Tempo, 404913
1, 148560, Tempo, 423519
1, 148800, Tempo, 404913
1, 149520, Tempo, 420256
1, 149760, Tempo, 407886
1, 150240, Tempo, 404913
1, 150480, Tempo, 416378
1, 150720, Tempo, 403226
1, 151200, Tempo, 412456
1, 151680, Tempo, 413109
1, 151920, Tempo, 404394
1, 152400, Tempo, 414022
1, 152640, Tempo, 404913
1, 153360, Tempo, 415541
1, 153600, Tempo, 404913
1, 154320, Tempo, 426773
1, 154560, Tempo, 410903
1, 154800, Tempo, 421911
1, 155040, Tempo, 428449
1, 155280, Tempo, 453035
1, 155520, Tempo, 417624
1, 155520, Marker_t, "Teil 5 Wiederholung"
1, 155760, Tempo, 413394
1, 156000, Tempo, 406394
1, 156480, Tempo, 403470
1, 157200, Tempo, 410172
1, 157440, Tempo, 406394
1, 157680, Tempo, 403470
1, 158400, Tempo, 406394
1, 159120, Tempo, 423519
1, 159360, Tempo, 404913
1, 160320, Tempo, 407886
1, 160800, Tempo, 409389
1, 161040, Tempo, 418702
1, 161280, Tempo, 410903
1, 162258, Tempo, 414022
1, 162411, Tempo, 415541
1, 162565, Tempo, 417130
1, 162699, Tempo, 418702
1, 162853, Tempo, 420256
1, 163006, Tempo, 421911
1, 163141, Tempo, 423519
1, 163200, Tempo, 409389
1, 163680, Tempo, 404913
1, 163920, Tempo, 423519
1, 164160, Tempo, 404913
1, 164880, Tempo, 420256
1, 165120, Tempo, 407886
1, 165600, Tempo, 404913
1, 165840, Tempo, 416378
1, 166080, Tempo, 403226
1, 166560, Tempo, 412456
1, 167040, Tempo, 413109
1, 167280, Tempo, 406697
1, 167760, Tempo, 414022
1, 168000, Tempo, 405323
1, 168720, Tempo, 415541
1, 168960, Tempo, 404913
1, 169680, Tempo, 426773
1, 169920, Tempo, 410903
1, 170160, Tempo, 421911
1, 170400, Tempo, 428449
1, 170640, Tempo, 431748
1, 170880, Tempo, 403226
1, 170880, Marker_t, "Teil 6"
1, 171389, Tempo, 394919
1, 171404, Tempo, 401096
1, 171500, Tempo, 399680
1, 171572, Tempo, 398301
1, 171644, Tempo, 396930
1, 171716, Tempo, 395570
1, 171840, Tempo, 395570
1, 171849, Tempo, 397641
1, 172080, Tempo, 399016
1, 172310, Tempo, 400427
1, 172541, Tempo, 401822
1, 172771, Tempo, 403226
1, 173030, Tempo, 390650
1, 173280, Tempo, 392080
1, 173510, Tempo, 391978
1, 173520, Tempo, 399973
1, 173760, Tempo, 390447
1, 173971, Tempo, 393314
1, 174432, Tempo, 394659
1, 174480, Tempo, 401822
1, 174678, Tempo, 394919
1, 174720, Tempo, 393546
1, 174960, Tempo, 406091
1, 175200, Tempo, 393546
1, 175440, Tempo, 406091
1, 175680, Tempo, 393546
1, 175920, Tempo, 404640
1, 176160, Tempo, 393546
1, 176400, Tempo, 407526
1, 176640, Tempo, 397641
1, 177360, Tempo, 414880
1, 177600, Tempo, 399016
1, 178560, Tempo, 397641
1, 178708, Tempo, 389560
1, 178804, Tempo, 390879
1, 178880, Tempo, 392208
1, 178976, Tempo, 393546
1, 179053, Tempo, 394919
1, 179149, Tempo, 396275
1, 179226, Tempo, 397641
1, 179280, Tempo, 404640
1, 179520, Tempo, 393546
1, 179880, Tempo, 411918
1, 180000, Tempo, 399016
1, 180240, Tempo, 414880
1, 180480, Tempo, 397641
1, 180628, Tempo, 389560
1, 180724, Tempo, 390879
1, 180800, Tempo, 392208
1, 180896, Tempo, 393546
1, 180973, Tempo, 394919
1, 181069, Tempo, 396275
1, 181146, Tempo, 397641
1, 181200, Tempo, 404640
1, 181434, Tempo, 393546
1, 181453, Tempo, 390879
1, 181492, Tempo, 392208
1, 181511, Tempo, 393546
1, 181549, Tempo, 394919
1, 181568, Tempo, 396275
1, 181607, Tempo, 397641
1, 181626, Tempo, 399016
1, 181664, Tempo, 400427
1, 181684, Tempo, 401822
1, 181722, Tempo, 403226
1, 181741, Tempo, 404640
1, 181780, Tempo, 406091
1, 181799, Tempo, 407526
1, 181837, Tempo, 408970
1, 181856, Tempo, 410425
1, 181895, Tempo, 411918
1, 181914, Tempo, 413394
1, 181952, Tempo, 414880
1, 181972, Tempo, 416378
1, 182010, Tempo, 416378
1, 182087, Tempo, 417915
1, 182144, Tempo, 419434
1, 182160, Tempo, 444346
1, 182400, Tempo, 411749
1, 182880, Tempo, 423430
1, 182940, Tempo, 421704
1, 183360, Tempo, 410116
1, 183840, Tempo, 411749
1, 184320, Tempo, 394633
1, 184560, Tempo, 416667
1, 184800, Tempo, 400695
1, 185040, Tempo, 410116
1, 185280, Tempo, 406945
1, 185520, Tempo, 414995
1, 185760, Tempo, 406945
1, 186240, Tempo, 388752
1, 186480, Tempo, 418323
1, 186720, Tempo, 406945
1, 187200, Tempo, 387347
1, 187440, Tempo, 411749
1, 187740, Tempo, 408525
1, 188160, Tempo, 390244
1, 188400, Tempo, 411749
1, 188640, Tempo, 394633
1, 188880, Tempo, 421704
1, 189120, Tempo, 402253
1, 189840, Tempo, 423430
1, 190080, Tempo, 411749
1, 190560, Tempo, 423430
1, 190620, Tempo, 421704
1, 191040, Tempo, 410116
1, 191520, Tempo, 411749
1, 192000, Tempo, 394633
1, 192240, Tempo, 416667
1, 192480, Tempo, 400695
1, 192720, Tempo, 410116
1, 192960, Tempo, 406945
1, 193200, Tempo, 414995
1, 193440, Tempo, 406945
1, 193920, Tempo, 388752
1, 194160, Tempo, 402253
1, 194400, Tempo, 400695
1, 194880, Tempo, 387347
1, 195120, Tempo, 406945
1, 195420, Tempo, 408525
1, 195840, Tempo, 390244
1, 196080, Tempo, 400695
1, 196320, Tempo, 390244
1, 196560, Tempo, 403796
1, 196680, Tempo, 420050
1, 196800, Tempo, 402253
1, 197520, Tempo, 423430
1, 197760, Tempo, 393959
1, 198000, Tempo, 410874
1, 198240, Tempo, 423430
1, 198300, Tempo, 421704
1, 198720, Tempo, 393959
1, 198960, Tempo, 410874
1, 199200, Tempo, 423430
1, 199260, Tempo, 421704
1, 199680, Tempo, 393959
1, 199920, Tempo, 410874
1, 200160, Tempo, 423430
1, 200220, Tempo, 421704
1, 200640, Tempo, 393959
1, 200880, Tempo, 410874
1, 201120, Tempo, 441729
1, 201360, Tempo, 423430
1, 201600, Tempo, 393959
1, 201840, Tempo, 410874
1, 202080, Tempo, 423430
1, 202140, Tempo, 421704
1, 202560, Tempo, 393959
1, 202800, Tempo, 410874
1, 203040, Tempo, 423430
1, 203100, Tempo, 421704
1, 203520, Tempo, 393959
1, 203760, Tempo, 410874
1, 204000, Tempo, 423430
1, 204060, Tempo, 421704
1, 204480, Tempo, 393959
1, 204720, Tempo, 410874
1, 204960, Tempo, 437796
1, 205200, Tempo, 423251
1, 205440, Tempo, 421704
1, 205680, Tempo, 412626
1, 206160, Tempo, 427991
1, 206400, Tempo, 411128
1, 207120, Tempo, 418644
1, 207360, Tempo, 409668
1, 208080, Tempo, 423251
1, 208320, Tempo, 409668
1, 209280, Tempo, 420168
1, 209520, Tempo, 405323
1, 209760, Tempo, 412626
1, 210000, Tempo, 402495
1, 210960, Tempo, 415599
1, 211200, Tempo, 401096
1, 211920, Tempo, 437796
1, 212160, Tempo, 405323
1, 213120, Tempo, 421704
1, 213360, Tempo, 412626
1, 213840, Tempo, 427991
1, 214080, Tempo, 411128
1, 214800, Tempo, 418644
1, 215040, Tempo, 409668
1, 215760, Tempo, 423251
1, 216000, Tempo, 409668
1, 216960, Tempo, 420168
1, 217200, Tempo, 405323
1, 217440, Tempo, 412626
1, 217680, Tempo, 402495
1, 217872, Tempo, 401096
1, 217930, Tempo, 402495
1, 217987, Tempo, 403904
1, 218045, Tempo, 405323
1, 218103, Tempo, 406780
1, 218141, Tempo, 408219
1, 218199, Tempo, 409668
1, 218256, Tempo, 411128
1, 218314, Tempo, 412626
1, 218352, Tempo, 414107
1, 218410, Tempo, 415599
1, 218467, Tempo, 417101
1, 218525, Tempo, 418644
1, 218583, Tempo, 420168
1, 218621, Tempo, 421704
1, 218679, Tempo, 423251
1, 218736, Tempo, 424839
1, 218794, Tempo, 426409
1, 218832, Tempo, 427991
1, 218880, Tempo, 451569
1, 220080, Tempo, 418936
1, 220320, Tempo, 411438
1, 220560, Tempo, 431220
1, 220800, Tempo, 422030
1, 221280, Tempo, 417420
1, 221294, Tempo, 418936
1, 221534, Tempo, 417420
1, 221750, Tempo, 415916
1, 221966, Tempo, 414393
1, 222326, Tempo, 415916
1, 222662, Tempo, 417420
1, 222720, Tempo, 423251
1, 222840, Tempo, 427991
1, 222960, Tempo, 423251
1, 223080, Tempo, 426409
1, 223200, Tempo, 431220
1, 223320, Tempo, 421704
1, 223440, Tempo, 437796
1, 223560, Tempo, 423251
1, 223680, Tempo, 432838
1, 223800, Tempo, 429584
1, 223920, Tempo, 423251
1, 224018, Tempo, 429584
1, 224048, Tempo, 431220
1, 224063, Tempo, 432838
1, 224093, Tempo, 434468
1, 224108, Tempo, 436110
1, 224123, Tempo, 437796
1, 224153, Tempo, 439464
1, 224168, Tempo, 441144
1, 224183, Tempo, 442837
1, 224213, Tempo, 444576
1, 224228, Tempo, 446296
1, 224243, Tempo, 448029
1, 224273, Tempo, 449775
1, 224288, Tempo, 451569
1, 224318, Tempo, 453343
1, 224333, Tempo, 455132
1, 224348, Tempo, 456934
1, 224378, Tempo, 458786
1, 224393, Tempo, 460617
1, 224408, Tempo, 462463
1, 224438, Tempo, 464324
1, 224453, Tempo, 466237
1, 224468, Tempo, 468128
1, 224520, Tempo, 516529
1, 224640, Tempo, 436110
1, 225600, Tempo, 433150
1, 226320, Tempo, 456934
1, 226560, Tempo, 434468
1, 227520, Tempo, 428327
1, 228240, Tempo, 455132
1, 228480, Tempo, 432838
1, 228960, Tempo, 428327
1, 229200, Tempo, 451569
1, 229440, Tempo, 431220
1, 230160, Tempo, 455132
1, 230400, Tempo, 429584
1, 231120, Tempo, 453343
1, 231360, Tempo, 431220
1, 232080, Tempo, 462463
1, 232320, Tempo, 475888
1, 233520, Tempo, 475888
1, 233520, End_track
2, 0, Start_track
2, 0, Title_t, "Piano right"
2, 0, Program_c, 0, 0
2, 1680, Note_on_c, 0, 70, 47
2, 1920, Note_on_c, 0, 70, 0
2, 1920, Note_on_c, 0, 74, 50
2, 2160, Note_on_c, 0, 74, 0
2, 2400, Note_on_c, 0, 75, 51
2, 2640, Note_on_c, 0, 75, 0
2, 2880, Note_on_c, 0, 76, 52
2, 3360, Note_on_c, 0, 76, 0
2, 3360, Note_on_c, 0, 77, 52
2, 3600, Note_on_c, 0, 77, 0
2, 3600, Note_on_c, 0, 74, 51
2, 3720, Note_on_c, 0, 74, 0
2, 3780, Note_on_c, 0, 74, 52
2, 3840, Note_on_c, 0, 74, 0
2, 3840, Note_on_c, 0, 72, 54
2, 3960, Note_on_c, 0, 72, 0
2, 4080, Note_on_c, 0, 71, 50
2, 4200, Note_on_c, 0, 71, 0
2, 4320, Note_on_c, 0, 72, 52
2, 4440, Note_on_c, 0, 72, 0
2, 4560, Note_on_c, 0, 74, 50
2, 4680, Note_on_c, 0, 74, 0
2, 4800, Note_on_c, 0, 77, 54
2, 5280, Note_on_c, 0, 77, 0
2, 5280, Note_on_c, 0, 75, 46
2, 5520, Note_on_c, 0, 75, 0
2, 5520, Note_on_c, 0, 69, 46
2, 5640, Note_on_c, 0, 69, 0
2, 5760, Note_on_c, 0, 70, 52
2, 5880, Note_on_c, 0, 70, 0
2, 6000, Note_on_c, 0, 70, 48
2, 6480, Note_on_c, 0, 70, 0
2, 6480, Note_on_c, 0, 71, 47
2, 6720, Note_on_c, 0, 71, 0
2, 6720, Note_on_c, 0, 72, 51
2, 6840, Note_on_c, 0, 72, 0
2, 6960, Note_on_c, 0, 72, 50
2, 7440, Note_on_c, 0, 72, 0
2, 7440, Note_on_c, 0, 73, 50
2, 7680, Note_on_c, 0, 73, 0
2, 7680, Note_on_c, 0, 74, 54
2, 7800, Note_on_c, 0, 74, 0
2, 7920, Note_on_c, 0, 72, 50
2, 8040, Note_on_c, 0, 72, 0
2, 8160, Note_on_c, 0, 74, 55
2, 8280, Note_on_c, 0, 74, 0
2, 8400, Note_on_c, 0, 72, 50
2, 8400, Note_on_c, 0, 75, 50
2, 8520, Note_on_c, 0, 75, 0
2, 8520, Note_on_c, 0, 72, 0
2, 8640, Note_on_c, 0, 70, 55
2, 8640, Note_on_c, 0, 74, 55
2, 9120, Note_on_c, 0, 74, 0
2, 9120, Note_on_c, 0, 70, 0
2, 9120, Note_on_c, 0, 69, 50
2, 9120, Note_on_c, 0, 72, 50
2, 9300, Note_on_c, 0, 72, 0
2, 9300, Note_on_c, 0, 69, 0
2, 9360, Note_on_c, 0, 70, 47
2, 9480, Note_on_c, 0, 70, 0
2, 9480, Note_on_c, 0, 72, 47
2, 9600, Note_on_c, 0, 72, 0
2, 9600, Note_on_c, 0, 74, 50
2, 9840, Note_on_c, 0, 74, 0
2, 10080, Note_on_c, 0, 75, 51
2, 10320, Note_on_c, 0, 75, 0
2, 10560, Note_on_c, 0, 76, 52
2, 11040, Note_on_c, 0, 76, 0
2, 11040, Note_on_c, 0, 77, 52
2, 11280, Note_on_c, 0, 77, 0
2, 11280, Note_on_c, 0, 74, 51
2, 11400, Note_on_c, 0, 74, 0
2, 11460, Note_on_c, 0, 74, 52
2, 11520, Note_on_c, 0, 74, 0
2, 11520, Note_on_c, 0, 72, 54
2, 11640, Note_on_c, 0, 72, 0
2, 11760, Note_on_c, 0, 71, 50
2, 11880, Note_on_c, 0, 71, 0
2, 12000, Note_on_c, 0, 72, 52
2, 12120, Note_on_c, 0, 72, 0
2, 12240, Note_on_c, 0, 74, 50
2, 12360, Note_on_c, 0, 74, 0
2, 12480, Note_on_c, 0, 77, 54
2, 12960, Note_on_c, 0, 77, 0
2, 12960, Note_on_c, 0, 75, 46
2, 13200, Note_on_c, 0, 75, 0
2, 13200, Note_on_c, 0, 69, 46
2, 13320, Note_on_c, 0, 69, 0
2, 13440, Note_on_c, 0, 70, 56
2, 13560, Note_on_c, 0, 70, 0
2, 13680, Note_on_c, 0, 82, 50
2, 13920, Note_on_c, 0, 82, 0
2, 13920, Note_on_c, 0, 82, 53
2, 14040, Note_on_c, 0, 82, 0
2, 14160, Note_on_c, 0, 82, 48
2, 14280, Note_on_c, 0, 82, 0
2, 14400, Note_on_c, 0, 72, 56
2, 14520, Note_on_c, 0, 72, 0
2, 14640, Note_on_c, 0, 79, 50
2, 14880, Note_on_c, 0, 79, 0
2, 14880, Note_on_c, 0, 79, 53
2, 15000, Note_on_c, 0, 79, 0
2, 15120, Note_on_c, 0, 79, 50
2, 15240, Note_on_c, 0, 79, 0
2, 15360, Note_on_c, 0, 70, 54
2, 15480, Note_on_c, 0, 70, 0
2, 15600, Note_on_c, 0, 70, 50
2, 15720, Note_on_c, 0, 70, 0
2, 15840, Note_on_c, 0, 72, 50
2, 15900, Note_on_c, 0, 72, 0
2, 15900, Note_on_c, 0, 74, 45
2, 15960, Note_on_c, 0, 74, 0
2, 15960, Note_on_c, 0, 72, 45
2, 16020, Note_on_c, 0, 72, 0
2, 16020, Note_on_c, 0, 70, 45
2, 16080, Note_on_c, 0, 70, 0
2, 16080, Note_on_c, 0, 72, 50
2, 16200, Note_on_c, 0, 72, 0
2, 16200, Note_on_c, 0, 74, 45
2, 16320, Note_on_c, 0, 74, 0
2, 16320, Note_on_c, 0, 70, 55
2, 16800, Note_on_c, 0, 70, 0
2, 17040, Note_on_c, 0, 70, 47
2, 17160, Note_on_c, 0, 70, 0
2, 17160, Note_on_c, 0, 74, 47
2, 17280, Note_on_c, 0, 74, 0
2, 17280, Note_on_c, 0, 77, 54
2, 17520, Note_on_c, 0, 77, 0
2, 17760, Note_on_c, 0, 76, 51
2, 18000, Note_on_c, 0, 76, 0
2, 18240, Note_on_c, 0, 84, 59
2, 18360, Note_on_c, 0, 84, 0
2, 18480, Note_on_c, 0, 75, 52
2, 18720, Note_on_c, 0, 75, 0
2, 18960, Note_on_c, 0, 74, 51
2, 19440, Note_on_c, 0, 74, 0
2, 19440, Note_on_c, 0, 71, 50
2, 19680, Note_on_c, 0, 71, 0
2, 19680, Note_on_c, 0, 72, 52
2, 19920, Note_on_c, 0, 72, 0
2, 19920, Note_on_c, 0, 79, 50
2, 20160, Note_on_c, 0, 79, 0
2, 20160, Note_on_c, 0, 70, 54
2, 20520, Note_on_c, 0, 70, 0
2, 20520, Note_on_c, 0, 72, 43
2, 20580, Note_on_c, 0, 72, 0
2, 20580, Note_on_c, 0, 70, 43
2, 20640, Note_on_c, 0, 70, 0
2, 20640, Note_on_c, 0, 69, 48
2, 20820, Note_on_c, 0, 69, 0
2, 20880, Note_on_c, 0, 69, 47
2, 21000, Note_on_c, 0, 69, 0
2, 21000, Note_on_c, 0, 72, 47
2, 21120, Note_on_c, 0, 72, 0
2, 21120, Note_on_c, 0, 77, 54
2, 21360, Note_on_c, 0, 77, 0
2, 21600, Note_on_c, 0, 76, 51
2, 21840, Note_on_c, 0, 76, 0
2, 22080, Note_on_c, 0, 84, 59
2, 22200, Note_on_c, 0, 84, 0
2, 22320, Note_on_c, 0, 75, 52
2, 22560, Note_on_c, 0, 75, 0
2, 22800, Note_on_c, 0, 74, 51
2, 23040, Note_on_c, 0, 74, 0
2, 23280, Note_on_c, 0, 82, 50
2, 23520, Note_on_c, 0, 82, 0
2, 23520, Note_on_c, 0, 79, 52
2, 23760, Note_on_c, 0, 79, 0
2, 23760, Note_on_c, 0, 76, 50
2, 24000, Note_on_c, 0, 76, 0
2, 24000, Note_on_c, 0, 77, 60
2, 24240, Note_on_c, 0, 77, 0
2, 24240, Note_on_c, 0, 81, 53
2, 24480, Note_on_c, 0, 81, 0
2, 24480, Note_on_c, 0, 84, 58
2, 24600, Note_on_c, 0, 84, 0
2, 24720, Note_on_c, 0, 84, 51
2, 24840, Note_on_c, 0, 84, 0
2, 25200, Note_on_c, 0, 84, 54
2, 25320, Note_on_c, 0, 82, 48
2, 25332, Note_on_c, 0, 84, 0
2, 25440, Note_on_c, 0, 81, 48
2, 25452, Note_on_c, 0, 82, 0
2, 25560, Note_on_c, 0, 79, 48
2, 25572, Note_on_c, 0, 81, 0
2, 25680, Note_on_c, 0, 77, 48
2, 25692, Note_on_c, 0, 79, 0
2, 25800, Note_on_c, 0, 76, 48
2, 25812, Note_on_c, 0, 77, 0
2, 25920, Note_on_c, 0, 77, 55
2, 25932, Note_on_c, 0, 76, 0
2, 26040, Note_on_c, 0, 77, 0
2, 26040, Note_on_c, 0, 72, 45
2, 26160, Note_on_c, 0, 72, 0
2, 26160, Note_on_c, 0, 77, 53
2, 26280, Note_on_c, 0, 77, 0
2, 26280, Note_on_c, 0, 81, 48
2, 26400, Note_on_c, 0, 81, 0
2, 26400, Note_on_c, 0, 84, 59
2, 26520, Note_on_c, 0, 84, 0
2, 26640, Note_on_c, 0, 84, 52
2, 26760, Note_on_c, 0, 84, 0
2, 27000, Note_on_c, 0, 81, 48
2, 27120, Note_on_c, 0, 81, 0
2, 27120, Note_on_c, 0, 84, 54
2, 27240, Note_on_c, 0, 82, 48
2, 27252, Note_on_c, 0, 84, 0
2, 27360, Note_on_c, 0, 81, 48
2, 27372, Note_on_c, 0, 82, 0
2, 27480, Note_on_c, 0, 79, 48
2, 27492, Note_on_c, 0, 81, 0
2, 27600, Note_on_c, 0, 77, 48
2, 27612, Note_on_c, 0, 79, 0
2, 27720, Note_on_c, 0, 76, 48
2, 27732, Note_on_c, 0, 77, 0
2, 27840, Note_on_c, 0, 77, 51
2, 27852, Note_on_c, 0, 76, 0
2, 27960, Note_on_c, 0, 77, 0
2, 27960, Note_on_c, 0, 78, 42
2, 28080, Note_on_c, 0, 78, 0
2, 28080, Note_on_c, 0, 81, 49
2, 28200, Note_on_c, 0, 81, 0
2, 28200, Note_on_c, 0, 79, 48
2, 28320, Note_on_c, 0, 79, 0
2, 28320, Note_on_c, 0, 77, 46
2, 28440, Note_on_c, 0, 77, 0
2, 28440, Note_on_c, 0, 75, 45
2, 28560, Note_on_c, 0, 75, 0
2, 28560, Note_on_c, 0, 74, 43
2, 28680, Note_on_c, 0, 74, 0
2, 28680, Note_on_c, 0, 73, 42
2, 28800, Note_on_c, 0, 73, 0
2, 28800, Note_on_c, 0, 74, 46
2, 29040, Note_on_c, 0, 74, 0
2, 29280, Note_on_c, 0, 75, 49
2, 29520, Note_on_c, 0, 75, 0
2, 29760, Note_on_c, 0, 76, 50
2, 30240, Note_on_c, 0, 76, 0
2, 30240, Note_on_c, 0, 77, 50
2, 30480, Note_on_c, 0, 77, 0
2, 30480, Note_on_c, 0, 74, 47
2, 30600, Note_on_c, 0, 74, 0
2, 30660, Note_on_c, 0, 74, 47
2, 30720, Note_on_c, 0, 74, 0
2, 30720, Note_on_c, 0, 72, 52
2, 30840, Note_on_c, 0, 72, 0
2, 30960, Note_on_c, 0, 71, 50
2, 31080, Note_on_c, 0, 71, 0
2, 31200, Note_on_c, 0, 72, 52
2, 31320, Note_on_c, 0, 72, 0
2, 31440, Note_on_c, 0, 74, 50
2, 31560, Note_on_c, 0, 74, 0
2, 31680, Note_on_c, 0, 77, 54
2, 32160, Note_on_c, 0, 77, 0
2, 32160, Note_on_c, 0, 75, 46
2, 32400, Note_on_c, 0, 75, 0
2, 32400, Note_on_c, 0, 69, 46
2, 32520, Note_on_c, 0, 69, 0
2, 32640, Note_on_c, 0, 70, 52
2, 32760, Note_on_c, 0, 70, 0
2, 32880, Note_on_c, 0, 70, 48
2, 33360, Note_on_c, 0, 70, 0
2, 33360, Note_on_c, 0, 71, 47
2, 33600, Note_on_c, 0, 71, 0
2, 33600, Note_on_c, 0, 72, 51
2, 33720, Note_on_c, 0, 72, 0
2, 33840, Note_on_c, 0, 72, 50
2, 34320, Note_on_c, 0, 72, 0
2, 34320, Note_on_c, 0, 73, 50
2, 34560, Note_on_c, 0, 73, 0
2, 34560, Note_on_c, 0, 74, 54
2, 34680, Note_on_c, 0, 74, 0
2, 34800, Note_on_c, 0, 72, 50
2, 34920, Note_on_c, 0, 72, 0
2, 35040, Note_on_c, 0, 74, 55
2, 35160, Note_on_c, 0, 74, 0
2, 35280, Note_on_c, 0, 72, 50
2, 35280, Note_on_c, 0, 75, 50
2, 35400, Note_on_c, 0, 75, 0
2, 35400, Note_on_c, 0, 72, 0
2, 35520, Note_on_c, 0, 70, 55
2, 35520, Note_on_c, 0, 74, 55
2, 36000, Note_on_c, 0, 74, 0
2, 36000, Note_on_c, 0, 70, 0
2, 36000, Note_on_c, 0, 69, 50
2, 36000, Note_on_c, 0, 72, 50
2, 36180, Note_on_c, 0, 72, 0
2, 36180, Note_on_c, 0, 69, 0
2, 36240, Note_on_c, 0, 70, 47
2, 36360, Note_on_c, 0, 70, 0
2, 36360, Note_on_c, 0, 72, 47
2, 36480, Note_on_c, 0, 72, 0
2, 36480, Note_on_c, 0, 74, 50
2, 36720, Note_on_c, 0, 74, 0
2, 36960, Note_on_c, 0, 75, 51
2, 37200, Note_on_c, 0, 75, 0
2, 37440, Note_on_c, 0, 76, 52
2, 37920, Note_on_c, 0, 76, 0
2, 37920, Note_on_c, 0, 77, 52
2, 38160, Note_on_c, 0, 77, 0
2, 38160, Note_on_c, 0, 74, 51
2, 38280, Note_on_c, 0, 74, 0
2, 38340, Note_on_c, 0, 74, 52
2, 38400, Note_on_c, 0, 74, 0
2, 38400, Note_on_c, 0, 72, 54
2, 38520, Note_on_c, 0, 72, 0
2, 38640, Note_on_c, 0, 71, 50
2, 38760, Note_on_c, 0, 71, 0
2, 38880, Note_on_c, 0, 72, 52
2, 39000, Note_on_c, 0, 72, 0
2, 39120, Note_on_c, 0, 74, 50
2, 39240, Note_on_c, 0, 74, 0
2, 39360, Note_on_c, 0, 77, 54
2, 39840, Note_on_c, 0, 77, 0
2, 39840, Note_on_c, 0, 75, 46
2, 40080, Note_on_c, 0, 75, 0
2, 40080, Note_on_c, 0, 69, 46
2, 40200, Note_on_c, 0, 69, 0
2, 40320, Note_on_c, 0, 70, 56
2, 40440, Note_on_c, 0, 70, 0
2, 40560, Note_on_c, 0, 82, 50
2, 40800, Note_on_c, 0, 82, 0
2, 40800, Note_on_c, 0, 82, 53
2, 40920, Note_on_c, 0, 82, 0
2, 41040, Note_on_c, 0, 82, 48
2, 41160, Note_on_c, 0, 82, 0
2, 41280, Note_on_c, 0, 72, 56
2, 41400, Note_on_c, 0, 72, 0
2, 41520, Note_on_c, 0, 79, 50
2, 41760, Note_on_c, 0, 79, 0
2, 41760, Note_on_c, 0, 79, 53
2, 41880, Note_on_c, 0, 79, 0
2, 42000, Note_on_c, 0, 79, 50
2, 42120, Note_on_c, 0, 79, 0
2, 42240, Note_on_c, 0, 70, 54
2, 42360, Note_on_c, 0, 70, 0
2, 42480, Note_on_c, 0, 70, 50
2, 42600, Note_on_c, 0, 70, 0
2, 42720, Note_on_c, 0, 72, 50
2, 42780, Note_on_c, 0, 72, 0
2, 42780, Note_on_c, 0, 74, 45
2, 42840, Note_on_c, 0, 74, 0
2, 42840, Note_on_c, 0, 72, 45
2, 42900, Note_on_c, 0, 72, 0
2, 42900, Note_on_c, 0, 70, 45
2, 42960, Note_on_c, 0, 70, 0
2, 42960, Note_on_c, 0, 72, 50
2, 43080, Note_on_c, 0, 72, 0
2, 43080, Note_on_c, 0, 74, 45
2, 43200, Note_on_c, 0, 74, 0
2, 43200, Note_on_c, 0, 70, 55
2, 43680, Note_on_c, 0, 70, 0
2, 43920, Note_on_c, 0, 65, 60
2, 44040, Note_on_c, 0, 65, 0
2, 44160, Note_on_c, 0, 65, 55
2, 44160, Note_on_c, 0, 74, 66
2, 44280, Note_on_c, 0, 74, 0
2, 44280, Note_on_c, 0, 65, 0
2, 44400, Note_on_c, 0, 65, 54
2, 44400, Note_on_c, 0, 74, 64
2, 44880, Note_on_c, 0, 74, 0
2, 44880, Note_on_c, 0, 65, 0
2, 44880, Note_on_c, 0, 62, 49
2, 44880, Note_on_c, 0, 70, 59
2, 45060, Note_on_c, 0, 70, 0
2, 45060, Note_on_c, 0, 62, 0
2, 45120, Note_on_c, 0, 67, 55
2, 45120, Note_on_c, 0, 75, 66
2, 45240, Note_on_c, 0, 75, 0
2, 45240, Note_on_c, 0, 67, 0
2, 45360, Note_on_c, 0, 67, 54
2, 45360, Note_on_c, 0, 75, 64
2, 45840, Note_on_c, 0, 75, 0
2, 45840, Note_on_c, 0, 67, 0
2, 45840, Note_on_c, 0, 63, 49
2, 45840, Note_on_c, 0, 72, 59
2, 46020, Note_on_c, 0, 72, 0
2, 46020, Note_on_c, 0, 63, 0
2, 46080, Note_on_c, 0, 67, 63
2, 46320, Note_on_c, 0, 67, 0
2, 46320, Note_on_c, 0, 70, 59
2, 46560, Note_on_c, 0, 70, 0
2, 46560, Note_on_c, 0, 69, 65
2, 46800, Note_on_c, 0, 69, 0
2, 46800, Note_on_c, 0, 72, 59
2, 47040, Note_on_c, 0, 72, 0
2, 47040, Note_on_c, 0, 70, 63
2, 47160, Note_on_c, 0, 70, 0
2, 47160, Note_on_c, 0, 69, 59
2, 47280, Note_on_c, 0, 69, 0
2, 47280, Note_on_c, 0, 70, 57
2, 47400, Note_on_c, 0, 70, 0
2, 47400, Note_on_c, 0, 72, 57
2, 47520, Note_on_c, 0, 72, 0
2, 47520, Note_on_c, 0, 70, 64
2, 47640, Note_on_c, 0, 70, 0
2, 47760, Note_on_c, 0, 70, 59
2, 47880, Note_on_c, 0, 70, 0
2, 48000, Note_on_c, 0, 74, 55
2, 48000, Note_on_c, 0, 77, 66
2, 48120, Note_on_c, 0, 77, 0
2, 48120, Note_on_c, 0, 74, 0
2, 48240, Note_on_c, 0, 74, 54
2, 48240, Note_on_c, 0, 77, 64
2, 48720, Note_on_c, 0, 77, 0
2, 48720, Note_on_c, 0, 74, 0
2, 48720, Note_on_c, 0, 70, 49
2, 48720, Note_on_c, 0, 74, 59
2, 48900, Note_on_c, 0, 74, 0
2, 48900, Note_on_c, 0, 70, 0
2, 48960, Note_on_c, 0, 75, 55
2, 48960, Note_on_c, 0, 79, 66
2, 49080, Note_on_c, 0, 79, 0
2, 49080, Note_on_c, 0, 75, 0
2, 49200, Note_on_c, 0, 75, 54
2, 49200, Note_on_c, 0, 79, 64
2, 49680, Note_on_c, 0, 79, 0
2, 49680, Note_on_c, 0, 75, 0
2, 49680, Note_on_c, 0, 72, 49
2, 49680, Note_on_c, 0, 75, 59
2, 49860, Note_on_c, 0, 75, 0
2, 49860, Note_on_c, 0, 72, 0
2, 49920, Note_on_c, 0, 70, 63
2, 50160, Note_on_c, 0, 70, 0
2, 50160, Note_on_c, 0, 74, 59
2, 50400, Note_on_c, 0, 74, 0
2, 50400, Note_on_c, 0, 72, 63
2, 50640, Note_on_c, 0, 72, 0
2, 50640, Note_on_c, 0, 75, 59
2, 50880, Note_on_c, 0, 75, 0
2, 50880, Note_on_c, 0, 74, 63
2, 51000, Note_on_c, 0, 74, 0
2, 51000, Note_on_c, 0, 72, 59
2, 51120, Note_on_c, 0, 72, 0
2, 51120, Note_on_c, 0, 74, 59
2, 51240, Note_on_c, 0, 74, 0
2, 51240, Note_on_c, 0, 75, 59
2, 51360, Note_on_c, 0, 75, 0
2, 51360, Note_on_c, 0, 74, 66
2, 51480, Note_on_c, 0, 74, 0
2, 51600, Note_on_c, 0, 74, 46
2, 51720, Note_on_c, 0, 74, 0
2, 51840, Note_on_c, 0, 86, 53
2, 51960, Note_on_c, 0, 86, 0
2, 52080, Note_on_c, 0, 86, 46
2, 52320, Note_on_c, 0, 86, 0
2, 52320, Note_on_c, 0, 82, 50
2, 52560, Note_on_c, 0, 82, 0
2, 52560, Note_on_c, 0, 79, 46
2, 52800, Note_on_c, 0, 79, 0
2, 52800, Note_on_c, 0, 78, 51
2, 53280, Note_on_c, 0, 78, 0
2, 53280, Note_on_c, 0, 79, 46
2, 53520, Note_on_c, 0, 79, 0
2, 53520, Note_on_c, 0, 86, 50
2, 53640, Note_on_c, 0, 86, 0
2, 53760, Note_on_c, 0, 83, 51
2, 53880, Note_on_c, 0, 84, 46
2, 53892, Note_on_c, 0, 83, 0
2, 54000, Note_on_c, 0, 86, 46
2, 54012, Note_on_c, 0, 84, 0
2, 54120, Note_on_c, 0, 84, 48
2, 54132, Note_on_c, 0, 86, 0
2, 54240, Note_on_c, 0, 82, 47
2, 54252, Note_on_c, 0, 84, 0
2, 54360, Note_on_c, 0, 81, 45
2, 54372, Note_on_c, 0, 82, 0
2, 54480, Note_on_c, 0, 79, 44
2, 54492, Note_on_c, 0, 81, 0
2, 54600, Note_on_c, 0, 77, 42
2, 54612, Note_on_c, 0, 79, 0
2, 54720, Note_on_c, 0, 76, 49
2, 54732, Note_on_c, 0, 77, 0
2, 55200, Note_on_c, 0, 76, 0
2, 55200, Note_on_c, 0, 77, 46
2, 55440, Note_on_c, 0, 77, 0
2, 55440, Note_on_c, 0, 84, 49
2, 55560, Note_on_c, 0, 84, 0
2, 55680, Note_on_c, 0, 89, 55
2, 55800, Note_on_c, 0, 88, 54
2, 55812, Note_on_c, 0, 89, 0
2, 55920, Note_on_c, 0, 86, 53
2, 55932, Note_on_c, 0, 88, 0
2, 56040, Note_on_c, 0, 84, 52
2, 56052, Note_on_c, 0, 86, 0
2, 56160, Note_on_c, 0, 82, 51
2, 56172, Note_on_c, 0, 84, 0
2, 56280, Note_on_c, 0, 81, 50
2, 56305, Note_on_c, 0, 82, 0
2, 56400, Note_on_c, 0, 79, 49
2, 56425, Note_on_c, 0, 81, 0
2, 56520, Note_on_c, 0, 77, 48
2, 56545, Note_on_c, 0, 79, 0
2, 56640, Note_on_c, 0, 77, 0
2, 56640, Note_on_c, 0, 86, 53
2, 56760, Note_on_c, 0, 84, 52
2, 56772, Note_on_c, 0, 86, 0
2, 56880, Note_on_c, 0, 82, 50
2, 56892, Note_on_c, 0, 84, 0
2, 57000, Note_on_c, 0, 81, 49
2, 57012, Note_on_c, 0, 82, 0
2, 57120, Note_on_c, 0, 79, 48
2, 57132, Note_on_c, 0, 81, 0
2, 57240, Note_on_c, 0, 77, 47
2, 57265, Note_on_c, 0, 79, 0
2, 57360, Note_on_c, 0, 76, 45
2, 57385, Note_on_c, 0, 77, 0
2, 57480, Note_on_c, 0, 74, 44
2, 57505, Note_on_c, 0, 76, 0
2, 57600, Note_on_c, 0, 74, 0
2, 57600, Note_on_c, 0, 72, 50
2, 57720, Note_on_c, 0, 72, 0
2, 57720, Note_on_c, 0, 77, 46
2, 57840, Note_on_c, 0, 77, 0
2, 57840, Note_on_c, 0, 81, 46
2, 57960, Note_on_c, 0, 81, 0
2, 57960, Note_on_c, 0, 84, 46
2, 58050, Note_on_c, 0, 84, 0
2, 58080, Note_on_c, 0, 84, 50
2, 58200, Note_on_c, 0, 82, 44
2, 58212, Note_on_c, 0, 84, 0
2, 58320, Note_on_c, 0, 81, 44
2, 58332, Note_on_c, 0, 82, 0
2, 58440, Note_on_c, 0, 79, 44
2, 58452, Note_on_c, 0, 81, 0
2, 58530, Note_on_c, 0, 79, 0
2, 58560, Note_on_c, 0, 79, 47
2, 59040, Note_on_c, 0, 79, 0
2, 59040, Note_on_c, 0, 77, 40
2, 59220, Note_on_c, 0, 77, 0
2, 59280, Note_on_c, 0, 65, 60
2, 59400, Note_on_c, 0, 65, 0
2, 59520, Note_on_c, 0, 65, 55
2, 59520, Note_on_c, 0, 74, 66
2, 59640, Note_on_c, 0, 74, 0
2, 59640, Note_on_c, 0, 65, 0
2, 59760, Note_on_c, 0, 65, 54
2, 59760, Note_on_c, 0, 74, 64
2, 60240, Note_on_c, 0, 74, 0
2, 60240, Note_on_c, 0, 65, 0
2, 60240, Note_on_c, 0, 62, 49
2, 60240, Note_on_c, 0, 70, 59
2, 60420, Note_on_c, 0, 70, 0
2, 60420, Note_on_c, 0, 62, 0
2, 60480, Note_on_c, 0, 67, 55
2, 60480, Note_on_c, 0, 75, 66
2, 60600, Note_on_c, 0, 75, 0
2, 60600, Note_on_c, 0, 67, 0
2, 60720, Note_on_c, 0, 67, 54
2, 60720, Note_on_c, 0, 75, 64
2, 61200, Note_on_c, 0, 75, 0
2, 61200, Note_on_c, 0, 67, 0
2, 61200, Note_on_c, 0, 63, 49
2, 61200, Note_on_c, 0, 72, 59
2, 61380, Note_on_c, 0, 72, 0
2, 61380, Note_on_c, 0, 63, 0
2, 61440, Note_on_c, 0, 67, 63
2, 61680, Note_on_c, 0, 67, 0
2, 61680, Note_on_c, 0, 70, 59
2, 61920, Note_on_c, 0, 70, 0
2, 61920, Note_on_c, 0, 69, 65
2, 62160, Note_on_c, 0, 69, 0
2, 62160, Note_on_c, 0, 72, 59
2, 62400, Note_on_c, 0, 72, 0
2, 62400, Note_on_c, 0, 70, 63
2, 62520, Note_on_c, 0, 70, 0
2, 62520, Note_on_c, 0, 69, 59
2, 62640, Note_on_c, 0, 69, 0
2, 62640, Note_on_c, 0, 70, 57
2, 62760, Note_on_c, 0, 70, 0
2, 62760, Note_on_c, 0, 72, 57
2, 62880, Note_on_c, 0, 72, 0
2, 62880, Note_on_c, 0, 70, 64
2, 63000, Note_on_c, 0, 70, 0
2, 63120, Note_on_c, 0, 70, 59
2, 63240, Note_on_c, 0, 70, 0
2, 63360, Note_on_c, 0, 74, 55
2, 63360, Note_on_c, 0, 77, 66
2, 63480, Note_on_c, 0, 77, 0
2, 63480, Note_on_c, 0, 74, 0
2, 63600, Note_on_c, 0, 74, 54
2, 63600, Note_on_c, 0, 77, 64
2, 64080, Note_on_c, 0, 77, 0
2, 64080, Note_on_c, 0, 74, 0
2, 64080, Note_on_c, 0, 70, 49
2, 64080, Note_on_c, 0, 74, 59
2, 64260, Note_on_c, 0, 74, 0
2, 64260, Note_on_c, 0, 70, 0
2, 64320, Note_on_c, 0, 75, 55
2, 64320, Note_on_c, 0, 79, 66
2, 64440, Note_on_c, 0, 79, 0
2, 64440, Note_on_c, 0, 75, 0
2, 64560, Note_on_c, 0, 75, 54
2, 64560, Note_on_c, 0, 79, 64
2, 65040, Note_on_c, 0, 79, 0
2, 65040, Note_on_c, 0, 75, 0
2, 65040, Note_on_c, 0, 72, 49
2, 65040, Note_on_c, 0, 75, 59
2, 65220, Note_on_c, 0, 75, 0
2, 65220, Note_on_c, 0, 72, 0
2, 65280, Note_on_c, 0, 70, 63
2, 65520, Note_on_c, 0, 70, 0
2, 65520, Note_on_c, 0, 74, 59
2, 65760, Note_on_c, 0, 74, 0
2, 65760, Note_on_c, 0, 72, 63
2, 66000, Note_on_c, 0, 72, 0
2, 66000, Note_on_c, 0, 75, 59
2, 66240, Note_on_c, 0, 75, 0
2, 66240, Note_on_c, 0, 74, 63
2, 66360, Note_on_c, 0, 74, 0
2, 66360, Note_on_c, 0, 72, 59
2, 66480, Note_on_c, 0, 72, 0
2, 66480, Note_on_c, 0, 74, 59
2, 66600, Note_on_c, 0, 74, 0
2, 66600, Note_on_c, 0, 75, 59
2, 66720, Note_on_c, 0, 75, 0
2, 66720, Note_on_c, 0, 74, 66
2, 66840, Note_on_c, 0, 74, 0
2, 66960, Note_on_c, 0, 74, 46
2, 67080, Note_on_c, 0, 74, 0
2, 67200, Note_on_c, 0, 86, 53
2, 67320, Note_on_c, 0, 86, 0
2, 67440, Note_on_c, 0, 86, 46
2, 67680, Note_on_c, 0, 86, 0
2, 67680, Note_on_c, 0, 82, 50
2, 67920, Note_on_c, 0, 82, 0
2, 67920, Note_on_c, 0, 79, 46
2, 68160, Note_on_c, 0, 79, 0
2, 68160, Note_on_c, 0, 78, 51
2, 68640, Note_on_c, 0, 78, 0
2, 68640, Note_on_c, 0, 79, 46
2, 68880, Note_on_c, 0, 79, 0
2, 68880, Note_on_c, 0, 86, 50
2, 69000, Note_on_c, 0, 86, 0
2, 69120, Note_on_c, 0, 83, 51
2, 69240, Note_on_c, 0, 84, 46
2, 69252, Note_on_c, 0, 83, 0
2, 69360, Note_on_c, 0, 86, 46
2, 69372, Note_on_c, 0, 84, 0
2, 69480, Note_on_c, 0, 84, 48
2, 69492, Note_on_c, 0, 86, 0
2, 69600, Note_on_c, 0, 82, 47
2, 69612, Note_on_c, 0, 84, 0
2, 69720, Note_on_c, 0, 81, 45
2, 69732, Note_on_c, 0, 82, 0
2, 69840, Note_on_c, 0, 79, 44
2, 69852, Note_on_c, 0, 81, 0
2, 69960, Note_on_c, 0, 77, 42
2, 69972, Note_on_c, 0, 79, 0
2, 70080, Note_on_c, 0, 76, 49
2, 70092, Note_on_c, 0, 77, 0
2, 70560, Note_on_c, 0, 76, 0
2, 70560, Note_on_c, 0, 77, 46
2, 70800, Note_on_c, 0, 77, 0
2, 70800, Note_on_c, 0, 84, 49
2, 70920, Note_on_c, 0, 84, 0
2, 71040, Note_on_c, 0, 89, 55
2, 71160, Note_on_c, 0, 88, 54
2, 71172, Note_on_c, 0, 89, 0
2, 71280, Note_on_c, 0, 86, 53
2, 71292, Note_on_c, 0, 88, 0
2, 71400, Note_on_c, 0, 84, 52
2, 71412, Note_on_c, 0, 86, 0
2, 71520, Note_on_c, 0, 82, 51
2, 71532, Note_on_c, 0, 84, 0
2, 71640, Note_on_c, 0, 81, 50
2, 71665, Note_on_c, 0, 82, 0
2, 71760, Note_on_c, 0, 79, 49
2, 71785, Note_on_c, 0, 81, 0
2, 71880, Note_on_c, 0, 77, 48
2, 71905, Note_on_c, 0, 79, 0
2, 72000, Note_on_c, 0, 77, 0
2, 72000, Note_on_c, 0, 86, 53
2, 72120, Note_on_c, 0, 84, 52
2, 72132, Note_on_c, 0, 86, 0
2, 72240, Note_on_c, 0, 82, 50
2, 72252, Note_on_c, 0, 84, 0
2, 72360, Note_on_c, 0, 81, 49
2, 72372, Note_on_c, 0, 82, 0
2, 72480, Note_on_c, 0, 79, 48
2, 72492, Note_on_c, 0, 81, 0
2, 72600, Note_on_c, 0, 77, 47
2, 72625, Note_on_c, 0, 79, 0
2, 72720, Note_on_c, 0, 76, 45
2, 72745, Note_on_c, 0, 77, 0
2, 72840, Note_on_c, 0, 74, 44
2, 72865, Note_on_c, 0, 76, 0
2, 72960, Note_on_c, 0, 74, 0
2, 72960, Note_on_c, 0, 72, 50
2, 73080, Note_on_c, 0, 72, 0
2, 73080, Note_on_c, 0, 77, 46
2, 73200, Note_on_c, 0, 77, 0
2, 73200, Note_on_c, 0, 81, 46
2, 73320, Note_on_c, 0, 81, 0
2, 73320, Note_on_c, 0, 84, 46
2, 73410, Note_on_c, 0, 84, 0
2, 73440, Note_on_c, 0, 84, 50
2, 73560, Note_on_c, 0, 82, 44
2, 73572, Note_on_c, 0, 84, 0
2, 73680, Note_on_c, 0, 81, 44
2, 73692, Note_on_c, 0, 82, 0
2, 73800, Note_on_c, 0, 79, 44
2, 73812, Note_on_c, 0, 81, 0
2, 73890, Note_on_c, 0, 79, 0
2, 73920, Note_on_c, 0, 79, 47
2, 74400, Note_on_c, 0, 79, 0
2, 74400, Note_on_c, 0, 77, 40
2, 74580, Note_on_c, 0, 77, 0
2, 74640, Note_on_c, 0, 65, 60
2, 74760, Note_on_c, 0, 65, 0
2, 74880, Note_on_c, 0, 74, 55
2, 74880, Note_on_c, 0, 77, 66
2, 75000, Note_on_c, 0, 77, 0
2, 75000, Note_on_c, 0, 74, 0
2, 75120, Note_on_c, 0, 74, 54
2, 75120, Note_on_c, 0, 77, 64
2, 75600, Note_on_c, 0, 77, 0
2, 75600, Note_on_c, 0, 74, 0
2, 75600, Note_on_c, 0, 77, 49
2, 75600, Note_on_c, 0, 80, 59
2, 75780, Note_on_c, 0, 80, 0
2, 75780, Note_on_c, 0, 77, 0
2, 75840, Note_on_c, 0, 71, 55
2, 75840, Note_on_c, 0, 74, 66
2, 75960, Note_on_c, 0, 74, 0
2, 75960, Note_on_c, 0, 71, 0
2, 76080, Note_on_c, 0, 71, 54
2, 76080, Note_on_c, 0, 74, 64
2, 76560, Note_on_c, 0, 74, 0
2, 76560, Note_on_c, 0, 71, 0
2, 76560, Note_on_c, 0, 74, 49
2, 76560, Note_on_c, 0, 77, 59
2, 76740, Note_on_c, 0, 77, 0
2, 76740, Note_on_c, 0, 74, 0
2, 76800, Note_on_c, 0, 72, 55
2, 76800, Note_on_c, 0, 75, 66
2, 76920, Note_on_c, 0, 75, 0
2, 76920, Note_on_c, 0, 72, 0
2, 77040, Note_on_c, 0, 72, 54
2, 77040, Note_on_c, 0, 75, 64
2, 77520, Note_on_c, 0, 75, 0
2, 77520, Note_on_c, 0, 72, 0
2, 77520, Note_on_c, 0, 75, 49
2, 77520, Note_on_c, 0, 79, 59
2, 77700, Note_on_c, 0, 79, 0
2, 77700, Note_on_c, 0, 75, 0
2, 77760, Note_on_c, 0, 69, 55
2, 77760, Note_on_c, 0, 72, 66
2, 77880, Note_on_c, 0, 72, 0
2, 77880, Note_on_c, 0, 69, 0
2, 78000, Note_on_c, 0, 69, 54
2, 78000, Note_on_c, 0, 72, 64
2, 78480, Note_on_c, 0, 72, 0
2, 78480, Note_on_c, 0, 69, 0
2, 78480, Note_on_c, 0, 72, 49
2, 78480, Note_on_c, 0, 75, 59
2, 78660, Note_on_c, 0, 75, 0
2, 78660, Note_on_c, 0, 72, 0
2, 78720, Note_on_c, 0, 75, 54
2, 78840, Note_on_c, 0, 73, 49
2, 78852, Note_on_c, 0, 75, 0
2, 78960, Note_on_c, 0, 72, 49
2, 78972, Note_on_c, 0, 73, 0
2, 79080, Note_on_c, 0, 70, 51
2, 79092, Note_on_c, 0, 72, 0
2, 79200, Note_on_c, 0, 69, 50
2, 79212, Note_on_c, 0, 70, 0
2, 79320, Note_on_c, 0, 70, 48
2, 79332, Note_on_c, 0, 69, 0
2, 79440, Note_on_c, 0, 72, 46
2, 79452, Note_on_c, 0, 70, 0
2, 79560, Note_on_c, 0, 70, 45
2, 79572, Note_on_c, 0, 72, 0
2, 79680, Note_on_c, 0, 70, 0
2, 79680, Note_on_c, 0, 75, 54
2, 79800, Note_on_c, 0, 73, 49
2, 79812, Note_on_c, 0, 75, 0
2, 79920, Note_on_c, 0, 72, 49
2, 79932, Note_on_c, 0, 73, 0
2, 80040, Note_on_c, 0, 70, 51
2, 80052, Note_on_c, 0, 72, 0
2, 80160, Note_on_c, 0, 69, 50
2, 80172, Note_on_c, 0, 70, 0
2, 80280, Note_on_c, 0, 70, 48
2, 80292, Note_on_c, 0, 69, 0
2, 80400, Note_on_c, 0, 72, 46
2, 80412, Note_on_c, 0, 70, 0
2, 80520, Note_on_c, 0, 70, 45
2, 80532, Note_on_c, 0, 72, 0
2, 80640, Note_on_c, 0, 70, 0
2, 80640, Note_on_c, 0, 82, 66
2, 80760, Note_on_c, 0, 82, 0
2, 80880, Note_on_c, 0, 82, 57
2, 81360, Note_on_c, 0, 82, 0
2, 81360, Note_on_c, 0, 70, 38
2, 81360, Note_on_c, 0, 76, 45
2, 81600, Note_on_c, 0, 76, 0
2, 81600, Note_on_c, 0, 70, 0
2, 81600, Note_on_c, 0, 70, 43
2, 81600, Note_on_c, 0, 79, 51
2, 82080, Note_on_c, 0, 79, 0
2, 82080, Note_on_c, 0, 70, 0
2, 82080, Note_on_c, 0, 69, 39
2, 82080, Note_on_c, 0, 77, 46
2, 82260, Note_on_c, 0, 77, 0
2, 82260, Note_on_c, 0, 69, 0
2, 82320, Note_on_c, 0, 65, 60
2, 82440, Note_on_c, 0, 65, 0
2, 82560, Note_on_c, 0, 65, 55
2, 82560, Note_on_c, 0, 74, 66
2, 82680, Note_on_c, 0, 74, 0
2, 82680, Note_on_c, 0, 65, 0
2, 82800, Note_on_c, 0, 65, 54
2, 82800, Note_on_c, 0, 74, 64
2, 83280, Note_on_c, 0, 74, 0
2, 83280, Note_on_c, 0, 65, 0
2, 83280, Note_on_c, 0, 62, 49
2, 83280, Note_on_c, 0, 70, 59
2, 83460, Note_on_c, 0, 70, 0
2, 83460, Note_on_c, 0, 62, 0
2, 83520, Note_on_c, 0, 67, 55
2, 83520, Note_on_c, 0, 75, 66
2, 83640, Note_on_c, 0, 75, 0
2, 83640, Note_on_c, 0, 67, 0
2, 83760, Note_on_c, 0, 67, 54
2, 83760, Note_on_c, 0, 75, 64
2, 84240, Note_on_c, 0, 75, 0
2, 84240, Note_on_c, 0, 67, 0
2, 84240, Note_on_c, 0, 63, 49
2, 84240, Note_on_c, 0, 72, 59
2, 84420, Note_on_c, 0, 72, 0
2, 84420, Note_on_c, 0, 63, 0
2, 84480, Note_on_c, 0, 67, 65
2, 84720, Note_on_c, 0, 67, 0
2, 84720, Note_on_c, 0, 70, 59
2, 84960, Note_on_c, 0, 70, 0
2, 84960, Note_on_c, 0, 69, 65
2, 85200, Note_on_c, 0, 69, 0
2, 85200, Note_on_c, 0, 72, 59
2, 85440, Note_on_c, 0, 72, 0
2, 85440, Note_on_c, 0, 70, 63
2, 85560, Note_on_c, 0, 70, 0
2, 85560, Note_on_c, 0, 69, 56
2, 85680, Note_on_c, 0, 69, 0
2, 85680, Note_on_c, 0, 70, 56
2, 85800, Note_on_c, 0, 70, 0
2, 85800, Note_on_c, 0, 72, 56
2, 85920, Note_on_c, 0, 72, 0
2, 85920, Note_on_c, 0, 70, 62
2, 86040, Note_on_c, 0, 70, 0
2, 86160, Note_on_c, 0, 70, 59
2, 86280, Note_on_c, 0, 70, 0
2, 86400, Note_on_c, 0, 74, 55
2, 86400, Note_on_c, 0, 77, 66
2, 86520, Note_on_c, 0, 77, 0
2, 86520, Note_on_c, 0, 74, 0
2, 86640, Note_on_c, 0, 74, 54
2, 86640, Note_on_c, 0, 77, 64
2, 87120, Note_on_c, 0, 77, 0
2, 87120, Note_on_c, 0, 74, 0
2, 87120, Note_on_c, 0, 70, 49
2, 87120, Note_on_c, 0, 74, 59
2, 87300, Note_on_c, 0, 74, 0
2, 87300, Note_on_c, 0, 70, 0
2, 87360, Note_on_c, 0, 75, 55
2, 87360, Note_on_c, 0, 79, 66
2, 87480, Note_on_c, 0, 79, 0
2, 87480, Note_on_c, 0, 75, 0
2, 87600, Note_on_c, 0, 75, 54
2, 87600, Note_on_c, 0, 79, 64
2, 88080, Note_on_c, 0, 79, 0
2, 88080, Note_on_c, 0, 75, 0
2, 88080, Note_on_c, 0, 72, 49
2, 88080, Note_on_c, 0, 75, 59
2, 88260, Note_on_c, 0, 75, 0
2, 88260, Note_on_c, 0, 72, 0
2, 88320, Note_on_c, 0, 70, 65
2, 88560, Note_on_c, 0, 70, 0
2, 88560, Note_on_c, 0, 74, 59
2, 88800, Note_on_c, 0, 74, 0
2, 88800, Note_on_c, 0, 72, 65
2, 89040, Note_on_c, 0, 72, 0
2, 89040, Note_on_c, 0, 75, 59
2, 89280, Note_on_c, 0, 75, 0
2, 89280, Note_on_c, 0, 74, 63
2, 89400, Note_on_c, 0, 74, 0
2, 89400, Note_on_c, 0, 72, 59
2, 89520, Note_on_c, 0, 72, 0
2, 89520, Note_on_c, 0, 74, 59
2, 89640, Note_on_c, 0, 74, 0
2, 89640, Note_on_c, 0, 75, 59
2, 89760, Note_on_c, 0, 75, 0
2, 89760, Note_on_c, 0, 74, 66
2, 89880, Note_on_c, 0, 74, 0
2, 90000, Note_on_c, 0, 70, 46
2, 90120, Note_on_c, 0, 70, 0
2, 90240, Note_on_c, 0, 79, 53
2, 90360, Note_on_c, 0, 79, 0
2, 90480, Note_on_c, 0, 79, 46
2, 90720, Note_on_c, 0, 79, 0
2, 90720, Note_on_c, 0, 75, 50
2, 90960, Note_on_c, 0, 75, 0
2, 90960, Note_on_c, 0, 72, 46
2, 91200, Note_on_c, 0, 72, 0
2, 91200, Note_on_c, 0, 71, 51
2, 91680, Note_on_c, 0, 71, 0
2, 91680, Note_on_c, 0, 72, 46
2, 91920, Note_on_c, 0, 72, 0
2, 91920, Note_on_c, 0, 79, 50
2, 92040, Note_on_c, 0, 79, 0
2, 92160, Note_on_c, 0, 76, 51
2, 92280, Note_on_c, 0, 77, 46
2, 92292, Note_on_c, 0, 76, 0
2, 92400, Note_on_c, 0, 79, 46
2, 92412, Note_on_c, 0, 77, 0
2, 92520, Note_on_c, 0, 77, 48
2, 92532, Note_on_c, 0, 79, 0
2, 92640, Note_on_c, 0, 75, 47
2, 92652, Note_on_c, 0, 77, 0
2, 92760, Note_on_c, 0, 74, 45
2, 92772, Note_on_c, 0, 75, 0
2, 92880, Note_on_c, 0, 72, 44
2, 92892, Note_on_c, 0, 74, 0
2, 93000, Note_on_c, 0, 70, 42
2, 93012, Note_on_c, 0, 72, 0
2, 93120, Note_on_c, 0, 69, 49
2, 93132, Note_on_c, 0, 70, 0
2, 93600, Note_on_c, 0, 69, 0
2, 93600, Note_on_c, 0, 70, 46
2, 93840, Note_on_c, 0, 70, 0
2, 93840, Note_on_c, 0, 77, 49
2, 93960, Note_on_c, 0, 77, 0
2, 94080, Note_on_c, 0, 82, 61
2, 94200, Note_on_c, 0, 81, 60
2, 94212, Note_on_c, 0, 82, 0
2, 94320, Note_on_c, 0, 79, 58
2, 94332, Note_on_c, 0, 81, 0
2, 94440, Note_on_c, 0, 77, 57
2, 94452, Note_on_c, 0, 79, 0
2, 94560, Note_on_c, 0, 75, 56
2, 94572, Note_on_c, 0, 77, 0
2, 94680, Note_on_c, 0, 74, 54
2, 94692, Note_on_c, 0, 75, 0
2, 94800, Note_on_c, 0, 72, 53
2, 94812, Note_on_c, 0, 74, 0
2, 94920, Note_on_c, 0, 70, 50
2, 94932, Note_on_c, 0, 72, 0
2, 95040, Note_on_c, 0, 70, 0
2, 95040, Note_on_c, 0, 79, 58
2, 95160, Note_on_c, 0, 77, 57
2, 95172, Note_on_c, 0, 79, 0
2, 95280, Note_on_c, 0, 75, 55
2, 95292, Note_on_c, 0, 77, 0
2, 95400, Note_on_c, 0, 74, 53
2, 95412, Note_on_c, 0, 75, 0
2, 95520, Note_on_c, 0, 72, 52
2, 95532, Note_on_c, 0, 74, 0
2, 95640, Note_on_c, 0, 70, 50
2, 95652, Note_on_c, 0, 72, 0
2, 95760, Note_on_c, 0, 69, 48
2, 95772, Note_on_c, 0, 70, 0
2, 95880, Note_on_c, 0, 67, 47
2, 95892, Note_on_c, 0, 69, 0
2, 96000, Note_on_c, 0, 67, 0
2, 96000, Note_on_c, 0, 65, 50
2, 96120, Note_on_c, 0, 65, 0
2, 96120, Note_on_c, 0, 70, 46
2, 96240, Note_on_c, 0, 70, 0
2, 96240, Note_on_c, 0, 74, 46
2, 96360, Note_on_c, 0, 74, 0
2, 96360, Note_on_c, 0, 77, 46
2, 96450, Note_on_c, 0, 77, 0
2, 96480, Note_on_c, 0, 77, 50
2, 96600, Note_on_c, 0, 77, 0
2, 96600, Note_on_c, 0, 75, 44
2, 96720, Note_on_c, 0, 75, 0
2, 96720, Note_on_c, 0, 74, 44
2, 96840, Note_on_c, 0, 74, 0
2, 96840, Note_on_c, 0, 72, 44
2, 96930, Note_on_c, 0, 72, 0
2, 96960, Note_on_c, 0, 72, 47
2, 97440, Note_on_c, 0, 72, 0
2, 97440, Note_on_c, 0, 70, 40
2, 97620, Note_on_c, 0, 70, 0
2, 97680, Note_on_c, 0, 65, 60
2, 97800, Note_on_c, 0, 65, 0
2, 97920, Note_on_c, 0, 74, 55
2, 97920, Note_on_c, 0, 77, 66
2, 98040, Note_on_c, 0, 77, 0
2, 98040, Note_on_c, 0, 74, 0
2, 98160, Note_on_c, 0, 74, 54
2, 98160, Note_on_c, 0, 77, 64
2, 98640, Note_on_c, 0, 77, 0
2, 98640, Note_on_c, 0, 74, 0
2, 98640, Note_on_c, 0, 77, 49
2, 98640, Note_on_c, 0, 80, 59
2, 98820, Note_on_c, 0, 80, 0
2, 98820, Note_on_c, 0, 77, 0
2, 98880, Note_on_c, 0, 71, 55
2, 98880, Note_on_c, 0, 74, 66
2, 99000, Note_on_c, 0, 74, 0
2, 99000, Note_on_c, 0, 71, 0
2, 99120, Note_on_c, 0, 71, 54
2, 99120, Note_on_c, 0, 74, 64
2, 99600, Note_on_c, 0, 74, 0
2, 99600, Note_on_c, 0, 71, 0
2, 99600, Note_on_c, 0, 74, 49
2, 99600, Note_on_c, 0, 77, 59
2, 99780, Note_on_c, 0, 77, 0
2, 99780, Note_on_c, 0, 74, 0
2, 99840, Note_on_c, 0, 72, 55
2, 99840, Note_on_c, 0, 75, 66
2, 99960, Note_on_c, 0, 75, 0
2, 99960, Note_on_c, 0, 72, 0
2, 100080, Note_on_c, 0, 72, 54
2, 100080, Note_on_c, 0, 75, 64
2, 100560, Note_on_c, 0, 75, 0
2, 100560, Note_on_c, 0, 72, 0
2, 100560, Note_on_c, 0, 75, 49
2, 100560, Note_on_c, 0, 79, 59
2, 100740, Note_on_c, 0, 79, 0
2, 100740, Note_on_c, 0, 75, 0
2, 100800, Note_on_c, 0, 69, 55
2, 100800, Note_on_c, 0, 72, 66
2, 100920, Note_on_c, 0, 72, 0
2, 100920, Note_on_c, 0, 69, 0
2, 101040, Note_on_c, 0, 69, 54
2, 101040, Note_on_c, 0, 72, 64
2, 101520, Note_on_c, 0, 72, 0
2, 101520, Note_on_c, 0, 69, 0
2, 101520, Note_on_c, 0, 72, 49
2, 101520, Note_on_c, 0, 75, 59
2, 101700, Note_on_c, 0, 75, 0
2, 101700, Note_on_c, 0, 72, 0
2, 101760, Note_on_c, 0, 75, 54
2, 101880, Note_on_c, 0, 73, 49
2, 101892, Note_on_c, 0, 75, 0
2, 102000, Note_on_c, 0, 72, 49
2, 102012, Note_on_c, 0, 73, 0
2, 102120, Note_on_c, 0, 70, 51
2, 102132, Note_on_c, 0, 72, 0
2, 102240, Note_on_c, 0, 69, 50
2, 102252, Note_on_c, 0, 70, 0
2, 102360, Note_on_c, 0, 70, 48
2, 102372, Note_on_c, 0, 69, 0
2, 102480, Note_on_c, 0, 72, 46
2, 102492, Note_on_c, 0, 70, 0
2, 102600, Note_on_c, 0, 70, 45
2, 102612, Note_on_c, 0, 72, 0
2, 102720, Note_on_c, 0, 70, 0
2, 102720, Note_on_c, 0, 75, 54
2, 102840, Note_on_c, 0, 73, 49
2, 102852, Note_on_c, 0, 75, 0
2, 102960, Note_on_c, 0, 72, 49
2, 102972, Note_on_c, 0, 73, 0
2, 103080, Note_on_c, 0, 70, 51
2, 103092, Note_on_c, 0, 72, 0
2, 103200, Note_on_c, 0, 69, 50
2, 103212, Note_on_c, 0, 70, 0
2, 103320, Note_on_c, 0, 70, 48
2, 103332, Note_on_c, 0, 69, 0
2, 103440, Note_on_c, 0, 72, 46
2, 103452, Note_on_c, 0, 70, 0
2, 103560, Note_on_c, 0, 70, 45
2, 103572, Note_on_c, 0, 72, 0
2, 103680, Note_on_c, 0, 70, 0
2, 103680, Note_on_c, 0, 82, 66
2, 103800, Note_on_c, 0, 82, 0
2, 103920, Note_on_c, 0, 82, 57
2, 104400, Note_on_c, 0, 82, 0
2, 104400, Note_on_c, 0, 70, 38
2, 104400, Note_on_c, 0, 76, 45
2, 104640, Note_on_c, 0, 76, 0
2, 104640, Note_on_c, 0, 70, 0
2, 104640, Note_on_c, 0, 70, 43
2, 104640, Note_on_c, 0, 79, 51
2, 105120, Note_on_c, 0, 79, 0
2, 105120, Note_on_c, 0, 70, 0
2, 105120, Note_on_c, 0, 69, 39
2, 105120, Note_on_c, 0, 77, 46
2, 105300, Note_on_c, 0, 77, 0
2, 105300, Note_on_c, 0, 69, 0
2, 105360, Note_on_c, 0, 65, 60
2, 105480, Note_on_c, 0, 65, 0
2, 105600, Note_on_c, 0, 65, 55
2, 105600, Note_on_c, 0, 74, 66
2, 105720, Note_on_c, 0, 74, 0
2, 105720, Note_on_c, 0, 65, 0
2, 105840, Note_on_c, 0, 65, 54
2, 105840, Note_on_c, 0, 74, 64
2, 106320, Note_on_c, 0, 74, 0
2, 106320, Note_on_c, 0, 65, 0
2, 106320, Note_on_c, 0, 62, 49
2, 106320, Note_on_c, 0, 70, 59
2, 106500, Note_on_c, 0, 70, 0
2, 106500, Note_on_c, 0, 62, 0
2, 106560, Note_on_c, 0, 67, 55
2, 106560, Note_on_c, 0, 75, 66
2, 106680, Note_on_c, 0, 75, 0
2, 106680, Note_on_c, 0, 67, 0
2, 106800, Note_on_c, 0, 67, 54
2, 106800, Note_on_c, 0, 75, 64
2, 107280, Note_on_c, 0, 75, 0
2, 107280, Note_on_c, 0, 67, 0
2, 107280, Note_on_c, 0, 63, 49
2, 107280, Note_on_c, 0, 72, 59
2, 107460, Note_on_c, 0, 72, 0
2, 107460, Note_on_c, 0, 63, 0
2, 107520, Note_on_c, 0, 67, 65
2, 107760, Note_on_c, 0, 67, 0
2, 107760, Note_on_c, 0, 70, 59
2, 108000, Note_on_c, 0, 70, 0
2, 108000, Note_on_c, 0, 69, 65
2, 108240, Note_on_c, 0, 69, 0
2, 108240, Note_on_c, 0, 72, 59
2, 108480, Note_on_c, 0, 72, 0
2, 108480, Note_on_c, 0, 70, 63
2, 108600, Note_on_c, 0, 70, 0
2, 108600, Note_on_c, 0, 69, 56
2, 108720, Note_on_c, 0, 69, 0
2, 108720, Note_on_c, 0, 70, 56
2, 108840, Note_on_c, 0, 70, 0
2, 108840, Note_on_c, 0, 72, 56
2, 108960, Note_on_c, 0, 72, 0
2, 108960, Note_on_c, 0, 70, 62
2, 109080, Note_on_c, 0, 70, 0
2, 109200, Note_on_c, 0, 70, 59
2, 109320, Note_on_c, 0, 70, 0
2, 109440, Note_on_c, 0, 74, 55
2, 109440, Note_on_c, 0, 77, 66
2, 109560, Note_on_c, 0, 77, 0
2, 109560, Note_on_c, 0, 74, 0
2, 109680, Note_on_c, 0, 74, 54
2, 109680, Note_on_c, 0, 77, 64
2, 110160, Note_on_c, 0, 77, 0
2, 110160, Note_on_c, 0, 74, 0
2, 110160, Note_on_c, 0, 70, 49
2, 110160, Note_on_c, 0, 74, 59
2, 110340, Note_on_c, 0, 74, 0
2, 110340, Note_on_c, 0, 70, 0
2, 110400, Note_on_c, 0, 75, 55
2, 110400, Note_on_c, 0, 79, 66
2, 110520, Note_on_c, 0, 79, 0
2, 110520, Note_on_c, 0, 75, 0
2, 110640, Note_on_c, 0, 75, 54
2, 110640, Note_on_c, 0, 79, 64
2, 111120, Note_on_c, 0, 79, 0
2, 111120, Note_on_c, 0, 75, 0
2, 111120, Note_on_c, 0, 72, 49
2, 111120, Note_on_c, 0, 75, 59
2, 111300, Note_on_c, 0, 75, 0
2, 111300, Note_on_c, 0, 72, 0
2, 111360, Note_on_c, 0, 70, 65
2, 111600, Note_on_c, 0, 70, 0
2, 111600, Note_on_c, 0, 74, 59
2, 111840, Note_on_c, 0, 74, 0
2, 111840, Note_on_c, 0, 72, 65
2, 112080, Note_on_c, 0, 72, 0
2, 112080, Note_on_c, 0, 75, 59
2, 112320, Note_on_c, 0, 75, 0
2, 112320, Note_on_c, 0, 74, 63
2, 112440, Note_on_c, 0, 74, 0
2, 112440, Note_on_c, 0, 72, 59
2, 112560, Note_on_c, 0, 72, 0
2, 112560, Note_on_c, 0, 74, 59
2, 112680, Note_on_c, 0, 74, 0
2, 112680, Note_on_c, 0, 75, 59
2, 112800, Note_on_c, 0, 75, 0
2, 112800, Note_on_c, 0, 74, 66
2, 112920, Note_on_c, 0, 74, 0
2, 113040, Note_on_c, 0, 70, 46
2, 113160, Note_on_c, 0, 70, 0
2, 113280, Note_on_c, 0, 79, 53
2, 113400, Note_on_c, 0, 79, 0
2, 113520, Note_on_c, 0, 79, 46
2, 113760, Note_on_c, 0, 79, 0
2, 113760, Note_on_c, 0, 75, 50
2, 114000, Note_on_c, 0, 75, 0
2, 114000, Note_on_c, 0, 72, 46
2, 114240, Note_on_c, 0, 72, 0
2, 114240, Note_on_c, 0, 71, 51
2, 114720, Note_on_c, 0, 71, 0
2, 114720, Note_on_c, 0, 72, 46
2, 114960, Note_on_c, 0, 72, 0
2, 114960, Note_on_c, 0, 79, 50
2, 115080, Note_on_c, 0, 79, 0
2, 115200, Note_on_c, 0, 76, 51
2, 115320, Note_on_c, 0, 77, 46
2, 115332, Note_on_c, 0, 76, 0
2, 115440, Note_on_c, 0, 79, 46
2, 115452, Note_on_c, 0, 77, 0
2, 115560, Note_on_c, 0, 77, 48
2, 115572, Note_on_c, 0, 79, 0
2, 115680, Note_on_c, 0, 75, 47
2, 115692, Note_on_c, 0, 77, 0
2, 115800, Note_on_c, 0, 74, 45
2, 115812, Note_on_c, 0, 75, 0
2, 115920, Note_on_c, 0, 72, 44
2, 115932, Note_on_c, 0, 74, 0
2, 116040, Note_on_c, 0, 70, 42
2, 116052, Note_on_c, 0, 72, 0
2, 116160, Note_on_c, 0, 69, 49
2, 116172, Note_on_c, 0, 70, 0
2, 116640, Note_on_c, 0, 69, 0
2, 116640, Note_on_c, 0, 70, 46
2, 116880, Note_on_c, 0, 70, 0
2, 116880, Note_on_c, 0, 77, 49
2, 117000, Note_on_c, 0, 77, 0
2, 117120, Note_on_c, 0, 82, 61
2, 117240, Note_on_c, 0, 81, 60
2, 117252, Note_on_c, 0, 82, 0
2, 117360, Note_on_c, 0, 79, 58
2, 117372, Note_on_c, 0, 81, 0
2, 117480, Note_on_c, 0, 77, 57
2, 117492, Note_on_c, 0, 79, 0
2, 117600, Note_on_c, 0, 75, 56
2, 117612, Note_on_c, 0, 77, 0
2, 117720, Note_on_c, 0, 74, 54
2, 117732, Note_on_c, 0, 75, 0
2, 117840, Note_on_c, 0, 72, 53
2, 117852, Note_on_c, 0, 74, 0
2, 117960, Note_on_c, 0, 70, 50
2, 117972, Note_on_c, 0, 72, 0
2, 118080, Note_on_c, 0, 70, 0
2, 118080, Note_on_c, 0, 79, 58
2, 118200, Note_on_c, 0, 77, 57
2, 118212, Note_on_c, 0, 79, 0
2, 118320, Note_on_c, 0, 75, 55
2, 118332, Note_on_c, 0, 77, 0
2, 118440, Note_on_c, 0, 74, 53
2, 118452, Note_on_c, 0, 75, 0
2, 118560, Note_on_c, 0, 72, 52
2, 118572, Note_on_c, 0, 74, 0
2, 118680, Note_on_c, 0, 70, 50
2, 118692, Note_on_c, 0, 72, 0
2, 118800, Note_on_c, 0, 69, 48
2, 118812, Note_on_c, 0, 70, 0
2, 118920, Note_on_c, 0, 67, 47
2, 118932, Note_on_c, 0, 69, 0
2, 119040, Note_on_c, 0, 67, 0
2, 119040, Note_on_c, 0, 65, 50
2, 119160, Note_on_c, 0, 65, 0
2, 119160, Note_on_c, 0, 70, 46
2, 119280, Note_on_c, 0, 70, 0
2, 119280, Note_on_c, 0, 74, 46
2, 119400, Note_on_c, 0, 74, 0
2, 119400, Note_on_c, 0, 77, 46
2, 119490, Note_on_c, 0, 77, 0
2, 119520, Note_on_c, 0, 77, 50
2, 119640, Note_on_c, 0, 77, 0
2, 119640, Note_on_c, 0, 75, 44
2, 119760, Note_on_c, 0, 75, 0
2, 119760, Note_on_c, 0, 74, 44
2, 119880, Note_on_c, 0, 74, 0
2, 119880, Note_on_c, 0, 72, 44
2, 119970, Note_on_c, 0, 72, 0
2, 120000, Note_on_c, 0, 72, 47
2, 120480, Note_on_c, 0, 72, 0
2, 120480, Note_on_c, 0, 70, 40
2, 120660, Note_on_c, 0, 70, 0
2, 120720, Note_on_c, 0, 70, 38
2, 120840, Note_on_c, 0, 70, 0
2, 120840, Note_on_c, 0, 72, 43
2, 120960, Note_on_c, 0, 72, 0
2, 120960, Note_on_c, 0, 74, 47
2, 121440, Note_on_c, 0, 74, 0
2, 121680, Note_on_c, 0, 74, 46
2, 121800, Note_on_c, 0, 74, 0
2, 121800, Note_on_c, 0, 75, 48
2, 121920, Note_on_c, 0, 75, 0
2, 121920, Note_on_c, 0, 77, 50
2, 122400, Note_on_c, 0, 77, 0
2, 122640, Note_on_c, 0, 77, 53
2, 122760, Note_on_c, 0, 77, 0
2, 122760, Note_on_c, 0, 79, 55
2, 122880, Note_on_c, 0, 79, 0
2, 122880, Note_on_c, 0, 80, 62
2, 123120, Note_on_c, 0, 80, 0
2, 123120, Note_on_c, 0, 77, 54
2, 123360, Note_on_c, 0, 77, 0
2, 123360, Note_on_c, 0, 74, 53
2, 123600, Note_on_c, 0, 74, 0
2, 123600, Note_on_c, 0, 70, 52
2, 123840, Note_on_c, 0, 70, 0
2, 123840, Note_on_c, 0, 69, 40
2, 124080, Note_on_c, 0, 69, 0
2, 124080, Note_on_c, 0, 70, 43
2, 124320, Note_on_c, 0, 70, 0
2, 124320, Note_on_c, 0, 68, 40
2, 124560, Note_on_c, 0, 68, 0
2, 124560, Note_on_c, 0, 65, 37
2, 124800, Note_on_c, 0, 65, 0
2, 124800, Note_on_c, 0, 63, 39
2, 124920, Note_on_c, 0, 63, 0
2, 125040, Note_on_c, 0, 63, 36
2, 125160, Note_on_c, 0, 63, 0
2, 125280, Note_on_c, 0, 63, 35
2, 125400, Note_on_c, 0, 63, 0
2, 125520, Note_on_c, 0, 63, 35
2, 125640, Note_on_c, 0, 63, 0
2, 125760, Note_on_c, 0, 72, 41
2, 125880, Note_on_c, 0, 72, 0
2, 126000, Note_on_c, 0, 72, 37
2, 126120, Note_on_c, 0, 72, 0
2, 126240, Note_on_c, 0, 72, 37
2, 126360, Note_on_c, 0, 72, 0
2, 126480, Note_on_c, 0, 72, 37
2, 126600, Note_on_c, 0, 72, 0
2, 126720, Note_on_c, 0, 65, 40
2, 126840, Note_on_c, 0, 65, 0
2, 126960, Note_on_c, 0, 65, 37
2, 127080, Note_on_c, 0, 65, 0
2, 127200, Note_on_c, 0, 70, 40
2, 127320, Note_on_c, 0, 70, 0
2, 127440, Note_on_c, 0, 70, 37
2, 127560, Note_on_c, 0, 70, 0
2, 127680, Note_on_c, 0, 68, 36
2, 127920, Note_on_c, 0, 68, 0
2, 127920, Note_on_c, 0, 67, 39
2, 128100, Note_on_c, 0, 67, 0
2, 128160, Note_on_c, 0, 65, 42
2, 128280, Note_on_c, 0, 65, 0
2, 128400, Note_on_c, 0, 63, 45
2, 128520, Note_on_c, 0, 63, 0
2, 128640, Note_on_c, 0, 79, 48
2, 128760, Note_on_c, 0, 79, 0
2, 128880, Note_on_c, 0, 79, 43
2, 129000, Note_on_c, 0, 79, 0
2, 129120, Note_on_c, 0, 78, 48
2, 129240, Note_on_c, 0, 78, 0
2, 129360, Note_on_c, 0, 77, 43
2, 129480, Note_on_c, 0, 77, 0
2, 129600, Note_on_c, 0, 76, 48
2, 129720, Note_on_c, 0, 76, 0
2, 129840, Note_on_c, 0, 75, 46
2, 129960, Note_on_c, 0, 75, 0
2, 130080, Note_on_c, 0, 74, 49
2, 130200, Note_on_c, 0, 74, 0
2, 130320, Note_on_c, 0, 73, 42
2, 130440, Note_on_c, 0, 73, 0
2, 130560, Note_on_c, 0, 72, 45
2, 130680, Note_on_c, 0, 72, 0
2, 130800, Note_on_c, 0, 72, 40
2, 130920, Note_on_c, 0, 72, 0
2, 131040, Note_on_c, 0, 77, 48
2, 131160, Note_on_c, 0, 77, 0
2, 131280, Note_on_c, 0, 77, 43
2, 131400, Note_on_c, 0, 77, 0
2, 131520, Note_on_c, 0, 70, 50
2, 132000, Note_on_c, 0, 70, 0
2, 132480, Note_on_c, 0, 63, 39
2, 132600, Note_on_c, 0, 63, 0
2, 132720, Note_on_c, 0, 63, 36
2, 132840, Note_on_c, 0, 63, 0
2, 132960, Note_on_c, 0, 63, 35
2, 133080, Note_on_c, 0, 63, 0
2, 133200, Note_on_c, 0, 63, 35
2, 133320, Note_on_c, 0, 63, 0
2, 133440, Note_on_c, 0, 72, 41
2, 133560, Note_on_c, 0, 72, 0
2, 133680, Note_on_c, 0, 72, 37
2, 133800, Note_on_c, 0, 72, 0
2, 133920, Note_on_c, 0, 72, 37
2, 134040, Note_on_c, 0, 72, 0
2, 134160, Note_on_c, 0, 72, 37
2, 134280, Note_on_c, 0, 72, 0
2, 134400, Note_on_c, 0, 65, 40
2, 134520, Note_on_c, 0, 65, 0
2, 134640, Note_on_c, 0, 65, 37
2, 134760, Note_on_c, 0, 65, 0
2, 134880, Note_on_c, 0, 70, 40
2, 135000, Note_on_c, 0, 70, 0
2, 135120, Note_on_c, 0, 70, 37
2, 135240, Note_on_c, 0, 70, 0
2, 135360, Note_on_c, 0, 68, 36
2, 135600, Note_on_c, 0, 68, 0
2, 135600, Note_on_c, 0, 67, 39
2, 135780, Note_on_c, 0, 67, 0
2, 135840, Note_on_c, 0, 65, 42
2, 135960, Note_on_c, 0, 65, 0
2, 136080, Note_on_c, 0, 63, 45
2, 136200, Note_on_c, 0, 63, 0
2, 136320, Note_on_c, 0, 79, 48
2, 136440, Note_on_c, 0, 79, 0
2, 136560, Note_on_c, 0, 79, 43
2, 136680, Note_on_c, 0, 79, 0
2, 136800, Note_on_c, 0, 78, 48
2, 136920, Note_on_c, 0, 78, 0
2, 137040, Note_on_c, 0, 77, 43
2, 137160, Note_on_c, 0, 77, 0
2, 137280, Note_on_c, 0, 76, 48
2, 137400, Note_on_c, 0, 76, 0
2, 137520, Note_on_c, 0, 75, 46
2, 137640, Note_on_c, 0, 75, 0
2, 137760, Note_on_c, 0, 74, 49
2, 137880, Note_on_c, 0, 74, 0
2, 138000, Note_on_c, 0, 73, 42
2, 138120, Note_on_c, 0, 73, 0
2, 138240, Note_on_c, 0, 72, 45
2, 138360, Note_on_c, 0, 72, 0
2, 138480, Note_on_c, 0, 72, 40
2, 138600, Note_on_c, 0, 72, 0
2, 138720, Note_on_c, 0, 77, 48
2, 138840, Note_on_c, 0, 77, 0
2, 138960, Note_on_c, 0, 77, 43
2, 139080, Note_on_c, 0, 77, 0
2, 139200, Note_on_c, 0, 70, 50
2, 139680, Note_on_c, 0, 70, 0
2, 140400, Note_on_c, 0, 70, 35
2, 140640, Note_on_c, 0, 70, 0
2, 140640, Note_on_c, 0, 73, 40
2, 140880, Note_on_c, 0, 73, 0
2, 140880, Note_on_c, 0, 76, 44
2, 141120, Note_on_c, 0, 76, 0
2, 141120, Note_on_c, 0, 79, 48
2, 141360, Note_on_c, 0, 79, 0
2, 141360, Note_on_c, 0, 73, 45
2, 141600, Note_on_c, 0, 73, 0
2, 141600, Note_on_c, 0, 72, 42
2, 141840, Note_on_c, 0, 72, 0
2, 141840, Note_on_c, 0, 70, 39
2, 142080, Note_on_c, 0, 70, 0
2, 142080, Note_on_c, 0, 69, 35
2, 142320, Note_on_c, 0, 69, 0
2, 142320, Note_on_c, 0, 68, 37
2, 142560, Note_on_c, 0, 68, 0
2, 142560, Note_on_c, 0, 74, 40
2, 142800, Note_on_c, 0, 74, 0
2, 142800, Note_on_c, 0, 75, 42
2, 143040, Note_on_c, 0, 75, 0
2, 143040, Note_on_c, 0, 77, 44
2, 143280, Note_on_c, 0, 77, 0
2, 143280, Note_on_c, 0, 71, 40
2, 143520, Note_on_c, 0, 71, 0
2, 143520, Note_on_c, 0, 70, 39
2, 143760, Note_on_c, 0, 70, 0
2, 143760, Note_on_c, 0, 68, 39
2, 144000, Note_on_c, 0, 68, 0
2, 144000, Note_on_c, 0, 67, 47
2, 144240, Note_on_c, 0, 67, 0
2, 144240, Note_on_c, 0, 66, 42
2, 144480, Note_on_c, 0, 66, 0
2, 144480, Note_on_c, 0, 65, 48
2, 144720, Note_on_c, 0, 65, 0
2, 144720, Note_on_c, 0, 70, 44
2, 144960, Note_on_c, 0, 70, 0
2, 144960, Note_on_c, 0, 63, 52
2, 145200, Note_on_c, 0, 63, 0
2, 145200, Note_on_c, 0, 69, 46
2, 145440, Note_on_c, 0, 69, 0
2, 145440, Note_on_c, 0, 62, 54
2, 145680, Note_on_c, 0, 62, 0
2, 145680, Note_on_c, 0, 66, 45
2, 145680, Note_on_c, 0, 63, 45
2, 145920, Note_on_c, 0, 63, 0
2, 145920, Note_on_c, 0, 66, 0
2, 145920, Note_on_c, 0, 62, 49
2, 145920, Note_on_c, 0, 65, 49
2, 146160, Note_on_c, 0, 65, 0
2, 146160, Note_on_c, 0, 62, 0
2, 146160, Note_on_c, 0, 63, 40
2, 146160, Note_on_c, 0, 66, 40
2, 146400, Note_on_c, 0, 66, 0
2, 146400, Note_on_c, 0, 63, 0
2, 146400, Note_on_c, 0, 62, 48
2, 146400, Note_on_c, 0, 65, 48
2, 146640, Note_on_c, 0, 65, 0
2, 146640, Note_on_c, 0, 62, 0
2, 146640, Note_on_c, 0, 63, 40
2, 146640, Note_on_c, 0, 66, 40
2, 146880, Note_on_c, 0, 66, 0
2, 146880, Note_on_c, 0, 63, 0
2, 146880, Note_on_c, 0, 62, 41
2, 146880, Note_on_c, 0, 65, 41
2, 147120, Note_on_c, 0, 65, 0
2, 147120, Note_on_c, 0, 62, 0
2, 147120, Note_on_c, 0, 63, 35
2, 147120, Note_on_c, 0, 67, 35
2, 147360, Note_on_c, 0, 67, 0
2, 147360, Note_on_c, 0, 63, 0
2, 147360, Note_on_c, 0, 65, 35
2, 147360, Note_on_c, 0, 68, 35
2, 147600, Note_on_c, 0, 68, 0
2, 147600, Note_on_c, 0, 65, 0
2, 147600, Note_on_c, 0, 62, 35
2, 147600, Note_on_c, 0, 65, 35
2, 147840, Note_on_c, 0, 65, 0
2, 147840, Note_on_c, 0, 62, 0
2, 147840, Note_on_c, 0, 63, 39
2, 147960, Note_on_c, 0, 63, 0
2, 148080, Note_on_c, 0, 63, 36
2, 148200, Note_on_c, 0, 63, 0
2, 148320, Note_on_c, 0, 63, 35
2, 148440, Note_on_c, 0, 63, 0
2, 148560, Note_on_c, 0, 63, 35
2, 148680, Note_on_c, 0, 63, 0
2, 148800, Note_on_c, 0, 72, 41
2, 148920, Note_on_c, 0, 72, 0
2, 149040, Note_on_c, 0, 72, 37
2, 149160, Note_on_c, 0, 72, 0
2, 149280, Note_on_c, 0, 72, 37
2, 149400, Note_on_c, 0, 72, 0
2, 149520, Note_on_c, 0, 72, 37
2, 149640, Note_on_c, 0, 72, 0
2, 149760, Note_on_c, 0, 65, 40
2, 149880, Note_on_c, 0, 65, 0
2, 150000, Note_on_c, 0, 65, 37
2, 150120, Note_on_c, 0, 65, 0
2, 150240, Note_on_c, 0, 70, 40
2, 150360, Note_on_c, 0, 70, 0
2, 150480, Note_on_c, 0, 70, 37
2, 150600, Note_on_c, 0, 70, 0
2, 150720, Note_on_c, 0, 68, 36
2, 150960, Note_on_c, 0, 68, 0
2, 150960, Note_on_c, 0, 67, 39
2, 151140, Note_on_c, 0, 67, 0
2, 151200, Note_on_c, 0, 65, 42
2, 151320, Note_on_c, 0, 65, 0
2, 151440, Note_on_c, 0, 63, 45
2, 151560, Note_on_c, 0, 63, 0
2, 151680, Note_on_c, 0, 72, 48
2, 151800, Note_on_c, 0, 72, 0
2, 151920, Note_on_c, 0, 84, 43
2, 152040, Note_on_c, 0, 84, 0
2, 152160, Note_on_c, 0, 83, 48
2, 152280, Note_on_c, 0, 83, 0
2, 152400, Note_on_c, 0, 82, 43
2, 152520, Note_on_c, 0, 82, 0
2, 152640, Note_on_c, 0, 81, 48
2, 152760, Note_on_c, 0, 81, 0
2, 152880, Note_on_c, 0, 80, 46
2, 153000, Note_on_c, 0, 80, 0
2, 153120, Note_on_c, 0, 79, 49
2, 153240, Note_on_c, 0, 79, 0
2, 153360, Note_on_c, 0, 78, 42
2, 153480, Note_on_c, 0, 78, 0
2, 153600, Note_on_c, 0, 77, 45
2, 153720, Note_on_c, 0, 77, 0
2, 153840, Note_on_c, 0, 77, 40
2, 153960, Note_on_c, 0, 77, 0
2, 154080, Note_on_c, 0, 82, 48
2, 154200, Note_on_c, 0, 82, 0
2, 154320, Note_on_c, 0, 82, 43
2, 154440, Note_on_c, 0, 82, 0
2, 154560, Note_on_c, 0, 75, 50
2, 155040, Note_on_c, 0, 75, 0
2, 155760, Note_on_c, 0, 70, 35
2, 156000, Note_on_c, 0, 70, 0
2, 156000, Note_on_c, 0, 73, 40
2, 156240, Note_on_c, 0, 73, 0
2, 156240, Note_on_c, 0, 76, 44
2, 156480, Note_on_c, 0, 76, 0
2, 156480, Note_on_c, 0, 79, 48
2, 156720, Note_on_c, 0, 79, 0
2, 156720, Note_on_c, 0, 73, 45
2, 156960, Note_on_c, 0, 73, 0
2, 156960, Note_on_c, 0, 72, 42
2, 157200, Note_on_c, 0, 72, 0
2, 157200, Note_on_c, 0, 70, 39
2, 157440, Note_on_c, 0, 70, 0
2, 157440, Note_on_c, 0, 69, 35
2, 157680, Note_on_c, 0, 69, 0
2, 157680, Note_on_c, 0, 68, 37
2, 157920, Note_on_c, 0, 68, 0
2, 157920, Note_on_c, 0, 74, 40
2, 158160, Note_on_c, 0, 74, 0
2, 158160, Note_on_c, 0, 75, 42
2, 158400, Note_on_c, 0, 75, 0
2, 158400, Note_on_c, 0, 77, 44
2, 158640, Note_on_c, 0, 77, 0
2, 158640, Note_on_c, 0, 71, 40
2, 158880, Note_on_c, 0, 71, 0
2, 158880, Note_on_c, 0, 70, 39
2, 159120, Note_on_c, 0, 70, 0
2, 159120, Note_on_c, 0, 68, 39
2, 159360, Note_on_c, 0, 68, 0
2, 159360, Note_on_c, 0, 67, 47
2, 159600, Note_on_c, 0, 67, 0
2, 159600, Note_on_c, 0, 66, 42
2, 159840, Note_on_c, 0, 66, 0
2, 159840, Note_on_c, 0, 65, 48
2, 160080, Note_on_c, 0, 65, 0
2, 160080, Note_on_c, 0, 70, 44
2, 160320, Note_on_c, 0, 70, 0
2, 160320, Note_on_c, 0, 63, 52
2, 160560, Note_on_c, 0, 63, 0
2, 160560, Note_on_c, 0, 69, 46
2, 160800, Note_on_c, 0, 69, 0
2, 160800, Note_on_c, 0, 62, 54
2, 161040, Note_on_c, 0, 62, 0
2, 161040, Note_on_c, 0, 66, 45
2, 161040, Note_on_c, 0, 63, 45
2, 161280, Note_on_c, 0, 63, 0
2, 161280, Note_on_c, 0, 66, 0
2, 161280, Note_on_c, 0, 62, 49
2, 161280, Note_on_c, 0, 65, 49
2, 161520, Note_on_c, 0, 65, 0
2, 161520, Note_on_c, 0, 62, 0
2, 161520, Note_on_c, 0, 63, 40
2, 161520, Note_on_c, 0, 66, 40
2, 161760, Note_on_c, 0, 66, 0
2, 161760, Note_on_c, 0, 63, 0
2, 161760, Note_on_c, 0, 62, 48
2, 161760, Note_on_c, 0, 65, 48
2, 162000, Note_on_c, 0, 65, 0
2, 162000, Note_on_c, 0, 62, 0
2, 162000, Note_on_c, 0, 63, 40
2, 162000, Note_on_c, 0, 66, 40
2, 162240, Note_on_c, 0, 66, 0
2, 162240, Note_on_c, 0, 63, 0
2, 162240, Note_on_c, 0, 62, 41
2, 162240, Note_on_c, 0, 65, 41
2, 162480, Note_on_c, 0, 65, 0
2, 162480, Note_on_c, 0, 62, 0
2, 162480, Note_on_c, 0, 63, 35
2, 162480, Note_on_c, 0, 67, 35
2, 162720, Note_on_c, 0, 67, 0
2, 162720, Note_on_c, 0, 63, 0
2, 162720, Note_on_c, 0, 65, 35
2, 162720, Note_on_c, 0, 68, 35
2, 162960, Note_on_c, 0, 68, 0
2, 162960, Note_on_c, 0, 65, 0
2, 162960, Note_on_c, 0, 62, 35
2, 162960, Note_on_c, 0, 65, 35
2, 163200, Note_on_c, 0, 65, 0
2, 163200, Note_on_c, 0, 62, 0
2, 163200, Note_on_c, 0, 63, 39
2, 163320, Note_on_c, 0, 63, 0
2, 163440, Note_on_c, 0, 63, 36
2, 163560, Note_on_c, 0, 63, 0
2, 163680, Note_on_c, 0, 63, 35
2, 163800, Note_on_c, 0, 63, 0
2, 163920, Note_on_c, 0, 63, 35
2, 164040, Note_on_c, 0, 63, 0
2, 164160, Note_on_c, 0, 72, 41
2, 164280, Note_on_c, 0, 72, 0
2, 164400, Note_on_c, 0, 72, 37
2, 164520, Note_on_c, 0, 72, 0
2, 164640, Note_on_c, 0, 72, 37
2, 164760, Note_on_c, 0, 72, 0
2, 164880, Note_on_c, 0, 72, 37
2, 165000, Note_on_c, 0, 72, 0
2, 165120, Note_on_c, 0, 65, 40
2, 165240, Note_on_c, 0, 65, 0
2, 165360, Note_on_c, 0, 65, 37
2, 165480, Note_on_c, 0, 65, 0
2, 165600, Note_on_c, 0, 70, 40
2, 165720, Note_on_c, 0, 70, 0
2, 165840, Note_on_c, 0, 70, 37
2, 165960, Note_on_c, 0, 70, 0
2, 166080, Note_on_c, 0, 68, 36
2, 166320, Note_on_c, 0, 68, 0
2, 166320, Note_on_c, 0, 67, 39
2, 166500, Note_on_c, 0, 67, 0
2, 166560, Note_on_c, 0, 65, 42
2, 166680, Note_on_c, 0, 65, 0
2, 166800, Note_on_c, 0, 63, 45
2, 166920, Note_on_c, 0, 63, 0
2, 167040, Note_on_c, 0, 72, 48
2, 167160, Note_on_c, 0, 72, 0
2, 167280, Note_on_c, 0, 84, 43
2, 167400, Note_on_c, 0, 84, 0
2, 167520, Note_on_c, 0, 83, 48
2, 167640, Note_on_c, 0, 83, 0
2, 167760, Note_on_c, 0, 82, 43
2, 167880, Note_on_c, 0, 82, 0
2, 168000, Note_on_c, 0, 81, 48
2, 168120, Note_on_c, 0, 81, 0
2, 168240, Note_on_c, 0, 80, 46
2, 168360, Note_on_c, 0, 80, 0
2, 168480, Note_on_c, 0, 79, 49
2, 168600, Note_on_c, 0, 79, 0
2, 168720, Note_on_c, 0, 78, 42
2, 168840, Note_on_c, 0, 78, 0
2, 168960, Note_on_c, 0, 77, 45
2, 169080, Note_on_c, 0, 77, 0
2, 169200, Note_on_c, 0, 77, 40
2, 169320, Note_on_c, 0, 77, 0
2, 169440, Note_on_c, 0, 82, 48
2, 169560, Note_on_c, 0, 82, 0
2, 169680, Note_on_c, 0, 82, 43
2, 169800, Note_on_c, 0, 82, 0
2, 169920, Note_on_c, 0, 75, 50
2, 170400, Note_on_c, 0, 75, 0
2, 171600, Note_on_c, 0, 71, 37
2, 171840, Note_on_c, 0, 72, 39
2, 171852, Note_on_c, 0, 71, 0
2, 172080, Note_on_c, 0, 74, 40
2, 172092, Note_on_c, 0, 72, 0
2, 172320, Note_on_c, 0, 75, 42
2, 172332, Note_on_c, 0, 74, 0
2, 172560, Note_on_c, 0, 76, 44
2, 172572, Note_on_c, 0, 75, 0
2, 172800, Note_on_c, 0, 76, 0
2, 172800, Note_on_c, 0, 77, 46
2, 172920, Note_on_c, 0, 77, 0
2, 173040, Note_on_c, 0, 89, 54
2, 173280, Note_on_c, 0, 88, 50
2, 173292, Note_on_c, 0, 89, 0
2, 173520, Note_on_c, 0, 87, 52
2, 173532, Note_on_c, 0, 88, 0
2, 173760, Note_on_c, 0, 86, 53
2, 173772, Note_on_c, 0, 87, 0
2, 174000, Note_on_c, 0, 84, 55
2, 174012, Note_on_c, 0, 86, 0
2, 174240, Note_on_c, 0, 82, 57
2, 174252, Note_on_c, 0, 84, 0
2, 174480, Note_on_c, 0, 80, 59
2, 174492, Note_on_c, 0, 82, 0
2, 174720, Note_on_c, 0, 80, 0
2, 174720, Note_on_c, 0, 79, 59
2, 174840, Note_on_c, 0, 79, 0
2, 174960, Note_on_c, 0, 87, 51
2, 175080, Note_on_c, 0, 87, 0
2, 175200, Note_on_c, 0, 77, 58
2, 175320, Note_on_c, 0, 77, 0
2, 175440, Note_on_c, 0, 86, 51
2, 175560, Note_on_c, 0, 86, 0
2, 175680, Note_on_c, 0, 75, 60
2, 175800, Note_on_c, 0, 75, 0
2, 175920, Note_on_c, 0, 84, 52
2, 176040, Note_on_c, 0, 84, 0
2, 176160, Note_on_c, 0, 74, 60
2, 176280, Note_on_c, 0, 74, 0
2, 176400, Note_on_c, 0, 82, 53
2, 176520, Note_on_c, 0, 82, 0
2, 176880, Note_on_c, 0, 82, 51
2, 177120, Note_on_c, 0, 82, 0
2, 177120, Note_on_c, 0, 79, 59
2, 177360, Note_on_c, 0, 79, 0
2, 177360, Note_on_c, 0, 76, 51
2, 177600, Note_on_c, 0, 76, 0
2, 177600, Note_on_c, 0, 77, 59
2, 177840, Note_on_c, 0, 77, 0
2, 177840, Note_on_c, 0, 81, 49
2, 178080, Note_on_c, 0, 81, 0
2, 178080, Note_on_c, 0, 84, 61
2, 178200, Note_on_c, 0, 84, 0
2, 178320, Note_on_c, 0, 84, 51
2, 178440, Note_on_c, 0, 84, 0
2, 178800, Note_on_c, 0, 84, 55
2, 178920, Note_on_c, 0, 82, 54
2, 178932, Note_on_c, 0, 84, 0
2, 179040, Note_on_c, 0, 81, 52
2, 179052, Note_on_c, 0, 82, 0
2, 179160, Note_on_c, 0, 79, 51
2, 179172, Note_on_c, 0, 81, 0
2, 179280, Note_on_c, 0, 77, 50
2, 179292, Note_on_c, 0, 79, 0
2, 179400, Note_on_c, 0, 76, 48
2, 179412, Note_on_c, 0, 77, 0
2, 179520, Note_on_c, 0, 76, 0
2, 179520, Note_on_c, 0, 77, 52
2, 179640, Note_on_c, 0, 77, 0
2, 179640, Note_on_c, 0, 72, 45
2, 179760, Note_on_c, 0, 72, 0
2, 179760, Note_on_c, 0, 77, 48
2, 179880, Note_on_c, 0, 77, 0
2, 179880, Note_on_c, 0, 81, 45
2, 180000, Note_on_c, 0, 81, 0
2, 180000, Note_on_c, 0, 84, 52
2, 180120, Note_on_c, 0, 84, 0
2, 180240, Note_on_c, 0, 84, 49
2, 180360, Note_on_c, 0, 84, 0
2, 180600, Note_on_c, 0, 81, 47
2, 180720, Note_on_c, 0, 84, 53
2, 180732, Note_on_c, 0, 81, 0
2, 180840, Note_on_c, 0, 82, 51
2, 180852, Note_on_c, 0, 84, 0
2, 180960, Note_on_c, 0, 81, 49
2, 180972, Note_on_c, 0, 82, 0
2, 181080, Note_on_c, 0, 79, 47
2, 181092, Note_on_c, 0, 81, 0
2, 181200, Note_on_c, 0, 77, 45
2, 181212, Note_on_c, 0, 79, 0
2, 181320, Note_on_c, 0, 76, 43
2, 181332, Note_on_c, 0, 77, 0
2, 181440, Note_on_c, 0, 76, 0
2, 181440, Note_on_c, 0, 77, 48
2, 181560, Note_on_c, 0, 78, 40
2, 181572, Note_on_c, 0, 77, 0
2, 181680, Note_on_c, 0, 81, 47
2, 181692, Note_on_c, 0, 78, 0
2, 181800, Note_on_c, 0, 79, 46
2, 181812, Note_on_c, 0, 81, 0
2, 181920, Note_on_c, 0, 77, 45
2, 181932, Note_on_c, 0, 79, 0
2, 182040, Note_on_c, 0, 75, 43
2, 182052, Note_on_c, 0, 77, 0
2, 182160, Note_on_c, 0, 74, 42
2, 182172, Note_on_c, 0, 75, 0
2, 182280, Note_on_c, 0, 73, 41
2, 182292, Note_on_c, 0, 74, 0
2, 182400, Note_on_c, 0, 73, 0
2, 182400, Note_on_c, 0, 74, 47
2, 182640, Note_on_c, 0, 74, 0
2, 182880, Note_on_c, 0, 75, 48
2, 183120, Note_on_c, 0, 75, 0
2, 183360, Note_on_c, 0, 76, 52
2, 183840, Note_on_c, 0, 76, 0
2, 183840, Note_on_c, 0, 77, 48
2, 184080, Note_on_c, 0, 77, 0
2, 184080, Note_on_c, 0, 74, 44
2, 184200, Note_on_c, 0, 74, 0
2, 184260, Note_on_c, 0, 74, 45
2, 184320, Note_on_c, 0, 74, 0
2, 184320, Note_on_c, 0, 72, 49
2, 184440, Note_on_c, 0, 72, 0
2, 184560, Note_on_c, 0, 71, 45
2, 184680, Note_on_c, 0, 71, 0
2, 184800, Note_on_c, 0, 72, 48
2, 184920, Note_on_c, 0, 72, 0
2, 185040, Note_on_c, 0, 74, 47
2, 185160, Note_on_c, 0, 74, 0
2, 185280, Note_on_c, 0, 77, 51
2, 185760, Note_on_c, 0, 77, 0
2, 185760, Note_on_c, 0, 75, 46
2, 186000, Note_on_c, 0, 75, 0
2, 186000, Note_on_c, 0, 69, 43
2, 186120, Note_on_c, 0, 69, 0
2, 186240, Note_on_c, 0, 70, 49
2, 186360, Note_on_c, 0, 70, 0
2, 186480, Note_on_c, 0, 70, 46
2, 186960, Note_on_c, 0, 70, 0
2, 186960, Note_on_c, 0, 71, 46
2, 187200, Note_on_c, 0, 71, 0
2, 187200, Note_on_c, 0, 72, 50
2, 187320, Note_on_c, 0, 72, 0
2, 187440, Note_on_c, 0, 72, 47
2, 187920, Note_on_c, 0, 72, 0
2, 187920, Note_on_c, 0, 73, 47
2, 188160, Note_on_c, 0, 73, 0
2, 188160, Note_on_c, 0, 74, 53
2, 188280, Note_on_c, 0, 74, 0
2, 188400, Note_on_c, 0, 72, 49
2, 188520, Note_on_c, 0, 72, 0
2, 188640, Note_on_c, 0, 74, 54
2, 188760, Note_on_c, 0, 74, 0
2, 188880, Note_on_c, 0, 72, 50
2, 188880, Note_on_c, 0, 75, 50
2, 189000, Note_on_c, 0, 75, 0
2, 189000, Note_on_c, 0, 72, 0
2, 189120, Note_on_c, 0, 70, 55
2, 189120, Note_on_c, 0, 74, 55
2, 189600, Note_on_c, 0, 74, 0
2, 189600, Note_on_c, 0, 70, 0
2, 189600, Note_on_c, 0, 69, 50
2, 189600, Note_on_c, 0, 72, 50
2, 189780, Note_on_c, 0, 72, 0
2, 189780, Note_on_c, 0, 69, 0
2, 189840, Note_on_c, 0, 70, 47
2, 189960, Note_on_c, 0, 70, 0
2, 189960, Note_on_c, 0, 72, 47
2, 190080, Note_on_c, 0, 72, 0
2, 190080, Note_on_c, 0, 74, 50
2, 190320, Note_on_c, 0, 74, 0
2, 190560, Note_on_c, 0, 75, 51
2, 190800, Note_on_c, 0, 75, 0
2, 191040, Note_on_c, 0, 76, 52
2, 191520, Note_on_c, 0, 76, 0
2, 191520, Note_on_c, 0, 77, 52
2, 191760, Note_on_c, 0, 77, 0
2, 191760, Note_on_c, 0, 74, 51
2, 191880, Note_on_c, 0, 74, 0
2, 191940, Note_on_c, 0, 74, 52
2, 192000, Note_on_c, 0, 74, 0
2, 192000, Note_on_c, 0, 72, 54
2, 192120, Note_on_c, 0, 72, 0
2, 192240, Note_on_c, 0, 71, 50
2, 192360, Note_on_c, 0, 71, 0
2, 192480, Note_on_c, 0, 72, 52
2, 192600, Note_on_c, 0, 72, 0
2, 192720, Note_on_c, 0, 74, 50
2, 192840, Note_on_c, 0, 74, 0
2, 192960, Note_on_c, 0, 77, 54
2, 193440, Note_on_c, 0, 77, 0
2, 193440, Note_on_c, 0, 75, 46
2, 193680, Note_on_c, 0, 75, 0
2, 193680, Note_on_c, 0, 69, 46
2, 193800, Note_on_c, 0, 69, 0
2, 193920, Note_on_c, 0, 70, 56
2, 194040, Note_on_c, 0, 70, 0
2, 194160, Note_on_c, 0, 82, 50
2, 194400, Note_on_c, 0, 82, 0
2, 194400, Note_on_c, 0, 82, 53
2, 194520, Note_on_c, 0, 82, 0
2, 194640, Note_on_c, 0, 82, 48
2, 194760, Note_on_c, 0, 82, 0
2, 194880, Note_on_c, 0, 72, 56
2, 195000, Note_on_c, 0, 72, 0
2, 195120, Note_on_c, 0, 79, 50
2, 195360, Note_on_c, 0, 79, 0
2, 195360, Note_on_c, 0, 79, 53
2, 195480, Note_on_c, 0, 79, 0
2, 195600, Note_on_c, 0, 79, 50
2, 195720, Note_on_c, 0, 79, 0
2, 195840, Note_on_c, 0, 70, 54
2, 195960, Note_on_c, 0, 70, 0
2, 196080, Note_on_c, 0, 70, 50
2, 196200, Note_on_c, 0, 70, 0
2, 196320, Note_on_c, 0, 72, 50
2, 196380, Note_on_c, 0, 72, 0
2, 196380, Note_on_c, 0, 74, 45
2, 196440, Note_on_c, 0, 74, 0
2, 196440, Note_on_c, 0, 72, 45
2, 196500, Note_on_c, 0, 72, 0
2, 196500, Note_on_c, 0, 70, 45
2, 196560, Note_on_c, 0, 70, 0
2, 196560, Note_on_c, 0, 72, 50
2, 196680, Note_on_c, 0, 72, 0
2, 196680, Note_on_c, 0, 74, 45
2, 196800, Note_on_c, 0, 74, 0
2, 196800, Note_on_c, 0, 70, 55
2, 197280, Note_on_c, 0, 70, 0
2, 197520, Note_on_c, 0, 70, 60
2, 197640, Note_on_c, 0, 70, 0
2, 197760, Note_on_c, 0, 79, 55
2, 197760, Note_on_c, 0, 82, 66
2, 197880, Note_on_c, 0, 82, 0
2, 197880, Note_on_c, 0, 79, 0
2, 198000, Note_on_c, 0, 79, 54
2, 198000, Note_on_c, 0, 82, 64
2, 198480, Note_on_c, 0, 82, 0
2, 198480, Note_on_c, 0, 79, 0
2, 198480, Note_on_c, 0, 75, 49
2, 198480, Note_on_c, 0, 79, 59
2, 198720, Note_on_c, 0, 79, 0
2, 198720, Note_on_c, 0, 75, 0
2, 198720, Note_on_c, 0, 74, 55
2, 198720, Note_on_c, 0, 77, 66
2, 198840, Note_on_c, 0, 77, 0
2, 198840, Note_on_c, 0, 74, 0
2, 198960, Note_on_c, 0, 74, 54
2, 198960, Note_on_c, 0, 77, 64
2, 199440, Note_on_c, 0, 77, 0
2, 199440, Note_on_c, 0, 74, 0
2, 199440, Note_on_c, 0, 70, 49
2, 199440, Note_on_c, 0, 74, 59
2, 199680, Note_on_c, 0, 74, 0
2, 199680, Note_on_c, 0, 70, 0
2, 199680, Note_on_c, 0, 69, 55
2, 199680, Note_on_c, 0, 72, 66
2, 199800, Note_on_c, 0, 72, 0
2, 199800, Note_on_c, 0, 69, 0
2, 199920, Note_on_c, 0, 69, 54
2, 199920, Note_on_c, 0, 72, 64
2, 200400, Note_on_c, 0, 72, 0
2, 200400, Note_on_c, 0, 69, 0
2, 200400, Note_on_c, 0, 72, 49
2, 200400, Note_on_c, 0, 75, 59
2, 200640, Note_on_c, 0, 75, 0
2, 200640, Note_on_c, 0, 72, 0
2, 200640, Note_on_c, 0, 69, 55
2, 200640, Note_on_c, 0, 73, 66
2, 200880, Note_on_c, 0, 73, 0
2, 200880, Note_on_c, 0, 69, 0
2, 200880, Note_on_c, 0, 70, 55
2, 200880, Note_on_c, 0, 74, 66
2, 201120, Note_on_c, 0, 74, 0
2, 201120, Note_on_c, 0, 70, 0
2, 201120, Note_on_c, 0, 70, 54
2, 201120, Note_on_c, 0, 74, 64
2, 201300, Note_on_c, 0, 74, 0
2, 201300, Note_on_c, 0, 70, 0
2, 201360, Note_on_c, 0, 70, 43
2, 201480, Note_on_c, 0, 70, 0
2, 201600, Note_on_c, 0, 79, 39
2, 201600, Note_on_c, 0, 82, 46
2, 201720, Note_on_c, 0, 82, 0
2, 201720, Note_on_c, 0, 79, 0
2, 201840, Note_on_c, 0, 79, 38
2, 201840, Note_on_c, 0, 82, 45
2, 202320, Note_on_c, 0, 82, 0
2, 202320, Note_on_c, 0, 79, 0
2, 202320, Note_on_c, 0, 75, 34
2, 202320, Note_on_c, 0, 79, 41
2, 202560, Note_on_c, 0, 79, 0
2, 202560, Note_on_c, 0, 75, 0
2, 202560, Note_on_c, 0, 74, 39
2, 202560, Note_on_c, 0, 77, 46
2, 202680, Note_on_c, 0, 77, 0
2, 202680, Note_on_c, 0, 74, 0
2, 202800, Note_on_c, 0, 74, 38
2, 202800, Note_on_c, 0, 77, 45
2, 203280, Note_on_c, 0, 77, 0
2, 203280, Note_on_c, 0, 74, 0
2, 203280, Note_on_c, 0, 70, 34
2, 203280, Note_on_c, 0, 74, 41
2, 203520, Note_on_c, 0, 74, 0
2, 203520, Note_on_c, 0, 70, 0
2, 203520, Note_on_c, 0, 69, 39
2, 203520, Note_on_c, 0, 72, 46
2, 203640, Note_on_c, 0, 72, 0
2, 203640, Note_on_c, 0, 69, 0
2, 203760, Note_on_c, 0, 69, 38
2, 203760, Note_on_c, 0, 72, 45
2, 204240, Note_on_c, 0, 72, 0
2, 204240, Note_on_c, 0, 69, 0
2, 204240, Note_on_c, 0, 72, 34
2, 204240, Note_on_c, 0, 75, 41
2, 204480, Note_on_c, 0, 75, 0
2, 204480, Note_on_c, 0, 72, 0
2, 204480, Note_on_c, 0, 69, 39
2, 204480, Note_on_c, 0, 73, 46
2, 204720, Note_on_c, 0, 73, 0
2, 204720, Note_on_c, 0, 69, 0
2, 204720, Note_on_c, 0, 70, 39
2, 204720, Note_on_c, 0, 74, 46
2, 204960, Note_on_c, 0, 74, 0
2, 204960, Note_on_c, 0, 70, 0
2, 204960, Note_on_c, 0, 70, 38
2, 204960, Note_on_c, 0, 74, 45
2, 205140, Note_on_c, 0, 74, 0
2, 205140, Note_on_c, 0, 70, 0
2, 205200, Note_on_c, 0, 70, 53
2, 205320, Note_on_c, 0, 70, 0
2, 205440, Note_on_c, 0, 82, 55
2, 205560, Note_on_c, 0, 82, 0
2, 205680, Note_on_c, 0, 82, 50
2, 205800, Note_on_c, 0, 82, 0
2, 205920, Note_on_c, 0, 82, 50
2, 206040, Note_on_c, 0, 82, 0
2, 206160, Note_on_c, 0, 82, 50
2, 206280, Note_on_c, 0, 82, 0
2, 206400, Note_on_c, 0, 76, 55
2, 206520, Note_on_c, 0, 76, 0
2, 206640, Note_on_c, 0, 76, 50
2, 206760, Note_on_c, 0, 76, 0
2, 206880, Note_on_c, 0, 76, 50
2, 207000, Note_on_c, 0, 76, 0
2, 207120, Note_on_c, 0, 76, 50
2, 207240, Note_on_c, 0, 76, 0
2, 207360, Note_on_c, 0, 84, 55
2, 207480, Note_on_c, 0, 84, 0
2, 207600, Note_on_c, 0, 84, 52
2, 207720, Note_on_c, 0, 84, 0
2, 207840, Note_on_c, 0, 84, 51
2, 207960, Note_on_c, 0, 84, 0
2, 208080, Note_on_c, 0, 84, 51
2, 208200, Note_on_c, 0, 84, 0
2, 208320, Note_on_c, 0, 75, 55
2, 208440, Note_on_c, 0, 75, 0
2, 208560, Note_on_c, 0, 75, 50
2, 208680, Note_on_c, 0, 75, 0
2, 208800, Note_on_c, 0, 75, 50
2, 208920, Note_on_c, 0, 75, 0
2, 209040, Note_on_c, 0, 75, 50
2, 209160, Note_on_c, 0, 75, 0
2, 209280, Note_on_c, 0, 74, 60
2, 209400, Note_on_c, 0, 74, 0
2, 209520, Note_on_c, 0, 82, 67
2, 209640, Note_on_c, 0, 82, 0
2, 209760, Note_on_c, 0, 81, 66
2, 209880, Note_on_c, 0, 81, 0
2, 210000, Note_on_c, 0, 80, 63
2, 210120, Note_on_c, 0, 80, 0
2, 210240, Note_on_c, 0, 79, 62
2, 210360, Note_on_c, 0, 79, 0
2, 210480, Note_on_c, 0, 78, 60
2, 210600, Note_on_c, 0, 78, 0
2, 210720, Note_on_c, 0, 77, 58
2, 210840, Note_on_c, 0, 77, 0
2, 210960, Note_on_c, 0, 76, 56
2, 211080, Note_on_c, 0, 76, 0
2, 211200, Note_on_c, 0, 77, 63
2, 211440, Note_on_c, 0, 77, 0
2, 211440, Note_on_c, 0, 74, 55
2, 211680, Note_on_c, 0, 74, 0
2, 211680, Note_on_c, 0, 69, 47
2, 211680, Note_on_c, 0, 72, 55
2, 211920, Note_on_c, 0, 72, 0
2, 211920, Note_on_c, 0, 77, 55
2, 212160, Note_on_c, 0, 77, 0
2, 212160, Note_on_c, 0, 69, 0
2, 212160, Note_on_c, 0, 72, 55
2, 212160, Note_on_c, 0, 75, 64
2, 212640, Note_on_c, 0, 75, 0
2, 212640, Note_on_c, 0, 72, 0
2, 212640, Note_on_c, 0, 70, 52
2, 212640, Note_on_c, 0, 74, 62
2, 212880, Note_on_c, 0, 74, 0
2, 212880, Note_on_c, 0, 70, 0
2, 213360, Note_on_c, 0, 78, 50
2, 213600, Note_on_c, 0, 78, 0
2, 213600, Note_on_c, 0, 79, 55
2, 213840, Note_on_c, 0, 79, 0
2, 213840, Note_on_c, 0, 82, 51
2, 214080, Note_on_c, 0, 82, 0
2, 214080, Note_on_c, 0, 85, 58
2, 214440, Note_on_c, 0, 85, 0
2, 214440, Note_on_c, 0, 87, 49
2, 214500, Note_on_c, 0, 87, 0
2, 214500, Note_on_c, 0, 85, 49
2, 214560, Note_on_c, 0, 85, 0
2, 214560, Note_on_c, 0, 84, 55
2, 214800, Note_on_c, 0, 84, 0
2, 214800, Note_on_c, 0, 82, 49
2, 215040, Note_on_c, 0, 82, 0
2, 215040, Note_on_c, 0, 81, 56
2, 215280, Note_on_c, 0, 81, 0
2, 215280, Note_on_c, 0, 69, 45
2, 215520, Note_on_c, 0, 69, 0
2, 215520, Note_on_c, 0, 72, 49
2, 215760, Note_on_c, 0, 72, 0
2, 215760, Note_on_c, 0, 75, 45
2, 216000, Note_on_c, 0, 75, 0
2, 216000, Note_on_c, 0, 78, 49
2, 216360, Note_on_c, 0, 78, 0
2, 216360, Note_on_c, 0, 80, 48
2, 216420, Note_on_c, 0, 80, 0
2, 216420, Note_on_c, 0, 78, 48
2, 216480, Note_on_c, 0, 78, 0
2, 216480, Note_on_c, 0, 77, 55
2, 216720, Note_on_c, 0, 77, 0
2, 216720, Note_on_c, 0, 75, 51
2, 216960, Note_on_c, 0, 75, 0
2, 216960, Note_on_c, 0, 74, 55
2, 217200, Note_on_c, 0, 74, 0
2, 217200, Note_on_c, 0, 70, 59
2, 217320, Note_on_c, 0, 70, 0
2, 217440, Note_on_c, 0, 72, 60
2, 217560, Note_on_c, 0, 72, 0
2, 217680, Note_on_c, 0, 74, 61
2, 217800, Note_on_c, 0, 74, 0
2, 217920, Note_on_c, 0, 75, 63
2, 218040, Note_on_c, 0, 75, 0
2, 218160, Note_on_c, 0, 76, 64
2, 218280, Note_on_c, 0, 76, 0
2, 218400, Note_on_c, 0, 77, 66
2, 218520, Note_on_c, 0, 77, 0
2, 218640, Note_on_c, 0, 78, 69
2, 218760, Note_on_c, 0, 78, 0
2, 218880, Note_on_c, 0, 79, 74
2, 219240, Note_on_c, 0, 79, 0
2, 219360, Note_on_c, 0, 73, 64
2, 219360, Note_on_c, 0, 79, 64
2, 219360, Note_on_c, 0, 82, 77
2, 219840, Note_on_c, 0, 82, 0
2, 219840, Note_on_c, 0, 79, 0
2, 219840, Note_on_c, 0, 73, 0
2, 220080, Note_on_c, 0, 79, 59
2, 220320, Note_on_c, 0, 79, 0
2, 220320, Note_on_c, 0, 81, 61
2, 220560, Note_on_c, 0, 81, 0
2, 220560, Note_on_c, 0, 82, 64
2, 220800, Note_on_c, 0, 82, 0
2, 220800, Note_on_c, 0, 82, 67
2, 220920, Note_on_c, 0, 82, 0
2, 220920, Note_on_c, 0, 84, 60
2, 221040, Note_on_c, 0, 84, 0
2, 221040, Note_on_c, 0, 86, 60
2, 221160, Note_on_c, 0, 86, 0
2, 221160, Note_on_c, 0, 87, 60
2, 221280, Note_on_c, 0, 87, 0
2, 221280, Note_on_c, 0, 89, 67
2, 221400, Note_on_c, 0, 89, 0
2, 221400, Note_on_c, 0, 87, 61
2, 221520, Note_on_c, 0, 87, 0
2, 221520, Note_on_c, 0, 86, 61
2, 221640, Note_on_c, 0, 86, 0
2, 221640, Note_on_c, 0, 84, 61
2, 221760, Note_on_c, 0, 84, 0
2, 221760, Note_on_c, 0, 82, 67
2, 221880, Note_on_c, 0, 82, 0
2, 221880, Note_on_c, 0, 81, 67
2, 222000, Note_on_c, 0, 81, 0
2, 222000, Note_on_c, 0, 79, 66
2, 222120, Note_on_c, 0, 79, 0
2, 222120, Note_on_c, 0, 77, 64
2, 222240, Note_on_c, 0, 77, 0
2, 222240, Note_on_c, 0, 75, 64
2, 222360, Note_on_c, 0, 75, 0
2, 222360, Note_on_c, 0, 74, 63
2, 222480, Note_on_c, 0, 74, 0
2, 222480, Note_on_c, 0, 72, 62
2, 222600, Note_on_c, 0, 72, 0
2, 222600, Note_on_c, 0, 70, 62
2, 222720, Note_on_c, 0, 70, 0
2, 222720, Note_on_c, 0, 72, 50
2, 222780, Note_on_c, 0, 72, 0
2, 222780, Note_on_c, 0, 74, 41
2, 222840, Note_on_c, 0, 74, 0
2, 222840, Note_on_c, 0, 72, 49
2, 222900, Note_on_c, 0, 72, 0
2, 222900, Note_on_c, 0, 74, 41
2, 222960, Note_on_c, 0, 74, 0
2, 222960, Note_on_c, 0, 72, 49
2, 223020, Note_on_c, 0, 72, 0
2, 223020, Note_on_c, 0, 74, 40
2, 223080, Note_on_c, 0, 74, 0
2, 223080, Note_on_c, 0, 72, 50
2, 223140, Note_on_c, 0, 72, 0
2, 223140, Note_on_c, 0, 74, 44
2, 223200, Note_on_c, 0, 74, 0
2, 223200, Note_on_c, 0, 72, 49
2, 223260, Note_on_c, 0, 72, 0
2, 223260, Note_on_c, 0, 74, 44
2, 223320, Note_on_c, 0, 74, 0
2, 223320, Note_on_c, 0, 72, 50
2, 223380, Note_on_c, 0, 72, 0
2, 223380, Note_on_c, 0, 74, 44
2, 223440, Note_on_c, 0, 74, 0
2, 223440, Note_on_c, 0, 72, 51
2, 223500, Note_on_c, 0, 72, 0
2, 223500, Note_on_c, 0, 74, 45
2, 223560, Note_on_c, 0, 74, 0
2, 223560, Note_on_c, 0, 72, 53
2, 223620, Note_on_c, 0, 72, 0
2, 223620, Note_on_c, 0, 74, 46
2, 223680, Note_on_c, 0, 74, 0
2, 223680, Note_on_c, 0, 72, 55
2, 223740, Note_on_c, 0, 72, 0
2, 223740, Note_on_c, 0, 74, 47
2, 223800, Note_on_c, 0, 74, 0
2, 223800, Note_on_c, 0, 72, 52
2, 223860, Note_on_c, 0, 72, 0
2, 223860, Note_on_c, 0, 74, 45
2, 223920, Note_on_c, 0, 74, 0
2, 223920, Note_on_c, 0, 72, 51
2, 223980, Note_on_c, 0, 72, 0
2, 223980, Note_on_c, 0, 74, 44
2, 224040, Note_on_c, 0, 74, 0
2, 224040, Note_on_c, 0, 72, 50
2, 224100, Note_on_c, 0, 72, 0
2, 224100, Note_on_c, 0, 74, 44
2, 224160, Note_on_c, 0, 74, 0
2, 224160, Note_on_c, 0, 72, 49
2, 224220, Note_on_c, 0, 72, 0
2, 224220, Note_on_c, 0, 74, 42
2, 224280, Note_on_c, 0, 74, 0
2, 224280, Note_on_c, 0, 72, 47
2, 224340, Note_on_c, 0, 72, 0
2, 224340, Note_on_c, 0, 74, 40
2, 224400, Note_on_c, 0, 74, 0
2, 224400, Note_on_c, 0, 72, 46
2, 224480, Note_on_c, 0, 72, 0
2, 224480, Note_on_c, 0, 70, 52
2, 224560, Note_on_c, 0, 70, 0
2, 224560, Note_on_c, 0, 72, 47
2, 224640, Note_on_c, 0, 72, 0
2, 224640, Note_on_c, 0, 70, 55
2, 224880, Note_on_c, 0, 70, 0
2, 225840, Note_on_c, 0, 77, 35
2, 225840, Note_on_c, 0, 74, 35
2, 226080, Note_on_c, 0, 74, 0
2, 226080, Note_on_c, 0, 77, 0
2, 226080, Note_on_c, 0, 72, 36
2, 226080, Note_on_c, 0, 75, 36
2, 226320, Note_on_c, 0, 75, 0
2, 226320, Note_on_c, 0, 72, 0
2, 226320, Note_on_c, 0, 70, 32
2, 226320, Note_on_c, 0, 74, 32
2, 226560, Note_on_c, 0, 74, 0
2, 226560, Note_on_c, 0, 70, 0
2, 226560, Note_on_c, 0, 79, 39
2, 226560, Note_on_c, 0, 75, 39
2, 227040, Note_on_c, 0, 75, 0
2, 227040, Note_on_c, 0, 79, 0
2, 227760, Note_on_c, 0, 79, 36
2, 227760, Note_on_c, 0, 75, 36
2, 228000, Note_on_c, 0, 75, 0
2, 228000, Note_on_c, 0, 79, 0
2, 228000, Note_on_c, 0, 81, 41
2, 228000, Note_on_c, 0, 77, 41
2, 228240, Note_on_c, 0, 77, 0
2, 228240, Note_on_c, 0, 81, 0
2, 228240, Note_on_c, 0, 79, 35
2, 228240, Note_on_c, 0, 82, 35
2, 228480, Note_on_c, 0, 82, 0
2, 228480, Note_on_c, 0, 79, 0
2, 228480, Note_on_c, 0, 77, 43
2, 228480, Note_on_c, 0, 74, 43
2, 228960, Note_on_c, 0, 74, 0
2, 228960, Note_on_c, 0, 77, 0
2, 229680, Note_on_c, 0, 70, 32
2, 229680, Note_on_c, 0, 74, 32
2, 229920, Note_on_c, 0, 74, 0
2, 229920, Note_on_c, 0, 70, 0
2, 229920, Note_on_c, 0, 75, 39
2, 229920, Note_on_c, 0, 72, 39
2, 230160, Note_on_c, 0, 72, 0
2, 230160, Note_on_c, 0, 75, 0
2, 230160, Note_on_c, 0, 74, 33
2, 230160, Note_on_c, 0, 77, 33
2, 230400, Note_on_c, 0, 77, 0
2, 230400, Note_on_c, 0, 74, 0
2, 230400, Note_on_c, 0, 72, 38
2, 230400, Note_on_c, 0, 75, 38
2, 230880, Note_on_c, 0, 75, 0
2, 230880, Note_on_c, 0, 72, 0
2, 231600, Note_on_c, 0, 62, 41
2, 231600, Note_on_c, 0, 65, 49
2, 231840, Note_on_c, 0, 64, 47
2, 231840, Note_on_c, 0, 67, 56
2, 231852, Note_on_c, 0, 65, 0
2, 231852, Note_on_c, 0, 62, 0
2, 232080, Note_on_c, 0, 63, 53
2, 232080, Note_on_c, 0, 69, 64
2, 232092, Note_on_c, 0, 64, 0
2, 232092, Note_on_c, 0, 67, 0
2, 232320, Note_on_c, 0, 63, 0
2, 232320, Note_on_c, 0, 69, 0
2, 232320, Note_on_c, 0, 62, 61
2, 232320, Note_on_c, 0, 70, 72
2, 232560, Note_on_c, 0, 70, 0
2, 232560, Note_on_c, 0, 62, 0
2, 232800, Note_on_c, 0, 65, 60
2, 232800, Note_on_c, 0, 74, 70
2, 233040, Note_on_c, 0, 74, 0
2, 233040, Note_on_c, 0, 65, 0
2, 233280, Note_on_c, 0, 62, 60
2, 233280, Note_on_c, 0, 70, 70
2, 233520, Note_on_c, 0, 70, 0
2, 233520, Note_on_c, 0, 62, 0
2, 233520, End_track
3, 0, Start_track
3, 0, Title_t, "Piano left"
3, 0, Program_c, 0, 0
3, 1920, Note_on_c, 0, 58, 30
3, 2160, Note_on_c, 0, 58, 0
3, 2160, Note_on_c, 0, 65, 23
3, 2400, Note_on_c, 0, 65, 0
3, 2400, Note_on_c, 0, 60, 23
3, 2640, Note_on_c, 0, 60, 0
3, 2640, Note_on_c, 0, 65, 23
3, 2880, Note_on_c, 0, 65, 0
3, 2880, Note_on_c, 0, 62, 23
3, 3120, Note_on_c, 0, 62, 0
3, 3120, Note_on_c, 0, 65, 23
3, 3360, Note_on_c, 0, 65, 0
3, 3360, Note_on_c, 0, 58, 23
3, 3600, Note_on_c, 0, 58, 0
3, 3600, Note_on_c, 0, 65, 25
3, 3840, Note_on_c, 0, 65, 0
3, 3840, Note_on_c, 0, 57, 30
3, 3960, Note_on_c, 0, 57, 0
3, 4080, Note_on_c, 0, 65, 23
3, 4200, Note_on_c, 0, 65, 0
3, 4320, Note_on_c, 0, 58, 25
3, 4440, Note_on_c, 0, 58, 0
3, 4560, Note_on_c, 0, 65, 25
3, 4680, Note_on_c, 0, 65, 0
3, 4800, Note_on_c, 0, 60, 25
3, 5040, Note_on_c, 0, 60, 0
3, 5040, Note_on_c, 0, 65, 25
3, 5280, Note_on_c, 0, 65, 0
3, 5280, Note_on_c, 0, 63, 25
3, 5520, Note_on_c, 0, 63, 0
3, 5520, Note_on_c, 0, 65, 24
3, 5760, Note_on_c, 0, 65, 0
3, 5760, Note_on_c, 0, 62, 31
3, 6000, Note_on_c, 0, 62, 0
3, 6000, Note_on_c, 0, 65, 24
3, 6240, Note_on_c, 0, 65, 0
3, 6240, Note_on_c, 0, 62, 31
3, 6480, Note_on_c, 0, 62, 0
3, 6480, Note_on_c, 0, 65, 24
3, 6720, Note_on_c, 0, 65, 0
3, 6720, Note_on_c, 0, 57, 32
3, 6960, Note_on_c, 0, 57, 0
3, 6960, Note_on_c, 0, 65, 26
3, 7200, Note_on_c, 0, 65, 0
3, 7200, Note_on_c, 0, 57, 32
3, 7440, Note_on_c, 0, 57, 0
3, 7440, Note_on_c, 0, 65, 27
3, 7680, Note_on_c, 0, 65, 0
3, 7680, Note_on_c, 0, 58, 32
3, 7800, Note_on_c, 0, 58, 0
3, 7920, Note_on_c, 0, 57, 28
3, 8040, Note_on_c, 0, 57, 0
3, 8160, Note_on_c, 0, 58, 28
3, 8280, Note_on_c, 0, 58, 0
3, 8400, Note_on_c, 0, 51, 28
3, 8520, Note_on_c, 0, 51, 0
3, 8640, Note_on_c, 0, 53, 32
3, 9120, Note_on_c, 0, 53, 0
3, 9600, Note_on_c, 0, 58, 30
3, 9840, Note_on_c, 0, 58, 0
3, 9840, Note_on_c, 0, 65, 23
3, 10080, Note_on_c, 0, 65, 0
3, 10080, Note_on_c, 0, 60, 23
3, 10320, Note_on_c, 0, 60, 0
3, 10320, Note_on_c, 0, 65, 23
3, 10560, Note_on_c, 0, 65, 0
3, 10560, Note_on_c, 0, 62, 23
3, 10800, Note_on_c, 0, 62, 0
3, 10800, Note_on_c, 0, 65, 23
3, 11040, Note_on_c, 0, 65, 0
3, 11040, Note_on_c, 0, 58, 23
3, 11280, Note_on_c, 0, 58, 0
3, 11280, Note_on_c, 0, 65, 25
3, 11520, Note_on_c, 0, 65, 0
3, 11520, Note_on_c, 0, 57, 30
3, 11640, Note_on_c, 0, 57, 0
3, 11760, Note_on_c, 0, 65, 23
3, 11880, Note_on_c, 0, 65, 0
3, 12000, Note_on_c, 0, 58, 25
3, 12120, Note_on_c, 0, 58, 0
3, 12240, Note_on_c, 0, 65, 25
3, 12360, Note_on_c, 0, 65, 0
3, 12480, Note_on_c, 0, 60, 25
3, 12720, Note_on_c, 0, 60, 0
3, 12720, Note_on_c, 0, 65, 25
3, 12960, Note_on_c, 0, 65, 0
3, 12960, Note_on_c, 0, 63, 25
3, 13200, Note_on_c, 0, 63, 0
3, 13200, Note_on_c, 0, 65, 24
3, 13440, Note_on_c, 0, 65, 0
3, 13440, Note_on_c, 0, 62, 31
3, 13920, Note_on_c, 0, 62, 0
3, 14400, Note_on_c, 0, 67, 32
3, 14400, Note_on_c, 0, 63, 23
3, 14880, Note_on_c, 0, 63, 0
3, 14880, Note_on_c, 0, 67, 0
3, 15360, Note_on_c, 0, 53, 25
3, 15360, Note_on_c, 0, 62, 30
3, 15840, Note_on_c, 0, 62, 0
3, 15840, Note_on_c, 0, 63, 28
3, 16320, Note_on_c, 0, 63, 0
3, 16320, Note_on_c, 0, 53, 0
3, 16320, Note_on_c, 0, 58, 28
3, 16320, Note_on_c, 0, 62, 32
3, 16800, Note_on_c, 0, 62, 0
3, 16800, Note_on_c, 0, 58, 0
3, 17280, Note_on_c, 0, 53, 30
3, 17520, Note_on_c, 0, 53, 0
3, 17520, Note_on_c, 0, 57, 23
3, 17760, Note_on_c, 0, 57, 0
3, 17760, Note_on_c, 0, 55, 23
3, 18000, Note_on_c, 0, 55, 0
3, 18000, Note_on_c, 0, 58, 23
3, 18240, Note_on_c, 0, 58, 0
3, 18240, Note_on_c, 0, 57, 23
3, 18480, Note_on_c, 0, 57, 0
3, 18480, Note_on_c, 0, 60, 23
3, 18720, Note_on_c, 0, 60, 0
3, 18720, Note_on_c, 0, 58, 23
3, 18960, Note_on_c, 0, 58, 0
3, 18960, Note_on_c, 0, 65, 25
3, 19200, Note_on_c, 0, 65, 0
3, 19200, Note_on_c, 0, 63, 30
3, 19920, Note_on_c, 0, 63, 0
3, 19920, Note_on_c, 0, 64, 30
3, 20160, Note_on_c, 0, 64, 0
3, 20160, Note_on_c, 0, 65, 25
3, 20640, Note_on_c, 0, 65, 0
3, 21120, Note_on_c, 0, 53, 30
3, 21360, Note_on_c, 0, 53, 0
3, 21360, Note_on_c, 0, 57, 23
3, 21600, Note_on_c, 0, 57, 0
3, 21600, Note_on_c, 0, 55, 23
3, 21840, Note_on_c, 0, 55, 0
3, 21840, Note_on_c, 0, 58, 23
3, 22080, Note_on_c, 0, 58, 0
3, 22080, Note_on_c, 0, 57, 23
3, 22320, Note_on_c, 0, 57, 0
3, 22320, Note_on_c, 0, 60, 23
3, 22560, Note_on_c, 0, 60, 0
3, 22560, Note_on_c, 0, 58, 23
3, 22800, Note_on_c, 0, 58, 0
3, 22800, Note_on_c, 0, 65, 25
3, 23040, Note_on_c, 0, 65, 0
3, 23040, Note_on_c, 0, 67, 30
3, 23040, Note_on_c, 0, 70, 37
3, 24000, Note_on_c, 0, 70, 0
3, 24000, Note_on_c, 0, 67, 0
3, 24000, Note_on_c, 0, 69, 30
3, 24000, Note_on_c, 0, 65, 25
3, 24480, Note_on_c, 0, 65, 0
3, 24480, Note_on_c, 0, 69, 0
3, 24960, Note_on_c, 0, 67, 30
3, 24960, Note_on_c, 0, 70, 37
3, 25920, Note_on_c, 0, 70, 0
3, 25920, Note_on_c, 0, 67, 0
3, 25920, Note_on_c, 0, 65, 25
3, 25920, Note_on_c, 0, 69, 30
3, 26400, Note_on_c, 0, 69, 0
3, 26400, Note_on_c, 0, 65, 0
3, 26880, Note_on_c, 0, 67, 30
3, 26880, Note_on_c, 0, 70, 37
3, 27840, Note_on_c, 0, 70, 0
3, 27840, Note_on_c, 0, 67, 0
3, 27840, Note_on_c, 0, 65, 25
3, 27840, Note_on_c, 0, 69, 30
3, 28320, Note_on_c, 0, 69, 0
3, 28320, Note_on_c, 0, 65, 0
3, 28800, Note_on_c, 0, 58, 30
3, 29040, Note_on_c, 0, 58, 0
3, 29040, Note_on_c, 0, 65, 23
3, 29280, Note_on_c, 0, 65, 0
3, 29280, Note_on_c, 0, 60, 23
3, 29520, Note_on_c, 0, 60, 0
3, 29520, Note_on_c, 0, 65, 23
3, 29760, Note_on_c, 0, 65, 0
3, 29760, Note_on_c, 0, 62, 23
3, 30000, Note_on_c, 0, 62, 0
3, 30000, Note_on_c, 0, 65, 23
3, 30240, Note_on_c, 0, 65, 0
3, 30240, Note_on_c, 0, 58, 23
3, 30480, Note_on_c, 0, 58, 0
3, 30480, Note_on_c, 0, 65, 25
3, 30720, Note_on_c, 0, 65, 0
3, 30720, Note_on_c, 0, 57, 30
3, 30840, Note_on_c, 0, 57, 0
3, 30960, Note_on_c, 0, 65, 23
3, 31080, Note_on_c, 0, 65, 0
3, 31200, Note_on_c, 0, 58, 25
3, 31320, Note_on_c, 0, 58, 0
3, 31440, Note_on_c, 0, 65, 25
3, 31560, Note_on_c, 0, 65, 0
3, 31680, Note_on_c, 0, 60, 25
3, 31920, Note_on_c, 0, 60, 0
3, 31920, Note_on_c, 0, 65, 25
3, 32160, Note_on_c, 0, 65, 0
3, 32160, Note_on_c, 0, 63, 25
3, 32400, Note_on_c, 0, 63, 0
3, 32400, Note_on_c, 0, 65, 24
3, 32640, Note_on_c, 0, 65, 0
3, 32640, Note_on_c, 0, 62, 31
3, 32880, Note_on_c, 0, 62, 0
3, 32880, Note_on_c, 0, 65, 24
3, 33120, Note_on_c, 0, 65, 0
3, 33120, Note_on_c, 0, 62, 31
3, 33360, Note_on_c, 0, 62, 0
3, 33360, Note_on_c, 0, 65, 24
3, 33600, Note_on_c, 0, 65, 0
3, 33600, Note_on_c, 0, 57, 32
3, 33840, Note_on_c, 0, 57, 0
3, 33840, Note_on_c, 0, 65, 26
3, 34080, Note_on_c, 0, 65, 0
3, 34080, Note_on_c, 0, 57, 32
3, 34320, Note_on_c, 0, 57, 0
3, 34320, Note_on_c, 0, 65, 27
3, 34560, Note_on_c, 0, 65, 0
3, 34560, Note_on_c, 0, 58, 32
3, 34680, Note_on_c, 0, 58, 0
3, 34800, Note_on_c, 0, 57, 28
3, 34920, Note_on_c, 0, 57, 0
3, 35040, Note_on_c, 0, 58, 28
3, 35160, Note_on_c, 0, 58, 0
3, 35280, Note_on_c, 0, 51, 28
3, 35400, Note_on_c, 0, 51, 0
3, 35520, Note_on_c, 0, 53, 32
3, 36000, Note_on_c, 0, 53, 0
3, 36480, Note_on_c, 0, 58, 30
3, 36720, Note_on_c, 0, 58, 0
3, 36720, Note_on_c, 0, 65, 23
3, 36960, Note_on_c, 0, 65, 0
3, 36960, Note_on_c, 0, 60, 23
3, 37200, Note_on_c, 0, 60, 0
3, 37200, Note_on_c, 0, 65, 23
3, 37440, Note_on_c, 0, 65, 0
3, 37440, Note_on_c, 0, 62, 23
3, 37680, Note_on_c, 0, 62, 0
3, 37680, Note_on_c, 0, 65, 23
3, 37920, Note_on_c, 0, 65, 0
3, 37920, Note_on_c, 0, 58, 23
3, 38160, Note_on_c, 0, 58, 0
3, 38160, Note_on_c, 0, 65, 25
3, 38400, Note_on_c, 0, 65, 0
3, 38400, Note_on_c, 0, 57, 30
3, 38640, Note_on_c, 0, 57, 0
3, 38640, Note_on_c, 0, 65, 23
3, 38880, Note_on_c, 0, 65, 0
3, 38880, Note_on_c, 0, 58, 25
3, 39120, Note_on_c, 0, 58, 0
3, 39120, Note_on_c, 0, 65, 25
3, 39360, Note_on_c, 0, 65, 0
3, 39360, Note_on_c, 0, 60, 25
3, 39600, Note_on_c, 0, 60, 0
3, 39600, Note_on_c, 0, 65, 25
3, 39840, Note_on_c, 0, 65, 0
3, 39840, Note_on_c, 0, 63, 25
3, 40080, Note_on_c, 0, 63, 0
3, 40080, Note_on_c, 0, 65, 24
3, 40320, Note_on_c, 0, 65, 0
3, 40320, Note_on_c, 0, 62, 31
3, 40800, Note_on_c, 0, 62, 0
3, 41280, Note_on_c, 0, 67, 32
3, 41280, Note_on_c, 0, 63, 27
3, 41760, Note_on_c, 0, 63, 0
3, 41760, Note_on_c, 0, 67, 0
3, 42240, Note_on_c, 0, 53, 21
3, 42240, Note_on_c, 0, 62, 30
3, 42720, Note_on_c, 0, 62, 0
3, 42720, Note_on_c, 0, 63, 28
3, 43200, Note_on_c, 0, 63, 0
3, 43200, Note_on_c, 0, 53, 0
3, 43200, Note_on_c, 0, 58, 28
3, 43200, Note_on_c, 0, 62, 32
3, 43680, Note_on_c, 0, 62, 0
3, 43680, Note_on_c, 0, 58, 0
3, 44160, Note_on_c, 0, 46, 59
3, 44280, Note_on_c, 0, 46, 0
3, 44400, Note_on_c, 0, 58, 54
3, 44580, Note_on_c, 0, 58, 0
3, 44640, Note_on_c, 0, 58, 54
3, 44820, Note_on_c, 0, 58, 0
3, 44880, Note_on_c, 0, 58, 54
3, 45060, Note_on_c, 0, 58, 0
3, 45120, Note_on_c, 0, 46, 59
3, 45240, Note_on_c, 0, 46, 0
3, 45360, Note_on_c, 0, 58, 54
3, 45540, Note_on_c, 0, 58, 0
3, 45600, Note_on_c, 0, 58, 54
3, 45780, Note_on_c, 0, 58, 0
3, 45840, Note_on_c, 0, 58, 54
3, 46020, Note_on_c, 0, 58, 0
3, 46080, Note_on_c, 0, 58, 57
3, 46080, Note_on_c, 0, 63, 57
3, 46560, Note_on_c, 0, 63, 0
3, 46560, Note_on_c, 0, 60, 52
3, 47040, Note_on_c, 0, 60, 0
3, 47040, Note_on_c, 0, 58, 0
3, 47040, Note_on_c, 0, 62, 52
3, 47040, Note_on_c, 0, 58, 52
3, 47520, Note_on_c, 0, 58, 0
3, 47520, Note_on_c, 0, 62, 0
3, 48000, Note_on_c, 0, 46, 59
3, 48120, Note_on_c, 0, 46, 0
3, 48240, Note_on_c, 0, 58, 54
3, 48420, Note_on_c, 0, 58, 0
3, 48480, Note_on_c, 0, 58, 54
3, 48660, Note_on_c, 0, 58, 0
3, 48720, Note_on_c, 0, 58, 54
3, 48900, Note_on_c, 0, 58, 0
3, 48960, Note_on_c, 0, 46, 59
3, 49080, Note_on_c, 0, 46, 0
3, 49200, Note_on_c, 0, 58, 54
3, 49380, Note_on_c, 0, 58, 0
3, 49440, Note_on_c, 0, 58, 54
3, 49620, Note_on_c, 0, 58, 0
3, 49680, Note_on_c, 0, 58, 54
3, 49860, Note_on_c, 0, 58, 0
3, 49920, Note_on_c, 0, 58, 57
3, 49920, Note_on_c, 0, 67, 57
3, 50400, Note_on_c, 0, 67, 0
3, 50400, Note_on_c, 0, 69, 52
3, 50880, Note_on_c, 0, 69, 0
3, 50880, Note_on_c, 0, 58, 0
3, 50880, Note_on_c, 0, 70, 52
3, 50880, Note_on_c, 0, 58, 52
3, 51360, Note_on_c, 0, 58, 0
3, 51360, Note_on_c, 0, 70, 0
3, 51840, Note_on_c, 0, 66, 36
3, 52080, Note_on_c, 0, 66, 0
3, 52080, Note_on_c, 0, 69, 30
3, 52320, Note_on_c, 0, 69, 0
3, 52320, Note_on_c, 0, 67, 30
3, 52560, Note_on_c, 0, 67, 0
3, 52560, Note_on_c, 0, 70, 30
3, 52800, Note_on_c, 0, 70, 0
3, 52800, Note_on_c, 0, 69, 36
3, 53040, Note_on_c, 0, 69, 0
3, 53040, Note_on_c, 0, 72, 32
3, 53280, Note_on_c, 0, 72, 0
3, 53280, Note_on_c, 0, 70, 32
3, 53520, Note_on_c, 0, 70, 0
3, 53520, Note_on_c, 0, 74, 32
3, 53760, Note_on_c, 0, 74, 0
3, 53760, Note_on_c, 0, 64, 36
3, 54000, Note_on_c, 0, 64, 0
3, 54000, Note_on_c, 0, 67, 32
3, 54240, Note_on_c, 0, 67, 0
3, 54240, Note_on_c, 0, 65, 32
3, 54480, Note_on_c, 0, 65, 0
3, 54480, Note_on_c, 0, 69, 32
3, 54720, Note_on_c, 0, 69, 0
3, 54720, Note_on_c, 0, 67, 36
3, 54960, Note_on_c, 0, 67, 0
3, 54960, Note_on_c, 0, 70, 31
3, 55200, Note_on_c, 0, 70, 0
3, 55200, Note_on_c, 0, 69, 31
3, 55440, Note_on_c, 0, 69, 0
3, 55440, Note_on_c, 0, 72, 31
3, 55680, Note_on_c, 0, 72, 0
3, 55680, Note_on_c, 0, 57, 36
3, 55680, Note_on_c, 0, 65, 36
3, 56160, Note_on_c, 0, 65, 0
3, 56160, Note_on_c, 0, 57, 0
3, 56640, Note_on_c, 0, 58, 36
3, 56640, Note_on_c, 0, 67, 36
3, 56640, Note_on_c, 0, 65, 36
3, 57120, Note_on_c, 0, 65, 0
3, 57120, Note_on_c, 0, 67, 0
3, 57120, Note_on_c, 0, 58, 0
3, 57600, Note_on_c, 0, 60, 36
3, 57600, Note_on_c, 0, 69, 36
3, 58080, Note_on_c, 0, 69, 0
3, 58080, Note_on_c, 0, 70, 31
3, 58560, Note_on_c, 0, 70, 0
3, 58560, Note_on_c, 0, 60, 0
3, 58560, Note_on_c, 0, 65, 36
3, 58560, Note_on_c, 0, 70, 36
3, 59040, Note_on_c, 0, 70, 0
3, 59040, Note_on_c, 0, 69, 33
3, 59220, Note_on_c, 0, 69, 0
3, 59274, Note_on_c, 0, 65, 0
3, 59520, Note_on_c, 0, 46, 59
3, 59640, Note_on_c, 0, 46, 0
3, 59760, Note_on_c, 0, 58, 54
3, 59940, Note_on_c, 0, 58, 0
3, 60000, Note_on_c, 0, 58, 54
3, 60180, Note_on_c, 0, 58, 0
3, 60240, Note_on_c, 0, 58, 54
3, 60420, Note_on_c, 0, 58, 0
3, 60480, Note_on_c, 0, 46, 59
3, 60600, Note_on_c, 0, 46, 0
3, 60720, Note_on_c, 0, 58, 54
3, 60900, Note_on_c, 0, 58, 0
3, 60960, Note_on_c, 0, 58, 54
3, 61140, Note_on_c, 0, 58, 0
3, 61200, Note_on_c, 0, 58, 54
3, 61380, Note_on_c, 0, 58, 0
3, 61440, Note_on_c, 0, 58, 57
3, 61440, Note_on_c, 0, 63, 57
3, 61920, Note_on_c, 0, 63, 0
3, 61920, Note_on_c, 0, 60, 52
3, 62400, Note_on_c, 0, 60, 0
3, 62400, Note_on_c, 0, 58, 0
3, 62400, Note_on_c, 0, 62, 52
3, 62400, Note_on_c, 0, 58, 52
3, 62880, Note_on_c, 0, 58, 0
3, 62880, Note_on_c, 0, 62, 0
3, 63360, Note_on_c, 0, 46, 59
3, 63480, Note_on_c, 0, 46, 0
3, 63600, Note_on_c, 0, 58, 54
3, 63780, Note_on_c, 0, 58, 0
3, 63840, Note_on_c, 0, 58, 54
3, 64020, Note_on_c, 0, 58, 0
3, 64080, Note_on_c, 0, 58, 54
3, 64260, Note_on_c, 0, 58, 0
3, 64320, Note_on_c, 0, 46, 59
3, 64440, Note_on_c, 0, 46, 0
3, 64560, Note_on_c, 0, 58, 54
3, 64740, Note_on_c, 0, 58, 0
3, 64800, Note_on_c, 0, 58, 54
3, 64980, Note_on_c, 0, 58, 0
3, 65040, Note_on_c, 0, 58, 54
3, 65220, Note_on_c, 0, 58, 0
3, 65280, Note_on_c, 0, 58, 57
3, 65280, Note_on_c, 0, 67, 57
3, 65760, Note_on_c, 0, 67, 0
3, 65760, Note_on_c, 0, 69, 52
3, 66240, Note_on_c, 0, 69, 0
3, 66240, Note_on_c, 0, 58, 0
3, 66240, Note_on_c, 0, 70, 52
3, 66240, Note_on_c, 0, 58, 52
3, 66720, Note_on_c, 0, 58, 0
3, 66720, Note_on_c, 0, 70, 0
3, 67200, Note_on_c, 0, 66, 36
3, 67440, Note_on_c, 0, 66, 0
3, 67440, Note_on_c, 0, 69, 30
3, 67680, Note_on_c, 0, 69, 0
3, 67680, Note_on_c, 0, 67, 30
3, 67920, Note_on_c, 0, 67, 0
3, 67920, Note_on_c, 0, 70, 30
3, 68160, Note_on_c, 0, 70, 0
3, 68160, Note_on_c, 0, 69, 36
3, 68400, Note_on_c, 0, 69, 0
3, 68400, Note_on_c, 0, 72, 32
3, 68640, Note_on_c, 0, 72, 0
3, 68640, Note_on_c, 0, 70, 32
3, 68880, Note_on_c, 0, 70, 0
3, 68880, Note_on_c, 0, 74, 32
3, 69120, Note_on_c, 0, 74, 0
3, 69120, Note_on_c, 0, 64, 36
3, 69360, Note_on_c, 0, 64, 0
3, 69360, Note_on_c, 0, 67, 32
3, 69600, Note_on_c, 0, 67, 0
3, 69600, Note_on_c, 0, 65, 32
3, 69840, Note_on_c, 0, 65, 0
3, 69840, Note_on_c, 0, 69, 32
3, 70080, Note_on_c, 0, 69, 0
3, 70080, Note_on_c, 0, 67, 36
3, 70320, Note_on_c, 0, 67, 0
3, 70320, Note_on_c, 0, 70, 31
3, 70560, Note_on_c, 0, 70, 0
3, 70560, Note_on_c, 0, 69, 31
3, 70800, Note_on_c, 0, 69, 0
3, 70800, Note_on_c, 0, 72, 31
3, 71040, Note_on_c, 0, 72, 0
3, 71040, Note_on_c, 0, 57, 36
3, 71040, Note_on_c, 0, 65, 36
3, 71520, Note_on_c, 0, 65, 0
3, 71520, Note_on_c, 0, 57, 0
3, 72000, Note_on_c, 0, 58, 36
3, 72000, Note_on_c, 0, 67, 36
3, 72000, Note_on_c, 0, 65, 36
3, 72480, Note_on_c, 0, 65, 0
3, 72480, Note_on_c, 0, 67, 0
3, 72480, Note_on_c, 0, 58, 0
3, 72960, Note_on_c, 0, 60, 36
3, 72960, Note_on_c, 0, 69, 36
3, 73440, Note_on_c, 0, 69, 0
3, 73440, Note_on_c, 0, 70, 31
3, 73920, Note_on_c, 0, 70, 0
3, 73920, Note_on_c, 0, 60, 0
3, 73920, Note_on_c, 0, 65, 36
3, 73920, Note_on_c, 0, 70, 36
3, 74400, Note_on_c, 0, 70, 0
3, 74400, Note_on_c, 0, 69, 33
3, 74580, Note_on_c, 0, 69, 0
3, 74633, Note_on_c, 0, 65, 0
3, 74880, Note_on_c, 0, 38, 59
3, 75000, Note_on_c, 0, 38, 0
3, 75120, Note_on_c, 0, 50, 54
3, 75300, Note_on_c, 0, 50, 0
3, 75360, Note_on_c, 0, 50, 54
3, 75540, Note_on_c, 0, 50, 0
3, 75600, Note_on_c, 0, 50, 54
3, 75780, Note_on_c, 0, 50, 0
3, 75840, Note_on_c, 0, 43, 59
3, 75960, Note_on_c, 0, 43, 0
3, 76080, Note_on_c, 0, 55, 54
3, 76260, Note_on_c, 0, 55, 0
3, 76320, Note_on_c, 0, 55, 54
3, 76500, Note_on_c, 0, 55, 0
3, 76560, Note_on_c, 0, 55, 54
3, 76740, Note_on_c, 0, 55, 0
3, 76800, Note_on_c, 0, 36, 59
3, 76920, Note_on_c, 0, 36, 0
3, 77040, Note_on_c, 0, 48, 54
3, 77220, Note_on_c, 0, 48, 0
3, 77280, Note_on_c, 0, 48, 54
3, 77460, Note_on_c, 0, 48, 0
3, 77520, Note_on_c, 0, 48, 54
3, 77700, Note_on_c, 0, 48, 0
3, 77760, Note_on_c, 0, 41, 59
3, 77880, Note_on_c, 0, 41, 0
3, 78000, Note_on_c, 0, 53, 54
3, 78180, Note_on_c, 0, 53, 0
3, 78240, Note_on_c, 0, 53, 54
3, 78420, Note_on_c, 0, 53, 0
3, 78480, Note_on_c, 0, 53, 54
3, 78660, Note_on_c, 0, 53, 0
3, 78720, Note_on_c, 0, 58, 38
3, 78960, Note_on_c, 0, 58, 0
3, 78960, Note_on_c, 0, 61, 34
3, 79200, Note_on_c, 0, 61, 0
3, 79200, Note_on_c, 0, 58, 34
3, 79440, Note_on_c, 0, 58, 0
3, 79440, Note_on_c, 0, 56, 34
3, 79680, Note_on_c, 0, 56, 0
3, 79680, Note_on_c, 0, 54, 38
3, 79920, Note_on_c, 0, 54, 0
3, 79920, Note_on_c, 0, 58, 34
3, 80160, Note_on_c, 0, 58, 0
3, 80160, Note_on_c, 0, 54, 34
3, 80400, Note_on_c, 0, 54, 0
3, 80400, Note_on_c, 0, 53, 34
3, 80640, Note_on_c, 0, 53, 0
3, 80640, Note_on_c, 0, 52, 34
3, 80880, Note_on_c, 0, 52, 0
3, 81120, Note_on_c, 0, 60, 25
3, 81120, Note_on_c, 0, 67, 30
3, 81600, Note_on_c, 0, 67, 0
3, 81600, Note_on_c, 0, 60, 0
3, 81600, Note_on_c, 0, 65, 37
3, 82260, Note_on_c, 0, 65, 0
3, 82560, Note_on_c, 0, 46, 59
3, 82680, Note_on_c, 0, 46, 0
3, 82800, Note_on_c, 0, 58, 54
3, 82980, Note_on_c, 0, 58, 0
3, 83040, Note_on_c, 0, 58, 54
3, 83220, Note_on_c, 0, 58, 0
3, 83280, Note_on_c, 0, 58, 54
3, 83460, Note_on_c, 0, 58, 0
3, 83520, Note_on_c, 0, 46, 59
3, 83640, Note_on_c, 0, 46, 0
3, 83760, Note_on_c, 0, 58, 54
3, 83940, Note_on_c, 0, 58, 0
3, 84000, Note_on_c, 0, 58, 54
3, 84180, Note_on_c, 0, 58, 0
3, 84240, Note_on_c, 0, 58, 54
3, 84420, Note_on_c, 0, 58, 0
3, 84480, Note_on_c, 0, 58, 57
3, 84480, Note_on_c, 0, 63, 57
3, 84960, Note_on_c, 0, 63, 0
3, 84960, Note_on_c, 0, 60, 52
3, 85440, Note_on_c, 0, 60, 0
3, 85440, Note_on_c, 0, 58, 0
3, 85440, Note_on_c, 0, 62, 52
3, 85440, Note_on_c, 0, 58, 52
3, 85920, Note_on_c, 0, 58, 0
3, 85920, Note_on_c, 0, 62, 0
3, 86400, Note_on_c, 0, 46, 59
3, 86520, Note_on_c, 0, 46, 0
3, 86640, Note_on_c, 0, 58, 54
3, 86820, Note_on_c, 0, 58, 0
3, 86880, Note_on_c, 0, 58, 54
3, 87060, Note_on_c, 0, 58, 0
3, 87120, Note_on_c, 0, 58, 54
3, 87300, Note_on_c, 0, 58, 0
3, 87360, Note_on_c, 0, 46, 59
3, 87480, Note_on_c, 0, 46, 0
3, 87600, Note_on_c, 0, 58, 54
3, 87780, Note_on_c, 0, 58, 0
3, 87840, Note_on_c, 0, 58, 54
3, 88020, Note_on_c, 0, 58, 0
3, 88080, Note_on_c, 0, 58, 54
3, 88260, Note_on_c, 0, 58, 0
3, 88320, Note_on_c, 0, 58, 57
3, 88320, Note_on_c, 0, 67, 57
3, 88800, Note_on_c, 0, 67, 0
3, 88800, Note_on_c, 0, 69, 52
3, 89280, Note_on_c, 0, 69, 0
3, 89280, Note_on_c, 0, 58, 0
3, 89280, Note_on_c, 0, 70, 52
3, 89280, Note_on_c, 0, 58, 52
3, 89760, Note_on_c, 0, 58, 0
3, 89760, Note_on_c, 0, 70, 0
3, 90240, Note_on_c, 0, 59, 36
3, 90480, Note_on_c, 0, 59, 0
3, 90480, Note_on_c, 0, 62, 30
3, 90720, Note_on_c, 0, 62, 0
3, 90720, Note_on_c, 0, 60, 30
3, 90960, Note_on_c, 0, 60, 0
3, 90960, Note_on_c, 0, 63, 30
3, 91200, Note_on_c, 0, 63, 0
3, 91200, Note_on_c, 0, 62, 36
3, 91440, Note_on_c, 0, 62, 0
3, 91440, Note_on_c, 0, 65, 32
3, 91680, Note_on_c, 0, 65, 0
3, 91680, Note_on_c, 0, 63, 32
3, 91920, Note_on_c, 0, 63, 0
3, 91920, Note_on_c, 0, 67, 32
3, 92160, Note_on_c, 0, 67, 0
3, 92160, Note_on_c, 0, 57, 36
3, 92400, Note_on_c, 0, 57, 0
3, 92400, Note_on_c, 0, 60, 32
3, 92640, Note_on_c, 0, 60, 0
3, 92640, Note_on_c, 0, 58, 32
3, 92880, Note_on_c, 0, 58, 0
3, 92880, Note_on_c, 0, 62, 32
3, 93120, Note_on_c, 0, 62, 0
3, 93120, Note_on_c, 0, 60, 36
3, 93360, Note_on_c, 0, 60, 0
3, 93360, Note_on_c, 0, 63, 31
3, 93600, Note_on_c, 0, 63, 0
3, 93600, Note_on_c, 0, 62, 31
3, 93840, Note_on_c, 0, 62, 0
3, 93840, Note_on_c, 0, 65, 31
3, 94080, Note_on_c, 0, 65, 0
3, 94080, Note_on_c, 0, 50, 36
3, 94080, Note_on_c, 0, 53, 36
3, 94080, Note_on_c, 0, 58, 36
3, 94560, Note_on_c, 0, 58, 0
3, 94560, Note_on_c, 0, 53, 0
3, 94560, Note_on_c, 0, 50, 0
3, 95040, Note_on_c, 0, 51, 36
3, 95040, Note_on_c, 0, 60, 36
3, 95040, Note_on_c, 0, 58, 36
3, 95520, Note_on_c, 0, 58, 0
3, 95520, Note_on_c, 0, 60, 0
3, 95520, Note_on_c, 0, 51, 0
3, 96000, Note_on_c, 0, 53, 36
3, 96000, Note_on_c, 0, 62, 36
3, 96480, Note_on_c, 0, 62, 0
3, 96480, Note_on_c, 0, 63, 31
3, 96960, Note_on_c, 0, 63, 0
3, 96960, Note_on_c, 0, 53, 0
3, 96960, Note_on_c, 0, 58, 36
3, 96960, Note_on_c, 0, 63, 36
3, 97440, Note_on_c, 0, 63, 0
3, 97440, Note_on_c, 0, 62, 33
3, 97620, Note_on_c, 0, 62, 0
3, 97680, Note_on_c, 0, 58, 0
3, 97920, Note_on_c, 0, 38, 59
3, 98040, Note_on_c, 0, 38, 0
3, 98160, Note_on_c, 0, 50, 54
3, 98340, Note_on_c, 0, 50, 0
3, 98400, Note_on_c, 0, 50, 54
3, 98580, Note_on_c, 0, 50, 0
3, 98640, Note_on_c, 0, 50, 54
3, 98820, Note_on_c, 0, 50, 0
3, 98880, Note_on_c, 0, 43, 59
3, 99000, Note_on_c, 0, 43, 0
3, 99120, Note_on_c, 0, 55, 54
3, 99300, Note_on_c, 0, 55, 0
3, 99360, Note_on_c, 0, 55, 54
3, 99540, Note_on_c, 0, 55, 0
3, 99600, Note_on_c, 0, 55, 54
3, 99780, Note_on_c, 0, 55, 0
3, 99840, Note_on_c, 0, 36, 59
3, 99960, Note_on_c, 0, 36, 0
3, 100080, Note_on_c, 0, 48, 54
3, 100260, Note_on_c, 0, 48, 0
3, 100320, Note_on_c, 0, 48, 54
3, 100500, Note_on_c, 0, 48, 0
3, 100560, Note_on_c, 0, 48, 54
3, 100740, Note_on_c, 0, 48, 0
3, 100800, Note_on_c, 0, 41, 59
3, 100920, Note_on_c, 0, 41, 0
3, 101040, Note_on_c, 0, 53, 54
3, 101220, Note_on_c, 0, 53, 0
3, 101280, Note_on_c, 0, 53, 54
3, 101460, Note_on_c, 0, 53, 0
3, 101520, Note_on_c, 0, 53, 54
3, 101700, Note_on_c, 0, 53, 0
3, 101760, Note_on_c, 0, 58, 38
3, 102000, Note_on_c, 0, 58, 0
3, 102000, Note_on_c, 0, 61, 34
3, 102240, Note_on_c, 0, 61, 0
3, 102240, Note_on_c, 0, 58, 34
3, 102480, Note_on_c, 0, 58, 0
3, 102480, Note_on_c, 0, 56, 34
3, 102720, Note_on_c, 0, 56, 0
3, 102720, Note_on_c, 0, 54, 38
3, 102960, Note_on_c, 0, 54, 0
3, 102960, Note_on_c, 0, 58, 34
3, 103200, Note_on_c, 0, 58, 0
3, 103200, Note_on_c, 0, 54, 34
3, 103440, Note_on_c, 0, 54, 0
3, 103440, Note_on_c, 0, 53, 34
3, 103680, Note_on_c, 0, 53, 0
3, 103680, Note_on_c, 0, 52, 34
3, 103920, Note_on_c, 0, 52, 0
3, 104160, Note_on_c, 0, 60, 25
3, 104160, Note_on_c, 0, 67, 30
3, 104640, Note_on_c, 0, 67, 0
3, 104640, Note_on_c, 0, 60, 0
3, 104640, Note_on_c, 0, 65, 37
3, 105300, Note_on_c, 0, 65, 0
3, 105600, Note_on_c, 0, 46, 59
3, 105720, Note_on_c, 0, 46, 0
3, 105840, Note_on_c, 0, 58, 54
3, 106020, Note_on_c, 0, 58, 0
3, 106080, Note_on_c, 0, 58, 54
3, 106260, Note_on_c, 0, 58, 0
3, 106320, Note_on_c, 0, 58, 54
3, 106500, Note_on_c, 0, 58, 0
3, 106560, Note_on_c, 0, 46, 59
3, 106680, Note_on_c, 0, 46, 0
3, 106800, Note_on_c, 0, 58, 54
3, 106980, Note_on_c, 0, 58, 0
3, 107040, Note_on_c, 0, 58, 54
3, 107220, Note_on_c, 0, 58, 0
3, 107280, Note_on_c, 0, 58, 54
3, 107460, Note_on_c, 0, 58, 0
3, 107520, Note_on_c, 0, 58, 57
3, 107520, Note_on_c, 0, 63, 57
3, 108000, Note_on_c, 0, 63, 0
3, 108000, Note_on_c, 0, 60, 52
3, 108480, Note_on_c, 0, 60, 0
3, 108480, Note_on_c, 0, 58, 0
3, 108480, Note_on_c, 0, 62, 52
3, 108480, Note_on_c, 0, 58, 52
3, 108960, Note_on_c, 0, 58, 0
3, 108960, Note_on_c, 0, 62, 0
3, 109440, Note_on_c, 0, 46, 59
3, 109560, Note_on_c, 0, 46, 0
3, 109680, Note_on_c, 0, 58, 54
3, 109860, Note_on_c, 0, 58, 0
3, 109920, Note_on_c, 0, 58, 54
3, 110100, Note_on_c, 0, 58, 0
3, 110160, Note_on_c, 0, 58, 54
3, 110340, Note_on_c, 0, 58, 0
3, 110400, Note_on_c, 0, 46, 59
3, 110520, Note_on_c, 0, 46, 0
3, 110640, Note_on_c, 0, 58, 54
3, 110820, Note_on_c, 0, 58, 0
3, 110880, Note_on_c, 0, 58, 54
3, 111060, Note_on_c, 0, 58, 0
3, 111120, Note_on_c, 0, 58, 54
3, 111300, Note_on_c, 0, 58, 0
3, 111360, Note_on_c, 0, 58, 57
3, 111360, Note_on_c, 0, 67, 57
3, 111840, Note_on_c, 0, 67, 0
3, 111840, Note_on_c, 0, 69, 52
3, 112320, Note_on_c, 0, 69, 0
3, 112320, Note_on_c, 0, 58, 0
3, 112320, Note_on_c, 0, 70, 52
3, 112320, Note_on_c, 0, 58, 52
3, 112800, Note_on_c, 0, 58, 0
3, 112800, Note_on_c, 0, 70, 0
3, 113280, Note_on_c, 0, 59, 36
3, 113520, Note_on_c, 0, 59, 0
3, 113520, Note_on_c, 0, 62, 30
3, 113760, Note_on_c, 0, 62, 0
3, 113760, Note_on_c, 0, 60, 30
3, 114000, Note_on_c, 0, 60, 0
3, 114000, Note_on_c, 0, 63, 30
3, 114240, Note_on_c, 0, 63, 0
3, 114240, Note_on_c, 0, 62, 36
3, 114480, Note_on_c, 0, 62, 0
3, 114480, Note_on_c, 0, 65, 32
3, 114720, Note_on_c, 0, 65, 0
3, 114720, Note_on_c, 0, 63, 32
3, 114960, Note_on_c, 0, 63, 0
3, 114960, Note_on_c, 0, 67, 32
3, 115200, Note_on_c, 0, 67, 0
3, 115200, Note_on_c, 0, 57, 36
3, 115440, Note_on_c, 0, 57, 0
3, 115440, Note_on_c, 0, 60, 32
3, 115680, Note_on_c, 0, 60, 0
3, 115680, Note_on_c, 0, 58, 32
3, 115920, Note_on_c, 0, 58, 0
3, 115920, Note_on_c, 0, 62, 32
3, 116160, Note_on_c, 0, 62, 0
3, 116160, Note_on_c, 0, 60, 36
3, 116400, Note_on_c, 0, 60, 0
3, 116400, Note_on_c, 0, 63, 31
3, 116640, Note_on_c, 0, 63, 0
3, 116640, Note_on_c, 0, 62, 31
3, 116880, Note_on_c, 0, 62, 0
3, 116880, Note_on_c, 0, 65, 31
3, 117120, Note_on_c, 0, 65, 0
3, 117120, Note_on_c, 0, 50, 36
3, 117120, Note_on_c, 0, 53, 36
3, 117120, Note_on_c, 0, 58, 36
3, 117600, Note_on_c, 0, 58, 0
3, 117600, Note_on_c, 0, 53, 0
3, 117600, Note_on_c, 0, 50, 0
3, 118080, Note_on_c, 0, 51, 36
3, 118080, Note_on_c, 0, 60, 36
3, 118080, Note_on_c, 0, 58, 36
3, 118560, Note_on_c, 0, 58, 0
3, 118560, Note_on_c, 0, 60, 0
3, 118560, Note_on_c, 0, 51, 0
3, 119040, Note_on_c, 0, 53, 36
3, 119040, Note_on_c, 0, 62, 36
3, 119520, Note_on_c, 0, 62, 0
3, 119520, Note_on_c, 0, 63, 31
3, 120000, Note_on_c, 0, 63, 0
3, 120000, Note_on_c, 0, 53, 0
3, 120000, Note_on_c, 0, 58, 36
3, 120000, Note_on_c, 0, 63, 36
3, 120480, Note_on_c, 0, 63, 0
3, 120480, Note_on_c, 0, 62, 33
3, 120660, Note_on_c, 0, 62, 0
3, 120720, Note_on_c, 0, 58, 0
3, 121200, Note_on_c, 0, 58, 26
3, 121200, Note_on_c, 0, 62, 33
3, 121320, Note_on_c, 0, 62, 0
3, 121320, Note_on_c, 0, 58, 0
3, 121440, Note_on_c, 0, 58, 26
3, 121440, Note_on_c, 0, 62, 33
3, 121560, Note_on_c, 0, 62, 0
3, 121560, Note_on_c, 0, 58, 0
3, 122160, Note_on_c, 0, 58, 26
3, 122160, Note_on_c, 0, 62, 33
3, 122280, Note_on_c, 0, 62, 0
3, 122280, Note_on_c, 0, 58, 0
3, 122400, Note_on_c, 0, 58, 26
3, 122400, Note_on_c, 0, 62, 33
3, 122520, Note_on_c, 0, 62, 0
3, 122520, Note_on_c, 0, 58, 0
3, 125280, Note_on_c, 0, 55, 24
3, 125280, Note_on_c, 0, 58, 29
3, 125760, Note_on_c, 0, 58, 0
3, 125760, Note_on_c, 0, 55, 0
3, 126240, Note_on_c, 0, 56, 24
3, 126240, Note_on_c, 0, 63, 29
3, 126720, Note_on_c, 0, 63, 0
3, 126720, Note_on_c, 0, 56, 0
3, 127200, Note_on_c, 0, 50, 24
3, 127200, Note_on_c, 0, 53, 29
3, 127680, Note_on_c, 0, 53, 0
3, 127680, Note_on_c, 0, 50, 0
3, 127680, Note_on_c, 0, 51, 24
3, 127680, Note_on_c, 0, 58, 29
3, 127920, Note_on_c, 0, 58, 0
3, 127920, Note_on_c, 0, 51, 0
3, 128880, Note_on_c, 0, 63, 30
3, 129000, Note_on_c, 0, 63, 0
3, 129120, Note_on_c, 0, 62, 35
3, 129240, Note_on_c, 0, 62, 0
3, 129360, Note_on_c, 0, 59, 32
3, 129480, Note_on_c, 0, 59, 0
3, 129600, Note_on_c, 0, 60, 35
3, 129720, Note_on_c, 0, 60, 0
3, 129840, Note_on_c, 0, 57, 29
3, 129960, Note_on_c, 0, 57, 0
3, 130080, Note_on_c, 0, 58, 35
3, 130320, Note_on_c, 0, 52, 31
3, 130560, Note_on_c, 0, 52, 0
3, 130560, Note_on_c, 0, 53, 35
3, 131040, Note_on_c, 0, 58, 0
3, 131040, Note_on_c, 0, 57, 35
3, 131520, Note_on_c, 0, 57, 0
3, 131520, Note_on_c, 0, 53, 0
3, 131520, Note_on_c, 0, 58, 39
3, 131640, Note_on_c, 0, 58, 0
3, 131760, Note_on_c, 0, 53, 36
3, 131880, Note_on_c, 0, 53, 0
3, 132000, Note_on_c, 0, 50, 35
3, 132120, Note_on_c, 0, 50, 0
3, 132240, Note_on_c, 0, 46, 35
3, 132360, Note_on_c, 0, 46, 0
3, 132960, Note_on_c, 0, 55, 24
3, 132960, Note_on_c, 0, 58, 29
3, 133440, Note_on_c, 0, 58, 0
3, 133440, Note_on_c, 0, 55, 0
3, 133920, Note_on_c, 0, 56, 24
3, 133920, Note_on_c, 0, 63, 29
3, 134400, Note_on_c, 0, 63, 0
3, 134400, Note_on_c, 0, 56, 0
3, 134880, Note_on_c, 0, 50, 24
3, 134880, Note_on_c, 0, 53, 29
3, 135360, Note_on_c, 0, 53, 0
3, 135360, Note_on_c, 0, 50, 0
3, 135360, Note_on_c, 0, 51, 24
3, 135360, Note_on_c, 0, 58, 29
3, 135600, Note_on_c, 0, 58, 0
3, 135600, Note_on_c, 0, 51, 0
3, 136560, Note_on_c, 0, 63, 30
3, 136680, Note_on_c, 0, 63, 0
3, 136800, Note_on_c, 0, 62, 35
3, 136920, Note_on_c, 0, 62, 0
3, 137040, Note_on_c, 0, 59, 32
3, 137160, Note_on_c, 0, 59, 0
3, 137280, Note_on_c, 0, 60, 35
3, 137400, Note_on_c, 0, 60, 0
3, 137520, Note_on_c, 0, 57, 29
3, 137640, Note_on_c, 0, 57, 0
3, 137760, Note_on_c, 0, 58, 35
3, 138000, Note_on_c, 0, 52, 31
3, 138240, Note_on_c, 0, 52, 0
3, 138240, Note_on_c, 0, 53, 35
3, 138720, Note_on_c, 0, 58, 0
3, 138720, Note_on_c, 0, 57, 35
3, 139200, Note_on_c, 0, 57, 0
3, 139200, Note_on_c, 0, 53, 0
3, 139200, Note_on_c, 0, 58, 39
3, 139320, Note_on_c, 0, 58, 0
3, 139440, Note_on_c, 0, 53, 36
3, 139560, Note_on_c, 0, 53, 0
3, 139680, Note_on_c, 0, 50, 35
3, 139800, Note_on_c, 0, 50, 0
3, 139920, Note_on_c, 0, 46, 35
3, 140040, Note_on_c, 0, 46, 0
3, 140160, Note_on_c, 0, 61, 46
3, 140280, Note_on_c, 0, 61, 0
3, 140400, Note_on_c, 0, 61, 39
3, 140520, Note_on_c, 0, 61, 0
3, 140640, Note_on_c, 0, 61, 39
3, 140760, Note_on_c, 0, 61, 0
3, 140880, Note_on_c, 0, 61, 39
3, 141000, Note_on_c, 0, 61, 0
3, 141120, Note_on_c, 0, 52, 44
3, 141240, Note_on_c, 0, 52, 0
3, 141360, Note_on_c, 0, 52, 39
3, 141480, Note_on_c, 0, 52, 0
3, 141600, Note_on_c, 0, 52, 39
3, 141720, Note_on_c, 0, 52, 0
3, 141840, Note_on_c, 0, 52, 39
3, 141960, Note_on_c, 0, 52, 0
3, 142080, Note_on_c, 0, 60, 44
3, 142200, Note_on_c, 0, 60, 0
3, 142320, Note_on_c, 0, 60, 38
3, 142440, Note_on_c, 0, 60, 0
3, 142560, Note_on_c, 0, 60, 38
3, 142680, Note_on_c, 0, 60, 0
3, 142800, Note_on_c, 0, 60, 39
3, 142920, Note_on_c, 0, 60, 0
3, 143040, Note_on_c, 0, 50, 44
3, 143160, Note_on_c, 0, 50, 0
3, 143280, Note_on_c, 0, 50, 37
3, 143400, Note_on_c, 0, 50, 0
3, 143520, Note_on_c, 0, 50, 37
3, 143640, Note_on_c, 0, 50, 0
3, 143760, Note_on_c, 0, 50, 39
3, 143880, Note_on_c, 0, 50, 0
3, 144000, Note_on_c, 0, 51, 41
3, 144120, Note_on_c, 0, 51, 0
3, 144240, Note_on_c, 0, 51, 42
3, 144360, Note_on_c, 0, 51, 0
3, 144480, Note_on_c, 0, 50, 44
3, 144600, Note_on_c, 0, 50, 0
3, 144720, Note_on_c, 0, 49, 47
3, 144840, Note_on_c, 0, 49, 0
3, 144960, Note_on_c, 0, 48, 49
3, 145080, Note_on_c, 0, 48, 0
3, 145200, Note_on_c, 0, 47, 49
3, 145320, Note_on_c, 0, 47, 0
3, 145440, Note_on_c, 0, 46, 47
3, 145560, Note_on_c, 0, 46, 0
3, 145680, Note_on_c, 0, 45, 47
3, 145800, Note_on_c, 0, 45, 0
3, 145920, Note_on_c, 0, 46, 50
3, 146160, Note_on_c, 0, 46, 0
3, 146160, Note_on_c, 0, 45, 44
3, 146400, Note_on_c, 0, 45, 0
3, 146400, Note_on_c, 0, 46, 50
3, 146640, Note_on_c, 0, 46, 0
3, 146640, Note_on_c, 0, 45, 44
3, 146880, Note_on_c, 0, 45, 0
3, 146880, Note_on_c, 0, 46, 44
3, 147120, Note_on_c, 0, 46, 0
3, 148320, Note_on_c, 0, 55, 29
3, 148320, Note_on_c, 0, 58, 35
3, 148800, Note_on_c, 0, 58, 0
3, 148800, Note_on_c, 0, 55, 0
3, 149280, Note_on_c, 0, 56, 29
3, 149280, Note_on_c, 0, 63, 35
3, 149760, Note_on_c, 0, 63, 0
3, 149760, Note_on_c, 0, 56, 0
3, 150240, Note_on_c, 0, 50, 29
3, 150240, Note_on_c, 0, 53, 35
3, 150720, Note_on_c, 0, 53, 0
3, 150720, Note_on_c, 0, 50, 0
3, 150720, Note_on_c, 0, 51, 29
3, 150720, Note_on_c, 0, 58, 35
3, 150960, Note_on_c, 0, 58, 0
3, 150960, Note_on_c, 0, 51, 0
3, 151920, Note_on_c, 0, 68, 30
3, 152040, Note_on_c, 0, 68, 0
3, 152160, Note_on_c, 0, 67, 35
3, 152280, Note_on_c, 0, 67, 0
3, 152400, Note_on_c, 0, 64, 32
3, 152520, Note_on_c, 0, 64, 0
3, 152640, Note_on_c, 0, 65, 35
3, 152760, Note_on_c, 0, 65, 0
3, 152880, Note_on_c, 0, 62, 29
3, 153000, Note_on_c, 0, 62, 0
3, 153120, Note_on_c, 0, 63, 35
3, 153360, Note_on_c, 0, 57, 31
3, 153600, Note_on_c, 0, 57, 0
3, 153600, Note_on_c, 0, 58, 35
3, 154080, Note_on_c, 0, 63, 0
3, 154080, Note_on_c, 0, 62, 35
3, 154560, Note_on_c, 0, 62, 0
3, 154560, Note_on_c, 0, 58, 0
3, 154560, Note_on_c, 0, 63, 39
3, 154680, Note_on_c, 0, 63, 0
3, 154800, Note_on_c, 0, 58, 36
3, 154920, Note_on_c, 0, 58, 0
3, 155040, Note_on_c, 0, 55, 35
3, 155160, Note_on_c, 0, 55, 0
3, 155280, Note_on_c, 0, 51, 35
3, 155400, Note_on_c, 0, 51, 0
3, 155520, Note_on_c, 0, 61, 46
3, 155640, Note_on_c, 0, 61, 0
3, 155760, Note_on_c, 0, 61, 39
3, 155880, Note_on_c, 0, 61, 0
3, 156000, Note_on_c, 0, 61, 39
3, 156120, Note_on_c, 0, 61, 0
3, 156240, Note_on_c, 0, 61, 39
3, 156360, Note_on_c, 0, 61, 0
3, 156480, Note_on_c, 0, 52, 44
3, 156600, Note_on_c, 0, 52, 0
3, 156720, Note_on_c, 0, 52, 39
3, 156840, Note_on_c, 0, 52, 0
3, 156960, Note_on_c, 0, 52, 39
3, 157080, Note_on_c, 0, 52, 0
3, 157200, Note_on_c, 0, 52, 39
3, 157320, Note_on_c, 0, 52, 0
3, 157440, Note_on_c, 0, 60, 44
3, 157560, Note_on_c, 0, 60, 0
3, 157680, Note_on_c, 0, 60, 38
3, 157800, Note_on_c, 0, 60, 0
3, 157920, Note_on_c, 0, 60, 38
3, 158040, Note_on_c, 0, 60, 0
3, 158160, Note_on_c, 0, 60, 39
3, 158280, Note_on_c, 0, 60, 0
3, 158400, Note_on_c, 0, 50, 44
3, 158520, Note_on_c, 0, 50, 0
3, 158640, Note_on_c, 0, 50, 37
3, 158760, Note_on_c, 0, 50, 0
3, 158880, Note_on_c, 0, 50, 37
3, 159000, Note_on_c, 0, 50, 0
3, 159120, Note_on_c, 0, 50, 39
3, 159240, Note_on_c, 0, 50, 0
3, 159360, Note_on_c, 0, 51, 41
3, 159480, Note_on_c, 0, 51, 0
3, 159600, Note_on_c, 0, 51, 42
3, 159720, Note_on_c, 0, 51, 0
3, 159840, Note_on_c, 0, 50, 44
3, 159960, Note_on_c, 0, 50, 0
3, 160080, Note_on_c, 0, 49, 47
3, 160200, Note_on_c, 0, 49, 0
3, 160320, Note_on_c, 0, 48, 49
3, 160440, Note_on_c, 0, 48, 0
3, 160560, Note_on_c, 0, 47, 49
3, 160680, Note_on_c, 0, 47, 0
3, 160800, Note_on_c, 0, 46, 47
3, 160920, Note_on_c, 0, 46, 0
3, 161040, Note_on_c, 0, 45, 47
3, 161160, Note_on_c, 0, 45, 0
3, 161280, Note_on_c, 0, 46, 50
3, 161520, Note_on_c, 0, 46, 0
3, 161520, Note_on_c, 0, 45, 44
3, 161760, Note_on_c, 0, 45, 0
3, 161760, Note_on_c, 0, 46, 50
3, 162000, Note_on_c, 0, 46, 0
3, 162000, Note_on_c, 0, 45, 44
3, 162240, Note_on_c, 0, 45, 0
3, 162240, Note_on_c, 0, 46, 44
3, 162480, Note_on_c, 0, 46, 0
3, 163680, Note_on_c, 0, 55, 29
3, 163680, Note_on_c, 0, 58, 35
3, 164160, Note_on_c, 0, 58, 0
3, 164160, Note_on_c, 0, 55, 0
3, 164640, Note_on_c, 0, 56, 29
3, 164640, Note_on_c, 0, 63, 35
3, 165120, Note_on_c, 0, 63, 0
3, 165120, Note_on_c, 0, 56, 0
3, 165600, Note_on_c, 0, 50, 29
3, 165600, Note_on_c, 0, 53, 35
3, 166080, Note_on_c, 0, 53, 0
3, 166080, Note_on_c, 0, 50, 0
3, 166080, Note_on_c, 0, 51, 29
3, 166080, Note_on_c, 0, 58, 35
3, 166320, Note_on_c, 0, 58, 0
3, 166320, Note_on_c, 0, 51, 0
3, 167280, Note_on_c, 0, 68, 30
3, 167400, Note_on_c, 0, 68, 0
3, 167520, Note_on_c, 0, 67, 35
3, 167640, Note_on_c, 0, 67, 0
3, 167760, Note_on_c, 0, 64, 32
3, 167880, Note_on_c, 0, 64, 0
3, 168000, Note_on_c, 0, 65, 35
3, 168120, Note_on_c, 0, 65, 0
3, 168240, Note_on_c, 0, 62, 29
3, 168360, Note_on_c, 0, 62, 0
3, 168480, Note_on_c, 0, 63, 35
3, 168720, Note_on_c, 0, 57, 31
3, 168960, Note_on_c, 0, 57, 0
3, 168960, Note_on_c, 0, 58, 35
3, 169440, Note_on_c, 0, 63, 0
3, 169440, Note_on_c, 0, 62, 35
3, 169920, Note_on_c, 0, 62, 0
3, 169920, Note_on_c, 0, 58, 0
3, 169920, Note_on_c, 0, 63, 39
3, 170040, Note_on_c, 0, 63, 0
3, 170160, Note_on_c, 0, 58, 36
3, 170280, Note_on_c, 0, 58, 0
3, 170400, Note_on_c, 0, 55, 35
3, 170520, Note_on_c, 0, 55, 0
3, 170640, Note_on_c, 0, 51, 35
3, 170760, Note_on_c, 0, 51, 0
3, 170880, Note_on_c, 0, 55, 35
3, 171000, Note_on_c, 0, 55, 0
3, 171120, Note_on_c, 0, 67, 38
3, 171360, Note_on_c, 0, 66, 39
3, 171372, Note_on_c, 0, 67, 0
3, 171600, Note_on_c, 0, 65, 39
3, 171612, Note_on_c, 0, 66, 0
3, 171840, Note_on_c, 0, 63, 40
3, 171852, Note_on_c, 0, 65, 0
3, 172080, Note_on_c, 0, 62, 41
3, 172092, Note_on_c, 0, 63, 0
3, 172320, Note_on_c, 0, 60, 42
3, 172332, Note_on_c, 0, 62, 0
3, 172560, Note_on_c, 0, 58, 43
3, 172572, Note_on_c, 0, 60, 0
3, 172800, Note_on_c, 0, 58, 0
3, 172800, Note_on_c, 0, 57, 44
3, 173280, Note_on_c, 0, 57, 0
3, 173520, Note_on_c, 0, 69, 40
3, 173760, Note_on_c, 0, 70, 45
3, 173772, Note_on_c, 0, 69, 0
3, 174000, Note_on_c, 0, 72, 40
3, 174012, Note_on_c, 0, 70, 0
3, 174240, Note_on_c, 0, 74, 44
3, 174252, Note_on_c, 0, 72, 0
3, 174480, Note_on_c, 0, 72, 42
3, 174492, Note_on_c, 0, 74, 0
3, 174720, Note_on_c, 0, 72, 0
3, 174720, Note_on_c, 0, 71, 49
3, 174840, Note_on_c, 0, 71, 0
3, 174960, Note_on_c, 0, 72, 43
3, 175080, Note_on_c, 0, 72, 0
3, 175200, Note_on_c, 0, 69, 49
3, 175320, Note_on_c, 0, 69, 0
3, 175440, Note_on_c, 0, 70, 44
3, 175560, Note_on_c, 0, 70, 0
3, 175680, Note_on_c, 0, 67, 49
3, 175800, Note_on_c, 0, 67, 0
3, 175920, Note_on_c, 0, 69, 43
3, 176040, Note_on_c, 0, 69, 0
3, 176160, Note_on_c, 0, 66, 48
3, 176280, Note_on_c, 0, 66, 0
3, 176400, Note_on_c, 0, 67, 43
3, 176520, Note_on_c, 0, 67, 0
3, 176640, Note_on_c, 0, 67, 48
3, 176640, Note_on_c, 0, 70, 57
3, 177600, Note_on_c, 0, 70, 0
3, 177600, Note_on_c, 0, 67, 0
3, 177600, Note_on_c, 0, 65, 29
3, 177600, Note_on_c, 0, 69, 35
3, 178080, Note_on_c, 0, 69, 0
3, 178080, Note_on_c, 0, 65, 0
3, 178560, Note_on_c, 0, 67, 33
3, 178560, Note_on_c, 0, 70, 39
3, 179520, Note_on_c, 0, 70, 0
3, 179520, Note_on_c, 0, 67, 0
3, 179520, Note_on_c, 0, 65, 27
3, 179520, Note_on_c, 0, 69, 32
3, 180000, Note_on_c, 0, 69, 0
3, 180000, Note_on_c, 0, 65, 0
3, 180480, Note_on_c, 0, 67, 29
3, 180480, Note_on_c, 0, 70, 35
3, 181440, Note_on_c, 0, 70, 0
3, 181440, Note_on_c, 0, 67, 0
3, 181440, Note_on_c, 0, 65, 28
3, 181440, Note_on_c, 0, 69, 33
3, 181920, Note_on_c, 0, 69, 0
3, 181920, Note_on_c, 0, 65, 0
3, 182400, Note_on_c, 0, 58, 29
3, 182640, Note_on_c, 0, 58, 0
3, 182640, Note_on_c, 0, 65, 23
3, 182880, Note_on_c, 0, 65, 0
3, 182880, Note_on_c, 0, 60, 23
3, 183120, Note_on_c, 0, 60, 0
3, 183120, Note_on_c, 0, 65, 23
3, 183360, Note_on_c, 0, 65, 0
3, 183360, Note_on_c, 0, 62, 23
3, 183600, Note_on_c, 0, 62, 0
3, 183600, Note_on_c, 0, 65, 23
3, 183840, Note_on_c, 0, 65, 0
3, 183840, Note_on_c, 0, 58, 23
3, 184080, Note_on_c, 0, 58, 0
3, 184080, Note_on_c, 0, 65, 25
3, 184320, Note_on_c, 0, 65, 0
3, 184320, Note_on_c, 0, 57, 30
3, 184560, Note_on_c, 0, 57, 0
3, 184560, Note_on_c, 0, 65, 23
3, 184800, Note_on_c, 0, 65, 0
3, 184800, Note_on_c, 0, 58, 25
3, 185040, Note_on_c, 0, 58, 0
3, 185040, Note_on_c, 0, 65, 25
3, 185280, Note_on_c, 0, 65, 0
3, 185280, Note_on_c, 0, 60, 25
3, 185520, Note_on_c, 0, 60, 0
3, 185520, Note_on_c, 0, 65, 25
3, 185760, Note_on_c, 0, 65, 0
3, 185760, Note_on_c, 0, 63, 25
3, 186000, Note_on_c, 0, 63, 0
3, 186000, Note_on_c, 0, 65, 24
3, 186240, Note_on_c, 0, 65, 0
3, 186240, Note_on_c, 0, 62, 31
3, 186360, Note_on_c, 0, 62, 0
3, 186480, Note_on_c, 0, 65, 24
3, 186720, Note_on_c, 0, 65, 0
3, 186720, Note_on_c, 0, 62, 31
3, 186960, Note_on_c, 0, 62, 0
3, 186960, Note_on_c, 0, 65, 24
3, 187200, Note_on_c, 0, 65, 0
3, 187200, Note_on_c, 0, 57, 32
3, 187320, Note_on_c, 0, 57, 0
3, 187440, Note_on_c, 0, 65, 26
3, 187680, Note_on_c, 0, 65, 0
3, 187680, Note_on_c, 0, 57, 32
3, 187920, Note_on_c, 0, 57, 0
3, 187920, Note_on_c, 0, 65, 27
3, 188160, Note_on_c, 0, 65, 0
3, 188160, Note_on_c, 0, 58, 32
3, 188280, Note_on_c, 0, 58, 0
3, 188400, Note_on_c, 0, 57, 28
3, 188520, Note_on_c, 0, 57, 0
3, 188640, Note_on_c, 0, 58, 28
3, 188760, Note_on_c, 0, 58, 0
3, 188880, Note_on_c, 0, 51, 28
3, 189000, Note_on_c, 0, 51, 0
3, 189120, Note_on_c, 0, 53, 32
3, 189600, Note_on_c, 0, 53, 0
3, 190080, Note_on_c, 0, 58, 30
3, 190320, Note_on_c, 0, 58, 0
3, 190320, Note_on_c, 0, 65, 23
3, 190560, Note_on_c, 0, 65, 0
3, 190560, Note_on_c, 0, 60, 23
3, 190800, Note_on_c, 0, 60, 0
3, 190800, Note_on_c, 0, 65, 23
3, 191040, Note_on_c, 0, 65, 0
3, 191040, Note_on_c, 0, 62, 23
3, 191280, Note_on_c, 0, 62, 0
3, 191280, Note_on_c, 0, 65, 23
3, 191520, Note_on_c, 0, 65, 0
3, 191520, Note_on_c, 0, 58, 23
3, 191760, Note_on_c, 0, 58, 0
3, 191760, Note_on_c, 0, 65, 25
3, 192000, Note_on_c, 0, 65, 0
3, 192000, Note_on_c, 0, 57, 30
3, 192240, Note_on_c, 0, 57, 0
3, 192240, Note_on_c, 0, 65, 23
3, 192480, Note_on_c, 0, 65, 0
3, 192480, Note_on_c, 0, 58, 25
3, 192720, Note_on_c, 0, 58, 0
3, 192720, Note_on_c, 0, 65, 25
3, 192960, Note_on_c, 0, 65, 0
3, 192960, Note_on_c, 0, 60, 25
3, 193200, Note_on_c, 0, 60, 0
3, 193200, Note_on_c, 0, 65, 25
3, 193440, Note_on_c, 0, 65, 0
3, 193440, Note_on_c, 0, 63, 25
3, 193680, Note_on_c, 0, 63, 0
3, 193680, Note_on_c, 0, 65, 24
3, 193920, Note_on_c, 0, 65, 0
3, 193920, Note_on_c, 0, 62, 31
3, 194400, Note_on_c, 0, 62, 0
3, 194880, Note_on_c, 0, 67, 32
3, 194880, Note_on_c, 0, 63, 25
3, 195360, Note_on_c, 0, 63, 0
3, 195360, Note_on_c, 0, 67, 0
3, 195840, Note_on_c, 0, 53, 27
3, 195840, Note_on_c, 0, 62, 32
3, 196320, Note_on_c, 0, 62, 0
3, 196320, Note_on_c, 0, 63, 28
3, 196800, Note_on_c, 0, 63, 0
3, 196800, Note_on_c, 0, 53, 0
3, 196800, Note_on_c, 0, 58, 28
3, 196800, Note_on_c, 0, 62, 32
3, 197280, Note_on_c, 0, 62, 0
3, 197280, Note_on_c, 0, 58, 0
3, 197760, Note_on_c, 0, 46, 59
3, 197880, Note_on_c, 0, 46, 0
3, 198000, Note_on_c, 0, 58, 54
3, 198180, Note_on_c, 0, 58, 0
3, 198240, Note_on_c, 0, 58, 54
3, 198420, Note_on_c, 0, 58, 0
3, 198480, Note_on_c, 0, 58, 54
3, 198660, Note_on_c, 0, 58, 0
3, 198720, Note_on_c, 0, 46, 59
3, 198840, Note_on_c, 0, 46, 0
3, 198960, Note_on_c, 0, 58, 54
3, 199140, Note_on_c, 0, 58, 0
3, 199200, Note_on_c, 0, 58, 54
3, 199380, Note_on_c, 0, 58, 0
3, 199440, Note_on_c, 0, 58, 54
3, 199620, Note_on_c, 0, 58, 0
3, 199680, Note_on_c, 0, 41, 59
3, 199800, Note_on_c, 0, 41, 0
3, 199920, Note_on_c, 0, 53, 54
3, 200100, Note_on_c, 0, 53, 0
3, 200160, Note_on_c, 0, 53, 54
3, 200340, Note_on_c, 0, 53, 0
3, 200400, Note_on_c, 0, 53, 54
3, 200580, Note_on_c, 0, 53, 0
3, 200640, Note_on_c, 0, 46, 59
3, 200820, Note_on_c, 0, 46, 0
3, 200880, Note_on_c, 0, 58, 54
3, 201120, Note_on_c, 0, 58, 0
3, 201120, Note_on_c, 0, 58, 54
3, 201300, Note_on_c, 0, 58, 0
3, 201360, Note_on_c, 0, 58, 34
3, 201480, Note_on_c, 0, 58, 0
3, 201600, Note_on_c, 0, 46, 41
3, 201720, Note_on_c, 0, 46, 0
3, 201840, Note_on_c, 0, 58, 37
3, 202020, Note_on_c, 0, 58, 0
3, 202080, Note_on_c, 0, 58, 37
3, 202260, Note_on_c, 0, 58, 0
3, 202320, Note_on_c, 0, 58, 37
3, 202500, Note_on_c, 0, 58, 0
3, 202560, Note_on_c, 0, 46, 41
3, 202680, Note_on_c, 0, 46, 0
3, 202800, Note_on_c, 0, 58, 37
3, 202980, Note_on_c, 0, 58, 0
3, 203040, Note_on_c, 0, 58, 37
3, 203220, Note_on_c, 0, 58, 0
3, 203280, Note_on_c, 0, 58, 37
3, 203460, Note_on_c, 0, 58, 0
3, 203520, Note_on_c, 0, 41, 41
3, 203640, Note_on_c, 0, 41, 0
3, 203760, Note_on_c, 0, 53, 37
3, 203940, Note_on_c, 0, 53, 0
3, 204000, Note_on_c, 0, 53, 37
3, 204180, Note_on_c, 0, 53, 0
3, 204240, Note_on_c, 0, 53, 37
3, 204420, Note_on_c, 0, 53, 0
3, 204480, Note_on_c, 0, 46, 41
3, 204660, Note_on_c, 0, 46, 0
3, 204720, Note_on_c, 0, 58, 37
3, 204960, Note_on_c, 0, 58, 0
3, 204960, Note_on_c, 0, 58, 37
3, 205140, Note_on_c, 0, 58, 0
3, 205920, Note_on_c, 0, 55, 55
3, 206640, Note_on_c, 0, 55, 0
3, 206640, Note_on_c, 0, 57, 50
3, 206760, Note_on_c, 0, 57, 0
3, 206760, Note_on_c, 0, 58, 50
3, 206880, Note_on_c, 0, 58, 0
3, 206880, Note_on_c, 0, 60, 55
3, 207120, Note_on_c, 0, 60, 0
3, 207120, Note_on_c, 0, 58, 50
3, 207600, Note_on_c, 0, 58, 0
3, 207600, Note_on_c, 0, 57, 55
3, 207840, Note_on_c, 0, 57, 0
3, 208080, Note_on_c, 0, 41, 46
3, 208320, Note_on_c, 0, 41, 0
3, 208320, Note_on_c, 0, 42, 48
3, 208560, Note_on_c, 0, 42, 0
3, 208560, Note_on_c, 0, 43, 49
3, 208800, Note_on_c, 0, 43, 0
3, 208800, Note_on_c, 0, 44, 51
3, 209040, Note_on_c, 0, 44, 0
3, 209040, Note_on_c, 0, 45, 52
3, 209280, Note_on_c, 0, 45, 0
3, 209280, Note_on_c, 0, 46, 55
3, 209520, Note_on_c, 0, 46, 0
3, 209520, Note_on_c, 0, 58, 50
3, 209640, Note_on_c, 0, 58, 0
3, 209760, Note_on_c, 0, 60, 50
3, 209880, Note_on_c, 0, 60, 0
3, 210000, Note_on_c, 0, 62, 49
3, 210120, Note_on_c, 0, 62, 0
3, 210240, Note_on_c, 0, 63, 48
3, 210360, Note_on_c, 0, 63, 0
3, 210480, Note_on_c, 0, 63, 48
3, 210600, Note_on_c, 0, 63, 0
3, 210720, Note_on_c, 0, 65, 46
3, 210840, Note_on_c, 0, 65, 0
3, 210960, Note_on_c, 0, 66, 45
3, 211080, Note_on_c, 0, 66, 0
3, 211200, Note_on_c, 0, 65, 49
3, 211680, Note_on_c, 0, 65, 0
3, 211680, Note_on_c, 0, 65, 49
3, 212160, Note_on_c, 0, 65, 0
3, 212160, Note_on_c, 0, 66, 52
3, 212640, Note_on_c, 0, 66, 0
3, 212640, Note_on_c, 0, 67, 49
3, 212880, Note_on_c, 0, 67, 0
3, 212880, Note_on_c, 0, 43, 49
3, 213120, Note_on_c, 0, 43, 0
3, 213120, Note_on_c, 0, 58, 44
3, 213240, Note_on_c, 0, 58, 0
3, 213360, Note_on_c, 0, 58, 34
3, 213480, Note_on_c, 0, 58, 0
3, 213600, Note_on_c, 0, 58, 34
3, 213720, Note_on_c, 0, 58, 0
3, 213840, Note_on_c, 0, 58, 34
3, 213960, Note_on_c, 0, 58, 0
3, 214080, Note_on_c, 0, 52, 39
3, 214200, Note_on_c, 0, 52, 0
3, 214320, Note_on_c, 0, 52, 35
3, 214440, Note_on_c, 0, 52, 0
3, 214560, Note_on_c, 0, 52, 35
3, 214680, Note_on_c, 0, 52, 0
3, 214800, Note_on_c, 0, 52, 35
3, 214920, Note_on_c, 0, 52, 0
3, 215040, Note_on_c, 0, 54, 44
3, 215160, Note_on_c, 0, 54, 0
3, 215280, Note_on_c, 0, 54, 35
3, 215400, Note_on_c, 0, 54, 0
3, 215520, Note_on_c, 0, 54, 35
3, 215640, Note_on_c, 0, 54, 0
3, 215760, Note_on_c, 0, 54, 35
3, 215880, Note_on_c, 0, 54, 0
3, 216000, Note_on_c, 0, 45, 44
3, 216120, Note_on_c, 0, 45, 0
3, 216240, Note_on_c, 0, 45, 36
3, 216360, Note_on_c, 0, 45, 0
3, 216480, Note_on_c, 0, 45, 36
3, 216600, Note_on_c, 0, 45, 0
3, 216720, Note_on_c, 0, 45, 36
3, 216840, Note_on_c, 0, 45, 0
3, 216960, Note_on_c, 0, 46, 48
3, 217080, Note_on_c, 0, 46, 0
3, 217200, Note_on_c, 0, 58, 49
3, 217320, Note_on_c, 0, 58, 0
3, 217440, Note_on_c, 0, 57, 51
3, 217560, Note_on_c, 0, 57, 0
3, 217680, Note_on_c, 0, 56, 55
3, 217800, Note_on_c, 0, 56, 0
3, 217920, Note_on_c, 0, 55, 57
3, 218040, Note_on_c, 0, 55, 0
3, 218160, Note_on_c, 0, 54, 59
3, 218280, Note_on_c, 0, 54, 0
3, 218400, Note_on_c, 0, 53, 62
3, 218520, Note_on_c, 0, 53, 0
3, 218640, Note_on_c, 0, 50, 64
3, 218760, Note_on_c, 0, 50, 0
3, 218880, Note_on_c, 0, 51, 67
3, 219240, Note_on_c, 0, 51, 0
3, 219360, Note_on_c, 0, 40, 58
3, 219360, Note_on_c, 0, 52, 69
3, 219840, Note_on_c, 0, 52, 0
3, 219840, Note_on_c, 0, 40, 0
3, 220800, Note_on_c, 0, 53, 56
3, 221040, Note_on_c, 0, 53, 0
3, 221040, Note_on_c, 0, 62, 47
3, 221280, Note_on_c, 0, 62, 0
3, 221280, Note_on_c, 0, 58, 47
3, 221520, Note_on_c, 0, 58, 0
3, 221520, Note_on_c, 0, 62, 47
3, 221760, Note_on_c, 0, 62, 0
3, 221760, Note_on_c, 0, 53, 52
3, 222000, Note_on_c, 0, 53, 0
3, 222000, Note_on_c, 0, 62, 44
3, 222240, Note_on_c, 0, 62, 0
3, 222240, Note_on_c, 0, 58, 44
3, 222480, Note_on_c, 0, 58, 0
3, 222480, Note_on_c, 0, 62, 44
3, 222720, Note_on_c, 0, 62, 0
3, 222720, Note_on_c, 0, 53, 49
3, 222960, Note_on_c, 0, 53, 0
3, 222960, Note_on_c, 0, 63, 27
3, 223200, Note_on_c, 0, 63, 0
3, 223200, Note_on_c, 0, 60, 34
3, 223440, Note_on_c, 0, 60, 0
3, 223440, Note_on_c, 0, 63, 34
3, 223680, Note_on_c, 0, 63, 0
3, 223680, Note_on_c, 0, 53, 41
3, 223920, Note_on_c, 0, 53, 0
3, 223920, Note_on_c, 0, 63, 34
3, 224160, Note_on_c, 0, 63, 0
3, 224160, Note_on_c, 0, 60, 35
3, 224400, Note_on_c, 0, 60, 0
3, 224400, Note_on_c, 0, 63, 35
3, 224640, Note_on_c, 0, 63, 0
3, 224640, Note_on_c, 0, 46, 38
3, 224820, Note_on_c, 0, 46, 0
3, 224880, Note_on_c, 0, 58, 31
3, 225060, Note_on_c, 0, 58, 0
3, 225120, Note_on_c, 0, 58, 31
3, 225300, Note_on_c, 0, 58, 0
3, 225360, Note_on_c, 0, 58, 31
3, 225540, Note_on_c, 0, 58, 0
3, 225600, Note_on_c, 0, 58, 38
3, 226080, Note_on_c, 0, 58, 0
3, 226560, Note_on_c, 0, 46, 35
3, 226740, Note_on_c, 0, 46, 0
3, 226800, Note_on_c, 0, 58, 31
3, 226980, Note_on_c, 0, 58, 0
3, 227040, Note_on_c, 0, 58, 31
3, 227220, Note_on_c, 0, 58, 0
3, 227280, Note_on_c, 0, 58, 31
3, 227460, Note_on_c, 0, 58, 0
3, 227520, Note_on_c, 0, 58, 35
3, 228000, Note_on_c, 0, 58, 0
3, 228480, Note_on_c, 0, 46, 35
3, 228660, Note_on_c, 0, 46, 0
3, 228720, Note_on_c, 0, 58, 30
3, 228900, Note_on_c, 0, 58, 0
3, 228960, Note_on_c, 0, 58, 30
3, 229140, Note_on_c, 0, 58, 0
3, 229200, Note_on_c, 0, 58, 30
3, 229380, Note_on_c, 0, 58, 0
3, 229440, Note_on_c, 0, 58, 35
3, 229920, Note_on_c, 0, 58, 0
3, 230400, Note_on_c, 0, 41, 40
3, 230580, Note_on_c, 0, 41, 0
3, 230640, Note_on_c, 0, 53, 35
3, 230820, Note_on_c, 0, 53, 0
3, 230880, Note_on_c, 0, 53, 35
3, 231060, Note_on_c, 0, 53, 0
3, 231120, Note_on_c, 0, 53, 35
3, 231300, Note_on_c, 0, 53, 0
3, 231360, Note_on_c, 0, 53, 38
3, 231840, Note_on_c, 0, 53, 0
3, 232320, Note_on_c, 0, 46, 47
3, 232560, Note_on_c, 0, 46, 0
3, 232800, Note_on_c, 0, 58, 49
3, 233040, Note_on_c, 0, 58, 0
3, 233280, Note_on_c, 0, 46, 49
3, 233520, Note_on_c, 0, 46, 0
3, 233520, End_track
4, 0, Start_track
4, 0, Title_t, "Pedale"
4, 0, Program_c, 0, 0
4, 960, Control_c, 0, 64, 0
4, 8732, Control_c, 0, 64, 127
4, 9131, Control_c, 0, 64, 0
4, 16412, Control_c, 0, 64, 127
4, 16811, Control_c, 0, 64, 0
4, 23146, Control_c, 0, 64, 127
4, 24012, Control_c, 0, 64, 0
4, 24170, Control_c, 0, 64, 127
4, 24494, Control_c, 0, 64, 0
4, 25995, Control_c, 0, 64, 127
4, 26406, Control_c, 0, 64, 0
4, 35612, Control_c, 0, 64, 127
4, 36011, Control_c, 0, 64, 0
4, 43292, Control_c, 0, 64, 127
4, 43687, Control_c, 0, 64, 0
4, 44492, Control_c, 0, 64, 127
4, 45163, Control_c, 0, 64, 0
4, 45424, Control_c, 0, 64, 127
4, 45861, Control_c, 0, 64, 0
4, 46186, Control_c, 0, 64, 127
4, 46572, Control_c, 0, 64, 0
4, 46708, Control_c, 0, 64, 127
4, 47052, Control_c, 0, 64, 0
4, 48261, Control_c, 0, 64, 127
4, 48996, Control_c, 0, 64, 0
4, 49285, Control_c, 0, 64, 127
4, 49659, Control_c, 0, 64, 0
4, 50026, Control_c, 0, 64, 127
4, 50412, Control_c, 0, 64, 0
4, 50548, Control_c, 0, 64, 127
4, 50892, Control_c, 0, 64, 0
4, 52405, Control_c, 0, 64, 127
4, 52804, Control_c, 0, 64, 0
4, 52934, Control_c, 0, 64, 127
4, 53252, Control_c, 0, 64, 0
4, 53330, Control_c, 0, 64, 127
4, 53513, Control_c, 0, 64, 0
4, 54846, Control_c, 0, 64, 127
4, 55229, Control_c, 0, 64, 0
4, 55297, Control_c, 0, 64, 127
4, 55515, Control_c, 0, 64, 0
4, 57699, Control_c, 0, 64, 127
4, 58087, Control_c, 0, 64, 0
4, 58650, Control_c, 0, 64, 127
4, 59068, Control_c, 0, 64, 0
4, 59852, Control_c, 0, 64, 127
4, 60523, Control_c, 0, 64, 0
4, 60784, Control_c, 0, 64, 127
4, 61221, Control_c, 0, 64, 0
4, 61546, Control_c, 0, 64, 127
4, 61932, Control_c, 0, 64, 0
4, 62068, Control_c, 0, 64, 127
4, 62412, Control_c, 0, 64, 0
4, 63621, Control_c, 0, 64, 127
4, 64356, Control_c, 0, 64, 0
4, 64645, Control_c, 0, 64, 127
4, 65019, Control_c, 0, 64, 0
4, 65386, Control_c, 0, 64, 127
4, 65772, Control_c, 0, 64, 0
4, 65908, Control_c, 0, 64, 127
4, 66252, Control_c, 0, 64, 0
4, 67765, Control_c, 0, 64, 127
4, 68164, Control_c, 0, 64, 0
4, 68294, Control_c, 0, 64, 127
4, 68612, Control_c, 0, 64, 0
4, 68690, Control_c, 0, 64, 127
4, 68873, Control_c, 0, 64, 0
4, 70206, Control_c, 0, 64, 127
4, 70589, Control_c, 0, 64, 0
4, 70657, Control_c, 0, 64, 127
4, 70875, Control_c, 0, 64, 0
4, 73059, Control_c, 0, 64, 127
4, 73447, Control_c, 0, 64, 0
4, 74010, Control_c, 0, 64, 127
4, 74428, Control_c, 0, 64, 0
4, 75212, Control_c, 0, 64, 127
4, 75883, Control_c, 0, 64, 0
4, 76144, Control_c, 0, 64, 127
4, 76581, Control_c, 0, 64, 0
4, 77132, Control_c, 0, 64, 127
4, 77803, Control_c, 0, 64, 0
4, 78064, Control_c, 0, 64, 127
4, 78501, Control_c, 0, 64, 0
4, 81014, Control_c, 0, 64, 127
4, 81612, Control_c, 0, 64, 0
4, 81685, Control_c, 0, 64, 127
4, 82091, Control_c, 0, 64, 0
4, 82892, Control_c, 0, 64, 127
4, 83563, Control_c, 0, 64, 0
4, 83824, Control_c, 0, 64, 127
4, 84261, Control_c, 0, 64, 0
4, 84586, Control_c, 0, 64, 127
4, 84972, Control_c, 0, 64, 0
4, 85108, Control_c, 0, 64, 127
4, 85452, Control_c, 0, 64, 0
4, 86661, Control_c, 0, 64, 127
4, 87396, Control_c, 0, 64, 0
4, 87685, Control_c, 0, 64, 127
4, 88111, Control_c, 0, 64, 0
4, 88426, Control_c, 0, 64, 127
4, 88812, Control_c, 0, 64, 0
4, 88948, Control_c, 0, 64, 127
4, 89292, Control_c, 0, 64, 0
4, 90805, Control_c, 0, 64, 127
4, 91204, Control_c, 0, 64, 0
4, 91334, Control_c, 0, 64, 127
4, 91652, Control_c, 0, 64, 0
4, 91730, Control_c, 0, 64, 127
4, 91913, Control_c, 0, 64, 0
4, 93246, Control_c, 0, 64, 127
4, 93629, Control_c, 0, 64, 0
4, 93697, Control_c, 0, 64, 127
4, 93915, Control_c, 0, 64, 0
4, 96099, Control_c, 0, 64, 127
4, 96487, Control_c, 0, 64, 0
4, 97050, Control_c, 0, 64, 127
4, 97468, Control_c, 0, 64, 0
4, 98252, Control_c, 0, 64, 127
4, 98923, Control_c, 0, 64, 0
4, 99184, Control_c, 0, 64, 127
4, 99621, Control_c, 0, 64, 0
4, 100172, Control_c, 0, 64, 127
4, 100843, Control_c, 0, 64, 0
4, 101104, Control_c, 0, 64, 127
4, 101541, Control_c, 0, 64, 0
4, 104054, Control_c, 0, 64, 127
4, 104652, Control_c, 0, 64, 0
4, 104725, Control_c, 0, 64, 127
4, 105131, Control_c, 0, 64, 0
4, 105932, Control_c, 0, 64, 127
4, 106603, Control_c, 0, 64, 0
4, 106864, Control_c, 0, 64, 127
4, 107301, Control_c, 0, 64, 0
4, 107626, Control_c, 0, 64, 127
4, 108012, Control_c, 0, 64, 0
4, 108148, Control_c, 0, 64, 127
4, 108492, Control_c, 0, 64, 0
4, 109701, Control_c, 0, 64, 127
4, 110436, Control_c, 0, 64, 0
4, 110725, Control_c, 0, 64, 127
4, 111151, Control_c, 0, 64, 0
4, 111466, Control_c, 0, 64, 127
4, 111852, Control_c, 0, 64, 0
4, 111988, Control_c, 0, 64, 127
4, 112332, Control_c, 0, 64, 0
4, 113845, Control_c, 0, 64, 127
4, 114244, Control_c, 0, 64, 0
4, 114374, Control_c, 0, 64, 127
4, 114692, Control_c, 0, 64, 0
4, 114770, Control_c, 0, 64, 127
4, 114953, Control_c, 0, 64, 0
4, 116286, Control_c, 0, 64, 127
4, 116669, Control_c, 0, 64, 0
4, 116737, Control_c, 0, 64, 127
4, 116955, Control_c, 0, 64, 0
4, 119139, Control_c, 0, 64, 127
4, 119527, Control_c, 0, 64, 0
4, 120090, Control_c, 0, 64, 127
4, 120508, Control_c, 0, 64, 0
4, 176753, Control_c, 0, 64, 127
4, 177612, Control_c, 0, 64, 0
4, 177741, Control_c, 0, 64, 127
4, 178094, Control_c, 0, 64, 0
4, 179661, Control_c, 0, 64, 127
4, 180014, Control_c, 0, 64, 0
4, 189212, Control_c, 0, 64, 127
4, 189611, Control_c, 0, 64, 0
4, 196892, Control_c, 0, 64, 127
4, 197312, Control_c, 0, 64, 0
4, 198092, Control_c, 0, 64, 127
4, 198763, Control_c, 0, 64, 0
4, 199024, Control_c, 0, 64, 127
4, 199461, Control_c, 0, 64, 0
4, 200012, Control_c, 0, 64, 127
4, 200663, Control_c, 0, 64, 0
4, 200944, Control_c, 0, 64, 127
4, 201152, Control_c, 0, 64, 0
4, 201932, Control_c, 0, 64, 127
4, 202010, Control_c, 0, 64, 0
4, 202583, Control_c, 0, 64, 0
4, 202864, Control_c, 0, 64, 127
4, 203301, Control_c, 0, 64, 0
4, 203852, Control_c, 0, 64, 127
4, 204523, Control_c, 0, 64, 0
4, 204784, Control_c, 0, 64, 127
4, 205192, Control_c, 0, 64, 0
4, 211220, Control_c, 0, 64, 127
4, 211691, Control_c, 0, 64, 0
4, 211840, Control_c, 0, 64, 127
4, 212178, Control_c, 0, 64, 0
4, 212344, Control_c, 0, 64, 127
4, 212652, Control_c, 0, 64, 0
4, 220843, Control_c, 0, 64, 127
4, 221771, Control_c, 0, 64, 0
4, 221838, Control_c, 0, 64, 127
4, 222726, Control_c, 0, 64, 0
4, 222773, Control_c, 0, 64, 127
4, 224652, Control_c, 0, 64, 0
4, 224790, Control_c, 0, 64, 127
4, 225612, Control_c, 0, 64, 0
4, 226617, Control_c, 0, 64, 127
4, 227532, Control_c, 0, 64, 0
4, 228547, Control_c, 0, 64, 127
4, 229461, Control_c, 0, 64, 0
4, 230460, Control_c, 0, 64, 127
4, 231370, Control_c, 0, 64, 0
4, 231370, End_track
5, 0, Start_track
5, 0, Title_t, "Mozart: Sonate KV 570, 3. Satz"
5, 0, End_track
6, 0, Start_track
6, 0, Title_t, "Copyright © 2006 by Bernd Krueger"
6, 0, End_track
7, 0, Start_track
7, 0, Title_t, "http://www.piano-midi.de/"
7, 0, End_track
8, 0, Start_track
8, 0, Title_t, "Edition: 2013-10-23"
8, 0, End_track
9, 0, Start_track
9, 0, Title_t, "Spur 8"
9, 0, End_track
10, 0, Start_track
10, 0, Title_t, "Spur 9"
10, 0, End_track
11, 0, Start_track
11, 0, Title_t, "Spur 10"
11, 0, End_track
12, 0, Start_track
12, 0, Title_t, "Spur 11"
12, 0, End_track
13, 0, Start_track
13, 0, Title_t, "Spur 12"
13, 0, End_track
14, 0, Start_track
14, 0, Title_t, "Spur 13"
14, 0, End_track
15, 0, Start_track
15, 0, Title_t, "Spur 14"
15, 0, End_track
16, 0, Start_track
16, 0, Title_t, "Spur 15"
16, 0, End_track
17, 0, Start_track
17, 0, Title_t, "Spur 16"
17, 0, End_track
0, 0, End_of_file
