0, 0, Header, 1, 17, 480
1, 0, Start_track
1, 0, Title_t, "Klaviersonate KV 545 2. Satz"
1, 0, Copyright_t, "Copyright © 2006 by Bernd Krueger"
1, 0, Text_t, "Mozart"
1, 0, Text_t, "Veröffentlicht: 1.10.2006\012"
1, 0, Text_t, "Update: 27.9.2013\012"
1, 0, Text_t, "Dauer: 5:44 Minuten\012"
1, 0, Time_signature, 3, 2, 24, 8
1, 0, Key_signature, 1, "major"
1, 0, Tempo, 1092299
1, 0, Marker_t, "Teil 1"
1, 1320, Tempo, 1226242
1, 1440, Tempo, 1082446
1, 1800, Tempo, 1133573
1, 1920, Tempo, 1082446
1, 2760, Tempo, 1189768
1, 2880, Tempo, 1082446
1, 3480, Tempo, 1144383
1, 3600, Tempo, 1082446
1, 4200, Tempo, 1155402
1, 4320, Tempo, 1082446
1, 4680, Tempo, 1133573
1, 4800, Tempo, 1082446
1, 5280, Tempo, 1072770
1, 5760, Tempo, 1092299
1, 6000, Tempo, 1072770
1, 6240, Tempo, 1044750
1, 6720, Tempo, 1063264
1, 6840, Tempo, 1082446
1, 7080, Tempo, 1166634
1, 7200, Tempo, 1082446
1, 7680, Tempo, 1063264
1, 8280, Tempo, 1082446
1, 8520, Tempo, 1189768
1, 8640, Tempo, 1072770
1, 9120, Tempo, 1072770
1, 9960, Tempo, 1144383
1, 10080, Tempo, 1082446
1, 10560, Tempo, 1122965
1, 11520, Tempo, 1092299
1, 12000, Tempo, 1063264
1, 12240, Tempo, 1053926
1, 12360, Tempo, 1063264
1, 12480, Tempo, 1063264
1, 12840, Tempo, 1226242
1, 12960, Tempo, 1072770
1, 13320, Tempo, 1092299
1, 13440, Tempo, 1044750
1, 13944, Tempo, 1026870
1, 14016, Tempo, 1035733
1, 14088, Tempo, 1044750
1, 14136, Tempo, 1053926
1, 14208, Tempo, 1063264
1, 14256, Tempo, 1072770
1, 14280, Tempo, 1144383
1, 14400, Tempo, 1063264
1, 15000, Tempo, 1063264
1, 15120, Tempo, 1063264
1, 15360, Tempo, 1082446
1, 15720, Tempo, 1155402
1, 15840, Tempo, 1063264
1, 16200, Tempo, 1133573
1, 16320, Tempo, 1082446
1, 17280, Tempo, 1072770
1, 17724, Tempo, 1053926
1, 17772, Tempo, 1063264
1, 18204, Tempo, 1053926
1, 18360, Tempo, 1063264
1, 18600, Tempo, 1026870
1, 18720, Tempo, 1035733
1, 18840, Tempo, 1063264
1, 19200, Tempo, 1063264
1, 19680, Tempo, 1102333
1, 19800, Tempo, 1082446
1, 20040, Tempo, 1189768
1, 20160, Tempo, 1082446
1, 20520, Tempo, 1213838
1, 20640, Tempo, 1092299
1, 21120, Tempo, 1133573
1, 21480, Tempo, 1365809
1, 21600, Tempo, 1306336
1, 22080, Tempo, 1018157
1, 23040, Tempo, 1092299
1, 23040, Marker_t, "Teil 1 Wiederholung"
1, 24360, Tempo, 1226242
1, 24480, Tempo, 1082446
1, 24840, Tempo, 1133573
1, 24960, Tempo, 1082446
1, 25440, Tempo, 1063264
1, 25800, Tempo, 1189768
1, 25920, Tempo, 1082446
1, 26520, Tempo, 1144383
1, 26640, Tempo, 1082446
1, 27240, Tempo, 1155402
1, 27360, Tempo, 1082446
1, 27720, Tempo, 1133573
1, 27840, Tempo, 1082446
1, 28320, Tempo, 1063264
1, 28800, Tempo, 1092299
1, 29040, Tempo, 1072770
1, 29280, Tempo, 1044750
1, 29760, Tempo, 1063264
1, 29880, Tempo, 1082446
1, 30120, Tempo, 1144383
1, 30240, Tempo, 1082446
1, 30720, Tempo, 1063264
1, 31320, Tempo, 1082446
1, 31560, Tempo, 1189768
1, 31680, Tempo, 1072770
1, 32160, Tempo, 1072770
1, 33000, Tempo, 1144383
1, 33120, Tempo, 1082446
1, 33600, Tempo, 1122965
1, 34560, Tempo, 1092299
1, 35040, Tempo, 1063264
1, 35280, Tempo, 1053926
1, 35400, Tempo, 1063264
1, 35520, Tempo, 1063264
1, 35880, Tempo, 1226242
1, 36000, Tempo, 1072770
1, 36360, Tempo, 1092299
1, 36480, Tempo, 1044750
1, 36720, Tempo, 1035733
1, 36970, Tempo, 1044750
1, 37042, Tempo, 1053926
1, 37114, Tempo, 1063264
1, 37186, Tempo, 1072770
1, 37248, Tempo, 1063264
1, 37296, Tempo, 1072770
1, 37320, Tempo, 1144383
1, 37440, Tempo, 1063264
1, 38040, Tempo, 1063264
1, 38160, Tempo, 1063264
1, 38400, Tempo, 1082446
1, 38760, Tempo, 1155402
1, 38880, Tempo, 1063264
1, 39240, Tempo, 1133573
1, 39360, Tempo, 1082446
1, 40320, Tempo, 1072770
1, 40764, Tempo, 1053926
1, 40812, Tempo, 1063264
1, 41244, Tempo, 1053926
1, 41400, Tempo, 1063264
1, 41640, Tempo, 1026870
1, 41760, Tempo, 1035733
1, 41880, Tempo, 1063264
1, 42240, Tempo, 1063264
1, 42720, Tempo, 1102333
1, 42840, Tempo, 1082446
1, 43080, Tempo, 1189768
1, 43200, Tempo, 1082446
1, 43560, Tempo, 1213838
1, 43680, Tempo, 1092299
1, 44160, Tempo, 1133573
1, 44520, Tempo, 1365809
1, 44640, Tempo, 1306336
1, 45120, Tempo, 1018157
1, 46080, Tempo, 1044750
1, 46080, Marker_t, "Teil 2"
1, 46560, Tempo, 1063264
1, 46800, Tempo, 1053926
1, 46920, Tempo, 1063264
1, 47040, Tempo, 1063264
1, 47400, Tempo, 1144383
1, 47520, Tempo, 1044750
1, 47880, Tempo, 1092299
1, 48000, Tempo, 1044750
1, 48480, Tempo, 1053926
1, 48492, Tempo, 1026870
1, 48540, Tempo, 1035733
1, 48588, Tempo, 1044750
1, 48612, Tempo, 1053926
1, 48648, Tempo, 1044750
1, 48696, Tempo, 1053926
1, 48768, Tempo, 1063264
1, 48816, Tempo, 1072770
1, 48840, Tempo, 1144383
1, 48960, Tempo, 1053926
1, 49080, Tempo, 1044750
1, 49440, Tempo, 1044750
1, 49680, Tempo, 1053926
1, 49800, Tempo, 1063264
1, 49920, Tempo, 1044750
1, 50280, Tempo, 1144383
1, 50400, Tempo, 1072770
1, 50640, Tempo, 1044750
1, 50760, Tempo, 1072770
1, 50880, Tempo, 1035733
1, 51360, Tempo, 1053926
1, 51372, Tempo, 1026870
1, 51420, Tempo, 1035733
1, 51468, Tempo, 1044750
1, 51492, Tempo, 1053926
1, 51528, Tempo, 1044750
1, 51576, Tempo, 1053926
1, 51648, Tempo, 1063264
1, 51696, Tempo, 1072770
1, 51720, Tempo, 1063264
1, 51840, Tempo, 1035733
1, 52320, Tempo, 1063264
1, 52560, Tempo, 1053926
1, 52680, Tempo, 1063264
1, 52800, Tempo, 1035733
1, 53160, Tempo, 1102333
1, 53280, Tempo, 1035733
1, 53760, Tempo, 1063264
1, 54000, Tempo, 1053926
1, 54120, Tempo, 1063264
1, 54240, Tempo, 1063264
1, 54600, Tempo, 1144383
1, 54720, Tempo, 1082446
1, 55080, Tempo, 1144383
1, 55200, Tempo, 1072770
1, 55680, Tempo, 1133573
1, 56040, Tempo, 1365809
1, 56160, Tempo, 1306336
1, 56640, Tempo, 1122965
1, 57120, Tempo, 1133573
1, 57480, Tempo, 1265022
1, 57600, Tempo, 1092299
1, 58080, Tempo, 1063264
1, 58320, Tempo, 1053926
1, 58440, Tempo, 1063264
1, 58560, Tempo, 1063264
1, 58920, Tempo, 1226242
1, 59040, Tempo, 1072770
1, 59400, Tempo, 1092299
1, 59520, Tempo, 1044750
1, 60024, Tempo, 1026870
1, 60096, Tempo, 1035733
1, 60168, Tempo, 1044750
1, 60216, Tempo, 1053926
1, 60288, Tempo, 1063264
1, 60336, Tempo, 1072770
1, 60360, Tempo, 1144383
1, 60480, Tempo, 1063264
1, 61080, Tempo, 1063264
1, 61200, Tempo, 1063264
1, 61440, Tempo, 1082446
1, 61800, Tempo, 1155402
1, 61920, Tempo, 1063264
1, 62280, Tempo, 1133573
1, 62400, Tempo, 1082446
1, 63360, Tempo, 1072770
1, 63804, Tempo, 1053926
1, 63852, Tempo, 1063264
1, 64284, Tempo, 1053926
1, 64440, Tempo, 1063264
1, 64680, Tempo, 1026870
1, 64800, Tempo, 1035733
1, 64920, Tempo, 1063264
1, 65280, Tempo, 1063264
1, 65760, Tempo, 1102333
1, 65880, Tempo, 1082446
1, 66120, Tempo, 1189768
1, 66240, Tempo, 1082446
1, 66600, Tempo, 1213838
1, 66720, Tempo, 1092299
1, 67200, Tempo, 1133573
1, 67560, Tempo, 1365809
1, 67680, Tempo, 1306336
1, 68160, Tempo, 1018157
1, 69120, Tempo, 1044750
1, 69120, Marker_t, "Teil 2 Wiederholung"
1, 69600, Tempo, 1063264
1, 69840, Tempo, 1053926
1, 69960, Tempo, 1063264
1, 70080, Tempo, 1063264
1, 70440, Tempo, 1144383
1, 70560, Tempo, 1044750
1, 70920, Tempo, 1092299
1, 71040, Tempo, 1044750
1, 71520, Tempo, 1053926
1, 71532, Tempo, 1026870
1, 71580, Tempo, 1035733
1, 71628, Tempo, 1044750
1, 71652, Tempo, 1053926
1, 71688, Tempo, 1044750
1, 71736, Tempo, 1053926
1, 71808, Tempo, 1063264
1, 71856, Tempo, 1072770
1, 71880, Tempo, 1144383
1, 72000, Tempo, 1053926
1, 72120, Tempo, 1044750
1, 72480, Tempo, 1044750
1, 72720, Tempo, 1053926
1, 72840, Tempo, 1063264
1, 72960, Tempo, 1044750
1, 73320, Tempo, 1144383
1, 73440, Tempo, 1072770
1, 73680, Tempo, 1044750
1, 73800, Tempo, 1072770
1, 73920, Tempo, 1035733
1, 74400, Tempo, 1053926
1, 74412, Tempo, 1026870
1, 74460, Tempo, 1035733
1, 74508, Tempo, 1044750
1, 74532, Tempo, 1053926
1, 74568, Tempo, 1044750
1, 74616, Tempo, 1053926
1, 74688, Tempo, 1063264
1, 74736, Tempo, 1072770
1, 74760, Tempo, 1063264
1, 74880, Tempo, 1035733
1, 75360, Tempo, 1044750
1, 75600, Tempo, 1053926
1, 75720, Tempo, 1063264
1, 75840, Tempo, 1035733
1, 76080, Tempo, 1053926
1, 76200, Tempo, 1102333
1, 76320, Tempo, 1035733
1, 76800, Tempo, 1063264
1, 77040, Tempo, 1053926
1, 77160, Tempo, 1063264
1, 77280, Tempo, 1053926
1, 77400, Tempo, 1082446
1, 77640, Tempo, 1144383
1, 77760, Tempo, 1082446
1, 78120, Tempo, 1144383
1, 78240, Tempo, 1072770
1, 78720, Tempo, 1133573
1, 79080, Tempo, 1365809
1, 79200, Tempo, 1306336
1, 79680, Tempo, 1155402
1, 79920, Tempo, 1133573
1, 80160, Tempo, 1133573
1, 80280, Tempo, 1144383
1, 80520, Tempo, 1265022
1, 80640, Tempo, 1092299
1, 81120, Tempo, 1063264
1, 81360, Tempo, 1053926
1, 81480, Tempo, 1063264
1, 81600, Tempo, 1063264
1, 81960, Tempo, 1226242
1, 82080, Tempo, 1072770
1, 82440, Tempo, 1092299
1, 82560, Tempo, 1044750
1, 82996, Tempo, 1035733
1, 83020, Tempo, 1053926
1, 83116, Tempo, 1063264
1, 83212, Tempo, 1072770
1, 83284, Tempo, 1082446
1, 83328, Tempo, 1063264
1, 83376, Tempo, 1072770
1, 83400, Tempo, 1144383
1, 83520, Tempo, 1063264
1, 84120, Tempo, 1063264
1, 84240, Tempo, 1063264
1, 84480, Tempo, 1082446
1, 84840, Tempo, 1155402
1, 84960, Tempo, 1063264
1, 85320, Tempo, 1133573
1, 85440, Tempo, 1082446
1, 85680, Tempo, 1072770
1, 86160, Tempo, 1063264
1, 86280, Tempo, 1102333
1, 86400, Tempo, 1072770
1, 86844, Tempo, 1053926
1, 86892, Tempo, 1063264
1, 87324, Tempo, 1053926
1, 87480, Tempo, 1063264
1, 87720, Tempo, 1092299
1, 87840, Tempo, 1035733
1, 87960, Tempo, 1063264
1, 88320, Tempo, 1063264
1, 88800, Tempo, 1102333
1, 88920, Tempo, 1082446
1, 89160, Tempo, 1189768
1, 89280, Tempo, 1082446
1, 89640, Tempo, 1213838
1, 89760, Tempo, 1092299
1, 90240, Tempo, 1133573
1, 90600, Tempo, 1365809
1, 90720, Tempo, 1306336
1, 91200, Tempo, 1018157
1, 92160, Tempo, 1082446
1, 92160, Marker_t, "Teil 3"
1, 92640, Tempo, 1063264
1, 92880, Tempo, 1053926
1, 93000, Tempo, 1063264
1, 93120, Tempo, 1063264
1, 93480, Tempo, 1144383
1, 93600, Tempo, 1072770
1, 93960, Tempo, 1092299
1, 94080, Tempo, 1044750
1, 94560, Tempo, 1053926
1, 94572, Tempo, 1026870
1, 94620, Tempo, 1035733
1, 94668, Tempo, 1044750
1, 94692, Tempo, 1053926
1, 94728, Tempo, 1044750
1, 94776, Tempo, 1053926
1, 94848, Tempo, 1063264
1, 94896, Tempo, 1072770
1, 94920, Tempo, 1144383
1, 95040, Tempo, 1092299
1, 95160, Tempo, 1053926
1, 95520, Tempo, 1063264
1, 95760, Tempo, 1053926
1, 95880, Tempo, 1063264
1, 96000, Tempo, 1063264
1, 96360, Tempo, 1144383
1, 96480, Tempo, 1072770
1, 96720, Tempo, 1044750
1, 96840, Tempo, 1072770
1, 96960, Tempo, 1044750
1, 97440, Tempo, 1053926
1, 97452, Tempo, 1026870
1, 97500, Tempo, 1035733
1, 97548, Tempo, 1044750
1, 97572, Tempo, 1053926
1, 97608, Tempo, 1044750
1, 97656, Tempo, 1053926
1, 97728, Tempo, 1063264
1, 97776, Tempo, 1072770
1, 97800, Tempo, 1063264
1, 97920, Tempo, 1035733
1, 98400, Tempo, 1044750
1, 98640, Tempo, 1044750
1, 98760, Tempo, 1063264
1, 98880, Tempo, 1035733
1, 99240, Tempo, 1102333
1, 99360, Tempo, 1035733
1, 99840, Tempo, 1053926
1, 100080, Tempo, 1035733
1, 100200, Tempo, 1063264
1, 100320, Tempo, 1053926
1, 100680, Tempo, 1144383
1, 100800, Tempo, 1082446
1, 101160, Tempo, 1144383
1, 101280, Tempo, 1063264
1, 101760, Tempo, 1112553
1, 102120, Tempo, 1365809
1, 102240, Tempo, 1306336
1, 102720, Tempo, 1072770
1, 102960, Tempo, 1053926
1, 103200, Tempo, 1072770
1, 103320, Tempo, 1092299
1, 103560, Tempo, 1213838
1, 103680, Tempo, 1092299
1, 104160, Tempo, 1063264
1, 104400, Tempo, 1053926
1, 104520, Tempo, 1063264
1, 104640, Tempo, 1063264
1, 105000, Tempo, 1144383
1, 105120, Tempo, 1072770
1, 105480, Tempo, 1092299
1, 105600, Tempo, 1044750
1, 106080, Tempo, 1053926
1, 106092, Tempo, 1026870
1, 106140, Tempo, 1035733
1, 106188, Tempo, 1044750
1, 106212, Tempo, 1053926
1, 106248, Tempo, 1044750
1, 106296, Tempo, 1053926
1, 106368, Tempo, 1063264
1, 106416, Tempo, 1072770
1, 106440, Tempo, 1144383
1, 106560, Tempo, 1092299
1, 106680, Tempo, 1053926
1, 107040, Tempo, 1063264
1, 107280, Tempo, 1053926
1, 107400, Tempo, 1063264
1, 107520, Tempo, 1063264
1, 107880, Tempo, 1144383
1, 108000, Tempo, 1072770
1, 108240, Tempo, 1044750
1, 108360, Tempo, 1072770
1, 108480, Tempo, 1044750
1, 108960, Tempo, 1053926
1, 108972, Tempo, 1026870
1, 109020, Tempo, 1035733
1, 109068, Tempo, 1044750
1, 109092, Tempo, 1053926
1, 109128, Tempo, 1044750
1, 109176, Tempo, 1053926
1, 109248, Tempo, 1063264
1, 109296, Tempo, 1072770
1, 109320, Tempo, 1063264
1, 109440, Tempo, 1035733
1, 109920, Tempo, 1044750
1, 110160, Tempo, 1044750
1, 110280, Tempo, 1063264
1, 110400, Tempo, 1035733
1, 110760, Tempo, 1102333
1, 110880, Tempo, 1035733
1, 111360, Tempo, 1053926
1, 111600, Tempo, 1035733
1, 111720, Tempo, 1063264
1, 111840, Tempo, 1053926
1, 112200, Tempo, 1144383
1, 112320, Tempo, 1082446
1, 112680, Tempo, 1144383
1, 112800, Tempo, 1063264
1, 113280, Tempo, 1112553
1, 113640, Tempo, 1365809
1, 113760, Tempo, 1306336
1, 114240, Tempo, 1112553
1, 114480, Tempo, 1082446
1, 114720, Tempo, 1112553
1, 114840, Tempo, 1133573
1, 115080, Tempo, 1265022
1, 115200, Tempo, 1092299
1, 116520, Tempo, 1226242
1, 116640, Tempo, 1082446
1, 117000, Tempo, 1133573
1, 117120, Tempo, 1082446
1, 117960, Tempo, 1189768
1, 118080, Tempo, 1082446
1, 118680, Tempo, 1144383
1, 118800, Tempo, 1082446
1, 119400, Tempo, 1155402
1, 119520, Tempo, 1082446
1, 119880, Tempo, 1133573
1, 120000, Tempo, 1082446
1, 120480, Tempo, 1072770
1, 120960, Tempo, 1092299
1, 121200, Tempo, 1072770
1, 121440, Tempo, 1044750
1, 121920, Tempo, 1063264
1, 122040, Tempo, 1082446
1, 122280, Tempo, 1166634
1, 122400, Tempo, 1082446
1, 122880, Tempo, 1063264
1, 123480, Tempo, 1082446
1, 123720, Tempo, 1189768
1, 123840, Tempo, 1072770
1, 124320, Tempo, 1072770
1, 125160, Tempo, 1144383
1, 125280, Tempo, 1082446
1, 125760, Tempo, 1122965
1, 126720, Tempo, 1092299
1, 127200, Tempo, 1063264
1, 127440, Tempo, 1053926
1, 127560, Tempo, 1063264
1, 127680, Tempo, 1063264
1, 128040, Tempo, 1226242
1, 128160, Tempo, 1072770
1, 128520, Tempo, 1092299
1, 128640, Tempo, 1044750
1, 129144, Tempo, 1026870
1, 129216, Tempo, 1035733
1, 129288, Tempo, 1044750
1, 129336, Tempo, 1053926
1, 129408, Tempo, 1063264
1, 129456, Tempo, 1072770
1, 129480, Tempo, 1144383
1, 129600, Tempo, 1063264
1, 130200, Tempo, 1063264
1, 130320, Tempo, 1063264
1, 130560, Tempo, 1082446
1, 130920, Tempo, 1155402
1, 131040, Tempo, 1063264
1, 131400, Tempo, 1133573
1, 131520, Tempo, 1082446
1, 132480, Tempo, 1072770
1, 132924, Tempo, 1053926
1, 132972, Tempo, 1063264
1, 133200, Tempo, 1053926
1, 133404, Tempo, 1053926
1, 133560, Tempo, 1063264
1, 133800, Tempo, 1026870
1, 133920, Tempo, 1035733
1, 134040, Tempo, 1063264
1, 134400, Tempo, 1063264
1, 134880, Tempo, 1102333
1, 135000, Tempo, 1082446
1, 135240, Tempo, 1189768
1, 135360, Tempo, 1082446
1, 135720, Tempo, 1213838
1, 135840, Tempo, 1092299
1, 136320, Tempo, 1133573
1, 136680, Tempo, 1365809
1, 136800, Tempo, 1102333
1, 137040, Tempo, 1072770
1, 137280, Tempo, 1082446
1, 137520, Tempo, 1072770
1, 137760, Tempo, 1082446
1, 138120, Tempo, 1213838
1, 138240, Tempo, 1092299
1, 138360, Tempo, 1072770
1, 138720, Tempo, 1092299
1, 138960, Tempo, 1053926
1, 139200, Tempo, 1035733
1, 139440, Tempo, 1092299
1, 139560, Tempo, 1226242
1, 139680, Tempo, 1063264
1, 140040, Tempo, 1102333
1, 140160, Tempo, 1082446
1, 140400, Tempo, 1063264
1, 140640, Tempo, 1082446
1, 140760, Tempo, 1063264
1, 141000, Tempo, 1189768
1, 141120, Tempo, 1082446
1, 141480, Tempo, 1213838
1, 141600, Tempo, 1092299
1, 142080, Tempo, 1102333
1, 142200, Tempo, 1122965
1, 142440, Tempo, 1365809
1, 142560, Tempo, 1102333
1, 142680, Tempo, 1092299
1, 142706, Tempo, 1102333
1, 142778, Tempo, 1092299
1, 142800, Tempo, 1063264
1, 142850, Tempo, 1082446
1, 142922, Tempo, 1072770
1, 142994, Tempo, 1063264
1, 143040, Tempo, 1072770
1, 143880, Tempo, 1213838
1, 144000, Tempo, 1063264
1, 145320, Tempo, 1226242
1, 145440, Tempo, 1082446
1, 145800, Tempo, 1102333
1, 145920, Tempo, 1082446
1, 146760, Tempo, 1189768
1, 146880, Tempo, 1082446
1, 147240, Tempo, 1213838
1, 147360, Tempo, 1092299
1, 147840, Tempo, 1133573
1, 148200, Tempo, 1213838
1, 148320, Tempo, 1072770
1, 148680, Tempo, 1072770
1, 148800, Tempo, 1082446
1, 149160, Tempo, 1155402
1, 149280, Tempo, 1072770
1, 149640, Tempo, 1155402
1, 149760, Tempo, 1072770
1, 150120, Tempo, 1072770
1, 150240, Tempo, 1082446
1, 150600, Tempo, 1155402
1, 150720, Tempo, 1072770
1, 151080, Tempo, 1155402
1, 151200, Tempo, 1306336
1, 151200, End_track
2, 0, Start_track
2, 0, Title_t, "Piano right"
2, 0, Program_c, 0, 0
2, 0, Note_on_c, 0, 71, 50
2, 960, Note_on_c, 0, 71, 0
2, 960, Note_on_c, 0, 74, 50
2, 1080, Note_on_c, 0, 72, 46
2, 1104, Note_on_c, 0, 74, 0
2, 1200, Note_on_c, 0, 71, 46
2, 1224, Note_on_c, 0, 72, 0
2, 1320, Note_on_c, 0, 72, 48
2, 1344, Note_on_c, 0, 71, 0
2, 1440, Note_on_c, 0, 74, 54
2, 1464, Note_on_c, 0, 72, 0
2, 1800, Note_on_c, 0, 74, 0
2, 1800, Note_on_c, 0, 71, 47
2, 1920, Note_on_c, 0, 71, 0
2, 1920, Note_on_c, 0, 67, 47
2, 2400, Note_on_c, 0, 67, 0
2, 2880, Note_on_c, 0, 79, 67
2, 3600, Note_on_c, 0, 79, 0
2, 3600, Note_on_c, 0, 81, 62
2, 3720, Note_on_c, 0, 81, 0
2, 3720, Note_on_c, 0, 79, 55
2, 3840, Note_on_c, 0, 79, 0
2, 3840, Note_on_c, 0, 78, 57
2, 3960, Note_on_c, 0, 76, 46
2, 3984, Note_on_c, 0, 78, 0
2, 4080, Note_on_c, 0, 74, 51
2, 4104, Note_on_c, 0, 76, 0
2, 4200, Note_on_c, 0, 73, 46
2, 4224, Note_on_c, 0, 74, 0
2, 4320, Note_on_c, 0, 74, 53
2, 4344, Note_on_c, 0, 73, 0
2, 4680, Note_on_c, 0, 74, 0
2, 4680, Note_on_c, 0, 71, 47
2, 4800, Note_on_c, 0, 71, 0
2, 4800, Note_on_c, 0, 67, 45
2, 5280, Note_on_c, 0, 67, 0
2, 5760, Note_on_c, 0, 72, 50
2, 6120, Note_on_c, 0, 72, 0
2, 6120, Note_on_c, 0, 69, 47
2, 6240, Note_on_c, 0, 69, 0
2, 6240, Note_on_c, 0, 66, 52
2, 6360, Note_on_c, 0, 66, 0
2, 6480, Note_on_c, 0, 69, 47
2, 6600, Note_on_c, 0, 69, 0
2, 6720, Note_on_c, 0, 71, 51
2, 6840, Note_on_c, 0, 71, 0
2, 6960, Note_on_c, 0, 72, 52
2, 7080, Note_on_c, 0, 72, 0
2, 7200, Note_on_c, 0, 74, 57
2, 7560, Note_on_c, 0, 74, 0
2, 7560, Note_on_c, 0, 71, 61
2, 7680, Note_on_c, 0, 71, 0
2, 7680, Note_on_c, 0, 79, 65
2, 8160, Note_on_c, 0, 79, 0
2, 8640, Note_on_c, 0, 81, 68
2, 8760, Note_on_c, 0, 79, 59
2, 8772, Note_on_c, 0, 81, 0
2, 8880, Note_on_c, 0, 78, 64
2, 8892, Note_on_c, 0, 79, 0
2, 9000, Note_on_c, 0, 79, 58
2, 9012, Note_on_c, 0, 78, 0
2, 9120, Note_on_c, 0, 79, 0
2, 9120, Note_on_c, 0, 78, 64
2, 9240, Note_on_c, 0, 76, 54
2, 9252, Note_on_c, 0, 78, 0
2, 9360, Note_on_c, 0, 75, 59
2, 9372, Note_on_c, 0, 76, 0
2, 9480, Note_on_c, 0, 76, 53
2, 9492, Note_on_c, 0, 75, 0
2, 9600, Note_on_c, 0, 76, 0
2, 9600, Note_on_c, 0, 74, 62
2, 9720, Note_on_c, 0, 72, 53
2, 9732, Note_on_c, 0, 74, 0
2, 9840, Note_on_c, 0, 71, 56
2, 9852, Note_on_c, 0, 72, 0
2, 9960, Note_on_c, 0, 72, 53
2, 9972, Note_on_c, 0, 71, 0
2, 10080, Note_on_c, 0, 72, 0
2, 10080, Note_on_c, 0, 71, 59
2, 10440, Note_on_c, 0, 71, 0
2, 10440, Note_on_c, 0, 72, 50
2, 10500, Note_on_c, 0, 72, 0
2, 10500, Note_on_c, 0, 71, 50
2, 10560, Note_on_c, 0, 71, 0
2, 10560, Note_on_c, 0, 69, 57
2, 10800, Note_on_c, 0, 69, 0
2, 10800, Note_on_c, 0, 74, 54
2, 11040, Note_on_c, 0, 73, 52
2, 11050, Note_on_c, 0, 74, 0
2, 11280, Note_on_c, 0, 72, 50
2, 11290, Note_on_c, 0, 73, 0
2, 11520, Note_on_c, 0, 72, 0
2, 11520, Note_on_c, 0, 71, 50
2, 12120, Note_on_c, 0, 71, 0
2, 12120, Note_on_c, 0, 67, 46
2, 12233, Note_on_c, 0, 71, 48
2, 12240, Note_on_c, 0, 67, 0
2, 12353, Note_on_c, 0, 71, 0
2, 12353, Note_on_c, 0, 74, 46
2, 12473, Note_on_c, 0, 74, 0
2, 12480, Note_on_c, 0, 72, 54
2, 12600, Note_on_c, 0, 72, 0
2, 12600, Note_on_c, 0, 69, 46
2, 12720, Note_on_c, 0, 69, 0
2, 12720, Note_on_c, 0, 72, 54
2, 12840, Note_on_c, 0, 72, 0
2, 12840, Note_on_c, 0, 76, 51
2, 12960, Note_on_c, 0, 76, 0
2, 12960, Note_on_c, 0, 74, 58
2, 13320, Note_on_c, 0, 74, 0
2, 13320, Note_on_c, 0, 71, 47
2, 13440, Note_on_c, 0, 71, 0
2, 13440, Note_on_c, 0, 67, 47
2, 13500, Note_on_c, 0, 67, 0
2, 13560, Note_on_c, 0, 67, 46
2, 13620, Note_on_c, 0, 67, 0
2, 13680, Note_on_c, 0, 69, 47
2, 13740, Note_on_c, 0, 69, 0
2, 13800, Note_on_c, 0, 71, 48
2, 13860, Note_on_c, 0, 71, 0
2, 13920, Note_on_c, 0, 72, 49
2, 13980, Note_on_c, 0, 72, 0
2, 14040, Note_on_c, 0, 74, 50
2, 14100, Note_on_c, 0, 74, 0
2, 14160, Note_on_c, 0, 76, 51
2, 14220, Note_on_c, 0, 76, 0
2, 14280, Note_on_c, 0, 78, 53
2, 14340, Note_on_c, 0, 78, 0
2, 14400, Note_on_c, 0, 79, 57
2, 14520, Note_on_c, 0, 78, 50
2, 14544, Note_on_c, 0, 79, 0
2, 14640, Note_on_c, 0, 79, 56
2, 14664, Note_on_c, 0, 78, 0
2, 14760, Note_on_c, 0, 78, 52
2, 14784, Note_on_c, 0, 79, 0
2, 14880, Note_on_c, 0, 81, 59
2, 14904, Note_on_c, 0, 78, 0
2, 15000, Note_on_c, 0, 79, 57
2, 15024, Note_on_c, 0, 81, 0
2, 15120, Note_on_c, 0, 78, 54
2, 15144, Note_on_c, 0, 79, 0
2, 15240, Note_on_c, 0, 79, 49
2, 15264, Note_on_c, 0, 78, 0
2, 15360, Note_on_c, 0, 78, 52
2, 15384, Note_on_c, 0, 79, 0
2, 15480, Note_on_c, 0, 76, 50
2, 15504, Note_on_c, 0, 78, 0
2, 15600, Note_on_c, 0, 74, 48
2, 15624, Note_on_c, 0, 76, 0
2, 15720, Note_on_c, 0, 73, 46
2, 15744, Note_on_c, 0, 74, 0
2, 15840, Note_on_c, 0, 74, 50
2, 15864, Note_on_c, 0, 73, 0
2, 15960, Note_on_c, 0, 74, 0
2, 15960, Note_on_c, 0, 71, 43
2, 16080, Note_on_c, 0, 71, 0
2, 16080, Note_on_c, 0, 74, 47
2, 16200, Note_on_c, 0, 74, 0
2, 16200, Note_on_c, 0, 71, 43
2, 16320, Note_on_c, 0, 71, 0
2, 16320, Note_on_c, 0, 67, 47
2, 16800, Note_on_c, 0, 67, 0
2, 17280, Note_on_c, 0, 72, 50
2, 17400, Note_on_c, 0, 72, 0
2, 17400, Note_on_c, 0, 69, 46
2, 17520, Note_on_c, 0, 69, 0
2, 17520, Note_on_c, 0, 72, 46
2, 17640, Note_on_c, 0, 72, 0
2, 17640, Note_on_c, 0, 69, 43
2, 17760, Note_on_c, 0, 69, 0
2, 17760, Note_on_c, 0, 66, 50
2, 17820, Note_on_c, 0, 66, 0
2, 17880, Note_on_c, 0, 69, 46
2, 18000, Note_on_c, 0, 69, 0
2, 18000, Note_on_c, 0, 68, 49
2, 18120, Note_on_c, 0, 68, 0
2, 18120, Note_on_c, 0, 69, 51
2, 18240, Note_on_c, 0, 69, 0
2, 18240, Note_on_c, 0, 70, 54
2, 18360, Note_on_c, 0, 70, 0
2, 18360, Note_on_c, 0, 71, 51
2, 18480, Note_on_c, 0, 71, 0
2, 18480, Note_on_c, 0, 72, 54
2, 18600, Note_on_c, 0, 72, 0
2, 18600, Note_on_c, 0, 73, 56
2, 18720, Note_on_c, 0, 73, 0
2, 18720, Note_on_c, 0, 74, 59
2, 18840, Note_on_c, 0, 74, 0
2, 18840, Note_on_c, 0, 71, 51
2, 18960, Note_on_c, 0, 71, 0
2, 18960, Note_on_c, 0, 74, 54
2, 19080, Note_on_c, 0, 74, 0
2, 19080, Note_on_c, 0, 71, 51
2, 19200, Note_on_c, 0, 71, 0
2, 19200, Note_on_c, 0, 79, 63
2, 19680, Note_on_c, 0, 79, 0
2, 19800, Note_on_c, 0, 83, 67
2, 19920, Note_on_c, 0, 78, 62
2, 19944, Note_on_c, 0, 83, 0
2, 20040, Note_on_c, 0, 79, 56
2, 20064, Note_on_c, 0, 78, 0
2, 20160, Note_on_c, 0, 79, 0
2, 20160, Note_on_c, 0, 75, 58
2, 20280, Note_on_c, 0, 76, 49
2, 20304, Note_on_c, 0, 75, 0
2, 20400, Note_on_c, 0, 72, 53
2, 20424, Note_on_c, 0, 76, 0
2, 20520, Note_on_c, 0, 69, 46
2, 20544, Note_on_c, 0, 72, 0
2, 20640, Note_on_c, 0, 69, 0
2, 20640, Note_on_c, 0, 67, 53
2, 21000, Note_on_c, 0, 67, 0
2, 21000, Note_on_c, 0, 67, 44
2, 21120, Note_on_c, 0, 67, 0
2, 21120, Note_on_c, 0, 66, 47
2, 21120, Note_on_c, 0, 71, 55
2, 21240, Note_on_c, 0, 69, 44
2, 21264, Note_on_c, 0, 71, 0
2, 21360, Note_on_c, 0, 67, 49
2, 21384, Note_on_c, 0, 69, 0
2, 21480, Note_on_c, 0, 69, 42
2, 21504, Note_on_c, 0, 67, 0
2, 21593, Note_on_c, 0, 69, 0
2, 21600, Note_on_c, 0, 66, 0
2, 21600, Note_on_c, 0, 66, 42
2, 21600, Note_on_c, 0, 69, 53
2, 22080, Note_on_c, 0, 69, 0
2, 22080, Note_on_c, 0, 66, 0
2, 22080, Note_on_c, 0, 67, 48
2, 22560, Note_on_c, 0, 67, 0
2, 23040, Note_on_c, 0, 71, 50
2, 24000, Note_on_c, 0, 71, 0
2, 24000, Note_on_c, 0, 74, 50
2, 24120, Note_on_c, 0, 72, 46
2, 24144, Note_on_c, 0, 74, 0
2, 24240, Note_on_c, 0, 71, 46
2, 24264, Note_on_c, 0, 72, 0
2, 24360, Note_on_c, 0, 72, 48
2, 24384, Note_on_c, 0, 71, 0
2, 24480, Note_on_c, 0, 74, 54
2, 24504, Note_on_c, 0, 72, 0
2, 24840, Note_on_c, 0, 74, 0
2, 24840, Note_on_c, 0, 71, 47
2, 24960, Note_on_c, 0, 71, 0
2, 24960, Note_on_c, 0, 67, 47
2, 25440, Note_on_c, 0, 67, 0
2, 25920, Note_on_c, 0, 79, 67
2, 26640, Note_on_c, 0, 79, 0
2, 26640, Note_on_c, 0, 81, 62
2, 26760, Note_on_c, 0, 81, 0
2, 26760, Note_on_c, 0, 79, 55
2, 26880, Note_on_c, 0, 79, 0
2, 26880, Note_on_c, 0, 78, 57
2, 27000, Note_on_c, 0, 76, 46
2, 27024, Note_on_c, 0, 78, 0
2, 27120, Note_on_c, 0, 74, 51
2, 27144, Note_on_c, 0, 76, 0
2, 27240, Note_on_c, 0, 73, 46
2, 27264, Note_on_c, 0, 74, 0
2, 27360, Note_on_c, 0, 74, 53
2, 27384, Note_on_c, 0, 73, 0
2, 27720, Note_on_c, 0, 74, 0
2, 27720, Note_on_c, 0, 71, 47
2, 27840, Note_on_c, 0, 71, 0
2, 27840, Note_on_c, 0, 67, 45
2, 28320, Note_on_c, 0, 67, 0
2, 28800, Note_on_c, 0, 72, 50
2, 29160, Note_on_c, 0, 72, 0
2, 29160, Note_on_c, 0, 69, 47
2, 29280, Note_on_c, 0, 69, 0
2, 29280, Note_on_c, 0, 66, 52
2, 29400, Note_on_c, 0, 66, 0
2, 29520, Note_on_c, 0, 69, 47
2, 29640, Note_on_c, 0, 69, 0
2, 29760, Note_on_c, 0, 71, 51
2, 29880, Note_on_c, 0, 71, 0
2, 30000, Note_on_c, 0, 72, 52
2, 30120, Note_on_c, 0, 72, 0
2, 30240, Note_on_c, 0, 74, 57
2, 30600, Note_on_c, 0, 74, 0
2, 30600, Note_on_c, 0, 71, 61
2, 30720, Note_on_c, 0, 71, 0
2, 30720, Note_on_c, 0, 79, 65
2, 31200, Note_on_c, 0, 79, 0
2, 31680, Note_on_c, 0, 81, 68
2, 31800, Note_on_c, 0, 79, 59
2, 31812, Note_on_c, 0, 81, 0
2, 31920, Note_on_c, 0, 78, 64
2, 31932, Note_on_c, 0, 79, 0
2, 32040, Note_on_c, 0, 79, 58
2, 32052, Note_on_c, 0, 78, 0
2, 32160, Note_on_c, 0, 79, 0
2, 32160, Note_on_c, 0, 78, 64
2, 32280, Note_on_c, 0, 76, 54
2, 32292, Note_on_c, 0, 78, 0
2, 32400, Note_on_c, 0, 75, 59
2, 32412, Note_on_c, 0, 76, 0
2, 32520, Note_on_c, 0, 76, 53
2, 32532, Note_on_c, 0, 75, 0
2, 32640, Note_on_c, 0, 76, 0
2, 32640, Note_on_c, 0, 74, 62
2, 32760, Note_on_c, 0, 72, 53
2, 32772, Note_on_c, 0, 74, 0
2, 32880, Note_on_c, 0, 71, 56
2, 32892, Note_on_c, 0, 72, 0
2, 33000, Note_on_c, 0, 72, 53
2, 33012, Note_on_c, 0, 71, 0
2, 33120, Note_on_c, 0, 72, 0
2, 33120, Note_on_c, 0, 71, 59
2, 33480, Note_on_c, 0, 71, 0
2, 33480, Note_on_c, 0, 72, 50
2, 33540, Note_on_c, 0, 72, 0
2, 33540, Note_on_c, 0, 71, 50
2, 33600, Note_on_c, 0, 71, 0
2, 33600, Note_on_c, 0, 69, 57
2, 33840, Note_on_c, 0, 69, 0
2, 33840, Note_on_c, 0, 74, 54
2, 34080, Note_on_c, 0, 73, 52
2, 34090, Note_on_c, 0, 74, 0
2, 34320, Note_on_c, 0, 72, 50
2, 34330, Note_on_c, 0, 73, 0
2, 34560, Note_on_c, 0, 72, 0
2, 34560, Note_on_c, 0, 71, 50
2, 35160, Note_on_c, 0, 71, 0
2, 35160, Note_on_c, 0, 67, 46
2, 35273, Note_on_c, 0, 71, 48
2, 35280, Note_on_c, 0, 67, 0
2, 35393, Note_on_c, 0, 71, 0
2, 35393, Note_on_c, 0, 74, 46
2, 35513, Note_on_c, 0, 74, 0
2, 35520, Note_on_c, 0, 72, 54
2, 35640, Note_on_c, 0, 72, 0
2, 35640, Note_on_c, 0, 69, 46
2, 35760, Note_on_c, 0, 69, 0
2, 35760, Note_on_c, 0, 72, 54
2, 35880, Note_on_c, 0, 72, 0
2, 35880, Note_on_c, 0, 76, 51
2, 36000, Note_on_c, 0, 76, 0
2, 36000, Note_on_c, 0, 74, 58
2, 36360, Note_on_c, 0, 74, 0
2, 36360, Note_on_c, 0, 71, 47
2, 36480, Note_on_c, 0, 71, 0
2, 36480, Note_on_c, 0, 67, 47
2, 36540, Note_on_c, 0, 67, 0
2, 36600, Note_on_c, 0, 67, 46
2, 36660, Note_on_c, 0, 67, 0
2, 36720, Note_on_c, 0, 69, 47
2, 36780, Note_on_c, 0, 69, 0
2, 36840, Note_on_c, 0, 71, 48
2, 36900, Note_on_c, 0, 71, 0
2, 36960, Note_on_c, 0, 72, 49
2, 37020, Note_on_c, 0, 72, 0
2, 37080, Note_on_c, 0, 74, 50
2, 37140, Note_on_c, 0, 74, 0
2, 37200, Note_on_c, 0, 76, 51
2, 37260, Note_on_c, 0, 76, 0
2, 37320, Note_on_c, 0, 78, 53
2, 37380, Note_on_c, 0, 78, 0
2, 37440, Note_on_c, 0, 79, 57
2, 37560, Note_on_c, 0, 78, 50
2, 37584, Note_on_c, 0, 79, 0
2, 37680, Note_on_c, 0, 79, 56
2, 37704, Note_on_c, 0, 78, 0
2, 37800, Note_on_c, 0, 78, 52
2, 37824, Note_on_c, 0, 79, 0
2, 37920, Note_on_c, 0, 81, 59
2, 37944, Note_on_c, 0, 78, 0
2, 38040, Note_on_c, 0, 79, 57
2, 38064, Note_on_c, 0, 81, 0
2, 38160, Note_on_c, 0, 78, 54
2, 38184, Note_on_c, 0, 79, 0
2, 38280, Note_on_c, 0, 79, 49
2, 38304, Note_on_c, 0, 78, 0
2, 38400, Note_on_c, 0, 78, 52
2, 38424, Note_on_c, 0, 79, 0
2, 38520, Note_on_c, 0, 76, 50
2, 38544, Note_on_c, 0, 78, 0
2, 38640, Note_on_c, 0, 74, 48
2, 38664, Note_on_c, 0, 76, 0
2, 38760, Note_on_c, 0, 73, 46
2, 38784, Note_on_c, 0, 74, 0
2, 38880, Note_on_c, 0, 74, 50
2, 38904, Note_on_c, 0, 73, 0
2, 39000, Note_on_c, 0, 74, 0
2, 39000, Note_on_c, 0, 71, 43
2, 39120, Note_on_c, 0, 71, 0
2, 39120, Note_on_c, 0, 74, 47
2, 39240, Note_on_c, 0, 74, 0
2, 39240, Note_on_c, 0, 71, 43
2, 39360, Note_on_c, 0, 71, 0
2, 39360, Note_on_c, 0, 67, 47
2, 39840, Note_on_c, 0, 67, 0
2, 40320, Note_on_c, 0, 72, 50
2, 40440, Note_on_c, 0, 72, 0
2, 40440, Note_on_c, 0, 69, 46
2, 40560, Note_on_c, 0, 69, 0
2, 40560, Note_on_c, 0, 72, 46
2, 40680, Note_on_c, 0, 72, 0
2, 40680, Note_on_c, 0, 69, 43
2, 40800, Note_on_c, 0, 69, 0
2, 40800, Note_on_c, 0, 66, 50
2, 40860, Note_on_c, 0, 66, 0
2, 40920, Note_on_c, 0, 69, 46
2, 41040, Note_on_c, 0, 69, 0
2, 41040, Note_on_c, 0, 68, 49
2, 41160, Note_on_c, 0, 68, 0
2, 41160, Note_on_c, 0, 69, 51
2, 41280, Note_on_c, 0, 69, 0
2, 41280, Note_on_c, 0, 70, 54
2, 41400, Note_on_c, 0, 70, 0
2, 41400, Note_on_c, 0, 71, 51
2, 41520, Note_on_c, 0, 71, 0
2, 41520, Note_on_c, 0, 72, 54
2, 41640, Note_on_c, 0, 72, 0
2, 41640, Note_on_c, 0, 73, 56
2, 41760, Note_on_c, 0, 73, 0
2, 41760, Note_on_c, 0, 74, 59
2, 41880, Note_on_c, 0, 74, 0
2, 41880, Note_on_c, 0, 71, 51
2, 42000, Note_on_c, 0, 71, 0
2, 42000, Note_on_c, 0, 74, 54
2, 42120, Note_on_c, 0, 74, 0
2, 42120, Note_on_c, 0, 71, 51
2, 42240, Note_on_c, 0, 71, 0
2, 42240, Note_on_c, 0, 79, 63
2, 42720, Note_on_c, 0, 79, 0
2, 42840, Note_on_c, 0, 83, 67
2, 42960, Note_on_c, 0, 78, 62
2, 42984, Note_on_c, 0, 83, 0
2, 43080, Note_on_c, 0, 79, 56
2, 43104, Note_on_c, 0, 78, 0
2, 43200, Note_on_c, 0, 79, 0
2, 43200, Note_on_c, 0, 75, 58
2, 43320, Note_on_c, 0, 76, 49
2, 43344, Note_on_c, 0, 75, 0
2, 43440, Note_on_c, 0, 72, 53
2, 43464, Note_on_c, 0, 76, 0
2, 43560, Note_on_c, 0, 69, 46
2, 43584, Note_on_c, 0, 72, 0
2, 43680, Note_on_c, 0, 69, 0
2, 43680, Note_on_c, 0, 67, 53
2, 44040, Note_on_c, 0, 67, 0
2, 44040, Note_on_c, 0, 67, 44
2, 44160, Note_on_c, 0, 67, 0
2, 44160, Note_on_c, 0, 66, 47
2, 44160, Note_on_c, 0, 71, 55
2, 44280, Note_on_c, 0, 69, 44
2, 44304, Note_on_c, 0, 71, 0
2, 44400, Note_on_c, 0, 67, 49
2, 44424, Note_on_c, 0, 69, 0
2, 44520, Note_on_c, 0, 69, 42
2, 44544, Note_on_c, 0, 67, 0
2, 44633, Note_on_c, 0, 69, 0
2, 44640, Note_on_c, 0, 66, 0
2, 44640, Note_on_c, 0, 69, 53
2, 44640, Note_on_c, 0, 66, 42
2, 45120, Note_on_c, 0, 66, 0
2, 45120, Note_on_c, 0, 69, 0
2, 45120, Note_on_c, 0, 67, 48
2, 45600, Note_on_c, 0, 67, 0
2, 46080, Note_on_c, 0, 74, 50
2, 46680, Note_on_c, 0, 74, 0
2, 46680, Note_on_c, 0, 73, 46
2, 46800, Note_on_c, 0, 76, 49
2, 46824, Note_on_c, 0, 73, 0
2, 46920, Note_on_c, 0, 74, 46
2, 46944, Note_on_c, 0, 76, 0
2, 47040, Note_on_c, 0, 79, 52
2, 47064, Note_on_c, 0, 74, 0
2, 47160, Note_on_c, 0, 78, 46
2, 47184, Note_on_c, 0, 79, 0
2, 47280, Note_on_c, 0, 76, 49
2, 47304, Note_on_c, 0, 78, 0
2, 47400, Note_on_c, 0, 74, 46
2, 47424, Note_on_c, 0, 76, 0
2, 47520, Note_on_c, 0, 73, 50
2, 47544, Note_on_c, 0, 74, 0
2, 47880, Note_on_c, 0, 73, 0
2, 47880, Note_on_c, 0, 74, 49
2, 48000, Note_on_c, 0, 74, 0
2, 48000, Note_on_c, 0, 76, 53
2, 48480, Note_on_c, 0, 76, 0
2, 48960, Note_on_c, 0, 76, 54
2, 49560, Note_on_c, 0, 76, 0
2, 49560, Note_on_c, 0, 75, 46
2, 49680, Note_on_c, 0, 78, 50
2, 49704, Note_on_c, 0, 75, 0
2, 49800, Note_on_c, 0, 76, 46
2, 49824, Note_on_c, 0, 78, 0
2, 49920, Note_on_c, 0, 81, 54
2, 49944, Note_on_c, 0, 76, 0
2, 50040, Note_on_c, 0, 79, 46
2, 50064, Note_on_c, 0, 81, 0
2, 50160, Note_on_c, 0, 78, 49
2, 50184, Note_on_c, 0, 79, 0
2, 50280, Note_on_c, 0, 76, 49
2, 50304, Note_on_c, 0, 78, 0
2, 50400, Note_on_c, 0, 74, 54
2, 50424, Note_on_c, 0, 76, 0
2, 50760, Note_on_c, 0, 74, 0
2, 50760, Note_on_c, 0, 76, 52
2, 50880, Note_on_c, 0, 76, 0
2, 50880, Note_on_c, 0, 78, 57
2, 51360, Note_on_c, 0, 78, 0
2, 51840, Note_on_c, 0, 78, 70
2, 52440, Note_on_c, 0, 78, 0
2, 52440, Note_on_c, 0, 76, 57
2, 52560, Note_on_c, 0, 79, 61
2, 52584, Note_on_c, 0, 76, 0
2, 52680, Note_on_c, 0, 78, 55
2, 52704, Note_on_c, 0, 79, 0
2, 52800, Note_on_c, 0, 83, 65
2, 52824, Note_on_c, 0, 78, 0
2, 52920, Note_on_c, 0, 81, 53
2, 52944, Note_on_c, 0, 83, 0
2, 53040, Note_on_c, 0, 79, 59
2, 53064, Note_on_c, 0, 81, 0
2, 53160, Note_on_c, 0, 78, 53
2, 53184, Note_on_c, 0, 79, 0
2, 53280, Note_on_c, 0, 76, 64
2, 53304, Note_on_c, 0, 78, 0
2, 53880, Note_on_c, 0, 76, 0
2, 53880, Note_on_c, 0, 75, 55
2, 54000, Note_on_c, 0, 78, 60
2, 54024, Note_on_c, 0, 75, 0
2, 54120, Note_on_c, 0, 76, 52
2, 54144, Note_on_c, 0, 78, 0
2, 54240, Note_on_c, 0, 81, 62
2, 54264, Note_on_c, 0, 76, 0
2, 54360, Note_on_c, 0, 79, 51
2, 54384, Note_on_c, 0, 81, 0
2, 54480, Note_on_c, 0, 78, 59
2, 54504, Note_on_c, 0, 79, 0
2, 54600, Note_on_c, 0, 76, 53
2, 54624, Note_on_c, 0, 78, 0
2, 54715, Note_on_c, 0, 76, 0
2, 54720, Note_on_c, 0, 76, 63
2, 54840, Note_on_c, 0, 76, 0
2, 54840, Note_on_c, 0, 74, 49
2, 54960, Note_on_c, 0, 74, 0
2, 54960, Note_on_c, 0, 74, 55
2, 55320, Note_on_c, 0, 74, 0
2, 55320, Note_on_c, 0, 69, 44
2, 55440, Note_on_c, 0, 69, 0
2, 55440, Note_on_c, 0, 74, 46
2, 55560, Note_on_c, 0, 74, 0
2, 55560, Note_on_c, 0, 78, 43
2, 55680, Note_on_c, 0, 78, 0
2, 55680, Note_on_c, 0, 73, 49
2, 55680, Note_on_c, 0, 78, 58
2, 55800, Note_on_c, 0, 76, 44
2, 55824, Note_on_c, 0, 78, 0
2, 55920, Note_on_c, 0, 74, 53
2, 55944, Note_on_c, 0, 76, 0
2, 56040, Note_on_c, 0, 76, 45
2, 56064, Note_on_c, 0, 74, 0
2, 56155, Note_on_c, 0, 76, 0
2, 56160, Note_on_c, 0, 73, 0
2, 56160, Note_on_c, 0, 73, 51
2, 56160, Note_on_c, 0, 76, 61
2, 56640, Note_on_c, 0, 76, 0
2, 56640, Note_on_c, 0, 73, 0
2, 56640, Note_on_c, 0, 74, 53
2, 56730, Note_on_c, 0, 74, 0
2, 56760, Note_on_c, 0, 75, 43
2, 56880, Note_on_c, 0, 76, 48
2, 56892, Note_on_c, 0, 75, 0
2, 57000, Note_on_c, 0, 75, 42
2, 57012, Note_on_c, 0, 76, 0
2, 57120, Note_on_c, 0, 78, 51
2, 57132, Note_on_c, 0, 75, 0
2, 57240, Note_on_c, 0, 76, 48
2, 57252, Note_on_c, 0, 78, 0
2, 57360, Note_on_c, 0, 74, 46
2, 57372, Note_on_c, 0, 76, 0
2, 57480, Note_on_c, 0, 72, 44
2, 57492, Note_on_c, 0, 74, 0
2, 57600, Note_on_c, 0, 71, 48
2, 57612, Note_on_c, 0, 72, 0
2, 58200, Note_on_c, 0, 71, 0
2, 58200, Note_on_c, 0, 67, 44
2, 58320, Note_on_c, 0, 67, 0
2, 58320, Note_on_c, 0, 71, 44
2, 58433, Note_on_c, 0, 74, 44
2, 58440, Note_on_c, 0, 71, 0
2, 58553, Note_on_c, 0, 74, 0
2, 58560, Note_on_c, 0, 72, 50
2, 58680, Note_on_c, 0, 72, 0
2, 58680, Note_on_c, 0, 69, 44
2, 58800, Note_on_c, 0, 69, 0
2, 58800, Note_on_c, 0, 72, 44
2, 58920, Note_on_c, 0, 72, 0
2, 58920, Note_on_c, 0, 76, 44
2, 59040, Note_on_c, 0, 76, 0
2, 59040, Note_on_c, 0, 74, 50
2, 59400, Note_on_c, 0, 74, 0
2, 59400, Note_on_c, 0, 71, 47
2, 59520, Note_on_c, 0, 71, 0
2, 59520, Note_on_c, 0, 67, 47
2, 59580, Note_on_c, 0, 67, 0
2, 59640, Note_on_c, 0, 67, 46
2, 59700, Note_on_c, 0, 67, 0
2, 59760, Note_on_c, 0, 69, 47
2, 59820, Note_on_c, 0, 69, 0
2, 59880, Note_on_c, 0, 71, 48
2, 59940, Note_on_c, 0, 71, 0
2, 60000, Note_on_c, 0, 72, 48
2, 60060, Note_on_c, 0, 72, 0
2, 60120, Note_on_c, 0, 74, 51
2, 60180, Note_on_c, 0, 74, 0
2, 60240, Note_on_c, 0, 76, 52
2, 60300, Note_on_c, 0, 76, 0
2, 60360, Note_on_c, 0, 78, 54
2, 60420, Note_on_c, 0, 78, 0
2, 60480, Note_on_c, 0, 79, 56
2, 60600, Note_on_c, 0, 78, 50
2, 60624, Note_on_c, 0, 79, 0
2, 60720, Note_on_c, 0, 79, 56
2, 60744, Note_on_c, 0, 78, 0
2, 60840, Note_on_c, 0, 78, 52
2, 60864, Note_on_c, 0, 79, 0
2, 60960, Note_on_c, 0, 81, 56
2, 60984, Note_on_c, 0, 78, 0
2, 61080, Note_on_c, 0, 79, 54
2, 61104, Note_on_c, 0, 81, 0
2, 61200, Note_on_c, 0, 78, 53
2, 61224, Note_on_c, 0, 79, 0
2, 61320, Note_on_c, 0, 79, 49
2, 61344, Note_on_c, 0, 78, 0
2, 61440, Note_on_c, 0, 78, 52
2, 61464, Note_on_c, 0, 79, 0
2, 61560, Note_on_c, 0, 76, 50
2, 61584, Note_on_c, 0, 78, 0
2, 61680, Note_on_c, 0, 74, 48
2, 61704, Note_on_c, 0, 76, 0
2, 61800, Note_on_c, 0, 73, 46
2, 61824, Note_on_c, 0, 74, 0
2, 61920, Note_on_c, 0, 74, 50
2, 61944, Note_on_c, 0, 73, 0
2, 62040, Note_on_c, 0, 74, 0
2, 62040, Note_on_c, 0, 71, 43
2, 62160, Note_on_c, 0, 71, 0
2, 62160, Note_on_c, 0, 74, 47
2, 62280, Note_on_c, 0, 74, 0
2, 62280, Note_on_c, 0, 71, 43
2, 62400, Note_on_c, 0, 71, 0
2, 62400, Note_on_c, 0, 67, 47
2, 62880, Note_on_c, 0, 67, 0
2, 63360, Note_on_c, 0, 72, 50
2, 63480, Note_on_c, 0, 72, 0
2, 63480, Note_on_c, 0, 69, 46
2, 63600, Note_on_c, 0, 69, 0
2, 63600, Note_on_c, 0, 72, 46
2, 63720, Note_on_c, 0, 72, 0
2, 63720, Note_on_c, 0, 69, 43
2, 63840, Note_on_c, 0, 69, 0
2, 63840, Note_on_c, 0, 66, 50
2, 63900, Note_on_c, 0, 66, 0
2, 63960, Note_on_c, 0, 69, 45
2, 64080, Note_on_c, 0, 69, 0
2, 64080, Note_on_c, 0, 68, 47
2, 64200, Note_on_c, 0, 68, 0
2, 64200, Note_on_c, 0, 69, 49
2, 64320, Note_on_c, 0, 69, 0
2, 64320, Note_on_c, 0, 70, 50
2, 64440, Note_on_c, 0, 70, 0
2, 64440, Note_on_c, 0, 71, 50
2, 64560, Note_on_c, 0, 71, 0
2, 64560, Note_on_c, 0, 72, 53
2, 64680, Note_on_c, 0, 72, 0
2, 64680, Note_on_c, 0, 73, 55
2, 64800, Note_on_c, 0, 73, 0
2, 64800, Note_on_c, 0, 74, 58
2, 64920, Note_on_c, 0, 74, 0
2, 64920, Note_on_c, 0, 71, 51
2, 65040, Note_on_c, 0, 71, 0
2, 65040, Note_on_c, 0, 74, 54
2, 65160, Note_on_c, 0, 74, 0
2, 65160, Note_on_c, 0, 71, 51
2, 65280, Note_on_c, 0, 71, 0
2, 65280, Note_on_c, 0, 79, 61
2, 65760, Note_on_c, 0, 79, 0
2, 65880, Note_on_c, 0, 83, 62
2, 66000, Note_on_c, 0, 78, 59
2, 66024, Note_on_c, 0, 83, 0
2, 66120, Note_on_c, 0, 79, 56
2, 66144, Note_on_c, 0, 78, 0
2, 66240, Note_on_c, 0, 79, 0
2, 66240, Note_on_c, 0, 75, 58
2, 66360, Note_on_c, 0, 76, 49
2, 66384, Note_on_c, 0, 75, 0
2, 66480, Note_on_c, 0, 72, 53
2, 66504, Note_on_c, 0, 76, 0
2, 66600, Note_on_c, 0, 69, 46
2, 66624, Note_on_c, 0, 72, 0
2, 66720, Note_on_c, 0, 67, 53
2, 66744, Note_on_c, 0, 69, 0
2, 67080, Note_on_c, 0, 67, 0
2, 67080, Note_on_c, 0, 67, 44
2, 67200, Note_on_c, 0, 67, 0
2, 67200, Note_on_c, 0, 66, 47
2, 67200, Note_on_c, 0, 71, 55
2, 67320, Note_on_c, 0, 69, 44
2, 67344, Note_on_c, 0, 71, 0
2, 67440, Note_on_c, 0, 67, 49
2, 67464, Note_on_c, 0, 69, 0
2, 67560, Note_on_c, 0, 69, 42
2, 67584, Note_on_c, 0, 67, 0
2, 67675, Note_on_c, 0, 69, 0
2, 67680, Note_on_c, 0, 66, 0
2, 67680, Note_on_c, 0, 66, 42
2, 67680, Note_on_c, 0, 69, 53
2, 68160, Note_on_c, 0, 69, 0
2, 68160, Note_on_c, 0, 66, 0
2, 68160, Note_on_c, 0, 67, 48
2, 68640, Note_on_c, 0, 67, 0
2, 69120, Note_on_c, 0, 74, 50
2, 69720, Note_on_c, 0, 74, 0
2, 69720, Note_on_c, 0, 73, 46
2, 69840, Note_on_c, 0, 76, 49
2, 69864, Note_on_c, 0, 73, 0
2, 69960, Note_on_c, 0, 74, 46
2, 69984, Note_on_c, 0, 76, 0
2, 70080, Note_on_c, 0, 79, 52
2, 70104, Note_on_c, 0, 74, 0
2, 70200, Note_on_c, 0, 78, 46
2, 70224, Note_on_c, 0, 79, 0
2, 70320, Note_on_c, 0, 76, 49
2, 70344, Note_on_c, 0, 78, 0
2, 70440, Note_on_c, 0, 74, 46
2, 70464, Note_on_c, 0, 76, 0
2, 70560, Note_on_c, 0, 73, 50
2, 70584, Note_on_c, 0, 74, 0
2, 70920, Note_on_c, 0, 73, 0
2, 70920, Note_on_c, 0, 74, 49
2, 71040, Note_on_c, 0, 74, 0
2, 71040, Note_on_c, 0, 76, 53
2, 71520, Note_on_c, 0, 76, 0
2, 72000, Note_on_c, 0, 76, 54
2, 72600, Note_on_c, 0, 76, 0
2, 72600, Note_on_c, 0, 75, 46
2, 72720, Note_on_c, 0, 78, 50
2, 72744, Note_on_c, 0, 75, 0
2, 72840, Note_on_c, 0, 76, 46
2, 72864, Note_on_c, 0, 78, 0
2, 72960, Note_on_c, 0, 81, 54
2, 72984, Note_on_c, 0, 76, 0
2, 73080, Note_on_c, 0, 79, 46
2, 73104, Note_on_c, 0, 81, 0
2, 73200, Note_on_c, 0, 78, 49
2, 73224, Note_on_c, 0, 79, 0
2, 73320, Note_on_c, 0, 76, 49
2, 73344, Note_on_c, 0, 78, 0
2, 73440, Note_on_c, 0, 74, 54
2, 73464, Note_on_c, 0, 76, 0
2, 73800, Note_on_c, 0, 74, 0
2, 73800, Note_on_c, 0, 76, 52
2, 73920, Note_on_c, 0, 76, 0
2, 73920, Note_on_c, 0, 78, 57
2, 74400, Note_on_c, 0, 78, 0
2, 74880, Note_on_c, 0, 78, 70
2, 75480, Note_on_c, 0, 78, 0
2, 75480, Note_on_c, 0, 76, 57
2, 75600, Note_on_c, 0, 79, 61
2, 75624, Note_on_c, 0, 76, 0
2, 75720, Note_on_c, 0, 78, 55
2, 75744, Note_on_c, 0, 79, 0
2, 75840, Note_on_c, 0, 83, 65
2, 75864, Note_on_c, 0, 78, 0
2, 75960, Note_on_c, 0, 81, 53
2, 75984, Note_on_c, 0, 83, 0
2, 76080, Note_on_c, 0, 79, 59
2, 76104, Note_on_c, 0, 81, 0
2, 76200, Note_on_c, 0, 78, 53
2, 76224, Note_on_c, 0, 79, 0
2, 76320, Note_on_c, 0, 76, 64
2, 76344, Note_on_c, 0, 78, 0
2, 76920, Note_on_c, 0, 76, 0
2, 76920, Note_on_c, 0, 75, 55
2, 77040, Note_on_c, 0, 78, 60
2, 77064, Note_on_c, 0, 75, 0
2, 77160, Note_on_c, 0, 76, 52
2, 77184, Note_on_c, 0, 78, 0
2, 77280, Note_on_c, 0, 81, 62
2, 77304, Note_on_c, 0, 76, 0
2, 77400, Note_on_c, 0, 79, 51
2, 77424, Note_on_c, 0, 81, 0
2, 77520, Note_on_c, 0, 78, 59
2, 77544, Note_on_c, 0, 79, 0
2, 77640, Note_on_c, 0, 76, 53
2, 77664, Note_on_c, 0, 78, 0
2, 77755, Note_on_c, 0, 76, 0
2, 77760, Note_on_c, 0, 76, 63
2, 77880, Note_on_c, 0, 76, 0
2, 77880, Note_on_c, 0, 74, 49
2, 78000, Note_on_c, 0, 74, 0
2, 78000, Note_on_c, 0, 74, 55
2, 78360, Note_on_c, 0, 74, 0
2, 78360, Note_on_c, 0, 69, 44
2, 78480, Note_on_c, 0, 69, 0
2, 78480, Note_on_c, 0, 74, 46
2, 78600, Note_on_c, 0, 74, 0
2, 78600, Note_on_c, 0, 78, 43
2, 78720, Note_on_c, 0, 78, 0
2, 78720, Note_on_c, 0, 73, 49
2, 78720, Note_on_c, 0, 78, 58
2, 78840, Note_on_c, 0, 76, 44
2, 78864, Note_on_c, 0, 78, 0
2, 78960, Note_on_c, 0, 74, 53
2, 78984, Note_on_c, 0, 76, 0
2, 79080, Note_on_c, 0, 76, 45
2, 79104, Note_on_c, 0, 74, 0
2, 79195, Note_on_c, 0, 76, 0
2, 79200, Note_on_c, 0, 73, 0
2, 79200, Note_on_c, 0, 73, 51
2, 79200, Note_on_c, 0, 76, 61
2, 79680, Note_on_c, 0, 76, 0
2, 79680, Note_on_c, 0, 73, 0
2, 79680, Note_on_c, 0, 74, 53
2, 79770, Note_on_c, 0, 74, 0
2, 79800, Note_on_c, 0, 75, 43
2, 79920, Note_on_c, 0, 76, 48
2, 79932, Note_on_c, 0, 75, 0
2, 80040, Note_on_c, 0, 75, 42
2, 80052, Note_on_c, 0, 76, 0
2, 80160, Note_on_c, 0, 78, 51
2, 80172, Note_on_c, 0, 75, 0
2, 80280, Note_on_c, 0, 76, 48
2, 80292, Note_on_c, 0, 78, 0
2, 80400, Note_on_c, 0, 74, 46
2, 80412, Note_on_c, 0, 76, 0
2, 80520, Note_on_c, 0, 72, 44
2, 80532, Note_on_c, 0, 74, 0
2, 80640, Note_on_c, 0, 71, 48
2, 80652, Note_on_c, 0, 72, 0
2, 81240, Note_on_c, 0, 71, 0
2, 81240, Note_on_c, 0, 67, 44
2, 81360, Note_on_c, 0, 67, 0
2, 81360, Note_on_c, 0, 71, 44
2, 81473, Note_on_c, 0, 74, 44
2, 81480, Note_on_c, 0, 71, 0
2, 81593, Note_on_c, 0, 74, 0
2, 81600, Note_on_c, 0, 72, 50
2, 81720, Note_on_c, 0, 72, 0
2, 81720, Note_on_c, 0, 69, 44
2, 81840, Note_on_c, 0, 69, 0
2, 81840, Note_on_c, 0, 72, 44
2, 81960, Note_on_c, 0, 72, 0
2, 81960, Note_on_c, 0, 76, 44
2, 82080, Note_on_c, 0, 76, 0
2, 82080, Note_on_c, 0, 74, 50
2, 82440, Note_on_c, 0, 74, 0
2, 82440, Note_on_c, 0, 71, 47
2, 82560, Note_on_c, 0, 71, 0
2, 82560, Note_on_c, 0, 67, 47
2, 82620, Note_on_c, 0, 67, 0
2, 82680, Note_on_c, 0, 67, 46
2, 82740, Note_on_c, 0, 67, 0
2, 82800, Note_on_c, 0, 69, 47
2, 82860, Note_on_c, 0, 69, 0
2, 82920, Note_on_c, 0, 71, 48
2, 82980, Note_on_c, 0, 71, 0
2, 83040, Note_on_c, 0, 72, 48
2, 83100, Note_on_c, 0, 72, 0
2, 83160, Note_on_c, 0, 74, 51
2, 83220, Note_on_c, 0, 74, 0
2, 83280, Note_on_c, 0, 76, 52
2, 83340, Note_on_c, 0, 76, 0
2, 83400, Note_on_c, 0, 78, 54
2, 83460, Note_on_c, 0, 78, 0
2, 83520, Note_on_c, 0, 79, 56
2, 83640, Note_on_c, 0, 78, 50
2, 83664, Note_on_c, 0, 79, 0
2, 83760, Note_on_c, 0, 79, 56
2, 83784, Note_on_c, 0, 78, 0
2, 83880, Note_on_c, 0, 78, 52
2, 83904, Note_on_c, 0, 79, 0
2, 84000, Note_on_c, 0, 81, 56
2, 84024, Note_on_c, 0, 78, 0
2, 84120, Note_on_c, 0, 79, 54
2, 84144, Note_on_c, 0, 81, 0
2, 84240, Note_on_c, 0, 78, 53
2, 84264, Note_on_c, 0, 79, 0
2, 84360, Note_on_c, 0, 79, 49
2, 84384, Note_on_c, 0, 78, 0
2, 84480, Note_on_c, 0, 78, 52
2, 84504, Note_on_c, 0, 79, 0
2, 84600, Note_on_c, 0, 76, 50
2, 84624, Note_on_c, 0, 78, 0
2, 84720, Note_on_c, 0, 74, 48
2, 84744, Note_on_c, 0, 76, 0
2, 84840, Note_on_c, 0, 73, 46
2, 84864, Note_on_c, 0, 74, 0
2, 84960, Note_on_c, 0, 74, 50
2, 84984, Note_on_c, 0, 73, 0
2, 85080, Note_on_c, 0, 74, 0
2, 85080, Note_on_c, 0, 71, 43
2, 85200, Note_on_c, 0, 71, 0
2, 85200, Note_on_c, 0, 74, 47
2, 85320, Note_on_c, 0, 74, 0
2, 85320, Note_on_c, 0, 71, 43
2, 85440, Note_on_c, 0, 71, 0
2, 85440, Note_on_c, 0, 67, 47
2, 85920, Note_on_c, 0, 67, 0
2, 86400, Note_on_c, 0, 72, 50
2, 86520, Note_on_c, 0, 72, 0
2, 86520, Note_on_c, 0, 69, 46
2, 86640, Note_on_c, 0, 69, 0
2, 86640, Note_on_c, 0, 72, 46
2, 86760, Note_on_c, 0, 72, 0
2, 86760, Note_on_c, 0, 69, 43
2, 86880, Note_on_c, 0, 69, 0
2, 86880, Note_on_c, 0, 66, 50
2, 86940, Note_on_c, 0, 66, 0
2, 87000, Note_on_c, 0, 69, 45
2, 87120, Note_on_c, 0, 69, 0
2, 87120, Note_on_c, 0, 68, 47
2, 87240, Note_on_c, 0, 68, 0
2, 87240, Note_on_c, 0, 69, 49
2, 87360, Note_on_c, 0, 69, 0
2, 87360, Note_on_c, 0, 70, 50
2, 87480, Note_on_c, 0, 70, 0
2, 87480, Note_on_c, 0, 71, 50
2, 87600, Note_on_c, 0, 71, 0
2, 87600, Note_on_c, 0, 72, 53
2, 87720, Note_on_c, 0, 72, 0
2, 87720, Note_on_c, 0, 73, 55
2, 87840, Note_on_c, 0, 73, 0
2, 87840, Note_on_c, 0, 74, 58
2, 87960, Note_on_c, 0, 74, 0
2, 87960, Note_on_c, 0, 71, 51
2, 88080, Note_on_c, 0, 71, 0
2, 88080, Note_on_c, 0, 74, 54
2, 88200, Note_on_c, 0, 74, 0
2, 88200, Note_on_c, 0, 71, 51
2, 88320, Note_on_c, 0, 71, 0
2, 88320, Note_on_c, 0, 79, 61
2, 88800, Note_on_c, 0, 79, 0
2, 88920, Note_on_c, 0, 83, 62
2, 89040, Note_on_c, 0, 78, 59
2, 89064, Note_on_c, 0, 83, 0
2, 89160, Note_on_c, 0, 79, 56
2, 89184, Note_on_c, 0, 78, 0
2, 89280, Note_on_c, 0, 79, 0
2, 89280, Note_on_c, 0, 75, 58
2, 89400, Note_on_c, 0, 76, 49
2, 89424, Note_on_c, 0, 75, 0
2, 89520, Note_on_c, 0, 72, 53
2, 89544, Note_on_c, 0, 76, 0
2, 89640, Note_on_c, 0, 69, 46
2, 89664, Note_on_c, 0, 72, 0
2, 89760, Note_on_c, 0, 67, 53
2, 89784, Note_on_c, 0, 69, 0
2, 90120, Note_on_c, 0, 67, 0
2, 90120, Note_on_c, 0, 67, 44
2, 90240, Note_on_c, 0, 67, 0
2, 90240, Note_on_c, 0, 66, 47
2, 90240, Note_on_c, 0, 71, 55
2, 90360, Note_on_c, 0, 69, 44
2, 90384, Note_on_c, 0, 71, 0
2, 90480, Note_on_c, 0, 67, 49
2, 90504, Note_on_c, 0, 69, 0
2, 90600, Note_on_c, 0, 69, 42
2, 90624, Note_on_c, 0, 67, 0
2, 90715, Note_on_c, 0, 69, 0
2, 90720, Note_on_c, 0, 66, 0
2, 90720, Note_on_c, 0, 66, 42
2, 90720, Note_on_c, 0, 69, 53
2, 91200, Note_on_c, 0, 69, 0
2, 91200, Note_on_c, 0, 66, 0
2, 91200, Note_on_c, 0, 67, 48
2, 91680, Note_on_c, 0, 67, 0
2, 92160, Note_on_c, 0, 70, 50
2, 92760, Note_on_c, 0, 70, 0
2, 92760, Note_on_c, 0, 69, 46
2, 92880, Note_on_c, 0, 72, 46
2, 92904, Note_on_c, 0, 69, 0
2, 93000, Note_on_c, 0, 70, 46
2, 93024, Note_on_c, 0, 72, 0
2, 93115, Note_on_c, 0, 70, 0
2, 93120, Note_on_c, 0, 70, 50
2, 93240, Note_on_c, 0, 69, 46
2, 93264, Note_on_c, 0, 70, 0
2, 93360, Note_on_c, 0, 67, 46
2, 93384, Note_on_c, 0, 69, 0
2, 93480, Note_on_c, 0, 66, 46
2, 93504, Note_on_c, 0, 67, 0
2, 93600, Note_on_c, 0, 67, 50
2, 93624, Note_on_c, 0, 66, 0
2, 93960, Note_on_c, 0, 67, 0
2, 93960, Note_on_c, 0, 70, 56
2, 94080, Note_on_c, 0, 70, 0
2, 94080, Note_on_c, 0, 74, 62
2, 94560, Note_on_c, 0, 74, 0
2, 95040, Note_on_c, 0, 74, 64
2, 95640, Note_on_c, 0, 74, 0
2, 95640, Note_on_c, 0, 73, 57
2, 95760, Note_on_c, 0, 75, 59
2, 95784, Note_on_c, 0, 73, 0
2, 95880, Note_on_c, 0, 74, 55
2, 95904, Note_on_c, 0, 75, 0
2, 95995, Note_on_c, 0, 74, 0
2, 96000, Note_on_c, 0, 74, 62
2, 96120, Note_on_c, 0, 72, 50
2, 96144, Note_on_c, 0, 74, 0
2, 96240, Note_on_c, 0, 70, 60
2, 96264, Note_on_c, 0, 72, 0
2, 96360, Note_on_c, 0, 69, 54
2, 96384, Note_on_c, 0, 70, 0
2, 96480, Note_on_c, 0, 70, 64
2, 96504, Note_on_c, 0, 69, 0
2, 96840, Note_on_c, 0, 70, 0
2, 96840, Note_on_c, 0, 74, 64
2, 96960, Note_on_c, 0, 74, 0
2, 96960, Note_on_c, 0, 79, 72
2, 97440, Note_on_c, 0, 79, 0
2, 97920, Note_on_c, 0, 77, 69
2, 98520, Note_on_c, 0, 77, 0
2, 98520, Note_on_c, 0, 81, 63
2, 98640, Note_on_c, 0, 84, 71
2, 98664, Note_on_c, 0, 81, 0
2, 98760, Note_on_c, 0, 82, 64
2, 98784, Note_on_c, 0, 84, 0
2, 98880, Note_on_c, 0, 81, 67
2, 98904, Note_on_c, 0, 82, 0
2, 99000, Note_on_c, 0, 79, 53
2, 99024, Note_on_c, 0, 81, 0
2, 99120, Note_on_c, 0, 77, 65
2, 99144, Note_on_c, 0, 79, 0
2, 99240, Note_on_c, 0, 75, 56
2, 99264, Note_on_c, 0, 77, 0
2, 99360, Note_on_c, 0, 74, 63
2, 99384, Note_on_c, 0, 75, 0
2, 99960, Note_on_c, 0, 74, 0
2, 99960, Note_on_c, 0, 79, 49
2, 100080, Note_on_c, 0, 82, 54
2, 100104, Note_on_c, 0, 79, 0
2, 100200, Note_on_c, 0, 81, 46
2, 100224, Note_on_c, 0, 82, 0
2, 100320, Note_on_c, 0, 79, 55
2, 100344, Note_on_c, 0, 81, 0
2, 100440, Note_on_c, 0, 77, 46
2, 100464, Note_on_c, 0, 79, 0
2, 100560, Note_on_c, 0, 75, 51
2, 100584, Note_on_c, 0, 77, 0
2, 100680, Note_on_c, 0, 74, 46
2, 100704, Note_on_c, 0, 75, 0
2, 100800, Note_on_c, 0, 70, 57
2, 100824, Note_on_c, 0, 74, 0
2, 100920, Note_on_c, 0, 70, 0
2, 100920, Note_on_c, 0, 72, 49
2, 101040, Note_on_c, 0, 72, 0
2, 101040, Note_on_c, 0, 75, 46
2, 101160, Note_on_c, 0, 75, 0
2, 101160, Note_on_c, 0, 79, 46
2, 101280, Note_on_c, 0, 79, 0
2, 101280, Note_on_c, 0, 70, 53
2, 101640, Note_on_c, 0, 70, 0
2, 101640, Note_on_c, 0, 70, 46
2, 101760, Note_on_c, 0, 70, 0
2, 101760, Note_on_c, 0, 74, 53
2, 101880, Note_on_c, 0, 72, 44
2, 101904, Note_on_c, 0, 74, 0
2, 102000, Note_on_c, 0, 70, 52
2, 102024, Note_on_c, 0, 72, 0
2, 102120, Note_on_c, 0, 72, 45
2, 102144, Note_on_c, 0, 70, 0
2, 102235, Note_on_c, 0, 72, 0
2, 102240, Note_on_c, 0, 69, 51
2, 102240, Note_on_c, 0, 72, 61
2, 102720, Note_on_c, 0, 72, 0
2, 102720, Note_on_c, 0, 69, 0
2, 102720, Note_on_c, 0, 70, 53
2, 102840, Note_on_c, 0, 69, 43
2, 102852, Note_on_c, 0, 70, 0
2, 102960, Note_on_c, 0, 72, 48
2, 102972, Note_on_c, 0, 69, 0
2, 103080, Note_on_c, 0, 70, 42
2, 103092, Note_on_c, 0, 72, 0
2, 103200, Note_on_c, 0, 74, 48
2, 103212, Note_on_c, 0, 70, 0
2, 103320, Note_on_c, 0, 72, 47
2, 103332, Note_on_c, 0, 74, 0
2, 103440, Note_on_c, 0, 75, 50
2, 103452, Note_on_c, 0, 72, 0
2, 103560, Note_on_c, 0, 74, 53
2, 103572, Note_on_c, 0, 75, 0
2, 103680, Note_on_c, 0, 77, 68
2, 103692, Note_on_c, 0, 74, 0
2, 104280, Note_on_c, 0, 77, 0
2, 104280, Note_on_c, 0, 80, 56
2, 104400, Note_on_c, 0, 79, 62
2, 104424, Note_on_c, 0, 80, 0
2, 104520, Note_on_c, 0, 77, 57
2, 104544, Note_on_c, 0, 79, 0
2, 104640, Note_on_c, 0, 75, 63
2, 104664, Note_on_c, 0, 77, 0
2, 104760, Note_on_c, 0, 74, 46
2, 104784, Note_on_c, 0, 75, 0
2, 104880, Note_on_c, 0, 72, 57
2, 104904, Note_on_c, 0, 74, 0
2, 105000, Note_on_c, 0, 71, 44
2, 105024, Note_on_c, 0, 72, 0
2, 105120, Note_on_c, 0, 72, 60
2, 105144, Note_on_c, 0, 71, 0
2, 105480, Note_on_c, 0, 72, 0
2, 105480, Note_on_c, 0, 75, 62
2, 105600, Note_on_c, 0, 75, 0
2, 105600, Note_on_c, 0, 79, 67
2, 106080, Note_on_c, 0, 79, 0
2, 106560, Note_on_c, 0, 79, 74
2, 107160, Note_on_c, 0, 79, 0
2, 107160, Note_on_c, 0, 78, 64
2, 107280, Note_on_c, 0, 81, 70
2, 107304, Note_on_c, 0, 78, 0
2, 107400, Note_on_c, 0, 79, 62
2, 107424, Note_on_c, 0, 81, 0
2, 107520, Note_on_c, 0, 79, 0
2, 107520, Note_on_c, 0, 82, 70
2, 107640, Note_on_c, 0, 82, 0
2, 107640, Note_on_c, 0, 73, 64
2, 107760, Note_on_c, 0, 73, 0
2, 107760, Note_on_c, 0, 82, 67
2, 107880, Note_on_c, 0, 82, 0
2, 107880, Note_on_c, 0, 73, 50
2, 107995, Note_on_c, 0, 73, 0
2, 108000, Note_on_c, 0, 73, 65
2, 108480, Note_on_c, 0, 73, 0
2, 108480, Note_on_c, 0, 74, 65
2, 108960, Note_on_c, 0, 74, 0
2, 109440, Note_on_c, 0, 75, 73
2, 110040, Note_on_c, 0, 75, 0
2, 110040, Note_on_c, 0, 72, 65
2, 110160, Note_on_c, 0, 72, 0
2, 110160, Note_on_c, 0, 81, 74
2, 110280, Note_on_c, 0, 81, 0
2, 110280, Note_on_c, 0, 78, 71
2, 110400, Note_on_c, 0, 78, 0
2, 110400, Note_on_c, 0, 84, 76
2, 110520, Note_on_c, 0, 84, 0
2, 110520, Note_on_c, 0, 81, 73
2, 110640, Note_on_c, 0, 81, 0
2, 110640, Note_on_c, 0, 87, 81
2, 110760, Note_on_c, 0, 87, 0
2, 110760, Note_on_c, 0, 78, 75
2, 110880, Note_on_c, 0, 78, 0
2, 110880, Note_on_c, 0, 86, 85
2, 111480, Note_on_c, 0, 86, 0
2, 111480, Note_on_c, 0, 81, 64
2, 111600, Note_on_c, 0, 82, 70
2, 111624, Note_on_c, 0, 81, 0
2, 111720, Note_on_c, 0, 78, 59
2, 111744, Note_on_c, 0, 82, 0
2, 111840, Note_on_c, 0, 79, 66
2, 111864, Note_on_c, 0, 78, 0
2, 111960, Note_on_c, 0, 73, 54
2, 111984, Note_on_c, 0, 79, 0
2, 112080, Note_on_c, 0, 74, 60
2, 112104, Note_on_c, 0, 73, 0
2, 112200, Note_on_c, 0, 70, 46
2, 112224, Note_on_c, 0, 74, 0
2, 112315, Note_on_c, 0, 70, 0
2, 112320, Note_on_c, 0, 70, 57
2, 112440, Note_on_c, 0, 70, 0
2, 112440, Note_on_c, 0, 69, 49
2, 112560, Note_on_c, 0, 69, 0
2, 112560, Note_on_c, 0, 72, 46
2, 112680, Note_on_c, 0, 72, 0
2, 112680, Note_on_c, 0, 75, 46
2, 112800, Note_on_c, 0, 75, 0
2, 112800, Note_on_c, 0, 67, 53
2, 113160, Note_on_c, 0, 67, 0
2, 113160, Note_on_c, 0, 67, 46
2, 113280, Note_on_c, 0, 67, 0
2, 113280, Note_on_c, 0, 70, 53
2, 113400, Note_on_c, 0, 69, 44
2, 113424, Note_on_c, 0, 70, 0
2, 113520, Note_on_c, 0, 67, 52
2, 113544, Note_on_c, 0, 69, 0
2, 113640, Note_on_c, 0, 69, 45
2, 113664, Note_on_c, 0, 67, 0
2, 113755, Note_on_c, 0, 69, 0
2, 113760, Note_on_c, 0, 66, 51
2, 113760, Note_on_c, 0, 69, 61
2, 114240, Note_on_c, 0, 69, 0
2, 114240, Note_on_c, 0, 66, 0
2, 114240, Note_on_c, 0, 67, 53
2, 114360, Note_on_c, 0, 66, 43
2, 114372, Note_on_c, 0, 67, 0
2, 114480, Note_on_c, 0, 67, 48
2, 114492, Note_on_c, 0, 66, 0
2, 114600, Note_on_c, 0, 68, 42
2, 114612, Note_on_c, 0, 67, 0
2, 114720, Note_on_c, 0, 69, 48
2, 114732, Note_on_c, 0, 68, 0
2, 114840, Note_on_c, 0, 68, 46
2, 114852, Note_on_c, 0, 69, 0
2, 114960, Note_on_c, 0, 69, 43
2, 114972, Note_on_c, 0, 68, 0
2, 115080, Note_on_c, 0, 70, 41
2, 115092, Note_on_c, 0, 69, 0
2, 115200, Note_on_c, 0, 71, 48
2, 115212, Note_on_c, 0, 70, 0
2, 116160, Note_on_c, 0, 71, 0
2, 116160, Note_on_c, 0, 74, 50
2, 116280, Note_on_c, 0, 72, 46
2, 116304, Note_on_c, 0, 74, 0
2, 116400, Note_on_c, 0, 71, 46
2, 116424, Note_on_c, 0, 72, 0
2, 116520, Note_on_c, 0, 72, 48
2, 116544, Note_on_c, 0, 71, 0
2, 116640, Note_on_c, 0, 74, 54
2, 116664, Note_on_c, 0, 72, 0
2, 117000, Note_on_c, 0, 74, 0
2, 117000, Note_on_c, 0, 71, 47
2, 117120, Note_on_c, 0, 71, 0
2, 117120, Note_on_c, 0, 67, 47
2, 117600, Note_on_c, 0, 67, 0
2, 118080, Note_on_c, 0, 79, 67
2, 118800, Note_on_c, 0, 79, 0
2, 118800, Note_on_c, 0, 81, 62
2, 118920, Note_on_c, 0, 79, 55
2, 118944, Note_on_c, 0, 81, 0
2, 119040, Note_on_c, 0, 78, 57
2, 119064, Note_on_c, 0, 79, 0
2, 119160, Note_on_c, 0, 76, 46
2, 119184, Note_on_c, 0, 78, 0
2, 119280, Note_on_c, 0, 74, 51
2, 119304, Note_on_c, 0, 76, 0
2, 119400, Note_on_c, 0, 73, 46
2, 119424, Note_on_c, 0, 74, 0
2, 119520, Note_on_c, 0, 74, 53
2, 119544, Note_on_c, 0, 73, 0
2, 119880, Note_on_c, 0, 74, 0
2, 119880, Note_on_c, 0, 71, 47
2, 120000, Note_on_c, 0, 71, 0
2, 120000, Note_on_c, 0, 67, 45
2, 120480, Note_on_c, 0, 67, 0
2, 120960, Note_on_c, 0, 72, 50
2, 121320, Note_on_c, 0, 72, 0
2, 121320, Note_on_c, 0, 69, 47
2, 121440, Note_on_c, 0, 69, 0
2, 121440, Note_on_c, 0, 66, 52
2, 121560, Note_on_c, 0, 66, 0
2, 121680, Note_on_c, 0, 69, 47
2, 121800, Note_on_c, 0, 69, 0
2, 121920, Note_on_c, 0, 71, 51
2, 122040, Note_on_c, 0, 71, 0
2, 122160, Note_on_c, 0, 72, 52
2, 122280, Note_on_c, 0, 72, 0
2, 122400, Note_on_c, 0, 74, 57
2, 122760, Note_on_c, 0, 74, 0
2, 122760, Note_on_c, 0, 71, 61
2, 122880, Note_on_c, 0, 71, 0
2, 122880, Note_on_c, 0, 79, 65
2, 123360, Note_on_c, 0, 79, 0
2, 123840, Note_on_c, 0, 81, 68
2, 123960, Note_on_c, 0, 79, 59
2, 123972, Note_on_c, 0, 81, 0
2, 124080, Note_on_c, 0, 78, 64
2, 124092, Note_on_c, 0, 79, 0
2, 124200, Note_on_c, 0, 79, 58
2, 124212, Note_on_c, 0, 78, 0
2, 124320, Note_on_c, 0, 79, 0
2, 124320, Note_on_c, 0, 78, 64
2, 124440, Note_on_c, 0, 76, 54
2, 124452, Note_on_c, 0, 78, 0
2, 124560, Note_on_c, 0, 75, 59
2, 124572, Note_on_c, 0, 76, 0
2, 124680, Note_on_c, 0, 76, 53
2, 124692, Note_on_c, 0, 75, 0
2, 124800, Note_on_c, 0, 76, 0
2, 124800, Note_on_c, 0, 74, 62
2, 124920, Note_on_c, 0, 72, 53
2, 124932, Note_on_c, 0, 74, 0
2, 125040, Note_on_c, 0, 71, 56
2, 125052, Note_on_c, 0, 72, 0
2, 125160, Note_on_c, 0, 72, 53
2, 125172, Note_on_c, 0, 71, 0
2, 125280, Note_on_c, 0, 72, 0
2, 125280, Note_on_c, 0, 71, 59
2, 125640, Note_on_c, 0, 71, 0
2, 125640, Note_on_c, 0, 72, 50
2, 125700, Note_on_c, 0, 72, 0
2, 125700, Note_on_c, 0, 71, 50
2, 125760, Note_on_c, 0, 71, 0
2, 125760, Note_on_c, 0, 69, 57
2, 126000, Note_on_c, 0, 69, 0
2, 126000, Note_on_c, 0, 74, 54
2, 126240, Note_on_c, 0, 73, 52
2, 126250, Note_on_c, 0, 74, 0
2, 126480, Note_on_c, 0, 72, 50
2, 126490, Note_on_c, 0, 73, 0
2, 126720, Note_on_c, 0, 72, 0
2, 126720, Note_on_c, 0, 71, 50
2, 127320, Note_on_c, 0, 71, 0
2, 127320, Note_on_c, 0, 67, 46
2, 127440, Note_on_c, 0, 67, 0
2, 127440, Note_on_c, 0, 71, 48
2, 127553, Note_on_c, 0, 74, 46
2, 127560, Note_on_c, 0, 71, 0
2, 127673, Note_on_c, 0, 74, 0
2, 127680, Note_on_c, 0, 72, 54
2, 127800, Note_on_c, 0, 72, 0
2, 127800, Note_on_c, 0, 69, 46
2, 127920, Note_on_c, 0, 69, 0
2, 127920, Note_on_c, 0, 72, 54
2, 128040, Note_on_c, 0, 72, 0
2, 128040, Note_on_c, 0, 76, 51
2, 128160, Note_on_c, 0, 76, 0
2, 128160, Note_on_c, 0, 74, 58
2, 128520, Note_on_c, 0, 74, 0
2, 128520, Note_on_c, 0, 71, 47
2, 128640, Note_on_c, 0, 71, 0
2, 128640, Note_on_c, 0, 67, 47
2, 128700, Note_on_c, 0, 67, 0
2, 128760, Note_on_c, 0, 67, 46
2, 128820, Note_on_c, 0, 67, 0
2, 128880, Note_on_c, 0, 69, 47
2, 128940, Note_on_c, 0, 69, 0
2, 129000, Note_on_c, 0, 71, 48
2, 129060, Note_on_c, 0, 71, 0
2, 129120, Note_on_c, 0, 72, 49
2, 129180, Note_on_c, 0, 72, 0
2, 129240, Note_on_c, 0, 74, 50
2, 129300, Note_on_c, 0, 74, 0
2, 129360, Note_on_c, 0, 76, 51
2, 129420, Note_on_c, 0, 76, 0
2, 129480, Note_on_c, 0, 78, 53
2, 129540, Note_on_c, 0, 78, 0
2, 129600, Note_on_c, 0, 79, 57
2, 129720, Note_on_c, 0, 78, 50
2, 129744, Note_on_c, 0, 79, 0
2, 129840, Note_on_c, 0, 79, 56
2, 129864, Note_on_c, 0, 78, 0
2, 129960, Note_on_c, 0, 78, 52
2, 129984, Note_on_c, 0, 79, 0
2, 130080, Note_on_c, 0, 81, 59
2, 130104, Note_on_c, 0, 78, 0
2, 130200, Note_on_c, 0, 79, 57
2, 130224, Note_on_c, 0, 81, 0
2, 130320, Note_on_c, 0, 78, 54
2, 130344, Note_on_c, 0, 79, 0
2, 130440, Note_on_c, 0, 79, 49
2, 130464, Note_on_c, 0, 78, 0
2, 130560, Note_on_c, 0, 78, 52
2, 130584, Note_on_c, 0, 79, 0
2, 130680, Note_on_c, 0, 76, 50
2, 130704, Note_on_c, 0, 78, 0
2, 130800, Note_on_c, 0, 74, 48
2, 130824, Note_on_c, 0, 76, 0
2, 130920, Note_on_c, 0, 73, 46
2, 130944, Note_on_c, 0, 74, 0
2, 131040, Note_on_c, 0, 74, 50
2, 131064, Note_on_c, 0, 73, 0
2, 131160, Note_on_c, 0, 74, 0
2, 131160, Note_on_c, 0, 71, 43
2, 131280, Note_on_c, 0, 71, 0
2, 131280, Note_on_c, 0, 74, 47
2, 131400, Note_on_c, 0, 74, 0
2, 131400, Note_on_c, 0, 71, 43
2, 131520, Note_on_c, 0, 71, 0
2, 131520, Note_on_c, 0, 67, 47
2, 132000, Note_on_c, 0, 67, 0
2, 132480, Note_on_c, 0, 72, 50
2, 132600, Note_on_c, 0, 72, 0
2, 132600, Note_on_c, 0, 69, 46
2, 132720, Note_on_c, 0, 69, 0
2, 132720, Note_on_c, 0, 72, 46
2, 132840, Note_on_c, 0, 72, 0
2, 132840, Note_on_c, 0, 69, 43
2, 132960, Note_on_c, 0, 69, 0
2, 132960, Note_on_c, 0, 66, 50
2, 133020, Note_on_c, 0, 66, 0
2, 133080, Note_on_c, 0, 69, 46
2, 133200, Note_on_c, 0, 69, 0
2, 133200, Note_on_c, 0, 68, 49
2, 133320, Note_on_c, 0, 68, 0
2, 133320, Note_on_c, 0, 69, 51
2, 133440, Note_on_c, 0, 69, 0
2, 133440, Note_on_c, 0, 70, 54
2, 133560, Note_on_c, 0, 70, 0
2, 133560, Note_on_c, 0, 71, 51
2, 133680, Note_on_c, 0, 71, 0
2, 133680, Note_on_c, 0, 72, 54
2, 133800, Note_on_c, 0, 72, 0
2, 133800, Note_on_c, 0, 73, 56
2, 133920, Note_on_c, 0, 73, 0
2, 133920, Note_on_c, 0, 74, 59
2, 134040, Note_on_c, 0, 74, 0
2, 134040, Note_on_c, 0, 71, 51
2, 134160, Note_on_c, 0, 71, 0
2, 134160, Note_on_c, 0, 74, 54
2, 134280, Note_on_c, 0, 74, 0
2, 134280, Note_on_c, 0, 71, 51
2, 134400, Note_on_c, 0, 71, 0
2, 134400, Note_on_c, 0, 79, 63
2, 134880, Note_on_c, 0, 79, 0
2, 135000, Note_on_c, 0, 83, 67
2, 135120, Note_on_c, 0, 78, 62
2, 135144, Note_on_c, 0, 83, 0
2, 135240, Note_on_c, 0, 79, 56
2, 135264, Note_on_c, 0, 78, 0
2, 135360, Note_on_c, 0, 79, 0
2, 135360, Note_on_c, 0, 75, 58
2, 135480, Note_on_c, 0, 76, 49
2, 135504, Note_on_c, 0, 75, 0
2, 135600, Note_on_c, 0, 72, 53
2, 135624, Note_on_c, 0, 76, 0
2, 135720, Note_on_c, 0, 69, 46
2, 135744, Note_on_c, 0, 72, 0
2, 135840, Note_on_c, 0, 67, 53
2, 135864, Note_on_c, 0, 69, 0
2, 136200, Note_on_c, 0, 67, 0
2, 136200, Note_on_c, 0, 67, 44
2, 136320, Note_on_c, 0, 67, 0
2, 136320, Note_on_c, 0, 66, 47
2, 136320, Note_on_c, 0, 71, 55
2, 136440, Note_on_c, 0, 69, 44
2, 136464, Note_on_c, 0, 71, 0
2, 136560, Note_on_c, 0, 67, 49
2, 136584, Note_on_c, 0, 69, 0
2, 136680, Note_on_c, 0, 69, 42
2, 136704, Note_on_c, 0, 67, 0
2, 136800, Note_on_c, 0, 69, 0
2, 136800, Note_on_c, 0, 66, 0
2, 136800, Note_on_c, 0, 67, 49
2, 136920, Note_on_c, 0, 67, 0
2, 136920, Note_on_c, 0, 66, 43
2, 137040, Note_on_c, 0, 66, 0
2, 137040, Note_on_c, 0, 69, 49
2, 137160, Note_on_c, 0, 69, 0
2, 137160, Note_on_c, 0, 67, 43
2, 137280, Note_on_c, 0, 67, 0
2, 137280, Note_on_c, 0, 71, 49
2, 137400, Note_on_c, 0, 71, 0
2, 137400, Note_on_c, 0, 69, 42
2, 137520, Note_on_c, 0, 69, 0
2, 137520, Note_on_c, 0, 72, 48
2, 137640, Note_on_c, 0, 72, 0
2, 137640, Note_on_c, 0, 71, 40
2, 137760, Note_on_c, 0, 71, 0
2, 137760, Note_on_c, 0, 74, 53
2, 137880, Note_on_c, 0, 74, 0
2, 137880, Note_on_c, 0, 72, 46
2, 138000, Note_on_c, 0, 72, 0
2, 138000, Note_on_c, 0, 76, 56
2, 138120, Note_on_c, 0, 76, 0
2, 138120, Note_on_c, 0, 74, 53
2, 138240, Note_on_c, 0, 74, 0
2, 138240, Note_on_c, 0, 77, 59
2, 138960, Note_on_c, 0, 77, 0
2, 138960, Note_on_c, 0, 79, 56
2, 139080, Note_on_c, 0, 81, 50
2, 139104, Note_on_c, 0, 79, 0
2, 139200, Note_on_c, 0, 79, 56
2, 139224, Note_on_c, 0, 81, 0
2, 139320, Note_on_c, 0, 77, 50
2, 139344, Note_on_c, 0, 79, 0
2, 139440, Note_on_c, 0, 76, 54
2, 139464, Note_on_c, 0, 77, 0
2, 139560, Note_on_c, 0, 74, 51
2, 139584, Note_on_c, 0, 76, 0
2, 139680, Note_on_c, 0, 74, 0
2, 139680, Note_on_c, 0, 75, 60
2, 140160, Note_on_c, 0, 75, 0
2, 140160, Note_on_c, 0, 76, 55
2, 140640, Note_on_c, 0, 76, 0
2, 140760, Note_on_c, 0, 79, 61
2, 140880, Note_on_c, 0, 78, 55
2, 140904, Note_on_c, 0, 79, 0
2, 141000, Note_on_c, 0, 76, 58
2, 141024, Note_on_c, 0, 78, 0
2, 141120, Note_on_c, 0, 74, 58
2, 141144, Note_on_c, 0, 76, 0
2, 141240, Note_on_c, 0, 71, 49
2, 141264, Note_on_c, 0, 74, 0
2, 141360, Note_on_c, 0, 69, 53
2, 141384, Note_on_c, 0, 71, 0
2, 141480, Note_on_c, 0, 76, 46
2, 141504, Note_on_c, 0, 69, 0
2, 141600, Note_on_c, 0, 76, 0
2, 141600, Note_on_c, 0, 67, 53
2, 141960, Note_on_c, 0, 67, 0
2, 141960, Note_on_c, 0, 67, 44
2, 142080, Note_on_c, 0, 67, 0
2, 142080, Note_on_c, 0, 66, 47
2, 142080, Note_on_c, 0, 71, 55
2, 142200, Note_on_c, 0, 69, 44
2, 142224, Note_on_c, 0, 71, 0
2, 142320, Note_on_c, 0, 67, 49
2, 142344, Note_on_c, 0, 69, 0
2, 142440, Note_on_c, 0, 69, 42
2, 142464, Note_on_c, 0, 67, 0
2, 142560, Note_on_c, 0, 69, 0
2, 142560, Note_on_c, 0, 66, 0
2, 142560, Note_on_c, 0, 67, 49
2, 142680, Note_on_c, 0, 67, 0
2, 142680, Note_on_c, 0, 66, 43
2, 142800, Note_on_c, 0, 66, 0
2, 142800, Note_on_c, 0, 69, 52
2, 142920, Note_on_c, 0, 69, 0
2, 142920, Note_on_c, 0, 67, 47
2, 143040, Note_on_c, 0, 67, 0
2, 143040, Note_on_c, 0, 71, 56
2, 143160, Note_on_c, 0, 71, 0
2, 143160, Note_on_c, 0, 69, 52
2, 143280, Note_on_c, 0, 69, 0
2, 143280, Note_on_c, 0, 72, 57
2, 143400, Note_on_c, 0, 72, 0
2, 143400, Note_on_c, 0, 71, 57
2, 143520, Note_on_c, 0, 71, 0
2, 143520, Note_on_c, 0, 74, 63
2, 143640, Note_on_c, 0, 74, 0
2, 143640, Note_on_c, 0, 72, 62
2, 143760, Note_on_c, 0, 72, 0
2, 143760, Note_on_c, 0, 76, 66
2, 143880, Note_on_c, 0, 76, 0
2, 143880, Note_on_c, 0, 74, 65
2, 144000, Note_on_c, 0, 74, 0
2, 144000, Note_on_c, 0, 77, 75
2, 144720, Note_on_c, 0, 77, 0
2, 144720, Note_on_c, 0, 79, 72
2, 144840, Note_on_c, 0, 81, 67
2, 144864, Note_on_c, 0, 79, 0
2, 144960, Note_on_c, 0, 79, 75
2, 144984, Note_on_c, 0, 81, 0
2, 145080, Note_on_c, 0, 77, 71
2, 145104, Note_on_c, 0, 79, 0
2, 145200, Note_on_c, 0, 76, 75
2, 145224, Note_on_c, 0, 77, 0
2, 145320, Note_on_c, 0, 74, 73
2, 145344, Note_on_c, 0, 76, 0
2, 145440, Note_on_c, 0, 74, 0
2, 145440, Note_on_c, 0, 76, 76
2, 145920, Note_on_c, 0, 76, 0
2, 145920, Note_on_c, 0, 78, 74
2, 146400, Note_on_c, 0, 78, 0
2, 146400, Note_on_c, 0, 79, 77
2, 146880, Note_on_c, 0, 79, 0
2, 146880, Note_on_c, 0, 67, 65
2, 147600, Note_on_c, 0, 67, 0
2, 147600, Note_on_c, 0, 69, 44
2, 147660, Note_on_c, 0, 69, 0
2, 147660, Note_on_c, 0, 67, 44
2, 147720, Note_on_c, 0, 67, 0
2, 147720, Note_on_c, 0, 66, 44
2, 147780, Note_on_c, 0, 66, 0
2, 147780, Note_on_c, 0, 67, 44
2, 147840, Note_on_c, 0, 67, 0
2, 147840, Note_on_c, 0, 66, 47
2, 147840, Note_on_c, 0, 71, 55
2, 148080, Note_on_c, 0, 71, 0
2, 148080, Note_on_c, 0, 69, 49
2, 148320, Note_on_c, 0, 69, 0
2, 148320, Note_on_c, 0, 66, 0
2, 148320, Note_on_c, 0, 67, 49
2, 148440, Note_on_c, 0, 67, 0
2, 148440, Note_on_c, 0, 62, 40
2, 148560, Note_on_c, 0, 62, 0
2, 148560, Note_on_c, 0, 71, 44
2, 148600, Note_on_c, 0, 71, 0
2, 148680, Note_on_c, 0, 71, 44
2, 148720, Note_on_c, 0, 71, 0
2, 148800, Note_on_c, 0, 71, 49
2, 148920, Note_on_c, 0, 71, 0
2, 148920, Note_on_c, 0, 67, 41
2, 149040, Note_on_c, 0, 67, 0
2, 149040, Note_on_c, 0, 74, 45
2, 149080, Note_on_c, 0, 74, 0
2, 149160, Note_on_c, 0, 74, 45
2, 149200, Note_on_c, 0, 74, 0
2, 149280, Note_on_c, 0, 74, 49
2, 149400, Note_on_c, 0, 74, 0
2, 149400, Note_on_c, 0, 71, 42
2, 149520, Note_on_c, 0, 71, 0
2, 149520, Note_on_c, 0, 69, 45
2, 149640, Note_on_c, 0, 69, 0
2, 149640, Note_on_c, 0, 71, 40
2, 149760, Note_on_c, 0, 71, 0
2, 149760, Note_on_c, 0, 67, 49
2, 149880, Note_on_c, 0, 67, 0
2, 149880, Note_on_c, 0, 62, 40
2, 150000, Note_on_c, 0, 62, 0
2, 150000, Note_on_c, 0, 71, 44
2, 150040, Note_on_c, 0, 71, 0
2, 150120, Note_on_c, 0, 71, 44
2, 150160, Note_on_c, 0, 71, 0
2, 150240, Note_on_c, 0, 71, 49
2, 150360, Note_on_c, 0, 71, 0
2, 150360, Note_on_c, 0, 67, 41
2, 150480, Note_on_c, 0, 67, 0
2, 150480, Note_on_c, 0, 74, 45
2, 150520, Note_on_c, 0, 74, 0
2, 150600, Note_on_c, 0, 74, 45
2, 150640, Note_on_c, 0, 74, 0
2, 150720, Note_on_c, 0, 74, 49
2, 150840, Note_on_c, 0, 74, 0
2, 150840, Note_on_c, 0, 71, 42
2, 150960, Note_on_c, 0, 71, 0
2, 150960, Note_on_c, 0, 69, 45
2, 151080, Note_on_c, 0, 69, 0
2, 151080, Note_on_c, 0, 71, 40
2, 151200, Note_on_c, 0, 71, 0
2, 151200, Note_on_c, 0, 67, 45
2, 151440, Note_on_c, 0, 67, 0
2, 151680, Note_on_c, 0, 59, 38
2, 151680, Note_on_c, 0, 67, 38
2, 151920, Note_on_c, 0, 67, 0
2, 151920, Note_on_c, 0, 59, 0
2, 151920, End_track
3, 0, Start_track
3, 0, Title_t, "Piano left"
3, 0, Program_c, 0, 0
3, 0, Note_on_c, 0, 55, 40
3, 120, Note_on_c, 0, 55, 0
3, 120, Note_on_c, 0, 62, 22
3, 240, Note_on_c, 0, 62, 0
3, 240, Note_on_c, 0, 59, 25
3, 360, Note_on_c, 0, 59, 0
3, 360, Note_on_c, 0, 62, 24
3, 480, Note_on_c, 0, 62, 0
3, 480, Note_on_c, 0, 55, 40
3, 600, Note_on_c, 0, 55, 0
3, 600, Note_on_c, 0, 62, 29
3, 720, Note_on_c, 0, 62, 0
3, 720, Note_on_c, 0, 59, 35
3, 840, Note_on_c, 0, 59, 0
3, 840, Note_on_c, 0, 62, 30
3, 960, Note_on_c, 0, 62, 0
3, 960, Note_on_c, 0, 57, 40
3, 1080, Note_on_c, 0, 57, 0
3, 1080, Note_on_c, 0, 62, 32
3, 1200, Note_on_c, 0, 62, 0
3, 1200, Note_on_c, 0, 60, 40
3, 1320, Note_on_c, 0, 60, 0
3, 1320, Note_on_c, 0, 62, 35
3, 1440, Note_on_c, 0, 62, 0
3, 1440, Note_on_c, 0, 55, 43
3, 1560, Note_on_c, 0, 55, 0
3, 1560, Note_on_c, 0, 62, 28
3, 1680, Note_on_c, 0, 62, 0
3, 1680, Note_on_c, 0, 59, 32
3, 1800, Note_on_c, 0, 59, 0
3, 1800, Note_on_c, 0, 62, 28
3, 1920, Note_on_c, 0, 62, 0
3, 1920, Note_on_c, 0, 55, 40
3, 2040, Note_on_c, 0, 55, 0
3, 2040, Note_on_c, 0, 62, 29
3, 2160, Note_on_c, 0, 62, 0
3, 2160, Note_on_c, 0, 59, 39
3, 2280, Note_on_c, 0, 59, 0
3, 2280, Note_on_c, 0, 62, 36
3, 2400, Note_on_c, 0, 62, 0
3, 2400, Note_on_c, 0, 55, 48
3, 2520, Note_on_c, 0, 55, 0
3, 2520, Note_on_c, 0, 62, 38
3, 2640, Note_on_c, 0, 62, 0
3, 2640, Note_on_c, 0, 59, 48
3, 2760, Note_on_c, 0, 59, 0
3, 2760, Note_on_c, 0, 62, 45
3, 2880, Note_on_c, 0, 62, 0
3, 2880, Note_on_c, 0, 55, 53
3, 3000, Note_on_c, 0, 55, 0
3, 3000, Note_on_c, 0, 64, 37
3, 3120, Note_on_c, 0, 64, 0
3, 3120, Note_on_c, 0, 60, 47
3, 3240, Note_on_c, 0, 60, 0
3, 3240, Note_on_c, 0, 64, 41
3, 3360, Note_on_c, 0, 64, 0
3, 3360, Note_on_c, 0, 55, 44
3, 3480, Note_on_c, 0, 55, 0
3, 3480, Note_on_c, 0, 64, 34
3, 3600, Note_on_c, 0, 64, 0
3, 3600, Note_on_c, 0, 60, 39
3, 3720, Note_on_c, 0, 60, 0
3, 3720, Note_on_c, 0, 64, 34
3, 3840, Note_on_c, 0, 64, 0
3, 3840, Note_on_c, 0, 55, 40
3, 3960, Note_on_c, 0, 55, 0
3, 3960, Note_on_c, 0, 61, 26
3, 4080, Note_on_c, 0, 61, 0
3, 4080, Note_on_c, 0, 58, 34
3, 4200, Note_on_c, 0, 58, 0
3, 4200, Note_on_c, 0, 61, 27
3, 4320, Note_on_c, 0, 61, 0
3, 4320, Note_on_c, 0, 55, 40
3, 4440, Note_on_c, 0, 55, 0
3, 4440, Note_on_c, 0, 62, 26
3, 4560, Note_on_c, 0, 62, 0
3, 4560, Note_on_c, 0, 59, 31
3, 4680, Note_on_c, 0, 59, 0
3, 4680, Note_on_c, 0, 62, 27
3, 4800, Note_on_c, 0, 62, 0
3, 4800, Note_on_c, 0, 55, 40
3, 4920, Note_on_c, 0, 55, 0
3, 4920, Note_on_c, 0, 62, 26
3, 5040, Note_on_c, 0, 62, 0
3, 5040, Note_on_c, 0, 59, 30
3, 5160, Note_on_c, 0, 59, 0
3, 5160, Note_on_c, 0, 62, 27
3, 5280, Note_on_c, 0, 62, 0
3, 5280, Note_on_c, 0, 55, 41
3, 5400, Note_on_c, 0, 55, 0
3, 5400, Note_on_c, 0, 62, 25
3, 5520, Note_on_c, 0, 62, 0
3, 5520, Note_on_c, 0, 59, 30
3, 5640, Note_on_c, 0, 59, 0
3, 5640, Note_on_c, 0, 62, 25
3, 5760, Note_on_c, 0, 62, 0
3, 5760, Note_on_c, 0, 57, 40
3, 5880, Note_on_c, 0, 57, 0
3, 5880, Note_on_c, 0, 62, 27
3, 6000, Note_on_c, 0, 62, 0
3, 6000, Note_on_c, 0, 60, 32
3, 6120, Note_on_c, 0, 60, 0
3, 6120, Note_on_c, 0, 62, 27
3, 6240, Note_on_c, 0, 62, 0
3, 6240, Note_on_c, 0, 57, 40
3, 6360, Note_on_c, 0, 57, 0
3, 6360, Note_on_c, 0, 62, 30
3, 6480, Note_on_c, 0, 62, 0
3, 6480, Note_on_c, 0, 60, 33
3, 6600, Note_on_c, 0, 60, 0
3, 6600, Note_on_c, 0, 62, 28
3, 6720, Note_on_c, 0, 62, 0
3, 6720, Note_on_c, 0, 57, 44
3, 6840, Note_on_c, 0, 57, 0
3, 6840, Note_on_c, 0, 62, 33
3, 6960, Note_on_c, 0, 62, 0
3, 6960, Note_on_c, 0, 60, 40
3, 7080, Note_on_c, 0, 60, 0
3, 7080, Note_on_c, 0, 62, 33
3, 7200, Note_on_c, 0, 62, 0
3, 7200, Note_on_c, 0, 55, 46
3, 7320, Note_on_c, 0, 55, 0
3, 7320, Note_on_c, 0, 62, 33
3, 7440, Note_on_c, 0, 62, 0
3, 7440, Note_on_c, 0, 59, 40
3, 7560, Note_on_c, 0, 59, 0
3, 7560, Note_on_c, 0, 62, 37
3, 7680, Note_on_c, 0, 62, 0
3, 7680, Note_on_c, 0, 52, 46
3, 7800, Note_on_c, 0, 52, 0
3, 7800, Note_on_c, 0, 59, 38
3, 7920, Note_on_c, 0, 59, 0
3, 7920, Note_on_c, 0, 55, 42
3, 8040, Note_on_c, 0, 55, 0
3, 8040, Note_on_c, 0, 59, 38
3, 8160, Note_on_c, 0, 59, 0
3, 8160, Note_on_c, 0, 47, 53
3, 8280, Note_on_c, 0, 47, 0
3, 8280, Note_on_c, 0, 55, 44
3, 8400, Note_on_c, 0, 55, 0
3, 8400, Note_on_c, 0, 50, 48
3, 8520, Note_on_c, 0, 50, 0
3, 8520, Note_on_c, 0, 55, 39
3, 8640, Note_on_c, 0, 55, 0
3, 8640, Note_on_c, 0, 48, 49
3, 8640, Note_on_c, 0, 52, 58
3, 9120, Note_on_c, 0, 52, 0
3, 9120, Note_on_c, 0, 55, 34
3, 9600, Note_on_c, 0, 48, 0
3, 9600, Note_on_c, 0, 52, 34
3, 10080, Note_on_c, 0, 52, 0
3, 10080, Note_on_c, 0, 55, 0
3, 10080, Note_on_c, 0, 50, 36
3, 10080, Note_on_c, 0, 55, 36
3, 10560, Note_on_c, 0, 55, 0
3, 10560, Note_on_c, 0, 54, 28
3, 11040, Note_on_c, 0, 54, 0
3, 11040, Note_on_c, 0, 50, 0
3, 11520, Note_on_c, 0, 55, 40
3, 11640, Note_on_c, 0, 55, 0
3, 11640, Note_on_c, 0, 62, 25
3, 11760, Note_on_c, 0, 62, 0
3, 11760, Note_on_c, 0, 59, 31
3, 11880, Note_on_c, 0, 59, 0
3, 11880, Note_on_c, 0, 62, 26
3, 12000, Note_on_c, 0, 62, 0
3, 12000, Note_on_c, 0, 55, 40
3, 12120, Note_on_c, 0, 55, 0
3, 12120, Note_on_c, 0, 62, 27
3, 12240, Note_on_c, 0, 62, 0
3, 12240, Note_on_c, 0, 59, 31
3, 12360, Note_on_c, 0, 59, 0
3, 12360, Note_on_c, 0, 62, 26
3, 12480, Note_on_c, 0, 62, 0
3, 12480, Note_on_c, 0, 57, 40
3, 12600, Note_on_c, 0, 57, 0
3, 12600, Note_on_c, 0, 62, 31
3, 12720, Note_on_c, 0, 62, 0
3, 12720, Note_on_c, 0, 60, 36
3, 12840, Note_on_c, 0, 60, 0
3, 12840, Note_on_c, 0, 62, 30
3, 12960, Note_on_c, 0, 62, 0
3, 12960, Note_on_c, 0, 55, 40
3, 13080, Note_on_c, 0, 55, 0
3, 13080, Note_on_c, 0, 62, 28
3, 13200, Note_on_c, 0, 62, 0
3, 13200, Note_on_c, 0, 59, 32
3, 13320, Note_on_c, 0, 59, 0
3, 13320, Note_on_c, 0, 62, 28
3, 13440, Note_on_c, 0, 62, 0
3, 13440, Note_on_c, 0, 55, 40
3, 13560, Note_on_c, 0, 55, 0
3, 13560, Note_on_c, 0, 62, 33
3, 13680, Note_on_c, 0, 62, 0
3, 13680, Note_on_c, 0, 59, 37
3, 13800, Note_on_c, 0, 59, 0
3, 13800, Note_on_c, 0, 62, 30
3, 13920, Note_on_c, 0, 62, 0
3, 13920, Note_on_c, 0, 55, 47
3, 14040, Note_on_c, 0, 55, 0
3, 14040, Note_on_c, 0, 62, 38
3, 14160, Note_on_c, 0, 62, 0
3, 14160, Note_on_c, 0, 59, 44
3, 14280, Note_on_c, 0, 59, 0
3, 14280, Note_on_c, 0, 62, 42
3, 14400, Note_on_c, 0, 62, 0
3, 14400, Note_on_c, 0, 55, 43
3, 14520, Note_on_c, 0, 55, 0
3, 14520, Note_on_c, 0, 64, 34
3, 14640, Note_on_c, 0, 64, 0
3, 14640, Note_on_c, 0, 60, 38
3, 14760, Note_on_c, 0, 60, 0
3, 14760, Note_on_c, 0, 64, 34
3, 14880, Note_on_c, 0, 64, 0
3, 14880, Note_on_c, 0, 55, 44
3, 15000, Note_on_c, 0, 55, 0
3, 15000, Note_on_c, 0, 64, 34
3, 15120, Note_on_c, 0, 64, 0
3, 15120, Note_on_c, 0, 60, 39
3, 15240, Note_on_c, 0, 60, 0
3, 15240, Note_on_c, 0, 64, 34
3, 15360, Note_on_c, 0, 64, 0
3, 15360, Note_on_c, 0, 55, 40
3, 15480, Note_on_c, 0, 55, 0
3, 15480, Note_on_c, 0, 61, 26
3, 15600, Note_on_c, 0, 61, 0
3, 15600, Note_on_c, 0, 58, 34
3, 15720, Note_on_c, 0, 58, 0
3, 15720, Note_on_c, 0, 61, 27
3, 15840, Note_on_c, 0, 61, 0
3, 15840, Note_on_c, 0, 55, 40
3, 15960, Note_on_c, 0, 55, 0
3, 15960, Note_on_c, 0, 62, 24
3, 16080, Note_on_c, 0, 62, 0
3, 16080, Note_on_c, 0, 59, 31
3, 16200, Note_on_c, 0, 59, 0
3, 16200, Note_on_c, 0, 62, 27
3, 16320, Note_on_c, 0, 62, 0
3, 16320, Note_on_c, 0, 55, 40
3, 16440, Note_on_c, 0, 55, 0
3, 16440, Note_on_c, 0, 62, 26
3, 16560, Note_on_c, 0, 62, 0
3, 16560, Note_on_c, 0, 59, 33
3, 16680, Note_on_c, 0, 59, 0
3, 16680, Note_on_c, 0, 62, 27
3, 16800, Note_on_c, 0, 62, 0
3, 16800, Note_on_c, 0, 55, 41
3, 16920, Note_on_c, 0, 55, 0
3, 16920, Note_on_c, 0, 62, 30
3, 17040, Note_on_c, 0, 62, 0
3, 17040, Note_on_c, 0, 59, 33
3, 17160, Note_on_c, 0, 59, 0
3, 17160, Note_on_c, 0, 62, 29
3, 17280, Note_on_c, 0, 62, 0
3, 17280, Note_on_c, 0, 57, 40
3, 17400, Note_on_c, 0, 57, 0
3, 17400, Note_on_c, 0, 62, 27
3, 17520, Note_on_c, 0, 62, 0
3, 17520, Note_on_c, 0, 60, 32
3, 17640, Note_on_c, 0, 60, 0
3, 17640, Note_on_c, 0, 62, 27
3, 17760, Note_on_c, 0, 62, 0
3, 17760, Note_on_c, 0, 57, 40
3, 17880, Note_on_c, 0, 57, 0
3, 17880, Note_on_c, 0, 62, 30
3, 18000, Note_on_c, 0, 62, 0
3, 18000, Note_on_c, 0, 60, 33
3, 18120, Note_on_c, 0, 60, 0
3, 18120, Note_on_c, 0, 62, 28
3, 18240, Note_on_c, 0, 62, 0
3, 18240, Note_on_c, 0, 57, 40
3, 18360, Note_on_c, 0, 57, 0
3, 18360, Note_on_c, 0, 62, 31
3, 18480, Note_on_c, 0, 62, 0
3, 18480, Note_on_c, 0, 60, 38
3, 18600, Note_on_c, 0, 60, 0
3, 18600, Note_on_c, 0, 62, 33
3, 18720, Note_on_c, 0, 62, 0
3, 18720, Note_on_c, 0, 55, 40
3, 18840, Note_on_c, 0, 55, 0
3, 18840, Note_on_c, 0, 62, 38
3, 18960, Note_on_c, 0, 62, 0
3, 18960, Note_on_c, 0, 59, 42
3, 19080, Note_on_c, 0, 59, 0
3, 19080, Note_on_c, 0, 62, 35
3, 19200, Note_on_c, 0, 62, 0
3, 19200, Note_on_c, 0, 52, 51
3, 19320, Note_on_c, 0, 52, 0
3, 19320, Note_on_c, 0, 59, 46
3, 19440, Note_on_c, 0, 59, 0
3, 19440, Note_on_c, 0, 55, 50
3, 19560, Note_on_c, 0, 55, 0
3, 19560, Note_on_c, 0, 59, 47
3, 19680, Note_on_c, 0, 59, 0
3, 19680, Note_on_c, 0, 47, 54
3, 19800, Note_on_c, 0, 47, 0
3, 19800, Note_on_c, 0, 55, 42
3, 19920, Note_on_c, 0, 55, 0
3, 19920, Note_on_c, 0, 50, 47
3, 20040, Note_on_c, 0, 50, 0
3, 20040, Note_on_c, 0, 55, 34
3, 20160, Note_on_c, 0, 55, 0
3, 20160, Note_on_c, 0, 48, 40
3, 20280, Note_on_c, 0, 48, 0
3, 20280, Note_on_c, 0, 57, 26
3, 20400, Note_on_c, 0, 57, 0
3, 20400, Note_on_c, 0, 52, 33
3, 20520, Note_on_c, 0, 52, 0
3, 20520, Note_on_c, 0, 57, 29
3, 20640, Note_on_c, 0, 57, 0
3, 20640, Note_on_c, 0, 50, 39
3, 20760, Note_on_c, 0, 50, 0
3, 20760, Note_on_c, 0, 59, 27
3, 20880, Note_on_c, 0, 59, 0
3, 20880, Note_on_c, 0, 55, 33
3, 21000, Note_on_c, 0, 55, 0
3, 21000, Note_on_c, 0, 59, 28
3, 21120, Note_on_c, 0, 59, 0
3, 21120, Note_on_c, 0, 50, 39
3, 21240, Note_on_c, 0, 50, 0
3, 21240, Note_on_c, 0, 60, 27
3, 21360, Note_on_c, 0, 60, 0
3, 21360, Note_on_c, 0, 57, 32
3, 21480, Note_on_c, 0, 57, 0
3, 21480, Note_on_c, 0, 60, 27
3, 21593, Note_on_c, 0, 60, 0
3, 21600, Note_on_c, 0, 55, 27
3, 21600, Note_on_c, 0, 60, 36
3, 22080, Note_on_c, 0, 60, 0
3, 22080, Note_on_c, 0, 59, 28
3, 22560, Note_on_c, 0, 59, 0
3, 22560, Note_on_c, 0, 55, 0
3, 23040, Note_on_c, 0, 55, 40
3, 23160, Note_on_c, 0, 55, 0
3, 23160, Note_on_c, 0, 62, 22
3, 23280, Note_on_c, 0, 62, 0
3, 23280, Note_on_c, 0, 59, 25
3, 23400, Note_on_c, 0, 59, 0
3, 23400, Note_on_c, 0, 62, 24
3, 23520, Note_on_c, 0, 62, 0
3, 23520, Note_on_c, 0, 55, 40
3, 23640, Note_on_c, 0, 55, 0
3, 23640, Note_on_c, 0, 62, 29
3, 23760, Note_on_c, 0, 62, 0
3, 23760, Note_on_c, 0, 59, 35
3, 23880, Note_on_c, 0, 59, 0
3, 23880, Note_on_c, 0, 62, 30
3, 24000, Note_on_c, 0, 62, 0
3, 24000, Note_on_c, 0, 57, 40
3, 24120, Note_on_c, 0, 57, 0
3, 24120, Note_on_c, 0, 62, 32
3, 24240, Note_on_c, 0, 62, 0
3, 24240, Note_on_c, 0, 60, 40
3, 24360, Note_on_c, 0, 60, 0
3, 24360, Note_on_c, 0, 62, 35
3, 24480, Note_on_c, 0, 62, 0
3, 24480, Note_on_c, 0, 55, 43
3, 24600, Note_on_c, 0, 55, 0
3, 24600, Note_on_c, 0, 62, 28
3, 24720, Note_on_c, 0, 62, 0
3, 24720, Note_on_c, 0, 59, 32
3, 24840, Note_on_c, 0, 59, 0
3, 24840, Note_on_c, 0, 62, 28
3, 24960, Note_on_c, 0, 62, 0
3, 24960, Note_on_c, 0, 55, 40
3, 25080, Note_on_c, 0, 55, 0
3, 25080, Note_on_c, 0, 62, 29
3, 25200, Note_on_c, 0, 62, 0
3, 25200, Note_on_c, 0, 59, 39
3, 25320, Note_on_c, 0, 59, 0
3, 25320, Note_on_c, 0, 62, 36
3, 25440, Note_on_c, 0, 62, 0
3, 25440, Note_on_c, 0, 55, 48
3, 25560, Note_on_c, 0, 55, 0
3, 25560, Note_on_c, 0, 62, 38
3, 25680, Note_on_c, 0, 62, 0
3, 25680, Note_on_c, 0, 59, 48
3, 25800, Note_on_c, 0, 59, 0
3, 25800, Note_on_c, 0, 62, 45
3, 25920, Note_on_c, 0, 62, 0
3, 25920, Note_on_c, 0, 55, 53
3, 26040, Note_on_c, 0, 55, 0
3, 26040, Note_on_c, 0, 64, 37
3, 26160, Note_on_c, 0, 64, 0
3, 26160, Note_on_c, 0, 60, 47
3, 26280, Note_on_c, 0, 60, 0
3, 26280, Note_on_c, 0, 64, 41
3, 26400, Note_on_c, 0, 64, 0
3, 26400, Note_on_c, 0, 55, 44
3, 26520, Note_on_c, 0, 55, 0
3, 26520, Note_on_c, 0, 64, 34
3, 26640, Note_on_c, 0, 64, 0
3, 26640, Note_on_c, 0, 60, 39
3, 26760, Note_on_c, 0, 60, 0
3, 26760, Note_on_c, 0, 64, 34
3, 26880, Note_on_c, 0, 64, 0
3, 26880, Note_on_c, 0, 55, 40
3, 27000, Note_on_c, 0, 55, 0
3, 27000, Note_on_c, 0, 61, 26
3, 27120, Note_on_c, 0, 61, 0
3, 27120, Note_on_c, 0, 58, 34
3, 27240, Note_on_c, 0, 58, 0
3, 27240, Note_on_c, 0, 61, 27
3, 27360, Note_on_c, 0, 61, 0
3, 27360, Note_on_c, 0, 55, 40
3, 27480, Note_on_c, 0, 55, 0
3, 27480, Note_on_c, 0, 62, 26
3, 27600, Note_on_c, 0, 62, 0
3, 27600, Note_on_c, 0, 59, 31
3, 27720, Note_on_c, 0, 59, 0
3, 27720, Note_on_c, 0, 62, 27
3, 27840, Note_on_c, 0, 62, 0
3, 27840, Note_on_c, 0, 55, 40
3, 27960, Note_on_c, 0, 55, 0
3, 27960, Note_on_c, 0, 62, 26
3, 28080, Note_on_c, 0, 62, 0
3, 28080, Note_on_c, 0, 59, 30
3, 28200, Note_on_c, 0, 59, 0
3, 28200, Note_on_c, 0, 62, 27
3, 28320, Note_on_c, 0, 62, 0
3, 28320, Note_on_c, 0, 55, 41
3, 28440, Note_on_c, 0, 55, 0
3, 28440, Note_on_c, 0, 62, 25
3, 28560, Note_on_c, 0, 62, 0
3, 28560, Note_on_c, 0, 59, 30
3, 28680, Note_on_c, 0, 59, 0
3, 28680, Note_on_c, 0, 62, 25
3, 28800, Note_on_c, 0, 62, 0
3, 28800, Note_on_c, 0, 57, 40
3, 28920, Note_on_c, 0, 57, 0
3, 28920, Note_on_c, 0, 62, 27
3, 29040, Note_on_c, 0, 62, 0
3, 29040, Note_on_c, 0, 60, 32
3, 29160, Note_on_c, 0, 60, 0
3, 29160, Note_on_c, 0, 62, 27
3, 29280, Note_on_c, 0, 62, 0
3, 29280, Note_on_c, 0, 57, 40
3, 29400, Note_on_c, 0, 57, 0
3, 29400, Note_on_c, 0, 62, 30
3, 29520, Note_on_c, 0, 62, 0
3, 29520, Note_on_c, 0, 60, 33
3, 29640, Note_on_c, 0, 60, 0
3, 29640, Note_on_c, 0, 62, 28
3, 29760, Note_on_c, 0, 62, 0
3, 29760, Note_on_c, 0, 57, 44
3, 29880, Note_on_c, 0, 57, 0
3, 29880, Note_on_c, 0, 62, 33
3, 30000, Note_on_c, 0, 62, 0
3, 30000, Note_on_c, 0, 60, 40
3, 30120, Note_on_c, 0, 60, 0
3, 30120, Note_on_c, 0, 62, 33
3, 30240, Note_on_c, 0, 62, 0
3, 30240, Note_on_c, 0, 55, 46
3, 30360, Note_on_c, 0, 55, 0
3, 30360, Note_on_c, 0, 62, 33
3, 30480, Note_on_c, 0, 62, 0
3, 30480, Note_on_c, 0, 59, 40
3, 30600, Note_on_c, 0, 59, 0
3, 30600, Note_on_c, 0, 62, 37
3, 30720, Note_on_c, 0, 62, 0
3, 30720, Note_on_c, 0, 52, 46
3, 30840, Note_on_c, 0, 52, 0
3, 30840, Note_on_c, 0, 59, 38
3, 30960, Note_on_c, 0, 59, 0
3, 30960, Note_on_c, 0, 55, 42
3, 31080, Note_on_c, 0, 55, 0
3, 31080, Note_on_c, 0, 59, 38
3, 31200, Note_on_c, 0, 59, 0
3, 31200, Note_on_c, 0, 47, 53
3, 31320, Note_on_c, 0, 47, 0
3, 31320, Note_on_c, 0, 55, 44
3, 31440, Note_on_c, 0, 55, 0
3, 31440, Note_on_c, 0, 50, 48
3, 31560, Note_on_c, 0, 50, 0
3, 31560, Note_on_c, 0, 55, 39
3, 31680, Note_on_c, 0, 55, 0
3, 31680, Note_on_c, 0, 52, 58
3, 31680, Note_on_c, 0, 48, 49
3, 32160, Note_on_c, 0, 52, 0
3, 32160, Note_on_c, 0, 55, 34
3, 32640, Note_on_c, 0, 48, 0
3, 32640, Note_on_c, 0, 52, 34
3, 33120, Note_on_c, 0, 52, 0
3, 33120, Note_on_c, 0, 55, 0
3, 33120, Note_on_c, 0, 50, 36
3, 33120, Note_on_c, 0, 55, 36
3, 33600, Note_on_c, 0, 55, 0
3, 33600, Note_on_c, 0, 54, 28
3, 34080, Note_on_c, 0, 54, 0
3, 34080, Note_on_c, 0, 50, 0
3, 34560, Note_on_c, 0, 55, 40
3, 34680, Note_on_c, 0, 55, 0
3, 34680, Note_on_c, 0, 62, 25
3, 34800, Note_on_c, 0, 62, 0
3, 34800, Note_on_c, 0, 59, 31
3, 34920, Note_on_c, 0, 59, 0
3, 34920, Note_on_c, 0, 62, 26
3, 35040, Note_on_c, 0, 62, 0
3, 35040, Note_on_c, 0, 55, 40
3, 35160, Note_on_c, 0, 55, 0
3, 35160, Note_on_c, 0, 62, 27
3, 35280, Note_on_c, 0, 62, 0
3, 35280, Note_on_c, 0, 59, 31
3, 35400, Note_on_c, 0, 59, 0
3, 35400, Note_on_c, 0, 62, 26
3, 35520, Note_on_c, 0, 62, 0
3, 35520, Note_on_c, 0, 57, 40
3, 35640, Note_on_c, 0, 57, 0
3, 35640, Note_on_c, 0, 62, 31
3, 35760, Note_on_c, 0, 62, 0
3, 35760, Note_on_c, 0, 60, 36
3, 35880, Note_on_c, 0, 60, 0
3, 35880, Note_on_c, 0, 62, 30
3, 36000, Note_on_c, 0, 62, 0
3, 36000, Note_on_c, 0, 55, 40
3, 36120, Note_on_c, 0, 55, 0
3, 36120, Note_on_c, 0, 62, 28
3, 36240, Note_on_c, 0, 62, 0
3, 36240, Note_on_c, 0, 59, 32
3, 36360, Note_on_c, 0, 59, 0
3, 36360, Note_on_c, 0, 62, 28
3, 36480, Note_on_c, 0, 62, 0
3, 36480, Note_on_c, 0, 55, 40
3, 36600, Note_on_c, 0, 55, 0
3, 36600, Note_on_c, 0, 62, 33
3, 36720, Note_on_c, 0, 62, 0
3, 36720, Note_on_c, 0, 59, 37
3, 36840, Note_on_c, 0, 59, 0
3, 36840, Note_on_c, 0, 62, 30
3, 36960, Note_on_c, 0, 62, 0
3, 36960, Note_on_c, 0, 55, 47
3, 37080, Note_on_c, 0, 55, 0
3, 37080, Note_on_c, 0, 62, 38
3, 37200, Note_on_c, 0, 62, 0
3, 37200, Note_on_c, 0, 59, 44
3, 37320, Note_on_c, 0, 59, 0
3, 37320, Note_on_c, 0, 62, 42
3, 37440, Note_on_c, 0, 62, 0
3, 37440, Note_on_c, 0, 55, 43
3, 37560, Note_on_c, 0, 55, 0
3, 37560, Note_on_c, 0, 64, 34
3, 37680, Note_on_c, 0, 64, 0
3, 37680, Note_on_c, 0, 60, 38
3, 37800, Note_on_c, 0, 60, 0
3, 37800, Note_on_c, 0, 64, 34
3, 37920, Note_on_c, 0, 64, 0
3, 37920, Note_on_c, 0, 55, 44
3, 38040, Note_on_c, 0, 55, 0
3, 38040, Note_on_c, 0, 64, 34
3, 38160, Note_on_c, 0, 64, 0
3, 38160, Note_on_c, 0, 60, 39
3, 38280, Note_on_c, 0, 60, 0
3, 38280, Note_on_c, 0, 64, 34
3, 38400, Note_on_c, 0, 64, 0
3, 38400, Note_on_c, 0, 55, 40
3, 38520, Note_on_c, 0, 55, 0
3, 38520, Note_on_c, 0, 61, 26
3, 38640, Note_on_c, 0, 61, 0
3, 38640, Note_on_c, 0, 58, 34
3, 38760, Note_on_c, 0, 58, 0
3, 38760, Note_on_c, 0, 61, 27
3, 38880, Note_on_c, 0, 61, 0
3, 38880, Note_on_c, 0, 55, 40
3, 39000, Note_on_c, 0, 55, 0
3, 39000, Note_on_c, 0, 62, 24
3, 39120, Note_on_c, 0, 62, 0
3, 39120, Note_on_c, 0, 59, 31
3, 39240, Note_on_c, 0, 59, 0
3, 39240, Note_on_c, 0, 62, 27
3, 39360, Note_on_c, 0, 62, 0
3, 39360, Note_on_c, 0, 55, 40
3, 39480, Note_on_c, 0, 55, 0
3, 39480, Note_on_c, 0, 62, 26
3, 39600, Note_on_c, 0, 62, 0
3, 39600, Note_on_c, 0, 59, 33
3, 39720, Note_on_c, 0, 59, 0
3, 39720, Note_on_c, 0, 62, 27
3, 39840, Note_on_c, 0, 62, 0
3, 39840, Note_on_c, 0, 55, 41
3, 39960, Note_on_c, 0, 55, 0
3, 39960, Note_on_c, 0, 62, 30
3, 40080, Note_on_c, 0, 62, 0
3, 40080, Note_on_c, 0, 59, 33
3, 40200, Note_on_c, 0, 59, 0
3, 40200, Note_on_c, 0, 62, 29
3, 40320, Note_on_c, 0, 62, 0
3, 40320, Note_on_c, 0, 57, 40
3, 40440, Note_on_c, 0, 57, 0
3, 40440, Note_on_c, 0, 62, 27
3, 40560, Note_on_c, 0, 62, 0
3, 40560, Note_on_c, 0, 60, 32
3, 40680, Note_on_c, 0, 60, 0
3, 40680, Note_on_c, 0, 62, 27
3, 40800, Note_on_c, 0, 62, 0
3, 40800, Note_on_c, 0, 57, 40
3, 40920, Note_on_c, 0, 57, 0
3, 40920, Note_on_c, 0, 62, 30
3, 41040, Note_on_c, 0, 62, 0
3, 41040, Note_on_c, 0, 60, 33
3, 41160, Note_on_c, 0, 60, 0
3, 41160, Note_on_c, 0, 62, 28
3, 41280, Note_on_c, 0, 62, 0
3, 41280, Note_on_c, 0, 57, 40
3, 41400, Note_on_c, 0, 57, 0
3, 41400, Note_on_c, 0, 62, 31
3, 41520, Note_on_c, 0, 62, 0
3, 41520, Note_on_c, 0, 60, 38
3, 41640, Note_on_c, 0, 60, 0
3, 41640, Note_on_c, 0, 62, 33
3, 41760, Note_on_c, 0, 62, 0
3, 41760, Note_on_c, 0, 55, 40
3, 41880, Note_on_c, 0, 55, 0
3, 41880, Note_on_c, 0, 62, 38
3, 42000, Note_on_c, 0, 62, 0
3, 42000, Note_on_c, 0, 59, 42
3, 42120, Note_on_c, 0, 59, 0
3, 42120, Note_on_c, 0, 62, 35
3, 42240, Note_on_c, 0, 62, 0
3, 42240, Note_on_c, 0, 52, 51
3, 42360, Note_on_c, 0, 52, 0
3, 42360, Note_on_c, 0, 59, 46
3, 42480, Note_on_c, 0, 59, 0
3, 42480, Note_on_c, 0, 55, 50
3, 42600, Note_on_c, 0, 55, 0
3, 42600, Note_on_c, 0, 59, 47
3, 42720, Note_on_c, 0, 59, 0
3, 42720, Note_on_c, 0, 47, 54
3, 42840, Note_on_c, 0, 47, 0
3, 42840, Note_on_c, 0, 55, 42
3, 42960, Note_on_c, 0, 55, 0
3, 42960, Note_on_c, 0, 50, 47
3, 43080, Note_on_c, 0, 50, 0
3, 43080, Note_on_c, 0, 55, 34
3, 43200, Note_on_c, 0, 55, 0
3, 43200, Note_on_c, 0, 48, 40
3, 43320, Note_on_c, 0, 48, 0
3, 43320, Note_on_c, 0, 57, 26
3, 43440, Note_on_c, 0, 57, 0
3, 43440, Note_on_c, 0, 52, 33
3, 43560, Note_on_c, 0, 52, 0
3, 43560, Note_on_c, 0, 57, 29
3, 43680, Note_on_c, 0, 57, 0
3, 43680, Note_on_c, 0, 50, 39
3, 43800, Note_on_c, 0, 50, 0
3, 43800, Note_on_c, 0, 59, 27
3, 43920, Note_on_c, 0, 59, 0
3, 43920, Note_on_c, 0, 55, 33
3, 44040, Note_on_c, 0, 55, 0
3, 44040, Note_on_c, 0, 59, 28
3, 44160, Note_on_c, 0, 59, 0
3, 44160, Note_on_c, 0, 50, 39
3, 44280, Note_on_c, 0, 50, 0
3, 44280, Note_on_c, 0, 60, 27
3, 44400, Note_on_c, 0, 60, 0
3, 44400, Note_on_c, 0, 57, 32
3, 44520, Note_on_c, 0, 57, 0
3, 44520, Note_on_c, 0, 60, 27
3, 44633, Note_on_c, 0, 60, 0
3, 44640, Note_on_c, 0, 55, 27
3, 44640, Note_on_c, 0, 60, 36
3, 45120, Note_on_c, 0, 60, 0
3, 45120, Note_on_c, 0, 59, 28
3, 45600, Note_on_c, 0, 59, 0
3, 45600, Note_on_c, 0, 55, 0
3, 46080, Note_on_c, 0, 62, 40
3, 46200, Note_on_c, 0, 62, 0
3, 46200, Note_on_c, 0, 69, 25
3, 46320, Note_on_c, 0, 69, 0
3, 46320, Note_on_c, 0, 66, 31
3, 46440, Note_on_c, 0, 66, 0
3, 46440, Note_on_c, 0, 69, 26
3, 46560, Note_on_c, 0, 69, 0
3, 46560, Note_on_c, 0, 62, 40
3, 46680, Note_on_c, 0, 62, 0
3, 46680, Note_on_c, 0, 69, 27
3, 46800, Note_on_c, 0, 69, 0
3, 46800, Note_on_c, 0, 66, 31
3, 46920, Note_on_c, 0, 66, 0
3, 46926, Note_on_c, 0, 69, 26
3, 47040, Note_on_c, 0, 62, 40
3, 47046, Note_on_c, 0, 69, 0
3, 47160, Note_on_c, 0, 62, 0
3, 47160, Note_on_c, 0, 69, 26
3, 47280, Note_on_c, 0, 69, 0
3, 47280, Note_on_c, 0, 66, 32
3, 47400, Note_on_c, 0, 66, 0
3, 47400, Note_on_c, 0, 69, 27
3, 47520, Note_on_c, 0, 69, 0
3, 47520, Note_on_c, 0, 64, 40
3, 47640, Note_on_c, 0, 64, 0
3, 47640, Note_on_c, 0, 69, 28
3, 47760, Note_on_c, 0, 69, 0
3, 47760, Note_on_c, 0, 67, 32
3, 47880, Note_on_c, 0, 67, 0
3, 47880, Note_on_c, 0, 69, 28
3, 48000, Note_on_c, 0, 69, 0
3, 48000, Note_on_c, 0, 64, 36
3, 48120, Note_on_c, 0, 64, 0
3, 48120, Note_on_c, 0, 69, 28
3, 48240, Note_on_c, 0, 69, 0
3, 48240, Note_on_c, 0, 67, 37
3, 48360, Note_on_c, 0, 67, 0
3, 48360, Note_on_c, 0, 69, 29
3, 48480, Note_on_c, 0, 69, 0
3, 48480, Note_on_c, 0, 64, 41
3, 48600, Note_on_c, 0, 64, 0
3, 48600, Note_on_c, 0, 69, 36
3, 48720, Note_on_c, 0, 69, 0
3, 48720, Note_on_c, 0, 67, 38
3, 48840, Note_on_c, 0, 67, 0
3, 48840, Note_on_c, 0, 69, 29
3, 48960, Note_on_c, 0, 69, 0
3, 48960, Note_on_c, 0, 61, 42
3, 49080, Note_on_c, 0, 61, 0
3, 49080, Note_on_c, 0, 69, 26
3, 49200, Note_on_c, 0, 69, 0
3, 49200, Note_on_c, 0, 67, 32
3, 49320, Note_on_c, 0, 67, 0
3, 49320, Note_on_c, 0, 69, 27
3, 49440, Note_on_c, 0, 69, 0
3, 49440, Note_on_c, 0, 61, 42
3, 49560, Note_on_c, 0, 61, 0
3, 49560, Note_on_c, 0, 69, 28
3, 49680, Note_on_c, 0, 69, 0
3, 49680, Note_on_c, 0, 67, 32
3, 49800, Note_on_c, 0, 67, 0
3, 49806, Note_on_c, 0, 69, 27
3, 49920, Note_on_c, 0, 61, 42
3, 49926, Note_on_c, 0, 69, 0
3, 50040, Note_on_c, 0, 61, 0
3, 50040, Note_on_c, 0, 69, 27
3, 50160, Note_on_c, 0, 69, 0
3, 50160, Note_on_c, 0, 67, 33
3, 50280, Note_on_c, 0, 67, 0
3, 50280, Note_on_c, 0, 69, 28
3, 50400, Note_on_c, 0, 69, 0
3, 50400, Note_on_c, 0, 62, 42
3, 50520, Note_on_c, 0, 62, 0
3, 50520, Note_on_c, 0, 69, 29
3, 50640, Note_on_c, 0, 69, 0
3, 50640, Note_on_c, 0, 66, 33
3, 50760, Note_on_c, 0, 66, 0
3, 50760, Note_on_c, 0, 69, 29
3, 50880, Note_on_c, 0, 69, 0
3, 50880, Note_on_c, 0, 61, 46
3, 51000, Note_on_c, 0, 61, 0
3, 51000, Note_on_c, 0, 69, 36
3, 51120, Note_on_c, 0, 69, 0
3, 51120, Note_on_c, 0, 62, 42
3, 51240, Note_on_c, 0, 62, 0
3, 51240, Note_on_c, 0, 69, 38
3, 51360, Note_on_c, 0, 69, 0
3, 51360, Note_on_c, 0, 59, 46
3, 51480, Note_on_c, 0, 59, 0
3, 51480, Note_on_c, 0, 67, 44
3, 51600, Note_on_c, 0, 67, 0
3, 51600, Note_on_c, 0, 62, 49
3, 51720, Note_on_c, 0, 62, 0
3, 51720, Note_on_c, 0, 67, 45
3, 51840, Note_on_c, 0, 67, 0
3, 51840, Note_on_c, 0, 57, 51
3, 51960, Note_on_c, 0, 57, 0
3, 51960, Note_on_c, 0, 66, 44
3, 52080, Note_on_c, 0, 66, 0
3, 52080, Note_on_c, 0, 62, 47
3, 52200, Note_on_c, 0, 62, 0
3, 52200, Note_on_c, 0, 66, 40
3, 52320, Note_on_c, 0, 66, 0
3, 52320, Note_on_c, 0, 55, 50
3, 52440, Note_on_c, 0, 55, 0
3, 52440, Note_on_c, 0, 64, 41
3, 52560, Note_on_c, 0, 64, 0
3, 52560, Note_on_c, 0, 61, 49
3, 52680, Note_on_c, 0, 61, 0
3, 52680, Note_on_c, 0, 64, 41
3, 52800, Note_on_c, 0, 64, 0
3, 52800, Note_on_c, 0, 54, 46
3, 52920, Note_on_c, 0, 54, 0
3, 52920, Note_on_c, 0, 62, 33
3, 53040, Note_on_c, 0, 62, 0
3, 53040, Note_on_c, 0, 59, 42
3, 53160, Note_on_c, 0, 59, 0
3, 53160, Note_on_c, 0, 62, 34
3, 53280, Note_on_c, 0, 62, 0
3, 53280, Note_on_c, 0, 59, 46
3, 53400, Note_on_c, 0, 59, 0
3, 53400, Note_on_c, 0, 67, 33
3, 53520, Note_on_c, 0, 67, 0
3, 53520, Note_on_c, 0, 64, 41
3, 53640, Note_on_c, 0, 64, 0
3, 53640, Note_on_c, 0, 67, 32
3, 53760, Note_on_c, 0, 67, 0
3, 53760, Note_on_c, 0, 57, 40
3, 53880, Note_on_c, 0, 57, 0
3, 53880, Note_on_c, 0, 66, 30
3, 54000, Note_on_c, 0, 66, 0
3, 54000, Note_on_c, 0, 63, 40
3, 54120, Note_on_c, 0, 63, 0
3, 54120, Note_on_c, 0, 66, 30
3, 54240, Note_on_c, 0, 66, 0
3, 54240, Note_on_c, 0, 55, 42
3, 54360, Note_on_c, 0, 55, 0
3, 54360, Note_on_c, 0, 64, 29
3, 54480, Note_on_c, 0, 64, 0
3, 54480, Note_on_c, 0, 60, 35
3, 54600, Note_on_c, 0, 60, 0
3, 54600, Note_on_c, 0, 64, 30
3, 54720, Note_on_c, 0, 64, 0
3, 54720, Note_on_c, 0, 57, 40
3, 54840, Note_on_c, 0, 57, 0
3, 54840, Note_on_c, 0, 66, 26
3, 54960, Note_on_c, 0, 66, 0
3, 54960, Note_on_c, 0, 62, 33
3, 55080, Note_on_c, 0, 62, 0
3, 55080, Note_on_c, 0, 66, 29
3, 55200, Note_on_c, 0, 66, 0
3, 55200, Note_on_c, 0, 57, 39
3, 55320, Note_on_c, 0, 57, 0
3, 55320, Note_on_c, 0, 66, 29
3, 55440, Note_on_c, 0, 66, 0
3, 55440, Note_on_c, 0, 62, 37
3, 55560, Note_on_c, 0, 62, 0
3, 55560, Note_on_c, 0, 66, 29
3, 55680, Note_on_c, 0, 66, 0
3, 55680, Note_on_c, 0, 57, 39
3, 55800, Note_on_c, 0, 57, 0
3, 55800, Note_on_c, 0, 67, 30
3, 55920, Note_on_c, 0, 67, 0
3, 55920, Note_on_c, 0, 64, 36
3, 56040, Note_on_c, 0, 64, 0
3, 56040, Note_on_c, 0, 67, 29
3, 56155, Note_on_c, 0, 67, 0
3, 56160, Note_on_c, 0, 62, 34
3, 56160, Note_on_c, 0, 67, 40
3, 56640, Note_on_c, 0, 67, 0
3, 56640, Note_on_c, 0, 66, 28
3, 57120, Note_on_c, 0, 66, 0
3, 57120, Note_on_c, 0, 62, 0
3, 57600, Note_on_c, 0, 55, 35
3, 57720, Note_on_c, 0, 55, 0
3, 57720, Note_on_c, 0, 62, 23
3, 57840, Note_on_c, 0, 62, 0
3, 57840, Note_on_c, 0, 59, 31
3, 57960, Note_on_c, 0, 59, 0
3, 57960, Note_on_c, 0, 62, 23
3, 58080, Note_on_c, 0, 62, 0
3, 58080, Note_on_c, 0, 55, 40
3, 58200, Note_on_c, 0, 55, 0
3, 58200, Note_on_c, 0, 62, 26
3, 58320, Note_on_c, 0, 62, 0
3, 58320, Note_on_c, 0, 59, 32
3, 58440, Note_on_c, 0, 59, 0
3, 58440, Note_on_c, 0, 62, 26
3, 58560, Note_on_c, 0, 62, 0
3, 58560, Note_on_c, 0, 57, 40
3, 58680, Note_on_c, 0, 57, 0
3, 58680, Note_on_c, 0, 62, 26
3, 58800, Note_on_c, 0, 62, 0
3, 58800, Note_on_c, 0, 60, 32
3, 58920, Note_on_c, 0, 60, 0
3, 58920, Note_on_c, 0, 62, 27
3, 59040, Note_on_c, 0, 62, 0
3, 59040, Note_on_c, 0, 55, 40
3, 59160, Note_on_c, 0, 55, 0
3, 59160, Note_on_c, 0, 62, 28
3, 59280, Note_on_c, 0, 62, 0
3, 59280, Note_on_c, 0, 59, 32
3, 59400, Note_on_c, 0, 59, 0
3, 59400, Note_on_c, 0, 62, 28
3, 59520, Note_on_c, 0, 62, 0
3, 59520, Note_on_c, 0, 55, 40
3, 59640, Note_on_c, 0, 55, 0
3, 59640, Note_on_c, 0, 62, 29
3, 59760, Note_on_c, 0, 62, 0
3, 59760, Note_on_c, 0, 59, 33
3, 59880, Note_on_c, 0, 59, 0
3, 59880, Note_on_c, 0, 62, 30
3, 60000, Note_on_c, 0, 62, 0
3, 60000, Note_on_c, 0, 55, 41
3, 60120, Note_on_c, 0, 55, 0
3, 60120, Note_on_c, 0, 62, 30
3, 60240, Note_on_c, 0, 62, 0
3, 60240, Note_on_c, 0, 59, 33
3, 60360, Note_on_c, 0, 59, 0
3, 60360, Note_on_c, 0, 62, 29
3, 60480, Note_on_c, 0, 62, 0
3, 60480, Note_on_c, 0, 55, 43
3, 60600, Note_on_c, 0, 55, 0
3, 60600, Note_on_c, 0, 64, 29
3, 60720, Note_on_c, 0, 64, 0
3, 60720, Note_on_c, 0, 60, 34
3, 60840, Note_on_c, 0, 60, 0
3, 60840, Note_on_c, 0, 64, 30
3, 60960, Note_on_c, 0, 64, 0
3, 60960, Note_on_c, 0, 55, 44
3, 61080, Note_on_c, 0, 55, 0
3, 61080, Note_on_c, 0, 64, 34
3, 61200, Note_on_c, 0, 64, 0
3, 61200, Note_on_c, 0, 60, 39
3, 61320, Note_on_c, 0, 60, 0
3, 61320, Note_on_c, 0, 64, 34
3, 61440, Note_on_c, 0, 64, 0
3, 61440, Note_on_c, 0, 55, 40
3, 61560, Note_on_c, 0, 55, 0
3, 61560, Note_on_c, 0, 61, 26
3, 61680, Note_on_c, 0, 61, 0
3, 61680, Note_on_c, 0, 58, 34
3, 61800, Note_on_c, 0, 58, 0
3, 61800, Note_on_c, 0, 61, 27
3, 61920, Note_on_c, 0, 61, 0
3, 61920, Note_on_c, 0, 55, 40
3, 62040, Note_on_c, 0, 55, 0
3, 62040, Note_on_c, 0, 62, 24
3, 62160, Note_on_c, 0, 62, 0
3, 62160, Note_on_c, 0, 59, 31
3, 62280, Note_on_c, 0, 59, 0
3, 62280, Note_on_c, 0, 62, 27
3, 62400, Note_on_c, 0, 62, 0
3, 62400, Note_on_c, 0, 55, 40
3, 62520, Note_on_c, 0, 55, 0
3, 62520, Note_on_c, 0, 62, 26
3, 62640, Note_on_c, 0, 62, 0
3, 62640, Note_on_c, 0, 59, 33
3, 62760, Note_on_c, 0, 59, 0
3, 62760, Note_on_c, 0, 62, 27
3, 62880, Note_on_c, 0, 62, 0
3, 62880, Note_on_c, 0, 55, 41
3, 63000, Note_on_c, 0, 55, 0
3, 63000, Note_on_c, 0, 62, 30
3, 63120, Note_on_c, 0, 62, 0
3, 63120, Note_on_c, 0, 59, 33
3, 63240, Note_on_c, 0, 59, 0
3, 63240, Note_on_c, 0, 62, 29
3, 63360, Note_on_c, 0, 62, 0
3, 63360, Note_on_c, 0, 57, 40
3, 63480, Note_on_c, 0, 57, 0
3, 63480, Note_on_c, 0, 62, 27
3, 63600, Note_on_c, 0, 62, 0
3, 63600, Note_on_c, 0, 60, 32
3, 63720, Note_on_c, 0, 60, 0
3, 63720, Note_on_c, 0, 62, 27
3, 63840, Note_on_c, 0, 62, 0
3, 63840, Note_on_c, 0, 57, 40
3, 63960, Note_on_c, 0, 57, 0
3, 63960, Note_on_c, 0, 62, 30
3, 64080, Note_on_c, 0, 62, 0
3, 64080, Note_on_c, 0, 60, 33
3, 64200, Note_on_c, 0, 60, 0
3, 64200, Note_on_c, 0, 62, 28
3, 64320, Note_on_c, 0, 62, 0
3, 64320, Note_on_c, 0, 57, 40
3, 64440, Note_on_c, 0, 57, 0
3, 64440, Note_on_c, 0, 62, 26
3, 64560, Note_on_c, 0, 62, 0
3, 64560, Note_on_c, 0, 60, 34
3, 64680, Note_on_c, 0, 60, 0
3, 64680, Note_on_c, 0, 62, 27
3, 64800, Note_on_c, 0, 62, 0
3, 64800, Note_on_c, 0, 55, 40
3, 64920, Note_on_c, 0, 55, 0
3, 64920, Note_on_c, 0, 62, 28
3, 65040, Note_on_c, 0, 62, 0
3, 65040, Note_on_c, 0, 59, 36
3, 65160, Note_on_c, 0, 59, 0
3, 65160, Note_on_c, 0, 62, 33
3, 65280, Note_on_c, 0, 62, 0
3, 65280, Note_on_c, 0, 52, 46
3, 65400, Note_on_c, 0, 52, 0
3, 65400, Note_on_c, 0, 59, 42
3, 65520, Note_on_c, 0, 59, 0
3, 65520, Note_on_c, 0, 55, 48
3, 65640, Note_on_c, 0, 55, 0
3, 65640, Note_on_c, 0, 59, 44
3, 65760, Note_on_c, 0, 59, 0
3, 65760, Note_on_c, 0, 47, 51
3, 65880, Note_on_c, 0, 47, 0
3, 65880, Note_on_c, 0, 55, 39
3, 66000, Note_on_c, 0, 55, 0
3, 66000, Note_on_c, 0, 50, 47
3, 66120, Note_on_c, 0, 50, 0
3, 66120, Note_on_c, 0, 55, 34
3, 66240, Note_on_c, 0, 55, 0
3, 66240, Note_on_c, 0, 48, 40
3, 66360, Note_on_c, 0, 48, 0
3, 66360, Note_on_c, 0, 57, 26
3, 66480, Note_on_c, 0, 57, 0
3, 66480, Note_on_c, 0, 52, 33
3, 66600, Note_on_c, 0, 52, 0
3, 66600, Note_on_c, 0, 57, 25
3, 66720, Note_on_c, 0, 57, 0
3, 66720, Note_on_c, 0, 50, 39
3, 66840, Note_on_c, 0, 50, 0
3, 66840, Note_on_c, 0, 59, 27
3, 66960, Note_on_c, 0, 59, 0
3, 66960, Note_on_c, 0, 55, 32
3, 67080, Note_on_c, 0, 55, 0
3, 67080, Note_on_c, 0, 59, 27
3, 67200, Note_on_c, 0, 59, 0
3, 67200, Note_on_c, 0, 50, 39
3, 67320, Note_on_c, 0, 50, 0
3, 67320, Note_on_c, 0, 60, 27
3, 67440, Note_on_c, 0, 60, 0
3, 67440, Note_on_c, 0, 57, 33
3, 67560, Note_on_c, 0, 57, 0
3, 67560, Note_on_c, 0, 60, 29
3, 67675, Note_on_c, 0, 60, 0
3, 67680, Note_on_c, 0, 55, 27
3, 67680, Note_on_c, 0, 60, 36
3, 68160, Note_on_c, 0, 60, 0
3, 68160, Note_on_c, 0, 59, 28
3, 68640, Note_on_c, 0, 59, 0
3, 68640, Note_on_c, 0, 55, 0
3, 69120, Note_on_c, 0, 62, 40
3, 69240, Note_on_c, 0, 62, 0
3, 69240, Note_on_c, 0, 69, 25
3, 69360, Note_on_c, 0, 69, 0
3, 69360, Note_on_c, 0, 66, 31
3, 69480, Note_on_c, 0, 66, 0
3, 69480, Note_on_c, 0, 69, 26
3, 69600, Note_on_c, 0, 69, 0
3, 69600, Note_on_c, 0, 62, 40
3, 69720, Note_on_c, 0, 62, 0
3, 69720, Note_on_c, 0, 69, 27
3, 69840, Note_on_c, 0, 69, 0
3, 69840, Note_on_c, 0, 66, 31
3, 69960, Note_on_c, 0, 66, 0
3, 69966, Note_on_c, 0, 69, 26
3, 70080, Note_on_c, 0, 62, 40
3, 70086, Note_on_c, 0, 69, 0
3, 70200, Note_on_c, 0, 62, 0
3, 70200, Note_on_c, 0, 69, 26
3, 70320, Note_on_c, 0, 69, 0
3, 70320, Note_on_c, 0, 66, 32
3, 70440, Note_on_c, 0, 66, 0
3, 70440, Note_on_c, 0, 69, 27
3, 70560, Note_on_c, 0, 69, 0
3, 70560, Note_on_c, 0, 64, 40
3, 70680, Note_on_c, 0, 64, 0
3, 70680, Note_on_c, 0, 69, 28
3, 70800, Note_on_c, 0, 69, 0
3, 70800, Note_on_c, 0, 67, 32
3, 70920, Note_on_c, 0, 67, 0
3, 70920, Note_on_c, 0, 69, 28
3, 71040, Note_on_c, 0, 69, 0
3, 71040, Note_on_c, 0, 64, 36
3, 71160, Note_on_c, 0, 64, 0
3, 71160, Note_on_c, 0, 69, 28
3, 71280, Note_on_c, 0, 69, 0
3, 71280, Note_on_c, 0, 67, 37
3, 71400, Note_on_c, 0, 67, 0
3, 71400, Note_on_c, 0, 69, 29
3, 71520, Note_on_c, 0, 69, 0
3, 71520, Note_on_c, 0, 64, 41
3, 71640, Note_on_c, 0, 64, 0
3, 71640, Note_on_c, 0, 69, 36
3, 71760, Note_on_c, 0, 69, 0
3, 71760, Note_on_c, 0, 67, 38
3, 71880, Note_on_c, 0, 67, 0
3, 71880, Note_on_c, 0, 69, 29
3, 72000, Note_on_c, 0, 69, 0
3, 72000, Note_on_c, 0, 61, 42
3, 72120, Note_on_c, 0, 61, 0
3, 72120, Note_on_c, 0, 69, 26
3, 72240, Note_on_c, 0, 69, 0
3, 72240, Note_on_c, 0, 67, 32
3, 72360, Note_on_c, 0, 67, 0
3, 72360, Note_on_c, 0, 69, 27
3, 72480, Note_on_c, 0, 69, 0
3, 72480, Note_on_c, 0, 61, 42
3, 72600, Note_on_c, 0, 61, 0
3, 72600, Note_on_c, 0, 69, 28
3, 72720, Note_on_c, 0, 69, 0
3, 72720, Note_on_c, 0, 67, 32
3, 72840, Note_on_c, 0, 67, 0
3, 72846, Note_on_c, 0, 69, 27
3, 72960, Note_on_c, 0, 61, 42
3, 72966, Note_on_c, 0, 69, 0
3, 73080, Note_on_c, 0, 61, 0
3, 73080, Note_on_c, 0, 69, 27
3, 73200, Note_on_c, 0, 69, 0
3, 73200, Note_on_c, 0, 67, 33
3, 73320, Note_on_c, 0, 67, 0
3, 73320, Note_on_c, 0, 69, 28
3, 73440, Note_on_c, 0, 69, 0
3, 73440, Note_on_c, 0, 62, 42
3, 73560, Note_on_c, 0, 62, 0
3, 73560, Note_on_c, 0, 69, 29
3, 73680, Note_on_c, 0, 69, 0
3, 73680, Note_on_c, 0, 66, 33
3, 73800, Note_on_c, 0, 66, 0
3, 73800, Note_on_c, 0, 69, 29
3, 73920, Note_on_c, 0, 69, 0
3, 73920, Note_on_c, 0, 61, 46
3, 74040, Note_on_c, 0, 61, 0
3, 74040, Note_on_c, 0, 69, 36
3, 74160, Note_on_c, 0, 69, 0
3, 74160, Note_on_c, 0, 62, 42
3, 74280, Note_on_c, 0, 62, 0
3, 74280, Note_on_c, 0, 69, 38
3, 74400, Note_on_c, 0, 69, 0
3, 74400, Note_on_c, 0, 59, 46
3, 74520, Note_on_c, 0, 59, 0
3, 74520, Note_on_c, 0, 67, 44
3, 74640, Note_on_c, 0, 67, 0
3, 74640, Note_on_c, 0, 62, 49
3, 74760, Note_on_c, 0, 62, 0
3, 74760, Note_on_c, 0, 67, 45
3, 74880, Note_on_c, 0, 67, 0
3, 74880, Note_on_c, 0, 57, 51
3, 75000, Note_on_c, 0, 57, 0
3, 75000, Note_on_c, 0, 66, 44
3, 75120, Note_on_c, 0, 66, 0
3, 75120, Note_on_c, 0, 62, 47
3, 75240, Note_on_c, 0, 62, 0
3, 75240, Note_on_c, 0, 66, 40
3, 75360, Note_on_c, 0, 66, 0
3, 75360, Note_on_c, 0, 55, 50
3, 75480, Note_on_c, 0, 55, 0
3, 75480, Note_on_c, 0, 64, 41
3, 75600, Note_on_c, 0, 64, 0
3, 75600, Note_on_c, 0, 61, 49
3, 75720, Note_on_c, 0, 61, 0
3, 75720, Note_on_c, 0, 64, 41
3, 75840, Note_on_c, 0, 64, 0
3, 75840, Note_on_c, 0, 54, 46
3, 75960, Note_on_c, 0, 54, 0
3, 75960, Note_on_c, 0, 62, 33
3, 76080, Note_on_c, 0, 62, 0
3, 76080, Note_on_c, 0, 59, 42
3, 76200, Note_on_c, 0, 59, 0
3, 76200, Note_on_c, 0, 62, 34
3, 76320, Note_on_c, 0, 62, 0
3, 76320, Note_on_c, 0, 59, 46
3, 76440, Note_on_c, 0, 59, 0
3, 76440, Note_on_c, 0, 67, 33
3, 76560, Note_on_c, 0, 67, 0
3, 76560, Note_on_c, 0, 64, 41
3, 76680, Note_on_c, 0, 64, 0
3, 76680, Note_on_c, 0, 67, 32
3, 76800, Note_on_c, 0, 67, 0
3, 76800, Note_on_c, 0, 57, 40
3, 76920, Note_on_c, 0, 57, 0
3, 76920, Note_on_c, 0, 66, 30
3, 77040, Note_on_c, 0, 66, 0
3, 77040, Note_on_c, 0, 63, 40
3, 77160, Note_on_c, 0, 63, 0
3, 77160, Note_on_c, 0, 66, 30
3, 77280, Note_on_c, 0, 66, 0
3, 77280, Note_on_c, 0, 55, 42
3, 77400, Note_on_c, 0, 55, 0
3, 77400, Note_on_c, 0, 64, 29
3, 77520, Note_on_c, 0, 64, 0
3, 77520, Note_on_c, 0, 60, 35
3, 77640, Note_on_c, 0, 60, 0
3, 77640, Note_on_c, 0, 64, 30
3, 77760, Note_on_c, 0, 64, 0
3, 77760, Note_on_c, 0, 57, 40
3, 77880, Note_on_c, 0, 57, 0
3, 77880, Note_on_c, 0, 66, 26
3, 78000, Note_on_c, 0, 66, 0
3, 78000, Note_on_c, 0, 62, 33
3, 78120, Note_on_c, 0, 62, 0
3, 78120, Note_on_c, 0, 66, 29
3, 78240, Note_on_c, 0, 66, 0
3, 78240, Note_on_c, 0, 57, 39
3, 78360, Note_on_c, 0, 57, 0
3, 78360, Note_on_c, 0, 66, 29
3, 78480, Note_on_c, 0, 66, 0
3, 78480, Note_on_c, 0, 62, 37
3, 78600, Note_on_c, 0, 62, 0
3, 78600, Note_on_c, 0, 66, 29
3, 78720, Note_on_c, 0, 66, 0
3, 78720, Note_on_c, 0, 57, 39
3, 78840, Note_on_c, 0, 57, 0
3, 78840, Note_on_c, 0, 67, 30
3, 78960, Note_on_c, 0, 67, 0
3, 78960, Note_on_c, 0, 64, 36
3, 79080, Note_on_c, 0, 64, 0
3, 79080, Note_on_c, 0, 67, 29
3, 79195, Note_on_c, 0, 67, 0
3, 79200, Note_on_c, 0, 67, 40
3, 79200, Note_on_c, 0, 62, 34
3, 79680, Note_on_c, 0, 67, 0
3, 79680, Note_on_c, 0, 66, 28
3, 80160, Note_on_c, 0, 66, 0
3, 80160, Note_on_c, 0, 62, 0
3, 80640, Note_on_c, 0, 55, 35
3, 80760, Note_on_c, 0, 55, 0
3, 80760, Note_on_c, 0, 62, 23
3, 80880, Note_on_c, 0, 62, 0
3, 80880, Note_on_c, 0, 59, 31
3, 81000, Note_on_c, 0, 59, 0
3, 81000, Note_on_c, 0, 62, 23
3, 81120, Note_on_c, 0, 62, 0
3, 81120, Note_on_c, 0, 55, 40
3, 81240, Note_on_c, 0, 55, 0
3, 81240, Note_on_c, 0, 62, 26
3, 81360, Note_on_c, 0, 62, 0
3, 81360, Note_on_c, 0, 59, 32
3, 81480, Note_on_c, 0, 59, 0
3, 81480, Note_on_c, 0, 62, 26
3, 81600, Note_on_c, 0, 62, 0
3, 81600, Note_on_c, 0, 57, 40
3, 81720, Note_on_c, 0, 57, 0
3, 81720, Note_on_c, 0, 62, 26
3, 81840, Note_on_c, 0, 62, 0
3, 81840, Note_on_c, 0, 60, 32
3, 81960, Note_on_c, 0, 60, 0
3, 81960, Note_on_c, 0, 62, 27
3, 82080, Note_on_c, 0, 62, 0
3, 82080, Note_on_c, 0, 55, 40
3, 82200, Note_on_c, 0, 55, 0
3, 82200, Note_on_c, 0, 62, 28
3, 82320, Note_on_c, 0, 62, 0
3, 82320, Note_on_c, 0, 59, 32
3, 82440, Note_on_c, 0, 59, 0
3, 82440, Note_on_c, 0, 62, 28
3, 82560, Note_on_c, 0, 62, 0
3, 82560, Note_on_c, 0, 55, 40
3, 82680, Note_on_c, 0, 55, 0
3, 82680, Note_on_c, 0, 62, 29
3, 82800, Note_on_c, 0, 62, 0
3, 82800, Note_on_c, 0, 59, 33
3, 82920, Note_on_c, 0, 59, 0
3, 82920, Note_on_c, 0, 62, 30
3, 83040, Note_on_c, 0, 62, 0
3, 83040, Note_on_c, 0, 55, 41
3, 83160, Note_on_c, 0, 55, 0
3, 83160, Note_on_c, 0, 62, 30
3, 83280, Note_on_c, 0, 62, 0
3, 83280, Note_on_c, 0, 59, 33
3, 83400, Note_on_c, 0, 59, 0
3, 83400, Note_on_c, 0, 62, 29
3, 83520, Note_on_c, 0, 62, 0
3, 83520, Note_on_c, 0, 55, 43
3, 83640, Note_on_c, 0, 55, 0
3, 83640, Note_on_c, 0, 64, 29
3, 83760, Note_on_c, 0, 64, 0
3, 83760, Note_on_c, 0, 60, 34
3, 83880, Note_on_c, 0, 60, 0
3, 83880, Note_on_c, 0, 64, 30
3, 84000, Note_on_c, 0, 64, 0
3, 84000, Note_on_c, 0, 55, 44
3, 84120, Note_on_c, 0, 55, 0
3, 84120, Note_on_c, 0, 64, 34
3, 84240, Note_on_c, 0, 64, 0
3, 84240, Note_on_c, 0, 60, 39
3, 84360, Note_on_c, 0, 60, 0
3, 84360, Note_on_c, 0, 64, 34
3, 84480, Note_on_c, 0, 64, 0
3, 84480, Note_on_c, 0, 55, 40
3, 84600, Note_on_c, 0, 55, 0
3, 84600, Note_on_c, 0, 61, 26
3, 84720, Note_on_c, 0, 61, 0
3, 84720, Note_on_c, 0, 58, 34
3, 84840, Note_on_c, 0, 58, 0
3, 84840, Note_on_c, 0, 61, 27
3, 84960, Note_on_c, 0, 61, 0
3, 84960, Note_on_c, 0, 55, 40
3, 85080, Note_on_c, 0, 55, 0
3, 85080, Note_on_c, 0, 62, 24
3, 85200, Note_on_c, 0, 62, 0
3, 85200, Note_on_c, 0, 59, 31
3, 85320, Note_on_c, 0, 59, 0
3, 85320, Note_on_c, 0, 62, 27
3, 85440, Note_on_c, 0, 62, 0
3, 85440, Note_on_c, 0, 55, 40
3, 85560, Note_on_c, 0, 55, 0
3, 85560, Note_on_c, 0, 62, 26
3, 85680, Note_on_c, 0, 62, 0
3, 85680, Note_on_c, 0, 59, 33
3, 85800, Note_on_c, 0, 59, 0
3, 85800, Note_on_c, 0, 62, 27
3, 85920, Note_on_c, 0, 62, 0
3, 85920, Note_on_c, 0, 55, 41
3, 86040, Note_on_c, 0, 55, 0
3, 86040, Note_on_c, 0, 62, 30
3, 86160, Note_on_c, 0, 62, 0
3, 86160, Note_on_c, 0, 59, 33
3, 86280, Note_on_c, 0, 59, 0
3, 86280, Note_on_c, 0, 62, 29
3, 86400, Note_on_c, 0, 62, 0
3, 86400, Note_on_c, 0, 57, 40
3, 86520, Note_on_c, 0, 57, 0
3, 86520, Note_on_c, 0, 62, 27
3, 86640, Note_on_c, 0, 62, 0
3, 86640, Note_on_c, 0, 60, 32
3, 86760, Note_on_c, 0, 60, 0
3, 86760, Note_on_c, 0, 62, 27
3, 86880, Note_on_c, 0, 62, 0
3, 86880, Note_on_c, 0, 57, 40
3, 87000, Note_on_c, 0, 57, 0
3, 87000, Note_on_c, 0, 62, 30
3, 87120, Note_on_c, 0, 62, 0
3, 87120, Note_on_c, 0, 60, 33
3, 87240, Note_on_c, 0, 60, 0
3, 87240, Note_on_c, 0, 62, 28
3, 87360, Note_on_c, 0, 62, 0
3, 87360, Note_on_c, 0, 57, 40
3, 87480, Note_on_c, 0, 57, 0
3, 87480, Note_on_c, 0, 62, 26
3, 87600, Note_on_c, 0, 62, 0
3, 87600, Note_on_c, 0, 60, 34
3, 87720, Note_on_c, 0, 60, 0
3, 87720, Note_on_c, 0, 62, 27
3, 87840, Note_on_c, 0, 62, 0
3, 87840, Note_on_c, 0, 55, 40
3, 87960, Note_on_c, 0, 55, 0
3, 87960, Note_on_c, 0, 62, 28
3, 88080, Note_on_c, 0, 62, 0
3, 88080, Note_on_c, 0, 59, 36
3, 88200, Note_on_c, 0, 59, 0
3, 88200, Note_on_c, 0, 62, 33
3, 88320, Note_on_c, 0, 62, 0
3, 88320, Note_on_c, 0, 52, 46
3, 88440, Note_on_c, 0, 52, 0
3, 88440, Note_on_c, 0, 59, 42
3, 88560, Note_on_c, 0, 59, 0
3, 88560, Note_on_c, 0, 55, 48
3, 88680, Note_on_c, 0, 55, 0
3, 88680, Note_on_c, 0, 59, 44
3, 88800, Note_on_c, 0, 59, 0
3, 88800, Note_on_c, 0, 47, 51
3, 88920, Note_on_c, 0, 47, 0
3, 88920, Note_on_c, 0, 55, 39
3, 89040, Note_on_c, 0, 55, 0
3, 89040, Note_on_c, 0, 50, 47
3, 89160, Note_on_c, 0, 50, 0
3, 89160, Note_on_c, 0, 55, 34
3, 89280, Note_on_c, 0, 55, 0
3, 89280, Note_on_c, 0, 48, 40
3, 89400, Note_on_c, 0, 48, 0
3, 89400, Note_on_c, 0, 57, 26
3, 89520, Note_on_c, 0, 57, 0
3, 89520, Note_on_c, 0, 52, 33
3, 89640, Note_on_c, 0, 52, 0
3, 89640, Note_on_c, 0, 57, 25
3, 89760, Note_on_c, 0, 57, 0
3, 89760, Note_on_c, 0, 50, 39
3, 89880, Note_on_c, 0, 50, 0
3, 89880, Note_on_c, 0, 59, 27
3, 90000, Note_on_c, 0, 59, 0
3, 90000, Note_on_c, 0, 55, 32
3, 90120, Note_on_c, 0, 55, 0
3, 90120, Note_on_c, 0, 59, 27
3, 90240, Note_on_c, 0, 59, 0
3, 90240, Note_on_c, 0, 50, 39
3, 90360, Note_on_c, 0, 50, 0
3, 90360, Note_on_c, 0, 60, 27
3, 90480, Note_on_c, 0, 60, 0
3, 90480, Note_on_c, 0, 57, 33
3, 90600, Note_on_c, 0, 57, 0
3, 90600, Note_on_c, 0, 60, 29
3, 90715, Note_on_c, 0, 60, 0
3, 90720, Note_on_c, 0, 55, 27
3, 90720, Note_on_c, 0, 60, 36
3, 91200, Note_on_c, 0, 60, 0
3, 91200, Note_on_c, 0, 59, 28
3, 91680, Note_on_c, 0, 59, 0
3, 91680, Note_on_c, 0, 55, 0
3, 92160, Note_on_c, 0, 55, 40
3, 92280, Note_on_c, 0, 55, 0
3, 92280, Note_on_c, 0, 62, 25
3, 92400, Note_on_c, 0, 62, 0
3, 92400, Note_on_c, 0, 58, 31
3, 92520, Note_on_c, 0, 58, 0
3, 92520, Note_on_c, 0, 62, 26
3, 92640, Note_on_c, 0, 62, 0
3, 92640, Note_on_c, 0, 55, 40
3, 92760, Note_on_c, 0, 55, 0
3, 92760, Note_on_c, 0, 62, 27
3, 92880, Note_on_c, 0, 62, 0
3, 92880, Note_on_c, 0, 58, 31
3, 93000, Note_on_c, 0, 58, 0
3, 93000, Note_on_c, 0, 62, 26
3, 93120, Note_on_c, 0, 62, 0
3, 93120, Note_on_c, 0, 57, 40
3, 93240, Note_on_c, 0, 57, 0
3, 93240, Note_on_c, 0, 62, 26
3, 93360, Note_on_c, 0, 62, 0
3, 93360, Note_on_c, 0, 60, 32
3, 93480, Note_on_c, 0, 60, 0
3, 93480, Note_on_c, 0, 62, 27
3, 93600, Note_on_c, 0, 62, 0
3, 93600, Note_on_c, 0, 55, 40
3, 93720, Note_on_c, 0, 55, 0
3, 93720, Note_on_c, 0, 62, 31
3, 93840, Note_on_c, 0, 62, 0
3, 93840, Note_on_c, 0, 58, 35
3, 93960, Note_on_c, 0, 58, 0
3, 93960, Note_on_c, 0, 62, 28
3, 94080, Note_on_c, 0, 62, 0
3, 94080, Note_on_c, 0, 55, 47
3, 94200, Note_on_c, 0, 55, 0
3, 94200, Note_on_c, 0, 62, 37
3, 94320, Note_on_c, 0, 62, 0
3, 94320, Note_on_c, 0, 58, 41
3, 94440, Note_on_c, 0, 58, 0
3, 94440, Note_on_c, 0, 62, 39
3, 94560, Note_on_c, 0, 62, 0
3, 94560, Note_on_c, 0, 55, 51
3, 94680, Note_on_c, 0, 55, 0
3, 94680, Note_on_c, 0, 62, 43
3, 94800, Note_on_c, 0, 62, 0
3, 94800, Note_on_c, 0, 58, 46
3, 94920, Note_on_c, 0, 58, 0
3, 94920, Note_on_c, 0, 62, 41
3, 95040, Note_on_c, 0, 62, 0
3, 95040, Note_on_c, 0, 54, 47
3, 95160, Note_on_c, 0, 54, 0
3, 95160, Note_on_c, 0, 62, 31
3, 95280, Note_on_c, 0, 62, 0
3, 95280, Note_on_c, 0, 57, 40
3, 95400, Note_on_c, 0, 57, 0
3, 95400, Note_on_c, 0, 62, 33
3, 95520, Note_on_c, 0, 62, 0
3, 95520, Note_on_c, 0, 54, 40
3, 95640, Note_on_c, 0, 54, 0
3, 95640, Note_on_c, 0, 62, 31
3, 95760, Note_on_c, 0, 62, 0
3, 95760, Note_on_c, 0, 57, 37
3, 95880, Note_on_c, 0, 57, 0
3, 95880, Note_on_c, 0, 62, 31
3, 96000, Note_on_c, 0, 62, 0
3, 96000, Note_on_c, 0, 50, 40
3, 96120, Note_on_c, 0, 50, 0
3, 96120, Note_on_c, 0, 62, 30
3, 96240, Note_on_c, 0, 62, 0
3, 96240, Note_on_c, 0, 54, 36
3, 96360, Note_on_c, 0, 54, 0
3, 96360, Note_on_c, 0, 62, 30
3, 96480, Note_on_c, 0, 62, 0
3, 96480, Note_on_c, 0, 55, 40
3, 96600, Note_on_c, 0, 55, 0
3, 96600, Note_on_c, 0, 62, 35
3, 96720, Note_on_c, 0, 62, 0
3, 96720, Note_on_c, 0, 58, 40
3, 96840, Note_on_c, 0, 58, 0
3, 96840, Note_on_c, 0, 62, 37
3, 96960, Note_on_c, 0, 62, 0
3, 96960, Note_on_c, 0, 55, 48
3, 97080, Note_on_c, 0, 55, 0
3, 97080, Note_on_c, 0, 62, 39
3, 97200, Note_on_c, 0, 62, 0
3, 97200, Note_on_c, 0, 58, 47
3, 97320, Note_on_c, 0, 58, 0
3, 97320, Note_on_c, 0, 62, 35
3, 97440, Note_on_c, 0, 62, 0
3, 97440, Note_on_c, 0, 55, 55
3, 97560, Note_on_c, 0, 55, 0
3, 97560, Note_on_c, 0, 63, 48
3, 97680, Note_on_c, 0, 63, 0
3, 97680, Note_on_c, 0, 58, 50
3, 97800, Note_on_c, 0, 58, 0
3, 97800, Note_on_c, 0, 63, 43
3, 97920, Note_on_c, 0, 63, 0
3, 97920, Note_on_c, 0, 57, 57
3, 98040, Note_on_c, 0, 57, 0
3, 98040, Note_on_c, 0, 65, 39
3, 98160, Note_on_c, 0, 65, 0
3, 98160, Note_on_c, 0, 60, 50
3, 98280, Note_on_c, 0, 60, 0
3, 98280, Note_on_c, 0, 65, 40
3, 98400, Note_on_c, 0, 65, 0
3, 98400, Note_on_c, 0, 57, 48
3, 98520, Note_on_c, 0, 57, 0
3, 98520, Note_on_c, 0, 65, 40
3, 98640, Note_on_c, 0, 65, 0
3, 98640, Note_on_c, 0, 60, 48
3, 98760, Note_on_c, 0, 60, 0
3, 98760, Note_on_c, 0, 65, 39
3, 98880, Note_on_c, 0, 65, 0
3, 98880, Note_on_c, 0, 57, 48
3, 99000, Note_on_c, 0, 57, 0
3, 99000, Note_on_c, 0, 65, 36
3, 99120, Note_on_c, 0, 65, 0
3, 99120, Note_on_c, 0, 60, 42
3, 99240, Note_on_c, 0, 60, 0
3, 99240, Note_on_c, 0, 65, 38
3, 99360, Note_on_c, 0, 65, 0
3, 99360, Note_on_c, 0, 58, 46
3, 99480, Note_on_c, 0, 58, 0
3, 99480, Note_on_c, 0, 65, 29
3, 99600, Note_on_c, 0, 65, 0
3, 99600, Note_on_c, 0, 62, 34
3, 99720, Note_on_c, 0, 62, 0
3, 99720, Note_on_c, 0, 65, 26
3, 99840, Note_on_c, 0, 65, 0
3, 99840, Note_on_c, 0, 55, 40
3, 99960, Note_on_c, 0, 55, 0
3, 99960, Note_on_c, 0, 62, 30
3, 100080, Note_on_c, 0, 62, 0
3, 100080, Note_on_c, 0, 58, 40
3, 100200, Note_on_c, 0, 58, 0
3, 100200, Note_on_c, 0, 62, 30
3, 100320, Note_on_c, 0, 62, 0
3, 100320, Note_on_c, 0, 50, 42
3, 100440, Note_on_c, 0, 50, 0
3, 100440, Note_on_c, 0, 58, 29
3, 100560, Note_on_c, 0, 58, 0
3, 100560, Note_on_c, 0, 53, 35
3, 100680, Note_on_c, 0, 53, 0
3, 100680, Note_on_c, 0, 58, 30
3, 100800, Note_on_c, 0, 58, 0
3, 100800, Note_on_c, 0, 51, 37
3, 100920, Note_on_c, 0, 51, 0
3, 100920, Note_on_c, 0, 60, 26
3, 101040, Note_on_c, 0, 60, 0
3, 101040, Note_on_c, 0, 55, 33
3, 101160, Note_on_c, 0, 55, 0
3, 101160, Note_on_c, 0, 60, 29
3, 101280, Note_on_c, 0, 60, 0
3, 101280, Note_on_c, 0, 53, 39
3, 101400, Note_on_c, 0, 53, 0
3, 101400, Note_on_c, 0, 62, 26
3, 101520, Note_on_c, 0, 62, 0
3, 101520, Note_on_c, 0, 58, 35
3, 101640, Note_on_c, 0, 58, 0
3, 101640, Note_on_c, 0, 62, 28
3, 101760, Note_on_c, 0, 62, 0
3, 101760, Note_on_c, 0, 53, 39
3, 101880, Note_on_c, 0, 53, 0
3, 101880, Note_on_c, 0, 63, 30
3, 102000, Note_on_c, 0, 63, 0
3, 102000, Note_on_c, 0, 60, 36
3, 102120, Note_on_c, 0, 60, 0
3, 102120, Note_on_c, 0, 63, 29
3, 102235, Note_on_c, 0, 63, 0
3, 102240, Note_on_c, 0, 58, 34
3, 102240, Note_on_c, 0, 63, 40
3, 102720, Note_on_c, 0, 63, 0
3, 102720, Note_on_c, 0, 62, 28
3, 103200, Note_on_c, 0, 62, 0
3, 103200, Note_on_c, 0, 58, 0
3, 103680, Note_on_c, 0, 56, 47
3, 103800, Note_on_c, 0, 56, 0
3, 103800, Note_on_c, 0, 65, 32
3, 103920, Note_on_c, 0, 65, 0
3, 103920, Note_on_c, 0, 60, 38
3, 104040, Note_on_c, 0, 60, 0
3, 104040, Note_on_c, 0, 65, 31
3, 104160, Note_on_c, 0, 65, 0
3, 104160, Note_on_c, 0, 55, 40
3, 104280, Note_on_c, 0, 55, 0
3, 104280, Note_on_c, 0, 62, 32
3, 104400, Note_on_c, 0, 62, 0
3, 104400, Note_on_c, 0, 59, 37
3, 104520, Note_on_c, 0, 59, 0
3, 104520, Note_on_c, 0, 62, 31
3, 104640, Note_on_c, 0, 62, 0
3, 104640, Note_on_c, 0, 53, 40
3, 104760, Note_on_c, 0, 53, 0
3, 104760, Note_on_c, 0, 62, 32
3, 104880, Note_on_c, 0, 62, 0
3, 104880, Note_on_c, 0, 55, 37
3, 105000, Note_on_c, 0, 55, 0
3, 105000, Note_on_c, 0, 62, 32
3, 105120, Note_on_c, 0, 62, 0
3, 105120, Note_on_c, 0, 51, 40
3, 105240, Note_on_c, 0, 51, 0
3, 105240, Note_on_c, 0, 60, 33
3, 105360, Note_on_c, 0, 60, 0
3, 105360, Note_on_c, 0, 55, 40
3, 105480, Note_on_c, 0, 55, 0
3, 105480, Note_on_c, 0, 60, 28
3, 105600, Note_on_c, 0, 60, 0
3, 105600, Note_on_c, 0, 50, 44
3, 105720, Note_on_c, 0, 50, 0
3, 105720, Note_on_c, 0, 59, 36
3, 105840, Note_on_c, 0, 59, 0
3, 105840, Note_on_c, 0, 53, 42
3, 105960, Note_on_c, 0, 53, 0
3, 105960, Note_on_c, 0, 59, 33
3, 106080, Note_on_c, 0, 59, 0
3, 106080, Note_on_c, 0, 48, 49
3, 106200, Note_on_c, 0, 48, 0
3, 106200, Note_on_c, 0, 60, 41
3, 106320, Note_on_c, 0, 60, 0
3, 106320, Note_on_c, 0, 51, 49
3, 106440, Note_on_c, 0, 51, 0
3, 106440, Note_on_c, 0, 60, 43
3, 106560, Note_on_c, 0, 60, 0
3, 106560, Note_on_c, 0, 49, 62
3, 106680, Note_on_c, 0, 49, 0
3, 106680, Note_on_c, 0, 58, 45
3, 106800, Note_on_c, 0, 58, 0
3, 106800, Note_on_c, 0, 52, 53
3, 106920, Note_on_c, 0, 52, 0
3, 106920, Note_on_c, 0, 58, 39
3, 107040, Note_on_c, 0, 58, 0
3, 107040, Note_on_c, 0, 50, 53
3, 107160, Note_on_c, 0, 50, 0
3, 107160, Note_on_c, 0, 58, 41
3, 107280, Note_on_c, 0, 58, 0
3, 107280, Note_on_c, 0, 55, 48
3, 107400, Note_on_c, 0, 55, 0
3, 107400, Note_on_c, 0, 58, 41
3, 107520, Note_on_c, 0, 58, 0
3, 107520, Note_on_c, 0, 51, 50
3, 107640, Note_on_c, 0, 51, 0
3, 107640, Note_on_c, 0, 58, 33
3, 107760, Note_on_c, 0, 58, 0
3, 107760, Note_on_c, 0, 55, 46
3, 107880, Note_on_c, 0, 55, 0
3, 107880, Note_on_c, 0, 58, 40
3, 108000, Note_on_c, 0, 58, 0
3, 108000, Note_on_c, 0, 50, 51
3, 108120, Note_on_c, 0, 50, 0
3, 108120, Note_on_c, 0, 58, 32
3, 108240, Note_on_c, 0, 58, 0
3, 108240, Note_on_c, 0, 55, 36
3, 108360, Note_on_c, 0, 55, 0
3, 108360, Note_on_c, 0, 58, 32
3, 108480, Note_on_c, 0, 58, 0
3, 108480, Note_on_c, 0, 50, 48
3, 108600, Note_on_c, 0, 50, 0
3, 108600, Note_on_c, 0, 57, 39
3, 108720, Note_on_c, 0, 57, 0
3, 108720, Note_on_c, 0, 54, 49
3, 108840, Note_on_c, 0, 54, 0
3, 108840, Note_on_c, 0, 57, 42
3, 108960, Note_on_c, 0, 57, 0
3, 108960, Note_on_c, 0, 50, 55
3, 109080, Note_on_c, 0, 50, 0
3, 109080, Note_on_c, 0, 57, 46
3, 109200, Note_on_c, 0, 57, 0
3, 109200, Note_on_c, 0, 54, 53
3, 109320, Note_on_c, 0, 54, 0
3, 109320, Note_on_c, 0, 57, 46
3, 109440, Note_on_c, 0, 57, 0
3, 109440, Note_on_c, 0, 48, 63
3, 109560, Note_on_c, 0, 48, 0
3, 109560, Note_on_c, 0, 57, 47
3, 109680, Note_on_c, 0, 57, 0
3, 109680, Note_on_c, 0, 54, 55
3, 109800, Note_on_c, 0, 54, 0
3, 109800, Note_on_c, 0, 57, 49
3, 109920, Note_on_c, 0, 57, 0
3, 109920, Note_on_c, 0, 48, 58
3, 110040, Note_on_c, 0, 48, 0
3, 110040, Note_on_c, 0, 57, 44
3, 110160, Note_on_c, 0, 57, 0
3, 110160, Note_on_c, 0, 54, 54
3, 110280, Note_on_c, 0, 54, 0
3, 110280, Note_on_c, 0, 57, 47
3, 110400, Note_on_c, 0, 57, 0
3, 110400, Note_on_c, 0, 48, 59
3, 110520, Note_on_c, 0, 48, 0
3, 110520, Note_on_c, 0, 57, 43
3, 110640, Note_on_c, 0, 57, 0
3, 110640, Note_on_c, 0, 54, 50
3, 110760, Note_on_c, 0, 54, 0
3, 110760, Note_on_c, 0, 57, 34
3, 110880, Note_on_c, 0, 57, 0
3, 110880, Note_on_c, 0, 46, 57
3, 111000, Note_on_c, 0, 46, 0
3, 111000, Note_on_c, 0, 55, 44
3, 111120, Note_on_c, 0, 55, 0
3, 111120, Note_on_c, 0, 50, 50
3, 111240, Note_on_c, 0, 50, 0
3, 111240, Note_on_c, 0, 55, 42
3, 111360, Note_on_c, 0, 55, 0
3, 111360, Note_on_c, 0, 46, 50
3, 111480, Note_on_c, 0, 46, 0
3, 111480, Note_on_c, 0, 55, 38
3, 111600, Note_on_c, 0, 55, 0
3, 111600, Note_on_c, 0, 50, 46
3, 111720, Note_on_c, 0, 50, 0
3, 111720, Note_on_c, 0, 55, 37
3, 111840, Note_on_c, 0, 55, 0
3, 111840, Note_on_c, 0, 46, 42
3, 111960, Note_on_c, 0, 46, 0
3, 111960, Note_on_c, 0, 55, 29
3, 112080, Note_on_c, 0, 55, 0
3, 112080, Note_on_c, 0, 50, 35
3, 112200, Note_on_c, 0, 50, 0
3, 112200, Note_on_c, 0, 55, 30
3, 112320, Note_on_c, 0, 55, 0
3, 112320, Note_on_c, 0, 48, 37
3, 112440, Note_on_c, 0, 48, 0
3, 112440, Note_on_c, 0, 57, 26
3, 112560, Note_on_c, 0, 57, 0
3, 112560, Note_on_c, 0, 51, 33
3, 112680, Note_on_c, 0, 51, 0
3, 112680, Note_on_c, 0, 57, 29
3, 112800, Note_on_c, 0, 57, 0
3, 112800, Note_on_c, 0, 50, 39
3, 112920, Note_on_c, 0, 50, 0
3, 112920, Note_on_c, 0, 58, 29
3, 113040, Note_on_c, 0, 58, 0
3, 113040, Note_on_c, 0, 55, 37
3, 113160, Note_on_c, 0, 55, 0
3, 113160, Note_on_c, 0, 58, 29
3, 113280, Note_on_c, 0, 58, 0
3, 113280, Note_on_c, 0, 50, 39
3, 113400, Note_on_c, 0, 50, 0
3, 113400, Note_on_c, 0, 60, 30
3, 113520, Note_on_c, 0, 60, 0
3, 113520, Note_on_c, 0, 57, 36
3, 113640, Note_on_c, 0, 57, 0
3, 113640, Note_on_c, 0, 60, 29
3, 113755, Note_on_c, 0, 60, 0
3, 113760, Note_on_c, 0, 55, 34
3, 113760, Note_on_c, 0, 60, 40
3, 114240, Note_on_c, 0, 60, 0
3, 114240, Note_on_c, 0, 58, 28
3, 114720, Note_on_c, 0, 58, 0
3, 114720, Note_on_c, 0, 55, 0
3, 115200, Note_on_c, 0, 55, 36
3, 115320, Note_on_c, 0, 55, 0
3, 115320, Note_on_c, 0, 62, 22
3, 115440, Note_on_c, 0, 62, 0
3, 115440, Note_on_c, 0, 59, 25
3, 115560, Note_on_c, 0, 59, 0
3, 115560, Note_on_c, 0, 62, 24
3, 115680, Note_on_c, 0, 62, 0
3, 115680, Note_on_c, 0, 55, 40
3, 115800, Note_on_c, 0, 55, 0
3, 115800, Note_on_c, 0, 62, 29
3, 115920, Note_on_c, 0, 62, 0
3, 115920, Note_on_c, 0, 59, 35
3, 116040, Note_on_c, 0, 59, 0
3, 116040, Note_on_c, 0, 62, 30
3, 116160, Note_on_c, 0, 62, 0
3, 116160, Note_on_c, 0, 57, 40
3, 116280, Note_on_c, 0, 57, 0
3, 116280, Note_on_c, 0, 62, 32
3, 116400, Note_on_c, 0, 62, 0
3, 116400, Note_on_c, 0, 60, 40
3, 116520, Note_on_c, 0, 60, 0
3, 116520, Note_on_c, 0, 62, 35
3, 116640, Note_on_c, 0, 62, 0
3, 116640, Note_on_c, 0, 55, 43
3, 116760, Note_on_c, 0, 55, 0
3, 116760, Note_on_c, 0, 62, 28
3, 116880, Note_on_c, 0, 62, 0
3, 116880, Note_on_c, 0, 59, 32
3, 117000, Note_on_c, 0, 59, 0
3, 117000, Note_on_c, 0, 62, 28
3, 117120, Note_on_c, 0, 62, 0
3, 117120, Note_on_c, 0, 55, 40
3, 117240, Note_on_c, 0, 55, 0
3, 117240, Note_on_c, 0, 62, 29
3, 117360, Note_on_c, 0, 62, 0
3, 117360, Note_on_c, 0, 59, 39
3, 117480, Note_on_c, 0, 59, 0
3, 117480, Note_on_c, 0, 62, 36
3, 117600, Note_on_c, 0, 62, 0
3, 117600, Note_on_c, 0, 55, 48
3, 117720, Note_on_c, 0, 55, 0
3, 117720, Note_on_c, 0, 62, 38
3, 117840, Note_on_c, 0, 62, 0
3, 117840, Note_on_c, 0, 59, 48
3, 117960, Note_on_c, 0, 59, 0
3, 117960, Note_on_c, 0, 62, 45
3, 118080, Note_on_c, 0, 62, 0
3, 118080, Note_on_c, 0, 55, 53
3, 118200, Note_on_c, 0, 55, 0
3, 118200, Note_on_c, 0, 64, 37
3, 118320, Note_on_c, 0, 64, 0
3, 118320, Note_on_c, 0, 60, 47
3, 118440, Note_on_c, 0, 60, 0
3, 118440, Note_on_c, 0, 64, 41
3, 118560, Note_on_c, 0, 64, 0
3, 118560, Note_on_c, 0, 55, 44
3, 118680, Note_on_c, 0, 55, 0
3, 118680, Note_on_c, 0, 64, 34
3, 118800, Note_on_c, 0, 64, 0
3, 118800, Note_on_c, 0, 60, 39
3, 118920, Note_on_c, 0, 60, 0
3, 118920, Note_on_c, 0, 64, 34
3, 119040, Note_on_c, 0, 64, 0
3, 119040, Note_on_c, 0, 55, 40
3, 119160, Note_on_c, 0, 55, 0
3, 119160, Note_on_c, 0, 61, 26
3, 119280, Note_on_c, 0, 61, 0
3, 119280, Note_on_c, 0, 58, 34
3, 119400, Note_on_c, 0, 58, 0
3, 119400, Note_on_c, 0, 61, 27
3, 119520, Note_on_c, 0, 61, 0
3, 119520, Note_on_c, 0, 55, 40
3, 119640, Note_on_c, 0, 55, 0
3, 119640, Note_on_c, 0, 62, 26
3, 119760, Note_on_c, 0, 62, 0
3, 119760, Note_on_c, 0, 59, 31
3, 119880, Note_on_c, 0, 59, 0
3, 119880, Note_on_c, 0, 62, 27
3, 120000, Note_on_c, 0, 62, 0
3, 120000, Note_on_c, 0, 55, 40
3, 120120, Note_on_c, 0, 55, 0
3, 120120, Note_on_c, 0, 62, 26
3, 120240, Note_on_c, 0, 62, 0
3, 120240, Note_on_c, 0, 59, 30
3, 120360, Note_on_c, 0, 59, 0
3, 120360, Note_on_c, 0, 62, 27
3, 120480, Note_on_c, 0, 62, 0
3, 120480, Note_on_c, 0, 55, 41
3, 120600, Note_on_c, 0, 55, 0
3, 120600, Note_on_c, 0, 62, 25
3, 120720, Note_on_c, 0, 62, 0
3, 120720, Note_on_c, 0, 59, 30
3, 120840, Note_on_c, 0, 59, 0
3, 120840, Note_on_c, 0, 62, 25
3, 120960, Note_on_c, 0, 62, 0
3, 120960, Note_on_c, 0, 57, 40
3, 121080, Note_on_c, 0, 57, 0
3, 121080, Note_on_c, 0, 62, 27
3, 121200, Note_on_c, 0, 62, 0
3, 121200, Note_on_c, 0, 60, 32
3, 121320, Note_on_c, 0, 60, 0
3, 121320, Note_on_c, 0, 62, 27
3, 121440, Note_on_c, 0, 62, 0
3, 121440, Note_on_c, 0, 57, 40
3, 121560, Note_on_c, 0, 57, 0
3, 121560, Note_on_c, 0, 62, 30
3, 121680, Note_on_c, 0, 62, 0
3, 121680, Note_on_c, 0, 60, 33
3, 121800, Note_on_c, 0, 60, 0
3, 121800, Note_on_c, 0, 62, 28
3, 121920, Note_on_c, 0, 62, 0
3, 121920, Note_on_c, 0, 57, 44
3, 122040, Note_on_c, 0, 57, 0
3, 122040, Note_on_c, 0, 62, 33
3, 122160, Note_on_c, 0, 62, 0
3, 122160, Note_on_c, 0, 60, 40
3, 122280, Note_on_c, 0, 60, 0
3, 122280, Note_on_c, 0, 62, 33
3, 122400, Note_on_c, 0, 62, 0
3, 122400, Note_on_c, 0, 55, 46
3, 122520, Note_on_c, 0, 55, 0
3, 122520, Note_on_c, 0, 62, 33
3, 122640, Note_on_c, 0, 62, 0
3, 122640, Note_on_c, 0, 59, 40
3, 122760, Note_on_c, 0, 59, 0
3, 122760, Note_on_c, 0, 62, 37
3, 122880, Note_on_c, 0, 62, 0
3, 122880, Note_on_c, 0, 52, 46
3, 123000, Note_on_c, 0, 52, 0
3, 123000, Note_on_c, 0, 59, 38
3, 123120, Note_on_c, 0, 59, 0
3, 123120, Note_on_c, 0, 55, 42
3, 123240, Note_on_c, 0, 55, 0
3, 123240, Note_on_c, 0, 59, 38
3, 123360, Note_on_c, 0, 59, 0
3, 123360, Note_on_c, 0, 47, 53
3, 123480, Note_on_c, 0, 47, 0
3, 123480, Note_on_c, 0, 55, 44
3, 123600, Note_on_c, 0, 55, 0
3, 123600, Note_on_c, 0, 50, 48
3, 123720, Note_on_c, 0, 50, 0
3, 123720, Note_on_c, 0, 55, 39
3, 123840, Note_on_c, 0, 55, 0
3, 123840, Note_on_c, 0, 48, 49
3, 123840, Note_on_c, 0, 52, 58
3, 124320, Note_on_c, 0, 52, 0
3, 124320, Note_on_c, 0, 55, 34
3, 124800, Note_on_c, 0, 48, 0
3, 124800, Note_on_c, 0, 52, 34
3, 125280, Note_on_c, 0, 52, 0
3, 125280, Note_on_c, 0, 55, 0
3, 125280, Note_on_c, 0, 50, 36
3, 125280, Note_on_c, 0, 55, 36
3, 125760, Note_on_c, 0, 55, 0
3, 125760, Note_on_c, 0, 54, 28
3, 126240, Note_on_c, 0, 54, 0
3, 126240, Note_on_c, 0, 50, 0
3, 126720, Note_on_c, 0, 55, 40
3, 126840, Note_on_c, 0, 55, 0
3, 126840, Note_on_c, 0, 62, 25
3, 126960, Note_on_c, 0, 62, 0
3, 126960, Note_on_c, 0, 59, 31
3, 127080, Note_on_c, 0, 59, 0
3, 127080, Note_on_c, 0, 62, 26
3, 127200, Note_on_c, 0, 62, 0
3, 127200, Note_on_c, 0, 55, 40
3, 127320, Note_on_c, 0, 55, 0
3, 127320, Note_on_c, 0, 62, 27
3, 127440, Note_on_c, 0, 62, 0
3, 127440, Note_on_c, 0, 59, 31
3, 127560, Note_on_c, 0, 59, 0
3, 127560, Note_on_c, 0, 62, 26
3, 127680, Note_on_c, 0, 62, 0
3, 127680, Note_on_c, 0, 57, 40
3, 127800, Note_on_c, 0, 57, 0
3, 127800, Note_on_c, 0, 62, 31
3, 127920, Note_on_c, 0, 62, 0
3, 127920, Note_on_c, 0, 60, 36
3, 128040, Note_on_c, 0, 60, 0
3, 128040, Note_on_c, 0, 62, 30
3, 128160, Note_on_c, 0, 62, 0
3, 128160, Note_on_c, 0, 55, 40
3, 128280, Note_on_c, 0, 55, 0
3, 128280, Note_on_c, 0, 62, 28
3, 128400, Note_on_c, 0, 62, 0
3, 128400, Note_on_c, 0, 59, 32
3, 128520, Note_on_c, 0, 59, 0
3, 128520, Note_on_c, 0, 62, 28
3, 128640, Note_on_c, 0, 62, 0
3, 128640, Note_on_c, 0, 55, 40
3, 128760, Note_on_c, 0, 55, 0
3, 128760, Note_on_c, 0, 62, 33
3, 128880, Note_on_c, 0, 62, 0
3, 128880, Note_on_c, 0, 59, 37
3, 129000, Note_on_c, 0, 59, 0
3, 129000, Note_on_c, 0, 62, 30
3, 129120, Note_on_c, 0, 62, 0
3, 129120, Note_on_c, 0, 55, 47
3, 129240, Note_on_c, 0, 55, 0
3, 129240, Note_on_c, 0, 62, 38
3, 129360, Note_on_c, 0, 62, 0
3, 129360, Note_on_c, 0, 59, 44
3, 129480, Note_on_c, 0, 59, 0
3, 129480, Note_on_c, 0, 62, 42
3, 129600, Note_on_c, 0, 62, 0
3, 129600, Note_on_c, 0, 55, 43
3, 129720, Note_on_c, 0, 55, 0
3, 129720, Note_on_c, 0, 64, 34
3, 129840, Note_on_c, 0, 64, 0
3, 129840, Note_on_c, 0, 60, 38
3, 129960, Note_on_c, 0, 60, 0
3, 129960, Note_on_c, 0, 64, 34
3, 130080, Note_on_c, 0, 64, 0
3, 130080, Note_on_c, 0, 55, 44
3, 130200, Note_on_c, 0, 55, 0
3, 130200, Note_on_c, 0, 64, 34
3, 130320, Note_on_c, 0, 64, 0
3, 130320, Note_on_c, 0, 60, 39
3, 130440, Note_on_c, 0, 60, 0
3, 130440, Note_on_c, 0, 64, 34
3, 130560, Note_on_c, 0, 64, 0
3, 130560, Note_on_c, 0, 55, 40
3, 130680, Note_on_c, 0, 55, 0
3, 130680, Note_on_c, 0, 61, 26
3, 130800, Note_on_c, 0, 61, 0
3, 130800, Note_on_c, 0, 58, 34
3, 130920, Note_on_c, 0, 58, 0
3, 130920, Note_on_c, 0, 61, 27
3, 131040, Note_on_c, 0, 61, 0
3, 131040, Note_on_c, 0, 55, 40
3, 131160, Note_on_c, 0, 55, 0
3, 131160, Note_on_c, 0, 62, 24
3, 131280, Note_on_c, 0, 62, 0
3, 131280, Note_on_c, 0, 59, 31
3, 131400, Note_on_c, 0, 59, 0
3, 131400, Note_on_c, 0, 62, 27
3, 131520, Note_on_c, 0, 62, 0
3, 131520, Note_on_c, 0, 55, 40
3, 131640, Note_on_c, 0, 55, 0
3, 131640, Note_on_c, 0, 62, 26
3, 131760, Note_on_c, 0, 62, 0
3, 131760, Note_on_c, 0, 59, 33
3, 131880, Note_on_c, 0, 59, 0
3, 131880, Note_on_c, 0, 62, 27
3, 132000, Note_on_c, 0, 62, 0
3, 132000, Note_on_c, 0, 55, 41
3, 132120, Note_on_c, 0, 55, 0
3, 132120, Note_on_c, 0, 62, 30
3, 132240, Note_on_c, 0, 62, 0
3, 132240, Note_on_c, 0, 59, 33
3, 132360, Note_on_c, 0, 59, 0
3, 132360, Note_on_c, 0, 62, 29
3, 132480, Note_on_c, 0, 62, 0
3, 132480, Note_on_c, 0, 57, 40
3, 132600, Note_on_c, 0, 57, 0
3, 132600, Note_on_c, 0, 62, 27
3, 132720, Note_on_c, 0, 62, 0
3, 132720, Note_on_c, 0, 60, 32
3, 132840, Note_on_c, 0, 60, 0
3, 132840, Note_on_c, 0, 62, 27
3, 132960, Note_on_c, 0, 62, 0
3, 132960, Note_on_c, 0, 57, 40
3, 133080, Note_on_c, 0, 57, 0
3, 133080, Note_on_c, 0, 62, 30
3, 133200, Note_on_c, 0, 62, 0
3, 133200, Note_on_c, 0, 60, 33
3, 133320, Note_on_c, 0, 60, 0
3, 133320, Note_on_c, 0, 62, 28
3, 133440, Note_on_c, 0, 62, 0
3, 133440, Note_on_c, 0, 57, 40
3, 133560, Note_on_c, 0, 57, 0
3, 133560, Note_on_c, 0, 62, 31
3, 133680, Note_on_c, 0, 62, 0
3, 133680, Note_on_c, 0, 60, 38
3, 133800, Note_on_c, 0, 60, 0
3, 133800, Note_on_c, 0, 62, 33
3, 133920, Note_on_c, 0, 62, 0
3, 133920, Note_on_c, 0, 55, 40
3, 134040, Note_on_c, 0, 55, 0
3, 134040, Note_on_c, 0, 62, 38
3, 134160, Note_on_c, 0, 62, 0
3, 134160, Note_on_c, 0, 59, 42
3, 134280, Note_on_c, 0, 59, 0
3, 134280, Note_on_c, 0, 62, 35
3, 134400, Note_on_c, 0, 62, 0
3, 134400, Note_on_c, 0, 52, 51
3, 134520, Note_on_c, 0, 52, 0
3, 134520, Note_on_c, 0, 59, 46
3, 134640, Note_on_c, 0, 59, 0
3, 134640, Note_on_c, 0, 55, 50
3, 134760, Note_on_c, 0, 55, 0
3, 134760, Note_on_c, 0, 59, 47
3, 134880, Note_on_c, 0, 59, 0
3, 134880, Note_on_c, 0, 47, 54
3, 135000, Note_on_c, 0, 47, 0
3, 135000, Note_on_c, 0, 55, 42
3, 135120, Note_on_c, 0, 55, 0
3, 135120, Note_on_c, 0, 50, 47
3, 135240, Note_on_c, 0, 50, 0
3, 135240, Note_on_c, 0, 55, 34
3, 135360, Note_on_c, 0, 55, 0
3, 135360, Note_on_c, 0, 48, 40
3, 135480, Note_on_c, 0, 48, 0
3, 135480, Note_on_c, 0, 57, 26
3, 135600, Note_on_c, 0, 57, 0
3, 135600, Note_on_c, 0, 52, 33
3, 135720, Note_on_c, 0, 52, 0
3, 135720, Note_on_c, 0, 57, 29
3, 135840, Note_on_c, 0, 57, 0
3, 135840, Note_on_c, 0, 50, 39
3, 135960, Note_on_c, 0, 50, 0
3, 135960, Note_on_c, 0, 59, 27
3, 136080, Note_on_c, 0, 59, 0
3, 136080, Note_on_c, 0, 55, 33
3, 136200, Note_on_c, 0, 55, 0
3, 136200, Note_on_c, 0, 59, 28
3, 136320, Note_on_c, 0, 59, 0
3, 136320, Note_on_c, 0, 50, 39
3, 136440, Note_on_c, 0, 50, 0
3, 136440, Note_on_c, 0, 60, 27
3, 136560, Note_on_c, 0, 60, 0
3, 136560, Note_on_c, 0, 57, 32
3, 136680, Note_on_c, 0, 57, 0
3, 136680, Note_on_c, 0, 60, 27
3, 136800, Note_on_c, 0, 60, 0
3, 136800, Note_on_c, 0, 55, 27
3, 136800, Note_on_c, 0, 59, 36
3, 137280, Note_on_c, 0, 59, 0
3, 137280, Note_on_c, 0, 55, 0
3, 138240, Note_on_c, 0, 57, 40
3, 138360, Note_on_c, 0, 57, 0
3, 138360, Note_on_c, 0, 65, 29
3, 138480, Note_on_c, 0, 65, 0
3, 138480, Note_on_c, 0, 60, 35
3, 138600, Note_on_c, 0, 60, 0
3, 138600, Note_on_c, 0, 65, 30
3, 138720, Note_on_c, 0, 65, 0
3, 138720, Note_on_c, 0, 57, 40
3, 138840, Note_on_c, 0, 57, 0
3, 138840, Note_on_c, 0, 65, 31
3, 138960, Note_on_c, 0, 65, 0
3, 138960, Note_on_c, 0, 60, 36
3, 139080, Note_on_c, 0, 60, 0
3, 139080, Note_on_c, 0, 65, 30
3, 139200, Note_on_c, 0, 65, 0
3, 139200, Note_on_c, 0, 59, 40
3, 139320, Note_on_c, 0, 59, 0
3, 139320, Note_on_c, 0, 67, 31
3, 139440, Note_on_c, 0, 67, 0
3, 139440, Note_on_c, 0, 62, 37
3, 139560, Note_on_c, 0, 62, 0
3, 139560, Note_on_c, 0, 67, 31
3, 139680, Note_on_c, 0, 67, 0
3, 139680, Note_on_c, 0, 60, 40
3, 139800, Note_on_c, 0, 60, 0
3, 139800, Note_on_c, 0, 67, 26
3, 139920, Note_on_c, 0, 67, 0
3, 139920, Note_on_c, 0, 64, 32
3, 140040, Note_on_c, 0, 64, 0
3, 140040, Note_on_c, 0, 67, 27
3, 140160, Note_on_c, 0, 67, 0
3, 140160, Note_on_c, 0, 60, 36
3, 140280, Note_on_c, 0, 60, 0
3, 140280, Note_on_c, 0, 67, 27
3, 140400, Note_on_c, 0, 67, 0
3, 140400, Note_on_c, 0, 64, 32
3, 140520, Note_on_c, 0, 64, 0
3, 140520, Note_on_c, 0, 67, 29
3, 140640, Note_on_c, 0, 67, 0
3, 140640, Note_on_c, 0, 60, 37
3, 140760, Note_on_c, 0, 60, 0
3, 140760, Note_on_c, 0, 67, 28
3, 140880, Note_on_c, 0, 67, 0
3, 140880, Note_on_c, 0, 64, 32
3, 141000, Note_on_c, 0, 64, 0
3, 141000, Note_on_c, 0, 67, 28
3, 141120, Note_on_c, 0, 67, 0
3, 141120, Note_on_c, 0, 59, 40
3, 141240, Note_on_c, 0, 59, 0
3, 141240, Note_on_c, 0, 62, 26
3, 141360, Note_on_c, 0, 62, 0
3, 141360, Note_on_c, 0, 60, 33
3, 141480, Note_on_c, 0, 60, 0
3, 141480, Note_on_c, 0, 64, 29
3, 141600, Note_on_c, 0, 64, 0
3, 141600, Note_on_c, 0, 50, 39
3, 141720, Note_on_c, 0, 50, 0
3, 141720, Note_on_c, 0, 59, 29
3, 141840, Note_on_c, 0, 59, 0
3, 141840, Note_on_c, 0, 55, 37
3, 141960, Note_on_c, 0, 55, 0
3, 141960, Note_on_c, 0, 59, 29
3, 142080, Note_on_c, 0, 59, 0
3, 142080, Note_on_c, 0, 50, 39
3, 142200, Note_on_c, 0, 50, 0
3, 142200, Note_on_c, 0, 60, 30
3, 142320, Note_on_c, 0, 60, 0
3, 142320, Note_on_c, 0, 57, 36
3, 142440, Note_on_c, 0, 57, 0
3, 142440, Note_on_c, 0, 60, 29
3, 142560, Note_on_c, 0, 60, 0
3, 142560, Note_on_c, 0, 55, 27
3, 142560, Note_on_c, 0, 59, 36
3, 143040, Note_on_c, 0, 59, 0
3, 143040, Note_on_c, 0, 55, 0
3, 144000, Note_on_c, 0, 45, 56
3, 144120, Note_on_c, 0, 45, 0
3, 144120, Note_on_c, 0, 53, 45
3, 144240, Note_on_c, 0, 53, 0
3, 144240, Note_on_c, 0, 48, 49
3, 144360, Note_on_c, 0, 48, 0
3, 144360, Note_on_c, 0, 53, 44
3, 144480, Note_on_c, 0, 53, 0
3, 144480, Note_on_c, 0, 47, 55
3, 144600, Note_on_c, 0, 47, 0
3, 144600, Note_on_c, 0, 55, 41
3, 144720, Note_on_c, 0, 55, 0
3, 144720, Note_on_c, 0, 50, 50
3, 144840, Note_on_c, 0, 50, 0
3, 144840, Note_on_c, 0, 55, 43
3, 144960, Note_on_c, 0, 55, 0
3, 144960, Note_on_c, 0, 43, 55
3, 145080, Note_on_c, 0, 43, 0
3, 145080, Note_on_c, 0, 55, 41
3, 145200, Note_on_c, 0, 55, 0
3, 145200, Note_on_c, 0, 47, 52
3, 145320, Note_on_c, 0, 47, 0
3, 145320, Note_on_c, 0, 55, 44
3, 145440, Note_on_c, 0, 55, 0
3, 145440, Note_on_c, 0, 48, 56
3, 145560, Note_on_c, 0, 48, 0
3, 145560, Note_on_c, 0, 55, 47
3, 145680, Note_on_c, 0, 55, 0
3, 145680, Note_on_c, 0, 52, 49
3, 145800, Note_on_c, 0, 52, 0
3, 145800, Note_on_c, 0, 55, 46
3, 145920, Note_on_c, 0, 55, 0
3, 145920, Note_on_c, 0, 48, 60
3, 146040, Note_on_c, 0, 48, 0
3, 146040, Note_on_c, 0, 57, 48
3, 146160, Note_on_c, 0, 57, 0
3, 146160, Note_on_c, 0, 51, 56
3, 146280, Note_on_c, 0, 51, 0
3, 146280, Note_on_c, 0, 57, 47
3, 146400, Note_on_c, 0, 57, 0
3, 146400, Note_on_c, 0, 49, 61
3, 146520, Note_on_c, 0, 49, 0
3, 146520, Note_on_c, 0, 58, 48
3, 146640, Note_on_c, 0, 58, 0
3, 146640, Note_on_c, 0, 52, 56
3, 146760, Note_on_c, 0, 52, 0
3, 146760, Note_on_c, 0, 58, 47
3, 146880, Note_on_c, 0, 58, 0
3, 146880, Note_on_c, 0, 50, 40
3, 147000, Note_on_c, 0, 50, 0
3, 147000, Note_on_c, 0, 59, 26
3, 147120, Note_on_c, 0, 59, 0
3, 147120, Note_on_c, 0, 55, 33
3, 147240, Note_on_c, 0, 55, 0
3, 147240, Note_on_c, 0, 59, 29
3, 147360, Note_on_c, 0, 59, 0
3, 147360, Note_on_c, 0, 50, 39
3, 147480, Note_on_c, 0, 50, 0
3, 147480, Note_on_c, 0, 59, 29
3, 147600, Note_on_c, 0, 59, 0
3, 147600, Note_on_c, 0, 55, 37
3, 147720, Note_on_c, 0, 55, 0
3, 147720, Note_on_c, 0, 59, 29
3, 147840, Note_on_c, 0, 59, 0
3, 147840, Note_on_c, 0, 50, 39
3, 147960, Note_on_c, 0, 50, 0
3, 147960, Note_on_c, 0, 60, 30
3, 148080, Note_on_c, 0, 60, 0
3, 148080, Note_on_c, 0, 57, 36
3, 148200, Note_on_c, 0, 57, 0
3, 148200, Note_on_c, 0, 60, 29
3, 148320, Note_on_c, 0, 60, 0
3, 148320, Note_on_c, 0, 55, 30
3, 148320, Note_on_c, 0, 59, 36
3, 148800, Note_on_c, 0, 59, 0
3, 148800, Note_on_c, 0, 55, 0
3, 149520, Note_on_c, 0, 50, 30
3, 149520, Note_on_c, 0, 60, 36
3, 149760, Note_on_c, 0, 60, 0
3, 149760, Note_on_c, 0, 50, 0
3, 149760, Note_on_c, 0, 55, 30
3, 149760, Note_on_c, 0, 59, 36
3, 150240, Note_on_c, 0, 59, 0
3, 150240, Note_on_c, 0, 55, 0
3, 150960, Note_on_c, 0, 50, 30
3, 150960, Note_on_c, 0, 60, 36
3, 151200, Note_on_c, 0, 60, 0
3, 151200, Note_on_c, 0, 50, 0
3, 151200, Note_on_c, 0, 55, 30
3, 151200, Note_on_c, 0, 59, 36
3, 151440, Note_on_c, 0, 59, 0
3, 151440, Note_on_c, 0, 55, 0
3, 151680, Note_on_c, 0, 43, 30
3, 151920, Note_on_c, 0, 43, 0
3, 151920, End_track
4, 0, Start_track
4, 0, Title_t, "Pedale"
4, 0, Program_c, 0, 0
4, 62, Control_c, 0, 64, 127
4, 963, Control_c, 0, 64, 0
4, 1504, Control_c, 0, 64, 127
4, 2409, Control_c, 0, 64, 0
4, 2471, Control_c, 0, 64, 127
4, 2880, Control_c, 0, 64, 0
4, 2942, Control_c, 0, 64, 127
4, 3843, Control_c, 0, 64, 0
4, 4320, Control_c, 0, 64, 0
4, 4384, Control_c, 0, 64, 127
4, 5289, Control_c, 0, 64, 0
4, 5351, Control_c, 0, 64, 127
4, 5808, Control_c, 0, 64, 0
4, 5880, Control_c, 0, 64, 127
4, 6262, Control_c, 0, 64, 0
4, 7200, Control_c, 0, 64, 0
4, 7264, Control_c, 0, 64, 127
4, 7694, Control_c, 0, 64, 0
4, 7786, Control_c, 0, 64, 127
4, 8169, Control_c, 0, 64, 0
4, 8231, Control_c, 0, 64, 127
4, 8640, Control_c, 0, 64, 0
4, 10134, Control_c, 0, 64, 127
4, 10563, Control_c, 0, 64, 0
4, 11582, Control_c, 0, 64, 127
4, 12483, Control_c, 0, 64, 0
4, 12544, Control_c, 0, 64, 127
4, 12960, Control_c, 0, 64, 0
4, 13024, Control_c, 0, 64, 127
4, 13476, Control_c, 0, 64, 0
4, 14400, Control_c, 0, 64, 0
4, 15840, Control_c, 0, 64, 0
4, 15904, Control_c, 0, 64, 127
4, 16809, Control_c, 0, 64, 0
4, 16871, Control_c, 0, 64, 127
4, 17328, Control_c, 0, 64, 0
4, 17400, Control_c, 0, 64, 127
4, 17782, Control_c, 0, 64, 0
4, 18720, Control_c, 0, 64, 0
4, 18784, Control_c, 0, 64, 127
4, 19218, Control_c, 0, 64, 0
4, 19285, Control_c, 0, 64, 127
4, 19689, Control_c, 0, 64, 0
4, 20703, Control_c, 0, 64, 127
4, 21131, Control_c, 0, 64, 0
4, 21787, Control_c, 0, 64, 127
4, 22099, Control_c, 0, 64, 0
4, 23102, Control_c, 0, 64, 127
4, 24003, Control_c, 0, 64, 0
4, 24544, Control_c, 0, 64, 127
4, 25449, Control_c, 0, 64, 0
4, 25511, Control_c, 0, 64, 127
4, 25920, Control_c, 0, 64, 0
4, 25982, Control_c, 0, 64, 127
4, 26883, Control_c, 0, 64, 0
4, 27360, Control_c, 0, 64, 0
4, 27424, Control_c, 0, 64, 127
4, 28329, Control_c, 0, 64, 0
4, 28391, Control_c, 0, 64, 127
4, 28848, Control_c, 0, 64, 0
4, 28920, Control_c, 0, 64, 127
4, 29302, Control_c, 0, 64, 0
4, 30240, Control_c, 0, 64, 0
4, 30304, Control_c, 0, 64, 127
4, 30734, Control_c, 0, 64, 0
4, 30826, Control_c, 0, 64, 127
4, 31209, Control_c, 0, 64, 0
4, 31271, Control_c, 0, 64, 127
4, 31680, Control_c, 0, 64, 0
4, 33174, Control_c, 0, 64, 127
4, 33603, Control_c, 0, 64, 0
4, 34622, Control_c, 0, 64, 127
4, 35523, Control_c, 0, 64, 0
4, 35584, Control_c, 0, 64, 127
4, 36000, Control_c, 0, 64, 0
4, 36064, Control_c, 0, 64, 127
4, 36516, Control_c, 0, 64, 0
4, 37440, Control_c, 0, 64, 0
4, 38880, Control_c, 0, 64, 0
4, 38944, Control_c, 0, 64, 127
4, 39849, Control_c, 0, 64, 0
4, 39911, Control_c, 0, 64, 127
4, 40368, Control_c, 0, 64, 0
4, 40440, Control_c, 0, 64, 127
4, 40822, Control_c, 0, 64, 0
4, 41760, Control_c, 0, 64, 0
4, 41824, Control_c, 0, 64, 127
4, 42258, Control_c, 0, 64, 0
4, 42325, Control_c, 0, 64, 127
4, 42729, Control_c, 0, 64, 0
4, 43743, Control_c, 0, 64, 127
4, 44171, Control_c, 0, 64, 0
4, 44827, Control_c, 0, 64, 127
4, 45139, Control_c, 0, 64, 0
4, 46142, Control_c, 0, 64, 127
4, 46686, Control_c, 0, 64, 0
4, 47584, Control_c, 0, 64, 127
4, 48014, Control_c, 0, 64, 0
4, 48099, Control_c, 0, 64, 127
4, 48494, Control_c, 0, 64, 0
4, 48593, Control_c, 0, 64, 127
4, 48960, Control_c, 0, 64, 0
4, 49022, Control_c, 0, 64, 127
4, 49575, Control_c, 0, 64, 0
4, 50464, Control_c, 0, 64, 127
4, 50894, Control_c, 0, 64, 0
4, 50979, Control_c, 0, 64, 127
4, 51126, Control_c, 0, 64, 0
4, 51195, Control_c, 0, 64, 127
4, 51369, Control_c, 0, 64, 0
4, 51473, Control_c, 0, 64, 127
4, 51843, Control_c, 0, 64, 0
4, 51902, Control_c, 0, 64, 127
4, 52339, Control_c, 0, 64, 0
4, 53389, Control_c, 0, 64, 127
4, 53779, Control_c, 0, 64, 0
4, 54883, Control_c, 0, 64, 127
4, 55210, Control_c, 0, 64, 0
4, 55263, Control_c, 0, 64, 127
4, 55691, Control_c, 0, 64, 0
4, 56347, Control_c, 0, 64, 127
4, 56659, Control_c, 0, 64, 0
4, 57662, Control_c, 0, 64, 127
4, 58563, Control_c, 0, 64, 0
4, 58624, Control_c, 0, 64, 127
4, 59040, Control_c, 0, 64, 0
4, 59104, Control_c, 0, 64, 127
4, 59556, Control_c, 0, 64, 0
4, 60480, Control_c, 0, 64, 0
4, 61984, Control_c, 0, 64, 127
4, 62889, Control_c, 0, 64, 0
4, 62951, Control_c, 0, 64, 127
4, 63408, Control_c, 0, 64, 0
4, 63480, Control_c, 0, 64, 127
4, 63862, Control_c, 0, 64, 0
4, 64800, Control_c, 0, 64, 0
4, 64864, Control_c, 0, 64, 127
4, 65299, Control_c, 0, 64, 0
4, 65386, Control_c, 0, 64, 127
4, 65769, Control_c, 0, 64, 0
4, 66730, Control_c, 0, 64, 0
4, 66783, Control_c, 0, 64, 127
4, 67211, Control_c, 0, 64, 0
4, 67867, Control_c, 0, 64, 127
4, 68180, Control_c, 0, 64, 0
4, 69182, Control_c, 0, 64, 127
4, 69726, Control_c, 0, 64, 0
4, 70624, Control_c, 0, 64, 127
4, 71054, Control_c, 0, 64, 0
4, 71139, Control_c, 0, 64, 127
4, 71534, Control_c, 0, 64, 0
4, 71633, Control_c, 0, 64, 127
4, 72000, Control_c, 0, 64, 0
4, 72062, Control_c, 0, 64, 127
4, 72615, Control_c, 0, 64, 0
4, 73504, Control_c, 0, 64, 127
4, 73934, Control_c, 0, 64, 0
4, 74019, Control_c, 0, 64, 127
4, 74166, Control_c, 0, 64, 0
4, 74235, Control_c, 0, 64, 127
4, 74409, Control_c, 0, 64, 0
4, 74513, Control_c, 0, 64, 127
4, 74883, Control_c, 0, 64, 0
4, 74942, Control_c, 0, 64, 127
4, 75379, Control_c, 0, 64, 0
4, 76429, Control_c, 0, 64, 127
4, 76819, Control_c, 0, 64, 0
4, 77923, Control_c, 0, 64, 127
4, 78250, Control_c, 0, 64, 0
4, 78303, Control_c, 0, 64, 127
4, 78731, Control_c, 0, 64, 0
4, 79387, Control_c, 0, 64, 127
4, 79699, Control_c, 0, 64, 0
4, 80702, Control_c, 0, 64, 127
4, 81603, Control_c, 0, 64, 0
4, 81664, Control_c, 0, 64, 127
4, 82080, Control_c, 0, 64, 0
4, 82144, Control_c, 0, 64, 127
4, 82596, Control_c, 0, 64, 0
4, 83520, Control_c, 0, 64, 0
4, 85024, Control_c, 0, 64, 127
4, 85929, Control_c, 0, 64, 0
4, 85991, Control_c, 0, 64, 127
4, 86448, Control_c, 0, 64, 0
4, 86520, Control_c, 0, 64, 127
4, 86902, Control_c, 0, 64, 0
4, 87840, Control_c, 0, 64, 0
4, 87904, Control_c, 0, 64, 127
4, 88339, Control_c, 0, 64, 0
4, 88426, Control_c, 0, 64, 127
4, 88809, Control_c, 0, 64, 0
4, 89770, Control_c, 0, 64, 0
4, 89823, Control_c, 0, 64, 127
4, 90251, Control_c, 0, 64, 0
4, 90907, Control_c, 0, 64, 127
4, 91220, Control_c, 0, 64, 0
4, 92222, Control_c, 0, 64, 127
4, 92222, Control_c, 0, 64, 127
4, 92766, Control_c, 0, 64, 0
4, 93600, Control_c, 0, 64, 0
4, 93664, Control_c, 0, 64, 127
4, 94569, Control_c, 0, 64, 0
4, 94631, Control_c, 0, 64, 127
4, 95040, Control_c, 0, 64, 0
4, 95102, Control_c, 0, 64, 127
4, 95102, Control_c, 0, 64, 127
4, 95102, Control_c, 0, 64, 127
4, 95650, Control_c, 0, 64, 0
4, 96480, Control_c, 0, 64, 0
4, 96544, Control_c, 0, 64, 127
4, 97449, Control_c, 0, 64, 0
4, 97511, Control_c, 0, 64, 127
4, 97928, Control_c, 0, 64, 0
4, 97982, Control_c, 0, 64, 127
4, 98526, Control_c, 0, 64, 0
4, 99381, Control_c, 0, 64, 0
4, 99469, Control_c, 0, 64, 127
4, 99859, Control_c, 0, 64, 0
4, 100964, Control_c, 0, 64, 127
4, 101290, Control_c, 0, 64, 0
4, 101343, Control_c, 0, 64, 127
4, 101771, Control_c, 0, 64, 0
4, 102427, Control_c, 0, 64, 127
4, 102739, Control_c, 0, 64, 0
4, 103742, Control_c, 0, 64, 127
4, 103742, Control_c, 0, 64, 127
4, 104169, Control_c, 0, 64, 0
4, 105120, Control_c, 0, 64, 0
4, 105184, Control_c, 0, 64, 127
4, 105610, Control_c, 0, 64, 0
4, 105675, Control_c, 0, 64, 127
4, 106089, Control_c, 0, 64, 0
4, 106151, Control_c, 0, 64, 127
4, 106560, Control_c, 0, 64, 0
4, 106622, Control_c, 0, 64, 127
4, 106622, Control_c, 0, 64, 127
4, 106622, Control_c, 0, 64, 127
4, 107049, Control_c, 0, 64, 0
4, 107523, Control_c, 0, 64, 0
4, 107523, Control_c, 0, 64, 0
4, 107584, Control_c, 0, 64, 127
4, 107584, Control_c, 0, 64, 127
4, 107584, Control_c, 0, 64, 127
4, 108000, Control_c, 0, 64, 0
4, 108000, Control_c, 0, 64, 0
4, 108064, Control_c, 0, 64, 127
4, 108064, Control_c, 0, 64, 127
4, 108491, Control_c, 0, 64, 0
4, 108583, Control_c, 0, 64, 127
4, 108969, Control_c, 0, 64, 0
4, 109031, Control_c, 0, 64, 127
4, 109440, Control_c, 0, 64, 0
4, 109448, Control_c, 0, 64, 0
4, 109502, Control_c, 0, 64, 127
4, 109502, Control_c, 0, 64, 127
4, 110901, Control_c, 0, 64, 0
4, 110989, Control_c, 0, 64, 127
4, 111486, Control_c, 0, 64, 0
4, 112480, Control_c, 0, 64, 127
4, 112810, Control_c, 0, 64, 0
4, 112863, Control_c, 0, 64, 127
4, 113291, Control_c, 0, 64, 0
4, 113760, Control_c, 0, 64, 0
4, 113947, Control_c, 0, 64, 127
4, 114259, Control_c, 0, 64, 0
4, 115262, Control_c, 0, 64, 127
4, 116163, Control_c, 0, 64, 0
4, 116704, Control_c, 0, 64, 127
4, 117609, Control_c, 0, 64, 0
4, 117671, Control_c, 0, 64, 127
4, 118080, Control_c, 0, 64, 0
4, 118142, Control_c, 0, 64, 127
4, 118806, Control_c, 0, 64, 0
4, 119584, Control_c, 0, 64, 127
4, 120489, Control_c, 0, 64, 0
4, 120551, Control_c, 0, 64, 127
4, 121008, Control_c, 0, 64, 0
4, 121080, Control_c, 0, 64, 127
4, 121462, Control_c, 0, 64, 0
4, 122400, Control_c, 0, 64, 0
4, 122464, Control_c, 0, 64, 127
4, 122893, Control_c, 0, 64, 0
4, 122972, Control_c, 0, 64, 127
4, 123369, Control_c, 0, 64, 0
4, 123431, Control_c, 0, 64, 127
4, 123840, Control_c, 0, 64, 0
4, 125334, Control_c, 0, 64, 127
4, 125763, Control_c, 0, 64, 0
4, 126782, Control_c, 0, 64, 127
4, 127683, Control_c, 0, 64, 0
4, 127744, Control_c, 0, 64, 127
4, 128160, Control_c, 0, 64, 0
4, 128224, Control_c, 0, 64, 127
4, 128676, Control_c, 0, 64, 0
4, 129600, Control_c, 0, 64, 0
4, 131104, Control_c, 0, 64, 127
4, 132009, Control_c, 0, 64, 0
4, 132071, Control_c, 0, 64, 127
4, 132528, Control_c, 0, 64, 0
4, 132600, Control_c, 0, 64, 127
4, 132982, Control_c, 0, 64, 0
4, 133920, Control_c, 0, 64, 0
4, 133984, Control_c, 0, 64, 127
4, 134413, Control_c, 0, 64, 0
4, 134489, Control_c, 0, 64, 127
4, 134889, Control_c, 0, 64, 0
4, 135903, Control_c, 0, 64, 127
4, 136331, Control_c, 0, 64, 0
4, 138302, Control_c, 0, 64, 127
4, 138971, Control_c, 0, 64, 0
4, 139744, Control_c, 0, 64, 127
4, 140172, Control_c, 0, 64, 0
4, 140259, Control_c, 0, 64, 127
4, 140649, Control_c, 0, 64, 0
4, 141663, Control_c, 0, 64, 127
4, 142091, Control_c, 0, 64, 0
4, 144062, Control_c, 0, 64, 127
4, 144487, Control_c, 0, 64, 0
4, 145440, Control_c, 0, 64, 0
4, 145504, Control_c, 0, 64, 127
4, 145932, Control_c, 0, 64, 0
4, 146019, Control_c, 0, 64, 127
4, 146409, Control_c, 0, 64, 0
4, 146471, Control_c, 0, 64, 127
4, 146880, Control_c, 0, 64, 0
4, 147000, Control_c, 0, 64, 127
4, 147851, Control_c, 0, 64, 0
4, 147920, Control_c, 0, 64, 127
4, 148090, Control_c, 0, 64, 0
4, 148144, Control_c, 0, 64, 127
4, 148320, Control_c, 0, 64, 0
4, 148391, Control_c, 0, 64, 127
4, 148578, Control_c, 0, 64, 0
4, 148800, Control_c, 0, 64, 127
4, 149050, Control_c, 0, 64, 0
4, 149316, Control_c, 0, 64, 127
4, 149529, Control_c, 0, 64, 0
4, 149567, Control_c, 0, 64, 127
4, 149743, Control_c, 0, 64, 0
4, 149831, Control_c, 0, 64, 127
4, 150018, Control_c, 0, 64, 0
4, 150240, Control_c, 0, 64, 127
4, 150495, Control_c, 0, 64, 0
4, 150756, Control_c, 0, 64, 127
4, 150969, Control_c, 0, 64, 0
4, 151007, Control_c, 0, 64, 127
4, 151183, Control_c, 0, 64, 0
4, 151183, End_track
5, 0, Start_track
5, 0, Title_t, "Mozart: Piano sonata  KV 545 2. Movement"
5, 0, End_track
6, 0, Start_track
6, 0, Title_t, "Copyright © 2006 by Bernd Krueger"
6, 0, End_track
7, 0, Start_track
7, 0, Title_t, "http://www.piano-midi.de/"
7, 0, End_track
8, 0, Start_track
8, 0, Title_t, "Edition: 2013-09-27"
8, 0, End_track
9, 0, Start_track
9, 0, Title_t, "Spur 8"
9, 0, End_track
10, 0, Start_track
10, 0, Title_t, "Spur 9"
10, 0, End_track
11, 0, Start_track
11, 0, Title_t, "Spur 10"
11, 0, End_track
12, 0, Start_track
12, 0, Title_t, "Spur 11"
12, 0, End_track
13, 0, Start_track
13, 0, Title_t, "Spur 12"
13, 0, End_track
14, 0, Start_track
14, 0, Title_t, "Spur 13"
14, 0, End_track
15, 0, Start_track
15, 0, Title_t, "Spur 14"
15, 0, End_track
16, 0, Start_track
16, 0, Title_t, "Spur 15"
16, 0, End_track
17, 0, Start_track
17, 0, Title_t, "Spur 16"
17, 0, End_track
0, 0, End_of_file
