0, 0, Header, 1, 17, 480
1, 0, Start_track
1, 0, Title_t, "Klaviersonate KV 545 3. Satz"
1, 0, Copyright_t, "Copyright © 2006 by Bernd Krueger"
1, 0, Text_t, "Mozart"
1, 0, Text_t, "Veröffentlicht: 1.10.2006\012"
1, 0, Text_t, "Update: 29.9.2013\012"
1, 0, Text_t, "Dauer: 1:44 Minuten\012"
1, 0, Time_signature, 2, 2, 24, 8
1, 0, Key_signature, 0, "major"
1, 0, Tempo, 589623
1, 480, Tempo, 647878
1, 960, Tempo, 623895
1, 1200, Tempo, 651466
1, 1440, Tempo, 620604
1, 1680, Tempo, 630583
1, 1920, Tempo, 620604
1, 2160, Tempo, 644399
1, 2400, Tempo, 617347
1, 2640, Tempo, 604717
1, 2880, Tempo, 610998
1, 3120, Tempo, 601624
1, 3360, Tempo, 610998
1, 4080, Tempo, 633981
1, 4320, Tempo, 637416
1, 4800, Tempo, 620604
1, 5040, Tempo, 637416
1, 5280, Tempo, 627221
1, 6000, Tempo, 647878
1, 6240, Tempo, 623895
1, 6360, Tempo, 620604
1, 6480, Tempo, 610998
1, 6701, Tempo, 617347
1, 6778, Tempo, 614188
1, 6854, Tempo, 610998
1, 6912, Tempo, 607841
1, 7200, Tempo, 617347
1, 7560, Tempo, 637416
1, 7680, Tempo, 651466
1, 7920, Tempo, 701919
1, 8160, Tempo, 647878
1, 8640, Tempo, 623895
1, 8880, Tempo, 651466
1, 9120, Tempo, 620604
1, 9360, Tempo, 630583
1, 9600, Tempo, 620604
1, 9840, Tempo, 644399
1, 10080, Tempo, 623895
1, 10320, Tempo, 610998
1, 10560, Tempo, 610998
1, 11040, Tempo, 610998
1, 11200, Tempo, 604717
1, 11520, Tempo, 610998
1, 11760, Tempo, 633981
1, 12000, Tempo, 637416
1, 12480, Tempo, 620604
1, 12720, Tempo, 637416
1, 12960, Tempo, 627221
1, 13680, Tempo, 647878
1, 13920, Tempo, 623895
1, 14400, Tempo, 617347
1, 14640, Tempo, 607841
1, 14880, Tempo, 623895
1, 15360, Tempo, 651466
1, 15831, Tempo, 607841
1, 15946, Tempo, 604717
1, 16061, Tempo, 601624
1, 16200, Tempo, 670017
1, 16320, Tempo, 604717
1, 16680, Tempo, 666223
1, 16800, Tempo, 604717
1, 17160, Tempo, 644399
1, 17280, Tempo, 610998
1, 17640, Tempo, 662471
1, 17760, Tempo, 607841
1, 18120, Tempo, 644399
1, 18240, Tempo, 610998
1, 18600, Tempo, 658762
1, 18720, Tempo, 610998
1, 19080, Tempo, 658762
1, 19200, Tempo, 623895
1, 19560, Tempo, 673854
1, 19680, Tempo, 637416
1, 20160, Tempo, 620604
1, 20400, Tempo, 637416
1, 20640, Tempo, 627221
1, 20880, Tempo, 637416
1, 21120, Tempo, 627221
1, 21360, Tempo, 647878
1, 21600, Tempo, 623895
1, 22061, Tempo, 620604
1, 22138, Tempo, 617347
1, 22195, Tempo, 614188
1, 22253, Tempo, 610998
1, 22320, Tempo, 604717
1, 22560, Tempo, 614188
1, 22800, Tempo, 623895
1, 22920, Tempo, 644399
1, 23040, Tempo, 651466
1, 23280, Tempo, 701919
1, 23520, Tempo, 627221
1, 23880, Tempo, 666223
1, 24000, Tempo, 640889
1, 24480, Tempo, 620604
1, 24840, Tempo, 662471
1, 24960, Tempo, 637416
1, 25440, Tempo, 620604
1, 25800, Tempo, 673854
1, 25920, Tempo, 655093
1, 26160, Tempo, 694766
1, 26400, Tempo, 780640
1, 26640, Tempo, 840807
1, 26880, Tempo, 890736
1, 27360, Tempo, 666223
1, 27840, Tempo, 623895
1, 28080, Tempo, 651466
1, 28320, Tempo, 620604
1, 28560, Tempo, 630583
1, 28800, Tempo, 617347
1, 29040, Tempo, 644399
1, 29280, Tempo, 617347
1, 29520, Tempo, 607841
1, 29760, Tempo, 610998
1, 30000, Tempo, 604717
1, 30240, Tempo, 610998
1, 30960, Tempo, 633981
1, 31200, Tempo, 637416
1, 31680, Tempo, 620604
1, 31920, Tempo, 637416
1, 32160, Tempo, 627221
1, 32400, Tempo, 633981
1, 32640, Tempo, 627221
1, 32880, Tempo, 647878
1, 33120, Tempo, 623895
1, 33591, Tempo, 620604
1, 33649, Tempo, 617347
1, 33687, Tempo, 614188
1, 33726, Tempo, 610998
1, 34080, Tempo, 617347
1, 34440, Tempo, 637416
1, 34560, Tempo, 651466
1, 34800, Tempo, 701919
1, 35040, Tempo, 623895
1, 35280, Tempo, 651466
1, 35520, Tempo, 610998
1, 35760, Tempo, 620604
1, 35880, Tempo, 630583
1, 36000, Tempo, 617347
1, 36240, Tempo, 644399
1, 36480, Tempo, 604717
1, 36840, Tempo, 670017
1, 36960, Tempo, 623895
1, 37200, Tempo, 651466
1, 37440, Tempo, 607841
1, 37680, Tempo, 620604
1, 37800, Tempo, 630583
1, 37920, Tempo, 617347
1, 38160, Tempo, 644399
1, 38400, Tempo, 617347
1, 38760, Tempo, 644399
1, 38880, Tempo, 607841
1, 39000, Tempo, 617347
1, 39240, Tempo, 637416
1, 39360, Tempo, 607841
1, 39600, Tempo, 617347
1, 39720, Tempo, 637416
1, 39840, Tempo, 610998
1, 39960, Tempo, 610998
1, 40080, Tempo, 630583
1, 40200, Tempo, 637416
1, 40320, Tempo, 617347
1, 40440, Tempo, 627221
1, 40560, Tempo, 614188
1, 40680, Tempo, 627221
1, 40800, Tempo, 610998
1, 40920, Tempo, 627221
1, 41040, Tempo, 620604
1, 41160, Tempo, 627221
1, 41280, Tempo, 637416
1, 41400, Tempo, 718993
1, 41520, Tempo, 681586
1, 41760, Tempo, 662471
1, 42707, Tempo, 637416
1, 42715, Tempo, 617347
1, 42830, Tempo, 614188
1, 42926, Tempo, 610998
1, 43022, Tempo, 607841
1, 43080, Tempo, 655093
1, 43200, Tempo, 601624
1, 43440, Tempo, 610998
1, 43560, Tempo, 662471
1, 43680, Tempo, 607841
1, 43800, Tempo, 617347
1, 44040, Tempo, 658762
1, 44160, Tempo, 623895
1, 44280, Tempo, 601624
1, 44520, Tempo, 662471
1, 44640, Tempo, 607841
1, 45000, Tempo, 673854
1, 45120, Tempo, 627221
1, 45240, Tempo, 604717
1, 45480, Tempo, 677736
1, 45600, Tempo, 627221
1, 45960, Tempo, 670017
1, 46080, Tempo, 627221
1, 46320, Tempo, 701919
1, 46560, Tempo, 633981
1, 46800, Tempo, 666223
1, 47040, Tempo, 610998
1, 47280, Tempo, 620604
1, 47400, Tempo, 630583
1, 47520, Tempo, 617347
1, 47760, Tempo, 644399
1, 48000, Tempo, 610998
1, 48360, Tempo, 670017
1, 48480, Tempo, 623895
1, 48720, Tempo, 651466
1, 48960, Tempo, 614188
1, 49200, Tempo, 620604
1, 49320, Tempo, 630583
1, 49440, Tempo, 617347
1, 49680, Tempo, 644399
1, 49920, Tempo, 617347
1, 50280, Tempo, 644399
1, 50400, Tempo, 607841
1, 50520, Tempo, 617347
1, 50760, Tempo, 637416
1, 50880, Tempo, 604717
1, 51000, Tempo, 617347
1, 51240, Tempo, 637416
1, 51360, Tempo, 604717
1, 51520, Tempo, 607841
1, 51600, Tempo, 620604
1, 51720, Tempo, 647878
1, 51840, Tempo, 610998
1, 51960, Tempo, 627221
1, 52080, Tempo, 610998
1, 52200, Tempo, 627221
1, 52320, Tempo, 617347
1, 52440, Tempo, 627221
1, 52560, Tempo, 620604
1, 52680, Tempo, 655093
1, 52800, Tempo, 637416
1, 52920, Tempo, 647878
1, 53040, Tempo, 658762
1, 53160, Tempo, 681586
1, 53280, Tempo, 662471
1, 54240, Tempo, 630583
1, 54400, Tempo, 617347
1, 54600, Tempo, 673854
1, 54720, Tempo, 630583
1, 55080, Tempo, 677736
1, 55200, Tempo, 623895
1, 55360, Tempo, 614188
1, 55560, Tempo, 673854
1, 55680, Tempo, 630583
1, 56040, Tempo, 677736
1, 56160, Tempo, 620604
1, 56320, Tempo, 610998
1, 56520, Tempo, 673854
1, 56640, Tempo, 627221
1, 56800, Tempo, 617347
1, 57000, Tempo, 770713
1, 57120, Tempo, 640889
1, 57480, Tempo, 670017
1, 57600, Tempo, 1043660
1, 58080, Tempo, 666223
1, 58560, Tempo, 623895
1, 58800, Tempo, 651466
1, 59040, Tempo, 620604
1, 59280, Tempo, 630583
1, 59520, Tempo, 617347
1, 59760, Tempo, 644399
1, 60000, Tempo, 617347
1, 60240, Tempo, 607841
1, 60480, Tempo, 610998
1, 60720, Tempo, 604717
1, 60960, Tempo, 610998
1, 61680, Tempo, 633981
1, 61920, Tempo, 637416
1, 62400, Tempo, 620604
1, 62640, Tempo, 637416
1, 62880, Tempo, 627221
1, 63120, Tempo, 633981
1, 63360, Tempo, 627221
1, 63600, Tempo, 647878
1, 63840, Tempo, 623895
1, 64320, Tempo, 610998
1, 64800, Tempo, 617347
1, 65160, Tempo, 637416
1, 65280, Tempo, 651466
1, 65520, Tempo, 701919
1, 65760, Tempo, 617347
1, 66000, Tempo, 607841
1, 66120, Tempo, 655093
1, 66240, Tempo, 604717
1, 66480, Tempo, 607841
1, 66600, Tempo, 640889
1, 66720, Tempo, 617347
1, 66960, Tempo, 610998
1, 67080, Tempo, 644399
1, 67200, Tempo, 604717
1, 67560, Tempo, 670017
1, 67680, Tempo, 627221
1, 67690, Tempo, 604717
1, 67767, Tempo, 607841
1, 67824, Tempo, 610998
1, 67882, Tempo, 614188
1, 67939, Tempo, 617347
1, 67997, Tempo, 620604
1, 68040, Tempo, 644399
1, 68160, Tempo, 627221
1, 68170, Tempo, 610998
1, 68247, Tempo, 614188
1, 68323, Tempo, 617347
1, 68400, Tempo, 620604
1, 68477, Tempo, 623895
1, 68520, Tempo, 651466
1, 68640, Tempo, 627221
1, 69000, Tempo, 723415
1, 69120, Tempo, 658762
1, 69600, Tempo, 617347
1, 69610, Tempo, 623895
1, 69706, Tempo, 620604
1, 69802, Tempo, 617347
1, 69898, Tempo, 614188
1, 69960, Tempo, 655093
1, 70080, Tempo, 614188
1, 70320, Tempo, 607841
1, 70440, Tempo, 640889
1, 70560, Tempo, 617347
1, 70800, Tempo, 607841
1, 70920, Tempo, 644399
1, 71040, Tempo, 614188
1, 71400, Tempo, 670017
1, 71520, Tempo, 627221
1, 71530, Tempo, 604717
1, 71607, Tempo, 607841
1, 71664, Tempo, 610998
1, 71722, Tempo, 614188
1, 71779, Tempo, 617347
1, 71837, Tempo, 620604
1, 71880, Tempo, 644399
1, 72000, Tempo, 627221
1, 72010, Tempo, 610998
1, 72087, Tempo, 614188
1, 72163, Tempo, 617347
1, 72240, Tempo, 620604
1, 72317, Tempo, 623895
1, 72360, Tempo, 651466
1, 72480, Tempo, 627221
1, 72840, Tempo, 685558
1, 72941, Tempo, 604717
1, 73171, Tempo, 601624
1, 73200, Tempo, 601624
1, 73320, Tempo, 620604
1, 73440, Tempo, 604717
1, 73800, Tempo, 662471
1, 73920, Tempo, 620604
1, 74040, Tempo, 607841
1, 74280, Tempo, 693642
1, 74400, Tempo, 637416
1, 74640, Tempo, 623895
1, 74861, Tempo, 617347
1, 74957, Tempo, 614188
1, 75034, Tempo, 610998
1, 75111, Tempo, 607841
1, 75120, Tempo, 607841
1, 75360, Tempo, 620604
1, 75480, Tempo, 610998
1, 75720, Tempo, 662471
1, 75840, Tempo, 620604
1, 76200, Tempo, 693642
1, 76320, Tempo, 637416
1, 76680, Tempo, 718993
1, 76800, Tempo, 664011
1, 77040, Tempo, 719770
1, 77280, Tempo, 790931
1, 77520, Tempo, 917993
1, 79014, Tempo, 765697
1, 79014, End_track
2, 0, Start_track
2, 0, Title_t, "Piano right"
2, 0, Program_c, 0, 0
2, 480, Note_on_c, 0, 76, 42
2, 480, Note_on_c, 0, 79, 50
2, 540, Note_on_c, 0, 79, 0
2, 540, Note_on_c, 0, 76, 0
2, 720, Note_on_c, 0, 76, 36
2, 720, Note_on_c, 0, 79, 43
2, 780, Note_on_c, 0, 79, 0
2, 780, Note_on_c, 0, 76, 0
2, 960, Note_on_c, 0, 72, 40
2, 960, Note_on_c, 0, 76, 48
2, 1140, Note_on_c, 0, 76, 0
2, 1140, Note_on_c, 0, 72, 0
2, 1440, Note_on_c, 0, 74, 42
2, 1440, Note_on_c, 0, 77, 50
2, 1500, Note_on_c, 0, 77, 0
2, 1500, Note_on_c, 0, 74, 0
2, 1680, Note_on_c, 0, 74, 37
2, 1680, Note_on_c, 0, 77, 44
2, 1740, Note_on_c, 0, 77, 0
2, 1740, Note_on_c, 0, 74, 0
2, 1920, Note_on_c, 0, 71, 41
2, 1920, Note_on_c, 0, 74, 49
2, 2100, Note_on_c, 0, 74, 0
2, 2100, Note_on_c, 0, 71, 0
2, 2400, Note_on_c, 0, 72, 54
2, 2520, Note_on_c, 0, 74, 49
2, 2532, Note_on_c, 0, 72, 0
2, 2640, Note_on_c, 0, 76, 53
2, 2652, Note_on_c, 0, 74, 0
2, 2760, Note_on_c, 0, 72, 49
2, 2772, Note_on_c, 0, 76, 0
2, 2880, Note_on_c, 0, 69, 55
2, 2892, Note_on_c, 0, 72, 0
2, 3000, Note_on_c, 0, 71, 57
2, 3012, Note_on_c, 0, 69, 0
2, 3120, Note_on_c, 0, 72, 60
2, 3132, Note_on_c, 0, 71, 0
2, 3240, Note_on_c, 0, 73, 63
2, 3252, Note_on_c, 0, 72, 0
2, 3360, Note_on_c, 0, 74, 66
2, 3372, Note_on_c, 0, 73, 0
2, 3480, Note_on_c, 0, 76, 59
2, 3492, Note_on_c, 0, 74, 0
2, 3600, Note_on_c, 0, 77, 66
2, 3612, Note_on_c, 0, 76, 0
2, 3720, Note_on_c, 0, 74, 60
2, 3732, Note_on_c, 0, 77, 0
2, 3840, Note_on_c, 0, 72, 64
2, 3852, Note_on_c, 0, 74, 0
2, 3960, Note_on_c, 0, 71, 59
2, 3972, Note_on_c, 0, 72, 0
2, 4080, Note_on_c, 0, 69, 53
2, 4092, Note_on_c, 0, 71, 0
2, 4200, Note_on_c, 0, 67, 48
2, 4212, Note_on_c, 0, 69, 0
2, 4320, Note_on_c, 0, 67, 0
2, 4320, Note_on_c, 0, 76, 59
2, 4320, Note_on_c, 0, 79, 59
2, 4380, Note_on_c, 0, 79, 0
2, 4380, Note_on_c, 0, 76, 0
2, 4560, Note_on_c, 0, 76, 48
2, 4560, Note_on_c, 0, 79, 48
2, 4620, Note_on_c, 0, 79, 0
2, 4620, Note_on_c, 0, 76, 0
2, 4800, Note_on_c, 0, 72, 59
2, 4800, Note_on_c, 0, 76, 59
2, 4980, Note_on_c, 0, 76, 0
2, 4980, Note_on_c, 0, 72, 0
2, 5280, Note_on_c, 0, 77, 63
2, 5280, Note_on_c, 0, 81, 63
2, 5340, Note_on_c, 0, 81, 0
2, 5340, Note_on_c, 0, 77, 0
2, 5520, Note_on_c, 0, 77, 55
2, 5520, Note_on_c, 0, 81, 55
2, 5580, Note_on_c, 0, 81, 0
2, 5580, Note_on_c, 0, 77, 0
2, 5760, Note_on_c, 0, 71, 63
2, 5760, Note_on_c, 0, 74, 63
2, 5940, Note_on_c, 0, 74, 0
2, 5940, Note_on_c, 0, 71, 0
2, 6240, Note_on_c, 0, 81, 70
2, 6360, Note_on_c, 0, 79, 68
2, 6372, Note_on_c, 0, 81, 0
2, 6480, Note_on_c, 0, 77, 65
2, 6492, Note_on_c, 0, 79, 0
2, 6600, Note_on_c, 0, 76, 63
2, 6612, Note_on_c, 0, 77, 0
2, 6720, Note_on_c, 0, 76, 0
2, 6720, Note_on_c, 0, 73, 60
2, 6840, Note_on_c, 0, 74, 62
2, 6852, Note_on_c, 0, 73, 0
2, 6960, Note_on_c, 0, 76, 66
2, 6972, Note_on_c, 0, 74, 0
2, 7080, Note_on_c, 0, 77, 58
2, 7092, Note_on_c, 0, 76, 0
2, 7200, Note_on_c, 0, 77, 0
2, 7200, Note_on_c, 0, 69, 60
2, 7320, Note_on_c, 0, 69, 0
2, 7320, Note_on_c, 0, 72, 52
2, 7440, Note_on_c, 0, 72, 0
2, 7440, Note_on_c, 0, 71, 58
2, 7560, Note_on_c, 0, 71, 0
2, 7560, Note_on_c, 0, 74, 50
2, 7680, Note_on_c, 0, 74, 0
2, 7680, Note_on_c, 0, 72, 56
2, 7920, Note_on_c, 0, 72, 0
2, 8160, Note_on_c, 0, 76, 42
2, 8160, Note_on_c, 0, 79, 50
2, 8220, Note_on_c, 0, 79, 0
2, 8220, Note_on_c, 0, 76, 0
2, 8400, Note_on_c, 0, 76, 36
2, 8400, Note_on_c, 0, 79, 43
2, 8460, Note_on_c, 0, 79, 0
2, 8460, Note_on_c, 0, 76, 0
2, 8640, Note_on_c, 0, 72, 40
2, 8640, Note_on_c, 0, 76, 48
2, 8820, Note_on_c, 0, 76, 0
2, 8820, Note_on_c, 0, 72, 0
2, 9120, Note_on_c, 0, 74, 42
2, 9120, Note_on_c, 0, 77, 50
2, 9180, Note_on_c, 0, 77, 0
2, 9180, Note_on_c, 0, 74, 0
2, 9360, Note_on_c, 0, 74, 37
2, 9360, Note_on_c, 0, 77, 44
2, 9420, Note_on_c, 0, 77, 0
2, 9420, Note_on_c, 0, 74, 0
2, 9600, Note_on_c, 0, 71, 41
2, 9600, Note_on_c, 0, 74, 49
2, 9780, Note_on_c, 0, 74, 0
2, 9780, Note_on_c, 0, 71, 0
2, 10080, Note_on_c, 0, 72, 55
2, 10200, Note_on_c, 0, 74, 49
2, 10212, Note_on_c, 0, 72, 0
2, 10320, Note_on_c, 0, 76, 54
2, 10332, Note_on_c, 0, 74, 0
2, 10440, Note_on_c, 0, 72, 49
2, 10452, Note_on_c, 0, 76, 0
2, 10560, Note_on_c, 0, 69, 51
2, 10572, Note_on_c, 0, 72, 0
2, 10680, Note_on_c, 0, 71, 55
2, 10692, Note_on_c, 0, 69, 0
2, 10800, Note_on_c, 0, 72, 59
2, 10812, Note_on_c, 0, 71, 0
2, 10920, Note_on_c, 0, 73, 62
2, 10932, Note_on_c, 0, 72, 0
2, 11040, Note_on_c, 0, 74, 66
2, 11052, Note_on_c, 0, 73, 0
2, 11160, Note_on_c, 0, 76, 60
2, 11172, Note_on_c, 0, 74, 0
2, 11280, Note_on_c, 0, 77, 65
2, 11292, Note_on_c, 0, 76, 0
2, 11400, Note_on_c, 0, 74, 63
2, 11412, Note_on_c, 0, 77, 0
2, 11520, Note_on_c, 0, 72, 60
2, 11532, Note_on_c, 0, 74, 0
2, 11640, Note_on_c, 0, 71, 57
2, 11652, Note_on_c, 0, 72, 0
2, 11760, Note_on_c, 0, 69, 54
2, 11772, Note_on_c, 0, 71, 0
2, 11880, Note_on_c, 0, 67, 49
2, 11892, Note_on_c, 0, 69, 0
2, 12000, Note_on_c, 0, 67, 0
2, 12000, Note_on_c, 0, 76, 56
2, 12000, Note_on_c, 0, 79, 56
2, 12060, Note_on_c, 0, 79, 0
2, 12060, Note_on_c, 0, 76, 0
2, 12240, Note_on_c, 0, 76, 49
2, 12240, Note_on_c, 0, 79, 49
2, 12300, Note_on_c, 0, 79, 0
2, 12300, Note_on_c, 0, 76, 0
2, 12480, Note_on_c, 0, 72, 55
2, 12480, Note_on_c, 0, 76, 55
2, 12660, Note_on_c, 0, 76, 0
2, 12660, Note_on_c, 0, 72, 0
2, 12960, Note_on_c, 0, 77, 66
2, 12960, Note_on_c, 0, 81, 66
2, 13020, Note_on_c, 0, 81, 0
2, 13020, Note_on_c, 0, 77, 0
2, 13200, Note_on_c, 0, 77, 57
2, 13200, Note_on_c, 0, 81, 57
2, 13260, Note_on_c, 0, 81, 0
2, 13260, Note_on_c, 0, 77, 0
2, 13440, Note_on_c, 0, 71, 63
2, 13440, Note_on_c, 0, 74, 63
2, 13620, Note_on_c, 0, 74, 0
2, 13620, Note_on_c, 0, 71, 0
2, 13920, Note_on_c, 0, 81, 68
2, 14040, Note_on_c, 0, 79, 65
2, 14052, Note_on_c, 0, 81, 0
2, 14160, Note_on_c, 0, 77, 63
2, 14172, Note_on_c, 0, 79, 0
2, 14280, Note_on_c, 0, 76, 61
2, 14292, Note_on_c, 0, 77, 0
2, 14400, Note_on_c, 0, 76, 0
2, 14400, Note_on_c, 0, 73, 56
2, 14520, Note_on_c, 0, 74, 58
2, 14532, Note_on_c, 0, 73, 0
2, 14640, Note_on_c, 0, 76, 59
2, 14652, Note_on_c, 0, 74, 0
2, 14760, Note_on_c, 0, 77, 56
2, 14772, Note_on_c, 0, 76, 0
2, 14880, Note_on_c, 0, 77, 0
2, 14880, Note_on_c, 0, 69, 60
2, 15000, Note_on_c, 0, 69, 0
2, 15000, Note_on_c, 0, 72, 52
2, 15120, Note_on_c, 0, 72, 0
2, 15120, Note_on_c, 0, 71, 58
2, 15240, Note_on_c, 0, 71, 0
2, 15240, Note_on_c, 0, 74, 50
2, 15360, Note_on_c, 0, 74, 0
2, 15360, Note_on_c, 0, 72, 56
2, 15600, Note_on_c, 0, 72, 0
2, 15840, Note_on_c, 0, 76, 61
2, 15960, Note_on_c, 0, 78, 56
2, 15972, Note_on_c, 0, 76, 0
2, 16080, Note_on_c, 0, 79, 53
2, 16092, Note_on_c, 0, 78, 0
2, 16140, Note_on_c, 0, 79, 0
2, 16200, Note_on_c, 0, 79, 53
2, 16260, Note_on_c, 0, 79, 0
2, 16320, Note_on_c, 0, 81, 62
2, 16440, Note_on_c, 0, 79, 58
2, 16452, Note_on_c, 0, 81, 0
2, 16560, Note_on_c, 0, 78, 56
2, 16572, Note_on_c, 0, 79, 0
2, 16680, Note_on_c, 0, 76, 55
2, 16692, Note_on_c, 0, 78, 0
2, 16800, Note_on_c, 0, 76, 0
2, 16800, Note_on_c, 0, 74, 61
2, 16860, Note_on_c, 0, 74, 0
2, 16920, Note_on_c, 0, 74, 54
2, 16980, Note_on_c, 0, 74, 0
2, 17040, Note_on_c, 0, 74, 54
2, 17100, Note_on_c, 0, 74, 0
2, 17160, Note_on_c, 0, 74, 54
2, 17220, Note_on_c, 0, 74, 0
2, 17280, Note_on_c, 0, 76, 66
2, 17400, Note_on_c, 0, 74, 59
2, 17412, Note_on_c, 0, 76, 0
2, 17520, Note_on_c, 0, 72, 58
2, 17532, Note_on_c, 0, 74, 0
2, 17640, Note_on_c, 0, 71, 57
2, 17652, Note_on_c, 0, 72, 0
2, 17760, Note_on_c, 0, 71, 0
2, 17760, Note_on_c, 0, 88, 74
2, 17880, Note_on_c, 0, 86, 66
2, 17892, Note_on_c, 0, 88, 0
2, 18000, Note_on_c, 0, 84, 65
2, 18012, Note_on_c, 0, 86, 0
2, 18120, Note_on_c, 0, 83, 64
2, 18132, Note_on_c, 0, 84, 0
2, 18240, Note_on_c, 0, 83, 0
2, 18240, Note_on_c, 0, 80, 75
2, 18360, Note_on_c, 0, 81, 67
2, 18372, Note_on_c, 0, 80, 0
2, 18480, Note_on_c, 0, 83, 65
2, 18492, Note_on_c, 0, 81, 0
2, 18600, Note_on_c, 0, 84, 65
2, 18612, Note_on_c, 0, 83, 0
2, 18720, Note_on_c, 0, 84, 0
2, 18720, Note_on_c, 0, 76, 74
2, 18840, Note_on_c, 0, 78, 68
2, 18852, Note_on_c, 0, 76, 0
2, 18960, Note_on_c, 0, 79, 62
2, 18972, Note_on_c, 0, 78, 0
2, 19080, Note_on_c, 0, 81, 65
2, 19092, Note_on_c, 0, 79, 0
2, 19200, Note_on_c, 0, 81, 0
2, 19200, Note_on_c, 0, 79, 74
2, 19320, Note_on_c, 0, 78, 70
2, 19332, Note_on_c, 0, 79, 0
2, 19440, Note_on_c, 0, 76, 62
2, 19452, Note_on_c, 0, 78, 0
2, 19560, Note_on_c, 0, 74, 63
2, 19572, Note_on_c, 0, 76, 0
2, 19680, Note_on_c, 0, 74, 0
2, 19680, Note_on_c, 0, 83, 63
2, 19680, Note_on_c, 0, 86, 75
2, 19740, Note_on_c, 0, 86, 0
2, 19740, Note_on_c, 0, 83, 0
2, 19920, Note_on_c, 0, 83, 58
2, 19920, Note_on_c, 0, 86, 69
2, 19980, Note_on_c, 0, 86, 0
2, 19980, Note_on_c, 0, 83, 0
2, 20160, Note_on_c, 0, 79, 63
2, 20160, Note_on_c, 0, 83, 75
2, 20340, Note_on_c, 0, 83, 0
2, 20340, Note_on_c, 0, 79, 0
2, 20640, Note_on_c, 0, 81, 60
2, 20640, Note_on_c, 0, 84, 71
2, 20700, Note_on_c, 0, 84, 0
2, 20700, Note_on_c, 0, 81, 0
2, 20880, Note_on_c, 0, 81, 54
2, 20880, Note_on_c, 0, 84, 64
2, 20940, Note_on_c, 0, 84, 0
2, 20940, Note_on_c, 0, 81, 0
2, 21120, Note_on_c, 0, 78, 59
2, 21120, Note_on_c, 0, 81, 70
2, 21300, Note_on_c, 0, 81, 0
2, 21300, Note_on_c, 0, 78, 0
2, 21600, Note_on_c, 0, 79, 68
2, 21720, Note_on_c, 0, 81, 68
2, 21732, Note_on_c, 0, 79, 0
2, 21840, Note_on_c, 0, 83, 72
2, 21852, Note_on_c, 0, 81, 0
2, 21960, Note_on_c, 0, 79, 67
2, 21972, Note_on_c, 0, 83, 0
2, 22080, Note_on_c, 0, 79, 0
2, 22080, Note_on_c, 0, 75, 61
2, 22200, Note_on_c, 0, 76, 63
2, 22212, Note_on_c, 0, 75, 0
2, 22320, Note_on_c, 0, 79, 66
2, 22332, Note_on_c, 0, 76, 0
2, 22440, Note_on_c, 0, 76, 59
2, 22452, Note_on_c, 0, 79, 0
2, 22560, Note_on_c, 0, 76, 0
2, 22560, Note_on_c, 0, 74, 62
2, 22680, Note_on_c, 0, 74, 0
2, 22680, Note_on_c, 0, 71, 56
2, 22800, Note_on_c, 0, 71, 0
2, 22800, Note_on_c, 0, 72, 58
2, 22920, Note_on_c, 0, 72, 0
2, 22920, Note_on_c, 0, 69, 50
2, 23040, Note_on_c, 0, 69, 0
2, 23040, Note_on_c, 0, 67, 56
2, 23160, Note_on_c, 0, 67, 0
2, 23520, Note_on_c, 0, 67, 54
2, 23640, Note_on_c, 0, 67, 0
2, 23640, Note_on_c, 0, 69, 56
2, 23760, Note_on_c, 0, 69, 0
2, 23760, Note_on_c, 0, 71, 58
2, 23880, Note_on_c, 0, 71, 0
2, 23880, Note_on_c, 0, 72, 59
2, 24000, Note_on_c, 0, 72, 0
2, 24000, Note_on_c, 0, 74, 61
2, 24120, Note_on_c, 0, 74, 0
2, 24480, Note_on_c, 0, 71, 62
2, 24600, Note_on_c, 0, 71, 0
2, 24600, Note_on_c, 0, 72, 65
2, 24720, Note_on_c, 0, 72, 0
2, 24720, Note_on_c, 0, 74, 69
2, 24840, Note_on_c, 0, 74, 0
2, 24840, Note_on_c, 0, 76, 72
2, 24960, Note_on_c, 0, 76, 0
2, 24960, Note_on_c, 0, 77, 75
2, 25080, Note_on_c, 0, 77, 0
2, 25440, Note_on_c, 0, 74, 64
2, 25560, Note_on_c, 0, 74, 0
2, 25560, Note_on_c, 0, 76, 67
2, 25680, Note_on_c, 0, 76, 0
2, 25680, Note_on_c, 0, 77, 71
2, 25800, Note_on_c, 0, 77, 0
2, 25800, Note_on_c, 0, 79, 74
2, 25920, Note_on_c, 0, 79, 0
2, 25920, Note_on_c, 0, 81, 77
2, 25980, Note_on_c, 0, 81, 0
2, 26160, Note_on_c, 0, 80, 69
2, 26220, Note_on_c, 0, 80, 0
2, 26400, Note_on_c, 0, 79, 66
2, 26460, Note_on_c, 0, 79, 0
2, 26640, Note_on_c, 0, 78, 60
2, 26700, Note_on_c, 0, 78, 0
2, 26880, Note_on_c, 0, 77, 59
2, 27120, Note_on_c, 0, 77, 0
2, 27360, Note_on_c, 0, 76, 42
2, 27360, Note_on_c, 0, 79, 50
2, 27420, Note_on_c, 0, 79, 0
2, 27420, Note_on_c, 0, 76, 0
2, 27600, Note_on_c, 0, 76, 36
2, 27600, Note_on_c, 0, 79, 43
2, 27660, Note_on_c, 0, 79, 0
2, 27660, Note_on_c, 0, 76, 0
2, 27840, Note_on_c, 0, 72, 40
2, 27840, Note_on_c, 0, 76, 48
2, 28020, Note_on_c, 0, 76, 0
2, 28020, Note_on_c, 0, 72, 0
2, 28320, Note_on_c, 0, 74, 42
2, 28320, Note_on_c, 0, 77, 50
2, 28380, Note_on_c, 0, 77, 0
2, 28380, Note_on_c, 0, 74, 0
2, 28560, Note_on_c, 0, 74, 37
2, 28560, Note_on_c, 0, 77, 44
2, 28620, Note_on_c, 0, 77, 0
2, 28620, Note_on_c, 0, 74, 0
2, 28800, Note_on_c, 0, 71, 41
2, 28800, Note_on_c, 0, 74, 49
2, 28980, Note_on_c, 0, 74, 0
2, 28980, Note_on_c, 0, 71, 0
2, 29280, Note_on_c, 0, 72, 55
2, 29400, Note_on_c, 0, 74, 47
2, 29412, Note_on_c, 0, 72, 0
2, 29520, Note_on_c, 0, 76, 54
2, 29532, Note_on_c, 0, 74, 0
2, 29640, Note_on_c, 0, 72, 47
2, 29652, Note_on_c, 0, 76, 0
2, 29760, Note_on_c, 0, 69, 50
2, 29772, Note_on_c, 0, 72, 0
2, 29880, Note_on_c, 0, 71, 54
2, 29892, Note_on_c, 0, 69, 0
2, 30000, Note_on_c, 0, 72, 58
2, 30012, Note_on_c, 0, 71, 0
2, 30120, Note_on_c, 0, 73, 61
2, 30132, Note_on_c, 0, 72, 0
2, 30240, Note_on_c, 0, 74, 66
2, 30252, Note_on_c, 0, 73, 0
2, 30360, Note_on_c, 0, 76, 58
2, 30372, Note_on_c, 0, 74, 0
2, 30480, Note_on_c, 0, 77, 63
2, 30492, Note_on_c, 0, 76, 0
2, 30600, Note_on_c, 0, 74, 56
2, 30612, Note_on_c, 0, 77, 0
2, 30720, Note_on_c, 0, 72, 62
2, 30732, Note_on_c, 0, 74, 0
2, 30840, Note_on_c, 0, 71, 59
2, 30852, Note_on_c, 0, 72, 0
2, 30960, Note_on_c, 0, 69, 54
2, 30972, Note_on_c, 0, 71, 0
2, 31080, Note_on_c, 0, 67, 51
2, 31092, Note_on_c, 0, 69, 0
2, 31200, Note_on_c, 0, 67, 0
2, 31200, Note_on_c, 0, 76, 54
2, 31200, Note_on_c, 0, 79, 54
2, 31260, Note_on_c, 0, 79, 0
2, 31260, Note_on_c, 0, 76, 0
2, 31440, Note_on_c, 0, 76, 45
2, 31440, Note_on_c, 0, 79, 45
2, 31500, Note_on_c, 0, 79, 0
2, 31500, Note_on_c, 0, 76, 0
2, 31680, Note_on_c, 0, 72, 53
2, 31680, Note_on_c, 0, 76, 53
2, 31860, Note_on_c, 0, 76, 0
2, 31860, Note_on_c, 0, 72, 0
2, 32160, Note_on_c, 0, 77, 62
2, 32160, Note_on_c, 0, 81, 62
2, 32220, Note_on_c, 0, 81, 0
2, 32220, Note_on_c, 0, 77, 0
2, 32400, Note_on_c, 0, 77, 56
2, 32400, Note_on_c, 0, 81, 56
2, 32460, Note_on_c, 0, 81, 0
2, 32460, Note_on_c, 0, 77, 0
2, 32640, Note_on_c, 0, 71, 66
2, 32640, Note_on_c, 0, 74, 66
2, 32820, Note_on_c, 0, 74, 0
2, 32820, Note_on_c, 0, 71, 0
2, 33120, Note_on_c, 0, 81, 73
2, 33240, Note_on_c, 0, 79, 70
2, 33252, Note_on_c, 0, 81, 0
2, 33360, Note_on_c, 0, 77, 67
2, 33372, Note_on_c, 0, 79, 0
2, 33480, Note_on_c, 0, 76, 64
2, 33492, Note_on_c, 0, 77, 0
2, 33600, Note_on_c, 0, 76, 0
2, 33600, Note_on_c, 0, 73, 56
2, 33720, Note_on_c, 0, 74, 60
2, 33732, Note_on_c, 0, 73, 0
2, 33840, Note_on_c, 0, 76, 64
2, 33852, Note_on_c, 0, 74, 0
2, 33960, Note_on_c, 0, 77, 56
2, 33972, Note_on_c, 0, 76, 0
2, 34080, Note_on_c, 0, 77, 0
2, 34080, Note_on_c, 0, 69, 60
2, 34200, Note_on_c, 0, 69, 0
2, 34200, Note_on_c, 0, 72, 52
2, 34320, Note_on_c, 0, 72, 0
2, 34320, Note_on_c, 0, 71, 58
2, 34440, Note_on_c, 0, 71, 0
2, 34440, Note_on_c, 0, 74, 50
2, 34560, Note_on_c, 0, 74, 0
2, 34560, Note_on_c, 0, 72, 56
2, 34800, Note_on_c, 0, 72, 0
2, 35520, Note_on_c, 0, 76, 57
2, 35640, Note_on_c, 0, 75, 52
2, 35652, Note_on_c, 0, 76, 0
2, 35760, Note_on_c, 0, 77, 58
2, 35772, Note_on_c, 0, 75, 0
2, 35880, Note_on_c, 0, 76, 50
2, 35892, Note_on_c, 0, 77, 0
2, 36000, Note_on_c, 0, 76, 0
2, 36480, Note_on_c, 0, 76, 55
2, 36600, Note_on_c, 0, 75, 47
2, 36612, Note_on_c, 0, 76, 0
2, 36720, Note_on_c, 0, 77, 53
2, 36732, Note_on_c, 0, 75, 0
2, 36840, Note_on_c, 0, 76, 47
2, 36852, Note_on_c, 0, 77, 0
2, 36960, Note_on_c, 0, 76, 0
2, 36960, Note_on_c, 0, 84, 72
2, 36960, Note_on_c, 0, 76, 59
2, 37020, Note_on_c, 0, 76, 0
2, 37020, Note_on_c, 0, 84, 0
2, 37200, Note_on_c, 0, 84, 68
2, 37200, Note_on_c, 0, 76, 56
2, 37260, Note_on_c, 0, 76, 0
2, 37260, Note_on_c, 0, 84, 0
2, 37440, Note_on_c, 0, 81, 73
2, 37440, Note_on_c, 0, 72, 64
2, 37560, Note_on_c, 0, 72, 0
2, 37560, Note_on_c, 0, 81, 0
2, 37920, Note_on_c, 0, 74, 62
2, 37920, Note_on_c, 0, 83, 73
2, 37980, Note_on_c, 0, 83, 0
2, 37980, Note_on_c, 0, 74, 0
2, 38160, Note_on_c, 0, 74, 54
2, 38160, Note_on_c, 0, 83, 64
2, 38220, Note_on_c, 0, 83, 0
2, 38220, Note_on_c, 0, 74, 0
2, 38400, Note_on_c, 0, 71, 62
2, 38400, Note_on_c, 0, 80, 73
2, 38520, Note_on_c, 0, 80, 0
2, 38520, Note_on_c, 0, 71, 0
2, 38880, Note_on_c, 0, 81, 68
2, 39000, Note_on_c, 0, 81, 0
2, 39000, Note_on_c, 0, 76, 54
2, 39120, Note_on_c, 0, 76, 0
2, 39120, Note_on_c, 0, 72, 54
2, 39240, Note_on_c, 0, 72, 0
2, 39240, Note_on_c, 0, 69, 52
2, 39360, Note_on_c, 0, 69, 0
2, 39360, Note_on_c, 0, 72, 64
2, 39480, Note_on_c, 0, 72, 0
2, 39480, Note_on_c, 0, 70, 56
2, 39595, Note_on_c, 0, 70, 0
2, 39600, Note_on_c, 0, 70, 56
2, 39660, Note_on_c, 0, 70, 0
2, 39720, Note_on_c, 0, 70, 52
2, 39840, Note_on_c, 0, 70, 0
2, 39840, Note_on_c, 0, 74, 68
2, 39960, Note_on_c, 0, 74, 0
2, 39960, Note_on_c, 0, 73, 56
2, 40075, Note_on_c, 0, 73, 0
2, 40080, Note_on_c, 0, 73, 56
2, 40140, Note_on_c, 0, 73, 0
2, 40200, Note_on_c, 0, 73, 56
2, 40260, Note_on_c, 0, 73, 0
2, 40320, Note_on_c, 0, 76, 71
2, 40440, Note_on_c, 0, 76, 0
2, 40440, Note_on_c, 0, 74, 59
2, 40500, Note_on_c, 0, 74, 0
2, 40560, Note_on_c, 0, 77, 68
2, 40680, Note_on_c, 0, 77, 0
2, 40680, Note_on_c, 0, 76, 59
2, 40740, Note_on_c, 0, 76, 0
2, 40800, Note_on_c, 0, 79, 74
2, 40920, Note_on_c, 0, 79, 0
2, 40920, Note_on_c, 0, 77, 55
2, 40980, Note_on_c, 0, 77, 0
2, 41040, Note_on_c, 0, 77, 71
2, 41160, Note_on_c, 0, 77, 0
2, 41160, Note_on_c, 0, 76, 60
2, 41220, Note_on_c, 0, 76, 0
2, 41280, Note_on_c, 0, 76, 72
2, 41400, Note_on_c, 0, 76, 0
2, 41400, Note_on_c, 0, 75, 62
2, 41460, Note_on_c, 0, 75, 0
2, 41520, Note_on_c, 0, 84, 78
2, 42000, Note_on_c, 0, 84, 0
2, 42000, Note_on_c, 0, 75, 56
2, 42240, Note_on_c, 0, 75, 0
2, 42240, Note_on_c, 0, 76, 66
2, 42480, Note_on_c, 0, 76, 0
2, 42720, Note_on_c, 0, 83, 66
2, 42840, Note_on_c, 0, 83, 0
2, 42840, Note_on_c, 0, 80, 62
2, 42960, Note_on_c, 0, 80, 0
2, 42960, Note_on_c, 0, 76, 62
2, 43080, Note_on_c, 0, 76, 0
2, 43080, Note_on_c, 0, 74, 58
2, 43200, Note_on_c, 0, 74, 0
2, 43200, Note_on_c, 0, 72, 66
2, 43320, Note_on_c, 0, 72, 0
2, 43320, Note_on_c, 0, 76, 61
2, 43440, Note_on_c, 0, 76, 0
2, 43440, Note_on_c, 0, 81, 61
2, 43560, Note_on_c, 0, 81, 0
2, 43560, Note_on_c, 0, 80, 60
2, 43680, Note_on_c, 0, 80, 0
2, 43680, Note_on_c, 0, 81, 70
2, 43800, Note_on_c, 0, 81, 0
2, 43800, Note_on_c, 0, 76, 63
2, 43920, Note_on_c, 0, 76, 0
2, 43920, Note_on_c, 0, 72, 63
2, 44040, Note_on_c, 0, 72, 0
2, 44040, Note_on_c, 0, 69, 59
2, 44160, Note_on_c, 0, 69, 0
2, 44160, Note_on_c, 0, 68, 70
2, 44280, Note_on_c, 0, 68, 0
2, 44280, Note_on_c, 0, 71, 63
2, 44400, Note_on_c, 0, 71, 0
2, 44400, Note_on_c, 0, 76, 62
2, 44520, Note_on_c, 0, 76, 0
2, 44520, Note_on_c, 0, 80, 59
2, 44640, Note_on_c, 0, 80, 0
2, 44640, Note_on_c, 0, 83, 71
2, 44760, Note_on_c, 0, 83, 0
2, 44760, Note_on_c, 0, 80, 62
2, 44880, Note_on_c, 0, 80, 0
2, 44880, Note_on_c, 0, 76, 62
2, 45000, Note_on_c, 0, 76, 0
2, 45000, Note_on_c, 0, 74, 59
2, 45120, Note_on_c, 0, 74, 0
2, 45120, Note_on_c, 0, 72, 70
2, 45240, Note_on_c, 0, 72, 0
2, 45240, Note_on_c, 0, 76, 63
2, 45360, Note_on_c, 0, 76, 0
2, 45360, Note_on_c, 0, 81, 63
2, 45480, Note_on_c, 0, 81, 0
2, 45480, Note_on_c, 0, 80, 59
2, 45600, Note_on_c, 0, 80, 0
2, 45600, Note_on_c, 0, 81, 66
2, 45720, Note_on_c, 0, 81, 0
2, 45720, Note_on_c, 0, 76, 62
2, 45840, Note_on_c, 0, 76, 0
2, 45840, Note_on_c, 0, 72, 62
2, 45960, Note_on_c, 0, 72, 0
2, 45960, Note_on_c, 0, 69, 59
2, 46080, Note_on_c, 0, 69, 0
2, 46080, Note_on_c, 0, 64, 70
2, 46320, Note_on_c, 0, 64, 0
2, 46560, Note_on_c, 0, 72, 39
2, 46560, Note_on_c, 0, 76, 46
2, 46620, Note_on_c, 0, 76, 0
2, 46620, Note_on_c, 0, 72, 0
2, 46800, Note_on_c, 0, 72, 34
2, 46800, Note_on_c, 0, 76, 41
2, 46860, Note_on_c, 0, 76, 0
2, 46860, Note_on_c, 0, 72, 0
2, 47040, Note_on_c, 0, 69, 24
2, 47040, Note_on_c, 0, 72, 50
2, 47160, Note_on_c, 0, 72, 0
2, 47160, Note_on_c, 0, 69, 0
2, 47520, Note_on_c, 0, 71, 39
2, 47520, Note_on_c, 0, 74, 47
2, 47580, Note_on_c, 0, 74, 0
2, 47580, Note_on_c, 0, 71, 0
2, 47760, Note_on_c, 0, 71, 33
2, 47760, Note_on_c, 0, 74, 39
2, 47820, Note_on_c, 0, 74, 0
2, 47820, Note_on_c, 0, 71, 0
2, 48000, Note_on_c, 0, 68, 40
2, 48000, Note_on_c, 0, 71, 48
2, 48120, Note_on_c, 0, 71, 0
2, 48120, Note_on_c, 0, 68, 0
2, 48960, Note_on_c, 0, 64, 57
2, 49080, Note_on_c, 0, 63, 52
2, 49092, Note_on_c, 0, 64, 0
2, 49200, Note_on_c, 0, 65, 57
2, 49212, Note_on_c, 0, 63, 0
2, 49320, Note_on_c, 0, 64, 52
2, 49332, Note_on_c, 0, 65, 0
2, 49440, Note_on_c, 0, 64, 0
2, 49920, Note_on_c, 0, 88, 76
2, 50040, Note_on_c, 0, 88, 0
2, 50040, Note_on_c, 0, 87, 64
2, 50160, Note_on_c, 0, 87, 0
2, 50160, Note_on_c, 0, 89, 68
2, 50280, Note_on_c, 0, 89, 0
2, 50280, Note_on_c, 0, 88, 62
2, 50400, Note_on_c, 0, 88, 0
2, 50400, Note_on_c, 0, 86, 73
2, 50520, Note_on_c, 0, 86, 0
2, 50520, Note_on_c, 0, 85, 63
2, 50640, Note_on_c, 0, 85, 0
2, 50640, Note_on_c, 0, 88, 71
2, 50760, Note_on_c, 0, 88, 0
2, 50760, Note_on_c, 0, 86, 59
2, 50875, Note_on_c, 0, 86, 0
2, 50880, Note_on_c, 0, 86, 72
2, 51000, Note_on_c, 0, 86, 0
2, 51000, Note_on_c, 0, 84, 62
2, 51090, Note_on_c, 0, 84, 0
2, 51120, Note_on_c, 0, 84, 67
2, 51180, Note_on_c, 0, 84, 0
2, 51240, Note_on_c, 0, 83, 61
2, 51360, Note_on_c, 0, 83, 0
2, 51360, Note_on_c, 0, 83, 71
2, 51450, Note_on_c, 0, 83, 0
2, 51480, Note_on_c, 0, 81, 59
2, 51600, Note_on_c, 0, 81, 0
2, 51600, Note_on_c, 0, 81, 68
2, 51660, Note_on_c, 0, 81, 0
2, 51720, Note_on_c, 0, 79, 57
2, 51780, Note_on_c, 0, 79, 0
2, 51840, Note_on_c, 0, 79, 69
2, 51960, Note_on_c, 0, 79, 0
2, 51960, Note_on_c, 0, 77, 57
2, 52020, Note_on_c, 0, 77, 0
2, 52080, Note_on_c, 0, 77, 65
2, 52200, Note_on_c, 0, 77, 0
2, 52200, Note_on_c, 0, 76, 57
2, 52260, Note_on_c, 0, 76, 0
2, 52320, Note_on_c, 0, 76, 64
2, 52440, Note_on_c, 0, 76, 0
2, 52440, Note_on_c, 0, 74, 56
2, 52500, Note_on_c, 0, 74, 0
2, 52560, Note_on_c, 0, 74, 62
2, 52680, Note_on_c, 0, 74, 0
2, 52680, Note_on_c, 0, 72, 55
2, 52740, Note_on_c, 0, 72, 0
2, 52800, Note_on_c, 0, 70, 66
2, 52920, Note_on_c, 0, 70, 0
2, 52920, Note_on_c, 0, 77, 54
2, 53040, Note_on_c, 0, 77, 0
2, 53040, Note_on_c, 0, 74, 57
2, 53160, Note_on_c, 0, 74, 0
2, 53160, Note_on_c, 0, 70, 53
2, 53280, Note_on_c, 0, 70, 0
2, 53280, Note_on_c, 0, 69, 60
2, 53520, Note_on_c, 0, 69, 0
2, 53520, Note_on_c, 0, 68, 56
2, 53760, Note_on_c, 0, 68, 0
2, 53760, Note_on_c, 0, 69, 66
2, 54000, Note_on_c, 0, 69, 0
2, 54240, Note_on_c, 0, 68, 66
2, 54360, Note_on_c, 0, 68, 0
2, 54360, Note_on_c, 0, 74, 62
2, 54480, Note_on_c, 0, 74, 0
2, 54480, Note_on_c, 0, 71, 62
2, 54600, Note_on_c, 0, 71, 0
2, 54600, Note_on_c, 0, 68, 58
2, 54720, Note_on_c, 0, 68, 0
2, 54720, Note_on_c, 0, 69, 66
2, 54960, Note_on_c, 0, 69, 0
2, 55200, Note_on_c, 0, 68, 70
2, 55320, Note_on_c, 0, 68, 0
2, 55320, Note_on_c, 0, 74, 63
2, 55440, Note_on_c, 0, 74, 0
2, 55440, Note_on_c, 0, 71, 63
2, 55560, Note_on_c, 0, 71, 0
2, 55560, Note_on_c, 0, 68, 59
2, 55680, Note_on_c, 0, 68, 0
2, 55680, Note_on_c, 0, 69, 66
2, 55920, Note_on_c, 0, 69, 0
2, 56160, Note_on_c, 0, 68, 66
2, 56280, Note_on_c, 0, 68, 0
2, 56280, Note_on_c, 0, 74, 60
2, 56400, Note_on_c, 0, 74, 0
2, 56400, Note_on_c, 0, 71, 60
2, 56520, Note_on_c, 0, 71, 0
2, 56520, Note_on_c, 0, 68, 54
2, 56640, Note_on_c, 0, 68, 0
2, 56640, Note_on_c, 0, 69, 69
2, 56760, Note_on_c, 0, 69, 0
2, 56760, Note_on_c, 0, 76, 64
2, 56880, Note_on_c, 0, 76, 0
2, 56880, Note_on_c, 0, 72, 64
2, 57000, Note_on_c, 0, 72, 0
2, 57000, Note_on_c, 0, 69, 58
2, 57120, Note_on_c, 0, 69, 0
2, 57120, Note_on_c, 0, 71, 77
2, 57240, Note_on_c, 0, 71, 0
2, 57240, Note_on_c, 0, 77, 66
2, 57360, Note_on_c, 0, 77, 0
2, 57360, Note_on_c, 0, 74, 66
2, 57480, Note_on_c, 0, 74, 0
2, 57480, Note_on_c, 0, 71, 59
2, 57600, Note_on_c, 0, 71, 0
2, 58080, Note_on_c, 0, 76, 42
2, 58080, Note_on_c, 0, 79, 50
2, 58140, Note_on_c, 0, 79, 0
2, 58140, Note_on_c, 0, 76, 0
2, 58320, Note_on_c, 0, 76, 36
2, 58320, Note_on_c, 0, 79, 43
2, 58380, Note_on_c, 0, 79, 0
2, 58380, Note_on_c, 0, 76, 0
2, 58560, Note_on_c, 0, 72, 40
2, 58560, Note_on_c, 0, 76, 48
2, 58740, Note_on_c, 0, 76, 0
2, 58740, Note_on_c, 0, 72, 0
2, 59040, Note_on_c, 0, 74, 42
2, 59040, Note_on_c, 0, 77, 50
2, 59100, Note_on_c, 0, 77, 0
2, 59100, Note_on_c, 0, 74, 0
2, 59280, Note_on_c, 0, 74, 37
2, 59280, Note_on_c, 0, 77, 44
2, 59340, Note_on_c, 0, 77, 0
2, 59340, Note_on_c, 0, 74, 0
2, 59520, Note_on_c, 0, 71, 41
2, 59520, Note_on_c, 0, 74, 49
2, 59700, Note_on_c, 0, 74, 0
2, 59700, Note_on_c, 0, 71, 0
2, 60000, Note_on_c, 0, 72, 53
2, 60120, Note_on_c, 0, 74, 47
2, 60132, Note_on_c, 0, 72, 0
2, 60240, Note_on_c, 0, 76, 53
2, 60252, Note_on_c, 0, 74, 0
2, 60360, Note_on_c, 0, 72, 47
2, 60372, Note_on_c, 0, 76, 0
2, 60480, Note_on_c, 0, 69, 50
2, 60492, Note_on_c, 0, 72, 0
2, 60600, Note_on_c, 0, 71, 53
2, 60612, Note_on_c, 0, 69, 0
2, 60720, Note_on_c, 0, 72, 58
2, 60732, Note_on_c, 0, 71, 0
2, 60840, Note_on_c, 0, 73, 62
2, 60852, Note_on_c, 0, 72, 0
2, 60960, Note_on_c, 0, 74, 66
2, 60972, Note_on_c, 0, 73, 0
2, 61080, Note_on_c, 0, 76, 56
2, 61092, Note_on_c, 0, 74, 0
2, 61200, Note_on_c, 0, 77, 62
2, 61212, Note_on_c, 0, 76, 0
2, 61320, Note_on_c, 0, 74, 60
2, 61332, Note_on_c, 0, 77, 0
2, 61440, Note_on_c, 0, 72, 67
2, 61452, Note_on_c, 0, 74, 0
2, 61560, Note_on_c, 0, 71, 62
2, 61572, Note_on_c, 0, 72, 0
2, 61680, Note_on_c, 0, 69, 58
2, 61692, Note_on_c, 0, 71, 0
2, 61800, Note_on_c, 0, 67, 47
2, 61812, Note_on_c, 0, 69, 0
2, 61920, Note_on_c, 0, 67, 0
2, 61920, Note_on_c, 0, 76, 42
2, 61920, Note_on_c, 0, 79, 50
2, 61980, Note_on_c, 0, 79, 0
2, 61980, Note_on_c, 0, 76, 0
2, 62160, Note_on_c, 0, 76, 36
2, 62160, Note_on_c, 0, 79, 43
2, 62220, Note_on_c, 0, 79, 0
2, 62220, Note_on_c, 0, 76, 0
2, 62400, Note_on_c, 0, 72, 40
2, 62400, Note_on_c, 0, 76, 48
2, 62580, Note_on_c, 0, 76, 0
2, 62580, Note_on_c, 0, 72, 0
2, 62880, Note_on_c, 0, 77, 62
2, 62880, Note_on_c, 0, 81, 62
2, 62940, Note_on_c, 0, 81, 0
2, 62940, Note_on_c, 0, 77, 0
2, 63120, Note_on_c, 0, 77, 55
2, 63120, Note_on_c, 0, 81, 55
2, 63180, Note_on_c, 0, 81, 0
2, 63180, Note_on_c, 0, 77, 0
2, 63360, Note_on_c, 0, 71, 60
2, 63360, Note_on_c, 0, 74, 60
2, 63540, Note_on_c, 0, 74, 0
2, 63540, Note_on_c, 0, 71, 0
2, 63840, Note_on_c, 0, 81, 70
2, 63960, Note_on_c, 0, 79, 67
2, 63972, Note_on_c, 0, 81, 0
2, 64080, Note_on_c, 0, 77, 64
2, 64092, Note_on_c, 0, 79, 0
2, 64200, Note_on_c, 0, 76, 61
2, 64212, Note_on_c, 0, 77, 0
2, 64320, Note_on_c, 0, 76, 0
2, 64320, Note_on_c, 0, 73, 57
2, 64440, Note_on_c, 0, 74, 58
2, 64452, Note_on_c, 0, 73, 0
2, 64560, Note_on_c, 0, 76, 59
2, 64572, Note_on_c, 0, 74, 0
2, 64680, Note_on_c, 0, 77, 56
2, 64692, Note_on_c, 0, 76, 0
2, 64800, Note_on_c, 0, 77, 0
2, 64800, Note_on_c, 0, 69, 60
2, 64920, Note_on_c, 0, 69, 0
2, 64920, Note_on_c, 0, 72, 52
2, 65040, Note_on_c, 0, 72, 0
2, 65040, Note_on_c, 0, 71, 58
2, 65160, Note_on_c, 0, 71, 0
2, 65160, Note_on_c, 0, 74, 50
2, 65280, Note_on_c, 0, 74, 0
2, 65280, Note_on_c, 0, 72, 56
2, 65520, Note_on_c, 0, 72, 0
2, 65760, Note_on_c, 0, 71, 61
2, 65880, Note_on_c, 0, 71, 0
2, 65880, Note_on_c, 0, 77, 56
2, 66000, Note_on_c, 0, 77, 0
2, 66000, Note_on_c, 0, 74, 56
2, 66120, Note_on_c, 0, 74, 0
2, 66120, Note_on_c, 0, 71, 56
2, 66240, Note_on_c, 0, 71, 0
2, 66240, Note_on_c, 0, 81, 61
2, 66360, Note_on_c, 0, 81, 0
2, 66360, Note_on_c, 0, 79, 57
2, 66480, Note_on_c, 0, 79, 0
2, 66480, Note_on_c, 0, 77, 59
2, 66600, Note_on_c, 0, 77, 0
2, 66600, Note_on_c, 0, 76, 61
2, 66720, Note_on_c, 0, 76, 0
2, 66720, Note_on_c, 0, 74, 68
2, 66840, Note_on_c, 0, 74, 0
2, 66840, Note_on_c, 0, 77, 62
2, 66960, Note_on_c, 0, 77, 0
2, 66960, Note_on_c, 0, 74, 61
2, 67080, Note_on_c, 0, 74, 0
2, 67080, Note_on_c, 0, 71, 61
2, 67200, Note_on_c, 0, 71, 0
2, 67200, Note_on_c, 0, 81, 72
2, 67320, Note_on_c, 0, 81, 0
2, 67320, Note_on_c, 0, 79, 61
2, 67440, Note_on_c, 0, 79, 0
2, 67440, Note_on_c, 0, 77, 61
2, 67560, Note_on_c, 0, 77, 0
2, 67560, Note_on_c, 0, 76, 61
2, 67680, Note_on_c, 0, 76, 0
2, 67680, Note_on_c, 0, 86, 74
2, 67800, Note_on_c, 0, 86, 0
2, 67800, Note_on_c, 0, 84, 64
2, 67920, Note_on_c, 0, 84, 0
2, 67920, Note_on_c, 0, 83, 64
2, 68040, Note_on_c, 0, 83, 0
2, 68040, Note_on_c, 0, 81, 64
2, 68155, Note_on_c, 0, 81, 0
2, 68160, Note_on_c, 0, 81, 71
2, 68280, Note_on_c, 0, 81, 0
2, 68280, Note_on_c, 0, 79, 61
2, 68400, Note_on_c, 0, 79, 0
2, 68400, Note_on_c, 0, 77, 61
2, 68460, Note_on_c, 0, 77, 0
2, 68520, Note_on_c, 0, 76, 61
2, 68580, Note_on_c, 0, 76, 0
2, 68640, Note_on_c, 0, 76, 67
2, 68760, Note_on_c, 0, 76, 0
2, 68760, Note_on_c, 0, 74, 57
2, 68880, Note_on_c, 0, 74, 0
2, 68880, Note_on_c, 0, 72, 57
2, 68940, Note_on_c, 0, 72, 0
2, 69000, Note_on_c, 0, 71, 57
2, 69060, Note_on_c, 0, 71, 0
2, 69120, Note_on_c, 0, 74, 61
2, 69360, Note_on_c, 0, 74, 0
2, 69360, Note_on_c, 0, 72, 57
2, 69600, Note_on_c, 0, 72, 0
2, 69600, Note_on_c, 0, 71, 61
2, 69720, Note_on_c, 0, 71, 0
2, 69720, Note_on_c, 0, 77, 56
2, 69840, Note_on_c, 0, 77, 0
2, 69840, Note_on_c, 0, 74, 56
2, 69960, Note_on_c, 0, 74, 0
2, 69960, Note_on_c, 0, 71, 56
2, 70080, Note_on_c, 0, 71, 0
2, 70080, Note_on_c, 0, 81, 61
2, 70200, Note_on_c, 0, 81, 0
2, 70200, Note_on_c, 0, 79, 57
2, 70320, Note_on_c, 0, 79, 0
2, 70320, Note_on_c, 0, 77, 59
2, 70440, Note_on_c, 0, 77, 0
2, 70440, Note_on_c, 0, 76, 61
2, 70560, Note_on_c, 0, 76, 0
2, 70560, Note_on_c, 0, 74, 68
2, 70680, Note_on_c, 0, 74, 0
2, 70680, Note_on_c, 0, 77, 62
2, 70800, Note_on_c, 0, 77, 0
2, 70800, Note_on_c, 0, 74, 61
2, 70920, Note_on_c, 0, 74, 0
2, 70920, Note_on_c, 0, 71, 61
2, 71040, Note_on_c, 0, 71, 0
2, 71040, Note_on_c, 0, 81, 72
2, 71160, Note_on_c, 0, 81, 0
2, 71160, Note_on_c, 0, 79, 61
2, 71280, Note_on_c, 0, 79, 0
2, 71280, Note_on_c, 0, 77, 61
2, 71400, Note_on_c, 0, 77, 0
2, 71400, Note_on_c, 0, 76, 61
2, 71520, Note_on_c, 0, 76, 0
2, 71520, Note_on_c, 0, 86, 77
2, 71640, Note_on_c, 0, 86, 0
2, 71640, Note_on_c, 0, 84, 64
2, 71760, Note_on_c, 0, 84, 0
2, 71760, Note_on_c, 0, 83, 64
2, 71880, Note_on_c, 0, 83, 0
2, 71880, Note_on_c, 0, 81, 64
2, 71995, Note_on_c, 0, 81, 0
2, 72000, Note_on_c, 0, 81, 80
2, 72120, Note_on_c, 0, 81, 0
2, 72120, Note_on_c, 0, 79, 69
2, 72240, Note_on_c, 0, 79, 0
2, 72240, Note_on_c, 0, 77, 70
2, 72300, Note_on_c, 0, 77, 0
2, 72360, Note_on_c, 0, 76, 71
2, 72420, Note_on_c, 0, 76, 0
2, 72480, Note_on_c, 0, 76, 83
2, 72600, Note_on_c, 0, 76, 0
2, 72600, Note_on_c, 0, 74, 71
2, 72720, Note_on_c, 0, 74, 0
2, 72720, Note_on_c, 0, 72, 69
2, 72780, Note_on_c, 0, 72, 0
2, 72840, Note_on_c, 0, 71, 75
2, 72900, Note_on_c, 0, 71, 0
2, 72960, Note_on_c, 0, 72, 86
2, 73080, Note_on_c, 0, 72, 0
2, 73080, Note_on_c, 0, 76, 75
2, 73200, Note_on_c, 0, 76, 0
2, 73200, Note_on_c, 0, 67, 80
2, 73320, Note_on_c, 0, 67, 0
2, 73320, Note_on_c, 0, 72, 75
2, 73440, Note_on_c, 0, 72, 0
2, 73440, Note_on_c, 0, 64, 80
2, 73560, Note_on_c, 0, 64, 0
2, 73560, Note_on_c, 0, 67, 75
2, 73680, Note_on_c, 0, 67, 0
2, 73680, Note_on_c, 0, 60, 80
2, 73800, Note_on_c, 0, 60, 0
2, 73800, Note_on_c, 0, 64, 75
2, 73920, Note_on_c, 0, 64, 0
2, 73920, Note_on_c, 0, 67, 71
2, 74040, Note_on_c, 0, 67, 0
2, 74040, Note_on_c, 0, 72, 73
2, 74160, Note_on_c, 0, 72, 0
2, 74160, Note_on_c, 0, 72, 62
2, 74160, Note_on_c, 0, 76, 74
2, 74280, Note_on_c, 0, 76, 0
2, 74280, Note_on_c, 0, 72, 0
2, 74280, Note_on_c, 0, 76, 63
2, 74280, Note_on_c, 0, 79, 77
2, 74370, Note_on_c, 0, 79, 0
2, 74370, Note_on_c, 0, 76, 0
2, 74400, Note_on_c, 0, 76, 67
2, 74400, Note_on_c, 0, 79, 80
2, 74520, Note_on_c, 0, 79, 0
2, 74520, Note_on_c, 0, 76, 0
2, 74520, Note_on_c, 0, 74, 63
2, 74520, Note_on_c, 0, 77, 75
2, 74640, Note_on_c, 0, 77, 0
2, 74640, Note_on_c, 0, 74, 0
2, 74640, Note_on_c, 0, 72, 62
2, 74640, Note_on_c, 0, 76, 74
2, 74700, Note_on_c, 0, 76, 0
2, 74700, Note_on_c, 0, 72, 0
2, 74760, Note_on_c, 0, 71, 61
2, 74760, Note_on_c, 0, 74, 73
2, 74820, Note_on_c, 0, 74, 0
2, 74820, Note_on_c, 0, 71, 0
2, 74880, Note_on_c, 0, 72, 83
2, 75000, Note_on_c, 0, 72, 0
2, 75000, Note_on_c, 0, 76, 73
2, 75120, Note_on_c, 0, 76, 0
2, 75120, Note_on_c, 0, 67, 77
2, 75240, Note_on_c, 0, 67, 0
2, 75240, Note_on_c, 0, 72, 72
2, 75360, Note_on_c, 0, 72, 0
2, 75360, Note_on_c, 0, 64, 83
2, 75480, Note_on_c, 0, 64, 0
2, 75480, Note_on_c, 0, 67, 71
2, 75600, Note_on_c, 0, 67, 0
2, 75600, Note_on_c, 0, 60, 78
2, 75720, Note_on_c, 0, 60, 0
2, 75720, Note_on_c, 0, 64, 74
2, 75840, Note_on_c, 0, 64, 0
2, 75840, Note_on_c, 0, 67, 71
2, 75960, Note_on_c, 0, 67, 0
2, 75960, Note_on_c, 0, 72, 73
2, 76080, Note_on_c, 0, 72, 0
2, 76080, Note_on_c, 0, 72, 62
2, 76080, Note_on_c, 0, 76, 74
2, 76200, Note_on_c, 0, 76, 0
2, 76200, Note_on_c, 0, 72, 0
2, 76200, Note_on_c, 0, 76, 63
2, 76200, Note_on_c, 0, 79, 77
2, 76290, Note_on_c, 0, 79, 0
2, 76290, Note_on_c, 0, 76, 0
2, 76320, Note_on_c, 0, 76, 67
2, 76320, Note_on_c, 0, 79, 80
2, 76440, Note_on_c, 0, 79, 0
2, 76440, Note_on_c, 0, 76, 0
2, 76440, Note_on_c, 0, 74, 63
2, 76440, Note_on_c, 0, 77, 75
2, 76560, Note_on_c, 0, 77, 0
2, 76560, Note_on_c, 0, 74, 0
2, 76560, Note_on_c, 0, 72, 62
2, 76560, Note_on_c, 0, 76, 74
2, 76620, Note_on_c, 0, 76, 0
2, 76620, Note_on_c, 0, 72, 0
2, 76680, Note_on_c, 0, 71, 61
2, 76680, Note_on_c, 0, 74, 73
2, 76740, Note_on_c, 0, 74, 0
2, 76740, Note_on_c, 0, 71, 0
2, 76800, Note_on_c, 0, 72, 88
2, 77040, Note_on_c, 0, 72, 0
2, 77040, Note_on_c, 0, 84, 80
2, 77040, Note_on_c, 0, 79, 67
2, 77040, Note_on_c, 0, 76, 67
2, 77220, Note_on_c, 0, 76, 0
2, 77220, Note_on_c, 0, 79, 0
2, 77220, Note_on_c, 0, 84, 0
2, 77280, Note_on_c, 0, 64, 72
2, 77280, Note_on_c, 0, 72, 85
2, 77460, Note_on_c, 0, 72, 0
2, 77460, Note_on_c, 0, 64, 0
2, 77520, Note_on_c, 0, 64, 67
2, 77520, Note_on_c, 0, 72, 83
2, 77700, Note_on_c, 0, 72, 0
2, 77700, Note_on_c, 0, 64, 0
2, 77760, Note_on_c, 0, 64, 73
2, 77760, Note_on_c, 0, 72, 86
2, 78240, Note_on_c, 0, 72, 0
2, 78240, Note_on_c, 0, 64, 0
2, 78240, End_track
3, 0, Start_track
3, 0, Title_t, "Piano left"
3, 0, Program_c, 0, 0
3, 960, Note_on_c, 0, 60, 36
3, 960, Note_on_c, 0, 57, 30
3, 1020, Note_on_c, 0, 57, 0
3, 1020, Note_on_c, 0, 60, 0
3, 1200, Note_on_c, 0, 60, 34
3, 1200, Note_on_c, 0, 57, 28
3, 1260, Note_on_c, 0, 57, 0
3, 1260, Note_on_c, 0, 60, 0
3, 1440, Note_on_c, 0, 57, 29
3, 1440, Note_on_c, 0, 53, 24
3, 1560, Note_on_c, 0, 53, 0
3, 1560, Note_on_c, 0, 57, 0
3, 1920, Note_on_c, 0, 55, 34
3, 1920, Note_on_c, 0, 59, 40
3, 1980, Note_on_c, 0, 59, 0
3, 1980, Note_on_c, 0, 55, 0
3, 2160, Note_on_c, 0, 55, 28
3, 2160, Note_on_c, 0, 59, 33
3, 2220, Note_on_c, 0, 59, 0
3, 2220, Note_on_c, 0, 55, 0
3, 2400, Note_on_c, 0, 52, 32
3, 2400, Note_on_c, 0, 55, 38
3, 2520, Note_on_c, 0, 55, 0
3, 2520, Note_on_c, 0, 52, 0
3, 2880, Note_on_c, 0, 53, 42
3, 3600, Note_on_c, 0, 53, 0
3, 3600, Note_on_c, 0, 50, 38
3, 3840, Note_on_c, 0, 50, 0
3, 3840, Note_on_c, 0, 55, 44
3, 4080, Note_on_c, 0, 55, 0
3, 4800, Note_on_c, 0, 60, 36
3, 4800, Note_on_c, 0, 57, 30
3, 4860, Note_on_c, 0, 57, 0
3, 4860, Note_on_c, 0, 60, 0
3, 5040, Note_on_c, 0, 60, 34
3, 5040, Note_on_c, 0, 57, 28
3, 5100, Note_on_c, 0, 57, 0
3, 5100, Note_on_c, 0, 60, 0
3, 5280, Note_on_c, 0, 53, 29
3, 5280, Note_on_c, 0, 50, 24
3, 5400, Note_on_c, 0, 50, 0
3, 5400, Note_on_c, 0, 53, 0
3, 5760, Note_on_c, 0, 55, 39
3, 5760, Note_on_c, 0, 59, 46
3, 5820, Note_on_c, 0, 59, 0
3, 5820, Note_on_c, 0, 55, 0
3, 6000, Note_on_c, 0, 55, 31
3, 6000, Note_on_c, 0, 59, 37
3, 6060, Note_on_c, 0, 59, 0
3, 6060, Note_on_c, 0, 55, 0
3, 6240, Note_on_c, 0, 48, 37
3, 6240, Note_on_c, 0, 52, 44
3, 6360, Note_on_c, 0, 52, 0
3, 6360, Note_on_c, 0, 48, 0
3, 6720, Note_on_c, 0, 57, 42
3, 6720, Note_on_c, 0, 53, 35
3, 7440, Note_on_c, 0, 53, 0
3, 7440, Note_on_c, 0, 57, 0
3, 7440, Note_on_c, 0, 65, 43
3, 7440, Note_on_c, 0, 55, 36
3, 7680, Note_on_c, 0, 55, 0
3, 7680, Note_on_c, 0, 65, 0
3, 7680, Note_on_c, 0, 64, 51
3, 7680, Note_on_c, 0, 60, 43
3, 7920, Note_on_c, 0, 60, 0
3, 7920, Note_on_c, 0, 64, 0
3, 7920, Note_on_c, 0, 48, 47
3, 8040, Note_on_c, 0, 48, 0
3, 8640, Note_on_c, 0, 60, 36
3, 8640, Note_on_c, 0, 57, 30
3, 8700, Note_on_c, 0, 57, 0
3, 8700, Note_on_c, 0, 60, 0
3, 8880, Note_on_c, 0, 60, 34
3, 8880, Note_on_c, 0, 57, 28
3, 8940, Note_on_c, 0, 57, 0
3, 8940, Note_on_c, 0, 60, 0
3, 9120, Note_on_c, 0, 57, 29
3, 9120, Note_on_c, 0, 53, 24
3, 9240, Note_on_c, 0, 53, 0
3, 9240, Note_on_c, 0, 57, 0
3, 9600, Note_on_c, 0, 55, 34
3, 9600, Note_on_c, 0, 59, 40
3, 9660, Note_on_c, 0, 59, 0
3, 9660, Note_on_c, 0, 55, 0
3, 9840, Note_on_c, 0, 55, 28
3, 9840, Note_on_c, 0, 59, 33
3, 9900, Note_on_c, 0, 59, 0
3, 9900, Note_on_c, 0, 55, 0
3, 10080, Note_on_c, 0, 52, 32
3, 10080, Note_on_c, 0, 55, 38
3, 10200, Note_on_c, 0, 55, 0
3, 10200, Note_on_c, 0, 52, 0
3, 10560, Note_on_c, 0, 53, 42
3, 11280, Note_on_c, 0, 53, 0
3, 11280, Note_on_c, 0, 50, 38
3, 11520, Note_on_c, 0, 50, 0
3, 11520, Note_on_c, 0, 55, 44
3, 11760, Note_on_c, 0, 55, 0
3, 12480, Note_on_c, 0, 60, 36
3, 12480, Note_on_c, 0, 57, 30
3, 12540, Note_on_c, 0, 57, 0
3, 12540, Note_on_c, 0, 60, 0
3, 12720, Note_on_c, 0, 60, 34
3, 12720, Note_on_c, 0, 57, 28
3, 12780, Note_on_c, 0, 57, 0
3, 12780, Note_on_c, 0, 60, 0
3, 12960, Note_on_c, 0, 53, 29
3, 12960, Note_on_c, 0, 50, 24
3, 13080, Note_on_c, 0, 50, 0
3, 13080, Note_on_c, 0, 53, 0
3, 13440, Note_on_c, 0, 55, 39
3, 13440, Note_on_c, 0, 59, 46
3, 13500, Note_on_c, 0, 59, 0
3, 13500, Note_on_c, 0, 55, 0
3, 13680, Note_on_c, 0, 55, 31
3, 13680, Note_on_c, 0, 59, 37
3, 13740, Note_on_c, 0, 59, 0
3, 13740, Note_on_c, 0, 55, 0
3, 13920, Note_on_c, 0, 48, 37
3, 13920, Note_on_c, 0, 52, 44
3, 14040, Note_on_c, 0, 52, 0
3, 14040, Note_on_c, 0, 48, 0
3, 14400, Note_on_c, 0, 57, 42
3, 14400, Note_on_c, 0, 53, 35
3, 15120, Note_on_c, 0, 53, 0
3, 15120, Note_on_c, 0, 57, 0
3, 15120, Note_on_c, 0, 65, 43
3, 15120, Note_on_c, 0, 55, 36
3, 15360, Note_on_c, 0, 55, 0
3, 15360, Note_on_c, 0, 65, 0
3, 15360, Note_on_c, 0, 64, 51
3, 15360, Note_on_c, 0, 60, 43
3, 15600, Note_on_c, 0, 60, 0
3, 15600, Note_on_c, 0, 64, 0
3, 15600, Note_on_c, 0, 48, 47
3, 15720, Note_on_c, 0, 48, 0
3, 15840, Note_on_c, 0, 60, 40
3, 15960, Note_on_c, 0, 67, 36
3, 15972, Note_on_c, 0, 60, 0
3, 16080, Note_on_c, 0, 64, 36
3, 16092, Note_on_c, 0, 67, 0
3, 16200, Note_on_c, 0, 67, 36
3, 16212, Note_on_c, 0, 64, 0
3, 16320, Note_on_c, 0, 67, 0
3, 16320, Note_on_c, 0, 59, 40
3, 16440, Note_on_c, 0, 67, 35
3, 16452, Note_on_c, 0, 59, 0
3, 16560, Note_on_c, 0, 62, 35
3, 16572, Note_on_c, 0, 67, 0
3, 16680, Note_on_c, 0, 67, 35
3, 16692, Note_on_c, 0, 62, 0
3, 16800, Note_on_c, 0, 67, 0
3, 16800, Note_on_c, 0, 54, 40
3, 16920, Note_on_c, 0, 62, 36
3, 16932, Note_on_c, 0, 54, 0
3, 17040, Note_on_c, 0, 57, 36
3, 17052, Note_on_c, 0, 62, 0
3, 17160, Note_on_c, 0, 62, 36
3, 17172, Note_on_c, 0, 57, 0
3, 17280, Note_on_c, 0, 62, 0
3, 17280, Note_on_c, 0, 55, 40
3, 17400, Note_on_c, 0, 62, 36
3, 17412, Note_on_c, 0, 55, 0
3, 17520, Note_on_c, 0, 59, 36
3, 17532, Note_on_c, 0, 62, 0
3, 17640, Note_on_c, 0, 62, 36
3, 17652, Note_on_c, 0, 59, 0
3, 17760, Note_on_c, 0, 62, 0
3, 17760, Note_on_c, 0, 47, 44
3, 17880, Note_on_c, 0, 55, 38
3, 17892, Note_on_c, 0, 47, 0
3, 18000, Note_on_c, 0, 50, 38
3, 18012, Note_on_c, 0, 55, 0
3, 18120, Note_on_c, 0, 55, 38
3, 18132, Note_on_c, 0, 50, 0
3, 18240, Note_on_c, 0, 55, 0
3, 18240, Note_on_c, 0, 48, 47
3, 18360, Note_on_c, 0, 57, 40
3, 18372, Note_on_c, 0, 48, 0
3, 18480, Note_on_c, 0, 52, 40
3, 18492, Note_on_c, 0, 57, 0
3, 18600, Note_on_c, 0, 57, 40
3, 18612, Note_on_c, 0, 52, 0
3, 18720, Note_on_c, 0, 57, 0
3, 18720, Note_on_c, 0, 49, 48
3, 18840, Note_on_c, 0, 57, 40
3, 18852, Note_on_c, 0, 49, 0
3, 18960, Note_on_c, 0, 52, 39
3, 18972, Note_on_c, 0, 57, 0
3, 19080, Note_on_c, 0, 57, 39
3, 19092, Note_on_c, 0, 52, 0
3, 19200, Note_on_c, 0, 57, 0
3, 19200, Note_on_c, 0, 50, 48
3, 19440, Note_on_c, 0, 50, 0
3, 20160, Note_on_c, 0, 67, 53
3, 20160, Note_on_c, 0, 64, 45
3, 20220, Note_on_c, 0, 64, 0
3, 20220, Note_on_c, 0, 67, 0
3, 20400, Note_on_c, 0, 67, 46
3, 20400, Note_on_c, 0, 64, 39
3, 20460, Note_on_c, 0, 64, 0
3, 20460, Note_on_c, 0, 67, 0
3, 20640, Note_on_c, 0, 64, 36
3, 20640, Note_on_c, 0, 60, 25
3, 20760, Note_on_c, 0, 60, 0
3, 20760, Note_on_c, 0, 64, 0
3, 21120, Note_on_c, 0, 62, 42
3, 21120, Note_on_c, 0, 66, 50
3, 21180, Note_on_c, 0, 66, 0
3, 21180, Note_on_c, 0, 62, 0
3, 21360, Note_on_c, 0, 62, 39
3, 21360, Note_on_c, 0, 66, 47
3, 21420, Note_on_c, 0, 66, 0
3, 21420, Note_on_c, 0, 62, 0
3, 21600, Note_on_c, 0, 59, 56
3, 21600, Note_on_c, 0, 62, 67
3, 21720, Note_on_c, 0, 62, 0
3, 21720, Note_on_c, 0, 59, 0
3, 22080, Note_on_c, 0, 55, 63
3, 22080, Note_on_c, 0, 48, 53
3, 22560, Note_on_c, 0, 48, 0
3, 22560, Note_on_c, 0, 50, 45
3, 22800, Note_on_c, 0, 55, 0
3, 22800, Note_on_c, 0, 54, 52
3, 23040, Note_on_c, 0, 54, 0
3, 23040, Note_on_c, 0, 50, 0
3, 23040, Note_on_c, 0, 55, 64
3, 23160, Note_on_c, 0, 55, 0
3, 23280, Note_on_c, 0, 43, 54
3, 23400, Note_on_c, 0, 43, 0
3, 24000, Note_on_c, 0, 55, 54
3, 24000, Note_on_c, 0, 59, 64
3, 24120, Note_on_c, 0, 59, 0
3, 24120, Note_on_c, 0, 55, 0
3, 24240, Note_on_c, 0, 43, 54
3, 24360, Note_on_c, 0, 43, 0
3, 24960, Note_on_c, 0, 55, 70
3, 24960, Note_on_c, 0, 59, 70
3, 25080, Note_on_c, 0, 59, 0
3, 25080, Note_on_c, 0, 55, 0
3, 25200, Note_on_c, 0, 43, 57
3, 25320, Note_on_c, 0, 43, 0
3, 27840, Note_on_c, 0, 60, 36
3, 27840, Note_on_c, 0, 57, 30
3, 27900, Note_on_c, 0, 57, 0
3, 27900, Note_on_c, 0, 60, 0
3, 28080, Note_on_c, 0, 60, 34
3, 28080, Note_on_c, 0, 57, 28
3, 28140, Note_on_c, 0, 57, 0
3, 28140, Note_on_c, 0, 60, 0
3, 28320, Note_on_c, 0, 57, 29
3, 28320, Note_on_c, 0, 53, 24
3, 28440, Note_on_c, 0, 53, 0
3, 28440, Note_on_c, 0, 57, 0
3, 28800, Note_on_c, 0, 55, 34
3, 28800, Note_on_c, 0, 59, 40
3, 28860, Note_on_c, 0, 59, 0
3, 28860, Note_on_c, 0, 55, 0
3, 29040, Note_on_c, 0, 55, 28
3, 29040, Note_on_c, 0, 59, 33
3, 29100, Note_on_c, 0, 59, 0
3, 29100, Note_on_c, 0, 55, 0
3, 29280, Note_on_c, 0, 52, 32
3, 29280, Note_on_c, 0, 55, 38
3, 29400, Note_on_c, 0, 55, 0
3, 29400, Note_on_c, 0, 52, 0
3, 29760, Note_on_c, 0, 53, 42
3, 30480, Note_on_c, 0, 53, 0
3, 30480, Note_on_c, 0, 50, 38
3, 30720, Note_on_c, 0, 50, 0
3, 30720, Note_on_c, 0, 55, 44
3, 30960, Note_on_c, 0, 55, 0
3, 31680, Note_on_c, 0, 60, 36
3, 31680, Note_on_c, 0, 57, 30
3, 31740, Note_on_c, 0, 57, 0
3, 31740, Note_on_c, 0, 60, 0
3, 31920, Note_on_c, 0, 60, 34
3, 31920, Note_on_c, 0, 57, 28
3, 31980, Note_on_c, 0, 57, 0
3, 31980, Note_on_c, 0, 60, 0
3, 32160, Note_on_c, 0, 53, 29
3, 32160, Note_on_c, 0, 50, 24
3, 32280, Note_on_c, 0, 50, 0
3, 32280, Note_on_c, 0, 53, 0
3, 32640, Note_on_c, 0, 55, 39
3, 32640, Note_on_c, 0, 59, 46
3, 32700, Note_on_c, 0, 59, 0
3, 32700, Note_on_c, 0, 55, 0
3, 32880, Note_on_c, 0, 55, 31
3, 32880, Note_on_c, 0, 59, 37
3, 32940, Note_on_c, 0, 59, 0
3, 32940, Note_on_c, 0, 55, 0
3, 33120, Note_on_c, 0, 48, 37
3, 33120, Note_on_c, 0, 52, 44
3, 33240, Note_on_c, 0, 52, 0
3, 33240, Note_on_c, 0, 48, 0
3, 33600, Note_on_c, 0, 57, 42
3, 33600, Note_on_c, 0, 53, 35
3, 34320, Note_on_c, 0, 53, 0
3, 34320, Note_on_c, 0, 57, 0
3, 34320, Note_on_c, 0, 65, 43
3, 34320, Note_on_c, 0, 55, 36
3, 34560, Note_on_c, 0, 55, 0
3, 34560, Note_on_c, 0, 65, 0
3, 34560, Note_on_c, 0, 64, 51
3, 34560, Note_on_c, 0, 60, 43
3, 34800, Note_on_c, 0, 60, 0
3, 34800, Note_on_c, 0, 64, 0
3, 34800, Note_on_c, 0, 48, 47
3, 34920, Note_on_c, 0, 48, 0
3, 35040, Note_on_c, 0, 64, 53
3, 35040, Note_on_c, 0, 60, 45
3, 35100, Note_on_c, 0, 60, 0
3, 35100, Note_on_c, 0, 64, 0
3, 35280, Note_on_c, 0, 64, 44
3, 35280, Note_on_c, 0, 60, 37
3, 35340, Note_on_c, 0, 60, 0
3, 35340, Note_on_c, 0, 64, 0
3, 35520, Note_on_c, 0, 60, 45
3, 35520, Note_on_c, 0, 57, 38
3, 35640, Note_on_c, 0, 57, 0
3, 35640, Note_on_c, 0, 60, 0
3, 36000, Note_on_c, 0, 59, 40
3, 36000, Note_on_c, 0, 62, 48
3, 36060, Note_on_c, 0, 62, 0
3, 36060, Note_on_c, 0, 59, 0
3, 36240, Note_on_c, 0, 59, 32
3, 36240, Note_on_c, 0, 62, 38
3, 36300, Note_on_c, 0, 62, 0
3, 36300, Note_on_c, 0, 59, 0
3, 36480, Note_on_c, 0, 56, 40
3, 36480, Note_on_c, 0, 59, 48
3, 36600, Note_on_c, 0, 59, 0
3, 36600, Note_on_c, 0, 56, 0
3, 37440, Note_on_c, 0, 64, 60
3, 37560, Note_on_c, 0, 63, 53
3, 37572, Note_on_c, 0, 64, 0
3, 37680, Note_on_c, 0, 65, 58
3, 37692, Note_on_c, 0, 63, 0
3, 37800, Note_on_c, 0, 64, 52
3, 37812, Note_on_c, 0, 65, 0
3, 37920, Note_on_c, 0, 64, 0
3, 38400, Note_on_c, 0, 64, 58
3, 38520, Note_on_c, 0, 63, 50
3, 38532, Note_on_c, 0, 64, 0
3, 38640, Note_on_c, 0, 65, 57
3, 38652, Note_on_c, 0, 63, 0
3, 38760, Note_on_c, 0, 64, 50
3, 38772, Note_on_c, 0, 65, 0
3, 38875, Note_on_c, 0, 64, 0
3, 38880, Note_on_c, 0, 60, 60
3, 38880, Note_on_c, 0, 64, 60
3, 39360, Note_on_c, 0, 64, 0
3, 39360, Note_on_c, 0, 60, 0
3, 39360, Note_on_c, 0, 62, 48
3, 39360, Note_on_c, 0, 65, 57
3, 39840, Note_on_c, 0, 65, 0
3, 39840, Note_on_c, 0, 62, 0
3, 39840, Note_on_c, 0, 64, 49
3, 39840, Note_on_c, 0, 67, 58
3, 40320, Note_on_c, 0, 67, 0
3, 40320, Note_on_c, 0, 64, 0
3, 40320, Note_on_c, 0, 65, 62
3, 40320, Note_on_c, 0, 69, 52
3, 40560, Note_on_c, 0, 65, 0
3, 40560, Note_on_c, 0, 61, 58
3, 40800, Note_on_c, 0, 61, 0
3, 40800, Note_on_c, 0, 62, 64
3, 41040, Note_on_c, 0, 62, 0
3, 41040, Note_on_c, 0, 64, 60
3, 41280, Note_on_c, 0, 64, 0
3, 41280, Note_on_c, 0, 69, 0
3, 41280, Note_on_c, 0, 69, 67
3, 41280, Note_on_c, 0, 65, 57
3, 41520, Note_on_c, 0, 65, 0
3, 41520, Note_on_c, 0, 69, 0
3, 41760, Note_on_c, 0, 65, 36
3, 41760, Note_on_c, 0, 69, 43
3, 42000, Note_on_c, 0, 69, 0
3, 42000, Note_on_c, 0, 65, 0
3, 42240, Note_on_c, 0, 52, 43
3, 42360, Note_on_c, 0, 52, 0
3, 42360, Note_on_c, 0, 64, 39
3, 42480, Note_on_c, 0, 64, 0
3, 42480, Note_on_c, 0, 56, 39
3, 42600, Note_on_c, 0, 56, 0
3, 42600, Note_on_c, 0, 64, 39
3, 42720, Note_on_c, 0, 64, 0
3, 42720, Note_on_c, 0, 59, 46
3, 42840, Note_on_c, 0, 59, 0
3, 42840, Note_on_c, 0, 64, 39
3, 42960, Note_on_c, 0, 64, 0
3, 42960, Note_on_c, 0, 56, 39
3, 43080, Note_on_c, 0, 56, 0
3, 43080, Note_on_c, 0, 64, 39
3, 43200, Note_on_c, 0, 64, 0
3, 43200, Note_on_c, 0, 52, 47
3, 43320, Note_on_c, 0, 52, 0
3, 43320, Note_on_c, 0, 64, 41
3, 43440, Note_on_c, 0, 64, 0
3, 43440, Note_on_c, 0, 57, 41
3, 43560, Note_on_c, 0, 57, 0
3, 43560, Note_on_c, 0, 64, 41
3, 43680, Note_on_c, 0, 64, 0
3, 43680, Note_on_c, 0, 60, 48
3, 43800, Note_on_c, 0, 60, 0
3, 43800, Note_on_c, 0, 64, 40
3, 43920, Note_on_c, 0, 64, 0
3, 43920, Note_on_c, 0, 57, 40
3, 44040, Note_on_c, 0, 57, 0
3, 44040, Note_on_c, 0, 64, 40
3, 44160, Note_on_c, 0, 64, 0
3, 44160, Note_on_c, 0, 52, 52
3, 44280, Note_on_c, 0, 52, 0
3, 44280, Note_on_c, 0, 64, 42
3, 44400, Note_on_c, 0, 64, 0
3, 44400, Note_on_c, 0, 56, 42
3, 44520, Note_on_c, 0, 56, 0
3, 44520, Note_on_c, 0, 64, 42
3, 44640, Note_on_c, 0, 64, 0
3, 44640, Note_on_c, 0, 59, 52
3, 44760, Note_on_c, 0, 59, 0
3, 44760, Note_on_c, 0, 64, 43
3, 44880, Note_on_c, 0, 64, 0
3, 44880, Note_on_c, 0, 56, 43
3, 45000, Note_on_c, 0, 56, 0
3, 45000, Note_on_c, 0, 64, 43
3, 45120, Note_on_c, 0, 64, 0
3, 45120, Note_on_c, 0, 52, 51
3, 45240, Note_on_c, 0, 52, 0
3, 45240, Note_on_c, 0, 64, 43
3, 45360, Note_on_c, 0, 64, 0
3, 45360, Note_on_c, 0, 57, 43
3, 45480, Note_on_c, 0, 57, 0
3, 45480, Note_on_c, 0, 64, 43
3, 45600, Note_on_c, 0, 64, 0
3, 45600, Note_on_c, 0, 60, 52
3, 45720, Note_on_c, 0, 60, 0
3, 45720, Note_on_c, 0, 64, 43
3, 45840, Note_on_c, 0, 64, 0
3, 45840, Note_on_c, 0, 57, 43
3, 45960, Note_on_c, 0, 57, 0
3, 45960, Note_on_c, 0, 64, 43
3, 46078, Note_on_c, 0, 64, 0
3, 46080, Note_on_c, 0, 52, 51
3, 46320, Note_on_c, 0, 52, 0
3, 47040, Note_on_c, 0, 64, 46
3, 47160, Note_on_c, 0, 63, 39
3, 47172, Note_on_c, 0, 64, 0
3, 47280, Note_on_c, 0, 65, 46
3, 47292, Note_on_c, 0, 63, 0
3, 47400, Note_on_c, 0, 64, 39
3, 47412, Note_on_c, 0, 65, 0
3, 47520, Note_on_c, 0, 64, 0
3, 48000, Note_on_c, 0, 64, 45
3, 48120, Note_on_c, 0, 63, 39
3, 48132, Note_on_c, 0, 64, 0
3, 48240, Note_on_c, 0, 65, 46
3, 48252, Note_on_c, 0, 63, 0
3, 48360, Note_on_c, 0, 64, 39
3, 48372, Note_on_c, 0, 65, 0
3, 48480, Note_on_c, 0, 64, 0
3, 48480, Note_on_c, 0, 52, 50
3, 48480, Note_on_c, 0, 60, 59
3, 48540, Note_on_c, 0, 60, 0
3, 48540, Note_on_c, 0, 52, 0
3, 48720, Note_on_c, 0, 52, 44
3, 48720, Note_on_c, 0, 60, 54
3, 48780, Note_on_c, 0, 60, 0
3, 48780, Note_on_c, 0, 52, 0
3, 48960, Note_on_c, 0, 48, 51
3, 48960, Note_on_c, 0, 57, 60
3, 49080, Note_on_c, 0, 57, 0
3, 49080, Note_on_c, 0, 48, 0
3, 49440, Note_on_c, 0, 50, 48
3, 49440, Note_on_c, 0, 59, 57
3, 49500, Note_on_c, 0, 59, 0
3, 49500, Note_on_c, 0, 50, 0
3, 49680, Note_on_c, 0, 50, 41
3, 49680, Note_on_c, 0, 59, 49
3, 49740, Note_on_c, 0, 59, 0
3, 49740, Note_on_c, 0, 50, 0
3, 49920, Note_on_c, 0, 47, 51
3, 49920, Note_on_c, 0, 56, 60
3, 50040, Note_on_c, 0, 56, 0
3, 50040, Note_on_c, 0, 47, 0
3, 50400, Note_on_c, 0, 56, 39
3, 50400, Note_on_c, 0, 59, 47
3, 50880, Note_on_c, 0, 59, 0
3, 50880, Note_on_c, 0, 56, 0
3, 50880, Note_on_c, 0, 57, 42
3, 50880, Note_on_c, 0, 60, 50
3, 51120, Note_on_c, 0, 60, 0
3, 51120, Note_on_c, 0, 57, 0
3, 51120, Note_on_c, 0, 59, 42
3, 51120, Note_on_c, 0, 62, 50
3, 51360, Note_on_c, 0, 62, 0
3, 51360, Note_on_c, 0, 59, 0
3, 51360, Note_on_c, 0, 60, 43
3, 51360, Note_on_c, 0, 64, 51
3, 51600, Note_on_c, 0, 60, 0
3, 51600, Note_on_c, 0, 61, 43
3, 51840, Note_on_c, 0, 61, 0
3, 51840, Note_on_c, 0, 64, 0
3, 51840, Note_on_c, 0, 62, 55
3, 51840, Note_on_c, 0, 69, 46
3, 52080, Note_on_c, 0, 62, 0
3, 52080, Note_on_c, 0, 64, 51
3, 52320, Note_on_c, 0, 64, 0
3, 52320, Note_on_c, 0, 65, 57
3, 52560, Note_on_c, 0, 65, 0
3, 52560, Note_on_c, 0, 64, 53
3, 52800, Note_on_c, 0, 64, 0
3, 52800, Note_on_c, 0, 69, 0
3, 52800, Note_on_c, 0, 65, 59
3, 52800, Note_on_c, 0, 62, 50
3, 53280, Note_on_c, 0, 62, 0
3, 53280, Note_on_c, 0, 65, 0
3, 53280, Note_on_c, 0, 52, 36
3, 53280, Note_on_c, 0, 60, 43
3, 53520, Note_on_c, 0, 60, 0
3, 53520, Note_on_c, 0, 59, 43
3, 53760, Note_on_c, 0, 59, 0
3, 53760, Note_on_c, 0, 52, 0
3, 53760, Note_on_c, 0, 57, 43
3, 53880, Note_on_c, 0, 57, 0
3, 53880, Note_on_c, 0, 60, 39
3, 54000, Note_on_c, 0, 60, 0
3, 54000, Note_on_c, 0, 64, 39
3, 54120, Note_on_c, 0, 64, 0
3, 54120, Note_on_c, 0, 60, 39
3, 54240, Note_on_c, 0, 60, 0
3, 54240, Note_on_c, 0, 52, 46
3, 54360, Note_on_c, 0, 52, 0
3, 54360, Note_on_c, 0, 59, 39
3, 54480, Note_on_c, 0, 59, 0
3, 54480, Note_on_c, 0, 62, 39
3, 54600, Note_on_c, 0, 62, 0
3, 54600, Note_on_c, 0, 59, 39
3, 54720, Note_on_c, 0, 59, 0
3, 54720, Note_on_c, 0, 57, 47
3, 54840, Note_on_c, 0, 57, 0
3, 54840, Note_on_c, 0, 60, 41
3, 54960, Note_on_c, 0, 60, 0
3, 54960, Note_on_c, 0, 64, 41
3, 55080, Note_on_c, 0, 64, 0
3, 55080, Note_on_c, 0, 60, 41
3, 55200, Note_on_c, 0, 60, 0
3, 55200, Note_on_c, 0, 52, 48
3, 55320, Note_on_c, 0, 52, 0
3, 55320, Note_on_c, 0, 59, 40
3, 55440, Note_on_c, 0, 59, 0
3, 55440, Note_on_c, 0, 62, 40
3, 55560, Note_on_c, 0, 62, 0
3, 55560, Note_on_c, 0, 59, 40
3, 55680, Note_on_c, 0, 59, 0
3, 55680, Note_on_c, 0, 57, 47
3, 55800, Note_on_c, 0, 57, 0
3, 55800, Note_on_c, 0, 60, 41
3, 55920, Note_on_c, 0, 60, 0
3, 55920, Note_on_c, 0, 64, 41
3, 56040, Note_on_c, 0, 64, 0
3, 56040, Note_on_c, 0, 60, 41
3, 56160, Note_on_c, 0, 60, 0
3, 56160, Note_on_c, 0, 52, 43
3, 56280, Note_on_c, 0, 52, 0
3, 56280, Note_on_c, 0, 59, 35
3, 56400, Note_on_c, 0, 59, 0
3, 56400, Note_on_c, 0, 62, 37
3, 56520, Note_on_c, 0, 62, 0
3, 56520, Note_on_c, 0, 59, 40
3, 56640, Note_on_c, 0, 59, 0
3, 56640, Note_on_c, 0, 57, 52
3, 56760, Note_on_c, 0, 57, 0
3, 56760, Note_on_c, 0, 60, 43
3, 56880, Note_on_c, 0, 60, 0
3, 56880, Note_on_c, 0, 64, 44
3, 57000, Note_on_c, 0, 64, 0
3, 57000, Note_on_c, 0, 60, 45
3, 57120, Note_on_c, 0, 60, 0
3, 57120, Note_on_c, 0, 55, 57
3, 57240, Note_on_c, 0, 55, 0
3, 57240, Note_on_c, 0, 62, 45
3, 57360, Note_on_c, 0, 62, 0
3, 57360, Note_on_c, 0, 65, 46
3, 57480, Note_on_c, 0, 65, 0
3, 57480, Note_on_c, 0, 62, 46
3, 57600, Note_on_c, 0, 62, 0
3, 58560, Note_on_c, 0, 60, 36
3, 58560, Note_on_c, 0, 57, 30
3, 58620, Note_on_c, 0, 57, 0
3, 58620, Note_on_c, 0, 60, 0
3, 58800, Note_on_c, 0, 60, 34
3, 58800, Note_on_c, 0, 57, 28
3, 58860, Note_on_c, 0, 57, 0
3, 58860, Note_on_c, 0, 60, 0
3, 59040, Note_on_c, 0, 57, 29
3, 59040, Note_on_c, 0, 53, 24
3, 59160, Note_on_c, 0, 53, 0
3, 59160, Note_on_c, 0, 57, 0
3, 59520, Note_on_c, 0, 55, 34
3, 59520, Note_on_c, 0, 59, 40
3, 59580, Note_on_c, 0, 59, 0
3, 59580, Note_on_c, 0, 55, 0
3, 59760, Note_on_c, 0, 55, 28
3, 59760, Note_on_c, 0, 59, 33
3, 59820, Note_on_c, 0, 59, 0
3, 59820, Note_on_c, 0, 55, 0
3, 60000, Note_on_c, 0, 52, 32
3, 60000, Note_on_c, 0, 55, 38
3, 60120, Note_on_c, 0, 55, 0
3, 60120, Note_on_c, 0, 52, 0
3, 60480, Note_on_c, 0, 53, 42
3, 61200, Note_on_c, 0, 53, 0
3, 61200, Note_on_c, 0, 50, 38
3, 61440, Note_on_c, 0, 50, 0
3, 61440, Note_on_c, 0, 55, 44
3, 61680, Note_on_c, 0, 55, 0
3, 62400, Note_on_c, 0, 60, 36
3, 62400, Note_on_c, 0, 57, 30
3, 62460, Note_on_c, 0, 57, 0
3, 62460, Note_on_c, 0, 60, 0
3, 62640, Note_on_c, 0, 60, 34
3, 62640, Note_on_c, 0, 57, 28
3, 62700, Note_on_c, 0, 57, 0
3, 62700, Note_on_c, 0, 60, 0
3, 62880, Note_on_c, 0, 53, 29
3, 62880, Note_on_c, 0, 50, 24
3, 63000, Note_on_c, 0, 50, 0
3, 63000, Note_on_c, 0, 53, 0
3, 63360, Note_on_c, 0, 55, 39
3, 63360, Note_on_c, 0, 59, 46
3, 63420, Note_on_c, 0, 59, 0
3, 63420, Note_on_c, 0, 55, 0
3, 63600, Note_on_c, 0, 55, 31
3, 63600, Note_on_c, 0, 59, 37
3, 63660, Note_on_c, 0, 59, 0
3, 63660, Note_on_c, 0, 55, 0
3, 63840, Note_on_c, 0, 48, 37
3, 63840, Note_on_c, 0, 52, 44
3, 63960, Note_on_c, 0, 52, 0
3, 63960, Note_on_c, 0, 48, 0
3, 64320, Note_on_c, 0, 57, 42
3, 64320, Note_on_c, 0, 53, 35
3, 65040, Note_on_c, 0, 53, 0
3, 65040, Note_on_c, 0, 57, 0
3, 65040, Note_on_c, 0, 65, 43
3, 65040, Note_on_c, 0, 55, 36
3, 65280, Note_on_c, 0, 55, 0
3, 65280, Note_on_c, 0, 65, 0
3, 65280, Note_on_c, 0, 64, 51
3, 65280, Note_on_c, 0, 60, 43
3, 65520, Note_on_c, 0, 60, 0
3, 65520, Note_on_c, 0, 64, 0
3, 65520, Note_on_c, 0, 48, 47
3, 65640, Note_on_c, 0, 48, 0
3, 65760, Note_on_c, 0, 53, 44
3, 65880, Note_on_c, 0, 53, 0
3, 65880, Note_on_c, 0, 59, 38
3, 66000, Note_on_c, 0, 59, 0
3, 66000, Note_on_c, 0, 55, 38
3, 66120, Note_on_c, 0, 55, 0
3, 66120, Note_on_c, 0, 59, 38
3, 66240, Note_on_c, 0, 59, 0
3, 66240, Note_on_c, 0, 52, 44
3, 66360, Note_on_c, 0, 52, 0
3, 66360, Note_on_c, 0, 60, 39
3, 66480, Note_on_c, 0, 60, 0
3, 66480, Note_on_c, 0, 55, 41
3, 66600, Note_on_c, 0, 55, 0
3, 66600, Note_on_c, 0, 60, 42
3, 66720, Note_on_c, 0, 60, 0
3, 66720, Note_on_c, 0, 53, 48
3, 66840, Note_on_c, 0, 53, 0
3, 66840, Note_on_c, 0, 59, 41
3, 66960, Note_on_c, 0, 59, 0
3, 66960, Note_on_c, 0, 55, 41
3, 67080, Note_on_c, 0, 55, 0
3, 67080, Note_on_c, 0, 59, 42
3, 67200, Note_on_c, 0, 59, 0
3, 67200, Note_on_c, 0, 52, 51
3, 67320, Note_on_c, 0, 52, 0
3, 67320, Note_on_c, 0, 60, 44
3, 67440, Note_on_c, 0, 60, 0
3, 67440, Note_on_c, 0, 55, 44
3, 67560, Note_on_c, 0, 55, 0
3, 67560, Note_on_c, 0, 60, 44
3, 67680, Note_on_c, 0, 60, 0
3, 67680, Note_on_c, 0, 53, 53
3, 67800, Note_on_c, 0, 53, 0
3, 67800, Note_on_c, 0, 62, 44
3, 67920, Note_on_c, 0, 62, 0
3, 67920, Note_on_c, 0, 57, 44
3, 68040, Note_on_c, 0, 57, 0
3, 68040, Note_on_c, 0, 62, 44
3, 68160, Note_on_c, 0, 62, 0
3, 68160, Note_on_c, 0, 55, 51
3, 68280, Note_on_c, 0, 55, 0
3, 68280, Note_on_c, 0, 64, 44
3, 68400, Note_on_c, 0, 64, 0
3, 68400, Note_on_c, 0, 60, 44
3, 68520, Note_on_c, 0, 60, 0
3, 68520, Note_on_c, 0, 64, 44
3, 68640, Note_on_c, 0, 64, 0
3, 68640, Note_on_c, 0, 55, 50
3, 68760, Note_on_c, 0, 55, 0
3, 68760, Note_on_c, 0, 65, 41
3, 68880, Note_on_c, 0, 65, 0
3, 68880, Note_on_c, 0, 62, 41
3, 69000, Note_on_c, 0, 62, 0
3, 69000, Note_on_c, 0, 65, 44
3, 69120, Note_on_c, 0, 65, 0
3, 69120, Note_on_c, 0, 60, 44
3, 69240, Note_on_c, 0, 60, 0
3, 69240, Note_on_c, 0, 67, 36
3, 69360, Note_on_c, 0, 67, 0
3, 69360, Note_on_c, 0, 64, 39
3, 69480, Note_on_c, 0, 64, 0
3, 69480, Note_on_c, 0, 67, 36
3, 69600, Note_on_c, 0, 67, 0
3, 69600, Note_on_c, 0, 53, 44
3, 69720, Note_on_c, 0, 53, 0
3, 69720, Note_on_c, 0, 59, 38
3, 69840, Note_on_c, 0, 59, 0
3, 69840, Note_on_c, 0, 55, 38
3, 69960, Note_on_c, 0, 55, 0
3, 69960, Note_on_c, 0, 59, 38
3, 70080, Note_on_c, 0, 59, 0
3, 70080, Note_on_c, 0, 52, 44
3, 70200, Note_on_c, 0, 52, 0
3, 70200, Note_on_c, 0, 60, 39
3, 70320, Note_on_c, 0, 60, 0
3, 70320, Note_on_c, 0, 55, 41
3, 70440, Note_on_c, 0, 55, 0
3, 70440, Note_on_c, 0, 60, 42
3, 70560, Note_on_c, 0, 60, 0
3, 70560, Note_on_c, 0, 53, 48
3, 70680, Note_on_c, 0, 53, 0
3, 70680, Note_on_c, 0, 59, 41
3, 70800, Note_on_c, 0, 59, 0
3, 70800, Note_on_c, 0, 55, 41
3, 70920, Note_on_c, 0, 55, 0
3, 70920, Note_on_c, 0, 59, 42
3, 71040, Note_on_c, 0, 59, 0
3, 71040, Note_on_c, 0, 52, 51
3, 71160, Note_on_c, 0, 52, 0
3, 71160, Note_on_c, 0, 60, 44
3, 71280, Note_on_c, 0, 60, 0
3, 71280, Note_on_c, 0, 55, 44
3, 71400, Note_on_c, 0, 55, 0
3, 71400, Note_on_c, 0, 60, 44
3, 71520, Note_on_c, 0, 60, 0
3, 71520, Note_on_c, 0, 53, 53
3, 71640, Note_on_c, 0, 53, 0
3, 71640, Note_on_c, 0, 62, 46
3, 71760, Note_on_c, 0, 62, 0
3, 71760, Note_on_c, 0, 57, 46
3, 71880, Note_on_c, 0, 57, 0
3, 71880, Note_on_c, 0, 62, 46
3, 72000, Note_on_c, 0, 62, 0
3, 72000, Note_on_c, 0, 55, 51
3, 72120, Note_on_c, 0, 55, 0
3, 72120, Note_on_c, 0, 64, 48
3, 72240, Note_on_c, 0, 64, 0
3, 72240, Note_on_c, 0, 60, 49
3, 72360, Note_on_c, 0, 60, 0
3, 72360, Note_on_c, 0, 64, 51
3, 72480, Note_on_c, 0, 64, 0
3, 72480, Note_on_c, 0, 55, 57
3, 72600, Note_on_c, 0, 55, 0
3, 72600, Note_on_c, 0, 65, 51
3, 72720, Note_on_c, 0, 65, 0
3, 72720, Note_on_c, 0, 62, 55
3, 72840, Note_on_c, 0, 62, 0
3, 72840, Note_on_c, 0, 65, 58
3, 72960, Note_on_c, 0, 65, 0
3, 72960, Note_on_c, 0, 60, 67
3, 73080, Note_on_c, 0, 60, 0
3, 73080, Note_on_c, 0, 64, 58
3, 73200, Note_on_c, 0, 64, 0
3, 73200, Note_on_c, 0, 55, 60
3, 73320, Note_on_c, 0, 55, 0
3, 73320, Note_on_c, 0, 60, 56
3, 73440, Note_on_c, 0, 60, 0
3, 73440, Note_on_c, 0, 52, 62
3, 73560, Note_on_c, 0, 52, 0
3, 73560, Note_on_c, 0, 55, 55
3, 73680, Note_on_c, 0, 55, 0
3, 73680, Note_on_c, 0, 48, 58
3, 73800, Note_on_c, 0, 48, 0
3, 73800, Note_on_c, 0, 52, 49
3, 73920, Note_on_c, 0, 52, 0
3, 73920, Note_on_c, 0, 55, 63
3, 74160, Note_on_c, 0, 55, 0
3, 74400, Note_on_c, 0, 43, 63
3, 74640, Note_on_c, 0, 43, 0
3, 74880, Note_on_c, 0, 60, 67
3, 75000, Note_on_c, 0, 60, 0
3, 75000, Note_on_c, 0, 64, 56
3, 75120, Note_on_c, 0, 64, 0
3, 75120, Note_on_c, 0, 55, 60
3, 75240, Note_on_c, 0, 55, 0
3, 75240, Note_on_c, 0, 60, 56
3, 75360, Note_on_c, 0, 60, 0
3, 75360, Note_on_c, 0, 52, 64
3, 75480, Note_on_c, 0, 52, 0
3, 75480, Note_on_c, 0, 55, 56
3, 75600, Note_on_c, 0, 55, 0
3, 75600, Note_on_c, 0, 48, 60
3, 75720, Note_on_c, 0, 48, 0
3, 75720, Note_on_c, 0, 52, 53
3, 75840, Note_on_c, 0, 52, 0
3, 75840, Note_on_c, 0, 55, 67
3, 76080, Note_on_c, 0, 55, 0
3, 76320, Note_on_c, 0, 43, 63
3, 76560, Note_on_c, 0, 43, 0
3, 76800, Note_on_c, 0, 36, 59
3, 76800, Note_on_c, 0, 48, 71
3, 77040, Note_on_c, 0, 48, 0
3, 77040, Note_on_c, 0, 36, 0
3, 77040, Note_on_c, 0, 40, 53
3, 77040, Note_on_c, 0, 52, 63
3, 77220, Note_on_c, 0, 52, 0
3, 77220, Note_on_c, 0, 40, 0
3, 77280, Note_on_c, 0, 43, 59
3, 77280, Note_on_c, 0, 55, 71
3, 77460, Note_on_c, 0, 55, 0
3, 77460, Note_on_c, 0, 43, 0
3, 77520, Note_on_c, 0, 40, 53
3, 77520, Note_on_c, 0, 52, 63
3, 77700, Note_on_c, 0, 52, 0
3, 77700, Note_on_c, 0, 40, 0
3, 77760, Note_on_c, 0, 36, 61
3, 77760, Note_on_c, 0, 48, 73
3, 78240, Note_on_c, 0, 48, 0
3, 78240, Note_on_c, 0, 36, 0
3, 78240, End_track
4, 0, Start_track
4, 0, Title_t, "Pedale"
4, 0, Program_c, 0, 0
4, 7257, Control_c, 0, 64, 127
4, 7449, Control_c, 0, 64, 0
4, 7543, Control_c, 0, 64, 127
4, 7680, Control_c, 0, 64, 0
4, 14937, Control_c, 0, 64, 127
4, 15129, Control_c, 0, 64, 0
4, 15223, Control_c, 0, 64, 127
4, 15360, Control_c, 0, 64, 0
4, 22617, Control_c, 0, 64, 127
4, 22809, Control_c, 0, 64, 0
4, 22903, Control_c, 0, 64, 127
4, 23040, Control_c, 0, 64, 0
4, 34137, Control_c, 0, 64, 127
4, 34329, Control_c, 0, 64, 0
4, 34423, Control_c, 0, 64, 127
4, 34560, Control_c, 0, 64, 0
4, 38972, Control_c, 0, 64, 127
4, 39360, Control_c, 0, 64, 0
4, 39396, Control_c, 0, 64, 127
4, 39484, Control_c, 0, 64, 0
4, 39914, Control_c, 0, 64, 127
4, 39978, Control_c, 0, 64, 0
4, 40345, Control_c, 0, 64, 127
4, 40465, Control_c, 0, 64, 0
4, 40592, Control_c, 0, 64, 127
4, 40698, Control_c, 0, 64, 0
4, 40839, Control_c, 0, 64, 127
4, 40956, Control_c, 0, 64, 0
4, 41118, Control_c, 0, 64, 127
4, 41192, Control_c, 0, 64, 0
4, 41323, Control_c, 0, 64, 127
4, 41372, Control_c, 0, 64, 0
4, 41580, Control_c, 0, 64, 127
4, 42003, Control_c, 0, 64, 0
4, 42286, Control_c, 0, 64, 127
4, 42727, Control_c, 0, 64, 0
4, 42780, Control_c, 0, 64, 127
4, 43210, Control_c, 0, 64, 0
4, 43258, Control_c, 0, 64, 127
4, 43691, Control_c, 0, 64, 0
4, 43755, Control_c, 0, 64, 127
4, 44171, Control_c, 0, 64, 0
4, 44229, Control_c, 0, 64, 127
4, 44651, Control_c, 0, 64, 0
4, 44720, Control_c, 0, 64, 127
4, 45131, Control_c, 0, 64, 0
4, 45189, Control_c, 0, 64, 127
4, 45611, Control_c, 0, 64, 0
4, 45686, Control_c, 0, 64, 127
4, 46080, Control_c, 0, 64, 0
4, 50916, Control_c, 0, 64, 127
4, 51004, Control_c, 0, 64, 0
4, 51434, Control_c, 0, 64, 127
4, 51498, Control_c, 0, 64, 0
4, 51865, Control_c, 0, 64, 127
4, 51985, Control_c, 0, 64, 0
4, 52112, Control_c, 0, 64, 127
4, 52218, Control_c, 0, 64, 0
4, 52359, Control_c, 0, 64, 127
4, 52476, Control_c, 0, 64, 0
4, 52638, Control_c, 0, 64, 127
4, 52712, Control_c, 0, 64, 0
4, 52843, Control_c, 0, 64, 127
4, 52892, Control_c, 0, 64, 0
4, 53355, Control_c, 0, 64, 127
4, 53523, Control_c, 0, 64, 0
4, 53852, Control_c, 0, 64, 127
4, 54247, Control_c, 0, 64, 0
4, 54300, Control_c, 0, 64, 127
4, 54730, Control_c, 0, 64, 0
4, 54778, Control_c, 0, 64, 127
4, 55211, Control_c, 0, 64, 0
4, 55275, Control_c, 0, 64, 127
4, 55691, Control_c, 0, 64, 0
4, 55749, Control_c, 0, 64, 127
4, 56171, Control_c, 0, 64, 0
4, 56240, Control_c, 0, 64, 127
4, 56651, Control_c, 0, 64, 0
4, 56709, Control_c, 0, 64, 127
4, 57131, Control_c, 0, 64, 0
4, 57206, Control_c, 0, 64, 127
4, 57600, Control_c, 0, 64, 0
4, 64857, Control_c, 0, 64, 127
4, 65049, Control_c, 0, 64, 0
4, 65143, Control_c, 0, 64, 127
4, 65280, Control_c, 0, 64, 0
4, 65831, Control_c, 0, 64, 127
4, 66247, Control_c, 0, 64, 0
4, 66311, Control_c, 0, 64, 127
4, 66735, Control_c, 0, 64, 0
4, 66826, Control_c, 0, 64, 127
4, 67205, Control_c, 0, 64, 0
4, 67278, Control_c, 0, 64, 127
4, 67689, Control_c, 0, 64, 0
4, 67751, Control_c, 0, 64, 127
4, 68160, Control_c, 0, 64, 0
4, 68206, Control_c, 0, 64, 127
4, 68402, Control_c, 0, 64, 0
4, 68686, Control_c, 0, 64, 127
4, 68882, Control_c, 0, 64, 0
4, 69131, Control_c, 0, 64, 127
4, 69368, Control_c, 0, 64, 0
4, 69438, Control_c, 0, 64, 127
4, 69600, Control_c, 0, 64, 0
4, 69727, Control_c, 0, 64, 127
4, 70087, Control_c, 0, 64, 0
4, 70151, Control_c, 0, 64, 127
4, 70575, Control_c, 0, 64, 0
4, 70666, Control_c, 0, 64, 127
4, 71045, Control_c, 0, 64, 0
4, 71118, Control_c, 0, 64, 127
4, 71529, Control_c, 0, 64, 0
4, 71591, Control_c, 0, 64, 127
4, 72000, Control_c, 0, 64, 0
4, 72046, Control_c, 0, 64, 127
4, 72242, Control_c, 0, 64, 0
4, 72526, Control_c, 0, 64, 127
4, 72722, Control_c, 0, 64, 0
4, 72971, Control_c, 0, 64, 127
4, 73920, Control_c, 0, 64, 0
4, 73966, Control_c, 0, 64, 127
4, 74425, Control_c, 0, 64, 0
4, 74460, Control_c, 0, 64, 127
4, 74665, Control_c, 0, 64, 0
4, 74891, Control_c, 0, 64, 127
4, 75840, Control_c, 0, 64, 0
4, 75886, Control_c, 0, 64, 127
4, 76345, Control_c, 0, 64, 0
4, 76380, Control_c, 0, 64, 127
4, 76585, Control_c, 0, 64, 0
4, 76941, Control_c, 0, 64, 127
4, 77760, Control_c, 0, 64, 0
4, 78054, Control_c, 0, 64, 127
4, 78400, Control_c, 0, 64, 0
4, 78400, End_track
5, 0, Start_track
5, 0, Title_t, "Mozart: Sonate KV 541 3. Satz"
5, 0, End_track
6, 0, Start_track
6, 0, Title_t, "Copyright © 2006 by Bernd Krueger"
6, 0, End_track
7, 0, Start_track
7, 0, Title_t, "http://www.piano-midi.de/"
7, 0, End_track
8, 0, Start_track
8, 0, Title_t, "Edition: 2013-09-29"
8, 0, End_track
9, 0, Start_track
9, 0, Title_t, "Spur 8"
9, 0, End_track
10, 0, Start_track
10, 0, Title_t, "Spur 9"
10, 0, End_track
11, 0, Start_track
11, 0, Title_t, "Spur 10"
11, 0, End_track
12, 0, Start_track
12, 0, Title_t, "Spur 11"
12, 0, End_track
13, 0, Start_track
13, 0, Title_t, "Spur 12"
13, 0, End_track
14, 0, Start_track
14, 0, Title_t, "Spur 13"
14, 0, End_track
15, 0, Start_track
15, 0, Title_t, "Spur 14"
15, 0, End_track
16, 0, Start_track
16, 0, Title_t, "Spur 15"
16, 0, End_track
17, 0, Start_track
17, 0, Title_t, "Spur 16"
17, 0, End_track
0, 0, End_of_file
