0, 0, Header, 1, 17, 480
1, 0, Start_track
1, 0, Title_t, "Klaviersonate KV 570 2.. Satz"
1, 0, Copyright_t, "Copyright © 2006 by Bernd Krueger"
1, 0, Text_t, "Wolfgang Amadeus Mozart"
1, 0, Text_t, "Adagio"
1, 0, Text_t, "Veröffentlicht: 1.12.2006\012"
1, 0, Text_t, "Update: 17.10.2013\012"
1, 0, Text_t, "Dauer: 7:35 Minuten\012"
1, 0, Time_signature, 4, 2, 24, 8
1, 0, Key_signature, -3, "major"
1, 0, Tempo, 1415762
1, 0, Marker_t, "Teil 1"
1, 480, Tempo, 1322168
1, 960, Tempo, 1351960
1, 1200, Tempo, 1307759
1, 1440, Tempo, 1266357
1, 1680, Tempo, 1322168
1, 1920, Tempo, 1322168
1, 2160, Tempo, 1240182
1, 2640, Tempo, 1432665
1, 2880, Tempo, 1322168
1, 3360, Tempo, 1266357
1, 3480, Tempo, 1202887
1, 3600, Tempo, 1240182
1, 3720, Tempo, 1449976
1, 3840, Tempo, 1307759
1, 4320, Tempo, 1240182
1, 4560, Tempo, 1279863
1, 4800, Tempo, 1307759
1, 5040, Tempo, 1253133
1, 5520, Tempo, 1322168
1, 5760, Tempo, 1307759
1, 6000, Tempo, 1227496
1, 6180, Tempo, 1485884
1, 6240, Tempo, 1307759
1, 6480, Tempo, 1227496
1, 6660, Tempo, 2008032
1, 6720, Tempo, 1415762
1, 7680, Tempo, 1415762
1, 7680, Marker_t, "Teil1 Wiederholing"
1, 8160, Tempo, 1322168
1, 8640, Tempo, 1351960
1, 8880, Tempo, 1307759
1, 9120, Tempo, 1266357
1, 9360, Tempo, 1322168
1, 9600, Tempo, 1322168
1, 9840, Tempo, 1240182
1, 10320, Tempo, 1432665
1, 10560, Tempo, 1322168
1, 11040, Tempo, 1266357
1, 11160, Tempo, 1202887
1, 11280, Tempo, 1240182
1, 11400, Tempo, 1449976
1, 11520, Tempo, 1307759
1, 12000, Tempo, 1240182
1, 12240, Tempo, 1279863
1, 12480, Tempo, 1307759
1, 12720, Tempo, 1253133
1, 13200, Tempo, 1322168
1, 13440, Tempo, 1307759
1, 13680, Tempo, 1227496
1, 13860, Tempo, 1485884
1, 13920, Tempo, 1307759
1, 14160, Tempo, 1227496
1, 14340, Tempo, 2008032
1, 14400, Tempo, 1415762
1, 15360, Tempo, 1322168
1, 15360, Marker_t, "Teil 2"
1, 16080, Tempo, 1449976
1, 16320, Tempo, 1322168
1, 16800, Tempo, 1383126
1, 16920, Tempo, 1322168
1, 17040, Tempo, 1266357
1, 17220, Tempo, 1504514
1, 17280, Tempo, 1322168
1, 18000, Tempo, 1432665
1, 18240, Tempo, 1322168
1, 18840, Tempo, 1266357
1, 19080, Tempo, 1415762
1, 19200, Tempo, 1383126
1, 19440, Tempo, 1322168
1, 19680, Tempo, 1383126
1, 19920, Tempo, 1322168
1, 20160, Tempo, 1367366
1, 20340, Tempo, 1322168
1, 20640, Tempo, 1399254
1, 20880, Tempo, 1307759
1, 21360, Tempo, 1383126
1, 21600, Tempo, 1307759
1, 21840, Tempo, 1563314
1, 22080, Tempo, 1307759
1, 22320, Tempo, 1367366
1, 22440, Tempo, 1523616
1, 23040, Tempo, 1415762
1, 23520, Tempo, 1322168
1, 24000, Tempo, 1351960
1, 24240, Tempo, 1307759
1, 24480, Tempo, 1266357
1, 24720, Tempo, 1322168
1, 24960, Tempo, 1322168
1, 25200, Tempo, 1240182
1, 25680, Tempo, 1432665
1, 25920, Tempo, 1322168
1, 26400, Tempo, 1266357
1, 26520, Tempo, 1202887
1, 26640, Tempo, 1240182
1, 26760, Tempo, 1449976
1, 26880, Tempo, 1307759
1, 27360, Tempo, 1240182
1, 27600, Tempo, 1279863
1, 27840, Tempo, 1307759
1, 28080, Tempo, 1253133
1, 28560, Tempo, 1322168
1, 28800, Tempo, 1307759
1, 29040, Tempo, 1227496
1, 29220, Tempo, 1485884
1, 29280, Tempo, 1307759
1, 29520, Tempo, 1227496
1, 29700, Tempo, 2008032
1, 29760, Tempo, 1415762
1, 30720, Tempo, 1322168
1, 30720, Marker_t, "Teil 2 Wiederholung"
1, 31440, Tempo, 1449976
1, 31680, Tempo, 1322168
1, 32160, Tempo, 1383126
1, 32280, Tempo, 1322168
1, 32400, Tempo, 1266357
1, 32580, Tempo, 1504514
1, 32640, Tempo, 1322168
1, 33360, Tempo, 1432665
1, 33600, Tempo, 1322168
1, 34200, Tempo, 1266357
1, 34440, Tempo, 1415762
1, 34560, Tempo, 1383126
1, 34800, Tempo, 1322168
1, 35040, Tempo, 1383126
1, 35280, Tempo, 1322168
1, 35520, Tempo, 1367366
1, 35700, Tempo, 1322168
1, 36000, Tempo, 1399254
1, 36240, Tempo, 1307759
1, 36720, Tempo, 1383126
1, 36960, Tempo, 1307759
1, 37200, Tempo, 1563314
1, 37440, Tempo, 1307759
1, 37680, Tempo, 1367366
1, 37800, Tempo, 1523616
1, 38400, Tempo, 1415762
1, 38880, Tempo, 1322168
1, 39360, Tempo, 1351960
1, 39600, Tempo, 1307759
1, 39840, Tempo, 1266357
1, 40080, Tempo, 1322168
1, 40320, Tempo, 1322168
1, 40560, Tempo, 1240182
1, 41040, Tempo, 1432665
1, 41280, Tempo, 1322168
1, 41760, Tempo, 1266357
1, 41880, Tempo, 1202887
1, 42000, Tempo, 1240182
1, 42120, Tempo, 1449976
1, 42240, Tempo, 1307759
1, 42720, Tempo, 1240182
1, 42960, Tempo, 1279863
1, 43200, Tempo, 1307759
1, 43440, Tempo, 1253133
1, 43920, Tempo, 1322168
1, 44160, Tempo, 1307759
1, 44400, Tempo, 1227496
1, 44580, Tempo, 1485884
1, 44640, Tempo, 1307759
1, 44880, Tempo, 1227496
1, 45060, Tempo, 2008032
1, 45120, Tempo, 1415762
1, 46080, Tempo, 1351960
1, 46080, Marker_t, "Teil 3"
1, 46200, Tempo, 1264755
1, 46320, Tempo, 1350135
1, 46680, Tempo, 1293661
1, 46920, Tempo, 1432665
1, 47040, Tempo, 1351960
1, 47160, Tempo, 1264755
1, 47340, Tempo, 1291990
1, 47580, Tempo, 1307759
1, 47640, Tempo, 1266357
1, 47880, Tempo, 1449976
1, 48000, Tempo, 1227496
1, 48120, Tempo, 1293661
1, 48360, Tempo, 1399254
1, 48480, Tempo, 1266357
1, 48600, Tempo, 1307759
1, 48840, Tempo, 1432665
1, 48960, Tempo, 1307759
1, 49140, Tempo, 1279863
1, 49920, Tempo, 1383126
1, 50040, Tempo, 1251564
1, 50160, Tempo, 1278228
1, 50400, Tempo, 1336898
1, 50520, Tempo, 1279863
1, 50700, Tempo, 1278228
1, 50880, Tempo, 1383126
1, 51000, Tempo, 1238646
1, 51120, Tempo, 1278228
1, 51300, Tempo, 1367366
1, 51480, Tempo, 1279863
1, 51840, Tempo, 1367366
1, 51960, Tempo, 1253133
1, 52080, Tempo, 1322168
1, 52200, Tempo, 1266357
1, 52260, Tempo, 1293661
1, 52320, Tempo, 1336898
1, 52440, Tempo, 1279863
1, 52560, Tempo, 1336898
1, 52680, Tempo, 1293661
1, 52800, Tempo, 1351960
1, 52920, Tempo, 1307759
1, 53286, Tempo, 1293661
1, 53363, Tempo, 1307759
1, 53439, Tempo, 1322168
1, 53497, Tempo, 1336898
1, 53574, Tempo, 1351960
1, 53651, Tempo, 1367366
1, 53708, Tempo, 1383126
1, 53760, Tempo, 1351960
1, 53760, Marker_t, "Teil 3 Wiederholung"
1, 53880, Tempo, 1278228
1, 54000, Tempo, 1350135
1, 54360, Tempo, 1293661
1, 54600, Tempo, 1432665
1, 54720, Tempo, 1351960
1, 54840, Tempo, 1264755
1, 54960, Tempo, 1306051
1, 55260, Tempo, 1307759
1, 55320, Tempo, 1266357
1, 55560, Tempo, 1449976
1, 55680, Tempo, 1227496
1, 55800, Tempo, 1293661
1, 56040, Tempo, 1399254
1, 56160, Tempo, 1266357
1, 56280, Tempo, 1307759
1, 56520, Tempo, 1432665
1, 56640, Tempo, 1307759
1, 56820, Tempo, 1279863
1, 57600, Tempo, 1383126
1, 57720, Tempo, 1251564
1, 57840, Tempo, 1278228
1, 58080, Tempo, 1336898
1, 58200, Tempo, 1279863
1, 58320, Tempo, 1278228
1, 58560, Tempo, 1383126
1, 58680, Tempo, 1238646
1, 58800, Tempo, 1278228
1, 58980, Tempo, 1367366
1, 59160, Tempo, 1279863
1, 59520, Tempo, 1367366
1, 59640, Tempo, 1253133
1, 59760, Tempo, 1322168
1, 59880, Tempo, 1266357
1, 59940, Tempo, 1293661
1, 60000, Tempo, 1336898
1, 60120, Tempo, 1279863
1, 60240, Tempo, 1336898
1, 60360, Tempo, 1293661
1, 60480, Tempo, 1351960
1, 60600, Tempo, 1307759
1, 60966, Tempo, 1293661
1, 61043, Tempo, 1307759
1, 61119, Tempo, 1322168
1, 61177, Tempo, 1336898
1, 61254, Tempo, 1351960
1, 61331, Tempo, 1367366
1, 61388, Tempo, 1383126
1, 61440, Tempo, 1322168
1, 61440, Marker_t, "Teil 4"
1, 61560, Tempo, 1320423
1, 61620, Tempo, 1238646
1, 61800, Tempo, 1367366
1, 61920, Tempo, 1293661
1, 62040, Tempo, 1225991
1, 62160, Tempo, 1251564
1, 62280, Tempo, 1336898
1, 62400, Tempo, 1322168
1, 62520, Tempo, 1264755
1, 62640, Tempo, 1225991
1, 62760, Tempo, 1320423
1, 62880, Tempo, 1201442
1, 63000, Tempo, 1291990
1, 63120, Tempo, 1225991
1, 63240, Tempo, 1322168
1, 63360, Tempo, 1278228
1, 63480, Tempo, 1251564
1, 63540, Tempo, 1225991
1, 63720, Tempo, 1367366
1, 63840, Tempo, 1293661
1, 63960, Tempo, 1213592
1, 64080, Tempo, 1225991
1, 64200, Tempo, 1336898
1, 64320, Tempo, 1322168
1, 64440, Tempo, 1225991
1, 64680, Tempo, 1367366
1, 64800, Tempo, 1266357
1, 65040, Tempo, 1253133
1, 65160, Tempo, 1322168
1, 65280, Tempo, 1335113
1, 65400, Tempo, 1253133
1, 65520, Tempo, 1227496
1, 65640, Tempo, 1293661
1, 65760, Tempo, 1322168
1, 65880, Tempo, 1279863
1, 66000, Tempo, 1238646
1, 66120, Tempo, 1278228
1, 66240, Tempo, 1335113
1, 66360, Tempo, 1253133
1, 66480, Tempo, 1227496
1, 66660, Tempo, 1367366
1, 66840, Tempo, 1279863
1, 67440, Tempo, 1225991
1, 67680, Tempo, 1278228
1, 68040, Tempo, 1320423
1, 68160, Tempo, 1278228
1, 68400, Tempo, 1251564
1, 68460, Tempo, 1306051
1, 68640, Tempo, 1278228
1, 69120, Tempo, 1351960
1, 69240, Tempo, 1251564
1, 69360, Tempo, 1350135
1, 69720, Tempo, 1293661
1, 69960, Tempo, 1432665
1, 70080, Tempo, 1351960
1, 70200, Tempo, 1251564
1, 70380, Tempo, 1306051
1, 70620, Tempo, 1307759
1, 70680, Tempo, 1266357
1, 70920, Tempo, 1449976
1, 71040, Tempo, 1227496
1, 71160, Tempo, 1293661
1, 71400, Tempo, 1399254
1, 71520, Tempo, 1266357
1, 71640, Tempo, 1307759
1, 71880, Tempo, 1432665
1, 72000, Tempo, 1307759
1, 72180, Tempo, 1279863
1, 72480, Tempo, 1278228
1, 72960, Tempo, 1383126
1, 73080, Tempo, 1251564
1, 73260, Tempo, 1278228
1, 73440, Tempo, 1336898
1, 73560, Tempo, 1279863
1, 73920, Tempo, 1383126
1, 74040, Tempo, 1225991
1, 74160, Tempo, 1278228
1, 74340, Tempo, 1367366
1, 74520, Tempo, 1279863
1, 74880, Tempo, 1367366
1, 75000, Tempo, 1253133
1, 75120, Tempo, 1322168
1, 75240, Tempo, 1266357
1, 75300, Tempo, 1293661
1, 75360, Tempo, 1336898
1, 75480, Tempo, 1279863
1, 75600, Tempo, 1336898
1, 75720, Tempo, 1293661
1, 75840, Tempo, 1351960
1, 75960, Tempo, 1307759
1, 76326, Tempo, 1293661
1, 76403, Tempo, 1307759
1, 76479, Tempo, 1322168
1, 76537, Tempo, 1336898
1, 76614, Tempo, 1351960
1, 76691, Tempo, 1367366
1, 76748, Tempo, 1383126
1, 76800, Tempo, 1322168
1, 76800, Marker_t, "Teil 4 Wiederholung"
1, 76920, Tempo, 1306051
1, 76980, Tempo, 1238646
1, 77040, Tempo, 1264755
1, 77160, Tempo, 1367366
1, 77280, Tempo, 1293661
1, 77400, Tempo, 1225991
1, 77520, Tempo, 1251564
1, 77640, Tempo, 1336898
1, 77760, Tempo, 1322168
1, 77880, Tempo, 1264755
1, 78000, Tempo, 1225991
1, 78120, Tempo, 1320423
1, 78240, Tempo, 1201442
1, 78360, Tempo, 1291990
1, 78480, Tempo, 1225991
1, 78600, Tempo, 1322168
1, 78720, Tempo, 1278228
1, 78840, Tempo, 1251564
1, 78900, Tempo, 1225991
1, 79080, Tempo, 1367366
1, 79200, Tempo, 1293661
1, 79320, Tempo, 1213592
1, 79440, Tempo, 1225991
1, 79560, Tempo, 1336898
1, 79680, Tempo, 1322168
1, 79800, Tempo, 1225991
1, 80040, Tempo, 1367366
1, 80160, Tempo, 1266357
1, 80400, Tempo, 1253133
1, 80520, Tempo, 1322168
1, 80640, Tempo, 1335113
1, 80760, Tempo, 1253133
1, 80880, Tempo, 1227496
1, 81000, Tempo, 1293661
1, 81120, Tempo, 1322168
1, 81240, Tempo, 1279863
1, 81360, Tempo, 1238646
1, 81480, Tempo, 1278228
1, 81600, Tempo, 1335113
1, 81720, Tempo, 1253133
1, 81840, Tempo, 1227496
1, 82020, Tempo, 1367366
1, 82200, Tempo, 1279863
1, 82800, Tempo, 1225991
1, 83040, Tempo, 1278228
1, 83400, Tempo, 1320423
1, 83520, Tempo, 1278228
1, 83760, Tempo, 1251564
1, 83820, Tempo, 1306051
1, 84000, Tempo, 1278228
1, 84480, Tempo, 1351960
1, 84600, Tempo, 1251564
1, 84720, Tempo, 1350135
1, 85080, Tempo, 1293661
1, 85320, Tempo, 1432665
1, 85440, Tempo, 1351960
1, 85560, Tempo, 1251564
1, 85740, Tempo, 1306051
1, 85980, Tempo, 1307759
1, 86040, Tempo, 1266357
1, 86280, Tempo, 1449976
1, 86400, Tempo, 1227496
1, 86520, Tempo, 1293661
1, 86760, Tempo, 1399254
1, 86880, Tempo, 1266357
1, 87000, Tempo, 1307759
1, 87240, Tempo, 1432665
1, 87360, Tempo, 1307759
1, 87540, Tempo, 1279863
1, 87840, Tempo, 1278228
1, 88320, Tempo, 1383126
1, 88440, Tempo, 1251564
1, 88620, Tempo, 1278228
1, 88800, Tempo, 1336898
1, 88920, Tempo, 1279863
1, 89280, Tempo, 1383126
1, 89400, Tempo, 1225991
1, 89520, Tempo, 1278228
1, 89700, Tempo, 1367366
1, 89880, Tempo, 1279863
1, 90360, Tempo, 1253133
1, 90480, Tempo, 1322168
1, 90600, Tempo, 1266357
1, 90660, Tempo, 1293661
1, 90720, Tempo, 1336898
1, 90840, Tempo, 1279863
1, 90960, Tempo, 1336898
1, 91080, Tempo, 1293661
1, 91200, Tempo, 1351960
1, 91320, Tempo, 1307759
1, 91686, Tempo, 1293661
1, 91800, Tempo, 1279863
1, 92160, Tempo, 1336898
1, 92160, Marker_t, "Teil 5"
1, 92280, Tempo, 1253133
1, 92400, Tempo, 1293661
1, 92640, Tempo, 1293661
1, 92820, Tempo, 1266357
1, 93120, Tempo, 1351960
1, 93240, Tempo, 1240182
1, 93360, Tempo, 1266357
1, 93480, Tempo, 1367366
1, 93600, Tempo, 1293661
1, 93720, Tempo, 1293661
1, 94080, Tempo, 1253133
1, 94200, Tempo, 1293661
1, 94560, Tempo, 1322168
1, 94680, Tempo, 1279863
1, 95040, Tempo, 1227496
1, 95160, Tempo, 1293661
1, 95880, Tempo, 1485884
1, 96000, Tempo, 1336898
1, 96970, Tempo, 1322168
1, 97085, Tempo, 1336898
1, 97200, Tempo, 1351960
1, 97315, Tempo, 1367366
1, 97431, Tempo, 1383126
1, 97546, Tempo, 1399254
1, 97661, Tempo, 1415762
1, 97757, Tempo, 1432665
1, 97800, Tempo, 1672241
1, 97920, Tempo, 1415762
1, 98400, Tempo, 1306051
1, 98640, Tempo, 1350135
1, 98880, Tempo, 1381215
1, 99120, Tempo, 1307759
1, 99360, Tempo, 1251564
1, 99600, Tempo, 1322168
1, 99840, Tempo, 1322168
1, 100080, Tempo, 1225991
1, 100320, Tempo, 1238646
1, 100500, Tempo, 1447876
1, 100560, Tempo, 1432665
1, 100800, Tempo, 1322168
1, 101220, Tempo, 1335113
1, 101280, Tempo, 1266357
1, 101400, Tempo, 1155179
1, 101520, Tempo, 1240182
1, 101640, Tempo, 1523616
1, 101760, Tempo, 1307759
1, 102240, Tempo, 1225991
1, 102480, Tempo, 1279863
1, 102720, Tempo, 1307759
1, 102960, Tempo, 1253133
1, 103440, Tempo, 1322168
1, 103680, Tempo, 1307759
1, 103920, Tempo, 1227496
1, 104100, Tempo, 1485884
1, 104160, Tempo, 1350135
1, 104400, Tempo, 1227496
1, 104580, Tempo, 2008032
1, 104640, Tempo, 1415762
1, 105120, Tempo, 1293661
1, 105600, Marker_t, "Teil 6"
1, 105660, Tempo, 1266357
1, 105960, Tempo, 1322168
1, 106080, Tempo, 1227496
1, 106200, Tempo, 1240182
1, 106320, Tempo, 1266357
1, 106440, Tempo, 1367366
1, 106560, Tempo, 1293661
1, 106800, Tempo, 1336898
1, 106920, Tempo, 1266357
1, 107040, Tempo, 1307759
1, 107520, Tempo, 1293661
1, 107580, Tempo, 1266357
1, 107880, Tempo, 1322168
1, 108000, Tempo, 1240182
1, 108180, Tempo, 1266357
1, 108360, Tempo, 1367366
1, 108480, Tempo, 1293661
1, 108720, Tempo, 1307759
1, 108840, Tempo, 1266357
1, 108960, Tempo, 1307759
1, 109440, Tempo, 1293661
1, 109500, Tempo, 1266357
1, 109560, Tempo, 1240182
1, 109800, Tempo, 1293661
1, 109920, Tempo, 1190949
1, 110040, Tempo, 1227496
1, 110280, Tempo, 1307759
1, 110400, Tempo, 1253133
1, 110760, Tempo, 1266357
1, 110880, Tempo, 1202887
1, 111000, Tempo, 1240182
1, 111240, Tempo, 1322168
1, 111360, Tempo, 1240182
1, 111780, Tempo, 1348618
1, 111840, Tempo, 1237369
1, 112200, Tempo, 1318971
1, 112320, Tempo, 1237369
1, 112818, Tempo, 1237369
1, 112894, Tempo, 1250260
1, 112971, Tempo, 1263424
1, 113048, Tempo, 1276867
1, 113125, Tempo, 1290600
1, 113202, Tempo, 1304631
1, 113259, Tempo, 1318971
1, 113280, Tempo, 1293661
1, 113280, Marker_t, "Teil 6 Wiederholung"
1, 113340, Tempo, 1266357
1, 113640, Tempo, 1322168
1, 113760, Tempo, 1227496
1, 113880, Tempo, 1240182
1, 114000, Tempo, 1266357
1, 114120, Tempo, 1367366
1, 114240, Tempo, 1293661
1, 114480, Tempo, 1336898
1, 114600, Tempo, 1266357
1, 114720, Tempo, 1307759
1, 115200, Tempo, 1293661
1, 115260, Tempo, 1266357
1, 115560, Tempo, 1322168
1, 115680, Tempo, 1240182
1, 115860, Tempo, 1266357
1, 116040, Tempo, 1367366
1, 116160, Tempo, 1293661
1, 116400, Tempo, 1307759
1, 116520, Tempo, 1266357
1, 116640, Tempo, 1307759
1, 117120, Tempo, 1293661
1, 117180, Tempo, 1266357
1, 117240, Tempo, 1240182
1, 117480, Tempo, 1293661
1, 117600, Tempo, 1190949
1, 117720, Tempo, 1227496
1, 117960, Tempo, 1307759
1, 118080, Tempo, 1253133
1, 118440, Tempo, 1266357
1, 118560, Tempo, 1202887
1, 118680, Tempo, 1240182
1, 118920, Tempo, 1322168
1, 119040, Tempo, 1240182
1, 119400, Tempo, 1318971
1, 119520, Tempo, 1237369
1, 119880, Tempo, 1304631
1, 120000, Tempo, 1237369
1, 120481, Tempo, 1224740
1, 120558, Tempo, 1237369
1, 120634, Tempo, 1250260
1, 120711, Tempo, 1263424
1, 120788, Tempo, 1276867
1, 120865, Tempo, 1290600
1, 120942, Tempo, 1304631
1, 120960, Tempo, 1293661
1, 120960, Marker_t, "Teil 7"
1, 121020, Tempo, 1266357
1, 121320, Tempo, 1322168
1, 121440, Tempo, 1227496
1, 121560, Tempo, 1240182
1, 121680, Tempo, 1266357
1, 121800, Tempo, 1333630
1, 121920, Tempo, 1293661
1, 121980, Tempo, 1266357
1, 122280, Tempo, 1322168
1, 122400, Tempo, 1227496
1, 122520, Tempo, 1240182
1, 122640, Tempo, 1266357
1, 122760, Tempo, 1367366
1, 122880, Tempo, 1279863
1, 123000, Tempo, 1307759
1, 123180, Tempo, 1263424
1, 123360, Tempo, 1276867
1, 123660, Tempo, 1307759
1, 123720, Tempo, 1432665
1, 123840, Tempo, 1276867
1, 124200, Tempo, 1399254
1, 124320, Tempo, 1276867
1, 124680, Tempo, 1467710
1, 124800, Tempo, 1293661
1, 124860, Tempo, 1266357
1, 125160, Tempo, 1322168
1, 125280, Tempo, 1227496
1, 125400, Tempo, 1240182
1, 125520, Tempo, 1266357
1, 125640, Tempo, 1367366
1, 125760, Tempo, 1293661
1, 125820, Tempo, 1266357
1, 126120, Tempo, 1322168
1, 126240, Tempo, 1227496
1, 126360, Tempo, 1240182
1, 126480, Tempo, 1266357
1, 126600, Tempo, 1367366
1, 126780, Tempo, 1276867
1, 127080, Tempo, 1348618
1, 127200, Tempo, 1318971
1, 127440, Tempo, 1415762
1, 127500, Tempo, 1605136
1, 127680, Tempo, 1432665
1, 128160, Tempo, 1304631
1, 128295, Tempo, 1318971
1, 128372, Tempo, 1333630
1, 128449, Tempo, 1348618
1, 128526, Tempo, 1363946
1, 128640, Tempo, 1293661
1, 128640, Marker_t, "Teil 7 Wiederholung"
1, 128700, Tempo, 1266357
1, 129000, Tempo, 1322168
1, 129120, Tempo, 1227496
1, 129240, Tempo, 1240182
1, 129360, Tempo, 1266357
1, 129480, Tempo, 1333630
1, 129600, Tempo, 1293661
1, 129660, Tempo, 1266357
1, 129960, Tempo, 1322168
1, 130080, Tempo, 1227496
1, 130200, Tempo, 1240182
1, 130320, Tempo, 1266357
1, 130440, Tempo, 1367366
1, 130560, Tempo, 1279863
1, 130680, Tempo, 1307759
1, 130860, Tempo, 1263424
1, 131040, Tempo, 1276867
1, 131340, Tempo, 1307759
1, 131400, Tempo, 1432665
1, 131520, Tempo, 1276867
1, 131880, Tempo, 1399254
1, 132000, Tempo, 1276867
1, 132360, Tempo, 1467710
1, 132480, Tempo, 1293661
1, 132540, Tempo, 1266357
1, 132840, Tempo, 1322168
1, 132960, Tempo, 1227496
1, 133080, Tempo, 1240182
1, 133200, Tempo, 1266357
1, 133320, Tempo, 1367366
1, 133440, Tempo, 1293661
1, 133500, Tempo, 1266357
1, 133800, Tempo, 1322168
1, 133920, Tempo, 1227496
1, 134040, Tempo, 1240182
1, 134160, Tempo, 1266357
1, 134280, Tempo, 1367366
1, 134460, Tempo, 1276867
1, 134760, Tempo, 1348618
1, 134880, Tempo, 1318971
1, 135120, Tempo, 1415762
1, 135180, Tempo, 1605136
1, 135360, Tempo, 1432665
1, 135840, Tempo, 1304631
1, 135975, Tempo, 1318971
1, 136052, Tempo, 1333630
1, 136129, Tempo, 1348618
1, 136206, Tempo, 1363946
1, 136320, Tempo, 1225991
1, 136320, Marker_t, "Teil 8"
1, 136440, Tempo, 1291990
1, 136560, Tempo, 1264755
1, 136680, Tempo, 1363946
1, 136800, Tempo, 1238646
1, 136920, Tempo, 1306051
1, 137040, Tempo, 1264755
1, 137160, Tempo, 1379628
1, 137280, Tempo, 1251564
1, 137400, Tempo, 1291990
1, 137520, Tempo, 1264755
1, 137640, Tempo, 1363946
1, 137760, Tempo, 1238646
1, 137880, Tempo, 1291990
1, 137940, Tempo, 1264755
1, 138120, Tempo, 1395673
1, 138240, Tempo, 1251564
1, 138360, Tempo, 1291990
1, 138420, Tempo, 1290600
1, 138720, Tempo, 1276867
1, 138900, Tempo, 1238646
1, 139020, Tempo, 1276867
1, 139080, Tempo, 1363946
1, 139200, Tempo, 1304631
1, 139440, Tempo, 1251564
1, 139560, Tempo, 1320423
1, 139680, Tempo, 1291990
1, 139920, Tempo, 1238646
1, 140040, Tempo, 1306051
1, 140160, Tempo, 1291990
1, 140400, Tempo, 1251564
1, 140520, Tempo, 1350135
1, 140640, Tempo, 1291990
1, 140880, Tempo, 1251564
1, 141000, Tempo, 1320423
1, 141120, Tempo, 1291990
1, 141240, Tempo, 1251564
1, 141360, Tempo, 1238646
1, 141420, Tempo, 1365498
1, 141600, Tempo, 1291990
1, 141790, Tempo, 1238646
1, 141829, Tempo, 1251564
1, 141867, Tempo, 1264755
1, 141906, Tempo, 1278228
1, 141944, Tempo, 1291990
1, 141982, Tempo, 1306051
1, 142021, Tempo, 1320423
1, 142040, Tempo, 1335113
1, 142080, Tempo, 1291990
1, 142560, Tempo, 1264755
1, 142680, Tempo, 1306051
1, 142920, Tempo, 1430615
1, 143040, Tempo, 1320423
1, 143280, Tempo, 1381215
1, 143400, Tempo, 1502253
1, 143520, Tempo, 1291990
1, 144000, Tempo, 1415762
1, 144480, Tempo, 1278228
1, 144720, Tempo, 1350135
1, 144960, Tempo, 1365498
1, 145200, Tempo, 1307759
1, 145440, Tempo, 1251564
1, 145680, Tempo, 1322168
1, 145920, Tempo, 1322168
1, 146160, Tempo, 1238646
1, 146400, Tempo, 1251564
1, 146640, Tempo, 1432665
1, 146880, Tempo, 1322168
1, 147360, Tempo, 1266357
1, 147480, Tempo, 1166407
1, 147600, Tempo, 1213592
1, 147720, Tempo, 1624256
1, 147840, Tempo, 1307759
1, 148320, Tempo, 1225991
1, 148560, Tempo, 1279863
1, 148800, Tempo, 1335113
1, 149040, Tempo, 1253133
1, 149280, Tempo, 1225991
1, 149520, Tempo, 1322168
1, 149760, Tempo, 1307759
1, 150000, Tempo, 1227496
1, 150180, Tempo, 1485884
1, 150240, Tempo, 1307759
1, 150480, Tempo, 1189532
1, 150660, Tempo, 2227171
1, 150720, Tempo, 1415762
1, 151200, Tempo, 1293661
1, 151680, Tempo, 1293661
1, 151740, Tempo, 1266357
1, 152040, Tempo, 1322168
1, 152160, Tempo, 1227496
1, 152280, Tempo, 1240182
1, 152400, Tempo, 1266357
1, 152520, Tempo, 1367366
1, 152640, Tempo, 1293661
1, 152880, Tempo, 1336898
1, 153000, Tempo, 1266357
1, 153120, Tempo, 1307759
1, 153600, Tempo, 1293661
1, 153660, Tempo, 1266357
1, 153960, Tempo, 1322168
1, 154080, Tempo, 1227496
1, 154200, Tempo, 1240182
1, 154320, Tempo, 1266357
1, 154440, Tempo, 1367366
1, 154560, Tempo, 1264755
1, 154800, Tempo, 1291990
1, 154920, Tempo, 1266357
1, 155040, Tempo, 1307759
1, 155400, Tempo, 1381215
1, 155520, Tempo, 1264755
1, 155640, Tempo, 1278228
1, 155880, Tempo, 1381215
1, 156000, Tempo, 1306051
1, 156120, Tempo, 1278228
1, 156360, Tempo, 1320423
1, 156480, Tempo, 1213592
1, 156600, Tempo, 1251564
1, 156840, Tempo, 1365498
1, 156960, Tempo, 1306051
1, 157020, Tempo, 1291990
1, 157320, Tempo, 1350135
1, 157440, Tempo, 1238646
1, 157560, Tempo, 1278228
1, 157800, Tempo, 1350135
1, 157920, Tempo, 1278228
1, 158040, Tempo, 1306051
1, 158280, Tempo, 1465559
1, 158400, Tempo, 1365498
1, 159360, Tempo, 1293661
1, 159420, Tempo, 1266357
1, 159720, Tempo, 1322168
1, 159840, Tempo, 1227496
1, 159960, Tempo, 1240182
1, 160080, Tempo, 1266357
1, 160200, Tempo, 1367366
1, 160320, Tempo, 1293661
1, 160380, Tempo, 1266357
1, 160680, Tempo, 1322168
1, 160800, Tempo, 1227496
1, 160920, Tempo, 1240182
1, 161040, Tempo, 1266357
1, 161160, Tempo, 1367366
1, 161280, Tempo, 1278228
1, 161400, Tempo, 1306051
1, 161520, Tempo, 1278228
1, 161640, Tempo, 1320423
1, 161760, Tempo, 1291990
1, 162120, Tempo, 1365498
1, 162240, Tempo, 1291990
1, 162360, Tempo, 1264755
1, 162600, Tempo, 1264755
1, 162720, Tempo, 1320423
1, 162840, Tempo, 1278228
1, 163080, Tempo, 1350135
1, 163200, Tempo, 1291990
1, 163320, Tempo, 1264755
1, 163560, Tempo, 1264755
1, 163680, Tempo, 1320423
1, 163800, Tempo, 1278228
1, 164040, Tempo, 1350135
1, 164160, Tempo, 1291990
1, 164280, Tempo, 1264755
1, 164520, Tempo, 1264755
1, 164640, Tempo, 1320423
1, 164760, Tempo, 1278228
1, 165000, Tempo, 1767826
1, 165120, Tempo, 1306051
1, 165120, End_track
2, 0, Start_track
2, 0, Title_t, "Piano right"
2, 0, Program_c, 0, 0
2, 0, Note_on_c, 0, 67, 31
2, 0, Note_on_c, 0, 70, 45
2, 480, Note_on_c, 0, 70, 0
2, 480, Note_on_c, 0, 67, 0
2, 480, Note_on_c, 0, 63, 29
2, 480, Note_on_c, 0, 67, 44
2, 720, Note_on_c, 0, 67, 0
2, 720, Note_on_c, 0, 63, 0
2, 720, Note_on_c, 0, 58, 30
2, 720, Note_on_c, 0, 65, 45
2, 960, Note_on_c, 0, 65, 0
2, 960, Note_on_c, 0, 58, 0
2, 960, Note_on_c, 0, 55, 30
2, 960, Note_on_c, 0, 63, 45
2, 1200, Note_on_c, 0, 63, 0
2, 1200, Note_on_c, 0, 55, 0
2, 1200, Note_on_c, 0, 58, 43
2, 1440, Note_on_c, 0, 58, 0
2, 1440, Note_on_c, 0, 63, 45
2, 1680, Note_on_c, 0, 63, 0
2, 1680, Note_on_c, 0, 62, 31
2, 1680, Note_on_c, 0, 65, 45
2, 1920, Note_on_c, 0, 65, 0
2, 1920, Note_on_c, 0, 62, 0
2, 1920, Note_on_c, 0, 63, 34
2, 1920, Note_on_c, 0, 67, 47
2, 2160, Note_on_c, 0, 67, 0
2, 2160, Note_on_c, 0, 68, 61
2, 2400, Note_on_c, 0, 68, 0
2, 2400, Note_on_c, 0, 70, 62
2, 2640, Note_on_c, 0, 70, 0
2, 2640, Note_on_c, 0, 72, 62
2, 2880, Note_on_c, 0, 72, 0
2, 2880, Note_on_c, 0, 63, 0
2, 2880, Note_on_c, 0, 67, 57
2, 2880, Note_on_c, 0, 63, 40
2, 3240, Note_on_c, 0, 67, 0
2, 3240, Note_on_c, 0, 68, 48
2, 3360, Note_on_c, 0, 68, 0
2, 3360, Note_on_c, 0, 63, 0
2, 3360, Note_on_c, 0, 62, 35
2, 3360, Note_on_c, 0, 65, 50
2, 3480, Note_on_c, 0, 67, 48
2, 3490, Note_on_c, 0, 65, 0
2, 3600, Note_on_c, 0, 68, 49
2, 3610, Note_on_c, 0, 67, 0
2, 3720, Note_on_c, 0, 69, 49
2, 3730, Note_on_c, 0, 68, 0
2, 3840, Note_on_c, 0, 69, 0
2, 3840, Note_on_c, 0, 62, 0
2, 3840, Note_on_c, 0, 70, 50
2, 3840, Note_on_c, 0, 82, 59
2, 4320, Note_on_c, 0, 82, 0
2, 4320, Note_on_c, 0, 79, 62
2, 4560, Note_on_c, 0, 79, 0
2, 4560, Note_on_c, 0, 77, 58
2, 4800, Note_on_c, 0, 77, 0
2, 4800, Note_on_c, 0, 70, 0
2, 4800, Note_on_c, 0, 70, 50
2, 4800, Note_on_c, 0, 75, 60
2, 4980, Note_on_c, 0, 75, 0
2, 4980, Note_on_c, 0, 70, 0
2, 5040, Note_on_c, 0, 74, 46
2, 5040, Note_on_c, 0, 77, 55
2, 5220, Note_on_c, 0, 77, 0
2, 5220, Note_on_c, 0, 74, 0
2, 5280, Note_on_c, 0, 75, 49
2, 5280, Note_on_c, 0, 79, 58
2, 5460, Note_on_c, 0, 79, 0
2, 5460, Note_on_c, 0, 75, 0
2, 5520, Note_on_c, 0, 75, 51
2, 5520, Note_on_c, 0, 80, 61
2, 5700, Note_on_c, 0, 80, 0
2, 5700, Note_on_c, 0, 75, 0
2, 5760, Note_on_c, 0, 82, 63
2, 5760, Note_on_c, 0, 75, 54
2, 6000, Note_on_c, 0, 75, 0
2, 6000, Note_on_c, 0, 82, 0
2, 6000, Note_on_c, 0, 83, 62
2, 6060, Note_on_c, 0, 84, 59
2, 6070, Note_on_c, 0, 83, 0
2, 6120, Note_on_c, 0, 80, 59
2, 6130, Note_on_c, 0, 84, 0
2, 6180, Note_on_c, 0, 77, 57
2, 6190, Note_on_c, 0, 80, 0
2, 6240, Note_on_c, 0, 77, 0
2, 6240, Note_on_c, 0, 75, 64
2, 6480, Note_on_c, 0, 75, 0
2, 6480, Note_on_c, 0, 79, 60
2, 6540, Note_on_c, 0, 77, 56
2, 6550, Note_on_c, 0, 79, 0
2, 6600, Note_on_c, 0, 76, 56
2, 6610, Note_on_c, 0, 77, 0
2, 6660, Note_on_c, 0, 77, 53
2, 6670, Note_on_c, 0, 76, 0
2, 6710, Note_on_c, 0, 77, 0
2, 6720, Note_on_c, 0, 74, 51
2, 6720, Note_on_c, 0, 77, 61
2, 7200, Note_on_c, 0, 77, 0
2, 7200, Note_on_c, 0, 74, 0
2, 7200, Note_on_c, 0, 75, 54
2, 7440, Note_on_c, 0, 75, 0
2, 7680, Note_on_c, 0, 67, 31
2, 7680, Note_on_c, 0, 70, 45
2, 8160, Note_on_c, 0, 70, 0
2, 8160, Note_on_c, 0, 67, 0
2, 8160, Note_on_c, 0, 63, 29
2, 8160, Note_on_c, 0, 67, 44
2, 8400, Note_on_c, 0, 67, 0
2, 8400, Note_on_c, 0, 63, 0
2, 8400, Note_on_c, 0, 58, 30
2, 8400, Note_on_c, 0, 65, 45
2, 8640, Note_on_c, 0, 65, 0
2, 8640, Note_on_c, 0, 58, 0
2, 8640, Note_on_c, 0, 55, 30
2, 8640, Note_on_c, 0, 63, 45
2, 8880, Note_on_c, 0, 63, 0
2, 8880, Note_on_c, 0, 55, 0
2, 8880, Note_on_c, 0, 58, 43
2, 9120, Note_on_c, 0, 58, 0
2, 9120, Note_on_c, 0, 63, 45
2, 9360, Note_on_c, 0, 63, 0
2, 9360, Note_on_c, 0, 62, 31
2, 9360, Note_on_c, 0, 65, 45
2, 9600, Note_on_c, 0, 65, 0
2, 9600, Note_on_c, 0, 62, 0
2, 9600, Note_on_c, 0, 63, 34
2, 9600, Note_on_c, 0, 67, 47
2, 9840, Note_on_c, 0, 67, 0
2, 9840, Note_on_c, 0, 68, 59
2, 10080, Note_on_c, 0, 68, 0
2, 10080, Note_on_c, 0, 70, 62
2, 10320, Note_on_c, 0, 70, 0
2, 10320, Note_on_c, 0, 72, 59
2, 10560, Note_on_c, 0, 72, 0
2, 10560, Note_on_c, 0, 63, 0
2, 10560, Note_on_c, 0, 67, 57
2, 10560, Note_on_c, 0, 63, 40
2, 10920, Note_on_c, 0, 67, 0
2, 10920, Note_on_c, 0, 68, 48
2, 11040, Note_on_c, 0, 68, 0
2, 11040, Note_on_c, 0, 63, 0
2, 11040, Note_on_c, 0, 62, 35
2, 11040, Note_on_c, 0, 65, 50
2, 11160, Note_on_c, 0, 67, 48
2, 11170, Note_on_c, 0, 65, 0
2, 11280, Note_on_c, 0, 68, 49
2, 11290, Note_on_c, 0, 67, 0
2, 11400, Note_on_c, 0, 69, 49
2, 11410, Note_on_c, 0, 68, 0
2, 11520, Note_on_c, 0, 69, 0
2, 11520, Note_on_c, 0, 62, 0
2, 11520, Note_on_c, 0, 70, 50
2, 11520, Note_on_c, 0, 82, 59
2, 12000, Note_on_c, 0, 82, 0
2, 12000, Note_on_c, 0, 79, 62
2, 12240, Note_on_c, 0, 79, 0
2, 12240, Note_on_c, 0, 77, 58
2, 12480, Note_on_c, 0, 77, 0
2, 12480, Note_on_c, 0, 70, 0
2, 12480, Note_on_c, 0, 70, 50
2, 12480, Note_on_c, 0, 75, 60
2, 12660, Note_on_c, 0, 75, 0
2, 12660, Note_on_c, 0, 70, 0
2, 12720, Note_on_c, 0, 74, 46
2, 12720, Note_on_c, 0, 77, 55
2, 12900, Note_on_c, 0, 77, 0
2, 12900, Note_on_c, 0, 74, 0
2, 12960, Note_on_c, 0, 75, 49
2, 12960, Note_on_c, 0, 79, 58
2, 13140, Note_on_c, 0, 79, 0
2, 13140, Note_on_c, 0, 75, 0
2, 13200, Note_on_c, 0, 75, 51
2, 13200, Note_on_c, 0, 80, 61
2, 13380, Note_on_c, 0, 80, 0
2, 13380, Note_on_c, 0, 75, 0
2, 13440, Note_on_c, 0, 82, 63
2, 13440, Note_on_c, 0, 75, 54
2, 13680, Note_on_c, 0, 75, 0
2, 13680, Note_on_c, 0, 82, 0
2, 13680, Note_on_c, 0, 83, 63
2, 13740, Note_on_c, 0, 84, 59
2, 13750, Note_on_c, 0, 83, 0
2, 13800, Note_on_c, 0, 80, 59
2, 13810, Note_on_c, 0, 84, 0
2, 13860, Note_on_c, 0, 77, 57
2, 13870, Note_on_c, 0, 80, 0
2, 13920, Note_on_c, 0, 77, 0
2, 13920, Note_on_c, 0, 75, 64
2, 14160, Note_on_c, 0, 75, 0
2, 14160, Note_on_c, 0, 79, 60
2, 14220, Note_on_c, 0, 77, 56
2, 14230, Note_on_c, 0, 79, 0
2, 14280, Note_on_c, 0, 76, 56
2, 14290, Note_on_c, 0, 77, 0
2, 14340, Note_on_c, 0, 77, 53
2, 14350, Note_on_c, 0, 76, 0
2, 14390, Note_on_c, 0, 77, 0
2, 14400, Note_on_c, 0, 74, 51
2, 14400, Note_on_c, 0, 77, 61
2, 14880, Note_on_c, 0, 77, 0
2, 14880, Note_on_c, 0, 74, 0
2, 14880, Note_on_c, 0, 75, 54
2, 15120, Note_on_c, 0, 75, 0
2, 15360, Note_on_c, 0, 77, 60
2, 15840, Note_on_c, 0, 77, 0
2, 15840, Note_on_c, 0, 79, 60
2, 16080, Note_on_c, 0, 79, 0
2, 16080, Note_on_c, 0, 75, 55
2, 16320, Note_on_c, 0, 75, 0
2, 16320, Note_on_c, 0, 80, 60
2, 16680, Note_on_c, 0, 80, 0
2, 16680, Note_on_c, 0, 77, 54
2, 16800, Note_on_c, 0, 77, 0
2, 16800, Note_on_c, 0, 74, 56
2, 16920, Note_on_c, 0, 75, 55
2, 16930, Note_on_c, 0, 74, 0
2, 17040, Note_on_c, 0, 77, 57
2, 17050, Note_on_c, 0, 75, 0
2, 17160, Note_on_c, 0, 78, 59
2, 17170, Note_on_c, 0, 77, 0
2, 17280, Note_on_c, 0, 79, 60
2, 17290, Note_on_c, 0, 78, 0
2, 17520, Note_on_c, 0, 79, 0
2, 17520, Note_on_c, 0, 79, 63
2, 17760, Note_on_c, 0, 79, 0
2, 17760, Note_on_c, 0, 80, 63
2, 18000, Note_on_c, 0, 80, 0
2, 18000, Note_on_c, 0, 81, 63
2, 18240, Note_on_c, 0, 81, 0
2, 18240, Note_on_c, 0, 82, 67
2, 18600, Note_on_c, 0, 82, 0
2, 18600, Note_on_c, 0, 84, 58
2, 18640, Note_on_c, 0, 82, 58
2, 18650, Note_on_c, 0, 84, 0
2, 18680, Note_on_c, 0, 80, 58
2, 18690, Note_on_c, 0, 82, 0
2, 18720, Note_on_c, 0, 79, 62
2, 18730, Note_on_c, 0, 80, 0
2, 18840, Note_on_c, 0, 79, 0
2, 18840, Note_on_c, 0, 80, 56
2, 18960, Note_on_c, 0, 82, 60
2, 18970, Note_on_c, 0, 80, 0
2, 19080, Note_on_c, 0, 83, 63
2, 19090, Note_on_c, 0, 82, 0
2, 19200, Note_on_c, 0, 83, 0
2, 19200, Note_on_c, 0, 84, 63
2, 19680, Note_on_c, 0, 84, 0
2, 19680, Note_on_c, 0, 82, 63
2, 20160, Note_on_c, 0, 82, 0
2, 20160, Note_on_c, 0, 81, 63
2, 20640, Note_on_c, 0, 81, 0
2, 20640, Note_on_c, 0, 80, 63
2, 21120, Note_on_c, 0, 80, 0
2, 21120, Note_on_c, 0, 79, 67
2, 21360, Note_on_c, 0, 79, 0
2, 21360, Note_on_c, 0, 87, 68
2, 21600, Note_on_c, 0, 87, 0
2, 21600, Note_on_c, 0, 77, 67
2, 21840, Note_on_c, 0, 77, 0
2, 21840, Note_on_c, 0, 84, 64
2, 22080, Note_on_c, 0, 84, 0
2, 22080, Note_on_c, 0, 75, 56
2, 22440, Note_on_c, 0, 75, 0
2, 22440, Note_on_c, 0, 77, 46
2, 22500, Note_on_c, 0, 77, 0
2, 22500, Note_on_c, 0, 75, 42
2, 22560, Note_on_c, 0, 75, 0
2, 22560, Note_on_c, 0, 74, 45
2, 22800, Note_on_c, 0, 74, 0
2, 23040, Note_on_c, 0, 67, 31
2, 23040, Note_on_c, 0, 70, 45
2, 23520, Note_on_c, 0, 70, 0
2, 23520, Note_on_c, 0, 67, 0
2, 23520, Note_on_c, 0, 63, 29
2, 23520, Note_on_c, 0, 67, 44
2, 23760, Note_on_c, 0, 67, 0
2, 23760, Note_on_c, 0, 63, 0
2, 23760, Note_on_c, 0, 58, 30
2, 23760, Note_on_c, 0, 65, 45
2, 24000, Note_on_c, 0, 65, 0
2, 24000, Note_on_c, 0, 58, 0
2, 24000, Note_on_c, 0, 55, 30
2, 24000, Note_on_c, 0, 63, 45
2, 24240, Note_on_c, 0, 63, 0
2, 24240, Note_on_c, 0, 55, 0
2, 24240, Note_on_c, 0, 58, 43
2, 24480, Note_on_c, 0, 58, 0
2, 24480, Note_on_c, 0, 63, 45
2, 24720, Note_on_c, 0, 63, 0
2, 24720, Note_on_c, 0, 62, 31
2, 24720, Note_on_c, 0, 65, 45
2, 24960, Note_on_c, 0, 65, 0
2, 24960, Note_on_c, 0, 62, 0
2, 24960, Note_on_c, 0, 63, 34
2, 24960, Note_on_c, 0, 67, 47
2, 25200, Note_on_c, 0, 67, 0
2, 25200, Note_on_c, 0, 68, 61
2, 25440, Note_on_c, 0, 68, 0
2, 25440, Note_on_c, 0, 70, 62
2, 25680, Note_on_c, 0, 70, 0
2, 25680, Note_on_c, 0, 72, 62
2, 25920, Note_on_c, 0, 72, 0
2, 25920, Note_on_c, 0, 63, 0
2, 25920, Note_on_c, 0, 67, 57
2, 25920, Note_on_c, 0, 63, 40
2, 26280, Note_on_c, 0, 67, 0
2, 26280, Note_on_c, 0, 68, 48
2, 26400, Note_on_c, 0, 68, 0
2, 26400, Note_on_c, 0, 63, 0
2, 26400, Note_on_c, 0, 62, 35
2, 26400, Note_on_c, 0, 65, 50
2, 26520, Note_on_c, 0, 67, 48
2, 26530, Note_on_c, 0, 65, 0
2, 26640, Note_on_c, 0, 68, 49
2, 26650, Note_on_c, 0, 67, 0
2, 26760, Note_on_c, 0, 69, 49
2, 26770, Note_on_c, 0, 68, 0
2, 26880, Note_on_c, 0, 69, 0
2, 26880, Note_on_c, 0, 62, 0
2, 26880, Note_on_c, 0, 70, 50
2, 26880, Note_on_c, 0, 82, 59
2, 27360, Note_on_c, 0, 82, 0
2, 27360, Note_on_c, 0, 79, 62
2, 27600, Note_on_c, 0, 79, 0
2, 27600, Note_on_c, 0, 77, 58
2, 27840, Note_on_c, 0, 77, 0
2, 27840, Note_on_c, 0, 70, 0
2, 27840, Note_on_c, 0, 70, 50
2, 27840, Note_on_c, 0, 75, 60
2, 28020, Note_on_c, 0, 75, 0
2, 28020, Note_on_c, 0, 70, 0
2, 28080, Note_on_c, 0, 74, 46
2, 28080, Note_on_c, 0, 77, 55
2, 28260, Note_on_c, 0, 77, 0
2, 28260, Note_on_c, 0, 74, 0
2, 28320, Note_on_c, 0, 75, 49
2, 28320, Note_on_c, 0, 79, 58
2, 28500, Note_on_c, 0, 79, 0
2, 28500, Note_on_c, 0, 75, 0
2, 28560, Note_on_c, 0, 75, 51
2, 28560, Note_on_c, 0, 80, 61
2, 28740, Note_on_c, 0, 80, 0
2, 28740, Note_on_c, 0, 75, 0
2, 28800, Note_on_c, 0, 82, 63
2, 28800, Note_on_c, 0, 75, 54
2, 29040, Note_on_c, 0, 75, 0
2, 29040, Note_on_c, 0, 82, 0
2, 29040, Note_on_c, 0, 83, 62
2, 29100, Note_on_c, 0, 84, 59
2, 29110, Note_on_c, 0, 83, 0
2, 29160, Note_on_c, 0, 80, 59
2, 29170, Note_on_c, 0, 84, 0
2, 29220, Note_on_c, 0, 77, 57
2, 29230, Note_on_c, 0, 80, 0
2, 29280, Note_on_c, 0, 77, 0
2, 29280, Note_on_c, 0, 75, 64
2, 29520, Note_on_c, 0, 75, 0
2, 29520, Note_on_c, 0, 79, 60
2, 29580, Note_on_c, 0, 77, 56
2, 29590, Note_on_c, 0, 79, 0
2, 29640, Note_on_c, 0, 76, 56
2, 29650, Note_on_c, 0, 77, 0
2, 29700, Note_on_c, 0, 77, 53
2, 29710, Note_on_c, 0, 76, 0
2, 29750, Note_on_c, 0, 77, 0
2, 29760, Note_on_c, 0, 74, 51
2, 29760, Note_on_c, 0, 77, 61
2, 30240, Note_on_c, 0, 77, 0
2, 30240, Note_on_c, 0, 74, 0
2, 30240, Note_on_c, 0, 75, 54
2, 30480, Note_on_c, 0, 75, 0
2, 30720, Note_on_c, 0, 77, 60
2, 31200, Note_on_c, 0, 77, 0
2, 31200, Note_on_c, 0, 79, 60
2, 31440, Note_on_c, 0, 79, 0
2, 31440, Note_on_c, 0, 75, 55
2, 31680, Note_on_c, 0, 75, 0
2, 31680, Note_on_c, 0, 80, 60
2, 32040, Note_on_c, 0, 80, 0
2, 32040, Note_on_c, 0, 77, 54
2, 32160, Note_on_c, 0, 77, 0
2, 32160, Note_on_c, 0, 74, 56
2, 32280, Note_on_c, 0, 75, 55
2, 32290, Note_on_c, 0, 74, 0
2, 32400, Note_on_c, 0, 77, 57
2, 32410, Note_on_c, 0, 75, 0
2, 32520, Note_on_c, 0, 78, 59
2, 32530, Note_on_c, 0, 77, 0
2, 32640, Note_on_c, 0, 79, 60
2, 32650, Note_on_c, 0, 78, 0
2, 32880, Note_on_c, 0, 79, 0
2, 32880, Note_on_c, 0, 79, 63
2, 33120, Note_on_c, 0, 79, 0
2, 33120, Note_on_c, 0, 80, 63
2, 33360, Note_on_c, 0, 80, 0
2, 33360, Note_on_c, 0, 81, 63
2, 33600, Note_on_c, 0, 81, 0
2, 33600, Note_on_c, 0, 82, 67
2, 33960, Note_on_c, 0, 82, 0
2, 33960, Note_on_c, 0, 84, 58
2, 34000, Note_on_c, 0, 82, 58
2, 34010, Note_on_c, 0, 84, 0
2, 34040, Note_on_c, 0, 80, 58
2, 34050, Note_on_c, 0, 82, 0
2, 34080, Note_on_c, 0, 79, 62
2, 34090, Note_on_c, 0, 80, 0
2, 34200, Note_on_c, 0, 79, 0
2, 34200, Note_on_c, 0, 80, 56
2, 34320, Note_on_c, 0, 82, 60
2, 34330, Note_on_c, 0, 80, 0
2, 34440, Note_on_c, 0, 83, 63
2, 34450, Note_on_c, 0, 82, 0
2, 34560, Note_on_c, 0, 83, 0
2, 34560, Note_on_c, 0, 84, 63
2, 35040, Note_on_c, 0, 84, 0
2, 35040, Note_on_c, 0, 82, 63
2, 35520, Note_on_c, 0, 82, 0
2, 35520, Note_on_c, 0, 81, 63
2, 36000, Note_on_c, 0, 81, 0
2, 36000, Note_on_c, 0, 80, 63
2, 36480, Note_on_c, 0, 80, 0
2, 36480, Note_on_c, 0, 79, 67
2, 36720, Note_on_c, 0, 79, 0
2, 36720, Note_on_c, 0, 87, 68
2, 36960, Note_on_c, 0, 87, 0
2, 36960, Note_on_c, 0, 77, 67
2, 37200, Note_on_c, 0, 77, 0
2, 37200, Note_on_c, 0, 84, 64
2, 37440, Note_on_c, 0, 84, 0
2, 37440, Note_on_c, 0, 75, 56
2, 37800, Note_on_c, 0, 75, 0
2, 37800, Note_on_c, 0, 77, 46
2, 37860, Note_on_c, 0, 77, 0
2, 37860, Note_on_c, 0, 75, 42
2, 37920, Note_on_c, 0, 75, 0
2, 37920, Note_on_c, 0, 74, 45
2, 38160, Note_on_c, 0, 74, 0
2, 38400, Note_on_c, 0, 67, 31
2, 38400, Note_on_c, 0, 70, 45
2, 38880, Note_on_c, 0, 70, 0
2, 38880, Note_on_c, 0, 67, 0
2, 38880, Note_on_c, 0, 63, 29
2, 38880, Note_on_c, 0, 67, 44
2, 39120, Note_on_c, 0, 67, 0
2, 39120, Note_on_c, 0, 63, 0
2, 39120, Note_on_c, 0, 58, 30
2, 39120, Note_on_c, 0, 65, 45
2, 39360, Note_on_c, 0, 65, 0
2, 39360, Note_on_c, 0, 58, 0
2, 39360, Note_on_c, 0, 55, 30
2, 39360, Note_on_c, 0, 63, 45
2, 39600, Note_on_c, 0, 63, 0
2, 39600, Note_on_c, 0, 55, 0
2, 39600, Note_on_c, 0, 58, 43
2, 39840, Note_on_c, 0, 58, 0
2, 39840, Note_on_c, 0, 63, 45
2, 40080, Note_on_c, 0, 63, 0
2, 40080, Note_on_c, 0, 62, 31
2, 40080, Note_on_c, 0, 65, 45
2, 40320, Note_on_c, 0, 65, 0
2, 40320, Note_on_c, 0, 62, 0
2, 40320, Note_on_c, 0, 63, 34
2, 40320, Note_on_c, 0, 67, 47
2, 40560, Note_on_c, 0, 67, 0
2, 40560, Note_on_c, 0, 68, 61
2, 40800, Note_on_c, 0, 68, 0
2, 40800, Note_on_c, 0, 70, 62
2, 41040, Note_on_c, 0, 70, 0
2, 41040, Note_on_c, 0, 72, 62
2, 41280, Note_on_c, 0, 72, 0
2, 41280, Note_on_c, 0, 63, 0
2, 41280, Note_on_c, 0, 67, 57
2, 41280, Note_on_c, 0, 63, 40
2, 41640, Note_on_c, 0, 67, 0
2, 41640, Note_on_c, 0, 68, 48
2, 41760, Note_on_c, 0, 68, 0
2, 41760, Note_on_c, 0, 63, 0
2, 41760, Note_on_c, 0, 62, 35
2, 41760, Note_on_c, 0, 65, 50
2, 41880, Note_on_c, 0, 67, 48
2, 41890, Note_on_c, 0, 65, 0
2, 42000, Note_on_c, 0, 68, 49
2, 42010, Note_on_c, 0, 67, 0
2, 42120, Note_on_c, 0, 69, 49
2, 42130, Note_on_c, 0, 68, 0
2, 42240, Note_on_c, 0, 69, 0
2, 42240, Note_on_c, 0, 62, 0
2, 42240, Note_on_c, 0, 70, 50
2, 42240, Note_on_c, 0, 82, 59
2, 42720, Note_on_c, 0, 82, 0
2, 42720, Note_on_c, 0, 79, 62
2, 42960, Note_on_c, 0, 79, 0
2, 42960, Note_on_c, 0, 77, 58
2, 43200, Note_on_c, 0, 77, 0
2, 43200, Note_on_c, 0, 70, 0
2, 43200, Note_on_c, 0, 70, 50
2, 43200, Note_on_c, 0, 75, 60
2, 43380, Note_on_c, 0, 75, 0
2, 43380, Note_on_c, 0, 70, 0
2, 43440, Note_on_c, 0, 74, 46
2, 43440, Note_on_c, 0, 77, 55
2, 43620, Note_on_c, 0, 77, 0
2, 43620, Note_on_c, 0, 74, 0
2, 43680, Note_on_c, 0, 75, 49
2, 43680, Note_on_c, 0, 79, 58
2, 43860, Note_on_c, 0, 79, 0
2, 43860, Note_on_c, 0, 75, 0
2, 43920, Note_on_c, 0, 75, 51
2, 43920, Note_on_c, 0, 80, 61
2, 44100, Note_on_c, 0, 80, 0
2, 44100, Note_on_c, 0, 75, 0
2, 44160, Note_on_c, 0, 82, 63
2, 44160, Note_on_c, 0, 75, 54
2, 44400, Note_on_c, 0, 75, 0
2, 44400, Note_on_c, 0, 82, 0
2, 44400, Note_on_c, 0, 83, 62
2, 44460, Note_on_c, 0, 84, 59
2, 44470, Note_on_c, 0, 83, 0
2, 44520, Note_on_c, 0, 80, 59
2, 44530, Note_on_c, 0, 84, 0
2, 44580, Note_on_c, 0, 77, 57
2, 44590, Note_on_c, 0, 80, 0
2, 44640, Note_on_c, 0, 77, 0
2, 44640, Note_on_c, 0, 75, 64
2, 44880, Note_on_c, 0, 75, 0
2, 44880, Note_on_c, 0, 79, 60
2, 44940, Note_on_c, 0, 77, 56
2, 44950, Note_on_c, 0, 79, 0
2, 45000, Note_on_c, 0, 76, 56
2, 45010, Note_on_c, 0, 77, 0
2, 45060, Note_on_c, 0, 77, 53
2, 45070, Note_on_c, 0, 76, 0
2, 45110, Note_on_c, 0, 77, 0
2, 45120, Note_on_c, 0, 74, 51
2, 45120, Note_on_c, 0, 77, 61
2, 45600, Note_on_c, 0, 77, 0
2, 45600, Note_on_c, 0, 74, 0
2, 45600, Note_on_c, 0, 75, 54
2, 45840, Note_on_c, 0, 75, 0
2, 46080, Note_on_c, 0, 75, 49
2, 46080, Note_on_c, 0, 79, 59
2, 46440, Note_on_c, 0, 79, 0
2, 46440, Note_on_c, 0, 75, 0
2, 46440, Note_on_c, 0, 74, 47
2, 46440, Note_on_c, 0, 77, 56
2, 46560, Note_on_c, 0, 77, 0
2, 46560, Note_on_c, 0, 74, 0
2, 46560, Note_on_c, 0, 72, 47
2, 46560, Note_on_c, 0, 75, 56
2, 46800, Note_on_c, 0, 75, 0
2, 46800, Note_on_c, 0, 72, 0
2, 47040, Note_on_c, 0, 77, 52
2, 47040, Note_on_c, 0, 80, 63
2, 47400, Note_on_c, 0, 80, 0
2, 47400, Note_on_c, 0, 77, 0
2, 47400, Note_on_c, 0, 75, 46
2, 47400, Note_on_c, 0, 79, 54
2, 47520, Note_on_c, 0, 79, 0
2, 47520, Note_on_c, 0, 75, 0
2, 47520, Note_on_c, 0, 74, 48
2, 47520, Note_on_c, 0, 77, 58
2, 47760, Note_on_c, 0, 77, 0
2, 47760, Note_on_c, 0, 74, 0
2, 48120, Note_on_c, 0, 72, 47
2, 48120, Note_on_c, 0, 75, 57
2, 48240, Note_on_c, 0, 74, 50
2, 48240, Note_on_c, 0, 77, 60
2, 48252, Note_on_c, 0, 75, 0
2, 48252, Note_on_c, 0, 72, 0
2, 48360, Note_on_c, 0, 75, 52
2, 48360, Note_on_c, 0, 79, 62
2, 48372, Note_on_c, 0, 74, 0
2, 48372, Note_on_c, 0, 77, 0
2, 48450, Note_on_c, 0, 75, 0
2, 48450, Note_on_c, 0, 79, 0
2, 48480, Note_on_c, 0, 75, 51
2, 48480, Note_on_c, 0, 79, 61
2, 48600, Note_on_c, 0, 79, 0
2, 48600, Note_on_c, 0, 75, 0
2, 48600, Note_on_c, 0, 74, 50
2, 48600, Note_on_c, 0, 77, 60
2, 48720, Note_on_c, 0, 77, 0
2, 48720, Note_on_c, 0, 74, 0
2, 48720, Note_on_c, 0, 74, 48
2, 48720, Note_on_c, 0, 77, 58
2, 48840, Note_on_c, 0, 77, 0
2, 48840, Note_on_c, 0, 74, 0
2, 48840, Note_on_c, 0, 72, 47
2, 48840, Note_on_c, 0, 75, 56
2, 48930, Note_on_c, 0, 75, 0
2, 48930, Note_on_c, 0, 72, 0
2, 48960, Note_on_c, 0, 72, 49
2, 48960, Note_on_c, 0, 75, 58
2, 49440, Note_on_c, 0, 75, 0
2, 49440, Note_on_c, 0, 72, 0
2, 49440, Note_on_c, 0, 71, 45
2, 49440, Note_on_c, 0, 74, 54
2, 49680, Note_on_c, 0, 74, 0
2, 49680, Note_on_c, 0, 71, 0
2, 50040, Note_on_c, 0, 75, 57
2, 50160, Note_on_c, 0, 75, 0
2, 50160, Note_on_c, 0, 72, 53
2, 50280, Note_on_c, 0, 72, 0
2, 50280, Note_on_c, 0, 68, 53
2, 50400, Note_on_c, 0, 68, 0
2, 50400, Note_on_c, 0, 67, 53
2, 50640, Note_on_c, 0, 67, 0
2, 50640, Note_on_c, 0, 66, 55
2, 50880, Note_on_c, 0, 66, 0
2, 51000, Note_on_c, 0, 82, 61
2, 51120, Note_on_c, 0, 82, 0
2, 51120, Note_on_c, 0, 79, 61
2, 51240, Note_on_c, 0, 79, 0
2, 51240, Note_on_c, 0, 75, 61
2, 51360, Note_on_c, 0, 75, 0
2, 51360, Note_on_c, 0, 74, 65
2, 51600, Note_on_c, 0, 74, 0
2, 51600, Note_on_c, 0, 73, 61
2, 51840, Note_on_c, 0, 73, 0
2, 51960, Note_on_c, 0, 74, 54
2, 52080, Note_on_c, 0, 74, 0
2, 52200, Note_on_c, 0, 70, 53
2, 52200, Note_on_c, 0, 67, 45
2, 52320, Note_on_c, 0, 67, 0
2, 52320, Note_on_c, 0, 70, 0
2, 52440, Note_on_c, 0, 69, 45
2, 52440, Note_on_c, 0, 72, 53
2, 52560, Note_on_c, 0, 72, 0
2, 52560, Note_on_c, 0, 69, 0
2, 52680, Note_on_c, 0, 69, 45
2, 52680, Note_on_c, 0, 66, 53
2, 52800, Note_on_c, 0, 66, 0
2, 52800, Note_on_c, 0, 69, 0
2, 52920, Note_on_c, 0, 67, 49
2, 53040, Note_on_c, 0, 67, 0
2, 53040, Note_on_c, 0, 69, 49
2, 53160, Note_on_c, 0, 69, 0
2, 53160, Note_on_c, 0, 71, 49
2, 53280, Note_on_c, 0, 71, 0
2, 53280, Note_on_c, 0, 69, 41
2, 53280, Note_on_c, 0, 72, 49
2, 53400, Note_on_c, 0, 72, 0
2, 53400, Note_on_c, 0, 69, 0
2, 53400, Note_on_c, 0, 71, 42
2, 53400, Note_on_c, 0, 74, 50
2, 53520, Note_on_c, 0, 74, 0
2, 53520, Note_on_c, 0, 71, 0
2, 53520, Note_on_c, 0, 72, 44
2, 53520, Note_on_c, 0, 75, 52
2, 53640, Note_on_c, 0, 75, 0
2, 53640, Note_on_c, 0, 72, 0
2, 53640, Note_on_c, 0, 74, 45
2, 53640, Note_on_c, 0, 77, 54
2, 53760, Note_on_c, 0, 77, 0
2, 53760, Note_on_c, 0, 74, 0
2, 53760, Note_on_c, 0, 75, 49
2, 53760, Note_on_c, 0, 79, 59
2, 54120, Note_on_c, 0, 79, 0
2, 54120, Note_on_c, 0, 75, 0
2, 54120, Note_on_c, 0, 74, 47
2, 54120, Note_on_c, 0, 77, 56
2, 54240, Note_on_c, 0, 77, 0
2, 54240, Note_on_c, 0, 74, 0
2, 54240, Note_on_c, 0, 72, 47
2, 54240, Note_on_c, 0, 75, 56
2, 54480, Note_on_c, 0, 75, 0
2, 54480, Note_on_c, 0, 72, 0
2, 54720, Note_on_c, 0, 77, 52
2, 54720, Note_on_c, 0, 80, 63
2, 55080, Note_on_c, 0, 80, 0
2, 55080, Note_on_c, 0, 77, 0
2, 55080, Note_on_c, 0, 75, 46
2, 55080, Note_on_c, 0, 79, 54
2, 55200, Note_on_c, 0, 79, 0
2, 55200, Note_on_c, 0, 75, 0
2, 55200, Note_on_c, 0, 74, 48
2, 55200, Note_on_c, 0, 77, 58
2, 55440, Note_on_c, 0, 77, 0
2, 55440, Note_on_c, 0, 74, 0
2, 55800, Note_on_c, 0, 72, 47
2, 55800, Note_on_c, 0, 75, 57
2, 55920, Note_on_c, 0, 74, 50
2, 55920, Note_on_c, 0, 77, 60
2, 55932, Note_on_c, 0, 75, 0
2, 55932, Note_on_c, 0, 72, 0
2, 56040, Note_on_c, 0, 75, 52
2, 56040, Note_on_c, 0, 79, 62
2, 56052, Note_on_c, 0, 74, 0
2, 56052, Note_on_c, 0, 77, 0
2, 56130, Note_on_c, 0, 75, 0
2, 56130, Note_on_c, 0, 79, 0
2, 56160, Note_on_c, 0, 75, 51
2, 56160, Note_on_c, 0, 79, 61
2, 56280, Note_on_c, 0, 79, 0
2, 56280, Note_on_c, 0, 75, 0
2, 56280, Note_on_c, 0, 74, 50
2, 56280, Note_on_c, 0, 77, 60
2, 56400, Note_on_c, 0, 77, 0
2, 56400, Note_on_c, 0, 74, 0
2, 56400, Note_on_c, 0, 74, 48
2, 56400, Note_on_c, 0, 77, 58
2, 56520, Note_on_c, 0, 77, 0
2, 56520, Note_on_c, 0, 74, 0
2, 56520, Note_on_c, 0, 72, 47
2, 56520, Note_on_c, 0, 75, 56
2, 56610, Note_on_c, 0, 75, 0
2, 56610, Note_on_c, 0, 72, 0
2, 56640, Note_on_c, 0, 72, 49
2, 56640, Note_on_c, 0, 75, 58
2, 57120, Note_on_c, 0, 75, 0
2, 57120, Note_on_c, 0, 72, 0
2, 57120, Note_on_c, 0, 71, 45
2, 57120, Note_on_c, 0, 74, 54
2, 57360, Note_on_c, 0, 74, 0
2, 57360, Note_on_c, 0, 71, 0
2, 57720, Note_on_c, 0, 75, 57
2, 57840, Note_on_c, 0, 75, 0
2, 57840, Note_on_c, 0, 72, 53
2, 57960, Note_on_c, 0, 72, 0
2, 57960, Note_on_c, 0, 68, 53
2, 58080, Note_on_c, 0, 68, 0
2, 58080, Note_on_c, 0, 67, 53
2, 58320, Note_on_c, 0, 67, 0
2, 58320, Note_on_c, 0, 66, 55
2, 58560, Note_on_c, 0, 66, 0
2, 58680, Note_on_c, 0, 82, 61
2, 58800, Note_on_c, 0, 82, 0
2, 58800, Note_on_c, 0, 79, 61
2, 58920, Note_on_c, 0, 79, 0
2, 58920, Note_on_c, 0, 75, 61
2, 59040, Note_on_c, 0, 75, 0
2, 59040, Note_on_c, 0, 74, 65
2, 59280, Note_on_c, 0, 74, 0
2, 59280, Note_on_c, 0, 73, 61
2, 59520, Note_on_c, 0, 73, 0
2, 59640, Note_on_c, 0, 74, 54
2, 59760, Note_on_c, 0, 74, 0
2, 59880, Note_on_c, 0, 70, 53
2, 59880, Note_on_c, 0, 67, 45
2, 60000, Note_on_c, 0, 67, 0
2, 60000, Note_on_c, 0, 70, 0
2, 60120, Note_on_c, 0, 69, 45
2, 60120, Note_on_c, 0, 72, 53
2, 60240, Note_on_c, 0, 72, 0
2, 60240, Note_on_c, 0, 69, 0
2, 60360, Note_on_c, 0, 69, 45
2, 60360, Note_on_c, 0, 66, 53
2, 60480, Note_on_c, 0, 66, 0
2, 60480, Note_on_c, 0, 69, 0
2, 60600, Note_on_c, 0, 67, 49
2, 60720, Note_on_c, 0, 67, 0
2, 60720, Note_on_c, 0, 69, 49
2, 60840, Note_on_c, 0, 69, 0
2, 60840, Note_on_c, 0, 71, 49
2, 60960, Note_on_c, 0, 71, 0
2, 60960, Note_on_c, 0, 69, 41
2, 60960, Note_on_c, 0, 72, 49
2, 61080, Note_on_c, 0, 72, 0
2, 61080, Note_on_c, 0, 69, 0
2, 61080, Note_on_c, 0, 71, 42
2, 61080, Note_on_c, 0, 74, 50
2, 61200, Note_on_c, 0, 74, 0
2, 61200, Note_on_c, 0, 71, 0
2, 61200, Note_on_c, 0, 72, 44
2, 61200, Note_on_c, 0, 75, 52
2, 61320, Note_on_c, 0, 75, 0
2, 61320, Note_on_c, 0, 72, 0
2, 61320, Note_on_c, 0, 74, 45
2, 61320, Note_on_c, 0, 77, 54
2, 61440, Note_on_c, 0, 77, 0
2, 61440, Note_on_c, 0, 74, 0
2, 61440, Note_on_c, 0, 76, 49
2, 61440, Note_on_c, 0, 79, 59
2, 61920, Note_on_c, 0, 79, 0
2, 61920, Note_on_c, 0, 76, 0
2, 61920, Note_on_c, 0, 77, 47
2, 61920, Note_on_c, 0, 80, 56
2, 62400, Note_on_c, 0, 80, 0
2, 62400, Note_on_c, 0, 77, 0
2, 62400, Note_on_c, 0, 79, 52
2, 62400, Note_on_c, 0, 82, 63
2, 62880, Note_on_c, 0, 82, 0
2, 62880, Note_on_c, 0, 79, 0
2, 62880, Note_on_c, 0, 77, 48
2, 62880, Note_on_c, 0, 80, 58
2, 63120, Note_on_c, 0, 80, 0
2, 63120, Note_on_c, 0, 77, 0
2, 63360, Note_on_c, 0, 74, 57
2, 63360, Note_on_c, 0, 77, 68
2, 63840, Note_on_c, 0, 77, 0
2, 63840, Note_on_c, 0, 74, 0
2, 63840, Note_on_c, 0, 75, 54
2, 63840, Note_on_c, 0, 79, 64
2, 64320, Note_on_c, 0, 79, 0
2, 64320, Note_on_c, 0, 75, 0
2, 64320, Note_on_c, 0, 77, 57
2, 64320, Note_on_c, 0, 80, 68
2, 64800, Note_on_c, 0, 80, 0
2, 64800, Note_on_c, 0, 77, 0
2, 64800, Note_on_c, 0, 75, 54
2, 64800, Note_on_c, 0, 79, 63
2, 65040, Note_on_c, 0, 79, 0
2, 65040, Note_on_c, 0, 75, 0
2, 65400, Note_on_c, 0, 78, 61
2, 65520, Note_on_c, 0, 79, 63
2, 65532, Note_on_c, 0, 78, 0
2, 65640, Note_on_c, 0, 78, 60
2, 65652, Note_on_c, 0, 79, 0
2, 65760, Note_on_c, 0, 78, 0
2, 65760, Note_on_c, 0, 86, 66
2, 66000, Note_on_c, 0, 86, 0
2, 66000, Note_on_c, 0, 77, 62
2, 66240, Note_on_c, 0, 77, 0
2, 66360, Note_on_c, 0, 76, 60
2, 66480, Note_on_c, 0, 77, 62
2, 66492, Note_on_c, 0, 76, 0
2, 66600, Note_on_c, 0, 76, 57
2, 66612, Note_on_c, 0, 77, 0
2, 66720, Note_on_c, 0, 76, 0
2, 66720, Note_on_c, 0, 84, 63
2, 66960, Note_on_c, 0, 84, 0
2, 66960, Note_on_c, 0, 75, 57
2, 67200, Note_on_c, 0, 75, 0
2, 67320, Note_on_c, 0, 73, 54
2, 67440, Note_on_c, 0, 72, 56
2, 67452, Note_on_c, 0, 73, 0
2, 67560, Note_on_c, 0, 73, 54
2, 67572, Note_on_c, 0, 72, 0
2, 67680, Note_on_c, 0, 76, 58
2, 67692, Note_on_c, 0, 73, 0
2, 67800, Note_on_c, 0, 77, 50
2, 67812, Note_on_c, 0, 76, 0
2, 67920, Note_on_c, 0, 79, 53
2, 67932, Note_on_c, 0, 77, 0
2, 68040, Note_on_c, 0, 80, 55
2, 68052, Note_on_c, 0, 79, 0
2, 68160, Note_on_c, 0, 80, 0
2, 68160, Note_on_c, 0, 72, 55
2, 68640, Note_on_c, 0, 72, 0
2, 68640, Note_on_c, 0, 71, 54
2, 68760, Note_on_c, 0, 74, 49
2, 68772, Note_on_c, 0, 71, 0
2, 68880, Note_on_c, 0, 75, 52
2, 68892, Note_on_c, 0, 74, 0
2, 69000, Note_on_c, 0, 77, 54
2, 69012, Note_on_c, 0, 75, 0
2, 69120, Note_on_c, 0, 77, 0
2, 69120, Note_on_c, 0, 75, 49
2, 69120, Note_on_c, 0, 79, 59
2, 69480, Note_on_c, 0, 79, 0
2, 69480, Note_on_c, 0, 75, 0
2, 69480, Note_on_c, 0, 74, 47
2, 69480, Note_on_c, 0, 77, 56
2, 69600, Note_on_c, 0, 77, 0
2, 69600, Note_on_c, 0, 74, 0
2, 69600, Note_on_c, 0, 72, 47
2, 69600, Note_on_c, 0, 75, 56
2, 69840, Note_on_c, 0, 75, 0
2, 69840, Note_on_c, 0, 72, 0
2, 70080, Note_on_c, 0, 77, 52
2, 70080, Note_on_c, 0, 80, 63
2, 70440, Note_on_c, 0, 80, 0
2, 70440, Note_on_c, 0, 77, 0
2, 70440, Note_on_c, 0, 75, 46
2, 70440, Note_on_c, 0, 79, 54
2, 70560, Note_on_c, 0, 79, 0
2, 70560, Note_on_c, 0, 75, 0
2, 70560, Note_on_c, 0, 74, 48
2, 70560, Note_on_c, 0, 77, 58
2, 70800, Note_on_c, 0, 77, 0
2, 70800, Note_on_c, 0, 74, 0
2, 71160, Note_on_c, 0, 72, 47
2, 71160, Note_on_c, 0, 75, 57
2, 71280, Note_on_c, 0, 74, 50
2, 71280, Note_on_c, 0, 77, 60
2, 71292, Note_on_c, 0, 75, 0
2, 71292, Note_on_c, 0, 72, 0
2, 71400, Note_on_c, 0, 75, 52
2, 71400, Note_on_c, 0, 79, 62
2, 71412, Note_on_c, 0, 74, 0
2, 71412, Note_on_c, 0, 77, 0
2, 71490, Note_on_c, 0, 75, 0
2, 71490, Note_on_c, 0, 79, 0
2, 71520, Note_on_c, 0, 75, 51
2, 71520, Note_on_c, 0, 79, 61
2, 71640, Note_on_c, 0, 79, 0
2, 71640, Note_on_c, 0, 75, 0
2, 71640, Note_on_c, 0, 74, 50
2, 71640, Note_on_c, 0, 77, 60
2, 71760, Note_on_c, 0, 77, 0
2, 71760, Note_on_c, 0, 74, 0
2, 71760, Note_on_c, 0, 74, 48
2, 71760, Note_on_c, 0, 77, 58
2, 71880, Note_on_c, 0, 77, 0
2, 71880, Note_on_c, 0, 74, 0
2, 71880, Note_on_c, 0, 72, 47
2, 71880, Note_on_c, 0, 75, 56
2, 71970, Note_on_c, 0, 75, 0
2, 71970, Note_on_c, 0, 72, 0
2, 72000, Note_on_c, 0, 72, 49
2, 72000, Note_on_c, 0, 75, 58
2, 72480, Note_on_c, 0, 75, 0
2, 72480, Note_on_c, 0, 72, 0
2, 72480, Note_on_c, 0, 71, 45
2, 72480, Note_on_c, 0, 74, 54
2, 72720, Note_on_c, 0, 74, 0
2, 72720, Note_on_c, 0, 71, 0
2, 73080, Note_on_c, 0, 79, 61
2, 73200, Note_on_c, 0, 79, 0
2, 73200, Note_on_c, 0, 75, 56
2, 73320, Note_on_c, 0, 75, 0
2, 73320, Note_on_c, 0, 71, 56
2, 73440, Note_on_c, 0, 71, 0
2, 73440, Note_on_c, 0, 74, 60
2, 73680, Note_on_c, 0, 74, 0
2, 73680, Note_on_c, 0, 72, 55
2, 73920, Note_on_c, 0, 72, 0
2, 74040, Note_on_c, 0, 84, 61
2, 74160, Note_on_c, 0, 84, 0
2, 74160, Note_on_c, 0, 80, 61
2, 74280, Note_on_c, 0, 80, 0
2, 74280, Note_on_c, 0, 76, 61
2, 74400, Note_on_c, 0, 76, 0
2, 74400, Note_on_c, 0, 79, 65
2, 74640, Note_on_c, 0, 79, 0
2, 74640, Note_on_c, 0, 78, 61
2, 74880, Note_on_c, 0, 78, 0
2, 75000, Note_on_c, 0, 79, 54
2, 75120, Note_on_c, 0, 79, 0
2, 75240, Note_on_c, 0, 75, 53
2, 75240, Note_on_c, 0, 72, 45
2, 75360, Note_on_c, 0, 72, 0
2, 75360, Note_on_c, 0, 75, 0
2, 75480, Note_on_c, 0, 74, 45
2, 75480, Note_on_c, 0, 77, 53
2, 75600, Note_on_c, 0, 77, 0
2, 75600, Note_on_c, 0, 74, 0
2, 75720, Note_on_c, 0, 74, 45
2, 75720, Note_on_c, 0, 71, 53
2, 75840, Note_on_c, 0, 71, 0
2, 75840, Note_on_c, 0, 74, 0
2, 75960, Note_on_c, 0, 71, 49
2, 76080, Note_on_c, 0, 71, 0
2, 76080, Note_on_c, 0, 72, 49
2, 76200, Note_on_c, 0, 72, 0
2, 76200, Note_on_c, 0, 71, 49
2, 76320, Note_on_c, 0, 71, 0
2, 76320, Note_on_c, 0, 72, 49
2, 76440, Note_on_c, 0, 72, 0
2, 76440, Note_on_c, 0, 71, 42
2, 76440, Note_on_c, 0, 74, 50
2, 76560, Note_on_c, 0, 74, 0
2, 76560, Note_on_c, 0, 71, 0
2, 76560, Note_on_c, 0, 72, 44
2, 76560, Note_on_c, 0, 75, 52
2, 76680, Note_on_c, 0, 75, 0
2, 76680, Note_on_c, 0, 72, 0
2, 76680, Note_on_c, 0, 74, 45
2, 76680, Note_on_c, 0, 77, 54
2, 76800, Note_on_c, 0, 77, 0
2, 76800, Note_on_c, 0, 74, 0
2, 76800, Note_on_c, 0, 76, 49
2, 76800, Note_on_c, 0, 79, 59
2, 77280, Note_on_c, 0, 79, 0
2, 77280, Note_on_c, 0, 76, 0
2, 77280, Note_on_c, 0, 77, 47
2, 77280, Note_on_c, 0, 80, 56
2, 77760, Note_on_c, 0, 80, 0
2, 77760, Note_on_c, 0, 77, 0
2, 77760, Note_on_c, 0, 79, 52
2, 77760, Note_on_c, 0, 82, 63
2, 78240, Note_on_c, 0, 82, 0
2, 78240, Note_on_c, 0, 79, 0
2, 78240, Note_on_c, 0, 77, 48
2, 78240, Note_on_c, 0, 80, 58
2, 78480, Note_on_c, 0, 80, 0
2, 78480, Note_on_c, 0, 77, 0
2, 78720, Note_on_c, 0, 74, 57
2, 78720, Note_on_c, 0, 77, 68
2, 79200, Note_on_c, 0, 77, 0
2, 79200, Note_on_c, 0, 74, 0
2, 79200, Note_on_c, 0, 75, 54
2, 79200, Note_on_c, 0, 79, 64
2, 79680, Note_on_c, 0, 79, 0
2, 79680, Note_on_c, 0, 75, 0
2, 79680, Note_on_c, 0, 77, 57
2, 79680, Note_on_c, 0, 80, 68
2, 80160, Note_on_c, 0, 80, 0
2, 80160, Note_on_c, 0, 77, 0
2, 80160, Note_on_c, 0, 75, 54
2, 80160, Note_on_c, 0, 79, 63
2, 80400, Note_on_c, 0, 79, 0
2, 80400, Note_on_c, 0, 75, 0
2, 80760, Note_on_c, 0, 78, 61
2, 80880, Note_on_c, 0, 79, 63
2, 80892, Note_on_c, 0, 78, 0
2, 81000, Note_on_c, 0, 78, 60
2, 81012, Note_on_c, 0, 79, 0
2, 81120, Note_on_c, 0, 78, 0
2, 81120, Note_on_c, 0, 86, 66
2, 81360, Note_on_c, 0, 86, 0
2, 81360, Note_on_c, 0, 77, 62
2, 81600, Note_on_c, 0, 77, 0
2, 81720, Note_on_c, 0, 76, 60
2, 81840, Note_on_c, 0, 77, 62
2, 81852, Note_on_c, 0, 76, 0
2, 81960, Note_on_c, 0, 76, 57
2, 81972, Note_on_c, 0, 77, 0
2, 82080, Note_on_c, 0, 76, 0
2, 82080, Note_on_c, 0, 84, 63
2, 82320, Note_on_c, 0, 84, 0
2, 82320, Note_on_c, 0, 75, 57
2, 82560, Note_on_c, 0, 75, 0
2, 82680, Note_on_c, 0, 73, 54
2, 82800, Note_on_c, 0, 72, 56
2, 82812, Note_on_c, 0, 73, 0
2, 82920, Note_on_c, 0, 73, 54
2, 82932, Note_on_c, 0, 72, 0
2, 83040, Note_on_c, 0, 76, 58
2, 83052, Note_on_c, 0, 73, 0
2, 83160, Note_on_c, 0, 77, 50
2, 83172, Note_on_c, 0, 76, 0
2, 83280, Note_on_c, 0, 79, 53
2, 83292, Note_on_c, 0, 77, 0
2, 83400, Note_on_c, 0, 80, 55
2, 83412, Note_on_c, 0, 79, 0
2, 83520, Note_on_c, 0, 80, 0
2, 83520, Note_on_c, 0, 72, 55
2, 84000, Note_on_c, 0, 72, 0
2, 84000, Note_on_c, 0, 71, 54
2, 84120, Note_on_c, 0, 74, 49
2, 84132, Note_on_c, 0, 71, 0
2, 84240, Note_on_c, 0, 75, 52
2, 84252, Note_on_c, 0, 74, 0
2, 84360, Note_on_c, 0, 77, 54
2, 84372, Note_on_c, 0, 75, 0
2, 84480, Note_on_c, 0, 77, 0
2, 84480, Note_on_c, 0, 75, 49
2, 84480, Note_on_c, 0, 79, 59
2, 84840, Note_on_c, 0, 79, 0
2, 84840, Note_on_c, 0, 75, 0
2, 84840, Note_on_c, 0, 74, 47
2, 84840, Note_on_c, 0, 77, 56
2, 84960, Note_on_c, 0, 77, 0
2, 84960, Note_on_c, 0, 74, 0
2, 84960, Note_on_c, 0, 72, 47
2, 84960, Note_on_c, 0, 75, 56
2, 85200, Note_on_c, 0, 75, 0
2, 85200, Note_on_c, 0, 72, 0
2, 85440, Note_on_c, 0, 77, 52
2, 85440, Note_on_c, 0, 80, 63
2, 85800, Note_on_c, 0, 80, 0
2, 85800, Note_on_c, 0, 77, 0
2, 85800, Note_on_c, 0, 75, 46
2, 85800, Note_on_c, 0, 79, 54
2, 85920, Note_on_c, 0, 79, 0
2, 85920, Note_on_c, 0, 75, 0
2, 85920, Note_on_c, 0, 74, 48
2, 85920, Note_on_c, 0, 77, 58
2, 86160, Note_on_c, 0, 77, 0
2, 86160, Note_on_c, 0, 74, 0
2, 86520, Note_on_c, 0, 72, 47
2, 86520, Note_on_c, 0, 75, 57
2, 86640, Note_on_c, 0, 74, 50
2, 86640, Note_on_c, 0, 77, 60
2, 86652, Note_on_c, 0, 75, 0
2, 86652, Note_on_c, 0, 72, 0
2, 86760, Note_on_c, 0, 75, 52
2, 86760, Note_on_c, 0, 79, 62
2, 86772, Note_on_c, 0, 74, 0
2, 86772, Note_on_c, 0, 77, 0
2, 86850, Note_on_c, 0, 75, 0
2, 86850, Note_on_c, 0, 79, 0
2, 86880, Note_on_c, 0, 75, 51
2, 86880, Note_on_c, 0, 79, 61
2, 87000, Note_on_c, 0, 79, 0
2, 87000, Note_on_c, 0, 75, 0
2, 87000, Note_on_c, 0, 74, 50
2, 87000, Note_on_c, 0, 77, 60
2, 87120, Note_on_c, 0, 77, 0
2, 87120, Note_on_c, 0, 74, 0
2, 87120, Note_on_c, 0, 74, 48
2, 87120, Note_on_c, 0, 77, 58
2, 87240, Note_on_c, 0, 77, 0
2, 87240, Note_on_c, 0, 74, 0
2, 87240, Note_on_c, 0, 72, 47
2, 87240, Note_on_c, 0, 75, 56
2, 87330, Note_on_c, 0, 75, 0
2, 87330, Note_on_c, 0, 72, 0
2, 87360, Note_on_c, 0, 72, 49
2, 87360, Note_on_c, 0, 75, 58
2, 87840, Note_on_c, 0, 75, 0
2, 87840, Note_on_c, 0, 72, 0
2, 87840, Note_on_c, 0, 71, 45
2, 87840, Note_on_c, 0, 74, 54
2, 88080, Note_on_c, 0, 74, 0
2, 88080, Note_on_c, 0, 71, 0
2, 88440, Note_on_c, 0, 79, 61
2, 88560, Note_on_c, 0, 79, 0
2, 88560, Note_on_c, 0, 75, 56
2, 88680, Note_on_c, 0, 75, 0
2, 88680, Note_on_c, 0, 71, 56
2, 88800, Note_on_c, 0, 71, 0
2, 88800, Note_on_c, 0, 74, 60
2, 89040, Note_on_c, 0, 74, 0
2, 89040, Note_on_c, 0, 72, 55
2, 89280, Note_on_c, 0, 72, 0
2, 89400, Note_on_c, 0, 84, 61
2, 89520, Note_on_c, 0, 84, 0
2, 89520, Note_on_c, 0, 80, 61
2, 89640, Note_on_c, 0, 80, 0
2, 89640, Note_on_c, 0, 76, 61
2, 89760, Note_on_c, 0, 76, 0
2, 89760, Note_on_c, 0, 79, 65
2, 90000, Note_on_c, 0, 79, 0
2, 90000, Note_on_c, 0, 78, 61
2, 90240, Note_on_c, 0, 78, 0
2, 90360, Note_on_c, 0, 79, 54
2, 90480, Note_on_c, 0, 79, 0
2, 90600, Note_on_c, 0, 75, 53
2, 90600, Note_on_c, 0, 72, 45
2, 90720, Note_on_c, 0, 72, 0
2, 90720, Note_on_c, 0, 75, 0
2, 90840, Note_on_c, 0, 74, 45
2, 90840, Note_on_c, 0, 77, 53
2, 90960, Note_on_c, 0, 77, 0
2, 90960, Note_on_c, 0, 74, 0
2, 91080, Note_on_c, 0, 74, 45
2, 91080, Note_on_c, 0, 71, 53
2, 91200, Note_on_c, 0, 71, 0
2, 91200, Note_on_c, 0, 74, 0
2, 91320, Note_on_c, 0, 71, 49
2, 91440, Note_on_c, 0, 72, 52
2, 91452, Note_on_c, 0, 71, 0
2, 91560, Note_on_c, 0, 71, 49
2, 91572, Note_on_c, 0, 72, 0
2, 91680, Note_on_c, 0, 71, 0
2, 91680, Note_on_c, 0, 72, 54
2, 92280, Note_on_c, 0, 72, 0
2, 92280, Note_on_c, 0, 73, 54
2, 92400, Note_on_c, 0, 72, 51
2, 92412, Note_on_c, 0, 73, 0
2, 92520, Note_on_c, 0, 73, 53
2, 92532, Note_on_c, 0, 72, 0
2, 92640, Note_on_c, 0, 73, 0
2, 92640, Note_on_c, 0, 72, 54
2, 93240, Note_on_c, 0, 72, 0
2, 93240, Note_on_c, 0, 76, 56
2, 93360, Note_on_c, 0, 77, 58
2, 93372, Note_on_c, 0, 76, 0
2, 93480, Note_on_c, 0, 80, 61
2, 93492, Note_on_c, 0, 77, 0
2, 93600, Note_on_c, 0, 80, 0
2, 93600, Note_on_c, 0, 71, 56
2, 94200, Note_on_c, 0, 71, 0
2, 94200, Note_on_c, 0, 69, 50
2, 94320, Note_on_c, 0, 70, 54
2, 94332, Note_on_c, 0, 69, 0
2, 94440, Note_on_c, 0, 69, 50
2, 94452, Note_on_c, 0, 70, 0
2, 94560, Note_on_c, 0, 69, 0
2, 94560, Note_on_c, 0, 70, 54
2, 95160, Note_on_c, 0, 70, 0
2, 95160, Note_on_c, 0, 73, 46
2, 95280, Note_on_c, 0, 74, 48
2, 95292, Note_on_c, 0, 73, 0
2, 95400, Note_on_c, 0, 75, 49
2, 95412, Note_on_c, 0, 74, 0
2, 95520, Note_on_c, 0, 76, 51
2, 95532, Note_on_c, 0, 75, 0
2, 95640, Note_on_c, 0, 77, 52
2, 95652, Note_on_c, 0, 76, 0
2, 95760, Note_on_c, 0, 78, 53
2, 95772, Note_on_c, 0, 77, 0
2, 95880, Note_on_c, 0, 79, 54
2, 95892, Note_on_c, 0, 78, 0
2, 96000, Note_on_c, 0, 79, 0
2, 96000, Note_on_c, 0, 82, 55
2, 96360, Note_on_c, 0, 82, 0
2, 96360, Note_on_c, 0, 81, 50
2, 96480, Note_on_c, 0, 81, 0
2, 96480, Note_on_c, 0, 80, 45
2, 96720, Note_on_c, 0, 80, 0
2, 97080, Note_on_c, 0, 64, 41
2, 97200, Note_on_c, 0, 64, 0
2, 97200, Note_on_c, 0, 65, 44
2, 97320, Note_on_c, 0, 65, 0
2, 97320, Note_on_c, 0, 67, 41
2, 97440, Note_on_c, 0, 67, 0
2, 97440, Note_on_c, 0, 68, 44
2, 97560, Note_on_c, 0, 68, 0
2, 97560, Note_on_c, 0, 67, 45
2, 97680, Note_on_c, 0, 67, 0
2, 97680, Note_on_c, 0, 68, 45
2, 97800, Note_on_c, 0, 68, 0
2, 97800, Note_on_c, 0, 69, 46
2, 97920, Note_on_c, 0, 69, 0
2, 97920, Note_on_c, 0, 67, 34
2, 97920, Note_on_c, 0, 70, 49
2, 98400, Note_on_c, 0, 70, 0
2, 98400, Note_on_c, 0, 67, 0
2, 98400, Note_on_c, 0, 63, 32
2, 98400, Note_on_c, 0, 67, 47
2, 98640, Note_on_c, 0, 67, 0
2, 98640, Note_on_c, 0, 63, 0
2, 98640, Note_on_c, 0, 58, 33
2, 98640, Note_on_c, 0, 65, 49
2, 98880, Note_on_c, 0, 65, 0
2, 98880, Note_on_c, 0, 58, 0
2, 98880, Note_on_c, 0, 55, 33
2, 98880, Note_on_c, 0, 63, 49
2, 99120, Note_on_c, 0, 63, 0
2, 99120, Note_on_c, 0, 55, 0
2, 99120, Note_on_c, 0, 58, 46
2, 99360, Note_on_c, 0, 58, 0
2, 99360, Note_on_c, 0, 63, 49
2, 99600, Note_on_c, 0, 63, 0
2, 99600, Note_on_c, 0, 62, 34
2, 99600, Note_on_c, 0, 65, 49
2, 99840, Note_on_c, 0, 65, 0
2, 99840, Note_on_c, 0, 62, 0
2, 99840, Note_on_c, 0, 63, 36
2, 99840, Note_on_c, 0, 67, 52
2, 100080, Note_on_c, 0, 67, 0
2, 100080, Note_on_c, 0, 68, 58
2, 100320, Note_on_c, 0, 68, 0
2, 100320, Note_on_c, 0, 70, 60
2, 100560, Note_on_c, 0, 70, 0
2, 100560, Note_on_c, 0, 72, 57
2, 100800, Note_on_c, 0, 72, 0
2, 100800, Note_on_c, 0, 63, 0
2, 100800, Note_on_c, 0, 67, 63
2, 100800, Note_on_c, 0, 63, 44
2, 101160, Note_on_c, 0, 67, 0
2, 101160, Note_on_c, 0, 68, 53
2, 101280, Note_on_c, 0, 68, 0
2, 101280, Note_on_c, 0, 63, 0
2, 101280, Note_on_c, 0, 62, 37
2, 101280, Note_on_c, 0, 65, 54
2, 101400, Note_on_c, 0, 67, 53
2, 101410, Note_on_c, 0, 65, 0
2, 101520, Note_on_c, 0, 68, 54
2, 101530, Note_on_c, 0, 67, 0
2, 101640, Note_on_c, 0, 69, 54
2, 101650, Note_on_c, 0, 68, 0
2, 101760, Note_on_c, 0, 69, 0
2, 101760, Note_on_c, 0, 62, 0
2, 101760, Note_on_c, 0, 70, 50
2, 101760, Note_on_c, 0, 82, 59
2, 102240, Note_on_c, 0, 82, 0
2, 102240, Note_on_c, 0, 79, 62
2, 102480, Note_on_c, 0, 79, 0
2, 102480, Note_on_c, 0, 77, 58
2, 102720, Note_on_c, 0, 77, 0
2, 102720, Note_on_c, 0, 70, 0
2, 102720, Note_on_c, 0, 70, 50
2, 102720, Note_on_c, 0, 75, 60
2, 102900, Note_on_c, 0, 75, 0
2, 102900, Note_on_c, 0, 70, 0
2, 102960, Note_on_c, 0, 74, 46
2, 102960, Note_on_c, 0, 77, 55
2, 103140, Note_on_c, 0, 77, 0
2, 103140, Note_on_c, 0, 74, 0
2, 103200, Note_on_c, 0, 75, 49
2, 103200, Note_on_c, 0, 79, 58
2, 103380, Note_on_c, 0, 79, 0
2, 103380, Note_on_c, 0, 75, 0
2, 103440, Note_on_c, 0, 75, 51
2, 103440, Note_on_c, 0, 80, 61
2, 103620, Note_on_c, 0, 80, 0
2, 103620, Note_on_c, 0, 75, 0
2, 103680, Note_on_c, 0, 82, 63
2, 103680, Note_on_c, 0, 75, 54
2, 103920, Note_on_c, 0, 75, 0
2, 103920, Note_on_c, 0, 82, 0
2, 103920, Note_on_c, 0, 83, 62
2, 103980, Note_on_c, 0, 84, 59
2, 103990, Note_on_c, 0, 83, 0
2, 104040, Note_on_c, 0, 80, 59
2, 104050, Note_on_c, 0, 84, 0
2, 104100, Note_on_c, 0, 77, 57
2, 104110, Note_on_c, 0, 80, 0
2, 104160, Note_on_c, 0, 77, 0
2, 104160, Note_on_c, 0, 75, 64
2, 104400, Note_on_c, 0, 75, 0
2, 104400, Note_on_c, 0, 79, 60
2, 104460, Note_on_c, 0, 77, 56
2, 104470, Note_on_c, 0, 79, 0
2, 104520, Note_on_c, 0, 76, 56
2, 104530, Note_on_c, 0, 77, 0
2, 104580, Note_on_c, 0, 77, 53
2, 104590, Note_on_c, 0, 76, 0
2, 104630, Note_on_c, 0, 77, 0
2, 104640, Note_on_c, 0, 74, 51
2, 104640, Note_on_c, 0, 77, 61
2, 105120, Note_on_c, 0, 77, 0
2, 105120, Note_on_c, 0, 74, 0
2, 105120, Note_on_c, 0, 75, 54
2, 105360, Note_on_c, 0, 75, 0
2, 105600, Note_on_c, 0, 72, 54
2, 106080, Note_on_c, 0, 72, 0
2, 106080, Note_on_c, 0, 75, 54
2, 106200, Note_on_c, 0, 75, 0
2, 106200, Note_on_c, 0, 73, 50
2, 106320, Note_on_c, 0, 73, 0
2, 106320, Note_on_c, 0, 70, 54
2, 106440, Note_on_c, 0, 70, 0
2, 106440, Note_on_c, 0, 67, 50
2, 106560, Note_on_c, 0, 67, 0
2, 106560, Note_on_c, 0, 68, 54
2, 106920, Note_on_c, 0, 68, 0
2, 106920, Note_on_c, 0, 70, 50
2, 106980, Note_on_c, 0, 70, 0
2, 106980, Note_on_c, 0, 72, 50
2, 107040, Note_on_c, 0, 72, 0
2, 107044, Note_on_c, 0, 70, 54
2, 107284, Note_on_c, 0, 70, 0
2, 107520, Note_on_c, 0, 73, 59
2, 108000, Note_on_c, 0, 73, 0
2, 108000, Note_on_c, 0, 77, 61
2, 108120, Note_on_c, 0, 75, 56
2, 108132, Note_on_c, 0, 77, 0
2, 108240, Note_on_c, 0, 73, 58
2, 108252, Note_on_c, 0, 75, 0
2, 108360, Note_on_c, 0, 72, 54
2, 108372, Note_on_c, 0, 73, 0
2, 108480, Note_on_c, 0, 70, 63
2, 108492, Note_on_c, 0, 72, 0
2, 108840, Note_on_c, 0, 70, 0
2, 108840, Note_on_c, 0, 72, 54
2, 108900, Note_on_c, 0, 72, 0
2, 108900, Note_on_c, 0, 73, 54
2, 108960, Note_on_c, 0, 73, 0
2, 108960, Note_on_c, 0, 72, 63
2, 109200, Note_on_c, 0, 72, 0
2, 109440, Note_on_c, 0, 84, 67
2, 109800, Note_on_c, 0, 84, 0
2, 109800, Note_on_c, 0, 76, 59
2, 109920, Note_on_c, 0, 76, 0
2, 109920, Note_on_c, 0, 77, 61
2, 109980, Note_on_c, 0, 77, 0
2, 110040, Note_on_c, 0, 79, 56
2, 110100, Note_on_c, 0, 79, 0
2, 110160, Note_on_c, 0, 80, 57
2, 110220, Note_on_c, 0, 80, 0
2, 110280, Note_on_c, 0, 81, 58
2, 110340, Note_on_c, 0, 81, 0
2, 110400, Note_on_c, 0, 82, 63
2, 110760, Note_on_c, 0, 82, 0
2, 110760, Note_on_c, 0, 74, 53
2, 110880, Note_on_c, 0, 74, 0
2, 110880, Note_on_c, 0, 75, 62
2, 110940, Note_on_c, 0, 75, 0
2, 111000, Note_on_c, 0, 77, 54
2, 111060, Note_on_c, 0, 77, 0
2, 111120, Note_on_c, 0, 78, 55
2, 111180, Note_on_c, 0, 78, 0
2, 111240, Note_on_c, 0, 79, 56
2, 111300, Note_on_c, 0, 79, 0
2, 111360, Note_on_c, 0, 79, 62
2, 111480, Note_on_c, 0, 79, 0
2, 111480, Note_on_c, 0, 72, 55
2, 111600, Note_on_c, 0, 72, 0
2, 111600, Note_on_c, 0, 80, 62
2, 111720, Note_on_c, 0, 80, 0
2, 111720, Note_on_c, 0, 77, 56
2, 111810, Note_on_c, 0, 77, 0
2, 111840, Note_on_c, 0, 77, 58
2, 111960, Note_on_c, 0, 77, 0
2, 111960, Note_on_c, 0, 75, 53
2, 112050, Note_on_c, 0, 75, 0
2, 112080, Note_on_c, 0, 75, 58
2, 112200, Note_on_c, 0, 75, 0
2, 112200, Note_on_c, 0, 74, 53
2, 112290, Note_on_c, 0, 74, 0
2, 112320, Note_on_c, 0, 75, 58
2, 112440, Note_on_c, 0, 74, 52
2, 112452, Note_on_c, 0, 75, 0
2, 112560, Note_on_c, 0, 75, 55
2, 112572, Note_on_c, 0, 74, 0
2, 112680, Note_on_c, 0, 77, 51
2, 112692, Note_on_c, 0, 75, 0
2, 112800, Note_on_c, 0, 75, 54
2, 112812, Note_on_c, 0, 77, 0
2, 112920, Note_on_c, 0, 74, 54
2, 112932, Note_on_c, 0, 75, 0
2, 113040, Note_on_c, 0, 73, 52
2, 113052, Note_on_c, 0, 74, 0
2, 113160, Note_on_c, 0, 70, 51
2, 113172, Note_on_c, 0, 73, 0
2, 113280, Note_on_c, 0, 70, 0
2, 113280, Note_on_c, 0, 72, 54
2, 113760, Note_on_c, 0, 72, 0
2, 113760, Note_on_c, 0, 75, 54
2, 113880, Note_on_c, 0, 75, 0
2, 113880, Note_on_c, 0, 73, 50
2, 114000, Note_on_c, 0, 73, 0
2, 114000, Note_on_c, 0, 70, 54
2, 114120, Note_on_c, 0, 70, 0
2, 114120, Note_on_c, 0, 67, 50
2, 114240, Note_on_c, 0, 67, 0
2, 114240, Note_on_c, 0, 68, 54
2, 114600, Note_on_c, 0, 68, 0
2, 114600, Note_on_c, 0, 70, 50
2, 114660, Note_on_c, 0, 70, 0
2, 114660, Note_on_c, 0, 72, 50
2, 114720, Note_on_c, 0, 72, 0
2, 114724, Note_on_c, 0, 70, 54
2, 114964, Note_on_c, 0, 70, 0
2, 115200, Note_on_c, 0, 73, 59
2, 115680, Note_on_c, 0, 73, 0
2, 115680, Note_on_c, 0, 77, 61
2, 115800, Note_on_c, 0, 75, 56
2, 115812, Note_on_c, 0, 77, 0
2, 115920, Note_on_c, 0, 73, 58
2, 115932, Note_on_c, 0, 75, 0
2, 116040, Note_on_c, 0, 72, 54
2, 116052, Note_on_c, 0, 73, 0
2, 116160, Note_on_c, 0, 70, 63
2, 116172, Note_on_c, 0, 72, 0
2, 116520, Note_on_c, 0, 70, 0
2, 116520, Note_on_c, 0, 72, 54
2, 116580, Note_on_c, 0, 72, 0
2, 116580, Note_on_c, 0, 73, 54
2, 116640, Note_on_c, 0, 73, 0
2, 116640, Note_on_c, 0, 72, 63
2, 116880, Note_on_c, 0, 72, 0
2, 117120, Note_on_c, 0, 84, 67
2, 117480, Note_on_c, 0, 84, 0
2, 117480, Note_on_c, 0, 76, 59
2, 117600, Note_on_c, 0, 76, 0
2, 117600, Note_on_c, 0, 77, 61
2, 117660, Note_on_c, 0, 77, 0
2, 117720, Note_on_c, 0, 79, 56
2, 117780, Note_on_c, 0, 79, 0
2, 117840, Note_on_c, 0, 80, 57
2, 117900, Note_on_c, 0, 80, 0
2, 117960, Note_on_c, 0, 81, 58
2, 118020, Note_on_c, 0, 81, 0
2, 118080, Note_on_c, 0, 82, 63
2, 118440, Note_on_c, 0, 82, 0
2, 118440, Note_on_c, 0, 74, 53
2, 118560, Note_on_c, 0, 74, 0
2, 118560, Note_on_c, 0, 75, 62
2, 118620, Note_on_c, 0, 75, 0
2, 118680, Note_on_c, 0, 77, 54
2, 118740, Note_on_c, 0, 77, 0
2, 118800, Note_on_c, 0, 78, 55
2, 118860, Note_on_c, 0, 78, 0
2, 118920, Note_on_c, 0, 79, 56
2, 118980, Note_on_c, 0, 79, 0
2, 119040, Note_on_c, 0, 79, 62
2, 119160, Note_on_c, 0, 79, 0
2, 119160, Note_on_c, 0, 72, 55
2, 119280, Note_on_c, 0, 72, 0
2, 119280, Note_on_c, 0, 80, 62
2, 119400, Note_on_c, 0, 80, 0
2, 119400, Note_on_c, 0, 77, 56
2, 119490, Note_on_c, 0, 77, 0
2, 119520, Note_on_c, 0, 77, 58
2, 119640, Note_on_c, 0, 77, 0
2, 119640, Note_on_c, 0, 75, 53
2, 119730, Note_on_c, 0, 75, 0
2, 119760, Note_on_c, 0, 75, 58
2, 119880, Note_on_c, 0, 75, 0
2, 119880, Note_on_c, 0, 74, 53
2, 119970, Note_on_c, 0, 74, 0
2, 120000, Note_on_c, 0, 75, 58
2, 120120, Note_on_c, 0, 74, 52
2, 120132, Note_on_c, 0, 75, 0
2, 120240, Note_on_c, 0, 75, 55
2, 120252, Note_on_c, 0, 74, 0
2, 120360, Note_on_c, 0, 77, 51
2, 120372, Note_on_c, 0, 75, 0
2, 120480, Note_on_c, 0, 75, 54
2, 120492, Note_on_c, 0, 77, 0
2, 120600, Note_on_c, 0, 74, 54
2, 120612, Note_on_c, 0, 75, 0
2, 120720, Note_on_c, 0, 73, 52
2, 120732, Note_on_c, 0, 74, 0
2, 120840, Note_on_c, 0, 70, 51
2, 120852, Note_on_c, 0, 73, 0
2, 120960, Note_on_c, 0, 70, 0
2, 120960, Note_on_c, 0, 69, 45
2, 120960, Note_on_c, 0, 72, 59
2, 121440, Note_on_c, 0, 72, 0
2, 121440, Note_on_c, 0, 71, 59
2, 121560, Note_on_c, 0, 72, 54
2, 121572, Note_on_c, 0, 71, 0
2, 121680, Note_on_c, 0, 73, 62
2, 121692, Note_on_c, 0, 72, 0
2, 121800, Note_on_c, 0, 72, 57
2, 121812, Note_on_c, 0, 73, 0
2, 121920, Note_on_c, 0, 72, 0
2, 121920, Note_on_c, 0, 69, 0
2, 121920, Note_on_c, 0, 68, 50
2, 121920, Note_on_c, 0, 77, 64
2, 122160, Note_on_c, 0, 77, 0
2, 122160, Note_on_c, 0, 70, 59
2, 122400, Note_on_c, 0, 70, 0
2, 122400, Note_on_c, 0, 68, 0
2, 122400, Note_on_c, 0, 67, 45
2, 122400, Note_on_c, 0, 69, 59
2, 122520, Note_on_c, 0, 70, 54
2, 122532, Note_on_c, 0, 69, 0
2, 122640, Note_on_c, 0, 72, 59
2, 122652, Note_on_c, 0, 70, 0
2, 122760, Note_on_c, 0, 70, 54
2, 122772, Note_on_c, 0, 72, 0
2, 122880, Note_on_c, 0, 70, 0
2, 122880, Note_on_c, 0, 67, 0
2, 122880, Note_on_c, 0, 66, 45
2, 122880, Note_on_c, 0, 75, 59
2, 123120, Note_on_c, 0, 75, 0
2, 123120, Note_on_c, 0, 68, 59
2, 123360, Note_on_c, 0, 66, 0
2, 123360, Note_on_c, 0, 65, 49
2, 123480, Note_on_c, 0, 65, 0
2, 123480, Note_on_c, 0, 68, 0
2, 123480, Note_on_c, 0, 70, 50
2, 123480, Note_on_c, 0, 67, 45
2, 123600, Note_on_c, 0, 67, 0
2, 123600, Note_on_c, 0, 70, 0
2, 123600, Note_on_c, 0, 72, 49
2, 123600, Note_on_c, 0, 68, 45
2, 123720, Note_on_c, 0, 68, 0
2, 123720, Note_on_c, 0, 72, 0
2, 123720, Note_on_c, 0, 73, 49
2, 123720, Note_on_c, 0, 70, 45
2, 123840, Note_on_c, 0, 70, 0
2, 123840, Note_on_c, 0, 73, 0
2, 123840, Note_on_c, 0, 68, 52
2, 123840, Note_on_c, 0, 72, 56
2, 124320, Note_on_c, 0, 72, 0
2, 124320, Note_on_c, 0, 68, 0
2, 124320, Note_on_c, 0, 67, 45
2, 124320, Note_on_c, 0, 70, 50
2, 124560, Note_on_c, 0, 70, 0
2, 124560, Note_on_c, 0, 67, 0
2, 124800, Note_on_c, 0, 80, 67
2, 125280, Note_on_c, 0, 80, 0
2, 125280, Note_on_c, 0, 79, 61
2, 125400, Note_on_c, 0, 77, 56
2, 125412, Note_on_c, 0, 79, 0
2, 125520, Note_on_c, 0, 75, 63
2, 125532, Note_on_c, 0, 77, 0
2, 125640, Note_on_c, 0, 74, 57
2, 125652, Note_on_c, 0, 75, 0
2, 125760, Note_on_c, 0, 74, 0
2, 125760, Note_on_c, 0, 85, 71
2, 126240, Note_on_c, 0, 85, 0
2, 126240, Note_on_c, 0, 84, 65
2, 126360, Note_on_c, 0, 82, 63
2, 126372, Note_on_c, 0, 84, 0
2, 126480, Note_on_c, 0, 80, 58
2, 126492, Note_on_c, 0, 82, 0
2, 126600, Note_on_c, 0, 79, 54
2, 126612, Note_on_c, 0, 80, 0
2, 126720, Note_on_c, 0, 79, 0
2, 126720, Note_on_c, 0, 80, 56
2, 126840, Note_on_c, 0, 80, 0
2, 126840, Note_on_c, 0, 72, 52
2, 126960, Note_on_c, 0, 72, 0
2, 126960, Note_on_c, 0, 70, 52
2, 127080, Note_on_c, 0, 70, 0
2, 127080, Note_on_c, 0, 77, 52
2, 127200, Note_on_c, 0, 77, 0
2, 127200, Note_on_c, 0, 75, 56
2, 127320, Note_on_c, 0, 75, 0
2, 127320, Note_on_c, 0, 68, 51
2, 127440, Note_on_c, 0, 68, 0
2, 127440, Note_on_c, 0, 73, 55
2, 127560, Note_on_c, 0, 73, 0
2, 127560, Note_on_c, 0, 67, 51
2, 127680, Note_on_c, 0, 67, 0
2, 127680, Note_on_c, 0, 70, 54
2, 128160, Note_on_c, 0, 70, 0
2, 128160, Note_on_c, 0, 68, 52
2, 128280, Note_on_c, 0, 68, 0
2, 128280, Note_on_c, 0, 70, 47
2, 128400, Note_on_c, 0, 71, 45
2, 128412, Note_on_c, 0, 70, 0
2, 128520, Note_on_c, 0, 72, 45
2, 128532, Note_on_c, 0, 71, 0
2, 128640, Note_on_c, 0, 72, 0
2, 128640, Note_on_c, 0, 69, 39
2, 128640, Note_on_c, 0, 72, 59
2, 129120, Note_on_c, 0, 72, 0
2, 129120, Note_on_c, 0, 71, 59
2, 129240, Note_on_c, 0, 72, 54
2, 129252, Note_on_c, 0, 71, 0
2, 129360, Note_on_c, 0, 73, 62
2, 129372, Note_on_c, 0, 72, 0
2, 129480, Note_on_c, 0, 72, 57
2, 129492, Note_on_c, 0, 73, 0
2, 129600, Note_on_c, 0, 72, 0
2, 129600, Note_on_c, 0, 69, 0
2, 129600, Note_on_c, 0, 68, 50
2, 129600, Note_on_c, 0, 77, 64
2, 129840, Note_on_c, 0, 77, 0
2, 129840, Note_on_c, 0, 70, 59
2, 130080, Note_on_c, 0, 70, 0
2, 130080, Note_on_c, 0, 68, 0
2, 130080, Note_on_c, 0, 67, 45
2, 130080, Note_on_c, 0, 69, 59
2, 130200, Note_on_c, 0, 70, 54
2, 130212, Note_on_c, 0, 69, 0
2, 130320, Note_on_c, 0, 72, 59
2, 130332, Note_on_c, 0, 70, 0
2, 130440, Note_on_c, 0, 70, 54
2, 130452, Note_on_c, 0, 72, 0
2, 130560, Note_on_c, 0, 70, 0
2, 130560, Note_on_c, 0, 67, 0
2, 130560, Note_on_c, 0, 66, 45
2, 130560, Note_on_c, 0, 75, 59
2, 130800, Note_on_c, 0, 75, 0
2, 130800, Note_on_c, 0, 68, 59
2, 131040, Note_on_c, 0, 66, 0
2, 131040, Note_on_c, 0, 65, 49
2, 131160, Note_on_c, 0, 65, 0
2, 131160, Note_on_c, 0, 68, 0
2, 131160, Note_on_c, 0, 70, 50
2, 131160, Note_on_c, 0, 67, 45
2, 131280, Note_on_c, 0, 67, 0
2, 131280, Note_on_c, 0, 70, 0
2, 131280, Note_on_c, 0, 72, 49
2, 131280, Note_on_c, 0, 68, 45
2, 131400, Note_on_c, 0, 68, 0
2, 131400, Note_on_c, 0, 72, 0
2, 131400, Note_on_c, 0, 73, 49
2, 131400, Note_on_c, 0, 70, 45
2, 131520, Note_on_c, 0, 70, 0
2, 131520, Note_on_c, 0, 73, 0
2, 131520, Note_on_c, 0, 68, 52
2, 131520, Note_on_c, 0, 72, 56
2, 132000, Note_on_c, 0, 72, 0
2, 132000, Note_on_c, 0, 68, 0
2, 132000, Note_on_c, 0, 67, 45
2, 132000, Note_on_c, 0, 70, 50
2, 132240, Note_on_c, 0, 70, 0
2, 132240, Note_on_c, 0, 67, 0
2, 132480, Note_on_c, 0, 80, 65
2, 132960, Note_on_c, 0, 80, 0
2, 132960, Note_on_c, 0, 79, 62
2, 133080, Note_on_c, 0, 77, 57
2, 133092, Note_on_c, 0, 79, 0
2, 133200, Note_on_c, 0, 75, 60
2, 133212, Note_on_c, 0, 77, 0
2, 133320, Note_on_c, 0, 74, 57
2, 133332, Note_on_c, 0, 75, 0
2, 133440, Note_on_c, 0, 74, 0
2, 133440, Note_on_c, 0, 85, 71
2, 133920, Note_on_c, 0, 85, 0
2, 133920, Note_on_c, 0, 84, 65
2, 134040, Note_on_c, 0, 82, 61
2, 134052, Note_on_c, 0, 84, 0
2, 134160, Note_on_c, 0, 80, 61
2, 134172, Note_on_c, 0, 82, 0
2, 134280, Note_on_c, 0, 79, 55
2, 134292, Note_on_c, 0, 80, 0
2, 134400, Note_on_c, 0, 79, 0
2, 134400, Note_on_c, 0, 80, 56
2, 134520, Note_on_c, 0, 80, 0
2, 134520, Note_on_c, 0, 72, 52
2, 134640, Note_on_c, 0, 72, 0
2, 134640, Note_on_c, 0, 70, 52
2, 134760, Note_on_c, 0, 70, 0
2, 134760, Note_on_c, 0, 77, 52
2, 134880, Note_on_c, 0, 77, 0
2, 134880, Note_on_c, 0, 75, 56
2, 135000, Note_on_c, 0, 75, 0
2, 135000, Note_on_c, 0, 68, 51
2, 135120, Note_on_c, 0, 68, 0
2, 135120, Note_on_c, 0, 73, 55
2, 135240, Note_on_c, 0, 73, 0
2, 135240, Note_on_c, 0, 67, 51
2, 135360, Note_on_c, 0, 67, 0
2, 135360, Note_on_c, 0, 70, 54
2, 135840, Note_on_c, 0, 70, 0
2, 135840, Note_on_c, 0, 68, 52
2, 135960, Note_on_c, 0, 68, 0
2, 135960, Note_on_c, 0, 70, 47
2, 136080, Note_on_c, 0, 71, 45
2, 136092, Note_on_c, 0, 70, 0
2, 136200, Note_on_c, 0, 72, 45
2, 136212, Note_on_c, 0, 71, 0
2, 136320, Note_on_c, 0, 72, 0
2, 136440, Note_on_c, 0, 72, 53
2, 136560, Note_on_c, 0, 73, 56
2, 136580, Note_on_c, 0, 72, 0
2, 136680, Note_on_c, 0, 72, 52
2, 136700, Note_on_c, 0, 73, 0
2, 136800, Note_on_c, 0, 72, 0
2, 136920, Note_on_c, 0, 72, 53
2, 137040, Note_on_c, 0, 72, 0
2, 137040, Note_on_c, 0, 84, 56
2, 137160, Note_on_c, 0, 84, 0
2, 137160, Note_on_c, 0, 72, 52
2, 137280, Note_on_c, 0, 72, 0
2, 137400, Note_on_c, 0, 70, 53
2, 137520, Note_on_c, 0, 71, 56
2, 137540, Note_on_c, 0, 70, 0
2, 137640, Note_on_c, 0, 70, 53
2, 137660, Note_on_c, 0, 71, 0
2, 137760, Note_on_c, 0, 70, 0
2, 137880, Note_on_c, 0, 70, 53
2, 138000, Note_on_c, 0, 70, 0
2, 138000, Note_on_c, 0, 82, 56
2, 138120, Note_on_c, 0, 82, 0
2, 138120, Note_on_c, 0, 70, 53
2, 138240, Note_on_c, 0, 70, 0
2, 138360, Note_on_c, 0, 69, 54
2, 138480, Note_on_c, 0, 70, 56
2, 138500, Note_on_c, 0, 69, 0
2, 138600, Note_on_c, 0, 69, 53
2, 138620, Note_on_c, 0, 70, 0
2, 138720, Note_on_c, 0, 69, 0
2, 138720, Note_on_c, 0, 75, 59
2, 138840, Note_on_c, 0, 75, 0
2, 138840, Note_on_c, 0, 69, 56
2, 138960, Note_on_c, 0, 69, 0
2, 138960, Note_on_c, 0, 78, 63
2, 139080, Note_on_c, 0, 78, 0
2, 139080, Note_on_c, 0, 69, 58
2, 139200, Note_on_c, 0, 69, 0
2, 139200, Note_on_c, 0, 70, 64
2, 139800, Note_on_c, 0, 70, 0
2, 139800, Note_on_c, 0, 69, 59
2, 139920, Note_on_c, 0, 69, 0
2, 139920, Note_on_c, 0, 78, 61
2, 140040, Note_on_c, 0, 78, 0
2, 140040, Note_on_c, 0, 69, 60
2, 140160, Note_on_c, 0, 69, 0
2, 140160, Note_on_c, 0, 70, 65
2, 140760, Note_on_c, 0, 70, 0
2, 140760, Note_on_c, 0, 69, 60
2, 140880, Note_on_c, 0, 69, 0
2, 140880, Note_on_c, 0, 78, 63
2, 141000, Note_on_c, 0, 78, 0
2, 141000, Note_on_c, 0, 69, 59
2, 141120, Note_on_c, 0, 69, 0
2, 141120, Note_on_c, 0, 70, 65
2, 141720, Note_on_c, 0, 70, 0
2, 141720, Note_on_c, 0, 74, 56
2, 141840, Note_on_c, 0, 74, 0
2, 141840, Note_on_c, 0, 77, 58
2, 141960, Note_on_c, 0, 77, 0
2, 141960, Note_on_c, 0, 80, 60
2, 142080, Note_on_c, 0, 80, 0
2, 142080, Note_on_c, 0, 83, 61
2, 142200, Note_on_c, 0, 84, 63
2, 142212, Note_on_c, 0, 83, 0
2, 142320, Note_on_c, 0, 86, 64
2, 142332, Note_on_c, 0, 84, 0
2, 142440, Note_on_c, 0, 84, 62
2, 142452, Note_on_c, 0, 86, 0
2, 142560, Note_on_c, 0, 82, 61
2, 142572, Note_on_c, 0, 84, 0
2, 142680, Note_on_c, 0, 80, 60
2, 142692, Note_on_c, 0, 82, 0
2, 142800, Note_on_c, 0, 79, 58
2, 142812, Note_on_c, 0, 80, 0
2, 142920, Note_on_c, 0, 77, 57
2, 142932, Note_on_c, 0, 79, 0
2, 143040, Note_on_c, 0, 75, 57
2, 143052, Note_on_c, 0, 77, 0
2, 143400, Note_on_c, 0, 75, 0
2, 143400, Note_on_c, 0, 77, 44
2, 143460, Note_on_c, 0, 75, 40
2, 143470, Note_on_c, 0, 77, 0
2, 143520, Note_on_c, 0, 74, 48
2, 143530, Note_on_c, 0, 75, 0
2, 143760, Note_on_c, 0, 74, 0
2, 144000, Note_on_c, 0, 67, 34
2, 144000, Note_on_c, 0, 70, 49
2, 144480, Note_on_c, 0, 70, 0
2, 144480, Note_on_c, 0, 67, 0
2, 144480, Note_on_c, 0, 63, 32
2, 144480, Note_on_c, 0, 67, 47
2, 144720, Note_on_c, 0, 67, 0
2, 144720, Note_on_c, 0, 63, 0
2, 144720, Note_on_c, 0, 58, 33
2, 144720, Note_on_c, 0, 65, 49
2, 144960, Note_on_c, 0, 65, 0
2, 144960, Note_on_c, 0, 58, 0
2, 144960, Note_on_c, 0, 55, 33
2, 144960, Note_on_c, 0, 63, 49
2, 145200, Note_on_c, 0, 63, 0
2, 145200, Note_on_c, 0, 55, 0
2, 145200, Note_on_c, 0, 58, 46
2, 145440, Note_on_c, 0, 58, 0
2, 145440, Note_on_c, 0, 63, 49
2, 145680, Note_on_c, 0, 63, 0
2, 145680, Note_on_c, 0, 62, 34
2, 145680, Note_on_c, 0, 65, 49
2, 145920, Note_on_c, 0, 65, 0
2, 145920, Note_on_c, 0, 62, 0
2, 145920, Note_on_c, 0, 63, 36
2, 145920, Note_on_c, 0, 67, 52
2, 146160, Note_on_c, 0, 67, 0
2, 146160, Note_on_c, 0, 68, 58
2, 146400, Note_on_c, 0, 68, 0
2, 146400, Note_on_c, 0, 70, 60
2, 146640, Note_on_c, 0, 70, 0
2, 146640, Note_on_c, 0, 72, 57
2, 146880, Note_on_c, 0, 72, 0
2, 146880, Note_on_c, 0, 63, 0
2, 146880, Note_on_c, 0, 67, 63
2, 146880, Note_on_c, 0, 63, 44
2, 147240, Note_on_c, 0, 67, 0
2, 147240, Note_on_c, 0, 68, 53
2, 147360, Note_on_c, 0, 68, 0
2, 147360, Note_on_c, 0, 63, 0
2, 147360, Note_on_c, 0, 62, 37
2, 147360, Note_on_c, 0, 65, 54
2, 147480, Note_on_c, 0, 67, 53
2, 147490, Note_on_c, 0, 65, 0
2, 147600, Note_on_c, 0, 68, 54
2, 147610, Note_on_c, 0, 67, 0
2, 147720, Note_on_c, 0, 69, 54
2, 147730, Note_on_c, 0, 68, 0
2, 147840, Note_on_c, 0, 69, 0
2, 147840, Note_on_c, 0, 62, 0
2, 147840, Note_on_c, 0, 70, 50
2, 147840, Note_on_c, 0, 82, 59
2, 148320, Note_on_c, 0, 82, 0
2, 148320, Note_on_c, 0, 79, 62
2, 148560, Note_on_c, 0, 79, 0
2, 148560, Note_on_c, 0, 77, 58
2, 148800, Note_on_c, 0, 77, 0
2, 148800, Note_on_c, 0, 70, 0
2, 148800, Note_on_c, 0, 70, 50
2, 148800, Note_on_c, 0, 75, 60
2, 148980, Note_on_c, 0, 75, 0
2, 148980, Note_on_c, 0, 70, 0
2, 149040, Note_on_c, 0, 74, 46
2, 149040, Note_on_c, 0, 77, 55
2, 149220, Note_on_c, 0, 77, 0
2, 149220, Note_on_c, 0, 74, 0
2, 149280, Note_on_c, 0, 75, 49
2, 149280, Note_on_c, 0, 79, 58
2, 149460, Note_on_c, 0, 79, 0
2, 149460, Note_on_c, 0, 75, 0
2, 149520, Note_on_c, 0, 75, 51
2, 149520, Note_on_c, 0, 80, 61
2, 149700, Note_on_c, 0, 80, 0
2, 149700, Note_on_c, 0, 75, 0
2, 149760, Note_on_c, 0, 82, 63
2, 149760, Note_on_c, 0, 75, 54
2, 150000, Note_on_c, 0, 75, 0
2, 150000, Note_on_c, 0, 82, 0
2, 150000, Note_on_c, 0, 83, 62
2, 150060, Note_on_c, 0, 84, 59
2, 150070, Note_on_c, 0, 83, 0
2, 150120, Note_on_c, 0, 80, 59
2, 150130, Note_on_c, 0, 84, 0
2, 150180, Note_on_c, 0, 77, 57
2, 150190, Note_on_c, 0, 80, 0
2, 150240, Note_on_c, 0, 77, 0
2, 150240, Note_on_c, 0, 75, 64
2, 150480, Note_on_c, 0, 75, 0
2, 150480, Note_on_c, 0, 79, 60
2, 150540, Note_on_c, 0, 77, 56
2, 150550, Note_on_c, 0, 79, 0
2, 150600, Note_on_c, 0, 76, 56
2, 150610, Note_on_c, 0, 77, 0
2, 150660, Note_on_c, 0, 77, 53
2, 150670, Note_on_c, 0, 76, 0
2, 150710, Note_on_c, 0, 77, 0
2, 150720, Note_on_c, 0, 74, 51
2, 150720, Note_on_c, 0, 77, 61
2, 151200, Note_on_c, 0, 77, 0
2, 151200, Note_on_c, 0, 74, 0
2, 151200, Note_on_c, 0, 75, 54
2, 151440, Note_on_c, 0, 75, 0
2, 151680, Note_on_c, 0, 72, 54
2, 152040, Note_on_c, 0, 72, 0
2, 152040, Note_on_c, 0, 74, 51
2, 152160, Note_on_c, 0, 74, 0
2, 152160, Note_on_c, 0, 75, 55
2, 152400, Note_on_c, 0, 75, 0
2, 152400, Note_on_c, 0, 75, 54
2, 152640, Note_on_c, 0, 75, 0
2, 152640, Note_on_c, 0, 75, 58
2, 153000, Note_on_c, 0, 75, 0
2, 153000, Note_on_c, 0, 74, 50
2, 153060, Note_on_c, 0, 74, 0
2, 153060, Note_on_c, 0, 72, 50
2, 153120, Note_on_c, 0, 72, 0
2, 153120, Note_on_c, 0, 70, 54
2, 153360, Note_on_c, 0, 70, 0
2, 153600, Note_on_c, 0, 72, 54
2, 153960, Note_on_c, 0, 72, 0
2, 153960, Note_on_c, 0, 74, 51
2, 154080, Note_on_c, 0, 74, 0
2, 154080, Note_on_c, 0, 75, 55
2, 154170, Note_on_c, 0, 75, 0
2, 154200, Note_on_c, 0, 75, 50
2, 154290, Note_on_c, 0, 75, 0
2, 154320, Note_on_c, 0, 75, 54
2, 154410, Note_on_c, 0, 75, 0
2, 154440, Note_on_c, 0, 75, 51
2, 154530, Note_on_c, 0, 75, 0
2, 154560, Note_on_c, 0, 75, 55
2, 154620, Note_on_c, 0, 75, 0
2, 154620, Note_on_c, 0, 79, 50
2, 154680, Note_on_c, 0, 79, 0
2, 154680, Note_on_c, 0, 77, 50
2, 154740, Note_on_c, 0, 77, 0
2, 154740, Note_on_c, 0, 75, 50
2, 154800, Note_on_c, 0, 75, 0
2, 154800, Note_on_c, 0, 74, 55
2, 154860, Note_on_c, 0, 74, 0
2, 154860, Note_on_c, 0, 77, 50
2, 154920, Note_on_c, 0, 77, 0
2, 154920, Note_on_c, 0, 75, 50
2, 154980, Note_on_c, 0, 75, 0
2, 154980, Note_on_c, 0, 72, 50
2, 155040, Note_on_c, 0, 72, 0
2, 155040, Note_on_c, 0, 70, 55
2, 155280, Note_on_c, 0, 70, 0
2, 155640, Note_on_c, 0, 79, 56
2, 155760, Note_on_c, 0, 79, 0
2, 155760, Note_on_c, 0, 80, 62
2, 155880, Note_on_c, 0, 80, 0
2, 155880, Note_on_c, 0, 84, 57
2, 156000, Note_on_c, 0, 84, 0
2, 156000, Note_on_c, 0, 76, 61
2, 156240, Note_on_c, 0, 76, 0
2, 156240, Note_on_c, 0, 77, 60
2, 156480, Note_on_c, 0, 77, 0
2, 156600, Note_on_c, 0, 78, 54
2, 156720, Note_on_c, 0, 78, 0
2, 156720, Note_on_c, 0, 79, 62
2, 156840, Note_on_c, 0, 79, 0
2, 156840, Note_on_c, 0, 82, 56
2, 156960, Note_on_c, 0, 82, 0
2, 156960, Note_on_c, 0, 74, 61
2, 157200, Note_on_c, 0, 74, 0
2, 157200, Note_on_c, 0, 75, 57
2, 157440, Note_on_c, 0, 75, 0
2, 157560, Note_on_c, 0, 76, 54
2, 157680, Note_on_c, 0, 76, 0
2, 157680, Note_on_c, 0, 77, 62
2, 157800, Note_on_c, 0, 77, 0
2, 157800, Note_on_c, 0, 80, 56
2, 157920, Note_on_c, 0, 80, 0
2, 157920, Note_on_c, 0, 71, 59
2, 158040, Note_on_c, 0, 72, 54
2, 158052, Note_on_c, 0, 71, 0
2, 158160, Note_on_c, 0, 75, 59
2, 158172, Note_on_c, 0, 72, 0
2, 158280, Note_on_c, 0, 74, 54
2, 158292, Note_on_c, 0, 75, 0
2, 158400, Note_on_c, 0, 74, 0
2, 158400, Note_on_c, 0, 77, 57
2, 158880, Note_on_c, 0, 77, 0
2, 158880, Note_on_c, 0, 75, 52
2, 159120, Note_on_c, 0, 75, 0
2, 159360, Note_on_c, 0, 75, 54
2, 159840, Note_on_c, 0, 75, 0
2, 159840, Note_on_c, 0, 74, 54
2, 159960, Note_on_c, 0, 72, 50
2, 159972, Note_on_c, 0, 74, 0
2, 160080, Note_on_c, 0, 70, 54
2, 160092, Note_on_c, 0, 72, 0
2, 160200, Note_on_c, 0, 69, 50
2, 160212, Note_on_c, 0, 70, 0
2, 160320, Note_on_c, 0, 69, 0
2, 160320, Note_on_c, 0, 80, 63
2, 160800, Note_on_c, 0, 80, 0
2, 160800, Note_on_c, 0, 79, 54
2, 160920, Note_on_c, 0, 77, 50
2, 160932, Note_on_c, 0, 79, 0
2, 161040, Note_on_c, 0, 75, 54
2, 161052, Note_on_c, 0, 77, 0
2, 161160, Note_on_c, 0, 74, 50
2, 161172, Note_on_c, 0, 75, 0
2, 161280, Note_on_c, 0, 74, 0
2, 161280, Note_on_c, 0, 75, 56
2, 161400, Note_on_c, 0, 75, 0
2, 161400, Note_on_c, 0, 67, 54
2, 161520, Note_on_c, 0, 67, 0
2, 161520, Note_on_c, 0, 65, 56
2, 161640, Note_on_c, 0, 65, 0
2, 161640, Note_on_c, 0, 72, 50
2, 161760, Note_on_c, 0, 72, 0
2, 161760, Note_on_c, 0, 70, 54
2, 161880, Note_on_c, 0, 70, 0
2, 161880, Note_on_c, 0, 63, 49
2, 162000, Note_on_c, 0, 63, 0
2, 162000, Note_on_c, 0, 68, 54
2, 162120, Note_on_c, 0, 68, 0
2, 162120, Note_on_c, 0, 62, 49
2, 162240, Note_on_c, 0, 62, 0
2, 162240, Note_on_c, 0, 63, 55
2, 162720, Note_on_c, 0, 63, 0
2, 162840, Note_on_c, 0, 80, 49
2, 162960, Note_on_c, 0, 80, 0
2, 162960, Note_on_c, 0, 77, 53
2, 163080, Note_on_c, 0, 77, 0
2, 163080, Note_on_c, 0, 74, 50
2, 163200, Note_on_c, 0, 74, 0
2, 163200, Note_on_c, 0, 82, 58
2, 163680, Note_on_c, 0, 82, 0
2, 163800, Note_on_c, 0, 80, 46
2, 163920, Note_on_c, 0, 80, 0
2, 163920, Note_on_c, 0, 77, 49
2, 164040, Note_on_c, 0, 77, 0
2, 164040, Note_on_c, 0, 74, 46
2, 164160, Note_on_c, 0, 74, 0
2, 164160, Note_on_c, 0, 75, 55
2, 164640, Note_on_c, 0, 75, 0
2, 164760, Note_on_c, 0, 68, 45
2, 164880, Note_on_c, 0, 68, 0
2, 164880, Note_on_c, 0, 65, 47
2, 165000, Note_on_c, 0, 65, 0
2, 165000, Note_on_c, 0, 62, 39
2, 165120, Note_on_c, 0, 62, 0
2, 165120, Note_on_c, 0, 56, 30
2, 165120, Note_on_c, 0, 65, 36
2, 166080, Note_on_c, 0, 65, 0
2, 166080, Note_on_c, 0, 56, 0
2, 166080, Note_on_c, 0, 55, 25
2, 166080, Note_on_c, 0, 63, 29
2, 166320, Note_on_c, 0, 63, 0
2, 166320, Note_on_c, 0, 55, 0
2, 166320, End_track
3, 0, Start_track
3, 0, Title_t, "Piano left"
3, 0, Program_c, 0, 0
3, 0, Note_on_c, 0, 39, 25
3, 0, Note_on_c, 0, 51, 36
3, 480, Note_on_c, 0, 51, 0
3, 480, Note_on_c, 0, 39, 0
3, 720, Note_on_c, 0, 46, 30
3, 960, Note_on_c, 0, 46, 0
3, 960, Note_on_c, 0, 51, 36
3, 1440, Note_on_c, 0, 51, 0
3, 1680, Note_on_c, 0, 46, 33
3, 1920, Note_on_c, 0, 46, 0
3, 1920, Note_on_c, 0, 51, 36
3, 2160, Note_on_c, 0, 51, 0
3, 2160, Note_on_c, 0, 48, 31
3, 2400, Note_on_c, 0, 48, 0
3, 2400, Note_on_c, 0, 43, 36
3, 2640, Note_on_c, 0, 43, 0
3, 2640, Note_on_c, 0, 44, 34
3, 2880, Note_on_c, 0, 44, 0
3, 2880, Note_on_c, 0, 46, 36
3, 3600, Note_on_c, 0, 46, 0
3, 3840, Note_on_c, 0, 67, 36
3, 4320, Note_on_c, 0, 67, 0
3, 4320, Note_on_c, 0, 63, 36
3, 4560, Note_on_c, 0, 63, 0
3, 4560, Note_on_c, 0, 58, 34
3, 4800, Note_on_c, 0, 58, 0
3, 4800, Note_on_c, 0, 55, 38
3, 4980, Note_on_c, 0, 55, 0
3, 5040, Note_on_c, 0, 58, 34
3, 5220, Note_on_c, 0, 58, 0
3, 5280, Note_on_c, 0, 63, 36
3, 5460, Note_on_c, 0, 63, 0
3, 5520, Note_on_c, 0, 60, 39
3, 5700, Note_on_c, 0, 60, 0
3, 5760, Note_on_c, 0, 55, 42
3, 6000, Note_on_c, 0, 55, 0
3, 6000, Note_on_c, 0, 65, 36
3, 6000, Note_on_c, 0, 56, 30
3, 6240, Note_on_c, 0, 56, 0
3, 6240, Note_on_c, 0, 65, 0
3, 6240, Note_on_c, 0, 58, 35
3, 6240, Note_on_c, 0, 67, 42
3, 6480, Note_on_c, 0, 67, 0
3, 6480, Note_on_c, 0, 68, 33
3, 6720, Note_on_c, 0, 68, 0
3, 6720, Note_on_c, 0, 58, 0
3, 6720, Note_on_c, 0, 63, 28
3, 6720, Note_on_c, 0, 68, 34
3, 7200, Note_on_c, 0, 68, 0
3, 7200, Note_on_c, 0, 67, 32
3, 7440, Note_on_c, 0, 67, 0
3, 7440, Note_on_c, 0, 63, 0
3, 7680, Note_on_c, 0, 39, 25
3, 7680, Note_on_c, 0, 51, 36
3, 8160, Note_on_c, 0, 51, 0
3, 8160, Note_on_c, 0, 39, 0
3, 8400, Note_on_c, 0, 46, 30
3, 8640, Note_on_c, 0, 46, 0
3, 8640, Note_on_c, 0, 51, 36
3, 9120, Note_on_c, 0, 51, 0
3, 9360, Note_on_c, 0, 46, 33
3, 9600, Note_on_c, 0, 46, 0
3, 9600, Note_on_c, 0, 51, 36
3, 9840, Note_on_c, 0, 51, 0
3, 9840, Note_on_c, 0, 48, 31
3, 10080, Note_on_c, 0, 48, 0
3, 10080, Note_on_c, 0, 43, 36
3, 10320, Note_on_c, 0, 43, 0
3, 10320, Note_on_c, 0, 44, 34
3, 10560, Note_on_c, 0, 44, 0
3, 10560, Note_on_c, 0, 46, 36
3, 11280, Note_on_c, 0, 46, 0
3, 11520, Note_on_c, 0, 67, 36
3, 12000, Note_on_c, 0, 67, 0
3, 12000, Note_on_c, 0, 63, 36
3, 12240, Note_on_c, 0, 63, 0
3, 12240, Note_on_c, 0, 58, 34
3, 12480, Note_on_c, 0, 58, 0
3, 12480, Note_on_c, 0, 55, 38
3, 12660, Note_on_c, 0, 55, 0
3, 12720, Note_on_c, 0, 58, 34
3, 12900, Note_on_c, 0, 58, 0
3, 12960, Note_on_c, 0, 63, 36
3, 13140, Note_on_c, 0, 63, 0
3, 13200, Note_on_c, 0, 60, 39
3, 13380, Note_on_c, 0, 60, 0
3, 13440, Note_on_c, 0, 55, 42
3, 13680, Note_on_c, 0, 55, 0
3, 13680, Note_on_c, 0, 65, 36
3, 13680, Note_on_c, 0, 56, 30
3, 13920, Note_on_c, 0, 56, 0
3, 13920, Note_on_c, 0, 65, 0
3, 13920, Note_on_c, 0, 58, 35
3, 13920, Note_on_c, 0, 67, 42
3, 14160, Note_on_c, 0, 67, 0
3, 14160, Note_on_c, 0, 68, 33
3, 14400, Note_on_c, 0, 68, 0
3, 14400, Note_on_c, 0, 58, 0
3, 14400, Note_on_c, 0, 63, 28
3, 14400, Note_on_c, 0, 68, 34
3, 14880, Note_on_c, 0, 68, 0
3, 14880, Note_on_c, 0, 67, 32
3, 15120, Note_on_c, 0, 67, 0
3, 15120, Note_on_c, 0, 63, 0
3, 15360, Note_on_c, 0, 62, 32
3, 15600, Note_on_c, 0, 62, 0
3, 15600, Note_on_c, 0, 58, 29
3, 15840, Note_on_c, 0, 58, 0
3, 15840, Note_on_c, 0, 63, 32
3, 16080, Note_on_c, 0, 63, 0
3, 16080, Note_on_c, 0, 58, 28
3, 16320, Note_on_c, 0, 58, 0
3, 16320, Note_on_c, 0, 58, 29
3, 16320, Note_on_c, 0, 65, 35
3, 16800, Note_on_c, 0, 65, 0
3, 16800, Note_on_c, 0, 58, 0
3, 17280, Note_on_c, 0, 63, 32
3, 17520, Note_on_c, 0, 63, 0
3, 17520, Note_on_c, 0, 63, 32
3, 17760, Note_on_c, 0, 63, 0
3, 17760, Note_on_c, 0, 65, 32
3, 17760, Note_on_c, 0, 63, 27
3, 18000, Note_on_c, 0, 63, 0
3, 18000, Note_on_c, 0, 65, 0
3, 18000, Note_on_c, 0, 66, 32
3, 18000, Note_on_c, 0, 63, 27
3, 18240, Note_on_c, 0, 63, 0
3, 18240, Note_on_c, 0, 66, 0
3, 18240, Note_on_c, 0, 63, 30
3, 18240, Note_on_c, 0, 67, 36
3, 18720, Note_on_c, 0, 67, 0
3, 18720, Note_on_c, 0, 63, 0
3, 19440, Note_on_c, 0, 68, 28
3, 19440, Note_on_c, 0, 75, 34
3, 19680, Note_on_c, 0, 75, 0
3, 19680, Note_on_c, 0, 68, 0
3, 19920, Note_on_c, 0, 66, 28
3, 19920, Note_on_c, 0, 75, 34
3, 20160, Note_on_c, 0, 75, 0
3, 20160, Note_on_c, 0, 66, 0
3, 20400, Note_on_c, 0, 65, 28
3, 20400, Note_on_c, 0, 75, 34
3, 20640, Note_on_c, 0, 75, 0
3, 20640, Note_on_c, 0, 65, 0
3, 20880, Note_on_c, 0, 59, 28
3, 20880, Note_on_c, 0, 62, 34
3, 21120, Note_on_c, 0, 62, 0
3, 21120, Note_on_c, 0, 59, 0
3, 21120, Note_on_c, 0, 60, 30
3, 21120, Note_on_c, 0, 63, 36
3, 21600, Note_on_c, 0, 63, 0
3, 21600, Note_on_c, 0, 60, 0
3, 21600, Note_on_c, 0, 56, 30
3, 21600, Note_on_c, 0, 60, 36
3, 21840, Note_on_c, 0, 60, 0
3, 21840, Note_on_c, 0, 56, 0
3, 21840, Note_on_c, 0, 68, 30
3, 22080, Note_on_c, 0, 68, 0
3, 22080, Note_on_c, 0, 58, 27
3, 22080, Note_on_c, 0, 67, 32
3, 22560, Note_on_c, 0, 67, 0
3, 22560, Note_on_c, 0, 65, 32
3, 22800, Note_on_c, 0, 65, 0
3, 22800, Note_on_c, 0, 58, 0
3, 23040, Note_on_c, 0, 39, 25
3, 23040, Note_on_c, 0, 51, 36
3, 23520, Note_on_c, 0, 51, 0
3, 23520, Note_on_c, 0, 39, 0
3, 23760, Note_on_c, 0, 46, 30
3, 24000, Note_on_c, 0, 46, 0
3, 24000, Note_on_c, 0, 51, 36
3, 24480, Note_on_c, 0, 51, 0
3, 24720, Note_on_c, 0, 46, 33
3, 24960, Note_on_c, 0, 46, 0
3, 24960, Note_on_c, 0, 51, 36
3, 25200, Note_on_c, 0, 51, 0
3, 25200, Note_on_c, 0, 48, 31
3, 25440, Note_on_c, 0, 48, 0
3, 25440, Note_on_c, 0, 43, 36
3, 25680, Note_on_c, 0, 43, 0
3, 25680, Note_on_c, 0, 44, 34
3, 25920, Note_on_c, 0, 44, 0
3, 25920, Note_on_c, 0, 46, 36
3, 26640, Note_on_c, 0, 46, 0
3, 26880, Note_on_c, 0, 67, 36
3, 27360, Note_on_c, 0, 67, 0
3, 27360, Note_on_c, 0, 63, 36
3, 27600, Note_on_c, 0, 63, 0
3, 27600, Note_on_c, 0, 58, 34
3, 27840, Note_on_c, 0, 58, 0
3, 27840, Note_on_c, 0, 55, 38
3, 28020, Note_on_c, 0, 55, 0
3, 28080, Note_on_c, 0, 58, 34
3, 28260, Note_on_c, 0, 58, 0
3, 28320, Note_on_c, 0, 63, 36
3, 28500, Note_on_c, 0, 63, 0
3, 28560, Note_on_c, 0, 60, 39
3, 28740, Note_on_c, 0, 60, 0
3, 28800, Note_on_c, 0, 55, 42
3, 29040, Note_on_c, 0, 55, 0
3, 29040, Note_on_c, 0, 65, 36
3, 29040, Note_on_c, 0, 56, 30
3, 29280, Note_on_c, 0, 56, 0
3, 29280, Note_on_c, 0, 65, 0
3, 29280, Note_on_c, 0, 58, 35
3, 29280, Note_on_c, 0, 67, 42
3, 29520, Note_on_c, 0, 67, 0
3, 29520, Note_on_c, 0, 68, 33
3, 29760, Note_on_c, 0, 68, 0
3, 29760, Note_on_c, 0, 58, 0
3, 29760, Note_on_c, 0, 63, 28
3, 29760, Note_on_c, 0, 68, 34
3, 30240, Note_on_c, 0, 68, 0
3, 30240, Note_on_c, 0, 67, 32
3, 30480, Note_on_c, 0, 67, 0
3, 30480, Note_on_c, 0, 63, 0
3, 30720, Note_on_c, 0, 62, 32
3, 30960, Note_on_c, 0, 62, 0
3, 30960, Note_on_c, 0, 58, 29
3, 31200, Note_on_c, 0, 58, 0
3, 31200, Note_on_c, 0, 63, 32
3, 31440, Note_on_c, 0, 63, 0
3, 31440, Note_on_c, 0, 58, 28
3, 31680, Note_on_c, 0, 58, 0
3, 31680, Note_on_c, 0, 58, 29
3, 31680, Note_on_c, 0, 65, 35
3, 32160, Note_on_c, 0, 65, 0
3, 32160, Note_on_c, 0, 58, 0
3, 32640, Note_on_c, 0, 63, 32
3, 32880, Note_on_c, 0, 63, 0
3, 32880, Note_on_c, 0, 63, 32
3, 33120, Note_on_c, 0, 63, 0
3, 33120, Note_on_c, 0, 65, 32
3, 33120, Note_on_c, 0, 63, 27
3, 33360, Note_on_c, 0, 63, 0
3, 33360, Note_on_c, 0, 65, 0
3, 33360, Note_on_c, 0, 66, 32
3, 33360, Note_on_c, 0, 63, 27
3, 33600, Note_on_c, 0, 63, 0
3, 33600, Note_on_c, 0, 66, 0
3, 33600, Note_on_c, 0, 63, 30
3, 33600, Note_on_c, 0, 67, 36
3, 34080, Note_on_c, 0, 67, 0
3, 34080, Note_on_c, 0, 63, 0
3, 34800, Note_on_c, 0, 68, 28
3, 34800, Note_on_c, 0, 75, 34
3, 35040, Note_on_c, 0, 75, 0
3, 35040, Note_on_c, 0, 68, 0
3, 35280, Note_on_c, 0, 66, 28
3, 35280, Note_on_c, 0, 75, 34
3, 35520, Note_on_c, 0, 75, 0
3, 35520, Note_on_c, 0, 66, 0
3, 35760, Note_on_c, 0, 65, 28
3, 35760, Note_on_c, 0, 75, 34
3, 36000, Note_on_c, 0, 75, 0
3, 36000, Note_on_c, 0, 65, 0
3, 36240, Note_on_c, 0, 59, 28
3, 36240, Note_on_c, 0, 62, 34
3, 36480, Note_on_c, 0, 62, 0
3, 36480, Note_on_c, 0, 59, 0
3, 36480, Note_on_c, 0, 60, 30
3, 36480, Note_on_c, 0, 63, 36
3, 36960, Note_on_c, 0, 63, 0
3, 36960, Note_on_c, 0, 60, 0
3, 36960, Note_on_c, 0, 56, 30
3, 36960, Note_on_c, 0, 60, 36
3, 37200, Note_on_c, 0, 60, 0
3, 37200, Note_on_c, 0, 56, 0
3, 37200, Note_on_c, 0, 68, 30
3, 37440, Note_on_c, 0, 68, 0
3, 37440, Note_on_c, 0, 58, 27
3, 37440, Note_on_c, 0, 67, 32
3, 37920, Note_on_c, 0, 67, 0
3, 37920, Note_on_c, 0, 65, 32
3, 38160, Note_on_c, 0, 65, 0
3, 38160, Note_on_c, 0, 58, 0
3, 38400, Note_on_c, 0, 39, 25
3, 38400, Note_on_c, 0, 51, 36
3, 38880, Note_on_c, 0, 51, 0
3, 38880, Note_on_c, 0, 39, 0
3, 39120, Note_on_c, 0, 46, 30
3, 39360, Note_on_c, 0, 46, 0
3, 39360, Note_on_c, 0, 51, 36
3, 39840, Note_on_c, 0, 51, 0
3, 40080, Note_on_c, 0, 46, 33
3, 40320, Note_on_c, 0, 46, 0
3, 40320, Note_on_c, 0, 51, 36
3, 40560, Note_on_c, 0, 51, 0
3, 40560, Note_on_c, 0, 48, 31
3, 40800, Note_on_c, 0, 48, 0
3, 40800, Note_on_c, 0, 43, 36
3, 41040, Note_on_c, 0, 43, 0
3, 41040, Note_on_c, 0, 44, 34
3, 41280, Note_on_c, 0, 44, 0
3, 41280, Note_on_c, 0, 46, 36
3, 42000, Note_on_c, 0, 46, 0
3, 42240, Note_on_c, 0, 67, 36
3, 42720, Note_on_c, 0, 67, 0
3, 42720, Note_on_c, 0, 63, 36
3, 42960, Note_on_c, 0, 63, 0
3, 42960, Note_on_c, 0, 58, 34
3, 43200, Note_on_c, 0, 58, 0
3, 43200, Note_on_c, 0, 55, 38
3, 43380, Note_on_c, 0, 55, 0
3, 43440, Note_on_c, 0, 58, 34
3, 43620, Note_on_c, 0, 58, 0
3, 43680, Note_on_c, 0, 63, 36
3, 43860, Note_on_c, 0, 63, 0
3, 43920, Note_on_c, 0, 60, 39
3, 44100, Note_on_c, 0, 60, 0
3, 44160, Note_on_c, 0, 55, 42
3, 44400, Note_on_c, 0, 55, 0
3, 44400, Note_on_c, 0, 65, 36
3, 44400, Note_on_c, 0, 56, 30
3, 44640, Note_on_c, 0, 56, 0
3, 44640, Note_on_c, 0, 65, 0
3, 44640, Note_on_c, 0, 58, 35
3, 44640, Note_on_c, 0, 67, 42
3, 44880, Note_on_c, 0, 67, 0
3, 44880, Note_on_c, 0, 68, 33
3, 45120, Note_on_c, 0, 68, 0
3, 45120, Note_on_c, 0, 58, 0
3, 45120, Note_on_c, 0, 63, 28
3, 45120, Note_on_c, 0, 68, 34
3, 45600, Note_on_c, 0, 68, 0
3, 45600, Note_on_c, 0, 67, 32
3, 45840, Note_on_c, 0, 67, 0
3, 45840, Note_on_c, 0, 63, 0
3, 46080, Note_on_c, 0, 48, 36
3, 46200, Note_on_c, 0, 48, 0
3, 46200, Note_on_c, 0, 60, 30
3, 46290, Note_on_c, 0, 60, 0
3, 46320, Note_on_c, 0, 60, 30
3, 46410, Note_on_c, 0, 60, 0
3, 46440, Note_on_c, 0, 60, 32
3, 46530, Note_on_c, 0, 60, 0
3, 46560, Note_on_c, 0, 60, 32
3, 46650, Note_on_c, 0, 60, 0
3, 46680, Note_on_c, 0, 60, 29
3, 46770, Note_on_c, 0, 60, 0
3, 46800, Note_on_c, 0, 60, 29
3, 46890, Note_on_c, 0, 60, 0
3, 46920, Note_on_c, 0, 60, 29
3, 47010, Note_on_c, 0, 60, 0
3, 47040, Note_on_c, 0, 47, 36
3, 47160, Note_on_c, 0, 47, 0
3, 47160, Note_on_c, 0, 59, 32
3, 47250, Note_on_c, 0, 59, 0
3, 47280, Note_on_c, 0, 59, 32
3, 47370, Note_on_c, 0, 59, 0
3, 47400, Note_on_c, 0, 59, 32
3, 47490, Note_on_c, 0, 59, 0
3, 47520, Note_on_c, 0, 59, 36
3, 47610, Note_on_c, 0, 59, 0
3, 47640, Note_on_c, 0, 59, 29
3, 47730, Note_on_c, 0, 59, 0
3, 47760, Note_on_c, 0, 59, 29
3, 47850, Note_on_c, 0, 59, 0
3, 47880, Note_on_c, 0, 59, 29
3, 47970, Note_on_c, 0, 59, 0
3, 48000, Note_on_c, 0, 60, 46
3, 48480, Note_on_c, 0, 60, 0
3, 48480, Note_on_c, 0, 56, 40
3, 48720, Note_on_c, 0, 56, 0
3, 48720, Note_on_c, 0, 54, 36
3, 48960, Note_on_c, 0, 54, 0
3, 48960, Note_on_c, 0, 55, 46
3, 49080, Note_on_c, 0, 55, 0
3, 49080, Note_on_c, 0, 43, 41
3, 49200, Note_on_c, 0, 43, 0
3, 49200, Note_on_c, 0, 55, 46
3, 49260, Note_on_c, 0, 55, 0
3, 49320, Note_on_c, 0, 55, 42
3, 49380, Note_on_c, 0, 55, 0
3, 49440, Note_on_c, 0, 55, 48
3, 49560, Note_on_c, 0, 53, 45
3, 49570, Note_on_c, 0, 55, 0
3, 49680, Note_on_c, 0, 51, 43
3, 49690, Note_on_c, 0, 53, 0
3, 49800, Note_on_c, 0, 50, 39
3, 49810, Note_on_c, 0, 51, 0
3, 49920, Note_on_c, 0, 48, 46
3, 49930, Note_on_c, 0, 50, 0
3, 50400, Note_on_c, 0, 48, 0
3, 50520, Note_on_c, 0, 63, 39
3, 50520, Note_on_c, 0, 60, 33
3, 50610, Note_on_c, 0, 60, 0
3, 50610, Note_on_c, 0, 63, 0
3, 50640, Note_on_c, 0, 60, 36
3, 50640, Note_on_c, 0, 63, 43
3, 50730, Note_on_c, 0, 63, 0
3, 50730, Note_on_c, 0, 60, 0
3, 50760, Note_on_c, 0, 60, 34
3, 50760, Note_on_c, 0, 63, 40
3, 50850, Note_on_c, 0, 63, 0
3, 50850, Note_on_c, 0, 60, 0
3, 50880, Note_on_c, 0, 58, 43
3, 50880, Note_on_c, 0, 62, 51
3, 51360, Note_on_c, 0, 62, 0
3, 51360, Note_on_c, 0, 58, 0
3, 51480, Note_on_c, 0, 64, 36
3, 51480, Note_on_c, 0, 67, 43
3, 51570, Note_on_c, 0, 67, 0
3, 51570, Note_on_c, 0, 64, 0
3, 51600, Note_on_c, 0, 64, 38
3, 51600, Note_on_c, 0, 67, 45
3, 51690, Note_on_c, 0, 67, 0
3, 51690, Note_on_c, 0, 64, 0
3, 51720, Note_on_c, 0, 64, 36
3, 51720, Note_on_c, 0, 67, 43
3, 51810, Note_on_c, 0, 67, 0
3, 51810, Note_on_c, 0, 64, 0
3, 51840, Note_on_c, 0, 62, 45
3, 51840, Note_on_c, 0, 66, 54
3, 51960, Note_on_c, 0, 66, 0
3, 51960, Note_on_c, 0, 62, 0
3, 52080, Note_on_c, 0, 63, 50
3, 52200, Note_on_c, 0, 63, 0
3, 52320, Note_on_c, 0, 60, 54
3, 52440, Note_on_c, 0, 60, 0
3, 52560, Note_on_c, 0, 62, 51
3, 52680, Note_on_c, 0, 62, 0
3, 52800, Note_on_c, 0, 55, 57
3, 53280, Note_on_c, 0, 55, 0
3, 53760, Note_on_c, 0, 48, 36
3, 53850, Note_on_c, 0, 48, 0
3, 53880, Note_on_c, 0, 60, 30
3, 53970, Note_on_c, 0, 60, 0
3, 54000, Note_on_c, 0, 60, 30
3, 54090, Note_on_c, 0, 60, 0
3, 54120, Note_on_c, 0, 60, 32
3, 54210, Note_on_c, 0, 60, 0
3, 54240, Note_on_c, 0, 60, 32
3, 54330, Note_on_c, 0, 60, 0
3, 54360, Note_on_c, 0, 60, 29
3, 54450, Note_on_c, 0, 60, 0
3, 54480, Note_on_c, 0, 60, 29
3, 54570, Note_on_c, 0, 60, 0
3, 54600, Note_on_c, 0, 60, 29
3, 54690, Note_on_c, 0, 60, 0
3, 54720, Note_on_c, 0, 47, 36
3, 54840, Note_on_c, 0, 47, 0
3, 54840, Note_on_c, 0, 59, 32
3, 54930, Note_on_c, 0, 59, 0
3, 54960, Note_on_c, 0, 59, 32
3, 55050, Note_on_c, 0, 59, 0
3, 55080, Note_on_c, 0, 59, 32
3, 55170, Note_on_c, 0, 59, 0
3, 55200, Note_on_c, 0, 59, 36
3, 55290, Note_on_c, 0, 59, 0
3, 55320, Note_on_c, 0, 59, 29
3, 55410, Note_on_c, 0, 59, 0
3, 55440, Note_on_c, 0, 59, 29
3, 55530, Note_on_c, 0, 59, 0
3, 55560, Note_on_c, 0, 59, 29
3, 55650, Note_on_c, 0, 59, 0
3, 55680, Note_on_c, 0, 60, 46
3, 56160, Note_on_c, 0, 60, 0
3, 56160, Note_on_c, 0, 56, 40
3, 56400, Note_on_c, 0, 56, 0
3, 56400, Note_on_c, 0, 54, 36
3, 56640, Note_on_c, 0, 54, 0
3, 56640, Note_on_c, 0, 55, 46
3, 56760, Note_on_c, 0, 55, 0
3, 56760, Note_on_c, 0, 43, 41
3, 56880, Note_on_c, 0, 43, 0
3, 56880, Note_on_c, 0, 55, 46
3, 56940, Note_on_c, 0, 55, 0
3, 57000, Note_on_c, 0, 55, 42
3, 57060, Note_on_c, 0, 55, 0
3, 57120, Note_on_c, 0, 55, 48
3, 57240, Note_on_c, 0, 53, 45
3, 57250, Note_on_c, 0, 55, 0
3, 57360, Note_on_c, 0, 51, 43
3, 57370, Note_on_c, 0, 53, 0
3, 57480, Note_on_c, 0, 50, 39
3, 57490, Note_on_c, 0, 51, 0
3, 57600, Note_on_c, 0, 48, 46
3, 57610, Note_on_c, 0, 50, 0
3, 58080, Note_on_c, 0, 48, 0
3, 58200, Note_on_c, 0, 63, 39
3, 58200, Note_on_c, 0, 60, 33
3, 58290, Note_on_c, 0, 60, 0
3, 58290, Note_on_c, 0, 63, 0
3, 58320, Note_on_c, 0, 60, 36
3, 58320, Note_on_c, 0, 63, 43
3, 58410, Note_on_c, 0, 63, 0
3, 58410, Note_on_c, 0, 60, 0
3, 58440, Note_on_c, 0, 60, 34
3, 58440, Note_on_c, 0, 63, 40
3, 58530, Note_on_c, 0, 63, 0
3, 58530, Note_on_c, 0, 60, 0
3, 58560, Note_on_c, 0, 58, 43
3, 58560, Note_on_c, 0, 62, 51
3, 59040, Note_on_c, 0, 62, 0
3, 59040, Note_on_c, 0, 58, 0
3, 59160, Note_on_c, 0, 64, 36
3, 59160, Note_on_c, 0, 67, 43
3, 59250, Note_on_c, 0, 67, 0
3, 59250, Note_on_c, 0, 64, 0
3, 59280, Note_on_c, 0, 64, 38
3, 59280, Note_on_c, 0, 67, 45
3, 59370, Note_on_c, 0, 67, 0
3, 59370, Note_on_c, 0, 64, 0
3, 59400, Note_on_c, 0, 64, 36
3, 59400, Note_on_c, 0, 67, 43
3, 59490, Note_on_c, 0, 67, 0
3, 59490, Note_on_c, 0, 64, 0
3, 59520, Note_on_c, 0, 62, 45
3, 59520, Note_on_c, 0, 66, 54
3, 59640, Note_on_c, 0, 66, 0
3, 59640, Note_on_c, 0, 62, 0
3, 59760, Note_on_c, 0, 63, 50
3, 59880, Note_on_c, 0, 63, 0
3, 60000, Note_on_c, 0, 60, 54
3, 60120, Note_on_c, 0, 60, 0
3, 60240, Note_on_c, 0, 62, 51
3, 60360, Note_on_c, 0, 62, 0
3, 60480, Note_on_c, 0, 55, 57
3, 60960, Note_on_c, 0, 55, 0
3, 61440, Note_on_c, 0, 60, 38
3, 61560, Note_on_c, 0, 60, 0
3, 61560, Note_on_c, 0, 67, 25
3, 61560, Note_on_c, 0, 70, 30
3, 61650, Note_on_c, 0, 70, 0
3, 61650, Note_on_c, 0, 67, 0
3, 61680, Note_on_c, 0, 67, 25
3, 61680, Note_on_c, 0, 70, 30
3, 61770, Note_on_c, 0, 70, 0
3, 61770, Note_on_c, 0, 67, 0
3, 61800, Note_on_c, 0, 67, 27
3, 61800, Note_on_c, 0, 70, 33
3, 61890, Note_on_c, 0, 70, 0
3, 61890, Note_on_c, 0, 67, 0
3, 61920, Note_on_c, 0, 60, 36
3, 62040, Note_on_c, 0, 60, 0
3, 62040, Note_on_c, 0, 65, 25
3, 62040, Note_on_c, 0, 68, 31
3, 62130, Note_on_c, 0, 68, 0
3, 62130, Note_on_c, 0, 65, 0
3, 62160, Note_on_c, 0, 65, 26
3, 62160, Note_on_c, 0, 68, 31
3, 62250, Note_on_c, 0, 68, 0
3, 62250, Note_on_c, 0, 65, 0
3, 62280, Note_on_c, 0, 68, 31
3, 62280, Note_on_c, 0, 65, 26
3, 62370, Note_on_c, 0, 65, 0
3, 62370, Note_on_c, 0, 68, 0
3, 62400, Note_on_c, 0, 60, 38
3, 62520, Note_on_c, 0, 60, 0
3, 62520, Note_on_c, 0, 64, 28
3, 62520, Note_on_c, 0, 67, 34
3, 62610, Note_on_c, 0, 67, 0
3, 62610, Note_on_c, 0, 64, 0
3, 62640, Note_on_c, 0, 67, 34
3, 62640, Note_on_c, 0, 64, 28
3, 62730, Note_on_c, 0, 64, 0
3, 62730, Note_on_c, 0, 67, 0
3, 62760, Note_on_c, 0, 64, 28
3, 62760, Note_on_c, 0, 67, 34
3, 62850, Note_on_c, 0, 67, 0
3, 62850, Note_on_c, 0, 64, 0
3, 62880, Note_on_c, 0, 60, 47
3, 63000, Note_on_c, 0, 60, 0
3, 63000, Note_on_c, 0, 65, 39
3, 63000, Note_on_c, 0, 68, 39
3, 63120, Note_on_c, 0, 68, 0
3, 63120, Note_on_c, 0, 65, 0
3, 63120, Note_on_c, 0, 59, 49
3, 63240, Note_on_c, 0, 59, 0
3, 63240, Note_on_c, 0, 65, 42
3, 63240, Note_on_c, 0, 68, 42
3, 63360, Note_on_c, 0, 68, 0
3, 63360, Note_on_c, 0, 65, 0
3, 63360, Note_on_c, 0, 58, 55
3, 63480, Note_on_c, 0, 58, 0
3, 63480, Note_on_c, 0, 65, 38
3, 63480, Note_on_c, 0, 68, 45
3, 63570, Note_on_c, 0, 68, 0
3, 63570, Note_on_c, 0, 65, 0
3, 63600, Note_on_c, 0, 65, 38
3, 63600, Note_on_c, 0, 68, 45
3, 63690, Note_on_c, 0, 68, 0
3, 63690, Note_on_c, 0, 65, 0
3, 63720, Note_on_c, 0, 65, 38
3, 63720, Note_on_c, 0, 68, 45
3, 63810, Note_on_c, 0, 68, 0
3, 63810, Note_on_c, 0, 65, 0
3, 63840, Note_on_c, 0, 58, 54
3, 63960, Note_on_c, 0, 58, 0
3, 63960, Note_on_c, 0, 63, 39
3, 63960, Note_on_c, 0, 67, 46
3, 64050, Note_on_c, 0, 67, 0
3, 64050, Note_on_c, 0, 63, 0
3, 64080, Note_on_c, 0, 63, 39
3, 64080, Note_on_c, 0, 67, 46
3, 64170, Note_on_c, 0, 67, 0
3, 64170, Note_on_c, 0, 63, 0
3, 64200, Note_on_c, 0, 67, 46
3, 64200, Note_on_c, 0, 63, 39
3, 64290, Note_on_c, 0, 63, 0
3, 64290, Note_on_c, 0, 67, 0
3, 64320, Note_on_c, 0, 58, 54
3, 64440, Note_on_c, 0, 58, 0
3, 64440, Note_on_c, 0, 62, 39
3, 64440, Note_on_c, 0, 65, 46
3, 64530, Note_on_c, 0, 65, 0
3, 64530, Note_on_c, 0, 62, 0
3, 64560, Note_on_c, 0, 65, 46
3, 64560, Note_on_c, 0, 62, 39
3, 64650, Note_on_c, 0, 62, 0
3, 64650, Note_on_c, 0, 65, 0
3, 64680, Note_on_c, 0, 62, 39
3, 64680, Note_on_c, 0, 65, 46
3, 64770, Note_on_c, 0, 65, 0
3, 64770, Note_on_c, 0, 62, 0
3, 64800, Note_on_c, 0, 58, 54
3, 64920, Note_on_c, 0, 58, 0
3, 64920, Note_on_c, 0, 63, 37
3, 64920, Note_on_c, 0, 67, 48
3, 65010, Note_on_c, 0, 67, 0
3, 65010, Note_on_c, 0, 63, 0
3, 65040, Note_on_c, 0, 63, 37
3, 65040, Note_on_c, 0, 67, 45
3, 65130, Note_on_c, 0, 67, 0
3, 65130, Note_on_c, 0, 63, 0
3, 65160, Note_on_c, 0, 63, 30
3, 65160, Note_on_c, 0, 67, 45
3, 65250, Note_on_c, 0, 67, 0
3, 65250, Note_on_c, 0, 63, 0
3, 65280, Note_on_c, 0, 57, 45
3, 65280, Note_on_c, 0, 60, 54
3, 65760, Note_on_c, 0, 60, 0
3, 65760, Note_on_c, 0, 57, 0
3, 65880, Note_on_c, 0, 67, 39
3, 65880, Note_on_c, 0, 59, 27
3, 65970, Note_on_c, 0, 59, 0
3, 65970, Note_on_c, 0, 67, 0
3, 66000, Note_on_c, 0, 59, 30
3, 66000, Note_on_c, 0, 67, 43
3, 66090, Note_on_c, 0, 67, 0
3, 66090, Note_on_c, 0, 59, 0
3, 66120, Note_on_c, 0, 59, 28
3, 66120, Note_on_c, 0, 67, 40
3, 66210, Note_on_c, 0, 67, 0
3, 66210, Note_on_c, 0, 59, 0
3, 66240, Note_on_c, 0, 60, 33
3, 66240, Note_on_c, 0, 67, 45
3, 66720, Note_on_c, 0, 67, 0
3, 66720, Note_on_c, 0, 60, 0
3, 66840, Note_on_c, 0, 56, 33
3, 66840, Note_on_c, 0, 60, 39
3, 66930, Note_on_c, 0, 60, 0
3, 66930, Note_on_c, 0, 56, 0
3, 66960, Note_on_c, 0, 56, 35
3, 66960, Note_on_c, 0, 60, 42
3, 67050, Note_on_c, 0, 60, 0
3, 67050, Note_on_c, 0, 56, 0
3, 67080, Note_on_c, 0, 56, 32
3, 67080, Note_on_c, 0, 60, 38
3, 67170, Note_on_c, 0, 60, 0
3, 67170, Note_on_c, 0, 56, 0
3, 67200, Note_on_c, 0, 53, 36
3, 67200, Note_on_c, 0, 56, 44
3, 67680, Note_on_c, 0, 56, 0
3, 67680, Note_on_c, 0, 53, 0
3, 68160, Note_on_c, 0, 55, 38
3, 68160, Note_on_c, 0, 63, 38
3, 68280, Note_on_c, 0, 64, 35
3, 68292, Note_on_c, 0, 63, 0
3, 68400, Note_on_c, 0, 65, 36
3, 68412, Note_on_c, 0, 64, 0
3, 68520, Note_on_c, 0, 66, 36
3, 68532, Note_on_c, 0, 65, 0
3, 68640, Note_on_c, 0, 55, 0
3, 68640, Note_on_c, 0, 55, 38
3, 68640, Note_on_c, 0, 67, 38
3, 68652, Note_on_c, 0, 66, 0
3, 68880, Note_on_c, 0, 67, 0
3, 68880, Note_on_c, 0, 55, 0
3, 69120, Note_on_c, 0, 48, 36
3, 69240, Note_on_c, 0, 48, 0
3, 69240, Note_on_c, 0, 60, 30
3, 69330, Note_on_c, 0, 60, 0
3, 69360, Note_on_c, 0, 60, 30
3, 69450, Note_on_c, 0, 60, 0
3, 69480, Note_on_c, 0, 60, 32
3, 69570, Note_on_c, 0, 60, 0
3, 69600, Note_on_c, 0, 60, 32
3, 69690, Note_on_c, 0, 60, 0
3, 69720, Note_on_c, 0, 60, 29
3, 69810, Note_on_c, 0, 60, 0
3, 69840, Note_on_c, 0, 60, 29
3, 69930, Note_on_c, 0, 60, 0
3, 69960, Note_on_c, 0, 60, 29
3, 70050, Note_on_c, 0, 60, 0
3, 70080, Note_on_c, 0, 47, 36
3, 70200, Note_on_c, 0, 47, 0
3, 70200, Note_on_c, 0, 59, 32
3, 70290, Note_on_c, 0, 59, 0
3, 70320, Note_on_c, 0, 59, 32
3, 70410, Note_on_c, 0, 59, 0
3, 70440, Note_on_c, 0, 59, 32
3, 70530, Note_on_c, 0, 59, 0
3, 70560, Note_on_c, 0, 59, 36
3, 70650, Note_on_c, 0, 59, 0
3, 70680, Note_on_c, 0, 59, 29
3, 70770, Note_on_c, 0, 59, 0
3, 70800, Note_on_c, 0, 59, 29
3, 70890, Note_on_c, 0, 59, 0
3, 70920, Note_on_c, 0, 59, 29
3, 71010, Note_on_c, 0, 59, 0
3, 71040, Note_on_c, 0, 60, 46
3, 71520, Note_on_c, 0, 60, 0
3, 71520, Note_on_c, 0, 56, 40
3, 71760, Note_on_c, 0, 56, 0
3, 71760, Note_on_c, 0, 54, 36
3, 72000, Note_on_c, 0, 54, 0
3, 72000, Note_on_c, 0, 55, 46
3, 72120, Note_on_c, 0, 55, 0
3, 72120, Note_on_c, 0, 43, 41
3, 72240, Note_on_c, 0, 43, 0
3, 72240, Note_on_c, 0, 55, 46
3, 72300, Note_on_c, 0, 55, 0
3, 72360, Note_on_c, 0, 55, 42
3, 72420, Note_on_c, 0, 55, 0
3, 72480, Note_on_c, 0, 55, 48
3, 72600, Note_on_c, 0, 53, 45
3, 72610, Note_on_c, 0, 55, 0
3, 72720, Note_on_c, 0, 51, 43
3, 72730, Note_on_c, 0, 53, 0
3, 72840, Note_on_c, 0, 50, 39
3, 72850, Note_on_c, 0, 51, 0
3, 72960, Note_on_c, 0, 48, 46
3, 72970, Note_on_c, 0, 50, 0
3, 73440, Note_on_c, 0, 48, 0
3, 73560, Note_on_c, 0, 67, 39
3, 73560, Note_on_c, 0, 64, 33
3, 73650, Note_on_c, 0, 64, 0
3, 73650, Note_on_c, 0, 67, 0
3, 73680, Note_on_c, 0, 64, 36
3, 73680, Note_on_c, 0, 67, 43
3, 73770, Note_on_c, 0, 67, 0
3, 73770, Note_on_c, 0, 64, 0
3, 73800, Note_on_c, 0, 64, 34
3, 73800, Note_on_c, 0, 67, 40
3, 73890, Note_on_c, 0, 67, 0
3, 73890, Note_on_c, 0, 64, 0
3, 73920, Note_on_c, 0, 65, 43
3, 73920, Note_on_c, 0, 68, 51
3, 74400, Note_on_c, 0, 68, 0
3, 74400, Note_on_c, 0, 65, 0
3, 74520, Note_on_c, 0, 69, 36
3, 74520, Note_on_c, 0, 72, 43
3, 74610, Note_on_c, 0, 72, 0
3, 74610, Note_on_c, 0, 69, 0
3, 74640, Note_on_c, 0, 69, 38
3, 74640, Note_on_c, 0, 72, 45
3, 74730, Note_on_c, 0, 72, 0
3, 74730, Note_on_c, 0, 69, 0
3, 74760, Note_on_c, 0, 69, 36
3, 74760, Note_on_c, 0, 72, 43
3, 74850, Note_on_c, 0, 72, 0
3, 74850, Note_on_c, 0, 69, 0
3, 74880, Note_on_c, 0, 67, 45
3, 74880, Note_on_c, 0, 71, 54
3, 75000, Note_on_c, 0, 71, 0
3, 75000, Note_on_c, 0, 67, 0
3, 75120, Note_on_c, 0, 68, 50
3, 75240, Note_on_c, 0, 68, 0
3, 75360, Note_on_c, 0, 65, 54
3, 75480, Note_on_c, 0, 65, 0
3, 75600, Note_on_c, 0, 67, 51
3, 75720, Note_on_c, 0, 67, 0
3, 75840, Note_on_c, 0, 60, 57
3, 76320, Note_on_c, 0, 60, 0
3, 76800, Note_on_c, 0, 60, 38
3, 76920, Note_on_c, 0, 60, 0
3, 76920, Note_on_c, 0, 67, 25
3, 76920, Note_on_c, 0, 70, 30
3, 77010, Note_on_c, 0, 70, 0
3, 77010, Note_on_c, 0, 67, 0
3, 77040, Note_on_c, 0, 67, 25
3, 77040, Note_on_c, 0, 70, 30
3, 77130, Note_on_c, 0, 70, 0
3, 77130, Note_on_c, 0, 67, 0
3, 77160, Note_on_c, 0, 67, 27
3, 77160, Note_on_c, 0, 70, 33
3, 77250, Note_on_c, 0, 70, 0
3, 77250, Note_on_c, 0, 67, 0
3, 77280, Note_on_c, 0, 60, 36
3, 77400, Note_on_c, 0, 60, 0
3, 77400, Note_on_c, 0, 65, 25
3, 77400, Note_on_c, 0, 68, 31
3, 77490, Note_on_c, 0, 68, 0
3, 77490, Note_on_c, 0, 65, 0
3, 77520, Note_on_c, 0, 65, 26
3, 77520, Note_on_c, 0, 68, 31
3, 77610, Note_on_c, 0, 68, 0
3, 77610, Note_on_c, 0, 65, 0
3, 77640, Note_on_c, 0, 68, 31
3, 77640, Note_on_c, 0, 65, 26
3, 77730, Note_on_c, 0, 65, 0
3, 77730, Note_on_c, 0, 68, 0
3, 77760, Note_on_c, 0, 60, 38
3, 77880, Note_on_c, 0, 60, 0
3, 77880, Note_on_c, 0, 64, 28
3, 77880, Note_on_c, 0, 67, 34
3, 77970, Note_on_c, 0, 67, 0
3, 77970, Note_on_c, 0, 64, 0
3, 78000, Note_on_c, 0, 67, 34
3, 78000, Note_on_c, 0, 64, 28
3, 78090, Note_on_c, 0, 64, 0
3, 78090, Note_on_c, 0, 67, 0
3, 78120, Note_on_c, 0, 64, 28
3, 78120, Note_on_c, 0, 67, 34
3, 78210, Note_on_c, 0, 67, 0
3, 78210, Note_on_c, 0, 64, 0
3, 78240, Note_on_c, 0, 60, 47
3, 78360, Note_on_c, 0, 60, 0
3, 78360, Note_on_c, 0, 65, 39
3, 78360, Note_on_c, 0, 68, 39
3, 78480, Note_on_c, 0, 68, 0
3, 78480, Note_on_c, 0, 65, 0
3, 78480, Note_on_c, 0, 59, 49
3, 78600, Note_on_c, 0, 59, 0
3, 78600, Note_on_c, 0, 65, 42
3, 78600, Note_on_c, 0, 68, 42
3, 78720, Note_on_c, 0, 68, 0
3, 78720, Note_on_c, 0, 65, 0
3, 78720, Note_on_c, 0, 58, 55
3, 78840, Note_on_c, 0, 58, 0
3, 78840, Note_on_c, 0, 65, 38
3, 78840, Note_on_c, 0, 68, 45
3, 78930, Note_on_c, 0, 68, 0
3, 78930, Note_on_c, 0, 65, 0
3, 78960, Note_on_c, 0, 65, 38
3, 78960, Note_on_c, 0, 68, 45
3, 79050, Note_on_c, 0, 68, 0
3, 79050, Note_on_c, 0, 65, 0
3, 79080, Note_on_c, 0, 65, 38
3, 79080, Note_on_c, 0, 68, 45
3, 79170, Note_on_c, 0, 68, 0
3, 79170, Note_on_c, 0, 65, 0
3, 79200, Note_on_c, 0, 58, 54
3, 79320, Note_on_c, 0, 58, 0
3, 79320, Note_on_c, 0, 63, 39
3, 79320, Note_on_c, 0, 67, 46
3, 79410, Note_on_c, 0, 67, 0
3, 79410, Note_on_c, 0, 63, 0
3, 79440, Note_on_c, 0, 63, 39
3, 79440, Note_on_c, 0, 67, 46
3, 79530, Note_on_c, 0, 67, 0
3, 79530, Note_on_c, 0, 63, 0
3, 79560, Note_on_c, 0, 67, 46
3, 79560, Note_on_c, 0, 63, 39
3, 79650, Note_on_c, 0, 63, 0
3, 79650, Note_on_c, 0, 67, 0
3, 79680, Note_on_c, 0, 58, 54
3, 79800, Note_on_c, 0, 58, 0
3, 79800, Note_on_c, 0, 62, 39
3, 79800, Note_on_c, 0, 65, 46
3, 79890, Note_on_c, 0, 65, 0
3, 79890, Note_on_c, 0, 62, 0
3, 79920, Note_on_c, 0, 65, 46
3, 79920, Note_on_c, 0, 62, 39
3, 80010, Note_on_c, 0, 62, 0
3, 80010, Note_on_c, 0, 65, 0
3, 80040, Note_on_c, 0, 62, 39
3, 80040, Note_on_c, 0, 65, 46
3, 80130, Note_on_c, 0, 65, 0
3, 80130, Note_on_c, 0, 62, 0
3, 80160, Note_on_c, 0, 58, 54
3, 80280, Note_on_c, 0, 58, 0
3, 80280, Note_on_c, 0, 63, 37
3, 80280, Note_on_c, 0, 67, 48
3, 80370, Note_on_c, 0, 67, 0
3, 80370, Note_on_c, 0, 63, 0
3, 80400, Note_on_c, 0, 63, 37
3, 80400, Note_on_c, 0, 67, 45
3, 80490, Note_on_c, 0, 67, 0
3, 80490, Note_on_c, 0, 63, 0
3, 80520, Note_on_c, 0, 63, 30
3, 80520, Note_on_c, 0, 67, 45
3, 80610, Note_on_c, 0, 67, 0
3, 80610, Note_on_c, 0, 63, 0
3, 80640, Note_on_c, 0, 57, 45
3, 80640, Note_on_c, 0, 60, 54
3, 81120, Note_on_c, 0, 60, 0
3, 81120, Note_on_c, 0, 57, 0
3, 81240, Note_on_c, 0, 67, 39
3, 81240, Note_on_c, 0, 59, 27
3, 81330, Note_on_c, 0, 59, 0
3, 81330, Note_on_c, 0, 67, 0
3, 81360, Note_on_c, 0, 59, 30
3, 81360, Note_on_c, 0, 67, 43
3, 81450, Note_on_c, 0, 67, 0
3, 81450, Note_on_c, 0, 59, 0
3, 81480, Note_on_c, 0, 59, 28
3, 81480, Note_on_c, 0, 67, 40
3, 81570, Note_on_c, 0, 67, 0
3, 81570, Note_on_c, 0, 59, 0
3, 81600, Note_on_c, 0, 60, 33
3, 81600, Note_on_c, 0, 67, 45
3, 82080, Note_on_c, 0, 67, 0
3, 82080, Note_on_c, 0, 60, 0
3, 82200, Note_on_c, 0, 56, 33
3, 82200, Note_on_c, 0, 60, 39
3, 82290, Note_on_c, 0, 60, 0
3, 82290, Note_on_c, 0, 56, 0
3, 82320, Note_on_c, 0, 56, 35
3, 82320, Note_on_c, 0, 60, 42
3, 82410, Note_on_c, 0, 60, 0
3, 82410, Note_on_c, 0, 56, 0
3, 82440, Note_on_c, 0, 56, 32
3, 82440, Note_on_c, 0, 60, 38
3, 82530, Note_on_c, 0, 60, 0
3, 82530, Note_on_c, 0, 56, 0
3, 82560, Note_on_c, 0, 53, 36
3, 82560, Note_on_c, 0, 56, 44
3, 83040, Note_on_c, 0, 56, 0
3, 83040, Note_on_c, 0, 53, 0
3, 83520, Note_on_c, 0, 55, 38
3, 83520, Note_on_c, 0, 63, 38
3, 83640, Note_on_c, 0, 64, 35
3, 83652, Note_on_c, 0, 63, 0
3, 83760, Note_on_c, 0, 65, 36
3, 83772, Note_on_c, 0, 64, 0
3, 83880, Note_on_c, 0, 66, 36
3, 83892, Note_on_c, 0, 65, 0
3, 84000, Note_on_c, 0, 55, 0
3, 84000, Note_on_c, 0, 55, 38
3, 84000, Note_on_c, 0, 67, 38
3, 84012, Note_on_c, 0, 66, 0
3, 84240, Note_on_c, 0, 67, 0
3, 84240, Note_on_c, 0, 55, 0
3, 84480, Note_on_c, 0, 48, 36
3, 84600, Note_on_c, 0, 48, 0
3, 84600, Note_on_c, 0, 60, 30
3, 84690, Note_on_c, 0, 60, 0
3, 84720, Note_on_c, 0, 60, 30
3, 84810, Note_on_c, 0, 60, 0
3, 84840, Note_on_c, 0, 60, 32
3, 84930, Note_on_c, 0, 60, 0
3, 84960, Note_on_c, 0, 60, 32
3, 85050, Note_on_c, 0, 60, 0
3, 85080, Note_on_c, 0, 60, 29
3, 85170, Note_on_c, 0, 60, 0
3, 85200, Note_on_c, 0, 60, 29
3, 85290, Note_on_c, 0, 60, 0
3, 85320, Note_on_c, 0, 60, 29
3, 85410, Note_on_c, 0, 60, 0
3, 85440, Note_on_c, 0, 47, 36
3, 85560, Note_on_c, 0, 47, 0
3, 85560, Note_on_c, 0, 59, 32
3, 85650, Note_on_c, 0, 59, 0
3, 85680, Note_on_c, 0, 59, 32
3, 85770, Note_on_c, 0, 59, 0
3, 85800, Note_on_c, 0, 59, 32
3, 85890, Note_on_c, 0, 59, 0
3, 85920, Note_on_c, 0, 59, 36
3, 86010, Note_on_c, 0, 59, 0
3, 86040, Note_on_c, 0, 59, 29
3, 86130, Note_on_c, 0, 59, 0
3, 86160, Note_on_c, 0, 59, 29
3, 86250, Note_on_c, 0, 59, 0
3, 86280, Note_on_c, 0, 59, 29
3, 86370, Note_on_c, 0, 59, 0
3, 86400, Note_on_c, 0, 60, 46
3, 86880, Note_on_c, 0, 60, 0
3, 86880, Note_on_c, 0, 56, 40
3, 87120, Note_on_c, 0, 56, 0
3, 87120, Note_on_c, 0, 54, 36
3, 87360, Note_on_c, 0, 54, 0
3, 87360, Note_on_c, 0, 55, 46
3, 87480, Note_on_c, 0, 55, 0
3, 87480, Note_on_c, 0, 43, 41
3, 87600, Note_on_c, 0, 43, 0
3, 87600, Note_on_c, 0, 55, 46
3, 87660, Note_on_c, 0, 55, 0
3, 87720, Note_on_c, 0, 55, 42
3, 87780, Note_on_c, 0, 55, 0
3, 87840, Note_on_c, 0, 55, 48
3, 87960, Note_on_c, 0, 53, 45
3, 87970, Note_on_c, 0, 55, 0
3, 88080, Note_on_c, 0, 51, 43
3, 88090, Note_on_c, 0, 53, 0
3, 88200, Note_on_c, 0, 50, 39
3, 88210, Note_on_c, 0, 51, 0
3, 88320, Note_on_c, 0, 48, 46
3, 88330, Note_on_c, 0, 50, 0
3, 88800, Note_on_c, 0, 48, 0
3, 88920, Note_on_c, 0, 67, 39
3, 88920, Note_on_c, 0, 64, 33
3, 89010, Note_on_c, 0, 64, 0
3, 89010, Note_on_c, 0, 67, 0
3, 89040, Note_on_c, 0, 64, 36
3, 89040, Note_on_c, 0, 67, 43
3, 89130, Note_on_c, 0, 67, 0
3, 89130, Note_on_c, 0, 64, 0
3, 89160, Note_on_c, 0, 64, 34
3, 89160, Note_on_c, 0, 67, 40
3, 89250, Note_on_c, 0, 67, 0
3, 89250, Note_on_c, 0, 64, 0
3, 89280, Note_on_c, 0, 65, 43
3, 89280, Note_on_c, 0, 68, 51
3, 89760, Note_on_c, 0, 68, 0
3, 89760, Note_on_c, 0, 65, 0
3, 89880, Note_on_c, 0, 69, 36
3, 89880, Note_on_c, 0, 72, 43
3, 89970, Note_on_c, 0, 72, 0
3, 89970, Note_on_c, 0, 69, 0
3, 90000, Note_on_c, 0, 69, 38
3, 90000, Note_on_c, 0, 72, 45
3, 90090, Note_on_c, 0, 72, 0
3, 90090, Note_on_c, 0, 69, 0
3, 90120, Note_on_c, 0, 69, 36
3, 90120, Note_on_c, 0, 72, 43
3, 90210, Note_on_c, 0, 72, 0
3, 90210, Note_on_c, 0, 69, 0
3, 90240, Note_on_c, 0, 67, 45
3, 90240, Note_on_c, 0, 71, 54
3, 90360, Note_on_c, 0, 71, 0
3, 90360, Note_on_c, 0, 67, 0
3, 90480, Note_on_c, 0, 68, 50
3, 90600, Note_on_c, 0, 68, 0
3, 90720, Note_on_c, 0, 65, 54
3, 90840, Note_on_c, 0, 65, 0
3, 90960, Note_on_c, 0, 67, 51
3, 91080, Note_on_c, 0, 67, 0
3, 91200, Note_on_c, 0, 60, 57
3, 91680, Note_on_c, 0, 60, 0
3, 91800, Note_on_c, 0, 63, 35
3, 91800, Note_on_c, 0, 66, 41
3, 91920, Note_on_c, 0, 64, 37
3, 91920, Note_on_c, 0, 67, 45
3, 91932, Note_on_c, 0, 66, 0
3, 91932, Note_on_c, 0, 63, 0
3, 92040, Note_on_c, 0, 63, 35
3, 92040, Note_on_c, 0, 66, 41
3, 92052, Note_on_c, 0, 64, 0
3, 92052, Note_on_c, 0, 67, 0
3, 92160, Note_on_c, 0, 63, 0
3, 92160, Note_on_c, 0, 66, 0
3, 92160, Note_on_c, 0, 64, 40
3, 92160, Note_on_c, 0, 67, 47
3, 92760, Note_on_c, 0, 67, 0
3, 92760, Note_on_c, 0, 64, 0
3, 92760, Note_on_c, 0, 64, 36
3, 92760, Note_on_c, 0, 67, 43
3, 92880, Note_on_c, 0, 65, 38
3, 92880, Note_on_c, 0, 68, 45
3, 92892, Note_on_c, 0, 67, 0
3, 92892, Note_on_c, 0, 64, 0
3, 93000, Note_on_c, 0, 64, 35
3, 93000, Note_on_c, 0, 67, 42
3, 93012, Note_on_c, 0, 65, 0
3, 93012, Note_on_c, 0, 68, 0
3, 93120, Note_on_c, 0, 64, 0
3, 93120, Note_on_c, 0, 67, 0
3, 93120, Note_on_c, 0, 65, 40
3, 93120, Note_on_c, 0, 68, 47
3, 93720, Note_on_c, 0, 68, 0
3, 93720, Note_on_c, 0, 65, 0
3, 93720, Note_on_c, 0, 63, 33
3, 93720, Note_on_c, 0, 66, 39
3, 93840, Note_on_c, 0, 62, 36
3, 93840, Note_on_c, 0, 65, 44
3, 93852, Note_on_c, 0, 66, 0
3, 93852, Note_on_c, 0, 63, 0
3, 93960, Note_on_c, 0, 63, 33
3, 93960, Note_on_c, 0, 66, 39
3, 93972, Note_on_c, 0, 62, 0
3, 93972, Note_on_c, 0, 65, 0
3, 94080, Note_on_c, 0, 63, 0
3, 94080, Note_on_c, 0, 66, 0
3, 94080, Note_on_c, 0, 62, 41
3, 94080, Note_on_c, 0, 65, 49
3, 94680, Note_on_c, 0, 65, 0
3, 94680, Note_on_c, 0, 62, 0
3, 94680, Note_on_c, 0, 64, 27
3, 94680, Note_on_c, 0, 67, 33
3, 94800, Note_on_c, 0, 65, 29
3, 94800, Note_on_c, 0, 68, 36
3, 94812, Note_on_c, 0, 67, 0
3, 94812, Note_on_c, 0, 64, 0
3, 94920, Note_on_c, 0, 64, 27
3, 94920, Note_on_c, 0, 67, 33
3, 94932, Note_on_c, 0, 65, 0
3, 94932, Note_on_c, 0, 68, 0
3, 95040, Note_on_c, 0, 64, 0
3, 95040, Note_on_c, 0, 67, 0
3, 95040, Note_on_c, 0, 65, 33
3, 95040, Note_on_c, 0, 68, 39
3, 95520, Note_on_c, 0, 68, 0
3, 95520, Note_on_c, 0, 65, 0
3, 96000, Note_on_c, 0, 62, 32
3, 96000, Note_on_c, 0, 65, 32
3, 96000, Note_on_c, 0, 70, 38
3, 96720, Note_on_c, 0, 70, 0
3, 96720, Note_on_c, 0, 65, 0
3, 96720, Note_on_c, 0, 62, 0
3, 97920, Note_on_c, 0, 39, 27
3, 97920, Note_on_c, 0, 51, 39
3, 98400, Note_on_c, 0, 51, 0
3, 98400, Note_on_c, 0, 39, 0
3, 98640, Note_on_c, 0, 46, 33
3, 98880, Note_on_c, 0, 46, 0
3, 98880, Note_on_c, 0, 51, 39
3, 99360, Note_on_c, 0, 51, 0
3, 99600, Note_on_c, 0, 46, 36
3, 99840, Note_on_c, 0, 46, 0
3, 99840, Note_on_c, 0, 51, 39
3, 100080, Note_on_c, 0, 51, 0
3, 100080, Note_on_c, 0, 48, 34
3, 100320, Note_on_c, 0, 48, 0
3, 100320, Note_on_c, 0, 43, 39
3, 100560, Note_on_c, 0, 43, 0
3, 100560, Note_on_c, 0, 44, 36
3, 100800, Note_on_c, 0, 44, 0
3, 100800, Note_on_c, 0, 46, 39
3, 101520, Note_on_c, 0, 46, 0
3, 101760, Note_on_c, 0, 67, 36
3, 102240, Note_on_c, 0, 67, 0
3, 102240, Note_on_c, 0, 63, 36
3, 102480, Note_on_c, 0, 63, 0
3, 102480, Note_on_c, 0, 58, 34
3, 102720, Note_on_c, 0, 58, 0
3, 102720, Note_on_c, 0, 55, 38
3, 102900, Note_on_c, 0, 55, 0
3, 102960, Note_on_c, 0, 58, 34
3, 103140, Note_on_c, 0, 58, 0
3, 103200, Note_on_c, 0, 63, 36
3, 103380, Note_on_c, 0, 63, 0
3, 103440, Note_on_c, 0, 60, 39
3, 103620, Note_on_c, 0, 60, 0
3, 103680, Note_on_c, 0, 55, 42
3, 103920, Note_on_c, 0, 55, 0
3, 103920, Note_on_c, 0, 65, 36
3, 103920, Note_on_c, 0, 56, 30
3, 104160, Note_on_c, 0, 56, 0
3, 104160, Note_on_c, 0, 65, 0
3, 104160, Note_on_c, 0, 58, 35
3, 104160, Note_on_c, 0, 67, 42
3, 104400, Note_on_c, 0, 67, 0
3, 104400, Note_on_c, 0, 68, 33
3, 104640, Note_on_c, 0, 68, 0
3, 104640, Note_on_c, 0, 58, 0
3, 104640, Note_on_c, 0, 63, 28
3, 104640, Note_on_c, 0, 68, 34
3, 105120, Note_on_c, 0, 68, 0
3, 105120, Note_on_c, 0, 67, 32
3, 105360, Note_on_c, 0, 67, 0
3, 105360, Note_on_c, 0, 63, 0
3, 105600, Note_on_c, 0, 56, 36
3, 105720, Note_on_c, 0, 56, 0
3, 105720, Note_on_c, 0, 63, 31
3, 105840, Note_on_c, 0, 63, 0
3, 105840, Note_on_c, 0, 60, 31
3, 105960, Note_on_c, 0, 60, 0
3, 105960, Note_on_c, 0, 63, 31
3, 106080, Note_on_c, 0, 63, 0
3, 106080, Note_on_c, 0, 58, 36
3, 106200, Note_on_c, 0, 58, 0
3, 106200, Note_on_c, 0, 63, 33
3, 106320, Note_on_c, 0, 63, 0
3, 106320, Note_on_c, 0, 61, 32
3, 106440, Note_on_c, 0, 61, 0
3, 106440, Note_on_c, 0, 63, 32
3, 106560, Note_on_c, 0, 63, 0
3, 106560, Note_on_c, 0, 60, 36
3, 106680, Note_on_c, 0, 60, 0
3, 106680, Note_on_c, 0, 63, 31
3, 106800, Note_on_c, 0, 63, 0
3, 106800, Note_on_c, 0, 56, 36
3, 106920, Note_on_c, 0, 56, 0
3, 106920, Note_on_c, 0, 63, 31
3, 107040, Note_on_c, 0, 63, 0
3, 107040, Note_on_c, 0, 55, 36
3, 107160, Note_on_c, 0, 55, 0
3, 107160, Note_on_c, 0, 63, 32
3, 107280, Note_on_c, 0, 63, 0
3, 107280, Note_on_c, 0, 51, 32
3, 107400, Note_on_c, 0, 51, 0
3, 107400, Note_on_c, 0, 63, 32
3, 107520, Note_on_c, 0, 63, 0
3, 107520, Note_on_c, 0, 55, 43
3, 107640, Note_on_c, 0, 55, 0
3, 107640, Note_on_c, 0, 63, 37
3, 107760, Note_on_c, 0, 63, 0
3, 107760, Note_on_c, 0, 58, 37
3, 107880, Note_on_c, 0, 58, 0
3, 107880, Note_on_c, 0, 63, 37
3, 108000, Note_on_c, 0, 63, 0
3, 108000, Note_on_c, 0, 56, 44
3, 108120, Note_on_c, 0, 56, 0
3, 108120, Note_on_c, 0, 63, 33
3, 108240, Note_on_c, 0, 63, 0
3, 108240, Note_on_c, 0, 60, 36
3, 108360, Note_on_c, 0, 60, 0
3, 108360, Note_on_c, 0, 63, 36
3, 108480, Note_on_c, 0, 63, 0
3, 108480, Note_on_c, 0, 55, 43
3, 108600, Note_on_c, 0, 55, 0
3, 108600, Note_on_c, 0, 63, 38
3, 108720, Note_on_c, 0, 63, 0
3, 108720, Note_on_c, 0, 51, 42
3, 108840, Note_on_c, 0, 51, 0
3, 108840, Note_on_c, 0, 63, 42
3, 108960, Note_on_c, 0, 63, 0
3, 108960, Note_on_c, 0, 56, 48
3, 109080, Note_on_c, 0, 56, 0
3, 109080, Note_on_c, 0, 63, 43
3, 109200, Note_on_c, 0, 63, 0
3, 109200, Note_on_c, 0, 60, 51
3, 109320, Note_on_c, 0, 60, 0
3, 109320, Note_on_c, 0, 63, 43
3, 109440, Note_on_c, 0, 63, 0
3, 109440, Note_on_c, 0, 58, 56
3, 109560, Note_on_c, 0, 58, 0
3, 109560, Note_on_c, 0, 67, 42
3, 109680, Note_on_c, 0, 67, 0
3, 109680, Note_on_c, 0, 64, 51
3, 109800, Note_on_c, 0, 64, 0
3, 109800, Note_on_c, 0, 67, 45
3, 109920, Note_on_c, 0, 67, 0
3, 109920, Note_on_c, 0, 56, 54
3, 110040, Note_on_c, 0, 56, 0
3, 110040, Note_on_c, 0, 65, 44
3, 110160, Note_on_c, 0, 65, 0
3, 110160, Note_on_c, 0, 60, 46
3, 110280, Note_on_c, 0, 60, 0
3, 110280, Note_on_c, 0, 65, 46
3, 110400, Note_on_c, 0, 65, 0
3, 110400, Note_on_c, 0, 56, 55
3, 110520, Note_on_c, 0, 56, 0
3, 110520, Note_on_c, 0, 65, 42
3, 110640, Note_on_c, 0, 65, 0
3, 110640, Note_on_c, 0, 62, 47
3, 110760, Note_on_c, 0, 62, 0
3, 110760, Note_on_c, 0, 65, 42
3, 110880, Note_on_c, 0, 65, 0
3, 110880, Note_on_c, 0, 55, 45
3, 111000, Note_on_c, 0, 55, 0
3, 111000, Note_on_c, 0, 63, 40
3, 111120, Note_on_c, 0, 63, 0
3, 111120, Note_on_c, 0, 58, 45
3, 111240, Note_on_c, 0, 58, 0
3, 111240, Note_on_c, 0, 63, 38
3, 111360, Note_on_c, 0, 63, 0
3, 111360, Note_on_c, 0, 56, 44
3, 111480, Note_on_c, 0, 56, 0
3, 111480, Note_on_c, 0, 65, 38
3, 111600, Note_on_c, 0, 65, 0
3, 111600, Note_on_c, 0, 60, 40
3, 111720, Note_on_c, 0, 60, 0
3, 111720, Note_on_c, 0, 65, 40
3, 111840, Note_on_c, 0, 65, 0
3, 111840, Note_on_c, 0, 58, 40
3, 111960, Note_on_c, 0, 58, 0
3, 111960, Note_on_c, 0, 67, 36
3, 112080, Note_on_c, 0, 67, 0
3, 112080, Note_on_c, 0, 58, 36
3, 112200, Note_on_c, 0, 58, 0
3, 112200, Note_on_c, 0, 68, 36
3, 112290, Note_on_c, 0, 68, 0
3, 112320, Note_on_c, 0, 63, 42
3, 112320, Note_on_c, 0, 67, 42
3, 112800, Note_on_c, 0, 67, 0
3, 112800, Note_on_c, 0, 63, 0
3, 113280, Note_on_c, 0, 56, 36
3, 113400, Note_on_c, 0, 56, 0
3, 113400, Note_on_c, 0, 63, 31
3, 113520, Note_on_c, 0, 63, 0
3, 113520, Note_on_c, 0, 60, 31
3, 113640, Note_on_c, 0, 60, 0
3, 113640, Note_on_c, 0, 63, 31
3, 113760, Note_on_c, 0, 63, 0
3, 113760, Note_on_c, 0, 58, 36
3, 113880, Note_on_c, 0, 58, 0
3, 113880, Note_on_c, 0, 63, 33
3, 114000, Note_on_c, 0, 63, 0
3, 114000, Note_on_c, 0, 61, 32
3, 114120, Note_on_c, 0, 61, 0
3, 114120, Note_on_c, 0, 63, 32
3, 114240, Note_on_c, 0, 63, 0
3, 114240, Note_on_c, 0, 60, 36
3, 114360, Note_on_c, 0, 60, 0
3, 114360, Note_on_c, 0, 63, 31
3, 114480, Note_on_c, 0, 63, 0
3, 114480, Note_on_c, 0, 56, 36
3, 114600, Note_on_c, 0, 56, 0
3, 114600, Note_on_c, 0, 63, 31
3, 114720, Note_on_c, 0, 63, 0
3, 114720, Note_on_c, 0, 55, 36
3, 114840, Note_on_c, 0, 55, 0
3, 114840, Note_on_c, 0, 63, 32
3, 114960, Note_on_c, 0, 63, 0
3, 114960, Note_on_c, 0, 51, 32
3, 115080, Note_on_c, 0, 51, 0
3, 115080, Note_on_c, 0, 63, 32
3, 115200, Note_on_c, 0, 63, 0
3, 115200, Note_on_c, 0, 55, 43
3, 115320, Note_on_c, 0, 55, 0
3, 115320, Note_on_c, 0, 63, 37
3, 115440, Note_on_c, 0, 63, 0
3, 115440, Note_on_c, 0, 58, 37
3, 115560, Note_on_c, 0, 58, 0
3, 115560, Note_on_c, 0, 63, 37
3, 115680, Note_on_c, 0, 63, 0
3, 115680, Note_on_c, 0, 56, 44
3, 115800, Note_on_c, 0, 56, 0
3, 115800, Note_on_c, 0, 63, 33
3, 115920, Note_on_c, 0, 63, 0
3, 115920, Note_on_c, 0, 60, 36
3, 116040, Note_on_c, 0, 60, 0
3, 116040, Note_on_c, 0, 63, 36
3, 116160, Note_on_c, 0, 63, 0
3, 116160, Note_on_c, 0, 55, 43
3, 116280, Note_on_c, 0, 55, 0
3, 116280, Note_on_c, 0, 63, 38
3, 116400, Note_on_c, 0, 63, 0
3, 116400, Note_on_c, 0, 51, 42
3, 116520, Note_on_c, 0, 51, 0
3, 116520, Note_on_c, 0, 63, 42
3, 116640, Note_on_c, 0, 63, 0
3, 116640, Note_on_c, 0, 56, 48
3, 116760, Note_on_c, 0, 56, 0
3, 116760, Note_on_c, 0, 63, 43
3, 116880, Note_on_c, 0, 63, 0
3, 116880, Note_on_c, 0, 60, 51
3, 117000, Note_on_c, 0, 60, 0
3, 117000, Note_on_c, 0, 63, 43
3, 117120, Note_on_c, 0, 63, 0
3, 117120, Note_on_c, 0, 58, 56
3, 117240, Note_on_c, 0, 58, 0
3, 117240, Note_on_c, 0, 67, 42
3, 117360, Note_on_c, 0, 67, 0
3, 117360, Note_on_c, 0, 64, 51
3, 117480, Note_on_c, 0, 64, 0
3, 117480, Note_on_c, 0, 67, 45
3, 117600, Note_on_c, 0, 67, 0
3, 117600, Note_on_c, 0, 56, 54
3, 117720, Note_on_c, 0, 56, 0
3, 117720, Note_on_c, 0, 65, 44
3, 117840, Note_on_c, 0, 65, 0
3, 117840, Note_on_c, 0, 60, 46
3, 117960, Note_on_c, 0, 60, 0
3, 117960, Note_on_c, 0, 65, 46
3, 118080, Note_on_c, 0, 65, 0
3, 118080, Note_on_c, 0, 56, 55
3, 118200, Note_on_c, 0, 56, 0
3, 118200, Note_on_c, 0, 65, 42
3, 118320, Note_on_c, 0, 65, 0
3, 118320, Note_on_c, 0, 62, 47
3, 118440, Note_on_c, 0, 62, 0
3, 118440, Note_on_c, 0, 65, 42
3, 118560, Note_on_c, 0, 65, 0
3, 118560, Note_on_c, 0, 55, 45
3, 118680, Note_on_c, 0, 55, 0
3, 118680, Note_on_c, 0, 63, 40
3, 118800, Note_on_c, 0, 63, 0
3, 118800, Note_on_c, 0, 58, 45
3, 118920, Note_on_c, 0, 58, 0
3, 118920, Note_on_c, 0, 63, 38
3, 119040, Note_on_c, 0, 63, 0
3, 119040, Note_on_c, 0, 56, 44
3, 119160, Note_on_c, 0, 56, 0
3, 119160, Note_on_c, 0, 65, 38
3, 119280, Note_on_c, 0, 65, 0
3, 119280, Note_on_c, 0, 60, 40
3, 119400, Note_on_c, 0, 60, 0
3, 119400, Note_on_c, 0, 65, 40
3, 119520, Note_on_c, 0, 65, 0
3, 119520, Note_on_c, 0, 58, 40
3, 119640, Note_on_c, 0, 58, 0
3, 119640, Note_on_c, 0, 67, 36
3, 119760, Note_on_c, 0, 67, 0
3, 119760, Note_on_c, 0, 58, 36
3, 119880, Note_on_c, 0, 58, 0
3, 119880, Note_on_c, 0, 68, 36
3, 119970, Note_on_c, 0, 68, 0
3, 120000, Note_on_c, 0, 63, 42
3, 120000, Note_on_c, 0, 67, 42
3, 120480, Note_on_c, 0, 67, 0
3, 120480, Note_on_c, 0, 63, 0
3, 120960, Note_on_c, 0, 63, 36
3, 121080, Note_on_c, 0, 63, 0
3, 121080, Note_on_c, 0, 66, 31
3, 121200, Note_on_c, 0, 66, 0
3, 121200, Note_on_c, 0, 63, 31
3, 121320, Note_on_c, 0, 63, 0
3, 121320, Note_on_c, 0, 66, 31
3, 121440, Note_on_c, 0, 66, 0
3, 121440, Note_on_c, 0, 63, 39
3, 121560, Note_on_c, 0, 65, 33
3, 121572, Note_on_c, 0, 63, 0
3, 121680, Note_on_c, 0, 63, 36
3, 121692, Note_on_c, 0, 65, 0
3, 121800, Note_on_c, 0, 65, 32
3, 121812, Note_on_c, 0, 63, 0
3, 121920, Note_on_c, 0, 65, 0
3, 121920, Note_on_c, 0, 62, 39
3, 122040, Note_on_c, 0, 62, 0
3, 122040, Note_on_c, 0, 65, 31
3, 122160, Note_on_c, 0, 65, 0
3, 122160, Note_on_c, 0, 62, 31
3, 122280, Note_on_c, 0, 62, 0
3, 122280, Note_on_c, 0, 65, 31
3, 122400, Note_on_c, 0, 65, 0
3, 122400, Note_on_c, 0, 61, 36
3, 122520, Note_on_c, 0, 65, 33
3, 122532, Note_on_c, 0, 61, 0
3, 122640, Note_on_c, 0, 61, 32
3, 122652, Note_on_c, 0, 65, 0
3, 122760, Note_on_c, 0, 65, 32
3, 122772, Note_on_c, 0, 61, 0
3, 122880, Note_on_c, 0, 65, 0
3, 122880, Note_on_c, 0, 60, 36
3, 123000, Note_on_c, 0, 60, 0
3, 123000, Note_on_c, 0, 63, 31
3, 123120, Note_on_c, 0, 63, 0
3, 123120, Note_on_c, 0, 60, 31
3, 123240, Note_on_c, 0, 60, 0
3, 123240, Note_on_c, 0, 63, 31
3, 123360, Note_on_c, 0, 63, 0
3, 123360, Note_on_c, 0, 61, 36
3, 123600, Note_on_c, 0, 61, 0
3, 123600, Note_on_c, 0, 58, 33
3, 123840, Note_on_c, 0, 58, 0
3, 123840, Note_on_c, 0, 63, 41
3, 123960, Note_on_c, 0, 63, 0
3, 123960, Note_on_c, 0, 62, 36
3, 124080, Note_on_c, 0, 62, 0
3, 124080, Note_on_c, 0, 63, 36
3, 124200, Note_on_c, 0, 63, 0
3, 124200, Note_on_c, 0, 62, 36
3, 124320, Note_on_c, 0, 62, 0
3, 124320, Note_on_c, 0, 63, 40
3, 124440, Note_on_c, 0, 63, 0
3, 124440, Note_on_c, 0, 58, 36
3, 124560, Note_on_c, 0, 58, 0
3, 124560, Note_on_c, 0, 55, 36
3, 124680, Note_on_c, 0, 55, 0
3, 124680, Note_on_c, 0, 51, 36
3, 124800, Note_on_c, 0, 51, 0
3, 124800, Note_on_c, 0, 53, 36
3, 124920, Note_on_c, 0, 53, 0
3, 124920, Note_on_c, 0, 60, 31
3, 125040, Note_on_c, 0, 60, 0
3, 125040, Note_on_c, 0, 56, 31
3, 125160, Note_on_c, 0, 56, 0
3, 125160, Note_on_c, 0, 60, 31
3, 125280, Note_on_c, 0, 60, 0
3, 125280, Note_on_c, 0, 56, 39
3, 125400, Note_on_c, 0, 65, 33
3, 125412, Note_on_c, 0, 56, 0
3, 125520, Note_on_c, 0, 58, 36
3, 125532, Note_on_c, 0, 65, 0
3, 125640, Note_on_c, 0, 65, 32
3, 125652, Note_on_c, 0, 58, 0
3, 125760, Note_on_c, 0, 65, 0
3, 125760, Note_on_c, 0, 55, 43
3, 125880, Note_on_c, 0, 55, 0
3, 125880, Note_on_c, 0, 63, 36
3, 126000, Note_on_c, 0, 63, 0
3, 126000, Note_on_c, 0, 58, 40
3, 126120, Note_on_c, 0, 58, 0
3, 126126, Note_on_c, 0, 63, 36
3, 126240, Note_on_c, 0, 61, 41
3, 126246, Note_on_c, 0, 63, 0
3, 126360, Note_on_c, 0, 70, 33
3, 126372, Note_on_c, 0, 61, 0
3, 126480, Note_on_c, 0, 63, 36
3, 126492, Note_on_c, 0, 70, 0
3, 126600, Note_on_c, 0, 70, 32
3, 126612, Note_on_c, 0, 63, 0
3, 126720, Note_on_c, 0, 70, 0
3, 126720, Note_on_c, 0, 60, 39
3, 126720, Note_on_c, 0, 68, 39
3, 126960, Note_on_c, 0, 68, 0
3, 126960, Note_on_c, 0, 60, 0
3, 126960, Note_on_c, 0, 61, 36
3, 126960, Note_on_c, 0, 65, 36
3, 127200, Note_on_c, 0, 65, 0
3, 127200, Note_on_c, 0, 61, 0
3, 127200, Note_on_c, 0, 51, 39
3, 127200, Note_on_c, 0, 60, 39
3, 127440, Note_on_c, 0, 60, 0
3, 127440, Note_on_c, 0, 51, 0
3, 127440, Note_on_c, 0, 51, 36
3, 127440, Note_on_c, 0, 58, 36
3, 127680, Note_on_c, 0, 58, 0
3, 127680, Note_on_c, 0, 51, 0
3, 127680, Note_on_c, 0, 56, 39
3, 127680, Note_on_c, 0, 61, 39
3, 128160, Note_on_c, 0, 61, 0
3, 128160, Note_on_c, 0, 60, 36
3, 128400, Note_on_c, 0, 60, 0
3, 128400, Note_on_c, 0, 56, 0
3, 128640, Note_on_c, 0, 63, 36
3, 128760, Note_on_c, 0, 63, 0
3, 128760, Note_on_c, 0, 66, 31
3, 128880, Note_on_c, 0, 66, 0
3, 128880, Note_on_c, 0, 63, 31
3, 129000, Note_on_c, 0, 63, 0
3, 129000, Note_on_c, 0, 66, 31
3, 129120, Note_on_c, 0, 66, 0
3, 129120, Note_on_c, 0, 63, 39
3, 129240, Note_on_c, 0, 65, 33
3, 129252, Note_on_c, 0, 63, 0
3, 129360, Note_on_c, 0, 63, 36
3, 129372, Note_on_c, 0, 65, 0
3, 129480, Note_on_c, 0, 65, 32
3, 129492, Note_on_c, 0, 63, 0
3, 129600, Note_on_c, 0, 65, 0
3, 129600, Note_on_c, 0, 62, 39
3, 129720, Note_on_c, 0, 62, 0
3, 129720, Note_on_c, 0, 65, 31
3, 129840, Note_on_c, 0, 65, 0
3, 129840, Note_on_c, 0, 62, 31
3, 129960, Note_on_c, 0, 62, 0
3, 129960, Note_on_c, 0, 65, 31
3, 130080, Note_on_c, 0, 65, 0
3, 130080, Note_on_c, 0, 61, 36
3, 130200, Note_on_c, 0, 65, 33
3, 130212, Note_on_c, 0, 61, 0
3, 130320, Note_on_c, 0, 61, 32
3, 130332, Note_on_c, 0, 65, 0
3, 130440, Note_on_c, 0, 65, 32
3, 130452, Note_on_c, 0, 61, 0
3, 130560, Note_on_c, 0, 65, 0
3, 130560, Note_on_c, 0, 60, 36
3, 130680, Note_on_c, 0, 60, 0
3, 130680, Note_on_c, 0, 63, 31
3, 130800, Note_on_c, 0, 63, 0
3, 130800, Note_on_c, 0, 60, 31
3, 130920, Note_on_c, 0, 60, 0
3, 130920, Note_on_c, 0, 63, 31
3, 131040, Note_on_c, 0, 63, 0
3, 131040, Note_on_c, 0, 61, 36
3, 131280, Note_on_c, 0, 61, 0
3, 131280, Note_on_c, 0, 58, 33
3, 131520, Note_on_c, 0, 58, 0
3, 131520, Note_on_c, 0, 63, 41
3, 131640, Note_on_c, 0, 63, 0
3, 131640, Note_on_c, 0, 62, 36
3, 131760, Note_on_c, 0, 62, 0
3, 131760, Note_on_c, 0, 63, 36
3, 131880, Note_on_c, 0, 63, 0
3, 131880, Note_on_c, 0, 62, 36
3, 132000, Note_on_c, 0, 62, 0
3, 132000, Note_on_c, 0, 63, 40
3, 132120, Note_on_c, 0, 63, 0
3, 132120, Note_on_c, 0, 58, 36
3, 132240, Note_on_c, 0, 58, 0
3, 132240, Note_on_c, 0, 55, 36
3, 132360, Note_on_c, 0, 55, 0
3, 132360, Note_on_c, 0, 51, 36
3, 132480, Note_on_c, 0, 51, 0
3, 132480, Note_on_c, 0, 53, 36
3, 132600, Note_on_c, 0, 53, 0
3, 132600, Note_on_c, 0, 60, 31
3, 132720, Note_on_c, 0, 60, 0
3, 132720, Note_on_c, 0, 56, 31
3, 132840, Note_on_c, 0, 56, 0
3, 132840, Note_on_c, 0, 60, 31
3, 132960, Note_on_c, 0, 60, 0
3, 132960, Note_on_c, 0, 56, 39
3, 133080, Note_on_c, 0, 65, 33
3, 133092, Note_on_c, 0, 56, 0
3, 133200, Note_on_c, 0, 58, 36
3, 133212, Note_on_c, 0, 65, 0
3, 133320, Note_on_c, 0, 65, 32
3, 133332, Note_on_c, 0, 58, 0
3, 133440, Note_on_c, 0, 65, 0
3, 133440, Note_on_c, 0, 55, 43
3, 133560, Note_on_c, 0, 55, 0
3, 133560, Note_on_c, 0, 63, 31
3, 133680, Note_on_c, 0, 63, 0
3, 133680, Note_on_c, 0, 58, 36
3, 133800, Note_on_c, 0, 58, 0
3, 133806, Note_on_c, 0, 63, 31
3, 133920, Note_on_c, 0, 61, 39
3, 133926, Note_on_c, 0, 63, 0
3, 134040, Note_on_c, 0, 70, 33
3, 134052, Note_on_c, 0, 61, 0
3, 134160, Note_on_c, 0, 63, 32
3, 134172, Note_on_c, 0, 70, 0
3, 134280, Note_on_c, 0, 70, 32
3, 134292, Note_on_c, 0, 63, 0
3, 134400, Note_on_c, 0, 70, 0
3, 134400, Note_on_c, 0, 60, 39
3, 134400, Note_on_c, 0, 68, 39
3, 134640, Note_on_c, 0, 68, 0
3, 134640, Note_on_c, 0, 60, 0
3, 134640, Note_on_c, 0, 61, 36
3, 134640, Note_on_c, 0, 65, 36
3, 134880, Note_on_c, 0, 65, 0
3, 134880, Note_on_c, 0, 61, 0
3, 134880, Note_on_c, 0, 51, 39
3, 134880, Note_on_c, 0, 60, 39
3, 135120, Note_on_c, 0, 60, 0
3, 135120, Note_on_c, 0, 51, 0
3, 135120, Note_on_c, 0, 51, 36
3, 135120, Note_on_c, 0, 58, 36
3, 135360, Note_on_c, 0, 58, 0
3, 135360, Note_on_c, 0, 51, 0
3, 135360, Note_on_c, 0, 56, 39
3, 135360, Note_on_c, 0, 61, 39
3, 135840, Note_on_c, 0, 61, 0
3, 135840, Note_on_c, 0, 60, 36
3, 136080, Note_on_c, 0, 60, 0
3, 136080, Note_on_c, 0, 56, 0
3, 136320, Note_on_c, 0, 64, 39
3, 136320, Note_on_c, 0, 67, 39
3, 136680, Note_on_c, 0, 67, 0
3, 136680, Note_on_c, 0, 64, 0
3, 136800, Note_on_c, 0, 65, 39
3, 136800, Note_on_c, 0, 68, 39
3, 137040, Note_on_c, 0, 68, 0
3, 137040, Note_on_c, 0, 65, 0
3, 137280, Note_on_c, 0, 62, 39
3, 137280, Note_on_c, 0, 65, 39
3, 137640, Note_on_c, 0, 65, 0
3, 137640, Note_on_c, 0, 62, 0
3, 137760, Note_on_c, 0, 63, 39
3, 137760, Note_on_c, 0, 67, 39
3, 138000, Note_on_c, 0, 67, 0
3, 138000, Note_on_c, 0, 63, 0
3, 138240, Note_on_c, 0, 60, 39
3, 138240, Note_on_c, 0, 63, 39
3, 139200, Note_on_c, 0, 63, 0
3, 139200, Note_on_c, 0, 60, 0
3, 139320, Note_on_c, 0, 58, 50
3, 139440, Note_on_c, 0, 62, 53
3, 139560, Note_on_c, 0, 62, 0
3, 139560, Note_on_c, 0, 65, 55
3, 139680, Note_on_c, 0, 65, 0
3, 139680, Note_on_c, 0, 58, 0
3, 139680, Note_on_c, 0, 66, 58
3, 139920, Note_on_c, 0, 66, 0
3, 139920, Note_on_c, 0, 63, 54
3, 140160, Note_on_c, 0, 63, 0
3, 140280, Note_on_c, 0, 58, 54
3, 140400, Note_on_c, 0, 62, 58
3, 140520, Note_on_c, 0, 62, 0
3, 140520, Note_on_c, 0, 65, 61
3, 140640, Note_on_c, 0, 65, 0
3, 140640, Note_on_c, 0, 58, 0
3, 140640, Note_on_c, 0, 66, 63
3, 140880, Note_on_c, 0, 66, 0
3, 140880, Note_on_c, 0, 63, 54
3, 141120, Note_on_c, 0, 63, 0
3, 141240, Note_on_c, 0, 58, 47
3, 141360, Note_on_c, 0, 62, 49
3, 141480, Note_on_c, 0, 62, 0
3, 141480, Note_on_c, 0, 65, 51
3, 141600, Note_on_c, 0, 65, 0
3, 141600, Note_on_c, 0, 68, 56
3, 143760, Note_on_c, 0, 68, 0
3, 143760, Note_on_c, 0, 58, 0
3, 144000, Note_on_c, 0, 39, 27
3, 144000, Note_on_c, 0, 51, 39
3, 144480, Note_on_c, 0, 51, 0
3, 144480, Note_on_c, 0, 39, 0
3, 144720, Note_on_c, 0, 46, 33
3, 144960, Note_on_c, 0, 46, 0
3, 144960, Note_on_c, 0, 51, 39
3, 145440, Note_on_c, 0, 51, 0
3, 145680, Note_on_c, 0, 46, 36
3, 145920, Note_on_c, 0, 46, 0
3, 145920, Note_on_c, 0, 51, 39
3, 146160, Note_on_c, 0, 51, 0
3, 146160, Note_on_c, 0, 48, 34
3, 146400, Note_on_c, 0, 48, 0
3, 146400, Note_on_c, 0, 43, 39
3, 146640, Note_on_c, 0, 43, 0
3, 146640, Note_on_c, 0, 44, 36
3, 146880, Note_on_c, 0, 44, 0
3, 146880, Note_on_c, 0, 46, 39
3, 147600, Note_on_c, 0, 46, 0
3, 147840, Note_on_c, 0, 67, 36
3, 148320, Note_on_c, 0, 67, 0
3, 148320, Note_on_c, 0, 63, 36
3, 148560, Note_on_c, 0, 63, 0
3, 148560, Note_on_c, 0, 58, 34
3, 148800, Note_on_c, 0, 58, 0
3, 148800, Note_on_c, 0, 55, 38
3, 148980, Note_on_c, 0, 55, 0
3, 149040, Note_on_c, 0, 58, 34
3, 149220, Note_on_c, 0, 58, 0
3, 149280, Note_on_c, 0, 63, 36
3, 149460, Note_on_c, 0, 63, 0
3, 149520, Note_on_c, 0, 60, 39
3, 149700, Note_on_c, 0, 60, 0
3, 149760, Note_on_c, 0, 55, 42
3, 150000, Note_on_c, 0, 55, 0
3, 150000, Note_on_c, 0, 65, 36
3, 150000, Note_on_c, 0, 56, 30
3, 150240, Note_on_c, 0, 56, 0
3, 150240, Note_on_c, 0, 65, 0
3, 150240, Note_on_c, 0, 58, 35
3, 150240, Note_on_c, 0, 67, 42
3, 150480, Note_on_c, 0, 67, 0
3, 150480, Note_on_c, 0, 68, 33
3, 150720, Note_on_c, 0, 68, 0
3, 150720, Note_on_c, 0, 58, 0
3, 150720, Note_on_c, 0, 63, 28
3, 150720, Note_on_c, 0, 68, 34
3, 151200, Note_on_c, 0, 68, 0
3, 151200, Note_on_c, 0, 67, 32
3, 151440, Note_on_c, 0, 67, 0
3, 151440, Note_on_c, 0, 63, 0
3, 151680, Note_on_c, 0, 51, 36
3, 151800, Note_on_c, 0, 51, 0
3, 151800, Note_on_c, 0, 60, 31
3, 151920, Note_on_c, 0, 60, 0
3, 151920, Note_on_c, 0, 56, 31
3, 152040, Note_on_c, 0, 56, 0
3, 152040, Note_on_c, 0, 60, 31
3, 152160, Note_on_c, 0, 60, 0
3, 152160, Note_on_c, 0, 51, 36
3, 152280, Note_on_c, 0, 51, 0
3, 152280, Note_on_c, 0, 60, 33
3, 152400, Note_on_c, 0, 60, 0
3, 152400, Note_on_c, 0, 56, 32
3, 152520, Note_on_c, 0, 56, 0
3, 152520, Note_on_c, 0, 60, 32
3, 152640, Note_on_c, 0, 60, 0
3, 152640, Note_on_c, 0, 51, 36
3, 152760, Note_on_c, 0, 51, 0
3, 152760, Note_on_c, 0, 58, 27
3, 152880, Note_on_c, 0, 58, 0
3, 152880, Note_on_c, 0, 55, 31
3, 153000, Note_on_c, 0, 55, 0
3, 153000, Note_on_c, 0, 58, 26
3, 153120, Note_on_c, 0, 58, 0
3, 153120, Note_on_c, 0, 51, 36
3, 153240, Note_on_c, 0, 51, 0
3, 153240, Note_on_c, 0, 58, 28
3, 153360, Note_on_c, 0, 58, 0
3, 153360, Note_on_c, 0, 55, 32
3, 153480, Note_on_c, 0, 55, 0
3, 153480, Note_on_c, 0, 58, 30
3, 153600, Note_on_c, 0, 58, 0
3, 153600, Note_on_c, 0, 51, 36
3, 153720, Note_on_c, 0, 51, 0
3, 153720, Note_on_c, 0, 60, 31
3, 153840, Note_on_c, 0, 60, 0
3, 153840, Note_on_c, 0, 56, 31
3, 153960, Note_on_c, 0, 56, 0
3, 153960, Note_on_c, 0, 60, 31
3, 154080, Note_on_c, 0, 60, 0
3, 154080, Note_on_c, 0, 51, 36
3, 154200, Note_on_c, 0, 51, 0
3, 154200, Note_on_c, 0, 60, 29
3, 154320, Note_on_c, 0, 60, 0
3, 154320, Note_on_c, 0, 56, 32
3, 154440, Note_on_c, 0, 56, 0
3, 154440, Note_on_c, 0, 60, 30
3, 154560, Note_on_c, 0, 60, 0
3, 154560, Note_on_c, 0, 51, 36
3, 154680, Note_on_c, 0, 51, 0
3, 154680, Note_on_c, 0, 58, 31
3, 154800, Note_on_c, 0, 58, 0
3, 154800, Note_on_c, 0, 55, 36
3, 154920, Note_on_c, 0, 55, 0
3, 154920, Note_on_c, 0, 58, 31
3, 155040, Note_on_c, 0, 58, 0
3, 155040, Note_on_c, 0, 51, 36
3, 155160, Note_on_c, 0, 51, 0
3, 155160, Note_on_c, 0, 58, 30
3, 155280, Note_on_c, 0, 58, 0
3, 155280, Note_on_c, 0, 55, 32
3, 155400, Note_on_c, 0, 55, 0
3, 155400, Note_on_c, 0, 58, 30
3, 155520, Note_on_c, 0, 58, 0
3, 155520, Note_on_c, 0, 60, 42
3, 156000, Note_on_c, 0, 60, 0
3, 156120, Note_on_c, 0, 62, 32
3, 156120, Note_on_c, 0, 70, 32
3, 156210, Note_on_c, 0, 70, 0
3, 156210, Note_on_c, 0, 62, 0
3, 156240, Note_on_c, 0, 62, 36
3, 156240, Note_on_c, 0, 70, 36
3, 156330, Note_on_c, 0, 70, 0
3, 156330, Note_on_c, 0, 62, 0
3, 156360, Note_on_c, 0, 62, 32
3, 156360, Note_on_c, 0, 70, 32
3, 156450, Note_on_c, 0, 70, 0
3, 156450, Note_on_c, 0, 62, 0
3, 156480, Note_on_c, 0, 63, 37
3, 156480, Note_on_c, 0, 70, 37
3, 156960, Note_on_c, 0, 70, 0
3, 156960, Note_on_c, 0, 63, 0
3, 157080, Note_on_c, 0, 67, 32
3, 157080, Note_on_c, 0, 70, 32
3, 157170, Note_on_c, 0, 70, 0
3, 157170, Note_on_c, 0, 67, 0
3, 157200, Note_on_c, 0, 67, 36
3, 157200, Note_on_c, 0, 70, 36
3, 157290, Note_on_c, 0, 70, 0
3, 157290, Note_on_c, 0, 67, 0
3, 157320, Note_on_c, 0, 67, 32
3, 157320, Note_on_c, 0, 70, 32
3, 157410, Note_on_c, 0, 70, 0
3, 157410, Note_on_c, 0, 67, 0
3, 157440, Note_on_c, 0, 68, 37
3, 157440, Note_on_c, 0, 72, 37
3, 157920, Note_on_c, 0, 72, 0
3, 157920, Note_on_c, 0, 68, 0
3, 158160, Note_on_c, 0, 58, 36
3, 158160, Note_on_c, 0, 68, 36
3, 158400, Note_on_c, 0, 68, 0
3, 158400, Note_on_c, 0, 58, 0
3, 158400, Note_on_c, 0, 59, 38
3, 158400, Note_on_c, 0, 68, 38
3, 158880, Note_on_c, 0, 68, 0
3, 158880, Note_on_c, 0, 59, 0
3, 158880, Note_on_c, 0, 60, 36
3, 158880, Note_on_c, 0, 67, 36
3, 159120, Note_on_c, 0, 67, 0
3, 159120, Note_on_c, 0, 60, 0
3, 159360, Note_on_c, 0, 53, 38
3, 159480, Note_on_c, 0, 53, 0
3, 159480, Note_on_c, 0, 60, 31
3, 159600, Note_on_c, 0, 60, 0
3, 159600, Note_on_c, 0, 57, 36
3, 159720, Note_on_c, 0, 57, 0
3, 159720, Note_on_c, 0, 60, 31
3, 159840, Note_on_c, 0, 60, 0
3, 159840, Note_on_c, 0, 51, 38
3, 159960, Note_on_c, 0, 51, 0
3, 159960, Note_on_c, 0, 60, 33
3, 160080, Note_on_c, 0, 60, 0
3, 160080, Note_on_c, 0, 53, 36
3, 160200, Note_on_c, 0, 53, 0
3, 160200, Note_on_c, 0, 60, 32
3, 160320, Note_on_c, 0, 60, 0
3, 160320, Note_on_c, 0, 50, 40
3, 160440, Note_on_c, 0, 50, 0
3, 160440, Note_on_c, 0, 58, 31
3, 160560, Note_on_c, 0, 58, 0
3, 160566, Note_on_c, 0, 53, 36
3, 160680, Note_on_c, 0, 58, 31
3, 160686, Note_on_c, 0, 53, 0
3, 160800, Note_on_c, 0, 58, 0
3, 160800, Note_on_c, 0, 56, 40
3, 160920, Note_on_c, 0, 56, 0
3, 160920, Note_on_c, 0, 65, 33
3, 161040, Note_on_c, 0, 65, 0
3, 161040, Note_on_c, 0, 58, 36
3, 161160, Note_on_c, 0, 58, 0
3, 161160, Note_on_c, 0, 65, 32
3, 161280, Note_on_c, 0, 65, 0
3, 161280, Note_on_c, 0, 63, 36
3, 161280, Note_on_c, 0, 55, 30
3, 161520, Note_on_c, 0, 55, 0
3, 161520, Note_on_c, 0, 63, 0
3, 161520, Note_on_c, 0, 60, 32
3, 161520, Note_on_c, 0, 56, 27
3, 161760, Note_on_c, 0, 56, 0
3, 161760, Note_on_c, 0, 60, 0
3, 161760, Note_on_c, 0, 46, 30
3, 161760, Note_on_c, 0, 55, 36
3, 162000, Note_on_c, 0, 55, 0
3, 162000, Note_on_c, 0, 46, 0
3, 162000, Note_on_c, 0, 46, 27
3, 162007, Note_on_c, 0, 53, 32
3, 162240, Note_on_c, 0, 46, 0
3, 162240, Note_on_c, 0, 51, 40
3, 162247, Note_on_c, 0, 53, 0
3, 162360, Note_on_c, 0, 51, 0
3, 162360, Note_on_c, 0, 55, 36
3, 162480, Note_on_c, 0, 55, 0
3, 162480, Note_on_c, 0, 58, 39
3, 162540, Note_on_c, 0, 58, 0
3, 162600, Note_on_c, 0, 58, 36
3, 162660, Note_on_c, 0, 58, 0
3, 162727, Note_on_c, 0, 58, 40
3, 162967, Note_on_c, 0, 58, 0
3, 163200, Note_on_c, 0, 63, 37
3, 163320, Note_on_c, 0, 63, 0
3, 163320, Note_on_c, 0, 67, 33
3, 163440, Note_on_c, 0, 67, 0
3, 163440, Note_on_c, 0, 70, 37
3, 163500, Note_on_c, 0, 70, 0
3, 163560, Note_on_c, 0, 70, 33
3, 163620, Note_on_c, 0, 70, 0
3, 163687, Note_on_c, 0, 70, 38
3, 163927, Note_on_c, 0, 70, 0
3, 164160, Note_on_c, 0, 39, 36
3, 164280, Note_on_c, 0, 39, 0
3, 164280, Note_on_c, 0, 43, 31
3, 164400, Note_on_c, 0, 43, 0
3, 164400, Note_on_c, 0, 46, 36
3, 164460, Note_on_c, 0, 46, 0
3, 164520, Note_on_c, 0, 46, 33
3, 164580, Note_on_c, 0, 46, 0
3, 164647, Note_on_c, 0, 46, 37
3, 164887, Note_on_c, 0, 46, 0
3, 165120, Note_on_c, 0, 34, 25
3, 165120, Note_on_c, 0, 46, 30
3, 166080, Note_on_c, 0, 46, 0
3, 166080, Note_on_c, 0, 34, 0
3, 166080, Note_on_c, 0, 39, 27
3, 166320, Note_on_c, 0, 39, 0
3, 166320, End_track
4, 0, Start_track
4, 0, Title_t, "Pedale"
4, 0, Program_c, 0, 0
4, 0, Control_c, 0, 64, 127
4, 728, Control_c, 0, 64, 0
4, 819, Control_c, 0, 64, 127
4, 970, Control_c, 0, 64, 0
4, 1214, Control_c, 0, 64, 127
4, 1683, Control_c, 0, 64, 0
4, 1779, Control_c, 0, 64, 127
4, 1928, Control_c, 0, 64, 0
4, 1983, Control_c, 0, 64, 127
4, 2169, Control_c, 0, 64, 0
4, 2229, Control_c, 0, 64, 127
4, 2408, Control_c, 0, 64, 0
4, 2463, Control_c, 0, 64, 127
4, 2649, Control_c, 0, 64, 0
4, 2715, Control_c, 0, 64, 127
4, 2880, Control_c, 0, 64, 0
4, 2949, Control_c, 0, 64, 127
4, 3370, Control_c, 0, 64, 0
4, 3893, Control_c, 0, 64, 127
4, 4567, Control_c, 0, 64, 0
4, 4610, Control_c, 0, 64, 127
4, 4807, Control_c, 0, 64, 0
4, 5812, Control_c, 0, 64, 127
4, 6003, Control_c, 0, 64, 0
4, 6335, Control_c, 0, 64, 127
4, 6489, Control_c, 0, 64, 0
4, 6766, Control_c, 0, 64, 127
4, 7208, Control_c, 0, 64, 0
4, 7680, Control_c, 0, 64, 127
4, 8408, Control_c, 0, 64, 0
4, 8499, Control_c, 0, 64, 127
4, 8650, Control_c, 0, 64, 0
4, 8894, Control_c, 0, 64, 127
4, 9363, Control_c, 0, 64, 0
4, 9459, Control_c, 0, 64, 127
4, 9608, Control_c, 0, 64, 0
4, 9663, Control_c, 0, 64, 127
4, 9849, Control_c, 0, 64, 0
4, 9909, Control_c, 0, 64, 127
4, 10088, Control_c, 0, 64, 0
4, 10143, Control_c, 0, 64, 127
4, 10329, Control_c, 0, 64, 0
4, 10395, Control_c, 0, 64, 127
4, 10560, Control_c, 0, 64, 0
4, 10629, Control_c, 0, 64, 127
4, 11050, Control_c, 0, 64, 0
4, 11573, Control_c, 0, 64, 127
4, 12247, Control_c, 0, 64, 0
4, 12290, Control_c, 0, 64, 127
4, 12487, Control_c, 0, 64, 0
4, 13492, Control_c, 0, 64, 127
4, 13683, Control_c, 0, 64, 0
4, 14015, Control_c, 0, 64, 127
4, 14169, Control_c, 0, 64, 0
4, 14446, Control_c, 0, 64, 127
4, 14888, Control_c, 0, 64, 0
4, 15366, Control_c, 0, 64, 127
4, 15853, Control_c, 0, 64, 0
4, 15932, Control_c, 0, 64, 127
4, 16349, Control_c, 0, 64, 0
4, 16412, Control_c, 0, 64, 127
4, 16812, Control_c, 0, 64, 0
4, 19200, Control_c, 0, 64, 127
4, 19691, Control_c, 0, 64, 0
4, 19795, Control_c, 0, 64, 127
4, 20172, Control_c, 0, 64, 0
4, 20309, Control_c, 0, 64, 127
4, 20650, Control_c, 0, 64, 0
4, 20846, Control_c, 0, 64, 127
4, 21120, Control_c, 0, 64, 0
4, 21170, Control_c, 0, 64, 127
4, 21609, Control_c, 0, 64, 0
4, 21643, Control_c, 0, 64, 127
4, 22090, Control_c, 0, 64, 0
4, 22158, Control_c, 0, 64, 127
4, 22571, Control_c, 0, 64, 0
4, 23040, Control_c, 0, 64, 127
4, 23768, Control_c, 0, 64, 0
4, 23859, Control_c, 0, 64, 127
4, 24010, Control_c, 0, 64, 0
4, 24254, Control_c, 0, 64, 127
4, 24723, Control_c, 0, 64, 0
4, 24819, Control_c, 0, 64, 127
4, 24968, Control_c, 0, 64, 0
4, 25023, Control_c, 0, 64, 127
4, 25209, Control_c, 0, 64, 0
4, 25269, Control_c, 0, 64, 127
4, 25448, Control_c, 0, 64, 0
4, 25503, Control_c, 0, 64, 127
4, 25689, Control_c, 0, 64, 0
4, 25755, Control_c, 0, 64, 127
4, 25920, Control_c, 0, 64, 0
4, 25989, Control_c, 0, 64, 127
4, 26410, Control_c, 0, 64, 0
4, 26933, Control_c, 0, 64, 127
4, 27607, Control_c, 0, 64, 0
4, 27650, Control_c, 0, 64, 127
4, 27847, Control_c, 0, 64, 0
4, 28860, Control_c, 0, 64, 127
4, 29043, Control_c, 0, 64, 0
4, 29372, Control_c, 0, 64, 127
4, 29529, Control_c, 0, 64, 0
4, 29877, Control_c, 0, 64, 127
4, 30248, Control_c, 0, 64, 0
4, 30726, Control_c, 0, 64, 127
4, 31213, Control_c, 0, 64, 0
4, 31292, Control_c, 0, 64, 127
4, 31709, Control_c, 0, 64, 0
4, 31772, Control_c, 0, 64, 127
4, 32172, Control_c, 0, 64, 0
4, 34560, Control_c, 0, 64, 127
4, 35051, Control_c, 0, 64, 0
4, 35155, Control_c, 0, 64, 127
4, 35532, Control_c, 0, 64, 0
4, 35669, Control_c, 0, 64, 127
4, 36010, Control_c, 0, 64, 0
4, 36206, Control_c, 0, 64, 127
4, 36480, Control_c, 0, 64, 0
4, 36530, Control_c, 0, 64, 127
4, 36969, Control_c, 0, 64, 0
4, 37003, Control_c, 0, 64, 127
4, 37450, Control_c, 0, 64, 0
4, 37518, Control_c, 0, 64, 127
4, 37931, Control_c, 0, 64, 0
4, 38400, Control_c, 0, 64, 127
4, 39128, Control_c, 0, 64, 0
4, 39219, Control_c, 0, 64, 127
4, 39370, Control_c, 0, 64, 0
4, 39614, Control_c, 0, 64, 127
4, 40083, Control_c, 0, 64, 0
4, 40179, Control_c, 0, 64, 127
4, 40328, Control_c, 0, 64, 0
4, 40383, Control_c, 0, 64, 127
4, 40569, Control_c, 0, 64, 0
4, 40629, Control_c, 0, 64, 127
4, 40808, Control_c, 0, 64, 0
4, 40863, Control_c, 0, 64, 127
4, 41049, Control_c, 0, 64, 0
4, 41115, Control_c, 0, 64, 127
4, 41280, Control_c, 0, 64, 0
4, 41349, Control_c, 0, 64, 127
4, 41770, Control_c, 0, 64, 0
4, 42293, Control_c, 0, 64, 127
4, 42967, Control_c, 0, 64, 0
4, 43010, Control_c, 0, 64, 127
4, 43207, Control_c, 0, 64, 0
4, 44215, Control_c, 0, 64, 127
4, 44403, Control_c, 0, 64, 0
4, 44697, Control_c, 0, 64, 127
4, 44889, Control_c, 0, 64, 0
4, 45166, Control_c, 0, 64, 127
4, 45608, Control_c, 0, 64, 0
4, 46080, Control_c, 0, 64, 127
4, 46567, Control_c, 0, 64, 0
4, 46612, Control_c, 0, 64, 127
4, 46805, Control_c, 0, 64, 0
4, 46846, Control_c, 0, 64, 127
4, 47006, Control_c, 0, 64, 0
4, 47069, Control_c, 0, 64, 127
4, 47531, Control_c, 0, 64, 0
4, 47589, Control_c, 0, 64, 127
4, 47771, Control_c, 0, 64, 0
4, 47829, Control_c, 0, 64, 127
4, 48000, Control_c, 0, 64, 0
4, 48488, Control_c, 0, 64, 0
4, 48555, Control_c, 0, 64, 127
4, 48610, Control_c, 0, 64, 0
4, 48800, Control_c, 0, 64, 127
4, 48856, Control_c, 0, 64, 0
4, 49052, Control_c, 0, 64, 127
4, 49229, Control_c, 0, 64, 0
4, 49966, Control_c, 0, 64, 127
4, 50414, Control_c, 0, 64, 0
4, 50492, Control_c, 0, 64, 127
4, 50649, Control_c, 0, 64, 0
4, 50737, Control_c, 0, 64, 127
4, 50897, Control_c, 0, 64, 0
4, 50995, Control_c, 0, 64, 127
4, 51371, Control_c, 0, 64, 0
4, 51412, Control_c, 0, 64, 127
4, 51612, Control_c, 0, 64, 0
4, 51680, Control_c, 0, 64, 127
4, 51840, Control_c, 0, 64, 0
4, 51903, Control_c, 0, 64, 127
4, 52085, Control_c, 0, 64, 0
4, 52149, Control_c, 0, 64, 127
4, 52332, Control_c, 0, 64, 0
4, 52383, Control_c, 0, 64, 127
4, 52572, Control_c, 0, 64, 0
4, 52640, Control_c, 0, 64, 127
4, 52810, Control_c, 0, 64, 0
4, 53814, Control_c, 0, 64, 127
4, 54247, Control_c, 0, 64, 0
4, 54292, Control_c, 0, 64, 127
4, 54485, Control_c, 0, 64, 0
4, 54526, Control_c, 0, 64, 127
4, 54686, Control_c, 0, 64, 0
4, 54749, Control_c, 0, 64, 127
4, 55211, Control_c, 0, 64, 0
4, 55269, Control_c, 0, 64, 127
4, 55451, Control_c, 0, 64, 0
4, 55509, Control_c, 0, 64, 127
4, 55680, Control_c, 0, 64, 0
4, 56168, Control_c, 0, 64, 0
4, 56235, Control_c, 0, 64, 127
4, 56294, Control_c, 0, 64, 0
4, 56480, Control_c, 0, 64, 127
4, 56533, Control_c, 0, 64, 0
4, 56732, Control_c, 0, 64, 127
4, 56909, Control_c, 0, 64, 0
4, 57646, Control_c, 0, 64, 127
4, 58094, Control_c, 0, 64, 0
4, 58172, Control_c, 0, 64, 127
4, 58329, Control_c, 0, 64, 0
4, 58417, Control_c, 0, 64, 127
4, 58577, Control_c, 0, 64, 0
4, 58675, Control_c, 0, 64, 127
4, 59051, Control_c, 0, 64, 0
4, 59092, Control_c, 0, 64, 127
4, 59292, Control_c, 0, 64, 0
4, 59360, Control_c, 0, 64, 127
4, 59520, Control_c, 0, 64, 0
4, 59583, Control_c, 0, 64, 127
4, 59765, Control_c, 0, 64, 0
4, 59829, Control_c, 0, 64, 127
4, 60012, Control_c, 0, 64, 0
4, 60063, Control_c, 0, 64, 127
4, 60252, Control_c, 0, 64, 0
4, 60320, Control_c, 0, 64, 127
4, 60490, Control_c, 0, 64, 0
4, 61494, Control_c, 0, 64, 127
4, 61927, Control_c, 0, 64, 0
4, 61972, Control_c, 0, 64, 127
4, 62410, Control_c, 0, 64, 0
4, 62447, Control_c, 0, 64, 127
4, 62891, Control_c, 0, 64, 0
4, 62949, Control_c, 0, 64, 127
4, 63131, Control_c, 0, 64, 0
4, 63189, Control_c, 0, 64, 127
4, 63363, Control_c, 0, 64, 0
4, 63422, Control_c, 0, 64, 127
4, 63847, Control_c, 0, 64, 0
4, 63892, Control_c, 0, 64, 127
4, 64329, Control_c, 0, 64, 0
4, 64384, Control_c, 0, 64, 127
4, 64811, Control_c, 0, 64, 0
4, 64869, Control_c, 0, 64, 127
4, 65051, Control_c, 0, 64, 0
4, 65109, Control_c, 0, 64, 127
4, 65291, Control_c, 0, 64, 0
4, 65774, Control_c, 0, 64, 0
4, 65830, Control_c, 0, 64, 127
4, 66257, Control_c, 0, 64, 0
4, 66731, Control_c, 0, 64, 0
4, 66772, Control_c, 0, 64, 127
4, 67200, Control_c, 0, 64, 0
4, 69174, Control_c, 0, 64, 127
4, 69607, Control_c, 0, 64, 0
4, 69652, Control_c, 0, 64, 127
4, 69845, Control_c, 0, 64, 0
4, 69886, Control_c, 0, 64, 127
4, 70046, Control_c, 0, 64, 0
4, 70109, Control_c, 0, 64, 127
4, 70571, Control_c, 0, 64, 0
4, 70629, Control_c, 0, 64, 127
4, 70811, Control_c, 0, 64, 0
4, 70869, Control_c, 0, 64, 127
4, 71040, Control_c, 0, 64, 0
4, 71528, Control_c, 0, 64, 0
4, 71595, Control_c, 0, 64, 127
4, 71658, Control_c, 0, 64, 0
4, 71840, Control_c, 0, 64, 127
4, 71899, Control_c, 0, 64, 0
4, 72092, Control_c, 0, 64, 127
4, 72269, Control_c, 0, 64, 0
4, 73046, Control_c, 0, 64, 127
4, 73454, Control_c, 0, 64, 0
4, 73532, Control_c, 0, 64, 127
4, 73689, Control_c, 0, 64, 0
4, 73777, Control_c, 0, 64, 127
4, 73937, Control_c, 0, 64, 0
4, 74035, Control_c, 0, 64, 127
4, 74411, Control_c, 0, 64, 0
4, 74452, Control_c, 0, 64, 127
4, 74652, Control_c, 0, 64, 0
4, 74720, Control_c, 0, 64, 127
4, 74880, Control_c, 0, 64, 0
4, 74943, Control_c, 0, 64, 127
4, 75125, Control_c, 0, 64, 0
4, 75189, Control_c, 0, 64, 127
4, 75372, Control_c, 0, 64, 0
4, 75423, Control_c, 0, 64, 127
4, 75612, Control_c, 0, 64, 0
4, 75680, Control_c, 0, 64, 127
4, 75850, Control_c, 0, 64, 0
4, 76854, Control_c, 0, 64, 127
4, 77287, Control_c, 0, 64, 0
4, 77332, Control_c, 0, 64, 127
4, 77773, Control_c, 0, 64, 0
4, 77829, Control_c, 0, 64, 127
4, 78251, Control_c, 0, 64, 0
4, 78309, Control_c, 0, 64, 127
4, 78491, Control_c, 0, 64, 0
4, 78549, Control_c, 0, 64, 127
4, 78723, Control_c, 0, 64, 0
4, 78782, Control_c, 0, 64, 127
4, 79207, Control_c, 0, 64, 0
4, 79252, Control_c, 0, 64, 127
4, 79646, Control_c, 0, 64, 0
4, 79709, Control_c, 0, 64, 127
4, 80171, Control_c, 0, 64, 0
4, 80229, Control_c, 0, 64, 127
4, 80411, Control_c, 0, 64, 0
4, 80469, Control_c, 0, 64, 127
4, 80651, Control_c, 0, 64, 0
4, 81134, Control_c, 0, 64, 0
4, 81190, Control_c, 0, 64, 127
4, 81617, Control_c, 0, 64, 0
4, 82091, Control_c, 0, 64, 0
4, 82132, Control_c, 0, 64, 127
4, 82560, Control_c, 0, 64, 0
4, 84572, Control_c, 0, 64, 127
4, 84967, Control_c, 0, 64, 0
4, 85012, Control_c, 0, 64, 127
4, 85205, Control_c, 0, 64, 0
4, 85246, Control_c, 0, 64, 127
4, 85406, Control_c, 0, 64, 0
4, 85469, Control_c, 0, 64, 127
4, 85931, Control_c, 0, 64, 0
4, 85989, Control_c, 0, 64, 127
4, 86171, Control_c, 0, 64, 0
4, 86229, Control_c, 0, 64, 127
4, 86400, Control_c, 0, 64, 0
4, 86888, Control_c, 0, 64, 0
4, 86955, Control_c, 0, 64, 127
4, 87015, Control_c, 0, 64, 0
4, 87200, Control_c, 0, 64, 127
4, 87258, Control_c, 0, 64, 0
4, 87452, Control_c, 0, 64, 127
4, 87629, Control_c, 0, 64, 0
4, 88366, Control_c, 0, 64, 127
4, 88814, Control_c, 0, 64, 0
4, 88892, Control_c, 0, 64, 127
4, 89049, Control_c, 0, 64, 0
4, 89137, Control_c, 0, 64, 127
4, 89297, Control_c, 0, 64, 0
4, 89395, Control_c, 0, 64, 127
4, 89771, Control_c, 0, 64, 0
4, 89812, Control_c, 0, 64, 127
4, 90012, Control_c, 0, 64, 0
4, 90080, Control_c, 0, 64, 127
4, 90240, Control_c, 0, 64, 0
4, 90303, Control_c, 0, 64, 127
4, 90485, Control_c, 0, 64, 0
4, 90549, Control_c, 0, 64, 127
4, 90732, Control_c, 0, 64, 0
4, 90783, Control_c, 0, 64, 127
4, 90972, Control_c, 0, 64, 0
4, 91040, Control_c, 0, 64, 127
4, 91210, Control_c, 0, 64, 0
4, 98005, Control_c, 0, 64, 127
4, 98648, Control_c, 0, 64, 0
4, 98739, Control_c, 0, 64, 127
4, 98890, Control_c, 0, 64, 0
4, 99134, Control_c, 0, 64, 127
4, 99603, Control_c, 0, 64, 0
4, 99699, Control_c, 0, 64, 127
4, 99848, Control_c, 0, 64, 0
4, 99903, Control_c, 0, 64, 127
4, 100089, Control_c, 0, 64, 0
4, 100149, Control_c, 0, 64, 127
4, 100328, Control_c, 0, 64, 0
4, 100383, Control_c, 0, 64, 127
4, 100569, Control_c, 0, 64, 0
4, 100635, Control_c, 0, 64, 127
4, 100800, Control_c, 0, 64, 0
4, 100869, Control_c, 0, 64, 127
4, 101290, Control_c, 0, 64, 0
4, 101813, Control_c, 0, 64, 127
4, 102487, Control_c, 0, 64, 0
4, 102530, Control_c, 0, 64, 127
4, 102727, Control_c, 0, 64, 0
4, 103737, Control_c, 0, 64, 127
4, 103923, Control_c, 0, 64, 0
4, 104252, Control_c, 0, 64, 127
4, 104409, Control_c, 0, 64, 0
4, 104686, Control_c, 0, 64, 127
4, 105128, Control_c, 0, 64, 0
4, 105621, Control_c, 0, 64, 127
4, 106091, Control_c, 0, 64, 0
4, 106130, Control_c, 0, 64, 127
4, 106570, Control_c, 0, 64, 0
4, 106603, Control_c, 0, 64, 127
4, 107051, Control_c, 0, 64, 0
4, 107104, Control_c, 0, 64, 127
4, 107531, Control_c, 0, 64, 0
4, 107612, Control_c, 0, 64, 127
4, 108011, Control_c, 0, 64, 0
4, 108490, Control_c, 0, 64, 0
4, 108523, Control_c, 0, 64, 127
4, 108971, Control_c, 0, 64, 0
4, 109024, Control_c, 0, 64, 127
4, 109451, Control_c, 0, 64, 0
4, 109532, Control_c, 0, 64, 127
4, 109931, Control_c, 0, 64, 0
4, 109970, Control_c, 0, 64, 127
4, 109984, Control_c, 0, 64, 0
4, 110443, Control_c, 0, 64, 127
4, 110891, Control_c, 0, 64, 0
4, 110944, Control_c, 0, 64, 127
4, 110977, Control_c, 0, 64, 0
4, 111423, Control_c, 0, 64, 127
4, 111612, Control_c, 0, 64, 0
4, 111669, Control_c, 0, 64, 127
4, 111823, Control_c, 0, 64, 0
4, 111903, Control_c, 0, 64, 127
4, 112017, Control_c, 0, 64, 0
4, 112149, Control_c, 0, 64, 127
4, 112269, Control_c, 0, 64, 0
4, 113365, Control_c, 0, 64, 127
4, 113771, Control_c, 0, 64, 0
4, 113810, Control_c, 0, 64, 127
4, 114250, Control_c, 0, 64, 0
4, 114283, Control_c, 0, 64, 127
4, 114731, Control_c, 0, 64, 0
4, 114784, Control_c, 0, 64, 127
4, 115211, Control_c, 0, 64, 0
4, 115292, Control_c, 0, 64, 127
4, 115691, Control_c, 0, 64, 0
4, 116170, Control_c, 0, 64, 0
4, 116203, Control_c, 0, 64, 127
4, 116651, Control_c, 0, 64, 0
4, 116704, Control_c, 0, 64, 127
4, 117131, Control_c, 0, 64, 0
4, 117212, Control_c, 0, 64, 127
4, 117611, Control_c, 0, 64, 0
4, 117650, Control_c, 0, 64, 127
4, 117664, Control_c, 0, 64, 0
4, 118123, Control_c, 0, 64, 127
4, 118571, Control_c, 0, 64, 0
4, 118624, Control_c, 0, 64, 127
4, 118657, Control_c, 0, 64, 0
4, 119103, Control_c, 0, 64, 127
4, 119292, Control_c, 0, 64, 0
4, 119349, Control_c, 0, 64, 127
4, 119503, Control_c, 0, 64, 0
4, 119583, Control_c, 0, 64, 127
4, 119697, Control_c, 0, 64, 0
4, 119829, Control_c, 0, 64, 127
4, 119949, Control_c, 0, 64, 0
4, 121007, Control_c, 0, 64, 127
4, 121451, Control_c, 0, 64, 0
4, 122012, Control_c, 0, 64, 127
4, 122411, Control_c, 0, 64, 0
4, 122937, Control_c, 0, 64, 127
4, 123406, Control_c, 0, 64, 0
4, 124386, Control_c, 0, 64, 127
4, 124810, Control_c, 0, 64, 0
4, 124863, Control_c, 0, 64, 127
4, 125291, Control_c, 0, 64, 0
4, 125852, Control_c, 0, 64, 127
4, 126251, Control_c, 0, 64, 0
4, 126755, Control_c, 0, 64, 127
4, 126971, Control_c, 0, 64, 0
4, 127017, Control_c, 0, 64, 127
4, 127214, Control_c, 0, 64, 0
4, 127263, Control_c, 0, 64, 127
4, 127451, Control_c, 0, 64, 0
4, 127515, Control_c, 0, 64, 127
4, 127691, Control_c, 0, 64, 0
4, 127777, Control_c, 0, 64, 127
4, 128174, Control_c, 0, 64, 0
4, 128687, Control_c, 0, 64, 127
4, 129131, Control_c, 0, 64, 0
4, 129692, Control_c, 0, 64, 127
4, 130091, Control_c, 0, 64, 0
4, 130617, Control_c, 0, 64, 127
4, 131086, Control_c, 0, 64, 0
4, 132066, Control_c, 0, 64, 127
4, 132490, Control_c, 0, 64, 0
4, 132543, Control_c, 0, 64, 127
4, 132971, Control_c, 0, 64, 0
4, 133532, Control_c, 0, 64, 127
4, 133931, Control_c, 0, 64, 0
4, 134435, Control_c, 0, 64, 127
4, 134651, Control_c, 0, 64, 0
4, 134710, Control_c, 0, 64, 127
4, 134894, Control_c, 0, 64, 0
4, 134943, Control_c, 0, 64, 127
4, 135131, Control_c, 0, 64, 0
4, 135195, Control_c, 0, 64, 127
4, 135371, Control_c, 0, 64, 0
4, 135457, Control_c, 0, 64, 127
4, 135854, Control_c, 0, 64, 0
4, 136880, Control_c, 0, 64, 127
4, 137292, Control_c, 0, 64, 0
4, 137863, Control_c, 0, 64, 127
4, 138240, Control_c, 0, 64, 0
4, 138765, Control_c, 0, 64, 127
4, 139200, Control_c, 0, 64, 0
4, 139263, Control_c, 0, 64, 127
4, 139692, Control_c, 0, 64, 0
4, 140160, Control_c, 0, 64, 0
4, 140223, Control_c, 0, 64, 127
4, 140652, Control_c, 0, 64, 0
4, 141120, Control_c, 0, 64, 0
4, 141183, Control_c, 0, 64, 127
4, 142080, Control_c, 0, 64, 0
4, 144085, Control_c, 0, 64, 127
4, 144728, Control_c, 0, 64, 0
4, 144819, Control_c, 0, 64, 127
4, 144970, Control_c, 0, 64, 0
4, 145214, Control_c, 0, 64, 127
4, 145683, Control_c, 0, 64, 0
4, 145779, Control_c, 0, 64, 127
4, 145928, Control_c, 0, 64, 0
4, 145983, Control_c, 0, 64, 127
4, 146169, Control_c, 0, 64, 0
4, 146229, Control_c, 0, 64, 127
4, 146408, Control_c, 0, 64, 0
4, 146463, Control_c, 0, 64, 127
4, 146649, Control_c, 0, 64, 0
4, 146715, Control_c, 0, 64, 127
4, 146880, Control_c, 0, 64, 0
4, 146949, Control_c, 0, 64, 127
4, 147370, Control_c, 0, 64, 0
4, 147893, Control_c, 0, 64, 127
4, 148567, Control_c, 0, 64, 0
4, 148610, Control_c, 0, 64, 127
4, 148807, Control_c, 0, 64, 0
4, 149803, Control_c, 0, 64, 127
4, 150003, Control_c, 0, 64, 0
4, 150332, Control_c, 0, 64, 127
4, 150489, Control_c, 0, 64, 0
4, 150766, Control_c, 0, 64, 127
4, 151208, Control_c, 0, 64, 0
4, 151723, Control_c, 0, 64, 127
4, 152171, Control_c, 0, 64, 0
4, 152210, Control_c, 0, 64, 127
4, 152650, Control_c, 0, 64, 0
4, 152683, Control_c, 0, 64, 127
4, 153131, Control_c, 0, 64, 0
4, 153184, Control_c, 0, 64, 127
4, 153607, Control_c, 0, 64, 0
4, 153643, Control_c, 0, 64, 127
4, 154091, Control_c, 0, 64, 0
4, 154130, Control_c, 0, 64, 127
4, 154570, Control_c, 0, 64, 0
4, 154603, Control_c, 0, 64, 127
4, 154811, Control_c, 0, 64, 0
4, 154860, Control_c, 0, 64, 127
4, 155051, Control_c, 0, 64, 0
4, 155104, Control_c, 0, 64, 127
4, 155530, Control_c, 0, 64, 0
4, 155789, Control_c, 0, 64, 127
4, 156013, Control_c, 0, 64, 0
4, 156063, Control_c, 0, 64, 127
4, 156252, Control_c, 0, 64, 0
4, 156326, Control_c, 0, 64, 127
4, 156487, Control_c, 0, 64, 0
4, 156732, Control_c, 0, 64, 127
4, 156970, Control_c, 0, 64, 0
4, 157052, Control_c, 0, 64, 127
4, 157212, Control_c, 0, 64, 0
4, 157280, Control_c, 0, 64, 127
4, 157447, Control_c, 0, 64, 0
4, 157726, Control_c, 0, 64, 127
4, 157930, Control_c, 0, 64, 0
4, 159400, Control_c, 0, 64, 127
4, 159851, Control_c, 0, 64, 0
4, 160334, Control_c, 0, 64, 0
4, 160406, Control_c, 0, 64, 127
4, 160811, Control_c, 0, 64, 0
4, 161283, Control_c, 0, 64, 0
4, 161365, Control_c, 0, 64, 127
4, 161527, Control_c, 0, 64, 0
4, 161598, Control_c, 0, 64, 127
4, 161768, Control_c, 0, 64, 0
4, 161845, Control_c, 0, 64, 127
4, 162003, Control_c, 0, 64, 0
4, 162057, Control_c, 0, 64, 127
4, 162261, Control_c, 0, 64, 0
4, 162865, Control_c, 0, 64, 127
4, 163221, Control_c, 0, 64, 0
4, 163825, Control_c, 0, 64, 127
4, 164181, Control_c, 0, 64, 0
4, 164785, Control_c, 0, 64, 127
4, 165130, Control_c, 0, 64, 0
4, 165487, Control_c, 0, 64, 127
4, 166093, Control_c, 0, 64, 0
4, 166292, Control_c, 0, 64, 127
4, 166716, Control_c, 0, 64, 0
4, 166716, End_track
5, 0, Start_track
5, 0, Title_t, "Mozart: Klaviersonate KV 570 2. Satz"
5, 0, End_track
6, 0, Start_track
6, 0, Title_t, "Copyright © 2006 by Bernd Krueger"
6, 0, End_track
7, 0, Start_track
7, 0, Title_t, "http://www.piano-midi.de/"
7, 0, End_track
8, 0, Start_track
8, 0, Title_t, "Edition: 2013-10-17"
8, 0, End_track
9, 0, Start_track
9, 0, Title_t, "Spur 8"
9, 0, End_track
10, 0, Start_track
10, 0, Title_t, "Spur 9"
10, 0, End_track
11, 0, Start_track
11, 0, Title_t, "Spur 10"
11, 0, End_track
12, 0, Start_track
12, 0, Title_t, "Spur 11"
12, 0, End_track
13, 0, Start_track
13, 0, Title_t, "Spur 12"
13, 0, End_track
14, 0, Start_track
14, 0, Title_t, "Spur 13"
14, 0, End_track
15, 0, Start_track
15, 0, Title_t, "Spur 14"
15, 0, End_track
16, 0, Start_track
16, 0, Title_t, "Spur 15"
16, 0, End_track
17, 0, Start_track
17, 0, Title_t, "Spur 16"
17, 0, End_track
0, 0, End_of_file
